%TF.GenerationSoftware,KiCad,Pcbnew,9.0.2*%
%TF.CreationDate,2025-11-22T23:52:39+01:00*%
%TF.ProjectId,KNeoPiX_v1.3,4b4e656f-5069-4585-9f76-312e332e6b69,1.3*%
%TF.SameCoordinates,Original*%
%TF.FileFunction,Legend,Top*%
%TF.FilePolarity,Positive*%
%FSLAX46Y46*%
G04 Gerber Fmt 4.6, Leading zero omitted, Abs format (unit mm)*
G04 Created by KiCad (PCBNEW 9.0.2) date 2025-11-22 23:52:39*
%MOMM*%
%LPD*%
G01*
G04 APERTURE LIST*
G04 Aperture macros list*
%AMRoundRect*
0 Rectangle with rounded corners*
0 $1 Rounding radius*
0 $2 $3 $4 $5 $6 $7 $8 $9 X,Y pos of 4 corners*
0 Add a 4 corners polygon primitive as box body*
4,1,4,$2,$3,$4,$5,$6,$7,$8,$9,$2,$3,0*
0 Add four circle primitives for the rounded corners*
1,1,$1+$1,$2,$3*
1,1,$1+$1,$4,$5*
1,1,$1+$1,$6,$7*
1,1,$1+$1,$8,$9*
0 Add four rect primitives between the rounded corners*
20,1,$1+$1,$2,$3,$4,$5,0*
20,1,$1+$1,$4,$5,$6,$7,0*
20,1,$1+$1,$6,$7,$8,$9,0*
20,1,$1+$1,$8,$9,$2,$3,0*%
G04 Aperture macros list end*
%ADD10C,0.150000*%
%ADD11C,0.100000*%
%ADD12C,0.125000*%
%ADD13C,0.062500*%
%ADD14C,0.250000*%
%ADD15C,0.120000*%
%ADD16C,0.300000*%
%ADD17C,0.200000*%
%ADD18C,0.050000*%
%ADD19R,4.220000X2.120000*%
%ADD20R,0.700000X1.050000*%
%ADD21RoundRect,0.075000X-0.125000X-0.075000X0.125000X-0.075000X0.125000X0.075000X-0.125000X0.075000X0*%
%ADD22RoundRect,0.150000X-0.150000X-0.625000X0.150000X-0.625000X0.150000X0.625000X-0.150000X0.625000X0*%
%ADD23RoundRect,0.250000X-0.350000X-0.650000X0.350000X-0.650000X0.350000X0.650000X-0.350000X0.650000X0*%
%ADD24R,0.830000X0.630000*%
%ADD25O,1.740000X0.360000*%
%ADD26R,0.550000X1.100000*%
%ADD27RoundRect,0.250000X-0.475000X0.250000X-0.475000X-0.250000X0.475000X-0.250000X0.475000X0.250000X0*%
%ADD28RoundRect,0.250000X0.475000X-0.250000X0.475000X0.250000X-0.475000X0.250000X-0.475000X-0.250000X0*%
%ADD29RoundRect,0.075000X0.075000X-0.125000X0.075000X0.125000X-0.075000X0.125000X-0.075000X-0.125000X0*%
%ADD30C,1.875000*%
%ADD31R,2.200000X2.200000*%
%ADD32C,2.200000*%
%ADD33O,1.700000X1.700000*%
%ADD34R,1.700000X1.700000*%
%ADD35RoundRect,0.250000X-0.250000X-0.475000X0.250000X-0.475000X0.250000X0.475000X-0.250000X0.475000X0*%
%ADD36RoundRect,0.150000X0.150000X-0.825000X0.150000X0.825000X-0.150000X0.825000X-0.150000X-0.825000X0*%
%ADD37C,2.500000*%
%ADD38RoundRect,0.075000X-0.075000X0.125000X-0.075000X-0.125000X0.075000X-0.125000X0.075000X0.125000X0*%
%ADD39RoundRect,0.270000X-0.830000X0.630000X-0.830000X-0.630000X0.830000X-0.630000X0.830000X0.630000X0*%
G04 APERTURE END LIST*
D10*
X63735386Y-66433384D02*
G75*
G02*
X62352454Y-66433384I-691466J0D01*
G01*
X62352454Y-66433384D02*
G75*
G02*
X63735386Y-66433384I691466J0D01*
G01*
X63060386Y-66158384D02*
G75*
G02*
X61677454Y-66158384I-691466J0D01*
G01*
X61677454Y-66158384D02*
G75*
G02*
X63060386Y-66158384I691466J0D01*
G01*
X63418920Y-66633384D02*
G75*
G02*
X63368920Y-66633384I-25000J0D01*
G01*
X63368920Y-66633384D02*
G75*
G02*
X63418920Y-66633384I25000J0D01*
G01*
D11*
X61363920Y-64743384D02*
X64028920Y-64743384D01*
X64028920Y-67518384D01*
X61363920Y-67518384D01*
X61363920Y-64743384D01*
D10*
X61993920Y-66208384D02*
G75*
G02*
X61943920Y-66208384I-25000J0D01*
G01*
X61943920Y-66208384D02*
G75*
G02*
X61993920Y-66208384I25000J0D01*
G01*
X63093920Y-65358384D02*
G75*
G02*
X63043920Y-65358384I-25000J0D01*
G01*
X63043920Y-65358384D02*
G75*
G02*
X63093920Y-65358384I25000J0D01*
G01*
X63610386Y-65733384D02*
G75*
G02*
X62227454Y-65733384I-691466J0D01*
G01*
X62227454Y-65733384D02*
G75*
G02*
X63610386Y-65733384I691466J0D01*
G01*
D12*
X63126666Y-56824809D02*
X62888571Y-56824809D01*
X62888571Y-56824809D02*
X62888571Y-56324809D01*
X63555238Y-56824809D02*
X63269524Y-56824809D01*
X63412381Y-56824809D02*
X63412381Y-56324809D01*
X63412381Y-56324809D02*
X63364762Y-56396238D01*
X63364762Y-56396238D02*
X63317143Y-56443857D01*
X63317143Y-56443857D02*
X63269524Y-56467666D01*
X69948572Y-62511071D02*
X69948572Y-61911071D01*
X69948572Y-61911071D02*
X70177143Y-61911071D01*
X70177143Y-61911071D02*
X70234286Y-61939642D01*
X70234286Y-61939642D02*
X70262857Y-61968214D01*
X70262857Y-61968214D02*
X70291429Y-62025357D01*
X70291429Y-62025357D02*
X70291429Y-62111071D01*
X70291429Y-62111071D02*
X70262857Y-62168214D01*
X70262857Y-62168214D02*
X70234286Y-62196785D01*
X70234286Y-62196785D02*
X70177143Y-62225357D01*
X70177143Y-62225357D02*
X69948572Y-62225357D01*
X70891429Y-62511071D02*
X70691429Y-62225357D01*
X70548572Y-62511071D02*
X70548572Y-61911071D01*
X70548572Y-61911071D02*
X70777143Y-61911071D01*
X70777143Y-61911071D02*
X70834286Y-61939642D01*
X70834286Y-61939642D02*
X70862857Y-61968214D01*
X70862857Y-61968214D02*
X70891429Y-62025357D01*
X70891429Y-62025357D02*
X70891429Y-62111071D01*
X70891429Y-62111071D02*
X70862857Y-62168214D01*
X70862857Y-62168214D02*
X70834286Y-62196785D01*
X70834286Y-62196785D02*
X70777143Y-62225357D01*
X70777143Y-62225357D02*
X70548572Y-62225357D01*
X71262857Y-61911071D02*
X71377143Y-61911071D01*
X71377143Y-61911071D02*
X71434286Y-61939642D01*
X71434286Y-61939642D02*
X71491429Y-61996785D01*
X71491429Y-61996785D02*
X71520000Y-62111071D01*
X71520000Y-62111071D02*
X71520000Y-62311071D01*
X71520000Y-62311071D02*
X71491429Y-62425357D01*
X71491429Y-62425357D02*
X71434286Y-62482500D01*
X71434286Y-62482500D02*
X71377143Y-62511071D01*
X71377143Y-62511071D02*
X71262857Y-62511071D01*
X71262857Y-62511071D02*
X71205715Y-62482500D01*
X71205715Y-62482500D02*
X71148572Y-62425357D01*
X71148572Y-62425357D02*
X71120000Y-62311071D01*
X71120000Y-62311071D02*
X71120000Y-62111071D01*
X71120000Y-62111071D02*
X71148572Y-61996785D01*
X71148572Y-61996785D02*
X71205715Y-61939642D01*
X71205715Y-61939642D02*
X71262857Y-61911071D01*
X72091428Y-61939642D02*
X72034286Y-61911071D01*
X72034286Y-61911071D02*
X71948571Y-61911071D01*
X71948571Y-61911071D02*
X71862857Y-61939642D01*
X71862857Y-61939642D02*
X71805714Y-61996785D01*
X71805714Y-61996785D02*
X71777143Y-62053928D01*
X71777143Y-62053928D02*
X71748571Y-62168214D01*
X71748571Y-62168214D02*
X71748571Y-62253928D01*
X71748571Y-62253928D02*
X71777143Y-62368214D01*
X71777143Y-62368214D02*
X71805714Y-62425357D01*
X71805714Y-62425357D02*
X71862857Y-62482500D01*
X71862857Y-62482500D02*
X71948571Y-62511071D01*
X71948571Y-62511071D02*
X72005714Y-62511071D01*
X72005714Y-62511071D02*
X72091428Y-62482500D01*
X72091428Y-62482500D02*
X72120000Y-62453928D01*
X72120000Y-62453928D02*
X72120000Y-62253928D01*
X72120000Y-62253928D02*
X72005714Y-62253928D01*
D13*
X59648333Y-49948595D02*
X59636429Y-49960500D01*
X59636429Y-49960500D02*
X59600714Y-49972404D01*
X59600714Y-49972404D02*
X59576905Y-49972404D01*
X59576905Y-49972404D02*
X59541191Y-49960500D01*
X59541191Y-49960500D02*
X59517381Y-49936690D01*
X59517381Y-49936690D02*
X59505476Y-49912880D01*
X59505476Y-49912880D02*
X59493572Y-49865261D01*
X59493572Y-49865261D02*
X59493572Y-49829547D01*
X59493572Y-49829547D02*
X59505476Y-49781928D01*
X59505476Y-49781928D02*
X59517381Y-49758119D01*
X59517381Y-49758119D02*
X59541191Y-49734309D01*
X59541191Y-49734309D02*
X59576905Y-49722404D01*
X59576905Y-49722404D02*
X59600714Y-49722404D01*
X59600714Y-49722404D02*
X59636429Y-49734309D01*
X59636429Y-49734309D02*
X59648333Y-49746214D01*
X59886429Y-49972404D02*
X59743572Y-49972404D01*
X59815000Y-49972404D02*
X59815000Y-49722404D01*
X59815000Y-49722404D02*
X59791191Y-49758119D01*
X59791191Y-49758119D02*
X59767381Y-49781928D01*
X59767381Y-49781928D02*
X59743572Y-49793833D01*
D12*
X70203313Y-65126425D02*
X70203313Y-65483568D01*
X70203313Y-65483568D02*
X70179504Y-65554996D01*
X70179504Y-65554996D02*
X70131885Y-65602616D01*
X70131885Y-65602616D02*
X70060456Y-65626425D01*
X70060456Y-65626425D02*
X70012837Y-65626425D01*
X70679503Y-65126425D02*
X70441408Y-65126425D01*
X70441408Y-65126425D02*
X70417599Y-65364520D01*
X70417599Y-65364520D02*
X70441408Y-65340711D01*
X70441408Y-65340711D02*
X70489027Y-65316901D01*
X70489027Y-65316901D02*
X70608075Y-65316901D01*
X70608075Y-65316901D02*
X70655694Y-65340711D01*
X70655694Y-65340711D02*
X70679503Y-65364520D01*
X70679503Y-65364520D02*
X70703313Y-65412139D01*
X70703313Y-65412139D02*
X70703313Y-65531187D01*
X70703313Y-65531187D02*
X70679503Y-65578806D01*
X70679503Y-65578806D02*
X70655694Y-65602616D01*
X70655694Y-65602616D02*
X70608075Y-65626425D01*
X70608075Y-65626425D02*
X70489027Y-65626425D01*
X70489027Y-65626425D02*
X70441408Y-65602616D01*
X70441408Y-65602616D02*
X70417599Y-65578806D01*
D13*
X68755476Y-63142404D02*
X68755476Y-62892404D01*
X68755476Y-62892404D02*
X68815000Y-62892404D01*
X68815000Y-62892404D02*
X68850714Y-62904309D01*
X68850714Y-62904309D02*
X68874524Y-62928119D01*
X68874524Y-62928119D02*
X68886429Y-62951928D01*
X68886429Y-62951928D02*
X68898333Y-62999547D01*
X68898333Y-62999547D02*
X68898333Y-63035261D01*
X68898333Y-63035261D02*
X68886429Y-63082880D01*
X68886429Y-63082880D02*
X68874524Y-63106690D01*
X68874524Y-63106690D02*
X68850714Y-63130500D01*
X68850714Y-63130500D02*
X68815000Y-63142404D01*
X68815000Y-63142404D02*
X68755476Y-63142404D01*
X69136429Y-63142404D02*
X68993572Y-63142404D01*
X69065000Y-63142404D02*
X69065000Y-62892404D01*
X69065000Y-62892404D02*
X69041191Y-62928119D01*
X69041191Y-62928119D02*
X69017381Y-62951928D01*
X69017381Y-62951928D02*
X68993572Y-62963833D01*
D12*
X56609047Y-54704809D02*
X56609047Y-55109571D01*
X56609047Y-55109571D02*
X56632857Y-55157190D01*
X56632857Y-55157190D02*
X56656666Y-55181000D01*
X56656666Y-55181000D02*
X56704285Y-55204809D01*
X56704285Y-55204809D02*
X56799523Y-55204809D01*
X56799523Y-55204809D02*
X56847142Y-55181000D01*
X56847142Y-55181000D02*
X56870952Y-55157190D01*
X56870952Y-55157190D02*
X56894761Y-55109571D01*
X56894761Y-55109571D02*
X56894761Y-54704809D01*
X57109048Y-54752428D02*
X57132857Y-54728619D01*
X57132857Y-54728619D02*
X57180476Y-54704809D01*
X57180476Y-54704809D02*
X57299524Y-54704809D01*
X57299524Y-54704809D02*
X57347143Y-54728619D01*
X57347143Y-54728619D02*
X57370952Y-54752428D01*
X57370952Y-54752428D02*
X57394762Y-54800047D01*
X57394762Y-54800047D02*
X57394762Y-54847666D01*
X57394762Y-54847666D02*
X57370952Y-54919095D01*
X57370952Y-54919095D02*
X57085238Y-55204809D01*
X57085238Y-55204809D02*
X57394762Y-55204809D01*
D13*
X64105476Y-63162404D02*
X64105476Y-62912404D01*
X64105476Y-62912404D02*
X64165000Y-62912404D01*
X64165000Y-62912404D02*
X64200714Y-62924309D01*
X64200714Y-62924309D02*
X64224524Y-62948119D01*
X64224524Y-62948119D02*
X64236429Y-62971928D01*
X64236429Y-62971928D02*
X64248333Y-63019547D01*
X64248333Y-63019547D02*
X64248333Y-63055261D01*
X64248333Y-63055261D02*
X64236429Y-63102880D01*
X64236429Y-63102880D02*
X64224524Y-63126690D01*
X64224524Y-63126690D02*
X64200714Y-63150500D01*
X64200714Y-63150500D02*
X64165000Y-63162404D01*
X64165000Y-63162404D02*
X64105476Y-63162404D01*
X64343572Y-62936214D02*
X64355476Y-62924309D01*
X64355476Y-62924309D02*
X64379286Y-62912404D01*
X64379286Y-62912404D02*
X64438810Y-62912404D01*
X64438810Y-62912404D02*
X64462619Y-62924309D01*
X64462619Y-62924309D02*
X64474524Y-62936214D01*
X64474524Y-62936214D02*
X64486429Y-62960023D01*
X64486429Y-62960023D02*
X64486429Y-62983833D01*
X64486429Y-62983833D02*
X64474524Y-63019547D01*
X64474524Y-63019547D02*
X64331667Y-63162404D01*
X64331667Y-63162404D02*
X64486429Y-63162404D01*
D12*
X71934809Y-48400952D02*
X72339571Y-48400952D01*
X72339571Y-48400952D02*
X72387190Y-48377142D01*
X72387190Y-48377142D02*
X72411000Y-48353333D01*
X72411000Y-48353333D02*
X72434809Y-48305714D01*
X72434809Y-48305714D02*
X72434809Y-48210476D01*
X72434809Y-48210476D02*
X72411000Y-48162857D01*
X72411000Y-48162857D02*
X72387190Y-48139047D01*
X72387190Y-48139047D02*
X72339571Y-48115238D01*
X72339571Y-48115238D02*
X71934809Y-48115238D01*
X71934809Y-47639047D02*
X71934809Y-47877142D01*
X71934809Y-47877142D02*
X72172904Y-47900951D01*
X72172904Y-47900951D02*
X72149095Y-47877142D01*
X72149095Y-47877142D02*
X72125285Y-47829523D01*
X72125285Y-47829523D02*
X72125285Y-47710475D01*
X72125285Y-47710475D02*
X72149095Y-47662856D01*
X72149095Y-47662856D02*
X72172904Y-47639047D01*
X72172904Y-47639047D02*
X72220523Y-47615237D01*
X72220523Y-47615237D02*
X72339571Y-47615237D01*
X72339571Y-47615237D02*
X72387190Y-47639047D01*
X72387190Y-47639047D02*
X72411000Y-47662856D01*
X72411000Y-47662856D02*
X72434809Y-47710475D01*
X72434809Y-47710475D02*
X72434809Y-47829523D01*
X72434809Y-47829523D02*
X72411000Y-47877142D01*
X72411000Y-47877142D02*
X72387190Y-47900951D01*
X61816666Y-45507190D02*
X61792857Y-45531000D01*
X61792857Y-45531000D02*
X61721428Y-45554809D01*
X61721428Y-45554809D02*
X61673809Y-45554809D01*
X61673809Y-45554809D02*
X61602381Y-45531000D01*
X61602381Y-45531000D02*
X61554762Y-45483380D01*
X61554762Y-45483380D02*
X61530952Y-45435761D01*
X61530952Y-45435761D02*
X61507143Y-45340523D01*
X61507143Y-45340523D02*
X61507143Y-45269095D01*
X61507143Y-45269095D02*
X61530952Y-45173857D01*
X61530952Y-45173857D02*
X61554762Y-45126238D01*
X61554762Y-45126238D02*
X61602381Y-45078619D01*
X61602381Y-45078619D02*
X61673809Y-45054809D01*
X61673809Y-45054809D02*
X61721428Y-45054809D01*
X61721428Y-45054809D02*
X61792857Y-45078619D01*
X61792857Y-45078619D02*
X61816666Y-45102428D01*
X62054762Y-45554809D02*
X62150000Y-45554809D01*
X62150000Y-45554809D02*
X62197619Y-45531000D01*
X62197619Y-45531000D02*
X62221428Y-45507190D01*
X62221428Y-45507190D02*
X62269047Y-45435761D01*
X62269047Y-45435761D02*
X62292857Y-45340523D01*
X62292857Y-45340523D02*
X62292857Y-45150047D01*
X62292857Y-45150047D02*
X62269047Y-45102428D01*
X62269047Y-45102428D02*
X62245238Y-45078619D01*
X62245238Y-45078619D02*
X62197619Y-45054809D01*
X62197619Y-45054809D02*
X62102381Y-45054809D01*
X62102381Y-45054809D02*
X62054762Y-45078619D01*
X62054762Y-45078619D02*
X62030952Y-45102428D01*
X62030952Y-45102428D02*
X62007143Y-45150047D01*
X62007143Y-45150047D02*
X62007143Y-45269095D01*
X62007143Y-45269095D02*
X62030952Y-45316714D01*
X62030952Y-45316714D02*
X62054762Y-45340523D01*
X62054762Y-45340523D02*
X62102381Y-45364333D01*
X62102381Y-45364333D02*
X62197619Y-45364333D01*
X62197619Y-45364333D02*
X62245238Y-45340523D01*
X62245238Y-45340523D02*
X62269047Y-45316714D01*
X62269047Y-45316714D02*
X62292857Y-45269095D01*
X65876666Y-45517190D02*
X65852857Y-45541000D01*
X65852857Y-45541000D02*
X65781428Y-45564809D01*
X65781428Y-45564809D02*
X65733809Y-45564809D01*
X65733809Y-45564809D02*
X65662381Y-45541000D01*
X65662381Y-45541000D02*
X65614762Y-45493380D01*
X65614762Y-45493380D02*
X65590952Y-45445761D01*
X65590952Y-45445761D02*
X65567143Y-45350523D01*
X65567143Y-45350523D02*
X65567143Y-45279095D01*
X65567143Y-45279095D02*
X65590952Y-45183857D01*
X65590952Y-45183857D02*
X65614762Y-45136238D01*
X65614762Y-45136238D02*
X65662381Y-45088619D01*
X65662381Y-45088619D02*
X65733809Y-45064809D01*
X65733809Y-45064809D02*
X65781428Y-45064809D01*
X65781428Y-45064809D02*
X65852857Y-45088619D01*
X65852857Y-45088619D02*
X65876666Y-45112428D01*
X66305238Y-45064809D02*
X66210000Y-45064809D01*
X66210000Y-45064809D02*
X66162381Y-45088619D01*
X66162381Y-45088619D02*
X66138571Y-45112428D01*
X66138571Y-45112428D02*
X66090952Y-45183857D01*
X66090952Y-45183857D02*
X66067143Y-45279095D01*
X66067143Y-45279095D02*
X66067143Y-45469571D01*
X66067143Y-45469571D02*
X66090952Y-45517190D01*
X66090952Y-45517190D02*
X66114762Y-45541000D01*
X66114762Y-45541000D02*
X66162381Y-45564809D01*
X66162381Y-45564809D02*
X66257619Y-45564809D01*
X66257619Y-45564809D02*
X66305238Y-45541000D01*
X66305238Y-45541000D02*
X66329047Y-45517190D01*
X66329047Y-45517190D02*
X66352857Y-45469571D01*
X66352857Y-45469571D02*
X66352857Y-45350523D01*
X66352857Y-45350523D02*
X66329047Y-45302904D01*
X66329047Y-45302904D02*
X66305238Y-45279095D01*
X66305238Y-45279095D02*
X66257619Y-45255285D01*
X66257619Y-45255285D02*
X66162381Y-45255285D01*
X66162381Y-45255285D02*
X66114762Y-45279095D01*
X66114762Y-45279095D02*
X66090952Y-45302904D01*
X66090952Y-45302904D02*
X66067143Y-45350523D01*
D13*
X68088595Y-57101666D02*
X68100500Y-57113570D01*
X68100500Y-57113570D02*
X68112404Y-57149285D01*
X68112404Y-57149285D02*
X68112404Y-57173094D01*
X68112404Y-57173094D02*
X68100500Y-57208808D01*
X68100500Y-57208808D02*
X68076690Y-57232618D01*
X68076690Y-57232618D02*
X68052880Y-57244523D01*
X68052880Y-57244523D02*
X68005261Y-57256427D01*
X68005261Y-57256427D02*
X67969547Y-57256427D01*
X67969547Y-57256427D02*
X67921928Y-57244523D01*
X67921928Y-57244523D02*
X67898119Y-57232618D01*
X67898119Y-57232618D02*
X67874309Y-57208808D01*
X67874309Y-57208808D02*
X67862404Y-57173094D01*
X67862404Y-57173094D02*
X67862404Y-57149285D01*
X67862404Y-57149285D02*
X67874309Y-57113570D01*
X67874309Y-57113570D02*
X67886214Y-57101666D01*
X67862404Y-56875475D02*
X67862404Y-56994523D01*
X67862404Y-56994523D02*
X67981452Y-57006427D01*
X67981452Y-57006427D02*
X67969547Y-56994523D01*
X67969547Y-56994523D02*
X67957642Y-56970713D01*
X67957642Y-56970713D02*
X67957642Y-56911189D01*
X67957642Y-56911189D02*
X67969547Y-56887380D01*
X67969547Y-56887380D02*
X67981452Y-56875475D01*
X67981452Y-56875475D02*
X68005261Y-56863570D01*
X68005261Y-56863570D02*
X68064785Y-56863570D01*
X68064785Y-56863570D02*
X68088595Y-56875475D01*
X68088595Y-56875475D02*
X68100500Y-56887380D01*
X68100500Y-56887380D02*
X68112404Y-56911189D01*
X68112404Y-56911189D02*
X68112404Y-56970713D01*
X68112404Y-56970713D02*
X68100500Y-56994523D01*
X68100500Y-56994523D02*
X68088595Y-57006427D01*
D12*
X63936666Y-45507190D02*
X63912857Y-45531000D01*
X63912857Y-45531000D02*
X63841428Y-45554809D01*
X63841428Y-45554809D02*
X63793809Y-45554809D01*
X63793809Y-45554809D02*
X63722381Y-45531000D01*
X63722381Y-45531000D02*
X63674762Y-45483380D01*
X63674762Y-45483380D02*
X63650952Y-45435761D01*
X63650952Y-45435761D02*
X63627143Y-45340523D01*
X63627143Y-45340523D02*
X63627143Y-45269095D01*
X63627143Y-45269095D02*
X63650952Y-45173857D01*
X63650952Y-45173857D02*
X63674762Y-45126238D01*
X63674762Y-45126238D02*
X63722381Y-45078619D01*
X63722381Y-45078619D02*
X63793809Y-45054809D01*
X63793809Y-45054809D02*
X63841428Y-45054809D01*
X63841428Y-45054809D02*
X63912857Y-45078619D01*
X63912857Y-45078619D02*
X63936666Y-45102428D01*
X64103333Y-45054809D02*
X64436666Y-45054809D01*
X64436666Y-45054809D02*
X64222381Y-45554809D01*
X67339733Y-73113209D02*
X67339733Y-73470352D01*
X67339733Y-73470352D02*
X67315924Y-73541780D01*
X67315924Y-73541780D02*
X67268305Y-73589400D01*
X67268305Y-73589400D02*
X67196876Y-73613209D01*
X67196876Y-73613209D02*
X67149257Y-73613209D01*
X67792114Y-73279876D02*
X67792114Y-73613209D01*
X67673066Y-73089400D02*
X67554019Y-73446542D01*
X67554019Y-73446542D02*
X67863542Y-73446542D01*
X62858572Y-69688209D02*
X63025238Y-70188209D01*
X63025238Y-70188209D02*
X63191905Y-69688209D01*
X63358571Y-69926304D02*
X63525238Y-69926304D01*
X63596666Y-70188209D02*
X63358571Y-70188209D01*
X63358571Y-70188209D02*
X63358571Y-69688209D01*
X63358571Y-69688209D02*
X63596666Y-69688209D01*
X63763333Y-69688209D02*
X64096666Y-70188209D01*
X64096666Y-69688209D02*
X63763333Y-70188209D01*
X64215714Y-69688209D02*
X64501428Y-69688209D01*
X64358571Y-70188209D02*
X64358571Y-69688209D01*
X68450952Y-70188209D02*
X68450952Y-69688209D01*
X68450952Y-69688209D02*
X68570000Y-69688209D01*
X68570000Y-69688209D02*
X68641428Y-69712019D01*
X68641428Y-69712019D02*
X68689047Y-69759638D01*
X68689047Y-69759638D02*
X68712857Y-69807257D01*
X68712857Y-69807257D02*
X68736666Y-69902495D01*
X68736666Y-69902495D02*
X68736666Y-69973923D01*
X68736666Y-69973923D02*
X68712857Y-70069161D01*
X68712857Y-70069161D02*
X68689047Y-70116780D01*
X68689047Y-70116780D02*
X68641428Y-70164400D01*
X68641428Y-70164400D02*
X68570000Y-70188209D01*
X68570000Y-70188209D02*
X68450952Y-70188209D01*
X69165238Y-69854876D02*
X69165238Y-70188209D01*
X69046190Y-69664400D02*
X68927143Y-70021542D01*
X68927143Y-70021542D02*
X69236666Y-70021542D01*
X70950952Y-70188209D02*
X70950952Y-69688209D01*
X70950952Y-69688209D02*
X71070000Y-69688209D01*
X71070000Y-69688209D02*
X71141428Y-69712019D01*
X71141428Y-69712019D02*
X71189047Y-69759638D01*
X71189047Y-69759638D02*
X71212857Y-69807257D01*
X71212857Y-69807257D02*
X71236666Y-69902495D01*
X71236666Y-69902495D02*
X71236666Y-69973923D01*
X71236666Y-69973923D02*
X71212857Y-70069161D01*
X71212857Y-70069161D02*
X71189047Y-70116780D01*
X71189047Y-70116780D02*
X71141428Y-70164400D01*
X71141428Y-70164400D02*
X71070000Y-70188209D01*
X71070000Y-70188209D02*
X70950952Y-70188209D01*
X71689047Y-69688209D02*
X71450952Y-69688209D01*
X71450952Y-69688209D02*
X71427143Y-69926304D01*
X71427143Y-69926304D02*
X71450952Y-69902495D01*
X71450952Y-69902495D02*
X71498571Y-69878685D01*
X71498571Y-69878685D02*
X71617619Y-69878685D01*
X71617619Y-69878685D02*
X71665238Y-69902495D01*
X71665238Y-69902495D02*
X71689047Y-69926304D01*
X71689047Y-69926304D02*
X71712857Y-69973923D01*
X71712857Y-69973923D02*
X71712857Y-70092971D01*
X71712857Y-70092971D02*
X71689047Y-70140590D01*
X71689047Y-70140590D02*
X71665238Y-70164400D01*
X71665238Y-70164400D02*
X71617619Y-70188209D01*
X71617619Y-70188209D02*
X71498571Y-70188209D01*
X71498571Y-70188209D02*
X71450952Y-70164400D01*
X71450952Y-70164400D02*
X71427143Y-70140590D01*
X65829047Y-69712019D02*
X65781428Y-69688209D01*
X65781428Y-69688209D02*
X65709999Y-69688209D01*
X65709999Y-69688209D02*
X65638571Y-69712019D01*
X65638571Y-69712019D02*
X65590952Y-69759638D01*
X65590952Y-69759638D02*
X65567142Y-69807257D01*
X65567142Y-69807257D02*
X65543333Y-69902495D01*
X65543333Y-69902495D02*
X65543333Y-69973923D01*
X65543333Y-69973923D02*
X65567142Y-70069161D01*
X65567142Y-70069161D02*
X65590952Y-70116780D01*
X65590952Y-70116780D02*
X65638571Y-70164400D01*
X65638571Y-70164400D02*
X65709999Y-70188209D01*
X65709999Y-70188209D02*
X65757618Y-70188209D01*
X65757618Y-70188209D02*
X65829047Y-70164400D01*
X65829047Y-70164400D02*
X65852856Y-70140590D01*
X65852856Y-70140590D02*
X65852856Y-69973923D01*
X65852856Y-69973923D02*
X65757618Y-69973923D01*
X66067142Y-70188209D02*
X66067142Y-69688209D01*
X66067142Y-69688209D02*
X66352856Y-70188209D01*
X66352856Y-70188209D02*
X66352856Y-69688209D01*
X66590952Y-70188209D02*
X66590952Y-69688209D01*
X66590952Y-69688209D02*
X66710000Y-69688209D01*
X66710000Y-69688209D02*
X66781428Y-69712019D01*
X66781428Y-69712019D02*
X66829047Y-69759638D01*
X66829047Y-69759638D02*
X66852857Y-69807257D01*
X66852857Y-69807257D02*
X66876666Y-69902495D01*
X66876666Y-69902495D02*
X66876666Y-69973923D01*
X66876666Y-69973923D02*
X66852857Y-70069161D01*
X66852857Y-70069161D02*
X66829047Y-70116780D01*
X66829047Y-70116780D02*
X66781428Y-70164400D01*
X66781428Y-70164400D02*
X66710000Y-70188209D01*
X66710000Y-70188209D02*
X66590952Y-70188209D01*
X60424733Y-39742209D02*
X60424733Y-40099352D01*
X60424733Y-40099352D02*
X60400924Y-40170780D01*
X60400924Y-40170780D02*
X60353305Y-40218400D01*
X60353305Y-40218400D02*
X60281876Y-40242209D01*
X60281876Y-40242209D02*
X60234257Y-40242209D01*
X60615209Y-39742209D02*
X60924733Y-39742209D01*
X60924733Y-39742209D02*
X60758066Y-39932685D01*
X60758066Y-39932685D02*
X60829495Y-39932685D01*
X60829495Y-39932685D02*
X60877114Y-39956495D01*
X60877114Y-39956495D02*
X60900923Y-39980304D01*
X60900923Y-39980304D02*
X60924733Y-40027923D01*
X60924733Y-40027923D02*
X60924733Y-40146971D01*
X60924733Y-40146971D02*
X60900923Y-40194590D01*
X60900923Y-40194590D02*
X60877114Y-40218400D01*
X60877114Y-40218400D02*
X60829495Y-40242209D01*
X60829495Y-40242209D02*
X60686638Y-40242209D01*
X60686638Y-40242209D02*
X60639019Y-40218400D01*
X60639019Y-40218400D02*
X60615209Y-40194590D01*
X57747352Y-43592209D02*
X57747352Y-43092209D01*
X57747352Y-43092209D02*
X57866400Y-43092209D01*
X57866400Y-43092209D02*
X57937828Y-43116019D01*
X57937828Y-43116019D02*
X57985447Y-43163638D01*
X57985447Y-43163638D02*
X58009257Y-43211257D01*
X58009257Y-43211257D02*
X58033066Y-43306495D01*
X58033066Y-43306495D02*
X58033066Y-43377923D01*
X58033066Y-43377923D02*
X58009257Y-43473161D01*
X58009257Y-43473161D02*
X57985447Y-43520780D01*
X57985447Y-43520780D02*
X57937828Y-43568400D01*
X57937828Y-43568400D02*
X57866400Y-43592209D01*
X57866400Y-43592209D02*
X57747352Y-43592209D01*
X58199733Y-43092209D02*
X58509257Y-43092209D01*
X58509257Y-43092209D02*
X58342590Y-43282685D01*
X58342590Y-43282685D02*
X58414019Y-43282685D01*
X58414019Y-43282685D02*
X58461638Y-43306495D01*
X58461638Y-43306495D02*
X58485447Y-43330304D01*
X58485447Y-43330304D02*
X58509257Y-43377923D01*
X58509257Y-43377923D02*
X58509257Y-43496971D01*
X58509257Y-43496971D02*
X58485447Y-43544590D01*
X58485447Y-43544590D02*
X58461638Y-43568400D01*
X58461638Y-43568400D02*
X58414019Y-43592209D01*
X58414019Y-43592209D02*
X58271162Y-43592209D01*
X58271162Y-43592209D02*
X58223543Y-43568400D01*
X58223543Y-43568400D02*
X58199733Y-43544590D01*
X70435447Y-43116019D02*
X70387828Y-43092209D01*
X70387828Y-43092209D02*
X70316399Y-43092209D01*
X70316399Y-43092209D02*
X70244971Y-43116019D01*
X70244971Y-43116019D02*
X70197352Y-43163638D01*
X70197352Y-43163638D02*
X70173542Y-43211257D01*
X70173542Y-43211257D02*
X70149733Y-43306495D01*
X70149733Y-43306495D02*
X70149733Y-43377923D01*
X70149733Y-43377923D02*
X70173542Y-43473161D01*
X70173542Y-43473161D02*
X70197352Y-43520780D01*
X70197352Y-43520780D02*
X70244971Y-43568400D01*
X70244971Y-43568400D02*
X70316399Y-43592209D01*
X70316399Y-43592209D02*
X70364018Y-43592209D01*
X70364018Y-43592209D02*
X70435447Y-43568400D01*
X70435447Y-43568400D02*
X70459256Y-43544590D01*
X70459256Y-43544590D02*
X70459256Y-43377923D01*
X70459256Y-43377923D02*
X70364018Y-43377923D01*
X70673542Y-43592209D02*
X70673542Y-43092209D01*
X70673542Y-43092209D02*
X70959256Y-43592209D01*
X70959256Y-43592209D02*
X70959256Y-43092209D01*
X71197352Y-43592209D02*
X71197352Y-43092209D01*
X71197352Y-43092209D02*
X71316400Y-43092209D01*
X71316400Y-43092209D02*
X71387828Y-43116019D01*
X71387828Y-43116019D02*
X71435447Y-43163638D01*
X71435447Y-43163638D02*
X71459257Y-43211257D01*
X71459257Y-43211257D02*
X71483066Y-43306495D01*
X71483066Y-43306495D02*
X71483066Y-43377923D01*
X71483066Y-43377923D02*
X71459257Y-43473161D01*
X71459257Y-43473161D02*
X71435447Y-43520780D01*
X71435447Y-43520780D02*
X71387828Y-43568400D01*
X71387828Y-43568400D02*
X71316400Y-43592209D01*
X71316400Y-43592209D02*
X71197352Y-43592209D01*
X67647353Y-43092209D02*
X67956877Y-43092209D01*
X67956877Y-43092209D02*
X67790210Y-43282685D01*
X67790210Y-43282685D02*
X67861639Y-43282685D01*
X67861639Y-43282685D02*
X67909258Y-43306495D01*
X67909258Y-43306495D02*
X67933067Y-43330304D01*
X67933067Y-43330304D02*
X67956877Y-43377923D01*
X67956877Y-43377923D02*
X67956877Y-43496971D01*
X67956877Y-43496971D02*
X67933067Y-43544590D01*
X67933067Y-43544590D02*
X67909258Y-43568400D01*
X67909258Y-43568400D02*
X67861639Y-43592209D01*
X67861639Y-43592209D02*
X67718782Y-43592209D01*
X67718782Y-43592209D02*
X67671163Y-43568400D01*
X67671163Y-43568400D02*
X67647353Y-43544590D01*
X68099734Y-43092209D02*
X68266400Y-43592209D01*
X68266400Y-43592209D02*
X68433067Y-43092209D01*
X68552114Y-43092209D02*
X68861638Y-43092209D01*
X68861638Y-43092209D02*
X68694971Y-43282685D01*
X68694971Y-43282685D02*
X68766400Y-43282685D01*
X68766400Y-43282685D02*
X68814019Y-43306495D01*
X68814019Y-43306495D02*
X68837828Y-43330304D01*
X68837828Y-43330304D02*
X68861638Y-43377923D01*
X68861638Y-43377923D02*
X68861638Y-43496971D01*
X68861638Y-43496971D02*
X68837828Y-43544590D01*
X68837828Y-43544590D02*
X68814019Y-43568400D01*
X68814019Y-43568400D02*
X68766400Y-43592209D01*
X68766400Y-43592209D02*
X68623543Y-43592209D01*
X68623543Y-43592209D02*
X68575924Y-43568400D01*
X68575924Y-43568400D02*
X68552114Y-43544590D01*
X60272352Y-43567209D02*
X60272352Y-43067209D01*
X60272352Y-43067209D02*
X60391400Y-43067209D01*
X60391400Y-43067209D02*
X60462828Y-43091019D01*
X60462828Y-43091019D02*
X60510447Y-43138638D01*
X60510447Y-43138638D02*
X60534257Y-43186257D01*
X60534257Y-43186257D02*
X60558066Y-43281495D01*
X60558066Y-43281495D02*
X60558066Y-43352923D01*
X60558066Y-43352923D02*
X60534257Y-43448161D01*
X60534257Y-43448161D02*
X60510447Y-43495780D01*
X60510447Y-43495780D02*
X60462828Y-43543400D01*
X60462828Y-43543400D02*
X60391400Y-43567209D01*
X60391400Y-43567209D02*
X60272352Y-43567209D01*
X60748543Y-43114828D02*
X60772352Y-43091019D01*
X60772352Y-43091019D02*
X60819971Y-43067209D01*
X60819971Y-43067209D02*
X60939019Y-43067209D01*
X60939019Y-43067209D02*
X60986638Y-43091019D01*
X60986638Y-43091019D02*
X61010447Y-43114828D01*
X61010447Y-43114828D02*
X61034257Y-43162447D01*
X61034257Y-43162447D02*
X61034257Y-43210066D01*
X61034257Y-43210066D02*
X61010447Y-43281495D01*
X61010447Y-43281495D02*
X60724733Y-43567209D01*
X60724733Y-43567209D02*
X61034257Y-43567209D01*
X65596162Y-43092209D02*
X65358067Y-43092209D01*
X65358067Y-43092209D02*
X65334258Y-43330304D01*
X65334258Y-43330304D02*
X65358067Y-43306495D01*
X65358067Y-43306495D02*
X65405686Y-43282685D01*
X65405686Y-43282685D02*
X65524734Y-43282685D01*
X65524734Y-43282685D02*
X65572353Y-43306495D01*
X65572353Y-43306495D02*
X65596162Y-43330304D01*
X65596162Y-43330304D02*
X65619972Y-43377923D01*
X65619972Y-43377923D02*
X65619972Y-43496971D01*
X65619972Y-43496971D02*
X65596162Y-43544590D01*
X65596162Y-43544590D02*
X65572353Y-43568400D01*
X65572353Y-43568400D02*
X65524734Y-43592209D01*
X65524734Y-43592209D02*
X65405686Y-43592209D01*
X65405686Y-43592209D02*
X65358067Y-43568400D01*
X65358067Y-43568400D02*
X65334258Y-43544590D01*
X65762829Y-43092209D02*
X65929495Y-43592209D01*
X65929495Y-43592209D02*
X66096162Y-43092209D01*
X62817352Y-43592209D02*
X62817352Y-43092209D01*
X62817352Y-43092209D02*
X62936400Y-43092209D01*
X62936400Y-43092209D02*
X63007828Y-43116019D01*
X63007828Y-43116019D02*
X63055447Y-43163638D01*
X63055447Y-43163638D02*
X63079257Y-43211257D01*
X63079257Y-43211257D02*
X63103066Y-43306495D01*
X63103066Y-43306495D02*
X63103066Y-43377923D01*
X63103066Y-43377923D02*
X63079257Y-43473161D01*
X63079257Y-43473161D02*
X63055447Y-43520780D01*
X63055447Y-43520780D02*
X63007828Y-43568400D01*
X63007828Y-43568400D02*
X62936400Y-43592209D01*
X62936400Y-43592209D02*
X62817352Y-43592209D01*
X63579257Y-43592209D02*
X63293543Y-43592209D01*
X63436400Y-43592209D02*
X63436400Y-43092209D01*
X63436400Y-43092209D02*
X63388781Y-43163638D01*
X63388781Y-43163638D02*
X63341162Y-43211257D01*
X63341162Y-43211257D02*
X63293543Y-43235066D01*
X49869257Y-43592209D02*
X49869257Y-43092209D01*
X49869257Y-43092209D02*
X49988305Y-43092209D01*
X49988305Y-43092209D02*
X50059733Y-43116019D01*
X50059733Y-43116019D02*
X50107352Y-43163638D01*
X50107352Y-43163638D02*
X50131162Y-43211257D01*
X50131162Y-43211257D02*
X50154971Y-43306495D01*
X50154971Y-43306495D02*
X50154971Y-43377923D01*
X50154971Y-43377923D02*
X50131162Y-43473161D01*
X50131162Y-43473161D02*
X50107352Y-43520780D01*
X50107352Y-43520780D02*
X50059733Y-43568400D01*
X50059733Y-43568400D02*
X49988305Y-43592209D01*
X49988305Y-43592209D02*
X49869257Y-43592209D01*
X50631162Y-43592209D02*
X50345448Y-43592209D01*
X50488305Y-43592209D02*
X50488305Y-43092209D01*
X50488305Y-43092209D02*
X50440686Y-43163638D01*
X50440686Y-43163638D02*
X50393067Y-43211257D01*
X50393067Y-43211257D02*
X50345448Y-43235066D01*
X50940685Y-43092209D02*
X50988304Y-43092209D01*
X50988304Y-43092209D02*
X51035923Y-43116019D01*
X51035923Y-43116019D02*
X51059733Y-43139828D01*
X51059733Y-43139828D02*
X51083542Y-43187447D01*
X51083542Y-43187447D02*
X51107352Y-43282685D01*
X51107352Y-43282685D02*
X51107352Y-43401733D01*
X51107352Y-43401733D02*
X51083542Y-43496971D01*
X51083542Y-43496971D02*
X51059733Y-43544590D01*
X51059733Y-43544590D02*
X51035923Y-43568400D01*
X51035923Y-43568400D02*
X50988304Y-43592209D01*
X50988304Y-43592209D02*
X50940685Y-43592209D01*
X50940685Y-43592209D02*
X50893066Y-43568400D01*
X50893066Y-43568400D02*
X50869257Y-43544590D01*
X50869257Y-43544590D02*
X50845447Y-43496971D01*
X50845447Y-43496971D02*
X50821638Y-43401733D01*
X50821638Y-43401733D02*
X50821638Y-43282685D01*
X50821638Y-43282685D02*
X50845447Y-43187447D01*
X50845447Y-43187447D02*
X50869257Y-43139828D01*
X50869257Y-43139828D02*
X50893066Y-43116019D01*
X50893066Y-43116019D02*
X50940685Y-43092209D01*
X55207352Y-43592209D02*
X55207352Y-43092209D01*
X55207352Y-43092209D02*
X55326400Y-43092209D01*
X55326400Y-43092209D02*
X55397828Y-43116019D01*
X55397828Y-43116019D02*
X55445447Y-43163638D01*
X55445447Y-43163638D02*
X55469257Y-43211257D01*
X55469257Y-43211257D02*
X55493066Y-43306495D01*
X55493066Y-43306495D02*
X55493066Y-43377923D01*
X55493066Y-43377923D02*
X55469257Y-43473161D01*
X55469257Y-43473161D02*
X55445447Y-43520780D01*
X55445447Y-43520780D02*
X55397828Y-43568400D01*
X55397828Y-43568400D02*
X55326400Y-43592209D01*
X55326400Y-43592209D02*
X55207352Y-43592209D01*
X55778781Y-43306495D02*
X55731162Y-43282685D01*
X55731162Y-43282685D02*
X55707352Y-43258876D01*
X55707352Y-43258876D02*
X55683543Y-43211257D01*
X55683543Y-43211257D02*
X55683543Y-43187447D01*
X55683543Y-43187447D02*
X55707352Y-43139828D01*
X55707352Y-43139828D02*
X55731162Y-43116019D01*
X55731162Y-43116019D02*
X55778781Y-43092209D01*
X55778781Y-43092209D02*
X55874019Y-43092209D01*
X55874019Y-43092209D02*
X55921638Y-43116019D01*
X55921638Y-43116019D02*
X55945447Y-43139828D01*
X55945447Y-43139828D02*
X55969257Y-43187447D01*
X55969257Y-43187447D02*
X55969257Y-43211257D01*
X55969257Y-43211257D02*
X55945447Y-43258876D01*
X55945447Y-43258876D02*
X55921638Y-43282685D01*
X55921638Y-43282685D02*
X55874019Y-43306495D01*
X55874019Y-43306495D02*
X55778781Y-43306495D01*
X55778781Y-43306495D02*
X55731162Y-43330304D01*
X55731162Y-43330304D02*
X55707352Y-43354114D01*
X55707352Y-43354114D02*
X55683543Y-43401733D01*
X55683543Y-43401733D02*
X55683543Y-43496971D01*
X55683543Y-43496971D02*
X55707352Y-43544590D01*
X55707352Y-43544590D02*
X55731162Y-43568400D01*
X55731162Y-43568400D02*
X55778781Y-43592209D01*
X55778781Y-43592209D02*
X55874019Y-43592209D01*
X55874019Y-43592209D02*
X55921638Y-43568400D01*
X55921638Y-43568400D02*
X55945447Y-43544590D01*
X55945447Y-43544590D02*
X55969257Y-43496971D01*
X55969257Y-43496971D02*
X55969257Y-43401733D01*
X55969257Y-43401733D02*
X55945447Y-43354114D01*
X55945447Y-43354114D02*
X55921638Y-43330304D01*
X55921638Y-43330304D02*
X55874019Y-43306495D01*
X52627352Y-43622209D02*
X52627352Y-43122209D01*
X52627352Y-43122209D02*
X52746400Y-43122209D01*
X52746400Y-43122209D02*
X52817828Y-43146019D01*
X52817828Y-43146019D02*
X52865447Y-43193638D01*
X52865447Y-43193638D02*
X52889257Y-43241257D01*
X52889257Y-43241257D02*
X52913066Y-43336495D01*
X52913066Y-43336495D02*
X52913066Y-43407923D01*
X52913066Y-43407923D02*
X52889257Y-43503161D01*
X52889257Y-43503161D02*
X52865447Y-43550780D01*
X52865447Y-43550780D02*
X52817828Y-43598400D01*
X52817828Y-43598400D02*
X52746400Y-43622209D01*
X52746400Y-43622209D02*
X52627352Y-43622209D01*
X53151162Y-43622209D02*
X53246400Y-43622209D01*
X53246400Y-43622209D02*
X53294019Y-43598400D01*
X53294019Y-43598400D02*
X53317828Y-43574590D01*
X53317828Y-43574590D02*
X53365447Y-43503161D01*
X53365447Y-43503161D02*
X53389257Y-43407923D01*
X53389257Y-43407923D02*
X53389257Y-43217447D01*
X53389257Y-43217447D02*
X53365447Y-43169828D01*
X53365447Y-43169828D02*
X53341638Y-43146019D01*
X53341638Y-43146019D02*
X53294019Y-43122209D01*
X53294019Y-43122209D02*
X53198781Y-43122209D01*
X53198781Y-43122209D02*
X53151162Y-43146019D01*
X53151162Y-43146019D02*
X53127352Y-43169828D01*
X53127352Y-43169828D02*
X53103543Y-43217447D01*
X53103543Y-43217447D02*
X53103543Y-43336495D01*
X53103543Y-43336495D02*
X53127352Y-43384114D01*
X53127352Y-43384114D02*
X53151162Y-43407923D01*
X53151162Y-43407923D02*
X53198781Y-43431733D01*
X53198781Y-43431733D02*
X53294019Y-43431733D01*
X53294019Y-43431733D02*
X53341638Y-43407923D01*
X53341638Y-43407923D02*
X53365447Y-43384114D01*
X53365447Y-43384114D02*
X53389257Y-43336495D01*
X59408571Y-45497190D02*
X59384762Y-45521000D01*
X59384762Y-45521000D02*
X59313333Y-45544809D01*
X59313333Y-45544809D02*
X59265714Y-45544809D01*
X59265714Y-45544809D02*
X59194286Y-45521000D01*
X59194286Y-45521000D02*
X59146667Y-45473380D01*
X59146667Y-45473380D02*
X59122857Y-45425761D01*
X59122857Y-45425761D02*
X59099048Y-45330523D01*
X59099048Y-45330523D02*
X59099048Y-45259095D01*
X59099048Y-45259095D02*
X59122857Y-45163857D01*
X59122857Y-45163857D02*
X59146667Y-45116238D01*
X59146667Y-45116238D02*
X59194286Y-45068619D01*
X59194286Y-45068619D02*
X59265714Y-45044809D01*
X59265714Y-45044809D02*
X59313333Y-45044809D01*
X59313333Y-45044809D02*
X59384762Y-45068619D01*
X59384762Y-45068619D02*
X59408571Y-45092428D01*
X59884762Y-45544809D02*
X59599048Y-45544809D01*
X59741905Y-45544809D02*
X59741905Y-45044809D01*
X59741905Y-45044809D02*
X59694286Y-45116238D01*
X59694286Y-45116238D02*
X59646667Y-45163857D01*
X59646667Y-45163857D02*
X59599048Y-45187666D01*
X60194285Y-45044809D02*
X60241904Y-45044809D01*
X60241904Y-45044809D02*
X60289523Y-45068619D01*
X60289523Y-45068619D02*
X60313333Y-45092428D01*
X60313333Y-45092428D02*
X60337142Y-45140047D01*
X60337142Y-45140047D02*
X60360952Y-45235285D01*
X60360952Y-45235285D02*
X60360952Y-45354333D01*
X60360952Y-45354333D02*
X60337142Y-45449571D01*
X60337142Y-45449571D02*
X60313333Y-45497190D01*
X60313333Y-45497190D02*
X60289523Y-45521000D01*
X60289523Y-45521000D02*
X60241904Y-45544809D01*
X60241904Y-45544809D02*
X60194285Y-45544809D01*
X60194285Y-45544809D02*
X60146666Y-45521000D01*
X60146666Y-45521000D02*
X60122857Y-45497190D01*
X60122857Y-45497190D02*
X60099047Y-45449571D01*
X60099047Y-45449571D02*
X60075238Y-45354333D01*
X60075238Y-45354333D02*
X60075238Y-45235285D01*
X60075238Y-45235285D02*
X60099047Y-45140047D01*
X60099047Y-45140047D02*
X60122857Y-45092428D01*
X60122857Y-45092428D02*
X60146666Y-45068619D01*
X60146666Y-45068619D02*
X60194285Y-45044809D01*
X50741209Y-49712446D02*
X50741209Y-49402922D01*
X50741209Y-49402922D02*
X50931685Y-49569589D01*
X50931685Y-49569589D02*
X50931685Y-49498160D01*
X50931685Y-49498160D02*
X50955495Y-49450541D01*
X50955495Y-49450541D02*
X50979304Y-49426732D01*
X50979304Y-49426732D02*
X51026923Y-49402922D01*
X51026923Y-49402922D02*
X51145971Y-49402922D01*
X51145971Y-49402922D02*
X51193590Y-49426732D01*
X51193590Y-49426732D02*
X51217400Y-49450541D01*
X51217400Y-49450541D02*
X51241209Y-49498160D01*
X51241209Y-49498160D02*
X51241209Y-49641017D01*
X51241209Y-49641017D02*
X51217400Y-49688636D01*
X51217400Y-49688636D02*
X51193590Y-49712446D01*
X50741209Y-49260065D02*
X51241209Y-49093399D01*
X51241209Y-49093399D02*
X50741209Y-48926732D01*
X50741209Y-48807685D02*
X50741209Y-48498161D01*
X50741209Y-48498161D02*
X50931685Y-48664828D01*
X50931685Y-48664828D02*
X50931685Y-48593399D01*
X50931685Y-48593399D02*
X50955495Y-48545780D01*
X50955495Y-48545780D02*
X50979304Y-48521971D01*
X50979304Y-48521971D02*
X51026923Y-48498161D01*
X51026923Y-48498161D02*
X51145971Y-48498161D01*
X51145971Y-48498161D02*
X51193590Y-48521971D01*
X51193590Y-48521971D02*
X51217400Y-48545780D01*
X51217400Y-48545780D02*
X51241209Y-48593399D01*
X51241209Y-48593399D02*
X51241209Y-48736256D01*
X51241209Y-48736256D02*
X51217400Y-48783875D01*
X51217400Y-48783875D02*
X51193590Y-48807685D01*
X51217400Y-57511017D02*
X51241209Y-57439589D01*
X51241209Y-57439589D02*
X51241209Y-57320541D01*
X51241209Y-57320541D02*
X51217400Y-57272922D01*
X51217400Y-57272922D02*
X51193590Y-57249113D01*
X51193590Y-57249113D02*
X51145971Y-57225303D01*
X51145971Y-57225303D02*
X51098352Y-57225303D01*
X51098352Y-57225303D02*
X51050733Y-57249113D01*
X51050733Y-57249113D02*
X51026923Y-57272922D01*
X51026923Y-57272922D02*
X51003114Y-57320541D01*
X51003114Y-57320541D02*
X50979304Y-57415779D01*
X50979304Y-57415779D02*
X50955495Y-57463398D01*
X50955495Y-57463398D02*
X50931685Y-57487208D01*
X50931685Y-57487208D02*
X50884066Y-57511017D01*
X50884066Y-57511017D02*
X50836447Y-57511017D01*
X50836447Y-57511017D02*
X50788828Y-57487208D01*
X50788828Y-57487208D02*
X50765019Y-57463398D01*
X50765019Y-57463398D02*
X50741209Y-57415779D01*
X50741209Y-57415779D02*
X50741209Y-57296732D01*
X50741209Y-57296732D02*
X50765019Y-57225303D01*
X51098352Y-57034827D02*
X51098352Y-56796732D01*
X51241209Y-57082446D02*
X50741209Y-56915780D01*
X50741209Y-56915780D02*
X51241209Y-56749113D01*
X50741209Y-56653875D02*
X51241209Y-56487209D01*
X51241209Y-56487209D02*
X50741209Y-56320542D01*
X50979304Y-56153876D02*
X50979304Y-55987209D01*
X51241209Y-55915781D02*
X51241209Y-56153876D01*
X51241209Y-56153876D02*
X50741209Y-56153876D01*
X50741209Y-56153876D02*
X50741209Y-55915781D01*
X51241209Y-54256733D02*
X51003114Y-54423399D01*
X51241209Y-54542447D02*
X50741209Y-54542447D01*
X50741209Y-54542447D02*
X50741209Y-54351971D01*
X50741209Y-54351971D02*
X50765019Y-54304352D01*
X50765019Y-54304352D02*
X50788828Y-54280542D01*
X50788828Y-54280542D02*
X50836447Y-54256733D01*
X50836447Y-54256733D02*
X50907876Y-54256733D01*
X50907876Y-54256733D02*
X50955495Y-54280542D01*
X50955495Y-54280542D02*
X50979304Y-54304352D01*
X50979304Y-54304352D02*
X51003114Y-54351971D01*
X51003114Y-54351971D02*
X51003114Y-54542447D01*
X50741209Y-54090066D02*
X51241209Y-53756733D01*
X50741209Y-53756733D02*
X51241209Y-54090066D01*
X50741209Y-52014351D02*
X50741209Y-51728637D01*
X51241209Y-51871494D02*
X50741209Y-51871494D01*
X50741209Y-51609590D02*
X51241209Y-51276257D01*
X50741209Y-51276257D02*
X51241209Y-51609590D01*
X50741209Y-46648637D02*
X50741209Y-46886732D01*
X50741209Y-46886732D02*
X50979304Y-46910541D01*
X50979304Y-46910541D02*
X50955495Y-46886732D01*
X50955495Y-46886732D02*
X50931685Y-46839113D01*
X50931685Y-46839113D02*
X50931685Y-46720065D01*
X50931685Y-46720065D02*
X50955495Y-46672446D01*
X50955495Y-46672446D02*
X50979304Y-46648637D01*
X50979304Y-46648637D02*
X51026923Y-46624827D01*
X51026923Y-46624827D02*
X51145971Y-46624827D01*
X51145971Y-46624827D02*
X51193590Y-46648637D01*
X51193590Y-46648637D02*
X51217400Y-46672446D01*
X51217400Y-46672446D02*
X51241209Y-46720065D01*
X51241209Y-46720065D02*
X51241209Y-46839113D01*
X51241209Y-46839113D02*
X51217400Y-46886732D01*
X51217400Y-46886732D02*
X51193590Y-46910541D01*
X50741209Y-46481970D02*
X51241209Y-46315304D01*
X51241209Y-46315304D02*
X50741209Y-46148637D01*
X51241209Y-62424352D02*
X50741209Y-62424352D01*
X51241209Y-62138638D02*
X50955495Y-62352923D01*
X50741209Y-62138638D02*
X51026923Y-62424352D01*
X51241209Y-61924352D02*
X50741209Y-61924352D01*
X50741209Y-61924352D02*
X51241209Y-61638638D01*
X51241209Y-61638638D02*
X50741209Y-61638638D01*
X50741209Y-61448161D02*
X51241209Y-61114828D01*
X50741209Y-61114828D02*
X51241209Y-61448161D01*
X50765019Y-59674352D02*
X50741209Y-59721971D01*
X50741209Y-59721971D02*
X50741209Y-59793400D01*
X50741209Y-59793400D02*
X50765019Y-59864828D01*
X50765019Y-59864828D02*
X50812638Y-59912447D01*
X50812638Y-59912447D02*
X50860257Y-59936257D01*
X50860257Y-59936257D02*
X50955495Y-59960066D01*
X50955495Y-59960066D02*
X51026923Y-59960066D01*
X51026923Y-59960066D02*
X51122161Y-59936257D01*
X51122161Y-59936257D02*
X51169780Y-59912447D01*
X51169780Y-59912447D02*
X51217400Y-59864828D01*
X51217400Y-59864828D02*
X51241209Y-59793400D01*
X51241209Y-59793400D02*
X51241209Y-59745781D01*
X51241209Y-59745781D02*
X51217400Y-59674352D01*
X51217400Y-59674352D02*
X51193590Y-59650543D01*
X51193590Y-59650543D02*
X51026923Y-59650543D01*
X51026923Y-59650543D02*
X51026923Y-59745781D01*
X51241209Y-59436257D02*
X50741209Y-59436257D01*
X50741209Y-59436257D02*
X51241209Y-59150543D01*
X51241209Y-59150543D02*
X50741209Y-59150543D01*
X51241209Y-58912447D02*
X50741209Y-58912447D01*
X50741209Y-58912447D02*
X50741209Y-58793399D01*
X50741209Y-58793399D02*
X50765019Y-58721971D01*
X50765019Y-58721971D02*
X50812638Y-58674352D01*
X50812638Y-58674352D02*
X50860257Y-58650542D01*
X50860257Y-58650542D02*
X50955495Y-58626733D01*
X50955495Y-58626733D02*
X51026923Y-58626733D01*
X51026923Y-58626733D02*
X51122161Y-58650542D01*
X51122161Y-58650542D02*
X51169780Y-58674352D01*
X51169780Y-58674352D02*
X51217400Y-58721971D01*
X51217400Y-58721971D02*
X51241209Y-58793399D01*
X51241209Y-58793399D02*
X51241209Y-58912447D01*
X61866666Y-61987190D02*
X61842857Y-62011000D01*
X61842857Y-62011000D02*
X61771428Y-62034809D01*
X61771428Y-62034809D02*
X61723809Y-62034809D01*
X61723809Y-62034809D02*
X61652381Y-62011000D01*
X61652381Y-62011000D02*
X61604762Y-61963380D01*
X61604762Y-61963380D02*
X61580952Y-61915761D01*
X61580952Y-61915761D02*
X61557143Y-61820523D01*
X61557143Y-61820523D02*
X61557143Y-61749095D01*
X61557143Y-61749095D02*
X61580952Y-61653857D01*
X61580952Y-61653857D02*
X61604762Y-61606238D01*
X61604762Y-61606238D02*
X61652381Y-61558619D01*
X61652381Y-61558619D02*
X61723809Y-61534809D01*
X61723809Y-61534809D02*
X61771428Y-61534809D01*
X61771428Y-61534809D02*
X61842857Y-61558619D01*
X61842857Y-61558619D02*
X61866666Y-61582428D01*
X62152381Y-61749095D02*
X62104762Y-61725285D01*
X62104762Y-61725285D02*
X62080952Y-61701476D01*
X62080952Y-61701476D02*
X62057143Y-61653857D01*
X62057143Y-61653857D02*
X62057143Y-61630047D01*
X62057143Y-61630047D02*
X62080952Y-61582428D01*
X62080952Y-61582428D02*
X62104762Y-61558619D01*
X62104762Y-61558619D02*
X62152381Y-61534809D01*
X62152381Y-61534809D02*
X62247619Y-61534809D01*
X62247619Y-61534809D02*
X62295238Y-61558619D01*
X62295238Y-61558619D02*
X62319047Y-61582428D01*
X62319047Y-61582428D02*
X62342857Y-61630047D01*
X62342857Y-61630047D02*
X62342857Y-61653857D01*
X62342857Y-61653857D02*
X62319047Y-61701476D01*
X62319047Y-61701476D02*
X62295238Y-61725285D01*
X62295238Y-61725285D02*
X62247619Y-61749095D01*
X62247619Y-61749095D02*
X62152381Y-61749095D01*
X62152381Y-61749095D02*
X62104762Y-61772904D01*
X62104762Y-61772904D02*
X62080952Y-61796714D01*
X62080952Y-61796714D02*
X62057143Y-61844333D01*
X62057143Y-61844333D02*
X62057143Y-61939571D01*
X62057143Y-61939571D02*
X62080952Y-61987190D01*
X62080952Y-61987190D02*
X62104762Y-62011000D01*
X62104762Y-62011000D02*
X62152381Y-62034809D01*
X62152381Y-62034809D02*
X62247619Y-62034809D01*
X62247619Y-62034809D02*
X62295238Y-62011000D01*
X62295238Y-62011000D02*
X62319047Y-61987190D01*
X62319047Y-61987190D02*
X62342857Y-61939571D01*
X62342857Y-61939571D02*
X62342857Y-61844333D01*
X62342857Y-61844333D02*
X62319047Y-61796714D01*
X62319047Y-61796714D02*
X62295238Y-61772904D01*
X62295238Y-61772904D02*
X62247619Y-61749095D01*
X57089047Y-48818209D02*
X57089047Y-49222971D01*
X57089047Y-49222971D02*
X57112857Y-49270590D01*
X57112857Y-49270590D02*
X57136666Y-49294400D01*
X57136666Y-49294400D02*
X57184285Y-49318209D01*
X57184285Y-49318209D02*
X57279523Y-49318209D01*
X57279523Y-49318209D02*
X57327142Y-49294400D01*
X57327142Y-49294400D02*
X57350952Y-49270590D01*
X57350952Y-49270590D02*
X57374761Y-49222971D01*
X57374761Y-49222971D02*
X57374761Y-48818209D01*
X57565238Y-48818209D02*
X57874762Y-48818209D01*
X57874762Y-48818209D02*
X57708095Y-49008685D01*
X57708095Y-49008685D02*
X57779524Y-49008685D01*
X57779524Y-49008685D02*
X57827143Y-49032495D01*
X57827143Y-49032495D02*
X57850952Y-49056304D01*
X57850952Y-49056304D02*
X57874762Y-49103923D01*
X57874762Y-49103923D02*
X57874762Y-49222971D01*
X57874762Y-49222971D02*
X57850952Y-49270590D01*
X57850952Y-49270590D02*
X57827143Y-49294400D01*
X57827143Y-49294400D02*
X57779524Y-49318209D01*
X57779524Y-49318209D02*
X57636667Y-49318209D01*
X57636667Y-49318209D02*
X57589048Y-49294400D01*
X57589048Y-49294400D02*
X57565238Y-49270590D01*
X51922362Y-49161952D02*
X52160457Y-49161952D01*
X51874743Y-49304809D02*
X52041409Y-48804809D01*
X52041409Y-48804809D02*
X52208076Y-49304809D01*
X52374742Y-49304809D02*
X52374742Y-48804809D01*
X52374742Y-48804809D02*
X52493790Y-48804809D01*
X52493790Y-48804809D02*
X52565218Y-48828619D01*
X52565218Y-48828619D02*
X52612837Y-48876238D01*
X52612837Y-48876238D02*
X52636647Y-48923857D01*
X52636647Y-48923857D02*
X52660456Y-49019095D01*
X52660456Y-49019095D02*
X52660456Y-49090523D01*
X52660456Y-49090523D02*
X52636647Y-49185761D01*
X52636647Y-49185761D02*
X52612837Y-49233380D01*
X52612837Y-49233380D02*
X52565218Y-49281000D01*
X52565218Y-49281000D02*
X52493790Y-49304809D01*
X52493790Y-49304809D02*
X52374742Y-49304809D01*
X53089028Y-48971476D02*
X53089028Y-49304809D01*
X52874742Y-48971476D02*
X52874742Y-49233380D01*
X52874742Y-49233380D02*
X52898552Y-49281000D01*
X52898552Y-49281000D02*
X52946171Y-49304809D01*
X52946171Y-49304809D02*
X53017599Y-49304809D01*
X53017599Y-49304809D02*
X53065218Y-49281000D01*
X53065218Y-49281000D02*
X53089028Y-49257190D01*
X53327123Y-49304809D02*
X53327123Y-48804809D01*
X53327123Y-48804809D02*
X53493790Y-49161952D01*
X53493790Y-49161952D02*
X53660456Y-48804809D01*
X53660456Y-48804809D02*
X53660456Y-49304809D01*
X54160457Y-49304809D02*
X53874743Y-49304809D01*
X54017600Y-49304809D02*
X54017600Y-48804809D01*
X54017600Y-48804809D02*
X53969981Y-48876238D01*
X53969981Y-48876238D02*
X53922362Y-48923857D01*
X53922362Y-48923857D02*
X53874743Y-48947666D01*
X54350933Y-48852428D02*
X54374742Y-48828619D01*
X54374742Y-48828619D02*
X54422361Y-48804809D01*
X54422361Y-48804809D02*
X54541409Y-48804809D01*
X54541409Y-48804809D02*
X54589028Y-48828619D01*
X54589028Y-48828619D02*
X54612837Y-48852428D01*
X54612837Y-48852428D02*
X54636647Y-48900047D01*
X54636647Y-48900047D02*
X54636647Y-48947666D01*
X54636647Y-48947666D02*
X54612837Y-49019095D01*
X54612837Y-49019095D02*
X54327123Y-49304809D01*
X54327123Y-49304809D02*
X54636647Y-49304809D01*
X54946170Y-48804809D02*
X54993789Y-48804809D01*
X54993789Y-48804809D02*
X55041408Y-48828619D01*
X55041408Y-48828619D02*
X55065218Y-48852428D01*
X55065218Y-48852428D02*
X55089027Y-48900047D01*
X55089027Y-48900047D02*
X55112837Y-48995285D01*
X55112837Y-48995285D02*
X55112837Y-49114333D01*
X55112837Y-49114333D02*
X55089027Y-49209571D01*
X55089027Y-49209571D02*
X55065218Y-49257190D01*
X55065218Y-49257190D02*
X55041408Y-49281000D01*
X55041408Y-49281000D02*
X54993789Y-49304809D01*
X54993789Y-49304809D02*
X54946170Y-49304809D01*
X54946170Y-49304809D02*
X54898551Y-49281000D01*
X54898551Y-49281000D02*
X54874742Y-49257190D01*
X54874742Y-49257190D02*
X54850932Y-49209571D01*
X54850932Y-49209571D02*
X54827123Y-49114333D01*
X54827123Y-49114333D02*
X54827123Y-48995285D01*
X54827123Y-48995285D02*
X54850932Y-48900047D01*
X54850932Y-48900047D02*
X54874742Y-48852428D01*
X54874742Y-48852428D02*
X54898551Y-48828619D01*
X54898551Y-48828619D02*
X54946170Y-48804809D01*
X55589027Y-49304809D02*
X55303313Y-49304809D01*
X55446170Y-49304809D02*
X55446170Y-48804809D01*
X55446170Y-48804809D02*
X55398551Y-48876238D01*
X55398551Y-48876238D02*
X55350932Y-48923857D01*
X55350932Y-48923857D02*
X55303313Y-48947666D01*
X55779503Y-49161952D02*
X56017598Y-49161952D01*
X55731884Y-49304809D02*
X55898550Y-48804809D01*
X55898550Y-48804809D02*
X56065217Y-49304809D01*
X56517597Y-49304809D02*
X56350931Y-49066714D01*
X56231883Y-49304809D02*
X56231883Y-48804809D01*
X56231883Y-48804809D02*
X56422359Y-48804809D01*
X56422359Y-48804809D02*
X56469978Y-48828619D01*
X56469978Y-48828619D02*
X56493788Y-48852428D01*
X56493788Y-48852428D02*
X56517597Y-48900047D01*
X56517597Y-48900047D02*
X56517597Y-48971476D01*
X56517597Y-48971476D02*
X56493788Y-49019095D01*
X56493788Y-49019095D02*
X56469978Y-49042904D01*
X56469978Y-49042904D02*
X56422359Y-49066714D01*
X56422359Y-49066714D02*
X56231883Y-49066714D01*
D13*
X58378333Y-51378595D02*
X58366429Y-51390500D01*
X58366429Y-51390500D02*
X58330714Y-51402404D01*
X58330714Y-51402404D02*
X58306905Y-51402404D01*
X58306905Y-51402404D02*
X58271191Y-51390500D01*
X58271191Y-51390500D02*
X58247381Y-51366690D01*
X58247381Y-51366690D02*
X58235476Y-51342880D01*
X58235476Y-51342880D02*
X58223572Y-51295261D01*
X58223572Y-51295261D02*
X58223572Y-51259547D01*
X58223572Y-51259547D02*
X58235476Y-51211928D01*
X58235476Y-51211928D02*
X58247381Y-51188119D01*
X58247381Y-51188119D02*
X58271191Y-51164309D01*
X58271191Y-51164309D02*
X58306905Y-51152404D01*
X58306905Y-51152404D02*
X58330714Y-51152404D01*
X58330714Y-51152404D02*
X58366429Y-51164309D01*
X58366429Y-51164309D02*
X58378333Y-51176214D01*
X58473572Y-51176214D02*
X58485476Y-51164309D01*
X58485476Y-51164309D02*
X58509286Y-51152404D01*
X58509286Y-51152404D02*
X58568810Y-51152404D01*
X58568810Y-51152404D02*
X58592619Y-51164309D01*
X58592619Y-51164309D02*
X58604524Y-51176214D01*
X58604524Y-51176214D02*
X58616429Y-51200023D01*
X58616429Y-51200023D02*
X58616429Y-51223833D01*
X58616429Y-51223833D02*
X58604524Y-51259547D01*
X58604524Y-51259547D02*
X58461667Y-51402404D01*
X58461667Y-51402404D02*
X58616429Y-51402404D01*
X57362333Y-50868595D02*
X57350429Y-50880500D01*
X57350429Y-50880500D02*
X57314714Y-50892404D01*
X57314714Y-50892404D02*
X57290905Y-50892404D01*
X57290905Y-50892404D02*
X57255191Y-50880500D01*
X57255191Y-50880500D02*
X57231381Y-50856690D01*
X57231381Y-50856690D02*
X57219476Y-50832880D01*
X57219476Y-50832880D02*
X57207572Y-50785261D01*
X57207572Y-50785261D02*
X57207572Y-50749547D01*
X57207572Y-50749547D02*
X57219476Y-50701928D01*
X57219476Y-50701928D02*
X57231381Y-50678119D01*
X57231381Y-50678119D02*
X57255191Y-50654309D01*
X57255191Y-50654309D02*
X57290905Y-50642404D01*
X57290905Y-50642404D02*
X57314714Y-50642404D01*
X57314714Y-50642404D02*
X57350429Y-50654309D01*
X57350429Y-50654309D02*
X57362333Y-50666214D01*
X57445667Y-50642404D02*
X57600429Y-50642404D01*
X57600429Y-50642404D02*
X57517095Y-50737642D01*
X57517095Y-50737642D02*
X57552810Y-50737642D01*
X57552810Y-50737642D02*
X57576619Y-50749547D01*
X57576619Y-50749547D02*
X57588524Y-50761452D01*
X57588524Y-50761452D02*
X57600429Y-50785261D01*
X57600429Y-50785261D02*
X57600429Y-50844785D01*
X57600429Y-50844785D02*
X57588524Y-50868595D01*
X57588524Y-50868595D02*
X57576619Y-50880500D01*
X57576619Y-50880500D02*
X57552810Y-50892404D01*
X57552810Y-50892404D02*
X57481381Y-50892404D01*
X57481381Y-50892404D02*
X57457572Y-50880500D01*
X57457572Y-50880500D02*
X57445667Y-50868595D01*
X57248333Y-47198595D02*
X57236429Y-47210500D01*
X57236429Y-47210500D02*
X57200714Y-47222404D01*
X57200714Y-47222404D02*
X57176905Y-47222404D01*
X57176905Y-47222404D02*
X57141191Y-47210500D01*
X57141191Y-47210500D02*
X57117381Y-47186690D01*
X57117381Y-47186690D02*
X57105476Y-47162880D01*
X57105476Y-47162880D02*
X57093572Y-47115261D01*
X57093572Y-47115261D02*
X57093572Y-47079547D01*
X57093572Y-47079547D02*
X57105476Y-47031928D01*
X57105476Y-47031928D02*
X57117381Y-47008119D01*
X57117381Y-47008119D02*
X57141191Y-46984309D01*
X57141191Y-46984309D02*
X57176905Y-46972404D01*
X57176905Y-46972404D02*
X57200714Y-46972404D01*
X57200714Y-46972404D02*
X57236429Y-46984309D01*
X57236429Y-46984309D02*
X57248333Y-46996214D01*
X57462619Y-47055738D02*
X57462619Y-47222404D01*
X57403095Y-46960500D02*
X57343572Y-47139071D01*
X57343572Y-47139071D02*
X57498333Y-47139071D01*
D14*
X49885448Y-66343019D02*
X49885448Y-65343019D01*
X50456876Y-66343019D02*
X50028305Y-65771590D01*
X50456876Y-65343019D02*
X49885448Y-65914447D01*
X50885448Y-66343019D02*
X50885448Y-65343019D01*
X50885448Y-65343019D02*
X51456876Y-66343019D01*
X51456876Y-66343019D02*
X51456876Y-65343019D01*
X51837829Y-65343019D02*
X52504495Y-66343019D01*
X52504495Y-65343019D02*
X51837829Y-66343019D01*
X52885448Y-65962066D02*
X53647353Y-65962066D01*
X55685448Y-66313019D02*
X55685448Y-65313019D01*
X56256876Y-66313019D02*
X55828305Y-65741590D01*
X56256876Y-65313019D02*
X55685448Y-65884447D01*
X56685448Y-66313019D02*
X56685448Y-65313019D01*
X56685448Y-65313019D02*
X57256876Y-66313019D01*
X57256876Y-66313019D02*
X57256876Y-65313019D01*
X57637829Y-65313019D02*
X58304495Y-66313019D01*
X58304495Y-65313019D02*
X57637829Y-66313019D01*
X58685448Y-65932066D02*
X59447353Y-65932066D01*
X59066400Y-66313019D02*
X59066400Y-65551114D01*
D13*
X68375324Y-50714309D02*
X68351514Y-50702404D01*
X68351514Y-50702404D02*
X68315800Y-50702404D01*
X68315800Y-50702404D02*
X68280086Y-50714309D01*
X68280086Y-50714309D02*
X68256276Y-50738119D01*
X68256276Y-50738119D02*
X68244371Y-50761928D01*
X68244371Y-50761928D02*
X68232467Y-50809547D01*
X68232467Y-50809547D02*
X68232467Y-50845261D01*
X68232467Y-50845261D02*
X68244371Y-50892880D01*
X68244371Y-50892880D02*
X68256276Y-50916690D01*
X68256276Y-50916690D02*
X68280086Y-50940500D01*
X68280086Y-50940500D02*
X68315800Y-50952404D01*
X68315800Y-50952404D02*
X68339609Y-50952404D01*
X68339609Y-50952404D02*
X68375324Y-50940500D01*
X68375324Y-50940500D02*
X68387228Y-50928595D01*
X68387228Y-50928595D02*
X68387228Y-50845261D01*
X68387228Y-50845261D02*
X68339609Y-50845261D01*
X68494371Y-50952404D02*
X68494371Y-50702404D01*
X68494371Y-50702404D02*
X68637228Y-50952404D01*
X68637228Y-50952404D02*
X68637228Y-50702404D01*
X68756276Y-50952404D02*
X68756276Y-50702404D01*
X68756276Y-50702404D02*
X68815800Y-50702404D01*
X68815800Y-50702404D02*
X68851514Y-50714309D01*
X68851514Y-50714309D02*
X68875324Y-50738119D01*
X68875324Y-50738119D02*
X68887229Y-50761928D01*
X68887229Y-50761928D02*
X68899133Y-50809547D01*
X68899133Y-50809547D02*
X68899133Y-50845261D01*
X68899133Y-50845261D02*
X68887229Y-50892880D01*
X68887229Y-50892880D02*
X68875324Y-50916690D01*
X68875324Y-50916690D02*
X68851514Y-50940500D01*
X68851514Y-50940500D02*
X68815800Y-50952404D01*
X68815800Y-50952404D02*
X68756276Y-50952404D01*
X70150561Y-50928595D02*
X70138657Y-50940500D01*
X70138657Y-50940500D02*
X70102942Y-50952404D01*
X70102942Y-50952404D02*
X70079133Y-50952404D01*
X70079133Y-50952404D02*
X70043419Y-50940500D01*
X70043419Y-50940500D02*
X70019609Y-50916690D01*
X70019609Y-50916690D02*
X70007704Y-50892880D01*
X70007704Y-50892880D02*
X69995800Y-50845261D01*
X69995800Y-50845261D02*
X69995800Y-50809547D01*
X69995800Y-50809547D02*
X70007704Y-50761928D01*
X70007704Y-50761928D02*
X70019609Y-50738119D01*
X70019609Y-50738119D02*
X70043419Y-50714309D01*
X70043419Y-50714309D02*
X70079133Y-50702404D01*
X70079133Y-50702404D02*
X70102942Y-50702404D01*
X70102942Y-50702404D02*
X70138657Y-50714309D01*
X70138657Y-50714309D02*
X70150561Y-50726214D01*
X70376752Y-50952404D02*
X70257704Y-50952404D01*
X70257704Y-50952404D02*
X70257704Y-50702404D01*
X70460085Y-50952404D02*
X70460085Y-50702404D01*
X70602942Y-50952404D02*
X70495800Y-50809547D01*
X70602942Y-50702404D02*
X70460085Y-50845261D01*
X70888657Y-50690500D02*
X70674371Y-51011928D01*
X70971990Y-50952404D02*
X70971990Y-50702404D01*
X70971990Y-50702404D02*
X71055324Y-50880976D01*
X71055324Y-50880976D02*
X71138657Y-50702404D01*
X71138657Y-50702404D02*
X71138657Y-50952404D01*
X71221990Y-50702404D02*
X71364847Y-50702404D01*
X71293419Y-50952404D02*
X71293419Y-50702404D01*
X71448180Y-50952404D02*
X71448180Y-50702404D01*
X71448180Y-50702404D02*
X71507704Y-50702404D01*
X71507704Y-50702404D02*
X71543418Y-50714309D01*
X71543418Y-50714309D02*
X71567228Y-50738119D01*
X71567228Y-50738119D02*
X71579133Y-50761928D01*
X71579133Y-50761928D02*
X71591037Y-50809547D01*
X71591037Y-50809547D02*
X71591037Y-50845261D01*
X71591037Y-50845261D02*
X71579133Y-50892880D01*
X71579133Y-50892880D02*
X71567228Y-50916690D01*
X71567228Y-50916690D02*
X71543418Y-50940500D01*
X71543418Y-50940500D02*
X71507704Y-50952404D01*
X71507704Y-50952404D02*
X71448180Y-50952404D01*
X71745799Y-50702404D02*
X71793418Y-50702404D01*
X71793418Y-50702404D02*
X71817228Y-50714309D01*
X71817228Y-50714309D02*
X71841037Y-50738119D01*
X71841037Y-50738119D02*
X71852942Y-50785738D01*
X71852942Y-50785738D02*
X71852942Y-50869071D01*
X71852942Y-50869071D02*
X71841037Y-50916690D01*
X71841037Y-50916690D02*
X71817228Y-50940500D01*
X71817228Y-50940500D02*
X71793418Y-50952404D01*
X71793418Y-50952404D02*
X71745799Y-50952404D01*
X71745799Y-50952404D02*
X71721990Y-50940500D01*
X71721990Y-50940500D02*
X71698180Y-50916690D01*
X71698180Y-50916690D02*
X71686276Y-50869071D01*
X71686276Y-50869071D02*
X71686276Y-50785738D01*
X71686276Y-50785738D02*
X71698180Y-50738119D01*
X71698180Y-50738119D02*
X71721990Y-50714309D01*
X71721990Y-50714309D02*
X71745799Y-50702404D01*
X67963895Y-55882404D02*
X67880562Y-55763357D01*
X67821038Y-55882404D02*
X67821038Y-55632404D01*
X67821038Y-55632404D02*
X67916276Y-55632404D01*
X67916276Y-55632404D02*
X67940086Y-55644309D01*
X67940086Y-55644309D02*
X67951991Y-55656214D01*
X67951991Y-55656214D02*
X67963895Y-55680023D01*
X67963895Y-55680023D02*
X67963895Y-55715738D01*
X67963895Y-55715738D02*
X67951991Y-55739547D01*
X67951991Y-55739547D02*
X67940086Y-55751452D01*
X67940086Y-55751452D02*
X67916276Y-55763357D01*
X67916276Y-55763357D02*
X67821038Y-55763357D01*
X68059134Y-55870500D02*
X68094848Y-55882404D01*
X68094848Y-55882404D02*
X68154372Y-55882404D01*
X68154372Y-55882404D02*
X68178181Y-55870500D01*
X68178181Y-55870500D02*
X68190086Y-55858595D01*
X68190086Y-55858595D02*
X68201991Y-55834785D01*
X68201991Y-55834785D02*
X68201991Y-55810976D01*
X68201991Y-55810976D02*
X68190086Y-55787166D01*
X68190086Y-55787166D02*
X68178181Y-55775261D01*
X68178181Y-55775261D02*
X68154372Y-55763357D01*
X68154372Y-55763357D02*
X68106753Y-55751452D01*
X68106753Y-55751452D02*
X68082943Y-55739547D01*
X68082943Y-55739547D02*
X68071038Y-55727642D01*
X68071038Y-55727642D02*
X68059134Y-55703833D01*
X68059134Y-55703833D02*
X68059134Y-55680023D01*
X68059134Y-55680023D02*
X68071038Y-55656214D01*
X68071038Y-55656214D02*
X68082943Y-55644309D01*
X68082943Y-55644309D02*
X68106753Y-55632404D01*
X68106753Y-55632404D02*
X68166276Y-55632404D01*
X68166276Y-55632404D02*
X68201991Y-55644309D01*
X68273419Y-55632404D02*
X68416276Y-55632404D01*
X68344848Y-55882404D02*
X68344848Y-55632404D01*
X68678181Y-55620500D02*
X68463895Y-55941928D01*
X68761514Y-55751452D02*
X68844848Y-55751452D01*
X68880562Y-55882404D02*
X68761514Y-55882404D01*
X68761514Y-55882404D02*
X68761514Y-55632404D01*
X68761514Y-55632404D02*
X68880562Y-55632404D01*
X68987704Y-55882404D02*
X68987704Y-55632404D01*
X68987704Y-55632404D02*
X69130561Y-55882404D01*
X69130561Y-55882404D02*
X69130561Y-55632404D01*
X70186275Y-55882404D02*
X70186275Y-55632404D01*
X70186275Y-55632404D02*
X70245799Y-55632404D01*
X70245799Y-55632404D02*
X70281513Y-55644309D01*
X70281513Y-55644309D02*
X70305323Y-55668119D01*
X70305323Y-55668119D02*
X70317228Y-55691928D01*
X70317228Y-55691928D02*
X70329132Y-55739547D01*
X70329132Y-55739547D02*
X70329132Y-55775261D01*
X70329132Y-55775261D02*
X70317228Y-55822880D01*
X70317228Y-55822880D02*
X70305323Y-55846690D01*
X70305323Y-55846690D02*
X70281513Y-55870500D01*
X70281513Y-55870500D02*
X70245799Y-55882404D01*
X70245799Y-55882404D02*
X70186275Y-55882404D01*
X70436275Y-55882404D02*
X70436275Y-55632404D01*
X70602942Y-55632404D02*
X70650561Y-55632404D01*
X70650561Y-55632404D02*
X70674371Y-55644309D01*
X70674371Y-55644309D02*
X70698180Y-55668119D01*
X70698180Y-55668119D02*
X70710085Y-55715738D01*
X70710085Y-55715738D02*
X70710085Y-55799071D01*
X70710085Y-55799071D02*
X70698180Y-55846690D01*
X70698180Y-55846690D02*
X70674371Y-55870500D01*
X70674371Y-55870500D02*
X70650561Y-55882404D01*
X70650561Y-55882404D02*
X70602942Y-55882404D01*
X70602942Y-55882404D02*
X70579133Y-55870500D01*
X70579133Y-55870500D02*
X70555323Y-55846690D01*
X70555323Y-55846690D02*
X70543419Y-55799071D01*
X70543419Y-55799071D02*
X70543419Y-55715738D01*
X70543419Y-55715738D02*
X70555323Y-55668119D01*
X70555323Y-55668119D02*
X70579133Y-55644309D01*
X70579133Y-55644309D02*
X70602942Y-55632404D01*
X70995800Y-55620500D02*
X70781514Y-55941928D01*
X71079133Y-55882404D02*
X71079133Y-55632404D01*
X71079133Y-55632404D02*
X71162467Y-55810976D01*
X71162467Y-55810976D02*
X71245800Y-55632404D01*
X71245800Y-55632404D02*
X71245800Y-55882404D01*
X71329133Y-55632404D02*
X71471990Y-55632404D01*
X71400562Y-55882404D02*
X71400562Y-55632404D01*
X71555323Y-55882404D02*
X71555323Y-55632404D01*
X71555323Y-55632404D02*
X71614847Y-55632404D01*
X71614847Y-55632404D02*
X71650561Y-55644309D01*
X71650561Y-55644309D02*
X71674371Y-55668119D01*
X71674371Y-55668119D02*
X71686276Y-55691928D01*
X71686276Y-55691928D02*
X71698180Y-55739547D01*
X71698180Y-55739547D02*
X71698180Y-55775261D01*
X71698180Y-55775261D02*
X71686276Y-55822880D01*
X71686276Y-55822880D02*
X71674371Y-55846690D01*
X71674371Y-55846690D02*
X71650561Y-55870500D01*
X71650561Y-55870500D02*
X71614847Y-55882404D01*
X71614847Y-55882404D02*
X71555323Y-55882404D01*
X71805323Y-55882404D02*
X71805323Y-55632404D01*
X65177229Y-50698204D02*
X65331991Y-50698204D01*
X65331991Y-50698204D02*
X65248657Y-50793442D01*
X65248657Y-50793442D02*
X65284372Y-50793442D01*
X65284372Y-50793442D02*
X65308181Y-50805347D01*
X65308181Y-50805347D02*
X65320086Y-50817252D01*
X65320086Y-50817252D02*
X65331991Y-50841061D01*
X65331991Y-50841061D02*
X65331991Y-50900585D01*
X65331991Y-50900585D02*
X65320086Y-50924395D01*
X65320086Y-50924395D02*
X65308181Y-50936300D01*
X65308181Y-50936300D02*
X65284372Y-50948204D01*
X65284372Y-50948204D02*
X65212943Y-50948204D01*
X65212943Y-50948204D02*
X65189134Y-50936300D01*
X65189134Y-50936300D02*
X65177229Y-50924395D01*
X65403419Y-50698204D02*
X65486752Y-50948204D01*
X65486752Y-50948204D02*
X65570086Y-50698204D01*
X65629610Y-50698204D02*
X65784372Y-50698204D01*
X65784372Y-50698204D02*
X65701038Y-50793442D01*
X65701038Y-50793442D02*
X65736753Y-50793442D01*
X65736753Y-50793442D02*
X65760562Y-50805347D01*
X65760562Y-50805347D02*
X65772467Y-50817252D01*
X65772467Y-50817252D02*
X65784372Y-50841061D01*
X65784372Y-50841061D02*
X65784372Y-50900585D01*
X65784372Y-50900585D02*
X65772467Y-50924395D01*
X65772467Y-50924395D02*
X65760562Y-50936300D01*
X65760562Y-50936300D02*
X65736753Y-50948204D01*
X65736753Y-50948204D02*
X65665324Y-50948204D01*
X65665324Y-50948204D02*
X65641515Y-50936300D01*
X65641515Y-50936300D02*
X65629610Y-50924395D01*
X66070086Y-50686300D02*
X65855800Y-51007728D01*
X66153419Y-50948204D02*
X66153419Y-50698204D01*
X66153419Y-50698204D02*
X66236753Y-50876776D01*
X66236753Y-50876776D02*
X66320086Y-50698204D01*
X66320086Y-50698204D02*
X66320086Y-50948204D01*
X66403419Y-50698204D02*
X66546276Y-50698204D01*
X66474848Y-50948204D02*
X66474848Y-50698204D01*
X66772466Y-50924395D02*
X66760562Y-50936300D01*
X66760562Y-50936300D02*
X66724847Y-50948204D01*
X66724847Y-50948204D02*
X66701038Y-50948204D01*
X66701038Y-50948204D02*
X66665324Y-50936300D01*
X66665324Y-50936300D02*
X66641514Y-50912490D01*
X66641514Y-50912490D02*
X66629609Y-50888680D01*
X66629609Y-50888680D02*
X66617705Y-50841061D01*
X66617705Y-50841061D02*
X66617705Y-50805347D01*
X66617705Y-50805347D02*
X66629609Y-50757728D01*
X66629609Y-50757728D02*
X66641514Y-50733919D01*
X66641514Y-50733919D02*
X66665324Y-50710109D01*
X66665324Y-50710109D02*
X66701038Y-50698204D01*
X66701038Y-50698204D02*
X66724847Y-50698204D01*
X66724847Y-50698204D02*
X66760562Y-50710109D01*
X66760562Y-50710109D02*
X66772466Y-50722014D01*
X66879609Y-50948204D02*
X66879609Y-50698204D01*
X67022466Y-50948204D02*
X66915324Y-50805347D01*
X67022466Y-50698204D02*
X66879609Y-50841061D01*
X65035562Y-55757252D02*
X65071276Y-55769157D01*
X65071276Y-55769157D02*
X65083181Y-55781061D01*
X65083181Y-55781061D02*
X65095085Y-55804871D01*
X65095085Y-55804871D02*
X65095085Y-55840585D01*
X65095085Y-55840585D02*
X65083181Y-55864395D01*
X65083181Y-55864395D02*
X65071276Y-55876300D01*
X65071276Y-55876300D02*
X65047466Y-55888204D01*
X65047466Y-55888204D02*
X64952228Y-55888204D01*
X64952228Y-55888204D02*
X64952228Y-55638204D01*
X64952228Y-55638204D02*
X65035562Y-55638204D01*
X65035562Y-55638204D02*
X65059371Y-55650109D01*
X65059371Y-55650109D02*
X65071276Y-55662014D01*
X65071276Y-55662014D02*
X65083181Y-55685823D01*
X65083181Y-55685823D02*
X65083181Y-55709633D01*
X65083181Y-55709633D02*
X65071276Y-55733442D01*
X65071276Y-55733442D02*
X65059371Y-55745347D01*
X65059371Y-55745347D02*
X65035562Y-55757252D01*
X65035562Y-55757252D02*
X64952228Y-55757252D01*
X65249847Y-55638204D02*
X65297466Y-55638204D01*
X65297466Y-55638204D02*
X65321276Y-55650109D01*
X65321276Y-55650109D02*
X65345085Y-55673919D01*
X65345085Y-55673919D02*
X65356990Y-55721538D01*
X65356990Y-55721538D02*
X65356990Y-55804871D01*
X65356990Y-55804871D02*
X65345085Y-55852490D01*
X65345085Y-55852490D02*
X65321276Y-55876300D01*
X65321276Y-55876300D02*
X65297466Y-55888204D01*
X65297466Y-55888204D02*
X65249847Y-55888204D01*
X65249847Y-55888204D02*
X65226038Y-55876300D01*
X65226038Y-55876300D02*
X65202228Y-55852490D01*
X65202228Y-55852490D02*
X65190324Y-55804871D01*
X65190324Y-55804871D02*
X65190324Y-55721538D01*
X65190324Y-55721538D02*
X65202228Y-55673919D01*
X65202228Y-55673919D02*
X65226038Y-55650109D01*
X65226038Y-55650109D02*
X65249847Y-55638204D01*
X65511752Y-55638204D02*
X65559371Y-55638204D01*
X65559371Y-55638204D02*
X65583181Y-55650109D01*
X65583181Y-55650109D02*
X65606990Y-55673919D01*
X65606990Y-55673919D02*
X65618895Y-55721538D01*
X65618895Y-55721538D02*
X65618895Y-55804871D01*
X65618895Y-55804871D02*
X65606990Y-55852490D01*
X65606990Y-55852490D02*
X65583181Y-55876300D01*
X65583181Y-55876300D02*
X65559371Y-55888204D01*
X65559371Y-55888204D02*
X65511752Y-55888204D01*
X65511752Y-55888204D02*
X65487943Y-55876300D01*
X65487943Y-55876300D02*
X65464133Y-55852490D01*
X65464133Y-55852490D02*
X65452229Y-55804871D01*
X65452229Y-55804871D02*
X65452229Y-55721538D01*
X65452229Y-55721538D02*
X65464133Y-55673919D01*
X65464133Y-55673919D02*
X65487943Y-55650109D01*
X65487943Y-55650109D02*
X65511752Y-55638204D01*
X65690324Y-55638204D02*
X65833181Y-55638204D01*
X65761753Y-55888204D02*
X65761753Y-55638204D01*
X66095086Y-55626300D02*
X65880800Y-55947728D01*
X66178419Y-55888204D02*
X66178419Y-55638204D01*
X66178419Y-55638204D02*
X66261753Y-55816776D01*
X66261753Y-55816776D02*
X66345086Y-55638204D01*
X66345086Y-55638204D02*
X66345086Y-55888204D01*
X66428419Y-55638204D02*
X66571276Y-55638204D01*
X66499848Y-55888204D02*
X66499848Y-55638204D01*
X66654609Y-55888204D02*
X66654609Y-55638204D01*
X66654609Y-55638204D02*
X66737943Y-55816776D01*
X66737943Y-55816776D02*
X66821276Y-55638204D01*
X66821276Y-55638204D02*
X66821276Y-55888204D01*
X66928419Y-55876300D02*
X66964133Y-55888204D01*
X66964133Y-55888204D02*
X67023657Y-55888204D01*
X67023657Y-55888204D02*
X67047466Y-55876300D01*
X67047466Y-55876300D02*
X67059371Y-55864395D01*
X67059371Y-55864395D02*
X67071276Y-55840585D01*
X67071276Y-55840585D02*
X67071276Y-55816776D01*
X67071276Y-55816776D02*
X67059371Y-55792966D01*
X67059371Y-55792966D02*
X67047466Y-55781061D01*
X67047466Y-55781061D02*
X67023657Y-55769157D01*
X67023657Y-55769157D02*
X66976038Y-55757252D01*
X66976038Y-55757252D02*
X66952228Y-55745347D01*
X66952228Y-55745347D02*
X66940323Y-55733442D01*
X66940323Y-55733442D02*
X66928419Y-55709633D01*
X66928419Y-55709633D02*
X66928419Y-55685823D01*
X66928419Y-55685823D02*
X66940323Y-55662014D01*
X66940323Y-55662014D02*
X66952228Y-55650109D01*
X66952228Y-55650109D02*
X66976038Y-55638204D01*
X66976038Y-55638204D02*
X67035561Y-55638204D01*
X67035561Y-55638204D02*
X67071276Y-55650109D01*
D10*
%TO.C,L1*%
X68570000Y-62150000D02*
X68300000Y-62150000D01*
X68570000Y-57090000D02*
X68570000Y-62150000D01*
X68300000Y-57090000D02*
X68570000Y-57090000D01*
X63780000Y-57090000D02*
X63510000Y-57090000D01*
X63510000Y-62150000D02*
X63780000Y-62150000D01*
X63510000Y-57090000D02*
X63510000Y-62150000D01*
D14*
%TO.C,SW1*%
X69490000Y-57830000D02*
X69490000Y-60570000D01*
X69990000Y-59710000D02*
X69990000Y-58690000D01*
X70470000Y-57000000D02*
X71550000Y-57000000D01*
X70470000Y-61400000D02*
X71550000Y-61400000D01*
X72030000Y-59710000D02*
X72030000Y-58690000D01*
X72560000Y-60580000D02*
X72560000Y-57820000D01*
X69990000Y-58690000D02*
G75*
G02*
X72030000Y-58690000I1020000J0D01*
G01*
X72030000Y-59710000D02*
G75*
G02*
X69990000Y-59710000I-1020000J0D01*
G01*
D15*
%TO.C,J5*%
X64531400Y-66495000D02*
X64531400Y-67645000D01*
X64531400Y-67645000D02*
X65581400Y-67645000D01*
X65581400Y-67645000D02*
X65581400Y-68635000D01*
X65701400Y-64525000D02*
X70581400Y-64525000D01*
X71751400Y-66495000D02*
X71751400Y-67645000D01*
X71751400Y-67645000D02*
X70701400Y-67645000D01*
D10*
%TO.C,D1*%
X69310000Y-62960000D02*
X69310000Y-63090000D01*
X69310000Y-63090000D02*
X69440000Y-63090000D01*
X69310000Y-64090000D02*
X69310000Y-64210000D01*
X69310000Y-64090000D02*
X69440000Y-64090000D01*
X69440000Y-62960000D02*
X69310000Y-62960000D01*
X69440000Y-62960000D02*
X69440000Y-62990000D01*
X69440000Y-62960000D02*
X71220000Y-62960000D01*
X69440000Y-63090000D02*
X69440000Y-62960000D01*
X69440000Y-64190000D02*
X69440000Y-64090000D01*
X69440000Y-64190000D02*
X69440000Y-64220000D01*
X69440000Y-64220000D02*
X71220000Y-64220000D01*
X69560000Y-64220000D02*
X69320000Y-64220000D01*
X70080000Y-63210000D02*
X70080000Y-63970000D01*
X70140000Y-63590000D02*
X70520000Y-63210000D01*
X70520000Y-63210000D02*
X70520000Y-63970000D01*
X70520000Y-63970000D02*
X70140000Y-63590000D01*
X70840000Y-63590000D02*
X69820000Y-63590000D01*
X71220000Y-62960000D02*
X71220000Y-63090000D01*
X71220000Y-64090000D02*
X71220000Y-64220000D01*
%TO.C,U2*%
X53850000Y-55430000D02*
X57390000Y-55430000D01*
X53850000Y-62090000D02*
X53850000Y-55430000D01*
X57390000Y-55430000D02*
X57390000Y-62090000D01*
X57390000Y-62090000D02*
X53850000Y-62090000D01*
D16*
X56790000Y-61690000D02*
G75*
G02*
X56490000Y-61690000I-150000J0D01*
G01*
X56490000Y-61690000D02*
G75*
G02*
X56790000Y-61690000I150000J0D01*
G01*
X58640000Y-62320000D02*
G75*
G02*
X58340000Y-62320000I-150000J0D01*
G01*
X58340000Y-62320000D02*
G75*
G02*
X58640000Y-62320000I150000J0D01*
G01*
D10*
%TO.C,D2*%
X64640000Y-62960000D02*
X64640000Y-63090000D01*
X64640000Y-63090000D02*
X64770000Y-63090000D01*
X64640000Y-64090000D02*
X64640000Y-64210000D01*
X64640000Y-64090000D02*
X64770000Y-64090000D01*
X64770000Y-62960000D02*
X64640000Y-62960000D01*
X64770000Y-62960000D02*
X64770000Y-62990000D01*
X64770000Y-62960000D02*
X66550000Y-62960000D01*
X64770000Y-63090000D02*
X64770000Y-62960000D01*
X64770000Y-64190000D02*
X64770000Y-64090000D01*
X64770000Y-64190000D02*
X64770000Y-64220000D01*
X64770000Y-64220000D02*
X66550000Y-64220000D01*
X64890000Y-64220000D02*
X64650000Y-64220000D01*
X65410000Y-63210000D02*
X65410000Y-63970000D01*
X65470000Y-63590000D02*
X65850000Y-63210000D01*
X65850000Y-63210000D02*
X65850000Y-63970000D01*
X65850000Y-63970000D02*
X65470000Y-63590000D01*
X66170000Y-63590000D02*
X65150000Y-63590000D01*
X66550000Y-62960000D02*
X66550000Y-63090000D01*
X66550000Y-64090000D02*
X66550000Y-64220000D01*
D17*
%TO.C,U5*%
X71770000Y-47220000D02*
X71700000Y-47220000D01*
X68770000Y-47220000D02*
X68840000Y-47220000D01*
X71770000Y-47450000D02*
X71770000Y-47220000D01*
X71770000Y-47450000D02*
X71770000Y-48590000D01*
X68770000Y-47450000D02*
X68770000Y-47220000D01*
X71770000Y-48590000D02*
X71770000Y-48820000D01*
X68770000Y-48590000D02*
X68770000Y-47450000D01*
X68770000Y-48590000D02*
X68770000Y-48820000D01*
X71770000Y-48820000D02*
X71700000Y-48820000D01*
X68770000Y-48820000D02*
X68840000Y-48820000D01*
D15*
%TO.C,C9*%
X61165000Y-46848748D02*
X61165000Y-47371252D01*
X62635000Y-46848748D02*
X62635000Y-47371252D01*
%TO.C,C6*%
X65275000Y-47371252D02*
X65275000Y-46848748D01*
X66745000Y-47371252D02*
X66745000Y-46848748D01*
%TO.C,C7*%
X63275000Y-47371252D02*
X63275000Y-46848748D01*
X64745000Y-47371252D02*
X64745000Y-46848748D01*
D11*
%TO.C,H2*%
X56766400Y-67063400D02*
X56766400Y-67063400D01*
X56766400Y-69263400D02*
X56766400Y-69263400D01*
X56766400Y-67063400D02*
G75*
G02*
X56766400Y-69263400I0J-1100000D01*
G01*
X56766400Y-69263400D02*
G75*
G02*
X56766400Y-67063400I0J1100000D01*
G01*
D15*
%TO.C,J4*%
X61881400Y-74253400D02*
X61881400Y-74993400D01*
X61881400Y-74993400D02*
X62381400Y-74993400D01*
X62121400Y-68433400D02*
X62121400Y-74753400D01*
X62121400Y-68433400D02*
X72861400Y-68433400D01*
X62121400Y-68893400D02*
X72861400Y-68893400D01*
X62121400Y-74193400D02*
X72861400Y-74193400D01*
X62121400Y-74753400D02*
X72861400Y-74753400D01*
X72861400Y-68433400D02*
X72861400Y-74753400D01*
%TO.C,J3*%
X48905400Y-44913400D02*
X48905400Y-38593400D01*
X72346400Y-38593400D02*
X48905400Y-38593400D01*
X72346400Y-39153400D02*
X48905400Y-39153400D01*
X72346400Y-44453400D02*
X48905400Y-44453400D01*
X72346400Y-44913400D02*
X48905400Y-44913400D01*
X72346400Y-44913400D02*
X72346400Y-38593400D01*
X72586400Y-38353400D02*
X72086400Y-38353400D01*
X72586400Y-39093400D02*
X72586400Y-38353400D01*
%TO.C,C10*%
X59005000Y-47371252D02*
X59005000Y-46848748D01*
X60475000Y-47371252D02*
X60475000Y-46848748D01*
%TO.C,GN1*%
X48386400Y-63793400D02*
X48386400Y-44013400D01*
D18*
X51456400Y-63593400D02*
X51456400Y-44743400D01*
D15*
%TO.C,C8*%
X61688748Y-62755000D02*
X62211252Y-62755000D01*
X61688748Y-64225000D02*
X62211252Y-64225000D01*
%TO.C,U3*%
X51656400Y-49093400D02*
X51656400Y-47143400D01*
X51656400Y-49093400D02*
X51656400Y-52543400D01*
X56776400Y-49093400D02*
X56776400Y-47143400D01*
X56776400Y-49093400D02*
X56776400Y-51043400D01*
D11*
%TO.C,H1*%
X51016400Y-67063400D02*
X51016400Y-67063400D01*
X51016400Y-69263400D02*
X51016400Y-69263400D01*
X51016400Y-67063400D02*
G75*
G02*
X51016400Y-69263400I0J-1100000D01*
G01*
X51016400Y-69263400D02*
G75*
G02*
X51016400Y-67063400I0J1100000D01*
G01*
D15*
%TO.C,J1*%
X48446400Y-64743400D02*
X48446400Y-66518400D01*
X48446400Y-64743400D02*
X59946400Y-64743400D01*
X48446400Y-68968400D02*
X48446400Y-74743400D01*
X48446400Y-68968400D02*
X49446400Y-69568400D01*
X48446400Y-74743400D02*
X59946400Y-74743400D01*
X49446400Y-65918400D02*
X48446400Y-66518400D01*
X49446400Y-65918400D02*
X49446400Y-69568400D01*
X54196400Y-66518400D02*
X54196400Y-64743400D01*
X54196400Y-66518400D02*
X55196400Y-65918400D01*
X54196400Y-68968400D02*
X54196400Y-74743400D01*
X54196400Y-68968400D02*
X55196400Y-69568400D01*
X55196400Y-65918400D02*
X55196400Y-69568400D01*
X59946400Y-66518400D02*
X59946400Y-64743400D01*
X59946400Y-66518400D02*
X60946400Y-65918400D01*
X59946400Y-68968400D02*
X59946400Y-74743400D01*
X59946400Y-68968400D02*
X60946400Y-69568400D01*
X60946400Y-65918400D02*
X60946400Y-69568400D01*
%TD*%
%LPC*%
D19*
%TO.C,L1*%
X66040000Y-57620000D03*
X66040000Y-61620000D03*
%TD*%
D20*
%TO.C,SW1*%
X69940000Y-61300000D03*
X69940000Y-57100000D03*
X72080000Y-61300000D03*
X72080000Y-57100000D03*
%TD*%
D21*
%TO.C,C1*%
X59440000Y-49420000D03*
X59940000Y-49420000D03*
%TD*%
D22*
%TO.C,J5*%
X66141400Y-67860000D03*
X67141400Y-67860000D03*
X68141400Y-67860000D03*
X69141400Y-67860000D03*
X70141400Y-67860000D03*
D23*
X64841400Y-65335000D03*
X71441400Y-65335000D03*
%TD*%
D24*
%TO.C,D1*%
X69190000Y-63590000D03*
X71470000Y-63590000D03*
%TD*%
D25*
%TO.C,U2*%
X58490000Y-61690000D03*
X58490000Y-61040000D03*
X58490000Y-60390000D03*
X58490000Y-59740000D03*
X58490000Y-59080000D03*
X58490000Y-58430000D03*
X58490000Y-57780000D03*
X58490000Y-57130000D03*
X58490000Y-56480000D03*
X58490000Y-55830000D03*
X52750000Y-55830000D03*
X52750000Y-56480000D03*
X52750000Y-57130000D03*
X52750000Y-57780000D03*
X52750000Y-58430000D03*
X52750000Y-59080000D03*
X52750000Y-59740000D03*
X52750000Y-60390000D03*
X52750000Y-61040000D03*
X52750000Y-61690000D03*
%TD*%
D24*
%TO.C,D2*%
X64520000Y-63590000D03*
X66800000Y-63590000D03*
%TD*%
D26*
%TO.C,U5*%
X69320000Y-49220000D03*
X70270000Y-49220000D03*
X71220000Y-49220000D03*
X71220000Y-46820000D03*
X70270000Y-46820000D03*
X69320000Y-46820000D03*
%TD*%
D27*
%TO.C,C9*%
X61900000Y-46160000D03*
X61900000Y-48060000D03*
%TD*%
D28*
%TO.C,C6*%
X66010000Y-48060000D03*
X66010000Y-46160000D03*
%TD*%
D29*
%TO.C,C5*%
X69000000Y-57310000D03*
X69000000Y-56810000D03*
%TD*%
D28*
%TO.C,C7*%
X64010000Y-48060000D03*
X64010000Y-46160000D03*
%TD*%
D30*
%TO.C,H2*%
X56766400Y-68163400D03*
%TD*%
D31*
%TO.C,J4*%
X63681400Y-71593400D03*
D32*
X66221400Y-71593400D03*
X68761400Y-71593400D03*
X71301400Y-71593400D03*
%TD*%
D31*
%TO.C,J3*%
X70786400Y-41753400D03*
D32*
X68246400Y-41753400D03*
X65706400Y-41753400D03*
X63166400Y-41753400D03*
X60626400Y-41753400D03*
X58086400Y-41753400D03*
X55546400Y-41753400D03*
X53006400Y-41753400D03*
X50466400Y-41753400D03*
%TD*%
D28*
%TO.C,C10*%
X59740000Y-48060000D03*
X59740000Y-46160000D03*
%TD*%
D33*
%TO.C,GN1*%
X49656400Y-61793400D03*
D34*
X49656400Y-59253400D03*
D33*
X49656400Y-56713400D03*
X49656400Y-54173400D03*
X49656400Y-51633400D03*
X49656400Y-49093400D03*
X49656400Y-46553400D03*
%TD*%
D35*
%TO.C,C8*%
X61000000Y-63490000D03*
X62900000Y-63490000D03*
%TD*%
D36*
%TO.C,U3*%
X52311400Y-51568400D03*
X53581400Y-51568400D03*
X54851400Y-51568400D03*
X56121400Y-51568400D03*
X56121400Y-46618400D03*
X54851400Y-46618400D03*
X53581400Y-46618400D03*
X52311400Y-46618400D03*
%TD*%
D29*
%TO.C,C2*%
X58420000Y-50800000D03*
X58420000Y-50300000D03*
%TD*%
D37*
%TO.C,J2*%
X56766400Y-71063400D03*
X51016400Y-71063400D03*
%TD*%
D30*
%TO.C,H1*%
X51016400Y-68163400D03*
%TD*%
D38*
%TO.C,C3*%
X57404000Y-49792000D03*
X57404000Y-50292000D03*
%TD*%
D29*
%TO.C,C4*%
X57310000Y-46610000D03*
X57310000Y-46110000D03*
%TD*%
D37*
%TO.C,J1*%
X56746400Y-68143400D03*
X50996400Y-68143400D03*
%TD*%
D39*
%TO.C,U1*%
X70985800Y-54570014D03*
X70985800Y-52030014D03*
X68445800Y-54570014D03*
X68470846Y-52030014D03*
X65955800Y-54585800D03*
X65980846Y-52045800D03*
%TD*%
%LPD*%
M02*
