M48
; DRILL file {KiCad 9.0.2} date 2025-11-22T22:53:23+0100
; FORMAT={-:-/ absolute / inch / decimal}
; #@! TF.CreationDate,2025-11-22T22:53:23+01:00
; #@! TF.GenerationSoftware,Kicad,Pcbnew,9.0.2
; #@! TF.FileFunction,Plated,1,4,PTH
FMAT,2
INCH
; #@! TA.AperFunction,Plated,PTH,ViaDrill
T1C0.0157
; #@! TA.AperFunction,Plated,PTH,ComponentDrill
T2C0.0394
; #@! TA.AperFunction,Plated,PTH,ComponentDrill
T3C0.0433
; #@! TA.AperFunction,Plated,PTH,ComponentDrill
T4C0.0492
; #@! TA.AperFunction,Plated,PTH,ComponentDrill
T5C0.0630
%
G90
G05
T1
X1.9823Y-1.7582
X2.0142Y-2.1787
X2.0187Y-2.2673
X2.0482Y-2.4972
X2.0611Y-2.5894
X2.0627Y-1.8974
X2.0666Y-2.5504
X2.0827Y-1.7789
X2.1228Y-1.9256
X2.1516Y-2.2928
X2.1536Y-2.228
X2.1559Y-2.103
X2.1595Y-1.8968
X2.1606Y-2.5222
X2.1654Y-2.351
X2.1965Y-2.5484
X2.2217Y-2.3046
X2.2291Y-2.5205
X2.2438Y-2.3385
X2.2447Y-2.2049
X2.2518Y-2.0213
X2.2532Y-1.8751
X2.2773Y-2.0534
X2.301Y-2.5063
X2.3116Y-1.9457
X2.3159Y-2.106
X2.362Y-2.2593
X2.3622Y-2.2986
X2.3745Y-2.349
X2.3894Y-1.9429
X2.3996Y-2.2022
X2.4014Y-2.2593
X2.4321Y-2.3179
X2.464Y-2.6669
X2.5069Y-1.944
X2.5457Y-1.7638
X2.6038Y-2.7242
X2.6307Y-1.7634
X2.6431Y-2.7219
X2.6551Y-2.5673
X2.6594Y-2.5189
X2.6602Y-2.2685
X2.6822Y-2.7266
X2.6965Y-2.5032
X2.7134Y-2.3476
X2.7154Y-2.2965
X2.7329Y-2.5576
X2.7457Y-1.7638
X2.8228Y-2.7039
X2.8386Y-2.5024
T2
X1.955Y-1.8328
X1.955Y-1.9328
X1.955Y-2.0328
X1.955Y-2.1328
X1.955Y-2.2328
X1.955Y-2.3328
X1.955Y-2.4328
T3
X1.9869Y-1.6438
X2.0077Y-2.6828
X2.0085Y-2.7978
X2.0869Y-1.6438
X2.1869Y-1.6438
X2.2341Y-2.6828
X2.2349Y-2.7978
X2.2869Y-1.6438
X2.3869Y-1.6438
X2.4869Y-1.6438
X2.5071Y-2.8186
X2.5869Y-1.6438
X2.6071Y-2.8186
X2.6869Y-1.6438
X2.7071Y-2.8186
X2.7869Y-1.6438
X2.8071Y-2.8186
T4
X2.0085Y-2.6836
X2.2349Y-2.6836
T5
G00X2.6046Y-2.149
M15
G01X2.5888Y-2.149
M16
G05
G00X2.6055Y-2.049
M15
G01X2.5898Y-2.049
M16
G05
G00X2.7026Y-2.1484
M15
G01X2.6868Y-2.1484
M16
G05
G00X2.7036Y-2.0484
M15
G01X2.6878Y-2.0484
M16
G05
G00X2.8026Y-2.0484
M15
G01X2.7868Y-2.0484
M16
G05
G00X2.8026Y-2.1484
M15
G01X2.7868Y-2.1484
M16
G05
M30
