%TF.GenerationSoftware,KiCad,Pcbnew,9.0.2*%
%TF.CreationDate,2025-11-22T22:53:23+01:00*%
%TF.ProjectId,KNeoPiX_v1.3,4b4e656f-5069-4585-9f76-312e332e6b69,1.3*%
%TF.SameCoordinates,Original*%
%TF.FileFunction,Soldermask,Bot*%
%TF.FilePolarity,Negative*%
%FSLAX46Y46*%
G04 Gerber Fmt 4.6, Leading zero omitted, Abs format (unit mm)*
G04 Created by KiCad (PCBNEW 9.0.2) date 2025-11-22 22:53:23*
%MOMM*%
%LPD*%
G01*
G04 APERTURE LIST*
G04 Aperture macros list*
%AMRoundRect*
0 Rectangle with rounded corners*
0 $1 Rounding radius*
0 $2 $3 $4 $5 $6 $7 $8 $9 X,Y pos of 4 corners*
0 Add a 4 corners polygon primitive as box body*
4,1,4,$2,$3,$4,$5,$6,$7,$8,$9,$2,$3,0*
0 Add four circle primitives for the rounded corners*
1,1,$1+$1,$2,$3*
1,1,$1+$1,$4,$5*
1,1,$1+$1,$6,$7*
1,1,$1+$1,$8,$9*
0 Add four rect primitives between the rounded corners*
20,1,$1+$1,$2,$3,$4,$5,0*
20,1,$1+$1,$4,$5,$6,$7,0*
20,1,$1+$1,$6,$7,$8,$9,0*
20,1,$1+$1,$8,$9,$2,$3,0*%
%AMFreePoly0*
4,1,23,0.550000,-0.750000,0.000000,-0.750000,0.000000,-0.745722,-0.065263,-0.745722,-0.191342,-0.711940,-0.304381,-0.646677,-0.396677,-0.554381,-0.461940,-0.441342,-0.495722,-0.315263,-0.495722,-0.250000,-0.500000,-0.250000,-0.500000,0.250000,-0.495722,0.250000,-0.495722,0.315263,-0.461940,0.441342,-0.396677,0.554381,-0.304381,0.646677,-0.191342,0.711940,-0.065263,0.745722,0.000000,0.745722,
0.000000,0.750000,0.550000,0.750000,0.550000,-0.750000,0.550000,-0.750000,$1*%
%AMFreePoly1*
4,1,23,0.000000,0.745722,0.065263,0.745722,0.191342,0.711940,0.304381,0.646677,0.396677,0.554381,0.461940,0.441342,0.495722,0.315263,0.495722,0.250000,0.500000,0.250000,0.500000,-0.250000,0.495722,-0.250000,0.495722,-0.315263,0.461940,-0.441342,0.396677,-0.554381,0.304381,-0.646677,0.191342,-0.711940,0.065263,-0.745722,0.000000,-0.745722,0.000000,-0.750000,-0.550000,-0.750000,
-0.550000,0.750000,0.000000,0.750000,0.000000,0.745722,0.000000,0.745722,$1*%
G04 Aperture macros list end*
%ADD10C,1.875000*%
%ADD11R,2.200000X2.200000*%
%ADD12C,2.200000*%
%ADD13O,1.700000X1.700000*%
%ADD14R,1.700000X1.700000*%
%ADD15C,2.500000*%
%ADD16R,3.500000X8.500000*%
%ADD17R,1.000000X1.500000*%
%ADD18O,2.000000X3.000000*%
%ADD19RoundRect,0.270000X-0.830000X0.630000X-0.830000X-0.630000X0.830000X-0.630000X0.830000X0.630000X0*%
%ADD20R,1.500000X1.000000*%
%ADD21FreePoly0,270.000000*%
%ADD22FreePoly1,270.000000*%
G04 APERTURE END LIST*
%TO.C,JP5*%
G36*
X64712500Y-67310000D02*
G01*
X63212500Y-67310000D01*
X63212500Y-65710000D01*
X64712500Y-65710000D01*
X64712500Y-67310000D01*
G37*
%TD*%
D10*
%TO.C,H2*%
X56766400Y-68163400D03*
%TD*%
D11*
%TO.C,J4*%
X63681400Y-71593400D03*
D12*
X66221400Y-71593400D03*
X68761400Y-71593400D03*
X71301400Y-71593400D03*
%TD*%
D11*
%TO.C,J3*%
X70786400Y-41753400D03*
D12*
X68246400Y-41753400D03*
X65706400Y-41753400D03*
X63166400Y-41753400D03*
X60626400Y-41753400D03*
X58086400Y-41753400D03*
X55546400Y-41753400D03*
X53006400Y-41753400D03*
X50466400Y-41753400D03*
%TD*%
D13*
%TO.C,GN1*%
X49656400Y-61793400D03*
D14*
X49656400Y-59253400D03*
D13*
X49656400Y-56713400D03*
X49656400Y-54173400D03*
X49656400Y-51633400D03*
X49656400Y-49093400D03*
X49656400Y-46553400D03*
%TD*%
D15*
%TO.C,J2*%
X56766400Y-71063400D03*
X51016400Y-71063400D03*
%TD*%
D10*
%TO.C,H1*%
X51016400Y-68163400D03*
%TD*%
D15*
%TO.C,J1*%
X56746400Y-68143400D03*
X50996400Y-68143400D03*
%TD*%
D16*
%TO.C,REF42*%
X60235250Y-69043400D03*
X60235250Y-69043400D03*
X60236400Y-69043400D03*
X60236400Y-69043400D03*
%TD*%
D17*
%TO.C,JP4*%
X49980000Y-64840000D03*
X51280000Y-64840000D03*
%TD*%
D18*
%TO.C,U1*%
X69740014Y-61800014D03*
X67200014Y-61800014D03*
X64660014Y-61800014D03*
X62120014Y-61800014D03*
X59580014Y-61800014D03*
X57040014Y-61800014D03*
X54500014Y-61800014D03*
X54500014Y-44800014D03*
X57040014Y-44800014D03*
X59580014Y-44800014D03*
X62120014Y-44800014D03*
X64660014Y-44800014D03*
X67200014Y-44800014D03*
X69740014Y-44800014D03*
D19*
X70985800Y-54570014D03*
X70985800Y-52030014D03*
X68445800Y-54570014D03*
X68470846Y-52030014D03*
X65955800Y-54585800D03*
X65980846Y-52045800D03*
%TD*%
D20*
%TO.C,JP1*%
X70920000Y-66500000D03*
X70920000Y-67800000D03*
%TD*%
%TO.C,JP5*%
X63962500Y-67810000D03*
X63962500Y-66510000D03*
X63962500Y-65210000D03*
%TD*%
D21*
%TO.C,JP2*%
X67440000Y-65210000D03*
D20*
X67440000Y-66510000D03*
D22*
X67440000Y-67810000D03*
%TD*%
M02*
