%TF.GenerationSoftware,KiCad,Pcbnew,(7.0.0-0)*%
%TF.CreationDate,2023-02-25T15:33:57+01:00*%
%TF.ProjectId,KNeoPiX_v1.3,4b4e656f-5069-4585-9f76-312e332e6b69,1.3*%
%TF.SameCoordinates,Original*%
%TF.FileFunction,Legend,Bot*%
%TF.FilePolarity,Positive*%
%FSLAX46Y46*%
G04 Gerber Fmt 4.6, Leading zero omitted, Abs format (unit mm)*
G04 Created by KiCad (PCBNEW (7.0.0-0)) date 2023-02-25 15:33:57*
%MOMM*%
%LPD*%
G01*
G04 APERTURE LIST*
G04 Aperture macros list*
%AMRoundRect*
0 Rectangle with rounded corners*
0 $1 Rounding radius*
0 $2 $3 $4 $5 $6 $7 $8 $9 X,Y pos of 4 corners*
0 Add a 4 corners polygon primitive as box body*
4,1,4,$2,$3,$4,$5,$6,$7,$8,$9,$2,$3,0*
0 Add four circle primitives for the rounded corners*
1,1,$1+$1,$2,$3*
1,1,$1+$1,$4,$5*
1,1,$1+$1,$6,$7*
1,1,$1+$1,$8,$9*
0 Add four rect primitives between the rounded corners*
20,1,$1+$1,$2,$3,$4,$5,0*
20,1,$1+$1,$4,$5,$6,$7,0*
20,1,$1+$1,$6,$7,$8,$9,0*
20,1,$1+$1,$8,$9,$2,$3,0*%
G04 Aperture macros list end*
%ADD10C,0.125000*%
%ADD11C,0.150000*%
%ADD12C,0.187500*%
%ADD13C,0.250000*%
%ADD14C,0.162500*%
%ADD15C,0.025400*%
%ADD16C,0.254000*%
%ADD17C,0.120000*%
%ADD18C,0.127000*%
%ADD19C,0.010000*%
%ADD20O,2.000000X3.000000*%
%ADD21RoundRect,0.270000X-0.830000X0.630000X-0.830000X-0.630000X0.830000X-0.630000X0.830000X0.630000X0*%
%ADD22C,1.875000*%
%ADD23R,0.850000X0.850000*%
%ADD24O,0.850000X0.850000*%
%ADD25R,2.200000X2.200000*%
%ADD26C,2.200000*%
%ADD27O,1.700000X1.700000*%
%ADD28R,1.700000X1.700000*%
%ADD29C,2.500000*%
%ADD30R,3.500000X8.500000*%
%ADD31R,2.500000X1.800000*%
G04 APERTURE END LIST*
D10*
X125730000Y-124968000D02*
X135890000Y-124968000D01*
D11*
X122527725Y-113226189D02*
X121920582Y-113226189D01*
X121920582Y-113226189D02*
X121799153Y-113266666D01*
X121799153Y-113266666D02*
X121718201Y-113347618D01*
X121718201Y-113347618D02*
X121677725Y-113469047D01*
X121677725Y-113469047D02*
X121677725Y-113549999D01*
X121677725Y-112416666D02*
X121677725Y-112821428D01*
X121677725Y-112821428D02*
X122527725Y-112821428D01*
X121758677Y-111647618D02*
X121718201Y-111688094D01*
X121718201Y-111688094D02*
X121677725Y-111809523D01*
X121677725Y-111809523D02*
X121677725Y-111890475D01*
X121677725Y-111890475D02*
X121718201Y-112011904D01*
X121718201Y-112011904D02*
X121799153Y-112092856D01*
X121799153Y-112092856D02*
X121880106Y-112133333D01*
X121880106Y-112133333D02*
X122042010Y-112173809D01*
X122042010Y-112173809D02*
X122163439Y-112173809D01*
X122163439Y-112173809D02*
X122325344Y-112133333D01*
X122325344Y-112133333D02*
X122406296Y-112092856D01*
X122406296Y-112092856D02*
X122487249Y-112011904D01*
X122487249Y-112011904D02*
X122527725Y-111890475D01*
X122527725Y-111890475D02*
X122527725Y-111809523D01*
X122527725Y-111809523D02*
X122487249Y-111688094D01*
X122487249Y-111688094D02*
X122446772Y-111647618D01*
X122527725Y-111040475D02*
X121920582Y-111040475D01*
X121920582Y-111040475D02*
X121799153Y-111080952D01*
X121799153Y-111080952D02*
X121718201Y-111161904D01*
X121718201Y-111161904D02*
X121677725Y-111283333D01*
X121677725Y-111283333D02*
X121677725Y-111364285D01*
X121677725Y-110230952D02*
X121677725Y-110635714D01*
X121677725Y-110635714D02*
X122527725Y-110635714D01*
X121758677Y-109461904D02*
X121718201Y-109502380D01*
X121718201Y-109502380D02*
X121677725Y-109623809D01*
X121677725Y-109623809D02*
X121677725Y-109704761D01*
X121677725Y-109704761D02*
X121718201Y-109826190D01*
X121718201Y-109826190D02*
X121799153Y-109907142D01*
X121799153Y-109907142D02*
X121880106Y-109947619D01*
X121880106Y-109947619D02*
X122042010Y-109988095D01*
X122042010Y-109988095D02*
X122163439Y-109988095D01*
X122163439Y-109988095D02*
X122325344Y-109947619D01*
X122325344Y-109947619D02*
X122406296Y-109907142D01*
X122406296Y-109907142D02*
X122487249Y-109826190D01*
X122487249Y-109826190D02*
X122527725Y-109704761D01*
X122527725Y-109704761D02*
X122527725Y-109623809D01*
X122527725Y-109623809D02*
X122487249Y-109502380D01*
X122487249Y-109502380D02*
X122446772Y-109461904D01*
X122527725Y-108854761D02*
X121920582Y-108854761D01*
X121920582Y-108854761D02*
X121799153Y-108895238D01*
X121799153Y-108895238D02*
X121718201Y-108976190D01*
X121718201Y-108976190D02*
X121677725Y-109097619D01*
X121677725Y-109097619D02*
X121677725Y-109178571D01*
X121677725Y-108045238D02*
X121677725Y-108450000D01*
X121677725Y-108450000D02*
X122527725Y-108450000D01*
X121758677Y-107276190D02*
X121718201Y-107316666D01*
X121718201Y-107316666D02*
X121677725Y-107438095D01*
X121677725Y-107438095D02*
X121677725Y-107519047D01*
X121677725Y-107519047D02*
X121718201Y-107640476D01*
X121718201Y-107640476D02*
X121799153Y-107721428D01*
X121799153Y-107721428D02*
X121880106Y-107761905D01*
X121880106Y-107761905D02*
X122042010Y-107802381D01*
X122042010Y-107802381D02*
X122163439Y-107802381D01*
X122163439Y-107802381D02*
X122325344Y-107761905D01*
X122325344Y-107761905D02*
X122406296Y-107721428D01*
X122406296Y-107721428D02*
X122487249Y-107640476D01*
X122487249Y-107640476D02*
X122527725Y-107519047D01*
X122527725Y-107519047D02*
X122527725Y-107438095D01*
X122527725Y-107438095D02*
X122487249Y-107316666D01*
X122487249Y-107316666D02*
X122446772Y-107276190D01*
X122527725Y-106669047D02*
X121920582Y-106669047D01*
X121920582Y-106669047D02*
X121799153Y-106709524D01*
X121799153Y-106709524D02*
X121718201Y-106790476D01*
X121718201Y-106790476D02*
X121677725Y-106911905D01*
X121677725Y-106911905D02*
X121677725Y-106992857D01*
X121677725Y-105859524D02*
X121677725Y-106264286D01*
X121677725Y-106264286D02*
X122527725Y-106264286D01*
X121758677Y-105090476D02*
X121718201Y-105130952D01*
X121718201Y-105130952D02*
X121677725Y-105252381D01*
X121677725Y-105252381D02*
X121677725Y-105333333D01*
X121677725Y-105333333D02*
X121718201Y-105454762D01*
X121718201Y-105454762D02*
X121799153Y-105535714D01*
X121799153Y-105535714D02*
X121880106Y-105576191D01*
X121880106Y-105576191D02*
X122042010Y-105616667D01*
X122042010Y-105616667D02*
X122163439Y-105616667D01*
X122163439Y-105616667D02*
X122325344Y-105576191D01*
X122325344Y-105576191D02*
X122406296Y-105535714D01*
X122406296Y-105535714D02*
X122487249Y-105454762D01*
X122487249Y-105454762D02*
X122527725Y-105333333D01*
X122527725Y-105333333D02*
X122527725Y-105252381D01*
X122527725Y-105252381D02*
X122487249Y-105130952D01*
X122487249Y-105130952D02*
X122446772Y-105090476D01*
D12*
X130288571Y-126275535D02*
X130288571Y-125525535D01*
X130288571Y-125525535D02*
X130110000Y-125525535D01*
X130110000Y-125525535D02*
X130002857Y-125561250D01*
X130002857Y-125561250D02*
X129931428Y-125632678D01*
X129931428Y-125632678D02*
X129895714Y-125704107D01*
X129895714Y-125704107D02*
X129860000Y-125846964D01*
X129860000Y-125846964D02*
X129860000Y-125954107D01*
X129860000Y-125954107D02*
X129895714Y-126096964D01*
X129895714Y-126096964D02*
X129931428Y-126168392D01*
X129931428Y-126168392D02*
X130002857Y-126239821D01*
X130002857Y-126239821D02*
X130110000Y-126275535D01*
X130110000Y-126275535D02*
X130288571Y-126275535D01*
X129217143Y-125775535D02*
X129217143Y-126275535D01*
X129395714Y-125489821D02*
X129574285Y-126025535D01*
X129574285Y-126025535D02*
X129110000Y-126025535D01*
D13*
X121540951Y-129547380D02*
X121540951Y-128547380D01*
X120969523Y-129547380D02*
X121398094Y-128975952D01*
X120969523Y-128547380D02*
X121540951Y-129118809D01*
X120540951Y-129547380D02*
X120540951Y-128547380D01*
X120540951Y-128547380D02*
X119969523Y-129547380D01*
X119969523Y-129547380D02*
X119969523Y-128547380D01*
X119588570Y-128547380D02*
X118921904Y-129547380D01*
X118921904Y-128547380D02*
X119588570Y-129547380D01*
X118540951Y-129166428D02*
X117779047Y-129166428D01*
X118159999Y-129547380D02*
X118159999Y-128785476D01*
D12*
X132853571Y-126275535D02*
X132853571Y-125525535D01*
X132853571Y-125525535D02*
X132675000Y-125525535D01*
X132675000Y-125525535D02*
X132567857Y-125561250D01*
X132567857Y-125561250D02*
X132496428Y-125632678D01*
X132496428Y-125632678D02*
X132460714Y-125704107D01*
X132460714Y-125704107D02*
X132425000Y-125846964D01*
X132425000Y-125846964D02*
X132425000Y-125954107D01*
X132425000Y-125954107D02*
X132460714Y-126096964D01*
X132460714Y-126096964D02*
X132496428Y-126168392D01*
X132496428Y-126168392D02*
X132567857Y-126239821D01*
X132567857Y-126239821D02*
X132675000Y-126275535D01*
X132675000Y-126275535D02*
X132853571Y-126275535D01*
X131746428Y-125525535D02*
X132103571Y-125525535D01*
X132103571Y-125525535D02*
X132139285Y-125882678D01*
X132139285Y-125882678D02*
X132103571Y-125846964D01*
X132103571Y-125846964D02*
X132032143Y-125811250D01*
X132032143Y-125811250D02*
X131853571Y-125811250D01*
X131853571Y-125811250D02*
X131782143Y-125846964D01*
X131782143Y-125846964D02*
X131746428Y-125882678D01*
X131746428Y-125882678D02*
X131710714Y-125954107D01*
X131710714Y-125954107D02*
X131710714Y-126132678D01*
X131710714Y-126132678D02*
X131746428Y-126204107D01*
X131746428Y-126204107D02*
X131782143Y-126239821D01*
X131782143Y-126239821D02*
X131853571Y-126275535D01*
X131853571Y-126275535D02*
X132032143Y-126275535D01*
X132032143Y-126275535D02*
X132103571Y-126239821D01*
X132103571Y-126239821D02*
X132139285Y-126204107D01*
X136057142Y-125525535D02*
X135807142Y-126275535D01*
X135807142Y-126275535D02*
X135557142Y-125525535D01*
X135307142Y-125882678D02*
X135057142Y-125882678D01*
X134949999Y-126275535D02*
X135307142Y-126275535D01*
X135307142Y-126275535D02*
X135307142Y-125525535D01*
X135307142Y-125525535D02*
X134949999Y-125525535D01*
X134700000Y-125525535D02*
X134200000Y-126275535D01*
X134200000Y-125525535D02*
X134700000Y-126275535D01*
X134021428Y-125525535D02*
X133592857Y-125525535D01*
X133807142Y-126275535D02*
X133807142Y-125525535D01*
D13*
X115790951Y-129587380D02*
X115790951Y-128587380D01*
X115219523Y-129587380D02*
X115648094Y-129015952D01*
X115219523Y-128587380D02*
X115790951Y-129158809D01*
X114790951Y-129587380D02*
X114790951Y-128587380D01*
X114790951Y-128587380D02*
X114219523Y-129587380D01*
X114219523Y-129587380D02*
X114219523Y-128587380D01*
X113838570Y-128587380D02*
X113171904Y-129587380D01*
X113171904Y-128587380D02*
X113838570Y-129587380D01*
X112790951Y-129206428D02*
X112029047Y-129206428D01*
D11*
X119526225Y-113339285D02*
X118676225Y-112772618D01*
X119526225Y-112772618D02*
X118676225Y-113339285D01*
X118676225Y-112448809D02*
X119526225Y-112448809D01*
X118919082Y-112084523D02*
X118919082Y-111679761D01*
X118676225Y-112165475D02*
X119526225Y-111882142D01*
X119526225Y-111882142D02*
X118676225Y-111598808D01*
X119526225Y-111153571D02*
X119526225Y-110991666D01*
X119526225Y-110991666D02*
X119485749Y-110910714D01*
X119485749Y-110910714D02*
X119404796Y-110829761D01*
X119404796Y-110829761D02*
X119242891Y-110789285D01*
X119242891Y-110789285D02*
X118959558Y-110789285D01*
X118959558Y-110789285D02*
X118797653Y-110829761D01*
X118797653Y-110829761D02*
X118716701Y-110910714D01*
X118716701Y-110910714D02*
X118676225Y-110991666D01*
X118676225Y-110991666D02*
X118676225Y-111153571D01*
X118676225Y-111153571D02*
X118716701Y-111234523D01*
X118716701Y-111234523D02*
X118797653Y-111315476D01*
X118797653Y-111315476D02*
X118959558Y-111355952D01*
X118959558Y-111355952D02*
X119242891Y-111355952D01*
X119242891Y-111355952D02*
X119404796Y-111315476D01*
X119404796Y-111315476D02*
X119485749Y-111234523D01*
X119485749Y-111234523D02*
X119526225Y-111153571D01*
X118676225Y-109429285D02*
X119080987Y-109712619D01*
X118676225Y-109915000D02*
X119526225Y-109915000D01*
X119526225Y-109915000D02*
X119526225Y-109591190D01*
X119526225Y-109591190D02*
X119485749Y-109510238D01*
X119485749Y-109510238D02*
X119445272Y-109469761D01*
X119445272Y-109469761D02*
X119364320Y-109429285D01*
X119364320Y-109429285D02*
X119242891Y-109429285D01*
X119242891Y-109429285D02*
X119161939Y-109469761D01*
X119161939Y-109469761D02*
X119121463Y-109510238D01*
X119121463Y-109510238D02*
X119080987Y-109591190D01*
X119080987Y-109591190D02*
X119080987Y-109915000D01*
X118676225Y-109065000D02*
X119526225Y-109065000D01*
X119526225Y-109065000D02*
X119526225Y-108741190D01*
X119526225Y-108741190D02*
X119485749Y-108660238D01*
X119485749Y-108660238D02*
X119445272Y-108619761D01*
X119445272Y-108619761D02*
X119364320Y-108579285D01*
X119364320Y-108579285D02*
X119242891Y-108579285D01*
X119242891Y-108579285D02*
X119161939Y-108619761D01*
X119161939Y-108619761D02*
X119121463Y-108660238D01*
X119121463Y-108660238D02*
X119080987Y-108741190D01*
X119080987Y-108741190D02*
X119080987Y-109065000D01*
X119445272Y-108255476D02*
X119485749Y-108215000D01*
X119485749Y-108215000D02*
X119526225Y-108134047D01*
X119526225Y-108134047D02*
X119526225Y-107931666D01*
X119526225Y-107931666D02*
X119485749Y-107850714D01*
X119485749Y-107850714D02*
X119445272Y-107810238D01*
X119445272Y-107810238D02*
X119364320Y-107769761D01*
X119364320Y-107769761D02*
X119283368Y-107769761D01*
X119283368Y-107769761D02*
X119161939Y-107810238D01*
X119161939Y-107810238D02*
X118676225Y-108295952D01*
X118676225Y-108295952D02*
X118676225Y-107769761D01*
X119526225Y-107243571D02*
X119526225Y-107162618D01*
X119526225Y-107162618D02*
X119485749Y-107081666D01*
X119485749Y-107081666D02*
X119445272Y-107041190D01*
X119445272Y-107041190D02*
X119364320Y-107000714D01*
X119364320Y-107000714D02*
X119202415Y-106960237D01*
X119202415Y-106960237D02*
X119000034Y-106960237D01*
X119000034Y-106960237D02*
X118838129Y-107000714D01*
X118838129Y-107000714D02*
X118757177Y-107041190D01*
X118757177Y-107041190D02*
X118716701Y-107081666D01*
X118716701Y-107081666D02*
X118676225Y-107162618D01*
X118676225Y-107162618D02*
X118676225Y-107243571D01*
X118676225Y-107243571D02*
X118716701Y-107324523D01*
X118716701Y-107324523D02*
X118757177Y-107364999D01*
X118757177Y-107364999D02*
X118838129Y-107405476D01*
X118838129Y-107405476D02*
X119000034Y-107445952D01*
X119000034Y-107445952D02*
X119202415Y-107445952D01*
X119202415Y-107445952D02*
X119364320Y-107405476D01*
X119364320Y-107405476D02*
X119445272Y-107364999D01*
X119445272Y-107364999D02*
X119485749Y-107324523D01*
X119485749Y-107324523D02*
X119526225Y-107243571D01*
X119242891Y-106231666D02*
X118676225Y-106231666D01*
X119566701Y-106434047D02*
X118959558Y-106636428D01*
X118959558Y-106636428D02*
X118959558Y-106110237D01*
X119526225Y-105624523D02*
X119526225Y-105543570D01*
X119526225Y-105543570D02*
X119485749Y-105462618D01*
X119485749Y-105462618D02*
X119445272Y-105422142D01*
X119445272Y-105422142D02*
X119364320Y-105381666D01*
X119364320Y-105381666D02*
X119202415Y-105341189D01*
X119202415Y-105341189D02*
X119000034Y-105341189D01*
X119000034Y-105341189D02*
X118838129Y-105381666D01*
X118838129Y-105381666D02*
X118757177Y-105422142D01*
X118757177Y-105422142D02*
X118716701Y-105462618D01*
X118716701Y-105462618D02*
X118676225Y-105543570D01*
X118676225Y-105543570D02*
X118676225Y-105624523D01*
X118676225Y-105624523D02*
X118716701Y-105705475D01*
X118716701Y-105705475D02*
X118757177Y-105745951D01*
X118757177Y-105745951D02*
X118838129Y-105786428D01*
X118838129Y-105786428D02*
X119000034Y-105826904D01*
X119000034Y-105826904D02*
X119202415Y-105826904D01*
X119202415Y-105826904D02*
X119364320Y-105786428D01*
X119364320Y-105786428D02*
X119445272Y-105745951D01*
X119445272Y-105745951D02*
X119485749Y-105705475D01*
X119485749Y-105705475D02*
X119526225Y-105624523D01*
X118149225Y-113359523D02*
X117299225Y-112792856D01*
X118149225Y-112792856D02*
X117299225Y-113359523D01*
X117299225Y-112469047D02*
X118149225Y-112469047D01*
X117542082Y-112104761D02*
X117542082Y-111699999D01*
X117299225Y-112185713D02*
X118149225Y-111902380D01*
X118149225Y-111902380D02*
X117299225Y-111619046D01*
X118149225Y-111173809D02*
X118149225Y-111011904D01*
X118149225Y-111011904D02*
X118108749Y-110930952D01*
X118108749Y-110930952D02*
X118027796Y-110849999D01*
X118027796Y-110849999D02*
X117865891Y-110809523D01*
X117865891Y-110809523D02*
X117582558Y-110809523D01*
X117582558Y-110809523D02*
X117420653Y-110849999D01*
X117420653Y-110849999D02*
X117339701Y-110930952D01*
X117339701Y-110930952D02*
X117299225Y-111011904D01*
X117299225Y-111011904D02*
X117299225Y-111173809D01*
X117299225Y-111173809D02*
X117339701Y-111254761D01*
X117339701Y-111254761D02*
X117420653Y-111335714D01*
X117420653Y-111335714D02*
X117582558Y-111376190D01*
X117582558Y-111376190D02*
X117865891Y-111376190D01*
X117865891Y-111376190D02*
X118027796Y-111335714D01*
X118027796Y-111335714D02*
X118108749Y-111254761D01*
X118108749Y-111254761D02*
X118149225Y-111173809D01*
X117339701Y-109975714D02*
X117299225Y-109854285D01*
X117299225Y-109854285D02*
X117299225Y-109651904D01*
X117299225Y-109651904D02*
X117339701Y-109570952D01*
X117339701Y-109570952D02*
X117380177Y-109530476D01*
X117380177Y-109530476D02*
X117461129Y-109489999D01*
X117461129Y-109489999D02*
X117542082Y-109489999D01*
X117542082Y-109489999D02*
X117623034Y-109530476D01*
X117623034Y-109530476D02*
X117663510Y-109570952D01*
X117663510Y-109570952D02*
X117703987Y-109651904D01*
X117703987Y-109651904D02*
X117744463Y-109813809D01*
X117744463Y-109813809D02*
X117784939Y-109894761D01*
X117784939Y-109894761D02*
X117825415Y-109935238D01*
X117825415Y-109935238D02*
X117906368Y-109975714D01*
X117906368Y-109975714D02*
X117987320Y-109975714D01*
X117987320Y-109975714D02*
X118068272Y-109935238D01*
X118068272Y-109935238D02*
X118108749Y-109894761D01*
X118108749Y-109894761D02*
X118149225Y-109813809D01*
X118149225Y-109813809D02*
X118149225Y-109611428D01*
X118149225Y-109611428D02*
X118108749Y-109489999D01*
X117542082Y-109166190D02*
X117542082Y-108761428D01*
X117299225Y-109247142D02*
X118149225Y-108963809D01*
X118149225Y-108963809D02*
X117299225Y-108680475D01*
X117299225Y-108397143D02*
X118149225Y-108397143D01*
X118149225Y-108397143D02*
X117542082Y-108113809D01*
X117542082Y-108113809D02*
X118149225Y-107830476D01*
X118149225Y-107830476D02*
X117299225Y-107830476D01*
X117299225Y-107425714D02*
X118149225Y-107425714D01*
X118149225Y-107425714D02*
X118149225Y-107223333D01*
X118149225Y-107223333D02*
X118108749Y-107101904D01*
X118108749Y-107101904D02*
X118027796Y-107020952D01*
X118027796Y-107020952D02*
X117946844Y-106980475D01*
X117946844Y-106980475D02*
X117784939Y-106939999D01*
X117784939Y-106939999D02*
X117663510Y-106939999D01*
X117663510Y-106939999D02*
X117501606Y-106980475D01*
X117501606Y-106980475D02*
X117420653Y-107020952D01*
X117420653Y-107020952D02*
X117339701Y-107101904D01*
X117339701Y-107101904D02*
X117299225Y-107223333D01*
X117299225Y-107223333D02*
X117299225Y-107425714D01*
X118068272Y-106616190D02*
X118108749Y-106575714D01*
X118108749Y-106575714D02*
X118149225Y-106494761D01*
X118149225Y-106494761D02*
X118149225Y-106292380D01*
X118149225Y-106292380D02*
X118108749Y-106211428D01*
X118108749Y-106211428D02*
X118068272Y-106170952D01*
X118068272Y-106170952D02*
X117987320Y-106130475D01*
X117987320Y-106130475D02*
X117906368Y-106130475D01*
X117906368Y-106130475D02*
X117784939Y-106170952D01*
X117784939Y-106170952D02*
X117299225Y-106656666D01*
X117299225Y-106656666D02*
X117299225Y-106130475D01*
X117299225Y-105320951D02*
X117299225Y-105806666D01*
X117299225Y-105563809D02*
X118149225Y-105563809D01*
X118149225Y-105563809D02*
X118027796Y-105644761D01*
X118027796Y-105644761D02*
X117946844Y-105725713D01*
X117946844Y-105725713D02*
X117906368Y-105806666D01*
D12*
X127746428Y-125561250D02*
X127817857Y-125525535D01*
X127817857Y-125525535D02*
X127924999Y-125525535D01*
X127924999Y-125525535D02*
X128032142Y-125561250D01*
X128032142Y-125561250D02*
X128103571Y-125632678D01*
X128103571Y-125632678D02*
X128139285Y-125704107D01*
X128139285Y-125704107D02*
X128174999Y-125846964D01*
X128174999Y-125846964D02*
X128174999Y-125954107D01*
X128174999Y-125954107D02*
X128139285Y-126096964D01*
X128139285Y-126096964D02*
X128103571Y-126168392D01*
X128103571Y-126168392D02*
X128032142Y-126239821D01*
X128032142Y-126239821D02*
X127924999Y-126275535D01*
X127924999Y-126275535D02*
X127853571Y-126275535D01*
X127853571Y-126275535D02*
X127746428Y-126239821D01*
X127746428Y-126239821D02*
X127710714Y-126204107D01*
X127710714Y-126204107D02*
X127710714Y-125954107D01*
X127710714Y-125954107D02*
X127853571Y-125954107D01*
X127389285Y-126275535D02*
X127389285Y-125525535D01*
X127389285Y-125525535D02*
X126960714Y-126275535D01*
X126960714Y-126275535D02*
X126960714Y-125525535D01*
X126603571Y-126275535D02*
X126603571Y-125525535D01*
X126603571Y-125525535D02*
X126425000Y-125525535D01*
X126425000Y-125525535D02*
X126317857Y-125561250D01*
X126317857Y-125561250D02*
X126246428Y-125632678D01*
X126246428Y-125632678D02*
X126210714Y-125704107D01*
X126210714Y-125704107D02*
X126175000Y-125846964D01*
X126175000Y-125846964D02*
X126175000Y-125954107D01*
X126175000Y-125954107D02*
X126210714Y-126096964D01*
X126210714Y-126096964D02*
X126246428Y-126168392D01*
X126246428Y-126168392D02*
X126317857Y-126239821D01*
X126317857Y-126239821D02*
X126425000Y-126275535D01*
X126425000Y-126275535D02*
X126603571Y-126275535D01*
%TO.C,U1*%
X133503770Y-102625535D02*
X133860913Y-102625535D01*
X133860913Y-102625535D02*
X133896627Y-102982678D01*
X133896627Y-102982678D02*
X133860913Y-102946964D01*
X133860913Y-102946964D02*
X133789485Y-102911250D01*
X133789485Y-102911250D02*
X133610913Y-102911250D01*
X133610913Y-102911250D02*
X133539485Y-102946964D01*
X133539485Y-102946964D02*
X133503770Y-102982678D01*
X133503770Y-102982678D02*
X133468056Y-103054107D01*
X133468056Y-103054107D02*
X133468056Y-103232678D01*
X133468056Y-103232678D02*
X133503770Y-103304107D01*
X133503770Y-103304107D02*
X133539485Y-103339821D01*
X133539485Y-103339821D02*
X133610913Y-103375535D01*
X133610913Y-103375535D02*
X133789485Y-103375535D01*
X133789485Y-103375535D02*
X133860913Y-103339821D01*
X133860913Y-103339821D02*
X133896627Y-103304107D01*
X133253770Y-102625535D02*
X133003770Y-103375535D01*
X133003770Y-103375535D02*
X132753770Y-102625535D01*
X121174485Y-103415535D02*
X121174485Y-102665535D01*
X121174485Y-102665535D02*
X120995914Y-102665535D01*
X120995914Y-102665535D02*
X120888771Y-102701250D01*
X120888771Y-102701250D02*
X120817342Y-102772678D01*
X120817342Y-102772678D02*
X120781628Y-102844107D01*
X120781628Y-102844107D02*
X120745914Y-102986964D01*
X120745914Y-102986964D02*
X120745914Y-103094107D01*
X120745914Y-103094107D02*
X120781628Y-103236964D01*
X120781628Y-103236964D02*
X120817342Y-103308392D01*
X120817342Y-103308392D02*
X120888771Y-103379821D01*
X120888771Y-103379821D02*
X120995914Y-103415535D01*
X120995914Y-103415535D02*
X121174485Y-103415535D01*
X120317342Y-102986964D02*
X120388771Y-102951250D01*
X120388771Y-102951250D02*
X120424485Y-102915535D01*
X120424485Y-102915535D02*
X120460199Y-102844107D01*
X120460199Y-102844107D02*
X120460199Y-102808392D01*
X120460199Y-102808392D02*
X120424485Y-102736964D01*
X120424485Y-102736964D02*
X120388771Y-102701250D01*
X120388771Y-102701250D02*
X120317342Y-102665535D01*
X120317342Y-102665535D02*
X120174485Y-102665535D01*
X120174485Y-102665535D02*
X120103057Y-102701250D01*
X120103057Y-102701250D02*
X120067342Y-102736964D01*
X120067342Y-102736964D02*
X120031628Y-102808392D01*
X120031628Y-102808392D02*
X120031628Y-102844107D01*
X120031628Y-102844107D02*
X120067342Y-102915535D01*
X120067342Y-102915535D02*
X120103057Y-102951250D01*
X120103057Y-102951250D02*
X120174485Y-102986964D01*
X120174485Y-102986964D02*
X120317342Y-102986964D01*
X120317342Y-102986964D02*
X120388771Y-103022678D01*
X120388771Y-103022678D02*
X120424485Y-103058392D01*
X120424485Y-103058392D02*
X120460199Y-103129821D01*
X120460199Y-103129821D02*
X120460199Y-103272678D01*
X120460199Y-103272678D02*
X120424485Y-103344107D01*
X120424485Y-103344107D02*
X120388771Y-103379821D01*
X120388771Y-103379821D02*
X120317342Y-103415535D01*
X120317342Y-103415535D02*
X120174485Y-103415535D01*
X120174485Y-103415535D02*
X120103057Y-103379821D01*
X120103057Y-103379821D02*
X120067342Y-103344107D01*
X120067342Y-103344107D02*
X120031628Y-103272678D01*
X120031628Y-103272678D02*
X120031628Y-103129821D01*
X120031628Y-103129821D02*
X120067342Y-103058392D01*
X120067342Y-103058392D02*
X120103057Y-103022678D01*
X120103057Y-103022678D02*
X120174485Y-102986964D01*
X121155485Y-115935535D02*
X121155485Y-115185535D01*
X121155485Y-115185535D02*
X120976914Y-115185535D01*
X120976914Y-115185535D02*
X120869771Y-115221250D01*
X120869771Y-115221250D02*
X120798342Y-115292678D01*
X120798342Y-115292678D02*
X120762628Y-115364107D01*
X120762628Y-115364107D02*
X120726914Y-115506964D01*
X120726914Y-115506964D02*
X120726914Y-115614107D01*
X120726914Y-115614107D02*
X120762628Y-115756964D01*
X120762628Y-115756964D02*
X120798342Y-115828392D01*
X120798342Y-115828392D02*
X120869771Y-115899821D01*
X120869771Y-115899821D02*
X120976914Y-115935535D01*
X120976914Y-115935535D02*
X121155485Y-115935535D01*
X120048342Y-115185535D02*
X120405485Y-115185535D01*
X120405485Y-115185535D02*
X120441199Y-115542678D01*
X120441199Y-115542678D02*
X120405485Y-115506964D01*
X120405485Y-115506964D02*
X120334057Y-115471250D01*
X120334057Y-115471250D02*
X120155485Y-115471250D01*
X120155485Y-115471250D02*
X120084057Y-115506964D01*
X120084057Y-115506964D02*
X120048342Y-115542678D01*
X120048342Y-115542678D02*
X120012628Y-115614107D01*
X120012628Y-115614107D02*
X120012628Y-115792678D01*
X120012628Y-115792678D02*
X120048342Y-115864107D01*
X120048342Y-115864107D02*
X120084057Y-115899821D01*
X120084057Y-115899821D02*
X120155485Y-115935535D01*
X120155485Y-115935535D02*
X120334057Y-115935535D01*
X120334057Y-115935535D02*
X120405485Y-115899821D01*
X120405485Y-115899821D02*
X120441199Y-115864107D01*
X126621628Y-103375535D02*
X126621628Y-102625535D01*
X126621628Y-102625535D02*
X126443057Y-102625535D01*
X126443057Y-102625535D02*
X126335914Y-102661250D01*
X126335914Y-102661250D02*
X126264485Y-102732678D01*
X126264485Y-102732678D02*
X126228771Y-102804107D01*
X126228771Y-102804107D02*
X126193057Y-102946964D01*
X126193057Y-102946964D02*
X126193057Y-103054107D01*
X126193057Y-103054107D02*
X126228771Y-103196964D01*
X126228771Y-103196964D02*
X126264485Y-103268392D01*
X126264485Y-103268392D02*
X126335914Y-103339821D01*
X126335914Y-103339821D02*
X126443057Y-103375535D01*
X126443057Y-103375535D02*
X126621628Y-103375535D01*
X125478771Y-103375535D02*
X125907342Y-103375535D01*
X125693057Y-103375535D02*
X125693057Y-102625535D01*
X125693057Y-102625535D02*
X125764485Y-102732678D01*
X125764485Y-102732678D02*
X125835914Y-102804107D01*
X125835914Y-102804107D02*
X125907342Y-102839821D01*
X125014485Y-102625535D02*
X124943056Y-102625535D01*
X124943056Y-102625535D02*
X124871628Y-102661250D01*
X124871628Y-102661250D02*
X124835914Y-102696964D01*
X124835914Y-102696964D02*
X124800199Y-102768392D01*
X124800199Y-102768392D02*
X124764485Y-102911250D01*
X124764485Y-102911250D02*
X124764485Y-103089821D01*
X124764485Y-103089821D02*
X124800199Y-103232678D01*
X124800199Y-103232678D02*
X124835914Y-103304107D01*
X124835914Y-103304107D02*
X124871628Y-103339821D01*
X124871628Y-103339821D02*
X124943056Y-103375535D01*
X124943056Y-103375535D02*
X125014485Y-103375535D01*
X125014485Y-103375535D02*
X125085914Y-103339821D01*
X125085914Y-103339821D02*
X125121628Y-103304107D01*
X125121628Y-103304107D02*
X125157342Y-103232678D01*
X125157342Y-103232678D02*
X125193056Y-103089821D01*
X125193056Y-103089821D02*
X125193056Y-102911250D01*
X125193056Y-102911250D02*
X125157342Y-102768392D01*
X125157342Y-102768392D02*
X125121628Y-102696964D01*
X125121628Y-102696964D02*
X125085914Y-102661250D01*
X125085914Y-102661250D02*
X125014485Y-102625535D01*
X123704485Y-103415535D02*
X123704485Y-102665535D01*
X123704485Y-102665535D02*
X123525914Y-102665535D01*
X123525914Y-102665535D02*
X123418771Y-102701250D01*
X123418771Y-102701250D02*
X123347342Y-102772678D01*
X123347342Y-102772678D02*
X123311628Y-102844107D01*
X123311628Y-102844107D02*
X123275914Y-102986964D01*
X123275914Y-102986964D02*
X123275914Y-103094107D01*
X123275914Y-103094107D02*
X123311628Y-103236964D01*
X123311628Y-103236964D02*
X123347342Y-103308392D01*
X123347342Y-103308392D02*
X123418771Y-103379821D01*
X123418771Y-103379821D02*
X123525914Y-103415535D01*
X123525914Y-103415535D02*
X123704485Y-103415535D01*
X122918771Y-103415535D02*
X122775914Y-103415535D01*
X122775914Y-103415535D02*
X122704485Y-103379821D01*
X122704485Y-103379821D02*
X122668771Y-103344107D01*
X122668771Y-103344107D02*
X122597342Y-103236964D01*
X122597342Y-103236964D02*
X122561628Y-103094107D01*
X122561628Y-103094107D02*
X122561628Y-102808392D01*
X122561628Y-102808392D02*
X122597342Y-102736964D01*
X122597342Y-102736964D02*
X122633057Y-102701250D01*
X122633057Y-102701250D02*
X122704485Y-102665535D01*
X122704485Y-102665535D02*
X122847342Y-102665535D01*
X122847342Y-102665535D02*
X122918771Y-102701250D01*
X122918771Y-102701250D02*
X122954485Y-102736964D01*
X122954485Y-102736964D02*
X122990199Y-102808392D01*
X122990199Y-102808392D02*
X122990199Y-102986964D01*
X122990199Y-102986964D02*
X122954485Y-103058392D01*
X122954485Y-103058392D02*
X122918771Y-103094107D01*
X122918771Y-103094107D02*
X122847342Y-103129821D01*
X122847342Y-103129821D02*
X122704485Y-103129821D01*
X122704485Y-103129821D02*
X122633057Y-103094107D01*
X122633057Y-103094107D02*
X122597342Y-103058392D01*
X122597342Y-103058392D02*
X122561628Y-102986964D01*
X133809485Y-116065535D02*
X133809485Y-115315535D01*
X133809485Y-115315535D02*
X133630914Y-115315535D01*
X133630914Y-115315535D02*
X133523771Y-115351250D01*
X133523771Y-115351250D02*
X133452342Y-115422678D01*
X133452342Y-115422678D02*
X133416628Y-115494107D01*
X133416628Y-115494107D02*
X133380914Y-115636964D01*
X133380914Y-115636964D02*
X133380914Y-115744107D01*
X133380914Y-115744107D02*
X133416628Y-115886964D01*
X133416628Y-115886964D02*
X133452342Y-115958392D01*
X133452342Y-115958392D02*
X133523771Y-116029821D01*
X133523771Y-116029821D02*
X133630914Y-116065535D01*
X133630914Y-116065535D02*
X133809485Y-116065535D01*
X132916628Y-115315535D02*
X132845199Y-115315535D01*
X132845199Y-115315535D02*
X132773771Y-115351250D01*
X132773771Y-115351250D02*
X132738057Y-115386964D01*
X132738057Y-115386964D02*
X132702342Y-115458392D01*
X132702342Y-115458392D02*
X132666628Y-115601250D01*
X132666628Y-115601250D02*
X132666628Y-115779821D01*
X132666628Y-115779821D02*
X132702342Y-115922678D01*
X132702342Y-115922678D02*
X132738057Y-115994107D01*
X132738057Y-115994107D02*
X132773771Y-116029821D01*
X132773771Y-116029821D02*
X132845199Y-116065535D01*
X132845199Y-116065535D02*
X132916628Y-116065535D01*
X132916628Y-116065535D02*
X132988057Y-116029821D01*
X132988057Y-116029821D02*
X133023771Y-115994107D01*
X133023771Y-115994107D02*
X133059485Y-115922678D01*
X133059485Y-115922678D02*
X133095199Y-115779821D01*
X133095199Y-115779821D02*
X133095199Y-115601250D01*
X133095199Y-115601250D02*
X133059485Y-115458392D01*
X133059485Y-115458392D02*
X133023771Y-115386964D01*
X133023771Y-115386964D02*
X132988057Y-115351250D01*
X132988057Y-115351250D02*
X132916628Y-115315535D01*
X118579485Y-115938835D02*
X118579485Y-115188835D01*
X118579485Y-115188835D02*
X118400914Y-115188835D01*
X118400914Y-115188835D02*
X118293771Y-115224550D01*
X118293771Y-115224550D02*
X118222342Y-115295978D01*
X118222342Y-115295978D02*
X118186628Y-115367407D01*
X118186628Y-115367407D02*
X118150914Y-115510264D01*
X118150914Y-115510264D02*
X118150914Y-115617407D01*
X118150914Y-115617407D02*
X118186628Y-115760264D01*
X118186628Y-115760264D02*
X118222342Y-115831692D01*
X118222342Y-115831692D02*
X118293771Y-115903121D01*
X118293771Y-115903121D02*
X118400914Y-115938835D01*
X118400914Y-115938835D02*
X118579485Y-115938835D01*
X117508057Y-115188835D02*
X117650914Y-115188835D01*
X117650914Y-115188835D02*
X117722342Y-115224550D01*
X117722342Y-115224550D02*
X117758057Y-115260264D01*
X117758057Y-115260264D02*
X117829485Y-115367407D01*
X117829485Y-115367407D02*
X117865199Y-115510264D01*
X117865199Y-115510264D02*
X117865199Y-115795978D01*
X117865199Y-115795978D02*
X117829485Y-115867407D01*
X117829485Y-115867407D02*
X117793771Y-115903121D01*
X117793771Y-115903121D02*
X117722342Y-115938835D01*
X117722342Y-115938835D02*
X117579485Y-115938835D01*
X117579485Y-115938835D02*
X117508057Y-115903121D01*
X117508057Y-115903121D02*
X117472342Y-115867407D01*
X117472342Y-115867407D02*
X117436628Y-115795978D01*
X117436628Y-115795978D02*
X117436628Y-115617407D01*
X117436628Y-115617407D02*
X117472342Y-115545978D01*
X117472342Y-115545978D02*
X117508057Y-115510264D01*
X117508057Y-115510264D02*
X117579485Y-115474550D01*
X117579485Y-115474550D02*
X117722342Y-115474550D01*
X117722342Y-115474550D02*
X117793771Y-115510264D01*
X117793771Y-115510264D02*
X117829485Y-115545978D01*
X117829485Y-115545978D02*
X117865199Y-115617407D01*
X131362342Y-102651250D02*
X131433771Y-102615535D01*
X131433771Y-102615535D02*
X131540913Y-102615535D01*
X131540913Y-102615535D02*
X131648056Y-102651250D01*
X131648056Y-102651250D02*
X131719485Y-102722678D01*
X131719485Y-102722678D02*
X131755199Y-102794107D01*
X131755199Y-102794107D02*
X131790913Y-102936964D01*
X131790913Y-102936964D02*
X131790913Y-103044107D01*
X131790913Y-103044107D02*
X131755199Y-103186964D01*
X131755199Y-103186964D02*
X131719485Y-103258392D01*
X131719485Y-103258392D02*
X131648056Y-103329821D01*
X131648056Y-103329821D02*
X131540913Y-103365535D01*
X131540913Y-103365535D02*
X131469485Y-103365535D01*
X131469485Y-103365535D02*
X131362342Y-103329821D01*
X131362342Y-103329821D02*
X131326628Y-103294107D01*
X131326628Y-103294107D02*
X131326628Y-103044107D01*
X131326628Y-103044107D02*
X131469485Y-103044107D01*
X131005199Y-103365535D02*
X131005199Y-102615535D01*
X131005199Y-102615535D02*
X130576628Y-103365535D01*
X130576628Y-103365535D02*
X130576628Y-102615535D01*
X130219485Y-103365535D02*
X130219485Y-102615535D01*
X130219485Y-102615535D02*
X130040914Y-102615535D01*
X130040914Y-102615535D02*
X129933771Y-102651250D01*
X129933771Y-102651250D02*
X129862342Y-102722678D01*
X129862342Y-102722678D02*
X129826628Y-102794107D01*
X129826628Y-102794107D02*
X129790914Y-102936964D01*
X129790914Y-102936964D02*
X129790914Y-103044107D01*
X129790914Y-103044107D02*
X129826628Y-103186964D01*
X129826628Y-103186964D02*
X129862342Y-103258392D01*
X129862342Y-103258392D02*
X129933771Y-103329821D01*
X129933771Y-103329821D02*
X130040914Y-103365535D01*
X130040914Y-103365535D02*
X130219485Y-103365535D01*
X126235485Y-115935535D02*
X126235485Y-115185535D01*
X126235485Y-115185535D02*
X126056914Y-115185535D01*
X126056914Y-115185535D02*
X125949771Y-115221250D01*
X125949771Y-115221250D02*
X125878342Y-115292678D01*
X125878342Y-115292678D02*
X125842628Y-115364107D01*
X125842628Y-115364107D02*
X125806914Y-115506964D01*
X125806914Y-115506964D02*
X125806914Y-115614107D01*
X125806914Y-115614107D02*
X125842628Y-115756964D01*
X125842628Y-115756964D02*
X125878342Y-115828392D01*
X125878342Y-115828392D02*
X125949771Y-115899821D01*
X125949771Y-115899821D02*
X126056914Y-115935535D01*
X126056914Y-115935535D02*
X126235485Y-115935535D01*
X125556914Y-115185535D02*
X125092628Y-115185535D01*
X125092628Y-115185535D02*
X125342628Y-115471250D01*
X125342628Y-115471250D02*
X125235485Y-115471250D01*
X125235485Y-115471250D02*
X125164057Y-115506964D01*
X125164057Y-115506964D02*
X125128342Y-115542678D01*
X125128342Y-115542678D02*
X125092628Y-115614107D01*
X125092628Y-115614107D02*
X125092628Y-115792678D01*
X125092628Y-115792678D02*
X125128342Y-115864107D01*
X125128342Y-115864107D02*
X125164057Y-115899821D01*
X125164057Y-115899821D02*
X125235485Y-115935535D01*
X125235485Y-115935535D02*
X125449771Y-115935535D01*
X125449771Y-115935535D02*
X125521199Y-115899821D01*
X125521199Y-115899821D02*
X125556914Y-115864107D01*
X129189485Y-102615535D02*
X128725199Y-102615535D01*
X128725199Y-102615535D02*
X128975199Y-102901250D01*
X128975199Y-102901250D02*
X128868056Y-102901250D01*
X128868056Y-102901250D02*
X128796628Y-102936964D01*
X128796628Y-102936964D02*
X128760913Y-102972678D01*
X128760913Y-102972678D02*
X128725199Y-103044107D01*
X128725199Y-103044107D02*
X128725199Y-103222678D01*
X128725199Y-103222678D02*
X128760913Y-103294107D01*
X128760913Y-103294107D02*
X128796628Y-103329821D01*
X128796628Y-103329821D02*
X128868056Y-103365535D01*
X128868056Y-103365535D02*
X129082342Y-103365535D01*
X129082342Y-103365535D02*
X129153770Y-103329821D01*
X129153770Y-103329821D02*
X129189485Y-103294107D01*
X128510913Y-102615535D02*
X128260913Y-103365535D01*
X128260913Y-103365535D02*
X128010913Y-102615535D01*
X127832342Y-102615535D02*
X127368056Y-102615535D01*
X127368056Y-102615535D02*
X127618056Y-102901250D01*
X127618056Y-102901250D02*
X127510913Y-102901250D01*
X127510913Y-102901250D02*
X127439485Y-102936964D01*
X127439485Y-102936964D02*
X127403770Y-102972678D01*
X127403770Y-102972678D02*
X127368056Y-103044107D01*
X127368056Y-103044107D02*
X127368056Y-103222678D01*
X127368056Y-103222678D02*
X127403770Y-103294107D01*
X127403770Y-103294107D02*
X127439485Y-103329821D01*
X127439485Y-103329821D02*
X127510913Y-103365535D01*
X127510913Y-103365535D02*
X127725199Y-103365535D01*
X127725199Y-103365535D02*
X127796627Y-103329821D01*
X127796627Y-103329821D02*
X127832342Y-103294107D01*
X128759485Y-115995535D02*
X128759485Y-115245535D01*
X128759485Y-115245535D02*
X128580914Y-115245535D01*
X128580914Y-115245535D02*
X128473771Y-115281250D01*
X128473771Y-115281250D02*
X128402342Y-115352678D01*
X128402342Y-115352678D02*
X128366628Y-115424107D01*
X128366628Y-115424107D02*
X128330914Y-115566964D01*
X128330914Y-115566964D02*
X128330914Y-115674107D01*
X128330914Y-115674107D02*
X128366628Y-115816964D01*
X128366628Y-115816964D02*
X128402342Y-115888392D01*
X128402342Y-115888392D02*
X128473771Y-115959821D01*
X128473771Y-115959821D02*
X128580914Y-115995535D01*
X128580914Y-115995535D02*
X128759485Y-115995535D01*
X128045199Y-115316964D02*
X128009485Y-115281250D01*
X128009485Y-115281250D02*
X127938057Y-115245535D01*
X127938057Y-115245535D02*
X127759485Y-115245535D01*
X127759485Y-115245535D02*
X127688057Y-115281250D01*
X127688057Y-115281250D02*
X127652342Y-115316964D01*
X127652342Y-115316964D02*
X127616628Y-115388392D01*
X127616628Y-115388392D02*
X127616628Y-115459821D01*
X127616628Y-115459821D02*
X127652342Y-115566964D01*
X127652342Y-115566964D02*
X128080914Y-115995535D01*
X128080914Y-115995535D02*
X127616628Y-115995535D01*
X123695485Y-115935535D02*
X123695485Y-115185535D01*
X123695485Y-115185535D02*
X123516914Y-115185535D01*
X123516914Y-115185535D02*
X123409771Y-115221250D01*
X123409771Y-115221250D02*
X123338342Y-115292678D01*
X123338342Y-115292678D02*
X123302628Y-115364107D01*
X123302628Y-115364107D02*
X123266914Y-115506964D01*
X123266914Y-115506964D02*
X123266914Y-115614107D01*
X123266914Y-115614107D02*
X123302628Y-115756964D01*
X123302628Y-115756964D02*
X123338342Y-115828392D01*
X123338342Y-115828392D02*
X123409771Y-115899821D01*
X123409771Y-115899821D02*
X123516914Y-115935535D01*
X123516914Y-115935535D02*
X123695485Y-115935535D01*
X122624057Y-115435535D02*
X122624057Y-115935535D01*
X122802628Y-115149821D02*
X122981199Y-115685535D01*
X122981199Y-115685535D02*
X122516914Y-115685535D01*
X118654485Y-103385535D02*
X118654485Y-102635535D01*
X118654485Y-102635535D02*
X118475914Y-102635535D01*
X118475914Y-102635535D02*
X118368771Y-102671250D01*
X118368771Y-102671250D02*
X118297342Y-102742678D01*
X118297342Y-102742678D02*
X118261628Y-102814107D01*
X118261628Y-102814107D02*
X118225914Y-102956964D01*
X118225914Y-102956964D02*
X118225914Y-103064107D01*
X118225914Y-103064107D02*
X118261628Y-103206964D01*
X118261628Y-103206964D02*
X118297342Y-103278392D01*
X118297342Y-103278392D02*
X118368771Y-103349821D01*
X118368771Y-103349821D02*
X118475914Y-103385535D01*
X118475914Y-103385535D02*
X118654485Y-103385535D01*
X117975914Y-102635535D02*
X117475914Y-102635535D01*
X117475914Y-102635535D02*
X117797342Y-103385535D01*
X131259485Y-116045535D02*
X131259485Y-115295535D01*
X131259485Y-115295535D02*
X131080914Y-115295535D01*
X131080914Y-115295535D02*
X130973771Y-115331250D01*
X130973771Y-115331250D02*
X130902342Y-115402678D01*
X130902342Y-115402678D02*
X130866628Y-115474107D01*
X130866628Y-115474107D02*
X130830914Y-115616964D01*
X130830914Y-115616964D02*
X130830914Y-115724107D01*
X130830914Y-115724107D02*
X130866628Y-115866964D01*
X130866628Y-115866964D02*
X130902342Y-115938392D01*
X130902342Y-115938392D02*
X130973771Y-116009821D01*
X130973771Y-116009821D02*
X131080914Y-116045535D01*
X131080914Y-116045535D02*
X131259485Y-116045535D01*
X130116628Y-116045535D02*
X130545199Y-116045535D01*
X130330914Y-116045535D02*
X130330914Y-115295535D01*
X130330914Y-115295535D02*
X130402342Y-115402678D01*
X130402342Y-115402678D02*
X130473771Y-115474107D01*
X130473771Y-115474107D02*
X130545199Y-115509821D01*
D10*
%TO.C,J6*%
X135341666Y-122133690D02*
X135341666Y-122490833D01*
X135341666Y-122490833D02*
X135365475Y-122562261D01*
X135365475Y-122562261D02*
X135413094Y-122609880D01*
X135413094Y-122609880D02*
X135484523Y-122633690D01*
X135484523Y-122633690D02*
X135532142Y-122633690D01*
X134889285Y-122133690D02*
X134984523Y-122133690D01*
X134984523Y-122133690D02*
X135032142Y-122157500D01*
X135032142Y-122157500D02*
X135055952Y-122181309D01*
X135055952Y-122181309D02*
X135103571Y-122252738D01*
X135103571Y-122252738D02*
X135127380Y-122347976D01*
X135127380Y-122347976D02*
X135127380Y-122538452D01*
X135127380Y-122538452D02*
X135103571Y-122586071D01*
X135103571Y-122586071D02*
X135079761Y-122609880D01*
X135079761Y-122609880D02*
X135032142Y-122633690D01*
X135032142Y-122633690D02*
X134936904Y-122633690D01*
X134936904Y-122633690D02*
X134889285Y-122609880D01*
X134889285Y-122609880D02*
X134865476Y-122586071D01*
X134865476Y-122586071D02*
X134841666Y-122538452D01*
X134841666Y-122538452D02*
X134841666Y-122419404D01*
X134841666Y-122419404D02*
X134865476Y-122371785D01*
X134865476Y-122371785D02*
X134889285Y-122347976D01*
X134889285Y-122347976D02*
X134936904Y-122324166D01*
X134936904Y-122324166D02*
X135032142Y-122324166D01*
X135032142Y-122324166D02*
X135079761Y-122347976D01*
X135079761Y-122347976D02*
X135103571Y-122371785D01*
X135103571Y-122371785D02*
X135127380Y-122419404D01*
X133923809Y-123633690D02*
X134090475Y-123395595D01*
X134209523Y-123633690D02*
X134209523Y-123133690D01*
X134209523Y-123133690D02*
X134019047Y-123133690D01*
X134019047Y-123133690D02*
X133971428Y-123157500D01*
X133971428Y-123157500D02*
X133947618Y-123181309D01*
X133947618Y-123181309D02*
X133923809Y-123228928D01*
X133923809Y-123228928D02*
X133923809Y-123300357D01*
X133923809Y-123300357D02*
X133947618Y-123347976D01*
X133947618Y-123347976D02*
X133971428Y-123371785D01*
X133971428Y-123371785D02*
X134019047Y-123395595D01*
X134019047Y-123395595D02*
X134209523Y-123395595D01*
X133733332Y-123609880D02*
X133661904Y-123633690D01*
X133661904Y-123633690D02*
X133542856Y-123633690D01*
X133542856Y-123633690D02*
X133495237Y-123609880D01*
X133495237Y-123609880D02*
X133471428Y-123586071D01*
X133471428Y-123586071D02*
X133447618Y-123538452D01*
X133447618Y-123538452D02*
X133447618Y-123490833D01*
X133447618Y-123490833D02*
X133471428Y-123443214D01*
X133471428Y-123443214D02*
X133495237Y-123419404D01*
X133495237Y-123419404D02*
X133542856Y-123395595D01*
X133542856Y-123395595D02*
X133638094Y-123371785D01*
X133638094Y-123371785D02*
X133685713Y-123347976D01*
X133685713Y-123347976D02*
X133709523Y-123324166D01*
X133709523Y-123324166D02*
X133733332Y-123276547D01*
X133733332Y-123276547D02*
X133733332Y-123228928D01*
X133733332Y-123228928D02*
X133709523Y-123181309D01*
X133709523Y-123181309D02*
X133685713Y-123157500D01*
X133685713Y-123157500D02*
X133638094Y-123133690D01*
X133638094Y-123133690D02*
X133519047Y-123133690D01*
X133519047Y-123133690D02*
X133447618Y-123157500D01*
X133304761Y-123133690D02*
X133019047Y-123133690D01*
X133161904Y-123633690D02*
X133161904Y-123133690D01*
X133161904Y-124458690D02*
X133161904Y-123958690D01*
X133161904Y-123958690D02*
X133042856Y-123958690D01*
X133042856Y-123958690D02*
X132971428Y-123982500D01*
X132971428Y-123982500D02*
X132923809Y-124030119D01*
X132923809Y-124030119D02*
X132899999Y-124077738D01*
X132899999Y-124077738D02*
X132876190Y-124172976D01*
X132876190Y-124172976D02*
X132876190Y-124244404D01*
X132876190Y-124244404D02*
X132899999Y-124339642D01*
X132899999Y-124339642D02*
X132923809Y-124387261D01*
X132923809Y-124387261D02*
X132971428Y-124434880D01*
X132971428Y-124434880D02*
X133042856Y-124458690D01*
X133042856Y-124458690D02*
X133161904Y-124458690D01*
X132661904Y-124458690D02*
X132661904Y-123958690D01*
X132328571Y-123958690D02*
X132233333Y-123958690D01*
X132233333Y-123958690D02*
X132185714Y-123982500D01*
X132185714Y-123982500D02*
X132138095Y-124030119D01*
X132138095Y-124030119D02*
X132114285Y-124125357D01*
X132114285Y-124125357D02*
X132114285Y-124292023D01*
X132114285Y-124292023D02*
X132138095Y-124387261D01*
X132138095Y-124387261D02*
X132185714Y-124434880D01*
X132185714Y-124434880D02*
X132233333Y-124458690D01*
X132233333Y-124458690D02*
X132328571Y-124458690D01*
X132328571Y-124458690D02*
X132376190Y-124434880D01*
X132376190Y-124434880D02*
X132423809Y-124387261D01*
X132423809Y-124387261D02*
X132447618Y-124292023D01*
X132447618Y-124292023D02*
X132447618Y-124125357D01*
X132447618Y-124125357D02*
X132423809Y-124030119D01*
X132423809Y-124030119D02*
X132376190Y-123982500D01*
X132376190Y-123982500D02*
X132328571Y-123958690D01*
X130030952Y-123157500D02*
X130078571Y-123133690D01*
X130078571Y-123133690D02*
X130150000Y-123133690D01*
X130150000Y-123133690D02*
X130221428Y-123157500D01*
X130221428Y-123157500D02*
X130269047Y-123205119D01*
X130269047Y-123205119D02*
X130292857Y-123252738D01*
X130292857Y-123252738D02*
X130316666Y-123347976D01*
X130316666Y-123347976D02*
X130316666Y-123419404D01*
X130316666Y-123419404D02*
X130292857Y-123514642D01*
X130292857Y-123514642D02*
X130269047Y-123562261D01*
X130269047Y-123562261D02*
X130221428Y-123609880D01*
X130221428Y-123609880D02*
X130150000Y-123633690D01*
X130150000Y-123633690D02*
X130102381Y-123633690D01*
X130102381Y-123633690D02*
X130030952Y-123609880D01*
X130030952Y-123609880D02*
X130007143Y-123586071D01*
X130007143Y-123586071D02*
X130007143Y-123419404D01*
X130007143Y-123419404D02*
X130102381Y-123419404D01*
X129792857Y-123633690D02*
X129792857Y-123133690D01*
X129792857Y-123133690D02*
X129507143Y-123633690D01*
X129507143Y-123633690D02*
X129507143Y-123133690D01*
X129269047Y-123633690D02*
X129269047Y-123133690D01*
X129269047Y-123133690D02*
X129149999Y-123133690D01*
X129149999Y-123133690D02*
X129078571Y-123157500D01*
X129078571Y-123157500D02*
X129030952Y-123205119D01*
X129030952Y-123205119D02*
X129007142Y-123252738D01*
X129007142Y-123252738D02*
X128983333Y-123347976D01*
X128983333Y-123347976D02*
X128983333Y-123419404D01*
X128983333Y-123419404D02*
X129007142Y-123514642D01*
X129007142Y-123514642D02*
X129030952Y-123562261D01*
X129030952Y-123562261D02*
X129078571Y-123609880D01*
X129078571Y-123609880D02*
X129149999Y-123633690D01*
X129149999Y-123633690D02*
X129269047Y-123633690D01*
D14*
X133104761Y-121238797D02*
X133104761Y-120588797D01*
X133104761Y-120588797D02*
X132949999Y-120588797D01*
X132949999Y-120588797D02*
X132857142Y-120619750D01*
X132857142Y-120619750D02*
X132795237Y-120681654D01*
X132795237Y-120681654D02*
X132764284Y-120743559D01*
X132764284Y-120743559D02*
X132733332Y-120867369D01*
X132733332Y-120867369D02*
X132733332Y-120960226D01*
X132733332Y-120960226D02*
X132764284Y-121084035D01*
X132764284Y-121084035D02*
X132795237Y-121145940D01*
X132795237Y-121145940D02*
X132857142Y-121207845D01*
X132857142Y-121207845D02*
X132949999Y-121238797D01*
X132949999Y-121238797D02*
X133104761Y-121238797D01*
X132454761Y-120898321D02*
X132238094Y-120898321D01*
X132145237Y-121238797D02*
X132454761Y-121238797D01*
X132454761Y-121238797D02*
X132454761Y-120588797D01*
X132454761Y-120588797D02*
X132145237Y-120588797D01*
X131649999Y-120898321D02*
X131557142Y-120929273D01*
X131557142Y-120929273D02*
X131526189Y-120960226D01*
X131526189Y-120960226D02*
X131495237Y-121022130D01*
X131495237Y-121022130D02*
X131495237Y-121114988D01*
X131495237Y-121114988D02*
X131526189Y-121176892D01*
X131526189Y-121176892D02*
X131557142Y-121207845D01*
X131557142Y-121207845D02*
X131619047Y-121238797D01*
X131619047Y-121238797D02*
X131866666Y-121238797D01*
X131866666Y-121238797D02*
X131866666Y-120588797D01*
X131866666Y-120588797D02*
X131649999Y-120588797D01*
X131649999Y-120588797D02*
X131588094Y-120619750D01*
X131588094Y-120619750D02*
X131557142Y-120650702D01*
X131557142Y-120650702D02*
X131526189Y-120712607D01*
X131526189Y-120712607D02*
X131526189Y-120774511D01*
X131526189Y-120774511D02*
X131557142Y-120836416D01*
X131557142Y-120836416D02*
X131588094Y-120867369D01*
X131588094Y-120867369D02*
X131649999Y-120898321D01*
X131649999Y-120898321D02*
X131866666Y-120898321D01*
X131216666Y-120588797D02*
X131216666Y-121114988D01*
X131216666Y-121114988D02*
X131185713Y-121176892D01*
X131185713Y-121176892D02*
X131154761Y-121207845D01*
X131154761Y-121207845D02*
X131092856Y-121238797D01*
X131092856Y-121238797D02*
X130969047Y-121238797D01*
X130969047Y-121238797D02*
X130907142Y-121207845D01*
X130907142Y-121207845D02*
X130876189Y-121176892D01*
X130876189Y-121176892D02*
X130845237Y-121114988D01*
X130845237Y-121114988D02*
X130845237Y-120588797D01*
X130195237Y-120619750D02*
X130257142Y-120588797D01*
X130257142Y-120588797D02*
X130349999Y-120588797D01*
X130349999Y-120588797D02*
X130442856Y-120619750D01*
X130442856Y-120619750D02*
X130504761Y-120681654D01*
X130504761Y-120681654D02*
X130535714Y-120743559D01*
X130535714Y-120743559D02*
X130566666Y-120867369D01*
X130566666Y-120867369D02*
X130566666Y-120960226D01*
X130566666Y-120960226D02*
X130535714Y-121084035D01*
X130535714Y-121084035D02*
X130504761Y-121145940D01*
X130504761Y-121145940D02*
X130442856Y-121207845D01*
X130442856Y-121207845D02*
X130349999Y-121238797D01*
X130349999Y-121238797D02*
X130288095Y-121238797D01*
X130288095Y-121238797D02*
X130195237Y-121207845D01*
X130195237Y-121207845D02*
X130164285Y-121176892D01*
X130164285Y-121176892D02*
X130164285Y-120960226D01*
X130164285Y-120960226D02*
X130288095Y-120960226D01*
D10*
X131947619Y-123586071D02*
X131971428Y-123609880D01*
X131971428Y-123609880D02*
X132042857Y-123633690D01*
X132042857Y-123633690D02*
X132090476Y-123633690D01*
X132090476Y-123633690D02*
X132161904Y-123609880D01*
X132161904Y-123609880D02*
X132209523Y-123562261D01*
X132209523Y-123562261D02*
X132233333Y-123514642D01*
X132233333Y-123514642D02*
X132257142Y-123419404D01*
X132257142Y-123419404D02*
X132257142Y-123347976D01*
X132257142Y-123347976D02*
X132233333Y-123252738D01*
X132233333Y-123252738D02*
X132209523Y-123205119D01*
X132209523Y-123205119D02*
X132161904Y-123157500D01*
X132161904Y-123157500D02*
X132090476Y-123133690D01*
X132090476Y-123133690D02*
X132042857Y-123133690D01*
X132042857Y-123133690D02*
X131971428Y-123157500D01*
X131971428Y-123157500D02*
X131947619Y-123181309D01*
X131495238Y-123633690D02*
X131733333Y-123633690D01*
X131733333Y-123633690D02*
X131733333Y-123133690D01*
X131328571Y-123633690D02*
X131328571Y-123133690D01*
X131042857Y-123633690D02*
X131257142Y-123347976D01*
X131042857Y-123133690D02*
X131328571Y-123419404D01*
X131269046Y-123958690D02*
X130959522Y-123958690D01*
X130959522Y-123958690D02*
X131126189Y-124149166D01*
X131126189Y-124149166D02*
X131054760Y-124149166D01*
X131054760Y-124149166D02*
X131007141Y-124172976D01*
X131007141Y-124172976D02*
X130983332Y-124196785D01*
X130983332Y-124196785D02*
X130959522Y-124244404D01*
X130959522Y-124244404D02*
X130959522Y-124363452D01*
X130959522Y-124363452D02*
X130983332Y-124411071D01*
X130983332Y-124411071D02*
X131007141Y-124434880D01*
X131007141Y-124434880D02*
X131054760Y-124458690D01*
X131054760Y-124458690D02*
X131197617Y-124458690D01*
X131197617Y-124458690D02*
X131245236Y-124434880D01*
X131245236Y-124434880D02*
X131269046Y-124411071D01*
X130816665Y-123958690D02*
X130649999Y-124458690D01*
X130649999Y-124458690D02*
X130483332Y-123958690D01*
X130364285Y-123958690D02*
X130054761Y-123958690D01*
X130054761Y-123958690D02*
X130221428Y-124149166D01*
X130221428Y-124149166D02*
X130149999Y-124149166D01*
X130149999Y-124149166D02*
X130102380Y-124172976D01*
X130102380Y-124172976D02*
X130078571Y-124196785D01*
X130078571Y-124196785D02*
X130054761Y-124244404D01*
X130054761Y-124244404D02*
X130054761Y-124363452D01*
X130054761Y-124363452D02*
X130078571Y-124411071D01*
X130078571Y-124411071D02*
X130102380Y-124434880D01*
X130102380Y-124434880D02*
X130149999Y-124458690D01*
X130149999Y-124458690D02*
X130292856Y-124458690D01*
X130292856Y-124458690D02*
X130340475Y-124434880D01*
X130340475Y-124434880D02*
X130364285Y-124411071D01*
D11*
%TO.C,J4*%
X135027144Y-128906428D02*
X134827144Y-129506428D01*
X134827144Y-129506428D02*
X134627144Y-128906428D01*
X134427143Y-129192142D02*
X134227143Y-129192142D01*
X134141429Y-129506428D02*
X134427143Y-129506428D01*
X134427143Y-129506428D02*
X134427143Y-128906428D01*
X134427143Y-128906428D02*
X134141429Y-128906428D01*
X133941429Y-128906428D02*
X133541429Y-129506428D01*
X133541429Y-128906428D02*
X133941429Y-129506428D01*
X133398572Y-128906428D02*
X133055715Y-128906428D01*
X133227143Y-129506428D02*
X133227143Y-128906428D01*
X132855714Y-129449285D02*
X132827143Y-129477857D01*
X132827143Y-129477857D02*
X132855714Y-129506428D01*
X132855714Y-129506428D02*
X132884286Y-129477857D01*
X132884286Y-129477857D02*
X132855714Y-129449285D01*
X132855714Y-129449285D02*
X132855714Y-129506428D01*
X132855714Y-129135000D02*
X132827143Y-129163571D01*
X132827143Y-129163571D02*
X132855714Y-129192142D01*
X132855714Y-129192142D02*
X132884286Y-129163571D01*
X132884286Y-129163571D02*
X132855714Y-129135000D01*
X132855714Y-129135000D02*
X132855714Y-129192142D01*
X131924286Y-128906428D02*
X132210000Y-128906428D01*
X132210000Y-128906428D02*
X132238572Y-129192142D01*
X132238572Y-129192142D02*
X132210000Y-129163571D01*
X132210000Y-129163571D02*
X132152858Y-129135000D01*
X132152858Y-129135000D02*
X132010000Y-129135000D01*
X132010000Y-129135000D02*
X131952858Y-129163571D01*
X131952858Y-129163571D02*
X131924286Y-129192142D01*
X131924286Y-129192142D02*
X131895715Y-129249285D01*
X131895715Y-129249285D02*
X131895715Y-129392142D01*
X131895715Y-129392142D02*
X131924286Y-129449285D01*
X131924286Y-129449285D02*
X131952858Y-129477857D01*
X131952858Y-129477857D02*
X132010000Y-129506428D01*
X132010000Y-129506428D02*
X132152858Y-129506428D01*
X132152858Y-129506428D02*
X132210000Y-129477857D01*
X132210000Y-129477857D02*
X132238572Y-129449285D01*
X131724286Y-128906428D02*
X131524286Y-129506428D01*
X131524286Y-129506428D02*
X131324286Y-128906428D01*
X131124285Y-129277857D02*
X130667143Y-129277857D01*
X130410000Y-128963571D02*
X130381428Y-128935000D01*
X130381428Y-128935000D02*
X130324286Y-128906428D01*
X130324286Y-128906428D02*
X130181428Y-128906428D01*
X130181428Y-128906428D02*
X130124286Y-128935000D01*
X130124286Y-128935000D02*
X130095714Y-128963571D01*
X130095714Y-128963571D02*
X130067143Y-129020714D01*
X130067143Y-129020714D02*
X130067143Y-129077857D01*
X130067143Y-129077857D02*
X130095714Y-129163571D01*
X130095714Y-129163571D02*
X130438571Y-129506428D01*
X130438571Y-129506428D02*
X130067143Y-129506428D01*
X129552857Y-129106428D02*
X129552857Y-129506428D01*
X129695714Y-128877857D02*
X129838571Y-129306428D01*
X129838571Y-129306428D02*
X129467142Y-129306428D01*
X129324285Y-128906428D02*
X129124285Y-129506428D01*
X129124285Y-129506428D02*
X128924285Y-128906428D01*
X128364284Y-129506428D02*
X128364284Y-128906428D01*
X128364284Y-128906428D02*
X128164284Y-129335000D01*
X128164284Y-129335000D02*
X127964284Y-128906428D01*
X127964284Y-128906428D02*
X127964284Y-129506428D01*
X127707142Y-129335000D02*
X127421428Y-129335000D01*
X127764285Y-129506428D02*
X127564285Y-128906428D01*
X127564285Y-128906428D02*
X127364285Y-129506428D01*
X127221427Y-128906428D02*
X126821427Y-129506428D01*
X126821427Y-128906428D02*
X127221427Y-129506428D01*
D12*
%TO.C,J3*%
X113064285Y-95674464D02*
X113064285Y-96424464D01*
X113064285Y-96424464D02*
X113242856Y-96424464D01*
X113242856Y-96424464D02*
X113349999Y-96388750D01*
X113349999Y-96388750D02*
X113421428Y-96317321D01*
X113421428Y-96317321D02*
X113457142Y-96245892D01*
X113457142Y-96245892D02*
X113492856Y-96103035D01*
X113492856Y-96103035D02*
X113492856Y-95995892D01*
X113492856Y-95995892D02*
X113457142Y-95853035D01*
X113457142Y-95853035D02*
X113421428Y-95781607D01*
X113421428Y-95781607D02*
X113349999Y-95710178D01*
X113349999Y-95710178D02*
X113242856Y-95674464D01*
X113242856Y-95674464D02*
X113064285Y-95674464D01*
X114207142Y-95674464D02*
X113778571Y-95674464D01*
X113992856Y-95674464D02*
X113992856Y-96424464D01*
X113992856Y-96424464D02*
X113921428Y-96317321D01*
X113921428Y-96317321D02*
X113849999Y-96245892D01*
X113849999Y-96245892D02*
X113778571Y-96210178D01*
X114671428Y-96424464D02*
X114742857Y-96424464D01*
X114742857Y-96424464D02*
X114814285Y-96388750D01*
X114814285Y-96388750D02*
X114850000Y-96353035D01*
X114850000Y-96353035D02*
X114885714Y-96281607D01*
X114885714Y-96281607D02*
X114921428Y-96138750D01*
X114921428Y-96138750D02*
X114921428Y-95960178D01*
X114921428Y-95960178D02*
X114885714Y-95817321D01*
X114885714Y-95817321D02*
X114850000Y-95745892D01*
X114850000Y-95745892D02*
X114814285Y-95710178D01*
X114814285Y-95710178D02*
X114742857Y-95674464D01*
X114742857Y-95674464D02*
X114671428Y-95674464D01*
X114671428Y-95674464D02*
X114600000Y-95710178D01*
X114600000Y-95710178D02*
X114564285Y-95745892D01*
X114564285Y-95745892D02*
X114528571Y-95817321D01*
X114528571Y-95817321D02*
X114492857Y-95960178D01*
X114492857Y-95960178D02*
X114492857Y-96138750D01*
X114492857Y-96138750D02*
X114528571Y-96281607D01*
X114528571Y-96281607D02*
X114564285Y-96353035D01*
X114564285Y-96353035D02*
X114600000Y-96388750D01*
X114600000Y-96388750D02*
X114671428Y-96424464D01*
X115921428Y-95674464D02*
X115921428Y-96424464D01*
X115921428Y-96424464D02*
X116099999Y-96424464D01*
X116099999Y-96424464D02*
X116207142Y-96388750D01*
X116207142Y-96388750D02*
X116278571Y-96317321D01*
X116278571Y-96317321D02*
X116314285Y-96245892D01*
X116314285Y-96245892D02*
X116349999Y-96103035D01*
X116349999Y-96103035D02*
X116349999Y-95995892D01*
X116349999Y-95995892D02*
X116314285Y-95853035D01*
X116314285Y-95853035D02*
X116278571Y-95781607D01*
X116278571Y-95781607D02*
X116207142Y-95710178D01*
X116207142Y-95710178D02*
X116099999Y-95674464D01*
X116099999Y-95674464D02*
X115921428Y-95674464D01*
X116707142Y-95674464D02*
X116849999Y-95674464D01*
X116849999Y-95674464D02*
X116921428Y-95710178D01*
X116921428Y-95710178D02*
X116957142Y-95745892D01*
X116957142Y-95745892D02*
X117028571Y-95853035D01*
X117028571Y-95853035D02*
X117064285Y-95995892D01*
X117064285Y-95995892D02*
X117064285Y-96281607D01*
X117064285Y-96281607D02*
X117028571Y-96353035D01*
X117028571Y-96353035D02*
X116992857Y-96388750D01*
X116992857Y-96388750D02*
X116921428Y-96424464D01*
X116921428Y-96424464D02*
X116778571Y-96424464D01*
X116778571Y-96424464D02*
X116707142Y-96388750D01*
X116707142Y-96388750D02*
X116671428Y-96353035D01*
X116671428Y-96353035D02*
X116635714Y-96281607D01*
X116635714Y-96281607D02*
X116635714Y-96103035D01*
X116635714Y-96103035D02*
X116671428Y-96031607D01*
X116671428Y-96031607D02*
X116707142Y-95995892D01*
X116707142Y-95995892D02*
X116778571Y-95960178D01*
X116778571Y-95960178D02*
X116921428Y-95960178D01*
X116921428Y-95960178D02*
X116992857Y-95995892D01*
X116992857Y-95995892D02*
X117028571Y-96031607D01*
X117028571Y-96031607D02*
X117064285Y-96103035D01*
X126096428Y-95674464D02*
X126096428Y-96424464D01*
X126096428Y-96424464D02*
X126274999Y-96424464D01*
X126274999Y-96424464D02*
X126382142Y-96388750D01*
X126382142Y-96388750D02*
X126453571Y-96317321D01*
X126453571Y-96317321D02*
X126489285Y-96245892D01*
X126489285Y-96245892D02*
X126524999Y-96103035D01*
X126524999Y-96103035D02*
X126524999Y-95995892D01*
X126524999Y-95995892D02*
X126489285Y-95853035D01*
X126489285Y-95853035D02*
X126453571Y-95781607D01*
X126453571Y-95781607D02*
X126382142Y-95710178D01*
X126382142Y-95710178D02*
X126274999Y-95674464D01*
X126274999Y-95674464D02*
X126096428Y-95674464D01*
X127239285Y-95674464D02*
X126810714Y-95674464D01*
X127024999Y-95674464D02*
X127024999Y-96424464D01*
X127024999Y-96424464D02*
X126953571Y-96317321D01*
X126953571Y-96317321D02*
X126882142Y-96245892D01*
X126882142Y-96245892D02*
X126810714Y-96210178D01*
X121021428Y-95674464D02*
X121021428Y-96424464D01*
X121021428Y-96424464D02*
X121199999Y-96424464D01*
X121199999Y-96424464D02*
X121307142Y-96388750D01*
X121307142Y-96388750D02*
X121378571Y-96317321D01*
X121378571Y-96317321D02*
X121414285Y-96245892D01*
X121414285Y-96245892D02*
X121449999Y-96103035D01*
X121449999Y-96103035D02*
X121449999Y-95995892D01*
X121449999Y-95995892D02*
X121414285Y-95853035D01*
X121414285Y-95853035D02*
X121378571Y-95781607D01*
X121378571Y-95781607D02*
X121307142Y-95710178D01*
X121307142Y-95710178D02*
X121199999Y-95674464D01*
X121199999Y-95674464D02*
X121021428Y-95674464D01*
X121699999Y-96424464D02*
X122164285Y-96424464D01*
X122164285Y-96424464D02*
X121914285Y-96138750D01*
X121914285Y-96138750D02*
X122021428Y-96138750D01*
X122021428Y-96138750D02*
X122092857Y-96103035D01*
X122092857Y-96103035D02*
X122128571Y-96067321D01*
X122128571Y-96067321D02*
X122164285Y-95995892D01*
X122164285Y-95995892D02*
X122164285Y-95817321D01*
X122164285Y-95817321D02*
X122128571Y-95745892D01*
X122128571Y-95745892D02*
X122092857Y-95710178D01*
X122092857Y-95710178D02*
X122021428Y-95674464D01*
X122021428Y-95674464D02*
X121807142Y-95674464D01*
X121807142Y-95674464D02*
X121735714Y-95710178D01*
X121735714Y-95710178D02*
X121699999Y-95745892D01*
X130796428Y-96424464D02*
X131260714Y-96424464D01*
X131260714Y-96424464D02*
X131010714Y-96138750D01*
X131010714Y-96138750D02*
X131117857Y-96138750D01*
X131117857Y-96138750D02*
X131189286Y-96103035D01*
X131189286Y-96103035D02*
X131225000Y-96067321D01*
X131225000Y-96067321D02*
X131260714Y-95995892D01*
X131260714Y-95995892D02*
X131260714Y-95817321D01*
X131260714Y-95817321D02*
X131225000Y-95745892D01*
X131225000Y-95745892D02*
X131189286Y-95710178D01*
X131189286Y-95710178D02*
X131117857Y-95674464D01*
X131117857Y-95674464D02*
X130903571Y-95674464D01*
X130903571Y-95674464D02*
X130832143Y-95710178D01*
X130832143Y-95710178D02*
X130796428Y-95745892D01*
X131475000Y-96424464D02*
X131725000Y-95674464D01*
X131725000Y-95674464D02*
X131975000Y-96424464D01*
X132153571Y-96424464D02*
X132617857Y-96424464D01*
X132617857Y-96424464D02*
X132367857Y-96138750D01*
X132367857Y-96138750D02*
X132475000Y-96138750D01*
X132475000Y-96138750D02*
X132546429Y-96103035D01*
X132546429Y-96103035D02*
X132582143Y-96067321D01*
X132582143Y-96067321D02*
X132617857Y-95995892D01*
X132617857Y-95995892D02*
X132617857Y-95817321D01*
X132617857Y-95817321D02*
X132582143Y-95745892D01*
X132582143Y-95745892D02*
X132546429Y-95710178D01*
X132546429Y-95710178D02*
X132475000Y-95674464D01*
X132475000Y-95674464D02*
X132260714Y-95674464D01*
X132260714Y-95674464D02*
X132189286Y-95710178D01*
X132189286Y-95710178D02*
X132153571Y-95745892D01*
X129057143Y-96424464D02*
X128700000Y-96424464D01*
X128700000Y-96424464D02*
X128664286Y-96067321D01*
X128664286Y-96067321D02*
X128700000Y-96103035D01*
X128700000Y-96103035D02*
X128771429Y-96138750D01*
X128771429Y-96138750D02*
X128950000Y-96138750D01*
X128950000Y-96138750D02*
X129021429Y-96103035D01*
X129021429Y-96103035D02*
X129057143Y-96067321D01*
X129057143Y-96067321D02*
X129092857Y-95995892D01*
X129092857Y-95995892D02*
X129092857Y-95817321D01*
X129092857Y-95817321D02*
X129057143Y-95745892D01*
X129057143Y-95745892D02*
X129021429Y-95710178D01*
X129021429Y-95710178D02*
X128950000Y-95674464D01*
X128950000Y-95674464D02*
X128771429Y-95674464D01*
X128771429Y-95674464D02*
X128700000Y-95710178D01*
X128700000Y-95710178D02*
X128664286Y-95745892D01*
X129307143Y-96424464D02*
X129557143Y-95674464D01*
X129557143Y-95674464D02*
X129807143Y-96424464D01*
X118496428Y-95674464D02*
X118496428Y-96424464D01*
X118496428Y-96424464D02*
X118674999Y-96424464D01*
X118674999Y-96424464D02*
X118782142Y-96388750D01*
X118782142Y-96388750D02*
X118853571Y-96317321D01*
X118853571Y-96317321D02*
X118889285Y-96245892D01*
X118889285Y-96245892D02*
X118924999Y-96103035D01*
X118924999Y-96103035D02*
X118924999Y-95995892D01*
X118924999Y-95995892D02*
X118889285Y-95853035D01*
X118889285Y-95853035D02*
X118853571Y-95781607D01*
X118853571Y-95781607D02*
X118782142Y-95710178D01*
X118782142Y-95710178D02*
X118674999Y-95674464D01*
X118674999Y-95674464D02*
X118496428Y-95674464D01*
X119353571Y-96103035D02*
X119282142Y-96138750D01*
X119282142Y-96138750D02*
X119246428Y-96174464D01*
X119246428Y-96174464D02*
X119210714Y-96245892D01*
X119210714Y-96245892D02*
X119210714Y-96281607D01*
X119210714Y-96281607D02*
X119246428Y-96353035D01*
X119246428Y-96353035D02*
X119282142Y-96388750D01*
X119282142Y-96388750D02*
X119353571Y-96424464D01*
X119353571Y-96424464D02*
X119496428Y-96424464D01*
X119496428Y-96424464D02*
X119567857Y-96388750D01*
X119567857Y-96388750D02*
X119603571Y-96353035D01*
X119603571Y-96353035D02*
X119639285Y-96281607D01*
X119639285Y-96281607D02*
X119639285Y-96245892D01*
X119639285Y-96245892D02*
X119603571Y-96174464D01*
X119603571Y-96174464D02*
X119567857Y-96138750D01*
X119567857Y-96138750D02*
X119496428Y-96103035D01*
X119496428Y-96103035D02*
X119353571Y-96103035D01*
X119353571Y-96103035D02*
X119282142Y-96067321D01*
X119282142Y-96067321D02*
X119246428Y-96031607D01*
X119246428Y-96031607D02*
X119210714Y-95960178D01*
X119210714Y-95960178D02*
X119210714Y-95817321D01*
X119210714Y-95817321D02*
X119246428Y-95745892D01*
X119246428Y-95745892D02*
X119282142Y-95710178D01*
X119282142Y-95710178D02*
X119353571Y-95674464D01*
X119353571Y-95674464D02*
X119496428Y-95674464D01*
X119496428Y-95674464D02*
X119567857Y-95710178D01*
X119567857Y-95710178D02*
X119603571Y-95745892D01*
X119603571Y-95745892D02*
X119639285Y-95817321D01*
X119639285Y-95817321D02*
X119639285Y-95960178D01*
X119639285Y-95960178D02*
X119603571Y-96031607D01*
X119603571Y-96031607D02*
X119567857Y-96067321D01*
X119567857Y-96067321D02*
X119496428Y-96103035D01*
X123571428Y-95674464D02*
X123571428Y-96424464D01*
X123571428Y-96424464D02*
X123749999Y-96424464D01*
X123749999Y-96424464D02*
X123857142Y-96388750D01*
X123857142Y-96388750D02*
X123928571Y-96317321D01*
X123928571Y-96317321D02*
X123964285Y-96245892D01*
X123964285Y-96245892D02*
X123999999Y-96103035D01*
X123999999Y-96103035D02*
X123999999Y-95995892D01*
X123999999Y-95995892D02*
X123964285Y-95853035D01*
X123964285Y-95853035D02*
X123928571Y-95781607D01*
X123928571Y-95781607D02*
X123857142Y-95710178D01*
X123857142Y-95710178D02*
X123749999Y-95674464D01*
X123749999Y-95674464D02*
X123571428Y-95674464D01*
X124285714Y-96353035D02*
X124321428Y-96388750D01*
X124321428Y-96388750D02*
X124392857Y-96424464D01*
X124392857Y-96424464D02*
X124571428Y-96424464D01*
X124571428Y-96424464D02*
X124642857Y-96388750D01*
X124642857Y-96388750D02*
X124678571Y-96353035D01*
X124678571Y-96353035D02*
X124714285Y-96281607D01*
X124714285Y-96281607D02*
X124714285Y-96210178D01*
X124714285Y-96210178D02*
X124678571Y-96103035D01*
X124678571Y-96103035D02*
X124249999Y-95674464D01*
X124249999Y-95674464D02*
X124714285Y-95674464D01*
X133703571Y-96388750D02*
X133632143Y-96424464D01*
X133632143Y-96424464D02*
X133525000Y-96424464D01*
X133525000Y-96424464D02*
X133417857Y-96388750D01*
X133417857Y-96388750D02*
X133346428Y-96317321D01*
X133346428Y-96317321D02*
X133310714Y-96245892D01*
X133310714Y-96245892D02*
X133275000Y-96103035D01*
X133275000Y-96103035D02*
X133275000Y-95995892D01*
X133275000Y-95995892D02*
X133310714Y-95853035D01*
X133310714Y-95853035D02*
X133346428Y-95781607D01*
X133346428Y-95781607D02*
X133417857Y-95710178D01*
X133417857Y-95710178D02*
X133525000Y-95674464D01*
X133525000Y-95674464D02*
X133596428Y-95674464D01*
X133596428Y-95674464D02*
X133703571Y-95710178D01*
X133703571Y-95710178D02*
X133739285Y-95745892D01*
X133739285Y-95745892D02*
X133739285Y-95995892D01*
X133739285Y-95995892D02*
X133596428Y-95995892D01*
X134060714Y-95674464D02*
X134060714Y-96424464D01*
X134060714Y-96424464D02*
X134489285Y-95674464D01*
X134489285Y-95674464D02*
X134489285Y-96424464D01*
X134846428Y-95674464D02*
X134846428Y-96424464D01*
X134846428Y-96424464D02*
X135024999Y-96424464D01*
X135024999Y-96424464D02*
X135132142Y-96388750D01*
X135132142Y-96388750D02*
X135203571Y-96317321D01*
X135203571Y-96317321D02*
X135239285Y-96245892D01*
X135239285Y-96245892D02*
X135274999Y-96103035D01*
X135274999Y-96103035D02*
X135274999Y-95995892D01*
X135274999Y-95995892D02*
X135239285Y-95853035D01*
X135239285Y-95853035D02*
X135203571Y-95781607D01*
X135203571Y-95781607D02*
X135132142Y-95710178D01*
X135132142Y-95710178D02*
X135024999Y-95674464D01*
X135024999Y-95674464D02*
X134846428Y-95674464D01*
D10*
%TO.C,GN1*%
X114266309Y-110258333D02*
X114504404Y-110424999D01*
X114266309Y-110544047D02*
X114766309Y-110544047D01*
X114766309Y-110544047D02*
X114766309Y-110353571D01*
X114766309Y-110353571D02*
X114742500Y-110305952D01*
X114742500Y-110305952D02*
X114718690Y-110282142D01*
X114718690Y-110282142D02*
X114671071Y-110258333D01*
X114671071Y-110258333D02*
X114599642Y-110258333D01*
X114599642Y-110258333D02*
X114552023Y-110282142D01*
X114552023Y-110282142D02*
X114528214Y-110305952D01*
X114528214Y-110305952D02*
X114504404Y-110353571D01*
X114504404Y-110353571D02*
X114504404Y-110544047D01*
X114766309Y-110091666D02*
X114266309Y-109758333D01*
X114766309Y-109758333D02*
X114266309Y-110091666D01*
X114766309Y-108005951D02*
X114766309Y-107720237D01*
X114266309Y-107863094D02*
X114766309Y-107863094D01*
X114766309Y-107601190D02*
X114266309Y-107267857D01*
X114766309Y-107267857D02*
X114266309Y-107601190D01*
X114290119Y-113497617D02*
X114266309Y-113426189D01*
X114266309Y-113426189D02*
X114266309Y-113307141D01*
X114266309Y-113307141D02*
X114290119Y-113259522D01*
X114290119Y-113259522D02*
X114313928Y-113235713D01*
X114313928Y-113235713D02*
X114361547Y-113211903D01*
X114361547Y-113211903D02*
X114409166Y-113211903D01*
X114409166Y-113211903D02*
X114456785Y-113235713D01*
X114456785Y-113235713D02*
X114480595Y-113259522D01*
X114480595Y-113259522D02*
X114504404Y-113307141D01*
X114504404Y-113307141D02*
X114528214Y-113402379D01*
X114528214Y-113402379D02*
X114552023Y-113449998D01*
X114552023Y-113449998D02*
X114575833Y-113473808D01*
X114575833Y-113473808D02*
X114623452Y-113497617D01*
X114623452Y-113497617D02*
X114671071Y-113497617D01*
X114671071Y-113497617D02*
X114718690Y-113473808D01*
X114718690Y-113473808D02*
X114742500Y-113449998D01*
X114742500Y-113449998D02*
X114766309Y-113402379D01*
X114766309Y-113402379D02*
X114766309Y-113283332D01*
X114766309Y-113283332D02*
X114742500Y-113211903D01*
X114409166Y-113021427D02*
X114409166Y-112783332D01*
X114266309Y-113069046D02*
X114766309Y-112902380D01*
X114766309Y-112902380D02*
X114266309Y-112735713D01*
X114766309Y-112640475D02*
X114266309Y-112473809D01*
X114266309Y-112473809D02*
X114766309Y-112307142D01*
X114528214Y-112140476D02*
X114528214Y-111973809D01*
X114266309Y-111902381D02*
X114266309Y-112140476D01*
X114266309Y-112140476D02*
X114766309Y-112140476D01*
X114766309Y-112140476D02*
X114766309Y-111902381D01*
X114766309Y-105744046D02*
X114766309Y-105434522D01*
X114766309Y-105434522D02*
X114575833Y-105601189D01*
X114575833Y-105601189D02*
X114575833Y-105529760D01*
X114575833Y-105529760D02*
X114552023Y-105482141D01*
X114552023Y-105482141D02*
X114528214Y-105458332D01*
X114528214Y-105458332D02*
X114480595Y-105434522D01*
X114480595Y-105434522D02*
X114361547Y-105434522D01*
X114361547Y-105434522D02*
X114313928Y-105458332D01*
X114313928Y-105458332D02*
X114290119Y-105482141D01*
X114290119Y-105482141D02*
X114266309Y-105529760D01*
X114266309Y-105529760D02*
X114266309Y-105672617D01*
X114266309Y-105672617D02*
X114290119Y-105720236D01*
X114290119Y-105720236D02*
X114313928Y-105744046D01*
X114766309Y-105291665D02*
X114266309Y-105124999D01*
X114266309Y-105124999D02*
X114766309Y-104958332D01*
X114766309Y-104839285D02*
X114766309Y-104529761D01*
X114766309Y-104529761D02*
X114575833Y-104696428D01*
X114575833Y-104696428D02*
X114575833Y-104624999D01*
X114575833Y-104624999D02*
X114552023Y-104577380D01*
X114552023Y-104577380D02*
X114528214Y-104553571D01*
X114528214Y-104553571D02*
X114480595Y-104529761D01*
X114480595Y-104529761D02*
X114361547Y-104529761D01*
X114361547Y-104529761D02*
X114313928Y-104553571D01*
X114313928Y-104553571D02*
X114290119Y-104577380D01*
X114290119Y-104577380D02*
X114266309Y-104624999D01*
X114266309Y-104624999D02*
X114266309Y-104767856D01*
X114266309Y-104767856D02*
X114290119Y-104815475D01*
X114290119Y-104815475D02*
X114313928Y-104839285D01*
X114266309Y-116190476D02*
X114766309Y-116190476D01*
X114266309Y-115904762D02*
X114552023Y-116119047D01*
X114766309Y-115904762D02*
X114480595Y-116190476D01*
X114266309Y-115690476D02*
X114766309Y-115690476D01*
X114766309Y-115690476D02*
X114266309Y-115404762D01*
X114266309Y-115404762D02*
X114766309Y-115404762D01*
X114766309Y-115214285D02*
X114266309Y-114880952D01*
X114766309Y-114880952D02*
X114266309Y-115214285D01*
X114456785Y-114690476D02*
X114456785Y-114309524D01*
X114766309Y-102620237D02*
X114766309Y-102858332D01*
X114766309Y-102858332D02*
X114528214Y-102882141D01*
X114528214Y-102882141D02*
X114552023Y-102858332D01*
X114552023Y-102858332D02*
X114575833Y-102810713D01*
X114575833Y-102810713D02*
X114575833Y-102691665D01*
X114575833Y-102691665D02*
X114552023Y-102644046D01*
X114552023Y-102644046D02*
X114528214Y-102620237D01*
X114528214Y-102620237D02*
X114480595Y-102596427D01*
X114480595Y-102596427D02*
X114361547Y-102596427D01*
X114361547Y-102596427D02*
X114313928Y-102620237D01*
X114313928Y-102620237D02*
X114290119Y-102644046D01*
X114290119Y-102644046D02*
X114266309Y-102691665D01*
X114266309Y-102691665D02*
X114266309Y-102810713D01*
X114266309Y-102810713D02*
X114290119Y-102858332D01*
X114290119Y-102858332D02*
X114313928Y-102882141D01*
X114766309Y-102453570D02*
X114266309Y-102286904D01*
X114266309Y-102286904D02*
X114766309Y-102120237D01*
X114266309Y-118715476D02*
X114766309Y-118715476D01*
X114266309Y-118429762D02*
X114552023Y-118644047D01*
X114766309Y-118429762D02*
X114480595Y-118715476D01*
X114266309Y-118215476D02*
X114766309Y-118215476D01*
X114766309Y-118215476D02*
X114266309Y-117929762D01*
X114266309Y-117929762D02*
X114766309Y-117929762D01*
X114766309Y-117739285D02*
X114266309Y-117405952D01*
X114766309Y-117405952D02*
X114266309Y-117739285D01*
X114456785Y-117215476D02*
X114456785Y-116834524D01*
X114266309Y-117025000D02*
X114647261Y-117025000D01*
%TO.C,D3*%
X117769047Y-121833690D02*
X117769047Y-121333690D01*
X117769047Y-121333690D02*
X117649999Y-121333690D01*
X117649999Y-121333690D02*
X117578571Y-121357500D01*
X117578571Y-121357500D02*
X117530952Y-121405119D01*
X117530952Y-121405119D02*
X117507142Y-121452738D01*
X117507142Y-121452738D02*
X117483333Y-121547976D01*
X117483333Y-121547976D02*
X117483333Y-121619404D01*
X117483333Y-121619404D02*
X117507142Y-121714642D01*
X117507142Y-121714642D02*
X117530952Y-121762261D01*
X117530952Y-121762261D02*
X117578571Y-121809880D01*
X117578571Y-121809880D02*
X117649999Y-121833690D01*
X117649999Y-121833690D02*
X117769047Y-121833690D01*
X117316666Y-121333690D02*
X117007142Y-121333690D01*
X117007142Y-121333690D02*
X117173809Y-121524166D01*
X117173809Y-121524166D02*
X117102380Y-121524166D01*
X117102380Y-121524166D02*
X117054761Y-121547976D01*
X117054761Y-121547976D02*
X117030952Y-121571785D01*
X117030952Y-121571785D02*
X117007142Y-121619404D01*
X117007142Y-121619404D02*
X117007142Y-121738452D01*
X117007142Y-121738452D02*
X117030952Y-121786071D01*
X117030952Y-121786071D02*
X117054761Y-121809880D01*
X117054761Y-121809880D02*
X117102380Y-121833690D01*
X117102380Y-121833690D02*
X117245237Y-121833690D01*
X117245237Y-121833690D02*
X117292856Y-121809880D01*
X117292856Y-121809880D02*
X117316666Y-121786071D01*
%TO.C,U1*%
D15*
X116694959Y-100445666D02*
X116742964Y-100435761D01*
X116791224Y-100426870D01*
X116839739Y-100419250D01*
X116888507Y-100412646D01*
X116937275Y-100407313D01*
X116986296Y-100403249D01*
X117035064Y-100400201D01*
X117084340Y-100398422D01*
X116694959Y-100445666D01*
X134216387Y-118172581D02*
X134167619Y-118175629D01*
X134265408Y-118168517D01*
X134216387Y-118172581D01*
D16*
X136052914Y-118687914D02*
G75*
G03*
X136052914Y-118687914I-127000J0D01*
G01*
D17*
X136105916Y-102387914D02*
G75*
G03*
X134105914Y-100387914I-2044636J-44636D01*
G01*
X117105914Y-100387914D02*
G75*
G03*
X115105914Y-102387914I-14J-1999986D01*
G01*
X134105914Y-118187913D02*
G75*
G03*
X136105913Y-116187914I-44614J2044613D01*
G01*
X115105915Y-116187914D02*
G75*
G03*
X117105914Y-118187913I2044856J44857D01*
G01*
D18*
X117105914Y-100387914D02*
X134105914Y-100387914D01*
X136105004Y-102387914D02*
X136105004Y-116187914D01*
X137529944Y-104787914D02*
X130176644Y-104787914D01*
X130176644Y-104787914D02*
X130176644Y-113787914D01*
X137529944Y-113787914D02*
X137529944Y-104787914D01*
X130176644Y-113787914D02*
X137529944Y-113787914D01*
X115105914Y-116187914D02*
X115105914Y-102387914D01*
X134105914Y-118187914D02*
X117105914Y-118187914D01*
%TO.C,REF1*%
G36*
X117188669Y-124964335D02*
G01*
X116797569Y-124967110D01*
X116406468Y-124969884D01*
X116797569Y-125207879D01*
X117188669Y-125445874D01*
X117188669Y-125694843D01*
X115992752Y-125694843D01*
X115992752Y-125441104D01*
X116377759Y-125438327D01*
X116762765Y-125435551D01*
X116380405Y-125202327D01*
X115998044Y-124969103D01*
X115995062Y-124845140D01*
X115992081Y-124721176D01*
X117188669Y-124721176D01*
X117188669Y-124964335D01*
G37*
D19*
X117188669Y-124964335D02*
X116797569Y-124967110D01*
X116406468Y-124969884D01*
X116797569Y-125207879D01*
X117188669Y-125445874D01*
X117188669Y-125694843D01*
X115992752Y-125694843D01*
X115992752Y-125441104D01*
X116377759Y-125438327D01*
X116762765Y-125435551D01*
X116380405Y-125202327D01*
X115998044Y-124969103D01*
X115995062Y-124845140D01*
X115992081Y-124721176D01*
X117188669Y-124721176D01*
X117188669Y-124964335D01*
G36*
X118128291Y-125028097D02*
G01*
X118193033Y-125028299D01*
X118241248Y-125029093D01*
X118276582Y-125030876D01*
X118302683Y-125034046D01*
X118323197Y-125039000D01*
X118341771Y-125046137D01*
X118362052Y-125055852D01*
X118380082Y-125065680D01*
X118430461Y-125106609D01*
X118462885Y-125158713D01*
X118477489Y-125222188D01*
X118478456Y-125241106D01*
X118475195Y-125279542D01*
X118462958Y-125319806D01*
X118439824Y-125369405D01*
X118440079Y-125373426D01*
X118452496Y-125377343D01*
X118458601Y-125378508D01*
X118466858Y-125390762D01*
X118469252Y-125419676D01*
X118469252Y-125462009D01*
X117908336Y-125462009D01*
X117908336Y-125377343D01*
X118093884Y-125377343D01*
X118153877Y-125377040D01*
X118217845Y-125375376D01*
X118266273Y-125371711D01*
X118302368Y-125365432D01*
X118329335Y-125355925D01*
X118350381Y-125342578D01*
X118368711Y-125324776D01*
X118374841Y-125316610D01*
X118388427Y-125280155D01*
X118391030Y-125236559D01*
X118382880Y-125194141D01*
X118364205Y-125161221D01*
X118354561Y-125151844D01*
X118334298Y-125137711D01*
X118308324Y-125127344D01*
X118273554Y-125120207D01*
X118226901Y-125115765D01*
X118165280Y-125113481D01*
X118085607Y-125112819D01*
X117908336Y-125112759D01*
X117908336Y-125028093D01*
X118107341Y-125028093D01*
X118128291Y-125028097D01*
G37*
X118128291Y-125028097D02*
X118193033Y-125028299D01*
X118241248Y-125029093D01*
X118276582Y-125030876D01*
X118302683Y-125034046D01*
X118323197Y-125039000D01*
X118341771Y-125046137D01*
X118362052Y-125055852D01*
X118380082Y-125065680D01*
X118430461Y-125106609D01*
X118462885Y-125158713D01*
X118477489Y-125222188D01*
X118478456Y-125241106D01*
X118475195Y-125279542D01*
X118462958Y-125319806D01*
X118439824Y-125369405D01*
X118440079Y-125373426D01*
X118452496Y-125377343D01*
X118458601Y-125378508D01*
X118466858Y-125390762D01*
X118469252Y-125419676D01*
X118469252Y-125462009D01*
X117908336Y-125462009D01*
X117908336Y-125377343D01*
X118093884Y-125377343D01*
X118153877Y-125377040D01*
X118217845Y-125375376D01*
X118266273Y-125371711D01*
X118302368Y-125365432D01*
X118329335Y-125355925D01*
X118350381Y-125342578D01*
X118368711Y-125324776D01*
X118374841Y-125316610D01*
X118388427Y-125280155D01*
X118391030Y-125236559D01*
X118382880Y-125194141D01*
X118364205Y-125161221D01*
X118354561Y-125151844D01*
X118334298Y-125137711D01*
X118308324Y-125127344D01*
X118273554Y-125120207D01*
X118226901Y-125115765D01*
X118165280Y-125113481D01*
X118085607Y-125112819D01*
X117908336Y-125112759D01*
X117908336Y-125028093D01*
X118107341Y-125028093D01*
X118128291Y-125028097D01*
G36*
X115997742Y-125790094D02*
G01*
X116007682Y-125795897D01*
X116033253Y-125812055D01*
X116072461Y-125837275D01*
X116123312Y-125870264D01*
X116183810Y-125909727D01*
X116251962Y-125954371D01*
X116325774Y-126002903D01*
X116326414Y-126003325D01*
X116400492Y-126051743D01*
X116469283Y-126095999D01*
X116530735Y-126134826D01*
X116582796Y-126166957D01*
X116623415Y-126191125D01*
X116650540Y-126206065D01*
X116662119Y-126210510D01*
X116664906Y-126208846D01*
X116682387Y-126196148D01*
X116713345Y-126172518D01*
X116755651Y-126139617D01*
X116807177Y-126099107D01*
X116865796Y-126052648D01*
X116929377Y-126001902D01*
X117183377Y-125798499D01*
X117186345Y-125939283D01*
X117186559Y-125950116D01*
X117187160Y-126002213D01*
X117186990Y-126046211D01*
X117186101Y-126077757D01*
X117184543Y-126092497D01*
X117177786Y-126099523D01*
X117156304Y-126118041D01*
X117122583Y-126145748D01*
X117079125Y-126180679D01*
X117028436Y-126220871D01*
X116973020Y-126264360D01*
X116915380Y-126309182D01*
X116858022Y-126353374D01*
X116803449Y-126394971D01*
X116754165Y-126432010D01*
X116712675Y-126462528D01*
X116654722Y-126504468D01*
X116921696Y-126507295D01*
X117188669Y-126510123D01*
X117188669Y-126753176D01*
X115992752Y-126753176D01*
X115992752Y-126509759D01*
X116164732Y-126509299D01*
X116336711Y-126508839D01*
X116472989Y-126384907D01*
X116346641Y-126303673D01*
X116292670Y-126268977D01*
X116226823Y-126226655D01*
X116161973Y-126184982D01*
X116106523Y-126149358D01*
X115992752Y-126076278D01*
X115992752Y-125933185D01*
X115992779Y-125918320D01*
X115993301Y-125868000D01*
X115994388Y-125827287D01*
X115995905Y-125800034D01*
X115997720Y-125790093D01*
X115997742Y-125790094D01*
G37*
X115997742Y-125790094D02*
X116007682Y-125795897D01*
X116033253Y-125812055D01*
X116072461Y-125837275D01*
X116123312Y-125870264D01*
X116183810Y-125909727D01*
X116251962Y-125954371D01*
X116325774Y-126002903D01*
X116326414Y-126003325D01*
X116400492Y-126051743D01*
X116469283Y-126095999D01*
X116530735Y-126134826D01*
X116582796Y-126166957D01*
X116623415Y-126191125D01*
X116650540Y-126206065D01*
X116662119Y-126210510D01*
X116664906Y-126208846D01*
X116682387Y-126196148D01*
X116713345Y-126172518D01*
X116755651Y-126139617D01*
X116807177Y-126099107D01*
X116865796Y-126052648D01*
X116929377Y-126001902D01*
X117183377Y-125798499D01*
X117186345Y-125939283D01*
X117186559Y-125950116D01*
X117187160Y-126002213D01*
X117186990Y-126046211D01*
X117186101Y-126077757D01*
X117184543Y-126092497D01*
X117177786Y-126099523D01*
X117156304Y-126118041D01*
X117122583Y-126145748D01*
X117079125Y-126180679D01*
X117028436Y-126220871D01*
X116973020Y-126264360D01*
X116915380Y-126309182D01*
X116858022Y-126353374D01*
X116803449Y-126394971D01*
X116754165Y-126432010D01*
X116712675Y-126462528D01*
X116654722Y-126504468D01*
X116921696Y-126507295D01*
X117188669Y-126510123D01*
X117188669Y-126753176D01*
X115992752Y-126753176D01*
X115992752Y-126509759D01*
X116164732Y-126509299D01*
X116336711Y-126508839D01*
X116472989Y-126384907D01*
X116346641Y-126303673D01*
X116292670Y-126268977D01*
X116226823Y-126226655D01*
X116161973Y-126184982D01*
X116106523Y-126149358D01*
X115992752Y-126076278D01*
X115992752Y-125933185D01*
X115992779Y-125918320D01*
X115993301Y-125868000D01*
X115994388Y-125827287D01*
X115995905Y-125800034D01*
X115997720Y-125790093D01*
X115997742Y-125790094D01*
G36*
X118191100Y-126202610D02*
G01*
X118129650Y-126197608D01*
X118057630Y-126175100D01*
X117997014Y-126134880D01*
X117948394Y-126077374D01*
X117912364Y-126003005D01*
X117900941Y-125952909D01*
X117900649Y-125884313D01*
X117915493Y-125815880D01*
X117930431Y-125784031D01*
X117960676Y-125740314D01*
X117998436Y-125698628D01*
X118038342Y-125664744D01*
X118075023Y-125644434D01*
X118109419Y-125632444D01*
X118109419Y-125678473D01*
X118109391Y-125684218D01*
X118106648Y-125712380D01*
X118095816Y-125730128D01*
X118071799Y-125746698D01*
X118065944Y-125750423D01*
X118030999Y-125784909D01*
X118003983Y-125832001D01*
X117988076Y-125884650D01*
X117986459Y-125935808D01*
X117988225Y-125946456D01*
X117998353Y-125984661D01*
X118011558Y-126015593D01*
X118024275Y-126034067D01*
X118059060Y-126069785D01*
X118099629Y-126098367D01*
X118138368Y-126113912D01*
X118172523Y-126120743D01*
X118174861Y-125917365D01*
X118257586Y-125917365D01*
X118257586Y-126108136D01*
X118286690Y-126092995D01*
X118296149Y-126087732D01*
X118343155Y-126048518D01*
X118375451Y-125997838D01*
X118391687Y-125940078D01*
X118390510Y-125879624D01*
X118370568Y-125820862D01*
X118366952Y-125814439D01*
X118344279Y-125783646D01*
X118316252Y-125755346D01*
X118288488Y-125734630D01*
X118266604Y-125726593D01*
X118263908Y-125735356D01*
X118261378Y-125762123D01*
X118259377Y-125803605D01*
X118258060Y-125856465D01*
X118257586Y-125917365D01*
X118174861Y-125917365D01*
X118178211Y-125626051D01*
X118222762Y-125628012D01*
X118227265Y-125628252D01*
X118294496Y-125642215D01*
X118354044Y-125673199D01*
X118404170Y-125718080D01*
X118443137Y-125773732D01*
X118469208Y-125837030D01*
X118480645Y-125904848D01*
X118475710Y-125974061D01*
X118452666Y-126041543D01*
X118445110Y-126055867D01*
X118398857Y-126118823D01*
X118340354Y-126164728D01*
X118270727Y-126192888D01*
X118257586Y-126194493D01*
X118191100Y-126202610D01*
G37*
X118191100Y-126202610D02*
X118129650Y-126197608D01*
X118057630Y-126175100D01*
X117997014Y-126134880D01*
X117948394Y-126077374D01*
X117912364Y-126003005D01*
X117900941Y-125952909D01*
X117900649Y-125884313D01*
X117915493Y-125815880D01*
X117930431Y-125784031D01*
X117960676Y-125740314D01*
X117998436Y-125698628D01*
X118038342Y-125664744D01*
X118075023Y-125644434D01*
X118109419Y-125632444D01*
X118109419Y-125678473D01*
X118109391Y-125684218D01*
X118106648Y-125712380D01*
X118095816Y-125730128D01*
X118071799Y-125746698D01*
X118065944Y-125750423D01*
X118030999Y-125784909D01*
X118003983Y-125832001D01*
X117988076Y-125884650D01*
X117986459Y-125935808D01*
X117988225Y-125946456D01*
X117998353Y-125984661D01*
X118011558Y-126015593D01*
X118024275Y-126034067D01*
X118059060Y-126069785D01*
X118099629Y-126098367D01*
X118138368Y-126113912D01*
X118172523Y-126120743D01*
X118174861Y-125917365D01*
X118257586Y-125917365D01*
X118257586Y-126108136D01*
X118286690Y-126092995D01*
X118296149Y-126087732D01*
X118343155Y-126048518D01*
X118375451Y-125997838D01*
X118391687Y-125940078D01*
X118390510Y-125879624D01*
X118370568Y-125820862D01*
X118366952Y-125814439D01*
X118344279Y-125783646D01*
X118316252Y-125755346D01*
X118288488Y-125734630D01*
X118266604Y-125726593D01*
X118263908Y-125735356D01*
X118261378Y-125762123D01*
X118259377Y-125803605D01*
X118258060Y-125856465D01*
X118257586Y-125917365D01*
X118174861Y-125917365D01*
X118178211Y-125626051D01*
X118222762Y-125628012D01*
X118227265Y-125628252D01*
X118294496Y-125642215D01*
X118354044Y-125673199D01*
X118404170Y-125718080D01*
X118443137Y-125773732D01*
X118469208Y-125837030D01*
X118480645Y-125904848D01*
X118475710Y-125974061D01*
X118452666Y-126041543D01*
X118445110Y-126055867D01*
X118398857Y-126118823D01*
X118340354Y-126164728D01*
X118270727Y-126192888D01*
X118257586Y-126194493D01*
X118191100Y-126202610D01*
G36*
X117569669Y-126922509D02*
G01*
X117569669Y-126837843D01*
X117770752Y-126837843D01*
X117774976Y-126837842D01*
X117837178Y-126837532D01*
X117891215Y-126836736D01*
X117933837Y-126835543D01*
X117961794Y-126834043D01*
X117971836Y-126832324D01*
X117970855Y-126829280D01*
X117961850Y-126812399D01*
X117946484Y-126787345D01*
X117921560Y-126739492D01*
X117902477Y-126668133D01*
X117902181Y-126640446D01*
X117984408Y-126640446D01*
X117992957Y-126681590D01*
X117995154Y-126688484D01*
X118024160Y-126745623D01*
X118066575Y-126790176D01*
X118118789Y-126820004D01*
X118177193Y-126832969D01*
X118238179Y-126826930D01*
X118279528Y-126811685D01*
X118330287Y-126777257D01*
X118366590Y-126732073D01*
X118387780Y-126679535D01*
X118393200Y-126623045D01*
X118382193Y-126566005D01*
X118354103Y-126511816D01*
X118308273Y-126463880D01*
X118273533Y-126442516D01*
X118218878Y-126427261D01*
X118161850Y-126428515D01*
X118106630Y-126444864D01*
X118057400Y-126474891D01*
X118018343Y-126517183D01*
X117993639Y-126570324D01*
X117986499Y-126600952D01*
X117984408Y-126640446D01*
X117902181Y-126640446D01*
X117901705Y-126595899D01*
X117918300Y-126526212D01*
X117951314Y-126462495D01*
X117999802Y-126408169D01*
X118062816Y-126366657D01*
X118077750Y-126360300D01*
X118132246Y-126346537D01*
X118193424Y-126341546D01*
X118252768Y-126345601D01*
X118301760Y-126358976D01*
X118322129Y-126368859D01*
X118384912Y-126412830D01*
X118433043Y-126468779D01*
X118465288Y-126533550D01*
X118480412Y-126603986D01*
X118477181Y-126676933D01*
X118454362Y-126749233D01*
X118443177Y-126771731D01*
X118428076Y-126797679D01*
X118417424Y-126810712D01*
X118417236Y-126810828D01*
X118405835Y-126823816D01*
X118413338Y-126833831D01*
X118437502Y-126837843D01*
X118444320Y-126837910D01*
X118461204Y-126840965D01*
X118467999Y-126853032D01*
X118469252Y-126880176D01*
X118469252Y-126922509D01*
X118177193Y-126922509D01*
X117569669Y-126922509D01*
G37*
X117569669Y-126922509D02*
X117569669Y-126837843D01*
X117770752Y-126837843D01*
X117774976Y-126837842D01*
X117837178Y-126837532D01*
X117891215Y-126836736D01*
X117933837Y-126835543D01*
X117961794Y-126834043D01*
X117971836Y-126832324D01*
X117970855Y-126829280D01*
X117961850Y-126812399D01*
X117946484Y-126787345D01*
X117921560Y-126739492D01*
X117902477Y-126668133D01*
X117902181Y-126640446D01*
X117984408Y-126640446D01*
X117992957Y-126681590D01*
X117995154Y-126688484D01*
X118024160Y-126745623D01*
X118066575Y-126790176D01*
X118118789Y-126820004D01*
X118177193Y-126832969D01*
X118238179Y-126826930D01*
X118279528Y-126811685D01*
X118330287Y-126777257D01*
X118366590Y-126732073D01*
X118387780Y-126679535D01*
X118393200Y-126623045D01*
X118382193Y-126566005D01*
X118354103Y-126511816D01*
X118308273Y-126463880D01*
X118273533Y-126442516D01*
X118218878Y-126427261D01*
X118161850Y-126428515D01*
X118106630Y-126444864D01*
X118057400Y-126474891D01*
X118018343Y-126517183D01*
X117993639Y-126570324D01*
X117986499Y-126600952D01*
X117984408Y-126640446D01*
X117902181Y-126640446D01*
X117901705Y-126595899D01*
X117918300Y-126526212D01*
X117951314Y-126462495D01*
X117999802Y-126408169D01*
X118062816Y-126366657D01*
X118077750Y-126360300D01*
X118132246Y-126346537D01*
X118193424Y-126341546D01*
X118252768Y-126345601D01*
X118301760Y-126358976D01*
X118322129Y-126368859D01*
X118384912Y-126412830D01*
X118433043Y-126468779D01*
X118465288Y-126533550D01*
X118480412Y-126603986D01*
X118477181Y-126676933D01*
X118454362Y-126749233D01*
X118443177Y-126771731D01*
X118428076Y-126797679D01*
X118417424Y-126810712D01*
X118417236Y-126810828D01*
X118405835Y-126823816D01*
X118413338Y-126833831D01*
X118437502Y-126837843D01*
X118444320Y-126837910D01*
X118461204Y-126840965D01*
X118467999Y-126853032D01*
X118469252Y-126880176D01*
X118469252Y-126922509D01*
X118177193Y-126922509D01*
X117569669Y-126922509D01*
G36*
X118282575Y-127963254D02*
G01*
X118197828Y-127943283D01*
X118118154Y-127906824D01*
X118046520Y-127855854D01*
X117985892Y-127792349D01*
X117939238Y-127718285D01*
X117909524Y-127635638D01*
X117903564Y-127605762D01*
X117899026Y-127526541D01*
X117991597Y-127526541D01*
X117993877Y-127584074D01*
X118003431Y-127629319D01*
X118034369Y-127700885D01*
X118081427Y-127764671D01*
X118141490Y-127816824D01*
X118211447Y-127853490D01*
X118278848Y-127871432D01*
X118356696Y-127874732D01*
X118430559Y-127860475D01*
X118498347Y-127830615D01*
X118557970Y-127787107D01*
X118607341Y-127731907D01*
X118644368Y-127666970D01*
X118666963Y-127594250D01*
X118673037Y-127515704D01*
X118660500Y-127433285D01*
X118648492Y-127398811D01*
X118610772Y-127334413D01*
X118557460Y-127277782D01*
X118492151Y-127232359D01*
X118418441Y-127201586D01*
X118344910Y-127189867D01*
X118267536Y-127196476D01*
X118193036Y-127220811D01*
X118124842Y-127261290D01*
X118066388Y-127316336D01*
X118021108Y-127384369D01*
X118010281Y-127411223D01*
X117997476Y-127465908D01*
X117991597Y-127526541D01*
X117899026Y-127526541D01*
X117898214Y-127512372D01*
X117912330Y-127422278D01*
X117944673Y-127338119D01*
X117994002Y-127262534D01*
X118059079Y-127198162D01*
X118138666Y-127147642D01*
X118154110Y-127140054D01*
X118187487Y-127124717D01*
X118215232Y-127115201D01*
X118244044Y-127110120D01*
X118280624Y-127108087D01*
X118331669Y-127107718D01*
X118353064Y-127107750D01*
X118397862Y-127108585D01*
X118430722Y-127111605D01*
X118458345Y-127118198D01*
X118487428Y-127129748D01*
X118524673Y-127147642D01*
X118599744Y-127193975D01*
X118663249Y-127253543D01*
X118710926Y-127321739D01*
X118743141Y-127396210D01*
X118760261Y-127474606D01*
X118762653Y-127554575D01*
X118750683Y-127633767D01*
X118724719Y-127709829D01*
X118685127Y-127780411D01*
X118632274Y-127843161D01*
X118566526Y-127895728D01*
X118488251Y-127935761D01*
X118397815Y-127960909D01*
X118369428Y-127964760D01*
X118356696Y-127964539D01*
X118282575Y-127963254D01*
G37*
X118282575Y-127963254D02*
X118197828Y-127943283D01*
X118118154Y-127906824D01*
X118046520Y-127855854D01*
X117985892Y-127792349D01*
X117939238Y-127718285D01*
X117909524Y-127635638D01*
X117903564Y-127605762D01*
X117899026Y-127526541D01*
X117991597Y-127526541D01*
X117993877Y-127584074D01*
X118003431Y-127629319D01*
X118034369Y-127700885D01*
X118081427Y-127764671D01*
X118141490Y-127816824D01*
X118211447Y-127853490D01*
X118278848Y-127871432D01*
X118356696Y-127874732D01*
X118430559Y-127860475D01*
X118498347Y-127830615D01*
X118557970Y-127787107D01*
X118607341Y-127731907D01*
X118644368Y-127666970D01*
X118666963Y-127594250D01*
X118673037Y-127515704D01*
X118660500Y-127433285D01*
X118648492Y-127398811D01*
X118610772Y-127334413D01*
X118557460Y-127277782D01*
X118492151Y-127232359D01*
X118418441Y-127201586D01*
X118344910Y-127189867D01*
X118267536Y-127196476D01*
X118193036Y-127220811D01*
X118124842Y-127261290D01*
X118066388Y-127316336D01*
X118021108Y-127384369D01*
X118010281Y-127411223D01*
X117997476Y-127465908D01*
X117991597Y-127526541D01*
X117899026Y-127526541D01*
X117898214Y-127512372D01*
X117912330Y-127422278D01*
X117944673Y-127338119D01*
X117994002Y-127262534D01*
X118059079Y-127198162D01*
X118138666Y-127147642D01*
X118154110Y-127140054D01*
X118187487Y-127124717D01*
X118215232Y-127115201D01*
X118244044Y-127110120D01*
X118280624Y-127108087D01*
X118331669Y-127107718D01*
X118353064Y-127107750D01*
X118397862Y-127108585D01*
X118430722Y-127111605D01*
X118458345Y-127118198D01*
X118487428Y-127129748D01*
X118524673Y-127147642D01*
X118599744Y-127193975D01*
X118663249Y-127253543D01*
X118710926Y-127321739D01*
X118743141Y-127396210D01*
X118760261Y-127474606D01*
X118762653Y-127554575D01*
X118750683Y-127633767D01*
X118724719Y-127709829D01*
X118685127Y-127780411D01*
X118632274Y-127843161D01*
X118566526Y-127895728D01*
X118488251Y-127935761D01*
X118397815Y-127960909D01*
X118369428Y-127964760D01*
X118356696Y-127964539D01*
X118282575Y-127963254D01*
G36*
X117514636Y-123559126D02*
G01*
X117516702Y-123562788D01*
X117520186Y-123579382D01*
X117522910Y-123609644D01*
X117524931Y-123655073D01*
X117526304Y-123717167D01*
X117527087Y-123797426D01*
X117527336Y-123897348D01*
X117527336Y-124222869D01*
X117609357Y-124225960D01*
X117624744Y-124226581D01*
X117660343Y-124228892D01*
X117680449Y-124232755D01*
X117689362Y-124239440D01*
X117691377Y-124250218D01*
X117691220Y-124254195D01*
X117687463Y-124263523D01*
X117675431Y-124269165D01*
X117650828Y-124272392D01*
X117609357Y-124274476D01*
X117527336Y-124277567D01*
X117527336Y-126084755D01*
X117527324Y-126233305D01*
X117527250Y-126461748D01*
X117527105Y-126670211D01*
X117526882Y-126859433D01*
X117526578Y-127030154D01*
X117526185Y-127183112D01*
X117525701Y-127319046D01*
X117525119Y-127438695D01*
X117524434Y-127542798D01*
X117523641Y-127632095D01*
X117522735Y-127707323D01*
X117521711Y-127769222D01*
X117520563Y-127818531D01*
X117519287Y-127855988D01*
X117517877Y-127882333D01*
X117516329Y-127898305D01*
X117514636Y-127904643D01*
X117493873Y-127915309D01*
X117466040Y-127915396D01*
X117444229Y-127903348D01*
X117442681Y-127900398D01*
X117438188Y-127877961D01*
X117434416Y-127837297D01*
X117431532Y-127780635D01*
X117429704Y-127710202D01*
X117426794Y-127531051D01*
X117333509Y-127527983D01*
X117291534Y-127526361D01*
X117263166Y-127523989D01*
X117248344Y-127519833D01*
X117243121Y-127512732D01*
X117243551Y-127501525D01*
X117245606Y-127492517D01*
X117252238Y-127484473D01*
X117267255Y-127479668D01*
X117294916Y-127476928D01*
X117339482Y-127475077D01*
X117432086Y-127472019D01*
X117432086Y-125521922D01*
X117432088Y-125452041D01*
X117432135Y-125207098D01*
X117432246Y-124982418D01*
X117432426Y-124777286D01*
X117432680Y-124590990D01*
X117433013Y-124422819D01*
X117433428Y-124272059D01*
X117433931Y-124137999D01*
X117434525Y-124019925D01*
X117435217Y-123917126D01*
X117436010Y-123828889D01*
X117436909Y-123754502D01*
X117437918Y-123693252D01*
X117439043Y-123644427D01*
X117440288Y-123607314D01*
X117441656Y-123581201D01*
X117443154Y-123565376D01*
X117444786Y-123559126D01*
X117461774Y-123549467D01*
X117490458Y-123547777D01*
X117514636Y-123559126D01*
G37*
X117514636Y-123559126D02*
X117516702Y-123562788D01*
X117520186Y-123579382D01*
X117522910Y-123609644D01*
X117524931Y-123655073D01*
X117526304Y-123717167D01*
X117527087Y-123797426D01*
X117527336Y-123897348D01*
X117527336Y-124222869D01*
X117609357Y-124225960D01*
X117624744Y-124226581D01*
X117660343Y-124228892D01*
X117680449Y-124232755D01*
X117689362Y-124239440D01*
X117691377Y-124250218D01*
X117691220Y-124254195D01*
X117687463Y-124263523D01*
X117675431Y-124269165D01*
X117650828Y-124272392D01*
X117609357Y-124274476D01*
X117527336Y-124277567D01*
X117527336Y-126084755D01*
X117527324Y-126233305D01*
X117527250Y-126461748D01*
X117527105Y-126670211D01*
X117526882Y-126859433D01*
X117526578Y-127030154D01*
X117526185Y-127183112D01*
X117525701Y-127319046D01*
X117525119Y-127438695D01*
X117524434Y-127542798D01*
X117523641Y-127632095D01*
X117522735Y-127707323D01*
X117521711Y-127769222D01*
X117520563Y-127818531D01*
X117519287Y-127855988D01*
X117517877Y-127882333D01*
X117516329Y-127898305D01*
X117514636Y-127904643D01*
X117493873Y-127915309D01*
X117466040Y-127915396D01*
X117444229Y-127903348D01*
X117442681Y-127900398D01*
X117438188Y-127877961D01*
X117434416Y-127837297D01*
X117431532Y-127780635D01*
X117429704Y-127710202D01*
X117426794Y-127531051D01*
X117333509Y-127527983D01*
X117291534Y-127526361D01*
X117263166Y-127523989D01*
X117248344Y-127519833D01*
X117243121Y-127512732D01*
X117243551Y-127501525D01*
X117245606Y-127492517D01*
X117252238Y-127484473D01*
X117267255Y-127479668D01*
X117294916Y-127476928D01*
X117339482Y-127475077D01*
X117432086Y-127472019D01*
X117432086Y-125521922D01*
X117432088Y-125452041D01*
X117432135Y-125207098D01*
X117432246Y-124982418D01*
X117432426Y-124777286D01*
X117432680Y-124590990D01*
X117433013Y-124422819D01*
X117433428Y-124272059D01*
X117433931Y-124137999D01*
X117434525Y-124019925D01*
X117435217Y-123917126D01*
X117436010Y-123828889D01*
X117436909Y-123754502D01*
X117437918Y-123693252D01*
X117439043Y-123644427D01*
X117440288Y-123607314D01*
X117441656Y-123581201D01*
X117443154Y-123565376D01*
X117444786Y-123559126D01*
X117461774Y-123549467D01*
X117490458Y-123547777D01*
X117514636Y-123559126D01*
G36*
X115998874Y-123568437D02*
G01*
X116015316Y-123577569D01*
X116046802Y-123595679D01*
X116091076Y-123621452D01*
X116145887Y-123653573D01*
X116208981Y-123690727D01*
X116278104Y-123731599D01*
X116303306Y-123746525D01*
X116371912Y-123787106D01*
X116434519Y-123824064D01*
X116488686Y-123855965D01*
X116531974Y-123881372D01*
X116561940Y-123898849D01*
X116576144Y-123906960D01*
X116577273Y-123907504D01*
X116586073Y-123908831D01*
X116599585Y-123906047D01*
X116619720Y-123898175D01*
X116648395Y-123884235D01*
X116687523Y-123863250D01*
X116739019Y-123834242D01*
X116804795Y-123796233D01*
X116886768Y-123748245D01*
X116925046Y-123725785D01*
X116993109Y-123686023D01*
X117054099Y-123650616D01*
X117105787Y-123620846D01*
X117145942Y-123597995D01*
X117172333Y-123583345D01*
X117182730Y-123578176D01*
X117183275Y-123578677D01*
X117185327Y-123592719D01*
X117186587Y-123623162D01*
X117186955Y-123666107D01*
X117186331Y-123717653D01*
X117183377Y-123857130D01*
X116774765Y-124078302D01*
X116981681Y-124190718D01*
X117188598Y-124303134D01*
X117188633Y-124444369D01*
X117188669Y-124585604D01*
X117138398Y-124556462D01*
X117120853Y-124546238D01*
X117085340Y-124525456D01*
X117037215Y-124497239D01*
X116979569Y-124463402D01*
X116915494Y-124425759D01*
X116848083Y-124386123D01*
X116787431Y-124350685D01*
X116727884Y-124316395D01*
X116676370Y-124287256D01*
X116635429Y-124264685D01*
X116607599Y-124250102D01*
X116595419Y-124244926D01*
X116592872Y-124245834D01*
X116575005Y-124254997D01*
X116542724Y-124272765D01*
X116498707Y-124297582D01*
X116445631Y-124327892D01*
X116386175Y-124362141D01*
X116323016Y-124398771D01*
X116258832Y-124436227D01*
X116196300Y-124472952D01*
X116138099Y-124507392D01*
X116086906Y-124537990D01*
X116045400Y-124563191D01*
X116016257Y-124581437D01*
X115992137Y-124597014D01*
X115995090Y-124451493D01*
X115998044Y-124305972D01*
X116201974Y-124193433D01*
X116260275Y-124160974D01*
X116315919Y-124129059D01*
X116355376Y-124104994D01*
X116380122Y-124087821D01*
X116391635Y-124076578D01*
X116391392Y-124070306D01*
X116389772Y-124069220D01*
X116372417Y-124058911D01*
X116340229Y-124040553D01*
X116296222Y-124015839D01*
X116243413Y-123986467D01*
X116184817Y-123954133D01*
X115992752Y-123848548D01*
X115992752Y-123708070D01*
X115992770Y-123695440D01*
X115993204Y-123645340D01*
X115994135Y-123604740D01*
X115995445Y-123577528D01*
X115997016Y-123567593D01*
X115998874Y-123568437D01*
G37*
X115998874Y-123568437D02*
X116015316Y-123577569D01*
X116046802Y-123595679D01*
X116091076Y-123621452D01*
X116145887Y-123653573D01*
X116208981Y-123690727D01*
X116278104Y-123731599D01*
X116303306Y-123746525D01*
X116371912Y-123787106D01*
X116434519Y-123824064D01*
X116488686Y-123855965D01*
X116531974Y-123881372D01*
X116561940Y-123898849D01*
X116576144Y-123906960D01*
X116577273Y-123907504D01*
X116586073Y-123908831D01*
X116599585Y-123906047D01*
X116619720Y-123898175D01*
X116648395Y-123884235D01*
X116687523Y-123863250D01*
X116739019Y-123834242D01*
X116804795Y-123796233D01*
X116886768Y-123748245D01*
X116925046Y-123725785D01*
X116993109Y-123686023D01*
X117054099Y-123650616D01*
X117105787Y-123620846D01*
X117145942Y-123597995D01*
X117172333Y-123583345D01*
X117182730Y-123578176D01*
X117183275Y-123578677D01*
X117185327Y-123592719D01*
X117186587Y-123623162D01*
X117186955Y-123666107D01*
X117186331Y-123717653D01*
X117183377Y-123857130D01*
X116774765Y-124078302D01*
X116981681Y-124190718D01*
X117188598Y-124303134D01*
X117188633Y-124444369D01*
X117188669Y-124585604D01*
X117138398Y-124556462D01*
X117120853Y-124546238D01*
X117085340Y-124525456D01*
X117037215Y-124497239D01*
X116979569Y-124463402D01*
X116915494Y-124425759D01*
X116848083Y-124386123D01*
X116787431Y-124350685D01*
X116727884Y-124316395D01*
X116676370Y-124287256D01*
X116635429Y-124264685D01*
X116607599Y-124250102D01*
X116595419Y-124244926D01*
X116592872Y-124245834D01*
X116575005Y-124254997D01*
X116542724Y-124272765D01*
X116498707Y-124297582D01*
X116445631Y-124327892D01*
X116386175Y-124362141D01*
X116323016Y-124398771D01*
X116258832Y-124436227D01*
X116196300Y-124472952D01*
X116138099Y-124507392D01*
X116086906Y-124537990D01*
X116045400Y-124563191D01*
X116016257Y-124581437D01*
X115992137Y-124597014D01*
X115995090Y-124451493D01*
X115998044Y-124305972D01*
X116201974Y-124193433D01*
X116260275Y-124160974D01*
X116315919Y-124129059D01*
X116355376Y-124104994D01*
X116380122Y-124087821D01*
X116391635Y-124076578D01*
X116391392Y-124070306D01*
X116389772Y-124069220D01*
X116372417Y-124058911D01*
X116340229Y-124040553D01*
X116296222Y-124015839D01*
X116243413Y-123986467D01*
X116184817Y-123954133D01*
X115992752Y-123848548D01*
X115992752Y-123708070D01*
X115992770Y-123695440D01*
X115993204Y-123645340D01*
X115994135Y-123604740D01*
X115995445Y-123577528D01*
X115997016Y-123567593D01*
X115998874Y-123568437D01*
G36*
X118495657Y-123716513D02*
G01*
X118517308Y-123727276D01*
X118529152Y-123752860D01*
X118532752Y-123795899D01*
X118532752Y-123850638D01*
X118573053Y-123857082D01*
X118613318Y-123871378D01*
X118647462Y-123902628D01*
X118666204Y-123946456D01*
X118666683Y-123948840D01*
X118671596Y-123966868D01*
X118680681Y-123976241D01*
X118699603Y-123979789D01*
X118734026Y-123980343D01*
X118769590Y-123981896D01*
X118793756Y-123989230D01*
X118805096Y-124005478D01*
X118807919Y-124033753D01*
X118807832Y-124036188D01*
X118796358Y-124057764D01*
X118766296Y-124071057D01*
X118718657Y-124075593D01*
X118704669Y-124075711D01*
X118681838Y-124078060D01*
X118672272Y-124085811D01*
X118670336Y-124102051D01*
X118671093Y-124114312D01*
X118677165Y-124123857D01*
X118693853Y-124127761D01*
X118726427Y-124128509D01*
X118746410Y-124129060D01*
X118782383Y-124135593D01*
X118801985Y-124150759D01*
X118807919Y-124176134D01*
X118806977Y-124187813D01*
X118795798Y-124208836D01*
X118769848Y-124220292D01*
X118726427Y-124223759D01*
X118700434Y-124224117D01*
X118680199Y-124226981D01*
X118671923Y-124234853D01*
X118670336Y-124250218D01*
X118670552Y-124257877D01*
X118674841Y-124270378D01*
X118688998Y-124275616D01*
X118718657Y-124276676D01*
X118730027Y-124276861D01*
X118773903Y-124283127D01*
X118799566Y-124298654D01*
X118807919Y-124323918D01*
X118807542Y-124331819D01*
X118796076Y-124360360D01*
X118768004Y-124377067D01*
X118722497Y-124382509D01*
X118711473Y-124382584D01*
X118685134Y-124384585D01*
X118673164Y-124390909D01*
X118670336Y-124403676D01*
X118670369Y-124405702D01*
X118674321Y-124417902D01*
X118688630Y-124423499D01*
X118718657Y-124424843D01*
X118730027Y-124425027D01*
X118773903Y-124431294D01*
X118799566Y-124446820D01*
X118807919Y-124472084D01*
X118807679Y-124478396D01*
X118796699Y-124507714D01*
X118768943Y-124525004D01*
X118723819Y-124530676D01*
X118703864Y-124530922D01*
X118682332Y-124533978D01*
X118672004Y-124543408D01*
X118666568Y-124562745D01*
X118662819Y-124576037D01*
X118640663Y-124611945D01*
X118607060Y-124637414D01*
X118568249Y-124647093D01*
X118532752Y-124647093D01*
X118532752Y-124710934D01*
X118532354Y-124738146D01*
X118529511Y-124762945D01*
X118522323Y-124776221D01*
X118508940Y-124783627D01*
X118508254Y-124783880D01*
X118476132Y-124789632D01*
X118454266Y-124778701D01*
X118441747Y-124750053D01*
X118437665Y-124702655D01*
X118437254Y-124677537D01*
X118434361Y-124657095D01*
X118426470Y-124648711D01*
X118411044Y-124647093D01*
X118397935Y-124648023D01*
X118388939Y-124654526D01*
X118385279Y-124671807D01*
X118384586Y-124705057D01*
X118384459Y-124718930D01*
X118381877Y-124748746D01*
X118374131Y-124766754D01*
X118358837Y-124779893D01*
X118357858Y-124780529D01*
X118333660Y-124790792D01*
X118311738Y-124785337D01*
X118310603Y-124784711D01*
X118297969Y-124772556D01*
X118290812Y-124750583D01*
X118287215Y-124713148D01*
X118285636Y-124689113D01*
X118281660Y-124664955D01*
X118273933Y-124653347D01*
X118260232Y-124649003D01*
X118248673Y-124648338D01*
X118240484Y-124653866D01*
X118237090Y-124670922D01*
X118236419Y-124704321D01*
X118236268Y-124719637D01*
X118233626Y-124749085D01*
X118225874Y-124766879D01*
X118210671Y-124779893D01*
X118209691Y-124780529D01*
X118185494Y-124790792D01*
X118163571Y-124785337D01*
X118162436Y-124784711D01*
X118149802Y-124772556D01*
X118142645Y-124750583D01*
X118139049Y-124713148D01*
X118137469Y-124689113D01*
X118133493Y-124664955D01*
X118125767Y-124653347D01*
X118112065Y-124649003D01*
X118102620Y-124648198D01*
X118093065Y-124652373D01*
X118089063Y-124667738D01*
X118088252Y-124699273D01*
X118086717Y-124721995D01*
X118076316Y-124759528D01*
X118058315Y-124785534D01*
X118035336Y-124795259D01*
X118022898Y-124792489D01*
X118002211Y-124773687D01*
X117987817Y-124741240D01*
X117982419Y-124700009D01*
X117981303Y-124671098D01*
X117976322Y-124652405D01*
X117966172Y-124647093D01*
X117961704Y-124646867D01*
X117931047Y-124634693D01*
X117903725Y-124607870D01*
X117885569Y-124571841D01*
X117880071Y-124554593D01*
X117870686Y-124538086D01*
X117854506Y-124531724D01*
X117824349Y-124530676D01*
X117812346Y-124530233D01*
X117777317Y-124524506D01*
X117751941Y-124514201D01*
X117735086Y-124497621D01*
X117730033Y-124472217D01*
X117745934Y-124444197D01*
X117754604Y-124436738D01*
X117779775Y-124427577D01*
X117820018Y-124424843D01*
X117846104Y-124424484D01*
X117866533Y-124421650D01*
X117874946Y-124413920D01*
X117876586Y-124398890D01*
X117876585Y-124398388D01*
X117874936Y-124384243D01*
X117866808Y-124376221D01*
X117847308Y-124372132D01*
X117811540Y-124369785D01*
X117808918Y-124369652D01*
X117763750Y-124363971D01*
X117737631Y-124351984D01*
X117729102Y-124332407D01*
X117736702Y-124303956D01*
X117743970Y-124290750D01*
X117755846Y-124281490D01*
X117776797Y-124277519D01*
X117812859Y-124276676D01*
X117815483Y-124276675D01*
X117849658Y-124276030D01*
X117867926Y-124272779D01*
X117875248Y-124264862D01*
X117876586Y-124250218D01*
X117875705Y-124237333D01*
X117869319Y-124228192D01*
X117852200Y-124224468D01*
X117819133Y-124223759D01*
X117811177Y-124223656D01*
X117765195Y-124216959D01*
X117737612Y-124199810D01*
X117728419Y-124172204D01*
X117729538Y-124161264D01*
X117741816Y-124142261D01*
X117769571Y-124131746D01*
X117815202Y-124128509D01*
X117848767Y-124127956D01*
X117867589Y-124124813D01*
X117875179Y-124116904D01*
X117876586Y-124102051D01*
X117875705Y-124089166D01*
X117869319Y-124080025D01*
X117852200Y-124076301D01*
X117819133Y-124075593D01*
X117811177Y-124075489D01*
X117765195Y-124068793D01*
X117737612Y-124051644D01*
X117728419Y-124024037D01*
X117729355Y-124013965D01*
X117741260Y-123994491D01*
X117768704Y-123983681D01*
X117814025Y-123980343D01*
X117818599Y-123980342D01*
X117850765Y-123979620D01*
X117868069Y-123975495D01*
X117876204Y-123964956D01*
X117880862Y-123944994D01*
X117891126Y-123916255D01*
X117919594Y-123880963D01*
X117958607Y-123859138D01*
X117958686Y-123859114D01*
X117973739Y-123851113D01*
X117980716Y-123834996D01*
X117982419Y-123804309D01*
X117982456Y-123799259D01*
X117988026Y-123752731D01*
X118003107Y-123724999D01*
X118027771Y-123715922D01*
X118046190Y-123717577D01*
X118067317Y-123728448D01*
X118079644Y-123752723D01*
X118085966Y-123794160D01*
X118088494Y-123820093D01*
X118093170Y-123841949D01*
X118101487Y-123851340D01*
X118116021Y-123853343D01*
X118126934Y-123852634D01*
X118136411Y-123846579D01*
X118140372Y-123829867D01*
X118141169Y-123797251D01*
X118141720Y-123777268D01*
X118148253Y-123741296D01*
X118163418Y-123721693D01*
X118188794Y-123715759D01*
X118200473Y-123716701D01*
X118221495Y-123727881D01*
X118232951Y-123753830D01*
X118236419Y-123797251D01*
X118236776Y-123823245D01*
X118239641Y-123843479D01*
X118247512Y-123851755D01*
X118262877Y-123853343D01*
X118275139Y-123852585D01*
X118284683Y-123846513D01*
X118288587Y-123829825D01*
X118289336Y-123797251D01*
X118290048Y-123774613D01*
X118296931Y-123739981D01*
X118312564Y-123721331D01*
X118338705Y-123715759D01*
X118342630Y-123715922D01*
X118366096Y-123727268D01*
X118380002Y-123756816D01*
X118384586Y-123805022D01*
X118384704Y-123819009D01*
X118387053Y-123841841D01*
X118394804Y-123851407D01*
X118411044Y-123853343D01*
X118423305Y-123852585D01*
X118432850Y-123846513D01*
X118436754Y-123829825D01*
X118437502Y-123797251D01*
X118438053Y-123777268D01*
X118444586Y-123741296D01*
X118459752Y-123721693D01*
X118485127Y-123715759D01*
X118495657Y-123716513D01*
G37*
X118495657Y-123716513D02*
X118517308Y-123727276D01*
X118529152Y-123752860D01*
X118532752Y-123795899D01*
X118532752Y-123850638D01*
X118573053Y-123857082D01*
X118613318Y-123871378D01*
X118647462Y-123902628D01*
X118666204Y-123946456D01*
X118666683Y-123948840D01*
X118671596Y-123966868D01*
X118680681Y-123976241D01*
X118699603Y-123979789D01*
X118734026Y-123980343D01*
X118769590Y-123981896D01*
X118793756Y-123989230D01*
X118805096Y-124005478D01*
X118807919Y-124033753D01*
X118807832Y-124036188D01*
X118796358Y-124057764D01*
X118766296Y-124071057D01*
X118718657Y-124075593D01*
X118704669Y-124075711D01*
X118681838Y-124078060D01*
X118672272Y-124085811D01*
X118670336Y-124102051D01*
X118671093Y-124114312D01*
X118677165Y-124123857D01*
X118693853Y-124127761D01*
X118726427Y-124128509D01*
X118746410Y-124129060D01*
X118782383Y-124135593D01*
X118801985Y-124150759D01*
X118807919Y-124176134D01*
X118806977Y-124187813D01*
X118795798Y-124208836D01*
X118769848Y-124220292D01*
X118726427Y-124223759D01*
X118700434Y-124224117D01*
X118680199Y-124226981D01*
X118671923Y-124234853D01*
X118670336Y-124250218D01*
X118670552Y-124257877D01*
X118674841Y-124270378D01*
X118688998Y-124275616D01*
X118718657Y-124276676D01*
X118730027Y-124276861D01*
X118773903Y-124283127D01*
X118799566Y-124298654D01*
X118807919Y-124323918D01*
X118807542Y-124331819D01*
X118796076Y-124360360D01*
X118768004Y-124377067D01*
X118722497Y-124382509D01*
X118711473Y-124382584D01*
X118685134Y-124384585D01*
X118673164Y-124390909D01*
X118670336Y-124403676D01*
X118670369Y-124405702D01*
X118674321Y-124417902D01*
X118688630Y-124423499D01*
X118718657Y-124424843D01*
X118730027Y-124425027D01*
X118773903Y-124431294D01*
X118799566Y-124446820D01*
X118807919Y-124472084D01*
X118807679Y-124478396D01*
X118796699Y-124507714D01*
X118768943Y-124525004D01*
X118723819Y-124530676D01*
X118703864Y-124530922D01*
X118682332Y-124533978D01*
X118672004Y-124543408D01*
X118666568Y-124562745D01*
X118662819Y-124576037D01*
X118640663Y-124611945D01*
X118607060Y-124637414D01*
X118568249Y-124647093D01*
X118532752Y-124647093D01*
X118532752Y-124710934D01*
X118532354Y-124738146D01*
X118529511Y-124762945D01*
X118522323Y-124776221D01*
X118508940Y-124783627D01*
X118508254Y-124783880D01*
X118476132Y-124789632D01*
X118454266Y-124778701D01*
X118441747Y-124750053D01*
X118437665Y-124702655D01*
X118437254Y-124677537D01*
X118434361Y-124657095D01*
X118426470Y-124648711D01*
X118411044Y-124647093D01*
X118397935Y-124648023D01*
X118388939Y-124654526D01*
X118385279Y-124671807D01*
X118384586Y-124705057D01*
X118384459Y-124718930D01*
X118381877Y-124748746D01*
X118374131Y-124766754D01*
X118358837Y-124779893D01*
X118357858Y-124780529D01*
X118333660Y-124790792D01*
X118311738Y-124785337D01*
X118310603Y-124784711D01*
X118297969Y-124772556D01*
X118290812Y-124750583D01*
X118287215Y-124713148D01*
X118285636Y-124689113D01*
X118281660Y-124664955D01*
X118273933Y-124653347D01*
X118260232Y-124649003D01*
X118248673Y-124648338D01*
X118240484Y-124653866D01*
X118237090Y-124670922D01*
X118236419Y-124704321D01*
X118236268Y-124719637D01*
X118233626Y-124749085D01*
X118225874Y-124766879D01*
X118210671Y-124779893D01*
X118209691Y-124780529D01*
X118185494Y-124790792D01*
X118163571Y-124785337D01*
X118162436Y-124784711D01*
X118149802Y-124772556D01*
X118142645Y-124750583D01*
X118139049Y-124713148D01*
X118137469Y-124689113D01*
X118133493Y-124664955D01*
X118125767Y-124653347D01*
X118112065Y-124649003D01*
X118102620Y-124648198D01*
X118093065Y-124652373D01*
X118089063Y-124667738D01*
X118088252Y-124699273D01*
X118086717Y-124721995D01*
X118076316Y-124759528D01*
X118058315Y-124785534D01*
X118035336Y-124795259D01*
X118022898Y-124792489D01*
X118002211Y-124773687D01*
X117987817Y-124741240D01*
X117982419Y-124700009D01*
X117981303Y-124671098D01*
X117976322Y-124652405D01*
X117966172Y-124647093D01*
X117961704Y-124646867D01*
X117931047Y-124634693D01*
X117903725Y-124607870D01*
X117885569Y-124571841D01*
X117880071Y-124554593D01*
X117870686Y-124538086D01*
X117854506Y-124531724D01*
X117824349Y-124530676D01*
X117812346Y-124530233D01*
X117777317Y-124524506D01*
X117751941Y-124514201D01*
X117735086Y-124497621D01*
X117730033Y-124472217D01*
X117745934Y-124444197D01*
X117754604Y-124436738D01*
X117779775Y-124427577D01*
X117820018Y-124424843D01*
X117846104Y-124424484D01*
X117866533Y-124421650D01*
X117874946Y-124413920D01*
X117876586Y-124398890D01*
X117876585Y-124398388D01*
X117874936Y-124384243D01*
X117866808Y-124376221D01*
X117847308Y-124372132D01*
X117811540Y-124369785D01*
X117808918Y-124369652D01*
X117763750Y-124363971D01*
X117737631Y-124351984D01*
X117729102Y-124332407D01*
X117736702Y-124303956D01*
X117743970Y-124290750D01*
X117755846Y-124281490D01*
X117776797Y-124277519D01*
X117812859Y-124276676D01*
X117815483Y-124276675D01*
X117849658Y-124276030D01*
X117867926Y-124272779D01*
X117875248Y-124264862D01*
X117876586Y-124250218D01*
X117875705Y-124237333D01*
X117869319Y-124228192D01*
X117852200Y-124224468D01*
X117819133Y-124223759D01*
X117811177Y-124223656D01*
X117765195Y-124216959D01*
X117737612Y-124199810D01*
X117728419Y-124172204D01*
X117729538Y-124161264D01*
X117741816Y-124142261D01*
X117769571Y-124131746D01*
X117815202Y-124128509D01*
X117848767Y-124127956D01*
X117867589Y-124124813D01*
X117875179Y-124116904D01*
X117876586Y-124102051D01*
X117875705Y-124089166D01*
X117869319Y-124080025D01*
X117852200Y-124076301D01*
X117819133Y-124075593D01*
X117811177Y-124075489D01*
X117765195Y-124068793D01*
X117737612Y-124051644D01*
X117728419Y-124024037D01*
X117729355Y-124013965D01*
X117741260Y-123994491D01*
X117768704Y-123983681D01*
X117814025Y-123980343D01*
X117818599Y-123980342D01*
X117850765Y-123979620D01*
X117868069Y-123975495D01*
X117876204Y-123964956D01*
X117880862Y-123944994D01*
X117891126Y-123916255D01*
X117919594Y-123880963D01*
X117958607Y-123859138D01*
X117958686Y-123859114D01*
X117973739Y-123851113D01*
X117980716Y-123834996D01*
X117982419Y-123804309D01*
X117982456Y-123799259D01*
X117988026Y-123752731D01*
X118003107Y-123724999D01*
X118027771Y-123715922D01*
X118046190Y-123717577D01*
X118067317Y-123728448D01*
X118079644Y-123752723D01*
X118085966Y-123794160D01*
X118088494Y-123820093D01*
X118093170Y-123841949D01*
X118101487Y-123851340D01*
X118116021Y-123853343D01*
X118126934Y-123852634D01*
X118136411Y-123846579D01*
X118140372Y-123829867D01*
X118141169Y-123797251D01*
X118141720Y-123777268D01*
X118148253Y-123741296D01*
X118163418Y-123721693D01*
X118188794Y-123715759D01*
X118200473Y-123716701D01*
X118221495Y-123727881D01*
X118232951Y-123753830D01*
X118236419Y-123797251D01*
X118236776Y-123823245D01*
X118239641Y-123843479D01*
X118247512Y-123851755D01*
X118262877Y-123853343D01*
X118275139Y-123852585D01*
X118284683Y-123846513D01*
X118288587Y-123829825D01*
X118289336Y-123797251D01*
X118290048Y-123774613D01*
X118296931Y-123739981D01*
X118312564Y-123721331D01*
X118338705Y-123715759D01*
X118342630Y-123715922D01*
X118366096Y-123727268D01*
X118380002Y-123756816D01*
X118384586Y-123805022D01*
X118384704Y-123819009D01*
X118387053Y-123841841D01*
X118394804Y-123851407D01*
X118411044Y-123853343D01*
X118423305Y-123852585D01*
X118432850Y-123846513D01*
X118436754Y-123829825D01*
X118437502Y-123797251D01*
X118438053Y-123777268D01*
X118444586Y-123741296D01*
X118459752Y-123721693D01*
X118485127Y-123715759D01*
X118495657Y-123716513D01*
G36*
X116851391Y-126954867D02*
G01*
X116880186Y-126967864D01*
X116897278Y-126998069D01*
X116902919Y-127045858D01*
X116903402Y-127076729D01*
X116906793Y-127094527D01*
X116915982Y-127101332D01*
X116933857Y-127102426D01*
X116959449Y-127107580D01*
X116992693Y-127126733D01*
X117019205Y-127154467D01*
X117031899Y-127184827D01*
X117034265Y-127197981D01*
X117041973Y-127208985D01*
X117059865Y-127214963D01*
X117093419Y-127218954D01*
X117100123Y-127219597D01*
X117140354Y-127225305D01*
X117164037Y-127234238D01*
X117175254Y-127248954D01*
X117178086Y-127272012D01*
X117176633Y-127286552D01*
X117163551Y-127308613D01*
X117135028Y-127320881D01*
X117088823Y-127324676D01*
X117074836Y-127324794D01*
X117052005Y-127327143D01*
X117042439Y-127334895D01*
X117040502Y-127351134D01*
X117041260Y-127363396D01*
X117047332Y-127372940D01*
X117064020Y-127376844D01*
X117096594Y-127377593D01*
X117125708Y-127378806D01*
X117157030Y-127386652D01*
X117173377Y-127403723D01*
X117178086Y-127432254D01*
X117176945Y-127444590D01*
X117164091Y-127466916D01*
X117135371Y-127479486D01*
X117088823Y-127483426D01*
X117074836Y-127483544D01*
X117052005Y-127485893D01*
X117042439Y-127493645D01*
X117040502Y-127509884D01*
X117041260Y-127522146D01*
X117047332Y-127531690D01*
X117064020Y-127535594D01*
X117096594Y-127536343D01*
X117115755Y-127536849D01*
X117152169Y-127543289D01*
X117172030Y-127558320D01*
X117177924Y-127583439D01*
X117176454Y-127599943D01*
X117165666Y-127621049D01*
X117141295Y-127633486D01*
X117099685Y-127639889D01*
X117086415Y-127641095D01*
X117057763Y-127645591D01*
X117044031Y-127652786D01*
X117040502Y-127664653D01*
X117040504Y-127665042D01*
X117044225Y-127677282D01*
X117058598Y-127683059D01*
X117088823Y-127684509D01*
X117110342Y-127685163D01*
X117149286Y-127692532D01*
X117171213Y-127708997D01*
X117178086Y-127735682D01*
X117176348Y-127754876D01*
X117164759Y-127776074D01*
X117139419Y-127787149D01*
X117097002Y-127790343D01*
X117041318Y-127790343D01*
X117029789Y-127833159D01*
X117025893Y-127844758D01*
X117001859Y-127881649D01*
X116966743Y-127907514D01*
X116926732Y-127917303D01*
X116921764Y-127917443D01*
X116909472Y-127921651D01*
X116904102Y-127935875D01*
X116902919Y-127965664D01*
X116902265Y-127987183D01*
X116894896Y-128026127D01*
X116878432Y-128048054D01*
X116851747Y-128054926D01*
X116832218Y-128053117D01*
X116811209Y-128041420D01*
X116800244Y-128015970D01*
X116797086Y-127973434D01*
X116796729Y-127947441D01*
X116793864Y-127927206D01*
X116785993Y-127918930D01*
X116770627Y-127917343D01*
X116758366Y-127918100D01*
X116748822Y-127924172D01*
X116744918Y-127940860D01*
X116744169Y-127973434D01*
X116743121Y-128000636D01*
X116735580Y-128032941D01*
X116718987Y-128049966D01*
X116691252Y-128054926D01*
X116673589Y-128053312D01*
X116652612Y-128041699D01*
X116641557Y-128016145D01*
X116638336Y-127973434D01*
X116638169Y-127956221D01*
X116635939Y-127931229D01*
X116629580Y-127919966D01*
X116617169Y-127917343D01*
X116605241Y-127919572D01*
X116597841Y-127931567D01*
X116596002Y-127958987D01*
X116594443Y-127992979D01*
X116585573Y-128028969D01*
X116567621Y-128048831D01*
X116539188Y-128054926D01*
X116533212Y-128054835D01*
X116510894Y-128050842D01*
X116497830Y-128037975D01*
X116491697Y-128012178D01*
X116490169Y-127969394D01*
X116489946Y-127949487D01*
X116487331Y-127927993D01*
X116479510Y-127919097D01*
X116463711Y-127917343D01*
X116456052Y-127917559D01*
X116443551Y-127921848D01*
X116438313Y-127936005D01*
X116437252Y-127965664D01*
X116436599Y-127987183D01*
X116429230Y-128026127D01*
X116412765Y-128048054D01*
X116386080Y-128054926D01*
X116368268Y-128053464D01*
X116346290Y-128042312D01*
X116334760Y-128017409D01*
X116331419Y-127975471D01*
X116330941Y-127948758D01*
X116326757Y-127927952D01*
X116314742Y-127915293D01*
X116290775Y-127903484D01*
X116263440Y-127886987D01*
X116235530Y-127852871D01*
X116225586Y-127811012D01*
X116224852Y-127803464D01*
X116218015Y-127795044D01*
X116199894Y-127791236D01*
X116165565Y-127790343D01*
X116155667Y-127790227D01*
X116112274Y-127785322D01*
X116086190Y-127772828D01*
X116085519Y-127772214D01*
X116068712Y-127747152D01*
X116070739Y-127723408D01*
X116089355Y-127703426D01*
X116122316Y-127689645D01*
X116167377Y-127684509D01*
X116196448Y-127684076D01*
X116216089Y-127681095D01*
X116224075Y-127673204D01*
X116225586Y-127658051D01*
X116225586Y-127657675D01*
X116224147Y-127643102D01*
X116216542Y-127635303D01*
X116197774Y-127632169D01*
X116162842Y-127631593D01*
X116123456Y-127628667D01*
X116087724Y-127617367D01*
X116069020Y-127598977D01*
X116068670Y-127574996D01*
X116088002Y-127546926D01*
X116101216Y-127536712D01*
X116127298Y-127528198D01*
X116167377Y-127525759D01*
X116196448Y-127525326D01*
X116216089Y-127522345D01*
X116224075Y-127514454D01*
X116225586Y-127499301D01*
X116225551Y-127495195D01*
X116223420Y-127482635D01*
X116214508Y-127475959D01*
X116194022Y-127473313D01*
X116157167Y-127472843D01*
X116128950Y-127472435D01*
X116101796Y-127469630D01*
X116086260Y-127462790D01*
X116076703Y-127450337D01*
X116070300Y-127431588D01*
X116076103Y-127402712D01*
X116083816Y-127389714D01*
X116096298Y-127381809D01*
X116118673Y-127378354D01*
X116156567Y-127377593D01*
X116168177Y-127377577D01*
X116200455Y-127376730D01*
X116217600Y-127373261D01*
X116224385Y-127365339D01*
X116225586Y-127351134D01*
X116225585Y-127350383D01*
X116224086Y-127336012D01*
X116216364Y-127328326D01*
X116197438Y-127325241D01*
X116162330Y-127324676D01*
X116137292Y-127324309D01*
X116110494Y-127321251D01*
X116094160Y-127313271D01*
X116081738Y-127298218D01*
X116072351Y-127282302D01*
X116070540Y-127266015D01*
X116081738Y-127245301D01*
X116089412Y-127234929D01*
X116103518Y-127224558D01*
X116125640Y-127219913D01*
X116162330Y-127218843D01*
X116165655Y-127218842D01*
X116199353Y-127218187D01*
X116217251Y-127214856D01*
X116224333Y-127206701D01*
X116225586Y-127191570D01*
X116225737Y-127188423D01*
X116235890Y-127160919D01*
X116257455Y-127132921D01*
X116284087Y-127111174D01*
X116309438Y-127102426D01*
X116317499Y-127101796D01*
X116326530Y-127095510D01*
X116330521Y-127078265D01*
X116331419Y-127044974D01*
X116331620Y-127033891D01*
X116338740Y-126989373D01*
X116356231Y-126962969D01*
X116384336Y-126954259D01*
X116390801Y-126954604D01*
X116416769Y-126966809D01*
X116432172Y-126996794D01*
X116437252Y-127044974D01*
X116437658Y-127072953D01*
X116440599Y-127092801D01*
X116448483Y-127100889D01*
X116463711Y-127102426D01*
X116478472Y-127101049D01*
X116486394Y-127093569D01*
X116489581Y-127074967D01*
X116490169Y-127040222D01*
X116491812Y-127006002D01*
X116500389Y-126973659D01*
X116517598Y-126957763D01*
X116544884Y-126956093D01*
X116551386Y-126957594D01*
X116574915Y-126975554D01*
X116590259Y-127009881D01*
X116595846Y-127057447D01*
X116597381Y-127085411D01*
X116603626Y-127099083D01*
X116617169Y-127102426D01*
X116624274Y-127101872D01*
X116633325Y-127095631D01*
X116637393Y-127078346D01*
X116638336Y-127044974D01*
X116638537Y-127033891D01*
X116645656Y-126989373D01*
X116663147Y-126962969D01*
X116691252Y-126954259D01*
X116697717Y-126954604D01*
X116723686Y-126966809D01*
X116739089Y-126996794D01*
X116744169Y-127044974D01*
X116744575Y-127072953D01*
X116747516Y-127092801D01*
X116755400Y-127100889D01*
X116770627Y-127102426D01*
X116781630Y-127101873D01*
X116791987Y-127096371D01*
X116796254Y-127080478D01*
X116797086Y-127048814D01*
X116797343Y-127034385D01*
X116803494Y-126989342D01*
X116818124Y-126962898D01*
X116841604Y-126954259D01*
X116851391Y-126954867D01*
G37*
X116851391Y-126954867D02*
X116880186Y-126967864D01*
X116897278Y-126998069D01*
X116902919Y-127045858D01*
X116903402Y-127076729D01*
X116906793Y-127094527D01*
X116915982Y-127101332D01*
X116933857Y-127102426D01*
X116959449Y-127107580D01*
X116992693Y-127126733D01*
X117019205Y-127154467D01*
X117031899Y-127184827D01*
X117034265Y-127197981D01*
X117041973Y-127208985D01*
X117059865Y-127214963D01*
X117093419Y-127218954D01*
X117100123Y-127219597D01*
X117140354Y-127225305D01*
X117164037Y-127234238D01*
X117175254Y-127248954D01*
X117178086Y-127272012D01*
X117176633Y-127286552D01*
X117163551Y-127308613D01*
X117135028Y-127320881D01*
X117088823Y-127324676D01*
X117074836Y-127324794D01*
X117052005Y-127327143D01*
X117042439Y-127334895D01*
X117040502Y-127351134D01*
X117041260Y-127363396D01*
X117047332Y-127372940D01*
X117064020Y-127376844D01*
X117096594Y-127377593D01*
X117125708Y-127378806D01*
X117157030Y-127386652D01*
X117173377Y-127403723D01*
X117178086Y-127432254D01*
X117176945Y-127444590D01*
X117164091Y-127466916D01*
X117135371Y-127479486D01*
X117088823Y-127483426D01*
X117074836Y-127483544D01*
X117052005Y-127485893D01*
X117042439Y-127493645D01*
X117040502Y-127509884D01*
X117041260Y-127522146D01*
X117047332Y-127531690D01*
X117064020Y-127535594D01*
X117096594Y-127536343D01*
X117115755Y-127536849D01*
X117152169Y-127543289D01*
X117172030Y-127558320D01*
X117177924Y-127583439D01*
X117176454Y-127599943D01*
X117165666Y-127621049D01*
X117141295Y-127633486D01*
X117099685Y-127639889D01*
X117086415Y-127641095D01*
X117057763Y-127645591D01*
X117044031Y-127652786D01*
X117040502Y-127664653D01*
X117040504Y-127665042D01*
X117044225Y-127677282D01*
X117058598Y-127683059D01*
X117088823Y-127684509D01*
X117110342Y-127685163D01*
X117149286Y-127692532D01*
X117171213Y-127708997D01*
X117178086Y-127735682D01*
X117176348Y-127754876D01*
X117164759Y-127776074D01*
X117139419Y-127787149D01*
X117097002Y-127790343D01*
X117041318Y-127790343D01*
X117029789Y-127833159D01*
X117025893Y-127844758D01*
X117001859Y-127881649D01*
X116966743Y-127907514D01*
X116926732Y-127917303D01*
X116921764Y-127917443D01*
X116909472Y-127921651D01*
X116904102Y-127935875D01*
X116902919Y-127965664D01*
X116902265Y-127987183D01*
X116894896Y-128026127D01*
X116878432Y-128048054D01*
X116851747Y-128054926D01*
X116832218Y-128053117D01*
X116811209Y-128041420D01*
X116800244Y-128015970D01*
X116797086Y-127973434D01*
X116796729Y-127947441D01*
X116793864Y-127927206D01*
X116785993Y-127918930D01*
X116770627Y-127917343D01*
X116758366Y-127918100D01*
X116748822Y-127924172D01*
X116744918Y-127940860D01*
X116744169Y-127973434D01*
X116743121Y-128000636D01*
X116735580Y-128032941D01*
X116718987Y-128049966D01*
X116691252Y-128054926D01*
X116673589Y-128053312D01*
X116652612Y-128041699D01*
X116641557Y-128016145D01*
X116638336Y-127973434D01*
X116638169Y-127956221D01*
X116635939Y-127931229D01*
X116629580Y-127919966D01*
X116617169Y-127917343D01*
X116605241Y-127919572D01*
X116597841Y-127931567D01*
X116596002Y-127958987D01*
X116594443Y-127992979D01*
X116585573Y-128028969D01*
X116567621Y-128048831D01*
X116539188Y-128054926D01*
X116533212Y-128054835D01*
X116510894Y-128050842D01*
X116497830Y-128037975D01*
X116491697Y-128012178D01*
X116490169Y-127969394D01*
X116489946Y-127949487D01*
X116487331Y-127927993D01*
X116479510Y-127919097D01*
X116463711Y-127917343D01*
X116456052Y-127917559D01*
X116443551Y-127921848D01*
X116438313Y-127936005D01*
X116437252Y-127965664D01*
X116436599Y-127987183D01*
X116429230Y-128026127D01*
X116412765Y-128048054D01*
X116386080Y-128054926D01*
X116368268Y-128053464D01*
X116346290Y-128042312D01*
X116334760Y-128017409D01*
X116331419Y-127975471D01*
X116330941Y-127948758D01*
X116326757Y-127927952D01*
X116314742Y-127915293D01*
X116290775Y-127903484D01*
X116263440Y-127886987D01*
X116235530Y-127852871D01*
X116225586Y-127811012D01*
X116224852Y-127803464D01*
X116218015Y-127795044D01*
X116199894Y-127791236D01*
X116165565Y-127790343D01*
X116155667Y-127790227D01*
X116112274Y-127785322D01*
X116086190Y-127772828D01*
X116085519Y-127772214D01*
X116068712Y-127747152D01*
X116070739Y-127723408D01*
X116089355Y-127703426D01*
X116122316Y-127689645D01*
X116167377Y-127684509D01*
X116196448Y-127684076D01*
X116216089Y-127681095D01*
X116224075Y-127673204D01*
X116225586Y-127658051D01*
X116225586Y-127657675D01*
X116224147Y-127643102D01*
X116216542Y-127635303D01*
X116197774Y-127632169D01*
X116162842Y-127631593D01*
X116123456Y-127628667D01*
X116087724Y-127617367D01*
X116069020Y-127598977D01*
X116068670Y-127574996D01*
X116088002Y-127546926D01*
X116101216Y-127536712D01*
X116127298Y-127528198D01*
X116167377Y-127525759D01*
X116196448Y-127525326D01*
X116216089Y-127522345D01*
X116224075Y-127514454D01*
X116225586Y-127499301D01*
X116225551Y-127495195D01*
X116223420Y-127482635D01*
X116214508Y-127475959D01*
X116194022Y-127473313D01*
X116157167Y-127472843D01*
X116128950Y-127472435D01*
X116101796Y-127469630D01*
X116086260Y-127462790D01*
X116076703Y-127450337D01*
X116070300Y-127431588D01*
X116076103Y-127402712D01*
X116083816Y-127389714D01*
X116096298Y-127381809D01*
X116118673Y-127378354D01*
X116156567Y-127377593D01*
X116168177Y-127377577D01*
X116200455Y-127376730D01*
X116217600Y-127373261D01*
X116224385Y-127365339D01*
X116225586Y-127351134D01*
X116225585Y-127350383D01*
X116224086Y-127336012D01*
X116216364Y-127328326D01*
X116197438Y-127325241D01*
X116162330Y-127324676D01*
X116137292Y-127324309D01*
X116110494Y-127321251D01*
X116094160Y-127313271D01*
X116081738Y-127298218D01*
X116072351Y-127282302D01*
X116070540Y-127266015D01*
X116081738Y-127245301D01*
X116089412Y-127234929D01*
X116103518Y-127224558D01*
X116125640Y-127219913D01*
X116162330Y-127218843D01*
X116165655Y-127218842D01*
X116199353Y-127218187D01*
X116217251Y-127214856D01*
X116224333Y-127206701D01*
X116225586Y-127191570D01*
X116225737Y-127188423D01*
X116235890Y-127160919D01*
X116257455Y-127132921D01*
X116284087Y-127111174D01*
X116309438Y-127102426D01*
X116317499Y-127101796D01*
X116326530Y-127095510D01*
X116330521Y-127078265D01*
X116331419Y-127044974D01*
X116331620Y-127033891D01*
X116338740Y-126989373D01*
X116356231Y-126962969D01*
X116384336Y-126954259D01*
X116390801Y-126954604D01*
X116416769Y-126966809D01*
X116432172Y-126996794D01*
X116437252Y-127044974D01*
X116437658Y-127072953D01*
X116440599Y-127092801D01*
X116448483Y-127100889D01*
X116463711Y-127102426D01*
X116478472Y-127101049D01*
X116486394Y-127093569D01*
X116489581Y-127074967D01*
X116490169Y-127040222D01*
X116491812Y-127006002D01*
X116500389Y-126973659D01*
X116517598Y-126957763D01*
X116544884Y-126956093D01*
X116551386Y-126957594D01*
X116574915Y-126975554D01*
X116590259Y-127009881D01*
X116595846Y-127057447D01*
X116597381Y-127085411D01*
X116603626Y-127099083D01*
X116617169Y-127102426D01*
X116624274Y-127101872D01*
X116633325Y-127095631D01*
X116637393Y-127078346D01*
X116638336Y-127044974D01*
X116638537Y-127033891D01*
X116645656Y-126989373D01*
X116663147Y-126962969D01*
X116691252Y-126954259D01*
X116697717Y-126954604D01*
X116723686Y-126966809D01*
X116739089Y-126996794D01*
X116744169Y-127044974D01*
X116744575Y-127072953D01*
X116747516Y-127092801D01*
X116755400Y-127100889D01*
X116770627Y-127102426D01*
X116781630Y-127101873D01*
X116791987Y-127096371D01*
X116796254Y-127080478D01*
X116797086Y-127048814D01*
X116797343Y-127034385D01*
X116803494Y-126989342D01*
X116818124Y-126962898D01*
X116841604Y-126954259D01*
X116851391Y-126954867D01*
D17*
%TO.C,D3*%
X114000000Y-119910000D02*
X119400000Y-119910000D01*
X114000000Y-123210000D02*
X114000000Y-119910000D01*
X114000000Y-123210000D02*
X119400000Y-123210000D01*
%TO.C,REF2*%
G36*
X126158003Y-108019476D02*
G01*
X125571353Y-108023638D01*
X124984702Y-108027800D01*
X125571353Y-108384792D01*
X126158003Y-108741785D01*
X126158003Y-109115237D01*
X124364128Y-109115237D01*
X124364128Y-108734629D01*
X124941638Y-108730464D01*
X125519148Y-108726300D01*
X124372066Y-108026628D01*
X124367593Y-107840683D01*
X124363121Y-107654737D01*
X126158003Y-107654737D01*
X126158003Y-108019476D01*
G37*
D19*
X126158003Y-108019476D02*
X125571353Y-108023638D01*
X124984702Y-108027800D01*
X125571353Y-108384792D01*
X126158003Y-108741785D01*
X126158003Y-109115237D01*
X124364128Y-109115237D01*
X124364128Y-108734629D01*
X124941638Y-108730464D01*
X125519148Y-108726300D01*
X124372066Y-108026628D01*
X124367593Y-107840683D01*
X124363121Y-107654737D01*
X126158003Y-107654737D01*
X126158003Y-108019476D01*
G36*
X127567436Y-108115119D02*
G01*
X127664550Y-108115422D01*
X127736872Y-108116612D01*
X127789873Y-108119287D01*
X127829024Y-108124042D01*
X127859795Y-108131474D01*
X127887656Y-108142178D01*
X127918078Y-108156751D01*
X127945123Y-108171494D01*
X128020692Y-108232887D01*
X128069327Y-108311042D01*
X128091233Y-108406255D01*
X128092684Y-108434633D01*
X128087793Y-108492287D01*
X128069437Y-108552682D01*
X128034736Y-108627081D01*
X128035119Y-108633112D01*
X128053743Y-108638987D01*
X128062901Y-108640735D01*
X128075287Y-108659116D01*
X128078878Y-108702487D01*
X128078878Y-108765987D01*
X127237503Y-108765987D01*
X127237503Y-108638987D01*
X127515826Y-108638987D01*
X127605815Y-108638533D01*
X127701767Y-108636037D01*
X127774409Y-108630540D01*
X127828551Y-108621122D01*
X127869002Y-108606861D01*
X127900571Y-108586840D01*
X127928066Y-108560137D01*
X127937262Y-108547889D01*
X127957640Y-108493206D01*
X127961545Y-108427811D01*
X127949319Y-108364185D01*
X127921307Y-108314805D01*
X127906841Y-108300739D01*
X127876447Y-108279540D01*
X127837486Y-108263989D01*
X127785330Y-108253284D01*
X127715351Y-108246621D01*
X127622920Y-108243194D01*
X127503410Y-108242201D01*
X127237503Y-108242112D01*
X127237503Y-108115112D01*
X127536012Y-108115112D01*
X127567436Y-108115119D01*
G37*
X127567436Y-108115119D02*
X127664550Y-108115422D01*
X127736872Y-108116612D01*
X127789873Y-108119287D01*
X127829024Y-108124042D01*
X127859795Y-108131474D01*
X127887656Y-108142178D01*
X127918078Y-108156751D01*
X127945123Y-108171494D01*
X128020692Y-108232887D01*
X128069327Y-108311042D01*
X128091233Y-108406255D01*
X128092684Y-108434633D01*
X128087793Y-108492287D01*
X128069437Y-108552682D01*
X128034736Y-108627081D01*
X128035119Y-108633112D01*
X128053743Y-108638987D01*
X128062901Y-108640735D01*
X128075287Y-108659116D01*
X128078878Y-108702487D01*
X128078878Y-108765987D01*
X127237503Y-108765987D01*
X127237503Y-108638987D01*
X127515826Y-108638987D01*
X127605815Y-108638533D01*
X127701767Y-108636037D01*
X127774409Y-108630540D01*
X127828551Y-108621122D01*
X127869002Y-108606861D01*
X127900571Y-108586840D01*
X127928066Y-108560137D01*
X127937262Y-108547889D01*
X127957640Y-108493206D01*
X127961545Y-108427811D01*
X127949319Y-108364185D01*
X127921307Y-108314805D01*
X127906841Y-108300739D01*
X127876447Y-108279540D01*
X127837486Y-108263989D01*
X127785330Y-108253284D01*
X127715351Y-108246621D01*
X127622920Y-108243194D01*
X127503410Y-108242201D01*
X127237503Y-108242112D01*
X127237503Y-108115112D01*
X127536012Y-108115112D01*
X127567436Y-108115119D01*
G36*
X124371612Y-109258115D02*
G01*
X124386523Y-109266818D01*
X124424880Y-109291055D01*
X124483692Y-109328886D01*
X124559967Y-109378369D01*
X124650715Y-109437564D01*
X124752943Y-109504530D01*
X124863660Y-109577328D01*
X124864620Y-109577960D01*
X124975737Y-109650588D01*
X125078924Y-109716972D01*
X125171102Y-109775212D01*
X125249194Y-109823408D01*
X125310123Y-109859661D01*
X125350810Y-109882071D01*
X125368178Y-109888738D01*
X125372358Y-109886242D01*
X125398580Y-109867195D01*
X125445017Y-109831750D01*
X125508476Y-109782399D01*
X125585766Y-109721634D01*
X125673693Y-109651946D01*
X125769066Y-109575827D01*
X126150066Y-109270721D01*
X126154518Y-109481897D01*
X126154838Y-109498147D01*
X126155740Y-109576293D01*
X126155485Y-109642290D01*
X126154151Y-109689608D01*
X126151814Y-109711719D01*
X126141679Y-109722257D01*
X126109456Y-109750035D01*
X126058874Y-109791595D01*
X125993687Y-109843992D01*
X125917654Y-109904280D01*
X125834529Y-109969513D01*
X125748070Y-110036746D01*
X125662032Y-110103034D01*
X125580173Y-110165430D01*
X125506247Y-110220988D01*
X125444012Y-110266765D01*
X125357083Y-110329675D01*
X125757543Y-110333916D01*
X126158003Y-110338158D01*
X126158003Y-110702737D01*
X124364128Y-110702737D01*
X124364128Y-110337612D01*
X124622097Y-110336922D01*
X124880066Y-110336231D01*
X124982274Y-110243283D01*
X125084483Y-110150334D01*
X124894962Y-110028482D01*
X124814005Y-109976438D01*
X124715235Y-109912956D01*
X124617960Y-109850447D01*
X124534785Y-109797010D01*
X124364128Y-109687390D01*
X124364128Y-109472751D01*
X124364169Y-109450453D01*
X124364952Y-109374974D01*
X124366582Y-109313904D01*
X124368858Y-109273024D01*
X124371579Y-109258112D01*
X124371612Y-109258115D01*
G37*
X124371612Y-109258115D02*
X124386523Y-109266818D01*
X124424880Y-109291055D01*
X124483692Y-109328886D01*
X124559967Y-109378369D01*
X124650715Y-109437564D01*
X124752943Y-109504530D01*
X124863660Y-109577328D01*
X124864620Y-109577960D01*
X124975737Y-109650588D01*
X125078924Y-109716972D01*
X125171102Y-109775212D01*
X125249194Y-109823408D01*
X125310123Y-109859661D01*
X125350810Y-109882071D01*
X125368178Y-109888738D01*
X125372358Y-109886242D01*
X125398580Y-109867195D01*
X125445017Y-109831750D01*
X125508476Y-109782399D01*
X125585766Y-109721634D01*
X125673693Y-109651946D01*
X125769066Y-109575827D01*
X126150066Y-109270721D01*
X126154518Y-109481897D01*
X126154838Y-109498147D01*
X126155740Y-109576293D01*
X126155485Y-109642290D01*
X126154151Y-109689608D01*
X126151814Y-109711719D01*
X126141679Y-109722257D01*
X126109456Y-109750035D01*
X126058874Y-109791595D01*
X125993687Y-109843992D01*
X125917654Y-109904280D01*
X125834529Y-109969513D01*
X125748070Y-110036746D01*
X125662032Y-110103034D01*
X125580173Y-110165430D01*
X125506247Y-110220988D01*
X125444012Y-110266765D01*
X125357083Y-110329675D01*
X125757543Y-110333916D01*
X126158003Y-110338158D01*
X126158003Y-110702737D01*
X124364128Y-110702737D01*
X124364128Y-110337612D01*
X124622097Y-110336922D01*
X124880066Y-110336231D01*
X124982274Y-110243283D01*
X125084483Y-110150334D01*
X124894962Y-110028482D01*
X124814005Y-109976438D01*
X124715235Y-109912956D01*
X124617960Y-109850447D01*
X124534785Y-109797010D01*
X124364128Y-109687390D01*
X124364128Y-109472751D01*
X124364169Y-109450453D01*
X124364952Y-109374974D01*
X124366582Y-109313904D01*
X124368858Y-109273024D01*
X124371579Y-109258112D01*
X124371612Y-109258115D01*
G36*
X126729503Y-110956737D02*
G01*
X126729503Y-110829737D01*
X127031128Y-110829737D01*
X127037464Y-110829736D01*
X127130766Y-110829271D01*
X127211822Y-110828077D01*
X127275756Y-110826288D01*
X127317691Y-110824037D01*
X127332753Y-110821460D01*
X127331282Y-110816893D01*
X127317774Y-110791571D01*
X127294726Y-110753991D01*
X127257340Y-110682211D01*
X127228715Y-110575172D01*
X127228272Y-110533642D01*
X127351612Y-110533642D01*
X127364435Y-110595358D01*
X127367731Y-110605699D01*
X127411240Y-110691408D01*
X127474862Y-110758237D01*
X127553183Y-110802980D01*
X127640790Y-110822426D01*
X127732269Y-110813369D01*
X127794292Y-110790501D01*
X127870431Y-110738858D01*
X127924885Y-110671082D01*
X127956670Y-110592276D01*
X127964800Y-110507541D01*
X127948290Y-110421981D01*
X127906155Y-110340698D01*
X127837410Y-110268794D01*
X127785299Y-110236747D01*
X127703317Y-110213865D01*
X127617775Y-110215746D01*
X127534945Y-110240269D01*
X127461100Y-110285310D01*
X127402514Y-110348747D01*
X127365458Y-110428460D01*
X127354749Y-110474401D01*
X127351612Y-110533642D01*
X127228272Y-110533642D01*
X127227558Y-110466821D01*
X127252450Y-110362291D01*
X127301971Y-110266715D01*
X127374703Y-110185227D01*
X127469224Y-110122958D01*
X127491625Y-110113424D01*
X127573369Y-110092778D01*
X127665136Y-110085292D01*
X127754151Y-110091375D01*
X127827640Y-110111438D01*
X127858193Y-110126261D01*
X127952368Y-110192219D01*
X128024564Y-110276142D01*
X128072931Y-110373298D01*
X128095617Y-110478952D01*
X128090771Y-110588372D01*
X128056542Y-110696823D01*
X128039765Y-110730570D01*
X128017113Y-110769491D01*
X128001135Y-110789042D01*
X128000854Y-110789216D01*
X127983753Y-110808697D01*
X127995007Y-110823720D01*
X128031253Y-110829737D01*
X128041480Y-110829838D01*
X128066806Y-110834421D01*
X128076998Y-110852521D01*
X128078878Y-110893237D01*
X128078878Y-110956737D01*
X127640790Y-110956737D01*
X126729503Y-110956737D01*
G37*
X126729503Y-110956737D02*
X126729503Y-110829737D01*
X127031128Y-110829737D01*
X127037464Y-110829736D01*
X127130766Y-110829271D01*
X127211822Y-110828077D01*
X127275756Y-110826288D01*
X127317691Y-110824037D01*
X127332753Y-110821460D01*
X127331282Y-110816893D01*
X127317774Y-110791571D01*
X127294726Y-110753991D01*
X127257340Y-110682211D01*
X127228715Y-110575172D01*
X127228272Y-110533642D01*
X127351612Y-110533642D01*
X127364435Y-110595358D01*
X127367731Y-110605699D01*
X127411240Y-110691408D01*
X127474862Y-110758237D01*
X127553183Y-110802980D01*
X127640790Y-110822426D01*
X127732269Y-110813369D01*
X127794292Y-110790501D01*
X127870431Y-110738858D01*
X127924885Y-110671082D01*
X127956670Y-110592276D01*
X127964800Y-110507541D01*
X127948290Y-110421981D01*
X127906155Y-110340698D01*
X127837410Y-110268794D01*
X127785299Y-110236747D01*
X127703317Y-110213865D01*
X127617775Y-110215746D01*
X127534945Y-110240269D01*
X127461100Y-110285310D01*
X127402514Y-110348747D01*
X127365458Y-110428460D01*
X127354749Y-110474401D01*
X127351612Y-110533642D01*
X127228272Y-110533642D01*
X127227558Y-110466821D01*
X127252450Y-110362291D01*
X127301971Y-110266715D01*
X127374703Y-110185227D01*
X127469224Y-110122958D01*
X127491625Y-110113424D01*
X127573369Y-110092778D01*
X127665136Y-110085292D01*
X127754151Y-110091375D01*
X127827640Y-110111438D01*
X127858193Y-110126261D01*
X127952368Y-110192219D01*
X128024564Y-110276142D01*
X128072931Y-110373298D01*
X128095617Y-110478952D01*
X128090771Y-110588372D01*
X128056542Y-110696823D01*
X128039765Y-110730570D01*
X128017113Y-110769491D01*
X128001135Y-110789042D01*
X128000854Y-110789216D01*
X127983753Y-110808697D01*
X127995007Y-110823720D01*
X128031253Y-110829737D01*
X128041480Y-110829838D01*
X128066806Y-110834421D01*
X128076998Y-110852521D01*
X128078878Y-110893237D01*
X128078878Y-110956737D01*
X127640790Y-110956737D01*
X126729503Y-110956737D01*
G36*
X127661650Y-109876889D02*
G01*
X127569474Y-109869386D01*
X127461444Y-109835623D01*
X127370520Y-109775294D01*
X127297591Y-109689034D01*
X127243545Y-109577481D01*
X127226411Y-109502337D01*
X127225973Y-109399443D01*
X127248240Y-109296794D01*
X127270646Y-109249020D01*
X127316014Y-109183444D01*
X127372654Y-109120915D01*
X127432512Y-109070090D01*
X127487535Y-109039624D01*
X127539128Y-109021639D01*
X127539128Y-109090683D01*
X127539086Y-109099300D01*
X127534972Y-109141543D01*
X127518723Y-109168165D01*
X127482699Y-109193021D01*
X127473915Y-109198608D01*
X127421498Y-109250337D01*
X127380974Y-109320974D01*
X127357114Y-109399948D01*
X127354689Y-109476686D01*
X127357337Y-109492657D01*
X127372530Y-109549965D01*
X127392336Y-109596363D01*
X127411413Y-109624074D01*
X127463589Y-109677650D01*
X127524443Y-109720524D01*
X127582552Y-109743841D01*
X127633784Y-109754087D01*
X127637292Y-109449020D01*
X127761378Y-109449020D01*
X127761378Y-109735178D01*
X127805035Y-109712466D01*
X127819223Y-109704571D01*
X127889732Y-109645750D01*
X127938177Y-109569731D01*
X127962531Y-109483090D01*
X127960765Y-109392409D01*
X127930852Y-109304266D01*
X127925427Y-109294632D01*
X127891419Y-109248443D01*
X127849378Y-109205992D01*
X127807732Y-109174918D01*
X127774906Y-109162862D01*
X127770861Y-109176007D01*
X127767067Y-109216158D01*
X127764065Y-109278381D01*
X127762089Y-109357670D01*
X127761378Y-109449020D01*
X127637292Y-109449020D01*
X127638050Y-109383069D01*
X127642316Y-109012050D01*
X127709143Y-109014992D01*
X127715897Y-109015352D01*
X127816744Y-109036295D01*
X127906065Y-109082772D01*
X127981255Y-109150093D01*
X128039705Y-109233571D01*
X128078812Y-109328518D01*
X128095967Y-109430245D01*
X128088564Y-109534064D01*
X128053998Y-109635288D01*
X128042665Y-109656773D01*
X127973285Y-109751208D01*
X127885531Y-109820065D01*
X127781090Y-109862305D01*
X127761378Y-109864712D01*
X127661650Y-109876889D01*
G37*
X127661650Y-109876889D02*
X127569474Y-109869386D01*
X127461444Y-109835623D01*
X127370520Y-109775294D01*
X127297591Y-109689034D01*
X127243545Y-109577481D01*
X127226411Y-109502337D01*
X127225973Y-109399443D01*
X127248240Y-109296794D01*
X127270646Y-109249020D01*
X127316014Y-109183444D01*
X127372654Y-109120915D01*
X127432512Y-109070090D01*
X127487535Y-109039624D01*
X127539128Y-109021639D01*
X127539128Y-109090683D01*
X127539086Y-109099300D01*
X127534972Y-109141543D01*
X127518723Y-109168165D01*
X127482699Y-109193021D01*
X127473915Y-109198608D01*
X127421498Y-109250337D01*
X127380974Y-109320974D01*
X127357114Y-109399948D01*
X127354689Y-109476686D01*
X127357337Y-109492657D01*
X127372530Y-109549965D01*
X127392336Y-109596363D01*
X127411413Y-109624074D01*
X127463589Y-109677650D01*
X127524443Y-109720524D01*
X127582552Y-109743841D01*
X127633784Y-109754087D01*
X127637292Y-109449020D01*
X127761378Y-109449020D01*
X127761378Y-109735178D01*
X127805035Y-109712466D01*
X127819223Y-109704571D01*
X127889732Y-109645750D01*
X127938177Y-109569731D01*
X127962531Y-109483090D01*
X127960765Y-109392409D01*
X127930852Y-109304266D01*
X127925427Y-109294632D01*
X127891419Y-109248443D01*
X127849378Y-109205992D01*
X127807732Y-109174918D01*
X127774906Y-109162862D01*
X127770861Y-109176007D01*
X127767067Y-109216158D01*
X127764065Y-109278381D01*
X127762089Y-109357670D01*
X127761378Y-109449020D01*
X127637292Y-109449020D01*
X127638050Y-109383069D01*
X127642316Y-109012050D01*
X127709143Y-109014992D01*
X127715897Y-109015352D01*
X127816744Y-109036295D01*
X127906065Y-109082772D01*
X127981255Y-109150093D01*
X128039705Y-109233571D01*
X128078812Y-109328518D01*
X128095967Y-109430245D01*
X128088564Y-109534064D01*
X128053998Y-109635288D01*
X128042665Y-109656773D01*
X127973285Y-109751208D01*
X127885531Y-109820065D01*
X127781090Y-109862305D01*
X127761378Y-109864712D01*
X127661650Y-109876889D01*
G36*
X127798862Y-112517854D02*
G01*
X127671741Y-112487898D01*
X127552231Y-112433210D01*
X127444780Y-112356755D01*
X127353838Y-112261497D01*
X127283857Y-112150401D01*
X127239286Y-112026431D01*
X127230345Y-111981617D01*
X127223538Y-111862784D01*
X127362396Y-111862784D01*
X127365816Y-111949084D01*
X127380146Y-112016952D01*
X127426554Y-112124300D01*
X127497140Y-112219980D01*
X127587235Y-112298210D01*
X127692170Y-112353208D01*
X127793271Y-112380121D01*
X127910044Y-112385071D01*
X128020838Y-112363685D01*
X128122520Y-112318895D01*
X128211955Y-112253634D01*
X128286011Y-112170834D01*
X128341552Y-112073428D01*
X128375444Y-111964349D01*
X128384555Y-111846529D01*
X128365750Y-111722901D01*
X128347738Y-111671190D01*
X128291158Y-111574593D01*
X128211190Y-111489646D01*
X128113227Y-111421512D01*
X128002661Y-111375353D01*
X127892365Y-111357774D01*
X127776304Y-111367688D01*
X127664553Y-111404189D01*
X127562263Y-111464909D01*
X127474582Y-111547477D01*
X127406661Y-111649526D01*
X127390421Y-111689807D01*
X127371214Y-111771835D01*
X127362396Y-111862784D01*
X127223538Y-111862784D01*
X127222321Y-111841531D01*
X127243495Y-111706391D01*
X127292009Y-111580152D01*
X127366003Y-111466775D01*
X127463619Y-111370217D01*
X127582998Y-111294436D01*
X127606165Y-111283054D01*
X127656230Y-111260049D01*
X127697847Y-111245775D01*
X127741066Y-111238153D01*
X127795936Y-111235104D01*
X127872504Y-111234550D01*
X127904596Y-111234598D01*
X127971792Y-111235850D01*
X128021083Y-111240381D01*
X128062517Y-111250270D01*
X128106142Y-111267596D01*
X128162009Y-111294436D01*
X128274616Y-111363935D01*
X128369873Y-111453288D01*
X128441388Y-111555582D01*
X128489711Y-111667289D01*
X128515391Y-111784883D01*
X128518979Y-111904836D01*
X128501025Y-112023623D01*
X128462078Y-112137716D01*
X128402690Y-112243589D01*
X128323411Y-112337714D01*
X128224789Y-112416565D01*
X128107376Y-112476615D01*
X127971722Y-112514337D01*
X127929141Y-112520114D01*
X127910044Y-112519782D01*
X127798862Y-112517854D01*
G37*
X127798862Y-112517854D02*
X127671741Y-112487898D01*
X127552231Y-112433210D01*
X127444780Y-112356755D01*
X127353838Y-112261497D01*
X127283857Y-112150401D01*
X127239286Y-112026431D01*
X127230345Y-111981617D01*
X127223538Y-111862784D01*
X127362396Y-111862784D01*
X127365816Y-111949084D01*
X127380146Y-112016952D01*
X127426554Y-112124300D01*
X127497140Y-112219980D01*
X127587235Y-112298210D01*
X127692170Y-112353208D01*
X127793271Y-112380121D01*
X127910044Y-112385071D01*
X128020838Y-112363685D01*
X128122520Y-112318895D01*
X128211955Y-112253634D01*
X128286011Y-112170834D01*
X128341552Y-112073428D01*
X128375444Y-111964349D01*
X128384555Y-111846529D01*
X128365750Y-111722901D01*
X128347738Y-111671190D01*
X128291158Y-111574593D01*
X128211190Y-111489646D01*
X128113227Y-111421512D01*
X128002661Y-111375353D01*
X127892365Y-111357774D01*
X127776304Y-111367688D01*
X127664553Y-111404189D01*
X127562263Y-111464909D01*
X127474582Y-111547477D01*
X127406661Y-111649526D01*
X127390421Y-111689807D01*
X127371214Y-111771835D01*
X127362396Y-111862784D01*
X127223538Y-111862784D01*
X127222321Y-111841531D01*
X127243495Y-111706391D01*
X127292009Y-111580152D01*
X127366003Y-111466775D01*
X127463619Y-111370217D01*
X127582998Y-111294436D01*
X127606165Y-111283054D01*
X127656230Y-111260049D01*
X127697847Y-111245775D01*
X127741066Y-111238153D01*
X127795936Y-111235104D01*
X127872504Y-111234550D01*
X127904596Y-111234598D01*
X127971792Y-111235850D01*
X128021083Y-111240381D01*
X128062517Y-111250270D01*
X128106142Y-111267596D01*
X128162009Y-111294436D01*
X128274616Y-111363935D01*
X128369873Y-111453288D01*
X128441388Y-111555582D01*
X128489711Y-111667289D01*
X128515391Y-111784883D01*
X128518979Y-111904836D01*
X128501025Y-112023623D01*
X128462078Y-112137716D01*
X128402690Y-112243589D01*
X128323411Y-112337714D01*
X128224789Y-112416565D01*
X128107376Y-112476615D01*
X127971722Y-112514337D01*
X127929141Y-112520114D01*
X127910044Y-112519782D01*
X127798862Y-112517854D01*
G36*
X126646954Y-105911663D02*
G01*
X126650053Y-105917155D01*
X126655279Y-105942046D01*
X126659365Y-105987439D01*
X126662396Y-106055582D01*
X126664456Y-106148724D01*
X126665631Y-106269112D01*
X126666003Y-106418995D01*
X126666003Y-106907277D01*
X126789035Y-106911913D01*
X126812116Y-106912844D01*
X126865514Y-106916311D01*
X126895674Y-106922105D01*
X126909042Y-106932133D01*
X126912066Y-106948300D01*
X126911830Y-106954265D01*
X126906194Y-106968258D01*
X126888146Y-106976721D01*
X126851242Y-106981562D01*
X126789035Y-106984687D01*
X126666003Y-106989323D01*
X126666003Y-109700105D01*
X126665986Y-109922931D01*
X126665875Y-110265595D01*
X126665657Y-110578289D01*
X126665323Y-110862123D01*
X126664866Y-111118204D01*
X126664278Y-111347641D01*
X126663551Y-111551542D01*
X126662678Y-111731016D01*
X126661651Y-111887171D01*
X126660462Y-112021115D01*
X126659103Y-112133957D01*
X126657566Y-112226806D01*
X126655845Y-112300769D01*
X126653931Y-112356956D01*
X126651816Y-112396473D01*
X126649493Y-112420431D01*
X126646953Y-112429938D01*
X126615810Y-112445937D01*
X126574059Y-112446068D01*
X126541344Y-112427995D01*
X126539021Y-112423570D01*
X126532282Y-112389915D01*
X126526624Y-112328919D01*
X126522298Y-112243926D01*
X126519556Y-112138276D01*
X126515191Y-111869550D01*
X126375264Y-111864948D01*
X126312301Y-111862515D01*
X126269748Y-111858956D01*
X126247515Y-111852722D01*
X126239681Y-111842071D01*
X126240326Y-111825261D01*
X126243409Y-111811748D01*
X126253357Y-111799683D01*
X126275882Y-111792476D01*
X126317374Y-111788365D01*
X126384222Y-111785588D01*
X126523128Y-111781001D01*
X126523128Y-108855857D01*
X126523132Y-108751034D01*
X126523202Y-108383621D01*
X126523369Y-108046600D01*
X126523639Y-107738902D01*
X126524020Y-107459459D01*
X126524519Y-107207202D01*
X126525141Y-106981062D01*
X126525896Y-106779972D01*
X126526788Y-106602861D01*
X126527825Y-106448663D01*
X126529015Y-106316307D01*
X126530363Y-106204727D01*
X126531877Y-106112851D01*
X126533564Y-106039614D01*
X126535431Y-105983944D01*
X126537484Y-105944775D01*
X126539731Y-105921037D01*
X126542178Y-105911663D01*
X126567661Y-105897173D01*
X126610687Y-105894639D01*
X126646954Y-105911663D01*
G37*
X126646954Y-105911663D02*
X126650053Y-105917155D01*
X126655279Y-105942046D01*
X126659365Y-105987439D01*
X126662396Y-106055582D01*
X126664456Y-106148724D01*
X126665631Y-106269112D01*
X126666003Y-106418995D01*
X126666003Y-106907277D01*
X126789035Y-106911913D01*
X126812116Y-106912844D01*
X126865514Y-106916311D01*
X126895674Y-106922105D01*
X126909042Y-106932133D01*
X126912066Y-106948300D01*
X126911830Y-106954265D01*
X126906194Y-106968258D01*
X126888146Y-106976721D01*
X126851242Y-106981562D01*
X126789035Y-106984687D01*
X126666003Y-106989323D01*
X126666003Y-109700105D01*
X126665986Y-109922931D01*
X126665875Y-110265595D01*
X126665657Y-110578289D01*
X126665323Y-110862123D01*
X126664866Y-111118204D01*
X126664278Y-111347641D01*
X126663551Y-111551542D01*
X126662678Y-111731016D01*
X126661651Y-111887171D01*
X126660462Y-112021115D01*
X126659103Y-112133957D01*
X126657566Y-112226806D01*
X126655845Y-112300769D01*
X126653931Y-112356956D01*
X126651816Y-112396473D01*
X126649493Y-112420431D01*
X126646953Y-112429938D01*
X126615810Y-112445937D01*
X126574059Y-112446068D01*
X126541344Y-112427995D01*
X126539021Y-112423570D01*
X126532282Y-112389915D01*
X126526624Y-112328919D01*
X126522298Y-112243926D01*
X126519556Y-112138276D01*
X126515191Y-111869550D01*
X126375264Y-111864948D01*
X126312301Y-111862515D01*
X126269748Y-111858956D01*
X126247515Y-111852722D01*
X126239681Y-111842071D01*
X126240326Y-111825261D01*
X126243409Y-111811748D01*
X126253357Y-111799683D01*
X126275882Y-111792476D01*
X126317374Y-111788365D01*
X126384222Y-111785588D01*
X126523128Y-111781001D01*
X126523128Y-108855857D01*
X126523132Y-108751034D01*
X126523202Y-108383621D01*
X126523369Y-108046600D01*
X126523639Y-107738902D01*
X126524020Y-107459459D01*
X126524519Y-107207202D01*
X126525141Y-106981062D01*
X126525896Y-106779972D01*
X126526788Y-106602861D01*
X126527825Y-106448663D01*
X126529015Y-106316307D01*
X126530363Y-106204727D01*
X126531877Y-106112851D01*
X126533564Y-106039614D01*
X126535431Y-105983944D01*
X126537484Y-105944775D01*
X126539731Y-105921037D01*
X126542178Y-105911663D01*
X126567661Y-105897173D01*
X126610687Y-105894639D01*
X126646954Y-105911663D01*
G36*
X124373311Y-105925629D02*
G01*
X124397974Y-105939327D01*
X124445202Y-105966492D01*
X124511614Y-106005151D01*
X124593831Y-106053332D01*
X124688472Y-106109063D01*
X124792156Y-106170372D01*
X124829959Y-106192761D01*
X124932867Y-106253632D01*
X125026778Y-106309070D01*
X125108029Y-106356921D01*
X125172960Y-106395032D01*
X125217909Y-106421247D01*
X125239216Y-106433413D01*
X125240909Y-106434229D01*
X125254110Y-106436220D01*
X125274377Y-106432044D01*
X125304580Y-106420235D01*
X125347593Y-106399326D01*
X125406285Y-106367848D01*
X125483528Y-106324337D01*
X125582193Y-106267323D01*
X125705151Y-106195340D01*
X125762569Y-106161650D01*
X125864663Y-106102008D01*
X125956149Y-106048898D01*
X126033681Y-106004243D01*
X126093913Y-105969966D01*
X126133500Y-105947990D01*
X126149095Y-105940237D01*
X126149912Y-105940989D01*
X126152990Y-105962051D01*
X126154881Y-106007716D01*
X126155433Y-106072133D01*
X126154496Y-106149453D01*
X126150066Y-106358668D01*
X125843606Y-106524547D01*
X125537147Y-106690426D01*
X125847521Y-106859051D01*
X126157896Y-107027675D01*
X126157950Y-107239527D01*
X126158003Y-107451379D01*
X126082597Y-107407666D01*
X126056279Y-107392330D01*
X126003010Y-107361157D01*
X125930822Y-107318832D01*
X125844353Y-107268076D01*
X125748241Y-107211611D01*
X125647124Y-107152157D01*
X125556146Y-107099001D01*
X125466825Y-107047566D01*
X125389555Y-107003857D01*
X125328143Y-106970001D01*
X125286398Y-106948127D01*
X125268128Y-106940362D01*
X125264307Y-106941725D01*
X125237507Y-106955468D01*
X125189086Y-106982120D01*
X125123060Y-107019346D01*
X125043447Y-107064812D01*
X124954262Y-107116184D01*
X124859524Y-107171129D01*
X124763247Y-107227313D01*
X124669450Y-107282402D01*
X124582148Y-107334062D01*
X124505359Y-107379959D01*
X124443099Y-107417759D01*
X124399385Y-107445129D01*
X124363205Y-107468494D01*
X124367635Y-107250213D01*
X124372066Y-107031932D01*
X124677960Y-106863122D01*
X124765412Y-106814435D01*
X124848879Y-106766561D01*
X124908064Y-106730465D01*
X124945183Y-106704704D01*
X124962453Y-106687840D01*
X124962088Y-106678432D01*
X124959657Y-106676803D01*
X124933626Y-106661340D01*
X124885343Y-106633802D01*
X124819333Y-106596732D01*
X124740119Y-106552674D01*
X124652225Y-106504173D01*
X124364128Y-106345795D01*
X124364128Y-106135079D01*
X124364154Y-106116133D01*
X124364806Y-106040984D01*
X124366203Y-105980083D01*
X124368168Y-105939265D01*
X124370524Y-105924362D01*
X124373311Y-105925629D01*
G37*
X124373311Y-105925629D02*
X124397974Y-105939327D01*
X124445202Y-105966492D01*
X124511614Y-106005151D01*
X124593831Y-106053332D01*
X124688472Y-106109063D01*
X124792156Y-106170372D01*
X124829959Y-106192761D01*
X124932867Y-106253632D01*
X125026778Y-106309070D01*
X125108029Y-106356921D01*
X125172960Y-106395032D01*
X125217909Y-106421247D01*
X125239216Y-106433413D01*
X125240909Y-106434229D01*
X125254110Y-106436220D01*
X125274377Y-106432044D01*
X125304580Y-106420235D01*
X125347593Y-106399326D01*
X125406285Y-106367848D01*
X125483528Y-106324337D01*
X125582193Y-106267323D01*
X125705151Y-106195340D01*
X125762569Y-106161650D01*
X125864663Y-106102008D01*
X125956149Y-106048898D01*
X126033681Y-106004243D01*
X126093913Y-105969966D01*
X126133500Y-105947990D01*
X126149095Y-105940237D01*
X126149912Y-105940989D01*
X126152990Y-105962051D01*
X126154881Y-106007716D01*
X126155433Y-106072133D01*
X126154496Y-106149453D01*
X126150066Y-106358668D01*
X125843606Y-106524547D01*
X125537147Y-106690426D01*
X125847521Y-106859051D01*
X126157896Y-107027675D01*
X126157950Y-107239527D01*
X126158003Y-107451379D01*
X126082597Y-107407666D01*
X126056279Y-107392330D01*
X126003010Y-107361157D01*
X125930822Y-107318832D01*
X125844353Y-107268076D01*
X125748241Y-107211611D01*
X125647124Y-107152157D01*
X125556146Y-107099001D01*
X125466825Y-107047566D01*
X125389555Y-107003857D01*
X125328143Y-106970001D01*
X125286398Y-106948127D01*
X125268128Y-106940362D01*
X125264307Y-106941725D01*
X125237507Y-106955468D01*
X125189086Y-106982120D01*
X125123060Y-107019346D01*
X125043447Y-107064812D01*
X124954262Y-107116184D01*
X124859524Y-107171129D01*
X124763247Y-107227313D01*
X124669450Y-107282402D01*
X124582148Y-107334062D01*
X124505359Y-107379959D01*
X124443099Y-107417759D01*
X124399385Y-107445129D01*
X124363205Y-107468494D01*
X124367635Y-107250213D01*
X124372066Y-107031932D01*
X124677960Y-106863122D01*
X124765412Y-106814435D01*
X124848879Y-106766561D01*
X124908064Y-106730465D01*
X124945183Y-106704704D01*
X124962453Y-106687840D01*
X124962088Y-106678432D01*
X124959657Y-106676803D01*
X124933626Y-106661340D01*
X124885343Y-106633802D01*
X124819333Y-106596732D01*
X124740119Y-106552674D01*
X124652225Y-106504173D01*
X124364128Y-106345795D01*
X124364128Y-106135079D01*
X124364154Y-106116133D01*
X124364806Y-106040984D01*
X124366203Y-105980083D01*
X124368168Y-105939265D01*
X124370524Y-105924362D01*
X124373311Y-105925629D01*
G36*
X128118485Y-106147742D02*
G01*
X128150962Y-106163887D01*
X128168728Y-106202264D01*
X128174128Y-106266821D01*
X128174128Y-106348930D01*
X128234579Y-106358596D01*
X128294977Y-106380040D01*
X128346193Y-106426916D01*
X128374306Y-106492657D01*
X128375025Y-106496233D01*
X128382394Y-106523275D01*
X128396021Y-106537334D01*
X128424404Y-106542657D01*
X128476039Y-106543487D01*
X128529385Y-106545818D01*
X128565633Y-106556819D01*
X128582644Y-106581190D01*
X128586878Y-106623602D01*
X128586748Y-106627255D01*
X128569537Y-106659620D01*
X128524444Y-106679559D01*
X128452985Y-106686362D01*
X128432004Y-106686540D01*
X128397757Y-106690063D01*
X128383408Y-106701690D01*
X128380503Y-106726050D01*
X128381640Y-106744442D01*
X128390748Y-106758759D01*
X128415780Y-106764614D01*
X128464641Y-106765737D01*
X128494615Y-106766563D01*
X128548574Y-106776363D01*
X128577978Y-106799111D01*
X128586879Y-106837175D01*
X128585466Y-106854693D01*
X128568697Y-106886227D01*
X128529772Y-106903411D01*
X128464641Y-106908612D01*
X128425651Y-106909148D01*
X128395299Y-106913445D01*
X128382885Y-106925252D01*
X128380503Y-106948300D01*
X128380827Y-106959788D01*
X128387262Y-106978540D01*
X128408496Y-106986397D01*
X128452985Y-106987987D01*
X128470040Y-106988264D01*
X128535854Y-106997664D01*
X128574349Y-107020954D01*
X128586878Y-107058850D01*
X128586313Y-107070702D01*
X128569113Y-107113513D01*
X128527006Y-107138574D01*
X128458745Y-107146737D01*
X128442210Y-107146850D01*
X128402701Y-107149851D01*
X128384746Y-107159337D01*
X128380503Y-107178487D01*
X128380553Y-107181526D01*
X128386482Y-107199826D01*
X128407945Y-107208222D01*
X128452985Y-107210237D01*
X128470040Y-107210514D01*
X128535854Y-107219914D01*
X128574349Y-107243204D01*
X128586878Y-107281100D01*
X128586518Y-107290567D01*
X128570049Y-107334545D01*
X128528414Y-107360479D01*
X128460729Y-107368987D01*
X128430796Y-107369356D01*
X128398498Y-107373941D01*
X128383006Y-107388085D01*
X128374851Y-107417091D01*
X128369228Y-107437028D01*
X128335994Y-107490890D01*
X128285590Y-107529094D01*
X128227373Y-107543612D01*
X128174128Y-107543612D01*
X128174128Y-107639374D01*
X128173531Y-107680192D01*
X128169266Y-107717391D01*
X128158485Y-107737304D01*
X128138410Y-107748413D01*
X128137381Y-107748793D01*
X128089198Y-107757421D01*
X128056399Y-107741025D01*
X128037620Y-107698053D01*
X128031497Y-107626956D01*
X128030880Y-107589278D01*
X128026542Y-107558616D01*
X128014705Y-107546040D01*
X127991566Y-107543612D01*
X127971902Y-107545007D01*
X127958409Y-107554762D01*
X127952919Y-107580684D01*
X127951878Y-107630559D01*
X127951689Y-107651369D01*
X127947815Y-107696092D01*
X127936197Y-107723105D01*
X127913256Y-107742812D01*
X127911787Y-107743767D01*
X127875490Y-107759162D01*
X127842606Y-107750979D01*
X127840904Y-107750039D01*
X127821953Y-107731808D01*
X127811218Y-107698847D01*
X127805823Y-107642695D01*
X127803453Y-107606643D01*
X127797490Y-107570406D01*
X127785900Y-107552994D01*
X127765347Y-107546477D01*
X127748010Y-107545480D01*
X127735725Y-107553772D01*
X127730635Y-107579357D01*
X127729628Y-107629455D01*
X127729401Y-107652429D01*
X127725438Y-107696600D01*
X127713810Y-107723292D01*
X127691006Y-107742812D01*
X127689537Y-107743767D01*
X127653240Y-107759162D01*
X127620356Y-107750979D01*
X127618654Y-107750039D01*
X127599703Y-107731808D01*
X127588968Y-107698847D01*
X127583573Y-107642695D01*
X127581203Y-107606643D01*
X127575240Y-107570406D01*
X127563650Y-107552994D01*
X127543097Y-107546477D01*
X127528930Y-107545271D01*
X127514598Y-107551533D01*
X127508594Y-107574580D01*
X127507378Y-107621883D01*
X127505075Y-107655965D01*
X127489474Y-107712265D01*
X127462473Y-107751275D01*
X127428003Y-107765862D01*
X127409347Y-107761707D01*
X127378316Y-107733504D01*
X127356726Y-107684833D01*
X127348628Y-107622987D01*
X127346954Y-107579620D01*
X127339483Y-107551580D01*
X127324257Y-107543612D01*
X127317555Y-107543273D01*
X127271570Y-107525013D01*
X127230587Y-107484778D01*
X127203353Y-107430735D01*
X127195107Y-107404863D01*
X127181029Y-107380102D01*
X127156759Y-107370559D01*
X127111523Y-107368987D01*
X127093519Y-107368323D01*
X127040976Y-107359732D01*
X127002911Y-107344275D01*
X126977629Y-107319404D01*
X126970050Y-107281298D01*
X126993901Y-107239269D01*
X127006905Y-107228081D01*
X127044662Y-107214339D01*
X127105026Y-107210237D01*
X127144156Y-107209699D01*
X127174799Y-107205448D01*
X127187419Y-107193854D01*
X127189878Y-107171308D01*
X127189878Y-107170555D01*
X127187403Y-107149338D01*
X127175212Y-107137305D01*
X127145962Y-107131172D01*
X127092310Y-107127651D01*
X127088377Y-107127451D01*
X127020625Y-107118930D01*
X126981446Y-107100950D01*
X126968652Y-107071584D01*
X126980053Y-107028908D01*
X126990954Y-107009098D01*
X127008768Y-106995209D01*
X127040196Y-106989252D01*
X127094288Y-106987987D01*
X127098224Y-106987986D01*
X127149487Y-106987019D01*
X127176888Y-106982142D01*
X127187871Y-106970266D01*
X127189878Y-106948300D01*
X127188557Y-106928972D01*
X127178979Y-106915261D01*
X127153299Y-106909675D01*
X127103700Y-106908612D01*
X127091765Y-106908457D01*
X127022792Y-106898412D01*
X126981417Y-106872689D01*
X126967628Y-106831279D01*
X126969307Y-106814869D01*
X126987724Y-106786365D01*
X127029356Y-106770592D01*
X127097803Y-106765737D01*
X127148150Y-106764907D01*
X127176384Y-106760193D01*
X127187768Y-106748330D01*
X127189878Y-106726050D01*
X127188557Y-106706722D01*
X127178979Y-106693011D01*
X127153299Y-106687425D01*
X127103700Y-106686362D01*
X127091765Y-106686207D01*
X127022792Y-106676162D01*
X126981417Y-106650439D01*
X126967628Y-106609029D01*
X126969032Y-106593921D01*
X126986889Y-106564710D01*
X127028056Y-106548495D01*
X127096037Y-106543487D01*
X127102898Y-106543486D01*
X127151148Y-106542403D01*
X127177104Y-106536215D01*
X127189305Y-106520408D01*
X127196292Y-106490464D01*
X127211689Y-106447356D01*
X127254391Y-106394418D01*
X127312910Y-106361680D01*
X127313029Y-106361644D01*
X127335609Y-106349643D01*
X127346074Y-106325467D01*
X127348628Y-106279437D01*
X127348684Y-106271862D01*
X127357039Y-106202069D01*
X127379660Y-106160471D01*
X127416656Y-106146856D01*
X127444285Y-106149339D01*
X127475975Y-106165646D01*
X127494465Y-106202058D01*
X127503948Y-106264214D01*
X127507741Y-106303113D01*
X127514755Y-106335897D01*
X127527230Y-106349984D01*
X127549032Y-106352987D01*
X127565401Y-106351925D01*
X127579616Y-106342842D01*
X127585557Y-106317774D01*
X127586753Y-106268850D01*
X127587579Y-106238876D01*
X127597379Y-106184917D01*
X127620127Y-106155513D01*
X127658191Y-106146612D01*
X127675709Y-106148025D01*
X127707243Y-106164794D01*
X127724427Y-106203719D01*
X127729628Y-106268850D01*
X127730164Y-106307840D01*
X127734461Y-106338192D01*
X127746268Y-106350606D01*
X127769316Y-106352987D01*
X127787708Y-106351851D01*
X127802025Y-106342743D01*
X127807880Y-106317711D01*
X127809003Y-106268850D01*
X127810072Y-106234892D01*
X127820396Y-106182945D01*
X127843845Y-106154970D01*
X127883057Y-106146612D01*
X127888945Y-106146856D01*
X127924143Y-106163875D01*
X127945003Y-106208197D01*
X127951878Y-106280506D01*
X127952056Y-106301487D01*
X127955579Y-106335734D01*
X127967206Y-106350083D01*
X127991566Y-106352987D01*
X128009958Y-106351851D01*
X128024275Y-106342743D01*
X128030130Y-106317711D01*
X128031253Y-106268850D01*
X128032079Y-106238876D01*
X128041879Y-106184917D01*
X128064627Y-106155513D01*
X128102691Y-106146612D01*
X128118485Y-106147742D01*
G37*
X128118485Y-106147742D02*
X128150962Y-106163887D01*
X128168728Y-106202264D01*
X128174128Y-106266821D01*
X128174128Y-106348930D01*
X128234579Y-106358596D01*
X128294977Y-106380040D01*
X128346193Y-106426916D01*
X128374306Y-106492657D01*
X128375025Y-106496233D01*
X128382394Y-106523275D01*
X128396021Y-106537334D01*
X128424404Y-106542657D01*
X128476039Y-106543487D01*
X128529385Y-106545818D01*
X128565633Y-106556819D01*
X128582644Y-106581190D01*
X128586878Y-106623602D01*
X128586748Y-106627255D01*
X128569537Y-106659620D01*
X128524444Y-106679559D01*
X128452985Y-106686362D01*
X128432004Y-106686540D01*
X128397757Y-106690063D01*
X128383408Y-106701690D01*
X128380503Y-106726050D01*
X128381640Y-106744442D01*
X128390748Y-106758759D01*
X128415780Y-106764614D01*
X128464641Y-106765737D01*
X128494615Y-106766563D01*
X128548574Y-106776363D01*
X128577978Y-106799111D01*
X128586879Y-106837175D01*
X128585466Y-106854693D01*
X128568697Y-106886227D01*
X128529772Y-106903411D01*
X128464641Y-106908612D01*
X128425651Y-106909148D01*
X128395299Y-106913445D01*
X128382885Y-106925252D01*
X128380503Y-106948300D01*
X128380827Y-106959788D01*
X128387262Y-106978540D01*
X128408496Y-106986397D01*
X128452985Y-106987987D01*
X128470040Y-106988264D01*
X128535854Y-106997664D01*
X128574349Y-107020954D01*
X128586878Y-107058850D01*
X128586313Y-107070702D01*
X128569113Y-107113513D01*
X128527006Y-107138574D01*
X128458745Y-107146737D01*
X128442210Y-107146850D01*
X128402701Y-107149851D01*
X128384746Y-107159337D01*
X128380503Y-107178487D01*
X128380553Y-107181526D01*
X128386482Y-107199826D01*
X128407945Y-107208222D01*
X128452985Y-107210237D01*
X128470040Y-107210514D01*
X128535854Y-107219914D01*
X128574349Y-107243204D01*
X128586878Y-107281100D01*
X128586518Y-107290567D01*
X128570049Y-107334545D01*
X128528414Y-107360479D01*
X128460729Y-107368987D01*
X128430796Y-107369356D01*
X128398498Y-107373941D01*
X128383006Y-107388085D01*
X128374851Y-107417091D01*
X128369228Y-107437028D01*
X128335994Y-107490890D01*
X128285590Y-107529094D01*
X128227373Y-107543612D01*
X128174128Y-107543612D01*
X128174128Y-107639374D01*
X128173531Y-107680192D01*
X128169266Y-107717391D01*
X128158485Y-107737304D01*
X128138410Y-107748413D01*
X128137381Y-107748793D01*
X128089198Y-107757421D01*
X128056399Y-107741025D01*
X128037620Y-107698053D01*
X128031497Y-107626956D01*
X128030880Y-107589278D01*
X128026542Y-107558616D01*
X128014705Y-107546040D01*
X127991566Y-107543612D01*
X127971902Y-107545007D01*
X127958409Y-107554762D01*
X127952919Y-107580684D01*
X127951878Y-107630559D01*
X127951689Y-107651369D01*
X127947815Y-107696092D01*
X127936197Y-107723105D01*
X127913256Y-107742812D01*
X127911787Y-107743767D01*
X127875490Y-107759162D01*
X127842606Y-107750979D01*
X127840904Y-107750039D01*
X127821953Y-107731808D01*
X127811218Y-107698847D01*
X127805823Y-107642695D01*
X127803453Y-107606643D01*
X127797490Y-107570406D01*
X127785900Y-107552994D01*
X127765347Y-107546477D01*
X127748010Y-107545480D01*
X127735725Y-107553772D01*
X127730635Y-107579357D01*
X127729628Y-107629455D01*
X127729401Y-107652429D01*
X127725438Y-107696600D01*
X127713810Y-107723292D01*
X127691006Y-107742812D01*
X127689537Y-107743767D01*
X127653240Y-107759162D01*
X127620356Y-107750979D01*
X127618654Y-107750039D01*
X127599703Y-107731808D01*
X127588968Y-107698847D01*
X127583573Y-107642695D01*
X127581203Y-107606643D01*
X127575240Y-107570406D01*
X127563650Y-107552994D01*
X127543097Y-107546477D01*
X127528930Y-107545271D01*
X127514598Y-107551533D01*
X127508594Y-107574580D01*
X127507378Y-107621883D01*
X127505075Y-107655965D01*
X127489474Y-107712265D01*
X127462473Y-107751275D01*
X127428003Y-107765862D01*
X127409347Y-107761707D01*
X127378316Y-107733504D01*
X127356726Y-107684833D01*
X127348628Y-107622987D01*
X127346954Y-107579620D01*
X127339483Y-107551580D01*
X127324257Y-107543612D01*
X127317555Y-107543273D01*
X127271570Y-107525013D01*
X127230587Y-107484778D01*
X127203353Y-107430735D01*
X127195107Y-107404863D01*
X127181029Y-107380102D01*
X127156759Y-107370559D01*
X127111523Y-107368987D01*
X127093519Y-107368323D01*
X127040976Y-107359732D01*
X127002911Y-107344275D01*
X126977629Y-107319404D01*
X126970050Y-107281298D01*
X126993901Y-107239269D01*
X127006905Y-107228081D01*
X127044662Y-107214339D01*
X127105026Y-107210237D01*
X127144156Y-107209699D01*
X127174799Y-107205448D01*
X127187419Y-107193854D01*
X127189878Y-107171308D01*
X127189878Y-107170555D01*
X127187403Y-107149338D01*
X127175212Y-107137305D01*
X127145962Y-107131172D01*
X127092310Y-107127651D01*
X127088377Y-107127451D01*
X127020625Y-107118930D01*
X126981446Y-107100950D01*
X126968652Y-107071584D01*
X126980053Y-107028908D01*
X126990954Y-107009098D01*
X127008768Y-106995209D01*
X127040196Y-106989252D01*
X127094288Y-106987987D01*
X127098224Y-106987986D01*
X127149487Y-106987019D01*
X127176888Y-106982142D01*
X127187871Y-106970266D01*
X127189878Y-106948300D01*
X127188557Y-106928972D01*
X127178979Y-106915261D01*
X127153299Y-106909675D01*
X127103700Y-106908612D01*
X127091765Y-106908457D01*
X127022792Y-106898412D01*
X126981417Y-106872689D01*
X126967628Y-106831279D01*
X126969307Y-106814869D01*
X126987724Y-106786365D01*
X127029356Y-106770592D01*
X127097803Y-106765737D01*
X127148150Y-106764907D01*
X127176384Y-106760193D01*
X127187768Y-106748330D01*
X127189878Y-106726050D01*
X127188557Y-106706722D01*
X127178979Y-106693011D01*
X127153299Y-106687425D01*
X127103700Y-106686362D01*
X127091765Y-106686207D01*
X127022792Y-106676162D01*
X126981417Y-106650439D01*
X126967628Y-106609029D01*
X126969032Y-106593921D01*
X126986889Y-106564710D01*
X127028056Y-106548495D01*
X127096037Y-106543487D01*
X127102898Y-106543486D01*
X127151148Y-106542403D01*
X127177104Y-106536215D01*
X127189305Y-106520408D01*
X127196292Y-106490464D01*
X127211689Y-106447356D01*
X127254391Y-106394418D01*
X127312910Y-106361680D01*
X127313029Y-106361644D01*
X127335609Y-106349643D01*
X127346074Y-106325467D01*
X127348628Y-106279437D01*
X127348684Y-106271862D01*
X127357039Y-106202069D01*
X127379660Y-106160471D01*
X127416656Y-106146856D01*
X127444285Y-106149339D01*
X127475975Y-106165646D01*
X127494465Y-106202058D01*
X127503948Y-106264214D01*
X127507741Y-106303113D01*
X127514755Y-106335897D01*
X127527230Y-106349984D01*
X127549032Y-106352987D01*
X127565401Y-106351925D01*
X127579616Y-106342842D01*
X127585557Y-106317774D01*
X127586753Y-106268850D01*
X127587579Y-106238876D01*
X127597379Y-106184917D01*
X127620127Y-106155513D01*
X127658191Y-106146612D01*
X127675709Y-106148025D01*
X127707243Y-106164794D01*
X127724427Y-106203719D01*
X127729628Y-106268850D01*
X127730164Y-106307840D01*
X127734461Y-106338192D01*
X127746268Y-106350606D01*
X127769316Y-106352987D01*
X127787708Y-106351851D01*
X127802025Y-106342743D01*
X127807880Y-106317711D01*
X127809003Y-106268850D01*
X127810072Y-106234892D01*
X127820396Y-106182945D01*
X127843845Y-106154970D01*
X127883057Y-106146612D01*
X127888945Y-106146856D01*
X127924143Y-106163875D01*
X127945003Y-106208197D01*
X127951878Y-106280506D01*
X127952056Y-106301487D01*
X127955579Y-106335734D01*
X127967206Y-106350083D01*
X127991566Y-106352987D01*
X128009958Y-106351851D01*
X128024275Y-106342743D01*
X128030130Y-106317711D01*
X128031253Y-106268850D01*
X128032079Y-106238876D01*
X128041879Y-106184917D01*
X128064627Y-106155513D01*
X128102691Y-106146612D01*
X128118485Y-106147742D01*
G36*
X125652086Y-111005274D02*
G01*
X125695278Y-111024769D01*
X125720917Y-111070076D01*
X125729378Y-111141760D01*
X125730102Y-111188067D01*
X125735189Y-111214763D01*
X125748972Y-111224971D01*
X125775785Y-111226612D01*
X125814174Y-111234343D01*
X125864040Y-111263073D01*
X125903807Y-111304674D01*
X125922848Y-111350214D01*
X125926398Y-111369944D01*
X125937959Y-111386450D01*
X125964797Y-111395417D01*
X126015128Y-111401405D01*
X126025184Y-111402369D01*
X126085531Y-111410931D01*
X126121056Y-111424330D01*
X126137881Y-111446405D01*
X126142128Y-111480991D01*
X126139949Y-111502801D01*
X126120326Y-111535893D01*
X126077542Y-111554294D01*
X126008235Y-111559988D01*
X125987254Y-111560165D01*
X125953007Y-111563688D01*
X125938658Y-111575315D01*
X125935753Y-111599675D01*
X125936890Y-111618067D01*
X125945998Y-111632384D01*
X125971030Y-111638239D01*
X126019891Y-111639362D01*
X126063562Y-111641183D01*
X126110544Y-111652952D01*
X126135066Y-111678557D01*
X126142128Y-111721354D01*
X126140418Y-111739859D01*
X126121136Y-111773347D01*
X126078057Y-111792203D01*
X126008235Y-111798112D01*
X125987254Y-111798290D01*
X125953007Y-111801813D01*
X125938658Y-111813440D01*
X125935753Y-111837800D01*
X125936890Y-111856192D01*
X125945998Y-111870509D01*
X125971030Y-111876364D01*
X126019891Y-111877487D01*
X126048632Y-111878246D01*
X126103253Y-111887906D01*
X126133045Y-111910453D01*
X126141885Y-111948131D01*
X126139681Y-111972888D01*
X126123499Y-112004547D01*
X126086942Y-112023202D01*
X126024527Y-112032807D01*
X126004622Y-112034616D01*
X125961644Y-112041360D01*
X125941047Y-112052152D01*
X125935753Y-112069953D01*
X125935756Y-112070536D01*
X125941337Y-112088896D01*
X125962896Y-112097561D01*
X126008235Y-112099737D01*
X126040513Y-112100718D01*
X126098929Y-112111772D01*
X126131820Y-112136469D01*
X126142128Y-112176496D01*
X126139522Y-112205287D01*
X126122139Y-112237084D01*
X126084128Y-112253697D01*
X126020503Y-112258487D01*
X125936977Y-112258487D01*
X125919684Y-112322712D01*
X125913839Y-112340111D01*
X125877788Y-112395447D01*
X125825114Y-112434245D01*
X125765097Y-112448928D01*
X125757646Y-112449138D01*
X125739208Y-112455450D01*
X125731153Y-112476785D01*
X125729378Y-112521469D01*
X125728398Y-112553747D01*
X125717344Y-112612163D01*
X125692647Y-112645054D01*
X125652620Y-112655362D01*
X125623327Y-112652649D01*
X125591814Y-112635103D01*
X125575366Y-112596929D01*
X125570628Y-112533125D01*
X125570093Y-112494135D01*
X125565796Y-112463783D01*
X125553989Y-112451369D01*
X125530941Y-112448987D01*
X125512549Y-112450124D01*
X125498232Y-112459232D01*
X125492377Y-112484264D01*
X125491253Y-112533125D01*
X125489681Y-112573928D01*
X125478370Y-112622385D01*
X125453480Y-112647922D01*
X125411878Y-112655362D01*
X125385383Y-112652941D01*
X125353918Y-112635522D01*
X125337335Y-112597191D01*
X125332503Y-112533125D01*
X125332253Y-112507305D01*
X125328909Y-112469817D01*
X125319369Y-112452923D01*
X125300753Y-112448987D01*
X125282861Y-112452332D01*
X125271761Y-112470324D01*
X125269003Y-112511454D01*
X125266665Y-112562442D01*
X125253359Y-112616427D01*
X125226431Y-112646219D01*
X125183782Y-112655362D01*
X125174818Y-112655226D01*
X125141340Y-112649237D01*
X125121745Y-112629936D01*
X125112545Y-112591240D01*
X125110253Y-112527064D01*
X125109918Y-112497204D01*
X125105996Y-112464963D01*
X125094265Y-112451618D01*
X125070566Y-112448987D01*
X125059078Y-112449311D01*
X125040326Y-112455746D01*
X125032469Y-112476980D01*
X125030878Y-112521469D01*
X125029898Y-112553747D01*
X125018844Y-112612163D01*
X124994147Y-112645054D01*
X124954120Y-112655362D01*
X124927402Y-112653169D01*
X124894435Y-112636441D01*
X124877140Y-112599087D01*
X124872128Y-112536180D01*
X124871411Y-112496111D01*
X124865135Y-112464901D01*
X124847112Y-112445913D01*
X124811163Y-112428200D01*
X124770160Y-112403453D01*
X124728294Y-112352280D01*
X124713378Y-112289491D01*
X124712277Y-112278169D01*
X124702023Y-112265539D01*
X124674841Y-112259827D01*
X124623347Y-112258487D01*
X124608500Y-112258314D01*
X124543410Y-112250956D01*
X124504285Y-112232215D01*
X124503278Y-112231294D01*
X124478068Y-112193701D01*
X124481109Y-112158085D01*
X124509033Y-112128112D01*
X124558474Y-112107441D01*
X124626066Y-112099737D01*
X124669672Y-112099087D01*
X124699133Y-112094615D01*
X124711112Y-112082780D01*
X124713378Y-112060050D01*
X124713378Y-112059486D01*
X124711220Y-112037627D01*
X124699813Y-112025928D01*
X124671660Y-112021227D01*
X124619262Y-112020362D01*
X124560184Y-112015973D01*
X124506585Y-111999024D01*
X124478529Y-111971439D01*
X124478005Y-111935468D01*
X124507003Y-111893362D01*
X124526824Y-111878041D01*
X124565946Y-111865271D01*
X124626066Y-111861612D01*
X124669672Y-111860962D01*
X124699133Y-111856490D01*
X124711112Y-111844655D01*
X124713378Y-111821925D01*
X124713326Y-111815765D01*
X124710129Y-111796925D01*
X124696762Y-111786911D01*
X124666033Y-111782942D01*
X124610750Y-111782237D01*
X124568425Y-111781626D01*
X124527693Y-111777419D01*
X124504389Y-111767159D01*
X124490054Y-111748479D01*
X124480450Y-111720356D01*
X124489155Y-111677042D01*
X124500724Y-111657544D01*
X124519447Y-111645687D01*
X124553009Y-111640504D01*
X124609851Y-111639362D01*
X124627265Y-111639338D01*
X124675682Y-111638068D01*
X124701399Y-111632865D01*
X124711577Y-111620982D01*
X124713378Y-111599675D01*
X124713377Y-111598548D01*
X124711129Y-111576992D01*
X124699546Y-111565462D01*
X124671157Y-111560835D01*
X124618494Y-111559987D01*
X124580937Y-111559436D01*
X124540741Y-111554849D01*
X124516239Y-111542879D01*
X124497606Y-111520300D01*
X124483526Y-111496426D01*
X124480809Y-111471996D01*
X124497606Y-111440925D01*
X124509118Y-111425367D01*
X124530277Y-111409811D01*
X124563460Y-111402843D01*
X124618494Y-111401237D01*
X124623482Y-111401236D01*
X124674030Y-111400254D01*
X124700876Y-111395258D01*
X124711499Y-111383025D01*
X124713378Y-111360329D01*
X124713605Y-111355607D01*
X124728835Y-111314352D01*
X124761183Y-111272354D01*
X124801130Y-111239735D01*
X124839157Y-111226612D01*
X124851248Y-111225667D01*
X124864795Y-111216238D01*
X124870782Y-111190371D01*
X124872128Y-111140434D01*
X124872430Y-111123810D01*
X124883109Y-111057033D01*
X124909346Y-111017426D01*
X124951503Y-111004362D01*
X124961201Y-111004879D01*
X125000154Y-111023187D01*
X125023258Y-111068164D01*
X125030878Y-111140434D01*
X125031487Y-111182403D01*
X125035898Y-111212175D01*
X125047724Y-111224306D01*
X125070566Y-111226612D01*
X125092708Y-111224547D01*
X125104591Y-111213327D01*
X125109372Y-111185423D01*
X125110253Y-111133306D01*
X125112718Y-111081977D01*
X125125584Y-111033461D01*
X125151397Y-111009618D01*
X125192326Y-111007113D01*
X125202079Y-111009364D01*
X125237372Y-111036305D01*
X125260389Y-111087795D01*
X125268769Y-111159144D01*
X125271072Y-111201090D01*
X125280439Y-111221598D01*
X125300753Y-111226612D01*
X125311411Y-111225781D01*
X125324987Y-111216419D01*
X125331089Y-111190492D01*
X125332503Y-111140434D01*
X125332805Y-111123810D01*
X125343484Y-111057033D01*
X125369721Y-111017426D01*
X125411878Y-111004362D01*
X125421576Y-111004879D01*
X125460529Y-111023187D01*
X125483633Y-111068164D01*
X125491253Y-111140434D01*
X125491862Y-111182403D01*
X125496273Y-111212175D01*
X125508099Y-111224306D01*
X125530941Y-111226612D01*
X125547445Y-111225782D01*
X125562980Y-111217529D01*
X125569380Y-111193690D01*
X125570628Y-111146194D01*
X125571014Y-111124551D01*
X125580241Y-111056987D01*
X125602185Y-111017320D01*
X125637406Y-111004362D01*
X125652086Y-111005274D01*
G37*
X125652086Y-111005274D02*
X125695278Y-111024769D01*
X125720917Y-111070076D01*
X125729378Y-111141760D01*
X125730102Y-111188067D01*
X125735189Y-111214763D01*
X125748972Y-111224971D01*
X125775785Y-111226612D01*
X125814174Y-111234343D01*
X125864040Y-111263073D01*
X125903807Y-111304674D01*
X125922848Y-111350214D01*
X125926398Y-111369944D01*
X125937959Y-111386450D01*
X125964797Y-111395417D01*
X126015128Y-111401405D01*
X126025184Y-111402369D01*
X126085531Y-111410931D01*
X126121056Y-111424330D01*
X126137881Y-111446405D01*
X126142128Y-111480991D01*
X126139949Y-111502801D01*
X126120326Y-111535893D01*
X126077542Y-111554294D01*
X126008235Y-111559988D01*
X125987254Y-111560165D01*
X125953007Y-111563688D01*
X125938658Y-111575315D01*
X125935753Y-111599675D01*
X125936890Y-111618067D01*
X125945998Y-111632384D01*
X125971030Y-111638239D01*
X126019891Y-111639362D01*
X126063562Y-111641183D01*
X126110544Y-111652952D01*
X126135066Y-111678557D01*
X126142128Y-111721354D01*
X126140418Y-111739859D01*
X126121136Y-111773347D01*
X126078057Y-111792203D01*
X126008235Y-111798112D01*
X125987254Y-111798290D01*
X125953007Y-111801813D01*
X125938658Y-111813440D01*
X125935753Y-111837800D01*
X125936890Y-111856192D01*
X125945998Y-111870509D01*
X125971030Y-111876364D01*
X126019891Y-111877487D01*
X126048632Y-111878246D01*
X126103253Y-111887906D01*
X126133045Y-111910453D01*
X126141885Y-111948131D01*
X126139681Y-111972888D01*
X126123499Y-112004547D01*
X126086942Y-112023202D01*
X126024527Y-112032807D01*
X126004622Y-112034616D01*
X125961644Y-112041360D01*
X125941047Y-112052152D01*
X125935753Y-112069953D01*
X125935756Y-112070536D01*
X125941337Y-112088896D01*
X125962896Y-112097561D01*
X126008235Y-112099737D01*
X126040513Y-112100718D01*
X126098929Y-112111772D01*
X126131820Y-112136469D01*
X126142128Y-112176496D01*
X126139522Y-112205287D01*
X126122139Y-112237084D01*
X126084128Y-112253697D01*
X126020503Y-112258487D01*
X125936977Y-112258487D01*
X125919684Y-112322712D01*
X125913839Y-112340111D01*
X125877788Y-112395447D01*
X125825114Y-112434245D01*
X125765097Y-112448928D01*
X125757646Y-112449138D01*
X125739208Y-112455450D01*
X125731153Y-112476785D01*
X125729378Y-112521469D01*
X125728398Y-112553747D01*
X125717344Y-112612163D01*
X125692647Y-112645054D01*
X125652620Y-112655362D01*
X125623327Y-112652649D01*
X125591814Y-112635103D01*
X125575366Y-112596929D01*
X125570628Y-112533125D01*
X125570093Y-112494135D01*
X125565796Y-112463783D01*
X125553989Y-112451369D01*
X125530941Y-112448987D01*
X125512549Y-112450124D01*
X125498232Y-112459232D01*
X125492377Y-112484264D01*
X125491253Y-112533125D01*
X125489681Y-112573928D01*
X125478370Y-112622385D01*
X125453480Y-112647922D01*
X125411878Y-112655362D01*
X125385383Y-112652941D01*
X125353918Y-112635522D01*
X125337335Y-112597191D01*
X125332503Y-112533125D01*
X125332253Y-112507305D01*
X125328909Y-112469817D01*
X125319369Y-112452923D01*
X125300753Y-112448987D01*
X125282861Y-112452332D01*
X125271761Y-112470324D01*
X125269003Y-112511454D01*
X125266665Y-112562442D01*
X125253359Y-112616427D01*
X125226431Y-112646219D01*
X125183782Y-112655362D01*
X125174818Y-112655226D01*
X125141340Y-112649237D01*
X125121745Y-112629936D01*
X125112545Y-112591240D01*
X125110253Y-112527064D01*
X125109918Y-112497204D01*
X125105996Y-112464963D01*
X125094265Y-112451618D01*
X125070566Y-112448987D01*
X125059078Y-112449311D01*
X125040326Y-112455746D01*
X125032469Y-112476980D01*
X125030878Y-112521469D01*
X125029898Y-112553747D01*
X125018844Y-112612163D01*
X124994147Y-112645054D01*
X124954120Y-112655362D01*
X124927402Y-112653169D01*
X124894435Y-112636441D01*
X124877140Y-112599087D01*
X124872128Y-112536180D01*
X124871411Y-112496111D01*
X124865135Y-112464901D01*
X124847112Y-112445913D01*
X124811163Y-112428200D01*
X124770160Y-112403453D01*
X124728294Y-112352280D01*
X124713378Y-112289491D01*
X124712277Y-112278169D01*
X124702023Y-112265539D01*
X124674841Y-112259827D01*
X124623347Y-112258487D01*
X124608500Y-112258314D01*
X124543410Y-112250956D01*
X124504285Y-112232215D01*
X124503278Y-112231294D01*
X124478068Y-112193701D01*
X124481109Y-112158085D01*
X124509033Y-112128112D01*
X124558474Y-112107441D01*
X124626066Y-112099737D01*
X124669672Y-112099087D01*
X124699133Y-112094615D01*
X124711112Y-112082780D01*
X124713378Y-112060050D01*
X124713378Y-112059486D01*
X124711220Y-112037627D01*
X124699813Y-112025928D01*
X124671660Y-112021227D01*
X124619262Y-112020362D01*
X124560184Y-112015973D01*
X124506585Y-111999024D01*
X124478529Y-111971439D01*
X124478005Y-111935468D01*
X124507003Y-111893362D01*
X124526824Y-111878041D01*
X124565946Y-111865271D01*
X124626066Y-111861612D01*
X124669672Y-111860962D01*
X124699133Y-111856490D01*
X124711112Y-111844655D01*
X124713378Y-111821925D01*
X124713326Y-111815765D01*
X124710129Y-111796925D01*
X124696762Y-111786911D01*
X124666033Y-111782942D01*
X124610750Y-111782237D01*
X124568425Y-111781626D01*
X124527693Y-111777419D01*
X124504389Y-111767159D01*
X124490054Y-111748479D01*
X124480450Y-111720356D01*
X124489155Y-111677042D01*
X124500724Y-111657544D01*
X124519447Y-111645687D01*
X124553009Y-111640504D01*
X124609851Y-111639362D01*
X124627265Y-111639338D01*
X124675682Y-111638068D01*
X124701399Y-111632865D01*
X124711577Y-111620982D01*
X124713378Y-111599675D01*
X124713377Y-111598548D01*
X124711129Y-111576992D01*
X124699546Y-111565462D01*
X124671157Y-111560835D01*
X124618494Y-111559987D01*
X124580937Y-111559436D01*
X124540741Y-111554849D01*
X124516239Y-111542879D01*
X124497606Y-111520300D01*
X124483526Y-111496426D01*
X124480809Y-111471996D01*
X124497606Y-111440925D01*
X124509118Y-111425367D01*
X124530277Y-111409811D01*
X124563460Y-111402843D01*
X124618494Y-111401237D01*
X124623482Y-111401236D01*
X124674030Y-111400254D01*
X124700876Y-111395258D01*
X124711499Y-111383025D01*
X124713378Y-111360329D01*
X124713605Y-111355607D01*
X124728835Y-111314352D01*
X124761183Y-111272354D01*
X124801130Y-111239735D01*
X124839157Y-111226612D01*
X124851248Y-111225667D01*
X124864795Y-111216238D01*
X124870782Y-111190371D01*
X124872128Y-111140434D01*
X124872430Y-111123810D01*
X124883109Y-111057033D01*
X124909346Y-111017426D01*
X124951503Y-111004362D01*
X124961201Y-111004879D01*
X125000154Y-111023187D01*
X125023258Y-111068164D01*
X125030878Y-111140434D01*
X125031487Y-111182403D01*
X125035898Y-111212175D01*
X125047724Y-111224306D01*
X125070566Y-111226612D01*
X125092708Y-111224547D01*
X125104591Y-111213327D01*
X125109372Y-111185423D01*
X125110253Y-111133306D01*
X125112718Y-111081977D01*
X125125584Y-111033461D01*
X125151397Y-111009618D01*
X125192326Y-111007113D01*
X125202079Y-111009364D01*
X125237372Y-111036305D01*
X125260389Y-111087795D01*
X125268769Y-111159144D01*
X125271072Y-111201090D01*
X125280439Y-111221598D01*
X125300753Y-111226612D01*
X125311411Y-111225781D01*
X125324987Y-111216419D01*
X125331089Y-111190492D01*
X125332503Y-111140434D01*
X125332805Y-111123810D01*
X125343484Y-111057033D01*
X125369721Y-111017426D01*
X125411878Y-111004362D01*
X125421576Y-111004879D01*
X125460529Y-111023187D01*
X125483633Y-111068164D01*
X125491253Y-111140434D01*
X125491862Y-111182403D01*
X125496273Y-111212175D01*
X125508099Y-111224306D01*
X125530941Y-111226612D01*
X125547445Y-111225782D01*
X125562980Y-111217529D01*
X125569380Y-111193690D01*
X125570628Y-111146194D01*
X125571014Y-111124551D01*
X125580241Y-111056987D01*
X125602185Y-111017320D01*
X125637406Y-111004362D01*
X125652086Y-111005274D01*
%TD*%
%LPC*%
D20*
%TO.C,U1*%
X133225913Y-100787913D03*
X130685913Y-100787913D03*
X128145913Y-100787913D03*
X125605913Y-100787913D03*
X123065913Y-100787913D03*
X120525913Y-100787913D03*
X117985913Y-100787913D03*
X117985913Y-117787913D03*
X120525913Y-117787913D03*
X123065913Y-117787913D03*
X125605913Y-117787913D03*
X128145913Y-117787913D03*
X130685913Y-117787913D03*
X133225913Y-117787913D03*
D21*
X131956746Y-108017914D03*
X131931700Y-110557914D03*
X134471700Y-110557914D03*
X134471700Y-108017914D03*
%TD*%
D22*
%TO.C,H2*%
X120250000Y-124150000D03*
%TD*%
D23*
%TO.C,J6*%
X129649999Y-122449999D03*
D24*
X130649999Y-122449999D03*
X131649999Y-122449999D03*
X132649999Y-122449999D03*
X133649999Y-122449999D03*
%TD*%
D25*
%TO.C,J4*%
X127164999Y-127579999D03*
D26*
X129705000Y-127580000D03*
X132245000Y-127580000D03*
X134785000Y-127580000D03*
%TD*%
D25*
%TO.C,J3*%
X134269999Y-97739999D03*
D26*
X131730000Y-97740000D03*
X129190000Y-97740000D03*
X126650000Y-97740000D03*
X124110000Y-97740000D03*
X121570000Y-97740000D03*
X119030000Y-97740000D03*
X116490000Y-97740000D03*
X113950000Y-97740000D03*
%TD*%
D27*
%TO.C,GN1*%
X113139999Y-117779999D03*
D28*
X113139999Y-115239999D03*
D27*
X113139999Y-112699999D03*
X113139999Y-110159999D03*
X113139999Y-107619999D03*
X113139999Y-105079999D03*
X113139999Y-102539999D03*
%TD*%
D29*
%TO.C,J2*%
X120250000Y-127050000D03*
X114500000Y-127050000D03*
%TD*%
D22*
%TO.C,H1*%
X114500000Y-124150000D03*
%TD*%
D29*
%TO.C,J1*%
X120230000Y-124130000D03*
X114480000Y-124130000D03*
%TD*%
D30*
%TO.C,REF42*%
X123719999Y-125029999D03*
%TD*%
D31*
%TO.C,D3*%
X119399999Y-121559999D03*
X115399999Y-121559999D03*
%TD*%
M02*
