  0
SECTION
  2
HEADER
  9
$ANGBASE
  50
0.0
  9
$ANGDIR
  70
1
  9
$MEASUREMENT
  70
1
  0
ENDSEC
  0
SECTION
  2
TABLES
  0
TABLE
  2
LTYPE
  70
4
  0
LTYPE
  5
40F
  2
CONTINUOUS
  70
0
  3
Solid line
  72
65
  73
0
  40
0.0
  0
LTYPE
  5
410
  2
DASHDOT
 70
0
  3
Dash Dot ____ _ ____ _
 72
65
 73
4
 40
2.0
 49
1.25
 49
-0.25
 49
0.25
 49
-0.25
  0
LTYPE
  5
411
  2
DASHED
 70
0
  3
Dashed __ __ __ __ __
 72
65
 73
2
 40
0.75
 49
0.5
 49
-0.25
  0
LTYPE
  5
43B
  2
DOTTED
 70
0
  3
Dotted .  .  .  .
 72
65
 73
2
 40
0.2
 49
0.0
 49
-0.2
  0
ENDTAB
  0
TABLE
  2
STYLE
  70
4
  0
STYLE
  2
KICAD
  70
0
  40
0
  41
1
  42
1
  50
0
  71
0
  3
isocp.shx
  0
STYLE
  2
KICADB
  70
0
  40
0
  41
1
  42
1
  50
0
  71
0
  3
isocp.shx
  0
STYLE
  2
KICADI
  70
0
  40
0
  41
1
  42
1
  50
15
  71
0
  3
isocp.shx
  0
STYLE
  2
KICADBI
  70
0
  40
0
  41
1
  42
1
  50
15
  71
0
  3
isocp.shx
  0
ENDTAB
  0
TABLE
  2
LAYER
  70
1
  0
LAYER
  2
BLACK
  70
0
  62
7
  6
CONTINUOUS
  0
ENDTAB
  0
ENDSEC
  0
SECTION
  2
ENTITIES
0
LINE
8
BLACK
6
CONTINUOUS
10
134.358
20
-127.95
11
133.358
21
-127.95
0
LINE
8
BLACK
6
CONTINUOUS
10
133.358
20
-127.95
11
133.358
21
-126.95
0
LINE
8
BLACK
6
CONTINUOUS
10
133.358
20
-126.95
11
134.358
21
-126.95
0
LINE
8
BLACK
6
CONTINUOUS
10
134.358
20
-126.95
11
134.358
21
-127.95
0
LINE
8
BLACK
6
CONTINUOUS
10
132.796
20
-126.995
11
132.915
21
-127.072
0
LINE
8
BLACK
6
CONTINUOUS
10
132.915
20
-127.072
11
133.009
21
-127.18
0
LINE
8
BLACK
6
CONTINUOUS
10
133.009
20
-127.18
11
133.068
21
-127.309
0
LINE
8
BLACK
6
CONTINUOUS
10
133.068
20
-127.309
11
133.088
21
-127.45
0
LINE
8
BLACK
6
CONTINUOUS
10
133.088
20
-127.45
11
133.068
21
-127.591
0
LINE
8
BLACK
6
CONTINUOUS
10
133.068
20
-127.591
11
133.009
21
-127.72
0
LINE
8
BLACK
6
CONTINUOUS
10
133.009
20
-127.72
11
132.915
21
-127.828
0
LINE
8
BLACK
6
CONTINUOUS
10
132.915
20
-127.828
11
132.796
21
-127.905
0
LINE
8
BLACK
6
CONTINUOUS
10
132.796
20
-127.905
11
132.659
21
-127.945
0
LINE
8
BLACK
6
CONTINUOUS
10
132.659
20
-127.945
11
132.517
21
-127.945
0
LINE
8
BLACK
6
CONTINUOUS
10
132.517
20
-127.945
11
132.38
21
-127.905
0
LINE
8
BLACK
6
CONTINUOUS
10
132.38
20
-127.905
11
132.261
21
-127.828
0
LINE
8
BLACK
6
CONTINUOUS
10
132.261
20
-127.828
11
132.167
21
-127.72
0
LINE
8
BLACK
6
CONTINUOUS
10
132.167
20
-127.72
11
132.108
21
-127.591
0
LINE
8
BLACK
6
CONTINUOUS
10
132.108
20
-127.591
11
132.088
21
-127.45
0
LINE
8
BLACK
6
CONTINUOUS
10
132.088
20
-127.45
11
132.108
21
-127.309
0
LINE
8
BLACK
6
CONTINUOUS
10
132.108
20
-127.309
11
132.167
21
-127.18
0
LINE
8
BLACK
6
CONTINUOUS
10
132.167
20
-127.18
11
132.261
21
-127.072
0
LINE
8
BLACK
6
CONTINUOUS
10
132.261
20
-127.072
11
132.38
21
-126.995
0
LINE
8
BLACK
6
CONTINUOUS
10
132.38
20
-126.995
11
132.517
21
-126.955
0
LINE
8
BLACK
6
CONTINUOUS
10
132.517
20
-126.955
11
132.659
21
-126.955
0
LINE
8
BLACK
6
CONTINUOUS
10
132.659
20
-126.955
11
132.796
21
-126.995
0
LINE
8
BLACK
6
CONTINUOUS
10
131.526
20
-126.995
11
131.645
21
-127.072
0
LINE
8
BLACK
6
CONTINUOUS
10
131.645
20
-127.072
11
131.739
21
-127.18
0
LINE
8
BLACK
6
CONTINUOUS
10
131.739
20
-127.18
11
131.798
21
-127.309
0
LINE
8
BLACK
6
CONTINUOUS
10
131.798
20
-127.309
11
131.818
21
-127.45
0
LINE
8
BLACK
6
CONTINUOUS
10
131.818
20
-127.45
11
131.798
21
-127.591
0
LINE
8
BLACK
6
CONTINUOUS
10
131.798
20
-127.591
11
131.739
21
-127.72
0
LINE
8
BLACK
6
CONTINUOUS
10
131.739
20
-127.72
11
131.645
21
-127.828
0
LINE
8
BLACK
6
CONTINUOUS
10
131.645
20
-127.828
11
131.526
21
-127.905
0
LINE
8
BLACK
6
CONTINUOUS
10
131.526
20
-127.905
11
131.389
21
-127.945
0
LINE
8
BLACK
6
CONTINUOUS
10
131.389
20
-127.945
11
131.247
21
-127.945
0
LINE
8
BLACK
6
CONTINUOUS
10
131.247
20
-127.945
11
131.11
21
-127.905
0
LINE
8
BLACK
6
CONTINUOUS
10
131.11
20
-127.905
11
130.991
21
-127.828
0
LINE
8
BLACK
6
CONTINUOUS
10
130.991
20
-127.828
11
130.897
21
-127.72
0
LINE
8
BLACK
6
CONTINUOUS
10
130.897
20
-127.72
11
130.838
21
-127.591
0
LINE
8
BLACK
6
CONTINUOUS
10
130.838
20
-127.591
11
130.818
21
-127.45
0
LINE
8
BLACK
6
CONTINUOUS
10
130.818
20
-127.45
11
130.838
21
-127.309
0
LINE
8
BLACK
6
CONTINUOUS
10
130.838
20
-127.309
11
130.897
21
-127.18
0
LINE
8
BLACK
6
CONTINUOUS
10
130.897
20
-127.18
11
130.991
21
-127.072
0
LINE
8
BLACK
6
CONTINUOUS
10
130.991
20
-127.072
11
131.11
21
-126.995
0
LINE
8
BLACK
6
CONTINUOUS
10
131.11
20
-126.995
11
131.247
21
-126.955
0
LINE
8
BLACK
6
CONTINUOUS
10
131.247
20
-126.955
11
131.389
21
-126.955
0
LINE
8
BLACK
6
CONTINUOUS
10
131.389
20
-126.955
11
131.526
21
-126.995
0
LINE
8
BLACK
6
CONTINUOUS
10
130.256
20
-126.995
11
130.375
21
-127.072
0
LINE
8
BLACK
6
CONTINUOUS
10
130.375
20
-127.072
11
130.469
21
-127.18
0
LINE
8
BLACK
6
CONTINUOUS
10
130.469
20
-127.18
11
130.528
21
-127.309
0
LINE
8
BLACK
6
CONTINUOUS
10
130.528
20
-127.309
11
130.548
21
-127.45
0
LINE
8
BLACK
6
CONTINUOUS
10
130.548
20
-127.45
11
130.528
21
-127.591
0
LINE
8
BLACK
6
CONTINUOUS
10
130.528
20
-127.591
11
130.469
21
-127.72
0
LINE
8
BLACK
6
CONTINUOUS
10
130.469
20
-127.72
11
130.375
21
-127.828
0
LINE
8
BLACK
6
CONTINUOUS
10
130.375
20
-127.828
11
130.256
21
-127.905
0
LINE
8
BLACK
6
CONTINUOUS
10
130.256
20
-127.905
11
130.119
21
-127.945
0
LINE
8
BLACK
6
CONTINUOUS
10
130.119
20
-127.945
11
129.977
21
-127.945
0
LINE
8
BLACK
6
CONTINUOUS
10
129.977
20
-127.945
11
129.84
21
-127.905
0
LINE
8
BLACK
6
CONTINUOUS
10
129.84
20
-127.905
11
129.721
21
-127.828
0
LINE
8
BLACK
6
CONTINUOUS
10
129.721
20
-127.828
11
129.627
21
-127.72
0
LINE
8
BLACK
6
CONTINUOUS
10
129.627
20
-127.72
11
129.568
21
-127.591
0
LINE
8
BLACK
6
CONTINUOUS
10
129.568
20
-127.591
11
129.548
21
-127.45
0
LINE
8
BLACK
6
CONTINUOUS
10
129.548
20
-127.45
11
129.568
21
-127.309
0
LINE
8
BLACK
6
CONTINUOUS
10
129.568
20
-127.309
11
129.627
21
-127.18
0
LINE
8
BLACK
6
CONTINUOUS
10
129.627
20
-127.18
11
129.721
21
-127.072
0
LINE
8
BLACK
6
CONTINUOUS
10
129.721
20
-127.072
11
129.84
21
-126.995
0
LINE
8
BLACK
6
CONTINUOUS
10
129.84
20
-126.995
11
129.977
21
-126.955
0
LINE
8
BLACK
6
CONTINUOUS
10
129.977
20
-126.955
11
130.119
21
-126.955
0
LINE
8
BLACK
6
CONTINUOUS
10
130.119
20
-126.955
11
130.256
21
-126.995
0
LINE
8
BLACK
6
CONTINUOUS
10
128.986
20
-126.995
11
129.105
21
-127.072
0
LINE
8
BLACK
6
CONTINUOUS
10
129.105
20
-127.072
11
129.199
21
-127.18
0
LINE
8
BLACK
6
CONTINUOUS
10
129.199
20
-127.18
11
129.258
21
-127.309
0
LINE
8
BLACK
6
CONTINUOUS
10
129.258
20
-127.309
11
129.278
21
-127.45
0
LINE
8
BLACK
6
CONTINUOUS
10
129.278
20
-127.45
11
129.258
21
-127.591
0
LINE
8
BLACK
6
CONTINUOUS
10
129.258
20
-127.591
11
129.199
21
-127.72
0
LINE
8
BLACK
6
CONTINUOUS
10
129.199
20
-127.72
11
129.105
21
-127.828
0
LINE
8
BLACK
6
CONTINUOUS
10
129.105
20
-127.828
11
128.986
21
-127.905
0
LINE
8
BLACK
6
CONTINUOUS
10
128.986
20
-127.905
11
128.849
21
-127.945
0
LINE
8
BLACK
6
CONTINUOUS
10
128.849
20
-127.945
11
128.707
21
-127.945
0
LINE
8
BLACK
6
CONTINUOUS
10
128.707
20
-127.945
11
128.57
21
-127.905
0
LINE
8
BLACK
6
CONTINUOUS
10
128.57
20
-127.905
11
128.451
21
-127.828
0
LINE
8
BLACK
6
CONTINUOUS
10
128.451
20
-127.828
11
128.357
21
-127.72
0
LINE
8
BLACK
6
CONTINUOUS
10
128.357
20
-127.72
11
128.298
21
-127.591
0
LINE
8
BLACK
6
CONTINUOUS
10
128.298
20
-127.591
11
128.278
21
-127.45
0
LINE
8
BLACK
6
CONTINUOUS
10
128.278
20
-127.45
11
128.298
21
-127.309
0
LINE
8
BLACK
6
CONTINUOUS
10
128.298
20
-127.309
11
128.357
21
-127.18
0
LINE
8
BLACK
6
CONTINUOUS
10
128.357
20
-127.18
11
128.451
21
-127.072
0
LINE
8
BLACK
6
CONTINUOUS
10
128.451
20
-127.072
11
128.57
21
-126.995
0
LINE
8
BLACK
6
CONTINUOUS
10
128.57
20
-126.995
11
128.707
21
-126.955
0
LINE
8
BLACK
6
CONTINUOUS
10
128.707
20
-126.955
11
128.849
21
-126.955
0
LINE
8
BLACK
6
CONTINUOUS
10
128.849
20
-126.955
11
128.986
21
-126.995
0
LINE
8
BLACK
6
CONTINUOUS
10
113.403
20
-115.382
11
113.565
21
-115.454
0
LINE
8
BLACK
6
CONTINUOUS
10
113.565
20
-115.454
11
113.709
21
-115.558
0
LINE
8
BLACK
6
CONTINUOUS
10
113.709
20
-115.558
11
113.828
21
-115.69
0
LINE
8
BLACK
6
CONTINUOUS
10
113.828
20
-115.69
11
113.917
21
-115.844
0
LINE
8
BLACK
6
CONTINUOUS
10
113.917
20
-115.844
11
113.971
21
-116.013
0
LINE
8
BLACK
6
CONTINUOUS
10
113.971
20
-116.013
11
113.99
21
-116.19
0
LINE
8
BLACK
6
CONTINUOUS
10
113.99
20
-116.19
11
113.971
21
-116.367
0
LINE
8
BLACK
6
CONTINUOUS
10
113.971
20
-116.367
11
113.917
21
-116.536
0
LINE
8
BLACK
6
CONTINUOUS
10
113.917
20
-116.536
11
113.828
21
-116.69
0
LINE
8
BLACK
6
CONTINUOUS
10
113.828
20
-116.69
11
113.709
21
-116.822
0
LINE
8
BLACK
6
CONTINUOUS
10
113.709
20
-116.822
11
113.565
21
-116.926
0
LINE
8
BLACK
6
CONTINUOUS
10
113.565
20
-116.926
11
113.403
21
-116.998
0
LINE
8
BLACK
6
CONTINUOUS
10
113.403
20
-116.998
11
113.229
21
-117.035
0
LINE
8
BLACK
6
CONTINUOUS
10
113.229
20
-117.035
11
113.051
21
-117.035
0
LINE
8
BLACK
6
CONTINUOUS
10
113.051
20
-117.035
11
112.877
21
-116.998
0
LINE
8
BLACK
6
CONTINUOUS
10
112.877
20
-116.998
11
112.715
21
-116.926
0
LINE
8
BLACK
6
CONTINUOUS
10
112.715
20
-116.926
11
112.571
21
-116.822
0
LINE
8
BLACK
6
CONTINUOUS
10
112.571
20
-116.822
11
112.452
21
-116.69
0
LINE
8
BLACK
6
CONTINUOUS
10
112.452
20
-116.69
11
112.363
21
-116.536
0
LINE
8
BLACK
6
CONTINUOUS
10
112.363
20
-116.536
11
112.309
21
-116.367
0
LINE
8
BLACK
6
CONTINUOUS
10
112.309
20
-116.367
11
112.29
21
-116.19
0
LINE
8
BLACK
6
CONTINUOUS
10
112.29
20
-116.19
11
112.309
21
-116.013
0
LINE
8
BLACK
6
CONTINUOUS
10
112.309
20
-116.013
11
112.363
21
-115.844
0
LINE
8
BLACK
6
CONTINUOUS
10
112.363
20
-115.844
11
112.452
21
-115.69
0
LINE
8
BLACK
6
CONTINUOUS
10
112.452
20
-115.69
11
112.571
21
-115.558
0
LINE
8
BLACK
6
CONTINUOUS
10
112.571
20
-115.558
11
112.715
21
-115.454
0
LINE
8
BLACK
6
CONTINUOUS
10
112.715
20
-115.454
11
112.877
21
-115.382
0
LINE
8
BLACK
6
CONTINUOUS
10
112.877
20
-115.382
11
113.051
21
-115.345
0
LINE
8
BLACK
6
CONTINUOUS
10
113.051
20
-115.345
11
113.229
21
-115.345
0
LINE
8
BLACK
6
CONTINUOUS
10
113.229
20
-115.345
11
113.403
21
-115.382
0
LINE
8
BLACK
6
CONTINUOUS
10
113.99
20
-114.5
11
112.29
21
-114.5
0
LINE
8
BLACK
6
CONTINUOUS
10
112.29
20
-114.5
11
112.29
21
-112.8
0
LINE
8
BLACK
6
CONTINUOUS
10
112.29
20
-112.8
11
113.99
21
-112.8
0
LINE
8
BLACK
6
CONTINUOUS
10
113.99
20
-112.8
11
113.99
21
-114.5
0
LINE
8
BLACK
6
CONTINUOUS
10
113.403
20
-110.302
11
113.565
21
-110.374
0
LINE
8
BLACK
6
CONTINUOUS
10
113.565
20
-110.374
11
113.709
21
-110.478
0
LINE
8
BLACK
6
CONTINUOUS
10
113.709
20
-110.478
11
113.828
21
-110.61
0
LINE
8
BLACK
6
CONTINUOUS
10
113.828
20
-110.61
11
113.917
21
-110.764
0
LINE
8
BLACK
6
CONTINUOUS
10
113.917
20
-110.764
11
113.971
21
-110.933
0
LINE
8
BLACK
6
CONTINUOUS
10
113.971
20
-110.933
11
113.99
21
-111.11
0
LINE
8
BLACK
6
CONTINUOUS
10
113.99
20
-111.11
11
113.971
21
-111.287
0
LINE
8
BLACK
6
CONTINUOUS
10
113.971
20
-111.287
11
113.917
21
-111.456
0
LINE
8
BLACK
6
CONTINUOUS
10
113.917
20
-111.456
11
113.828
21
-111.61
0
LINE
8
BLACK
6
CONTINUOUS
10
113.828
20
-111.61
11
113.709
21
-111.742
0
LINE
8
BLACK
6
CONTINUOUS
10
113.709
20
-111.742
11
113.565
21
-111.846
0
LINE
8
BLACK
6
CONTINUOUS
10
113.565
20
-111.846
11
113.403
21
-111.918
0
LINE
8
BLACK
6
CONTINUOUS
10
113.403
20
-111.918
11
113.229
21
-111.955
0
LINE
8
BLACK
6
CONTINUOUS
10
113.229
20
-111.955
11
113.051
21
-111.955
0
LINE
8
BLACK
6
CONTINUOUS
10
113.051
20
-111.955
11
112.877
21
-111.918
0
LINE
8
BLACK
6
CONTINUOUS
10
112.877
20
-111.918
11
112.715
21
-111.846
0
LINE
8
BLACK
6
CONTINUOUS
10
112.715
20
-111.846
11
112.571
21
-111.742
0
LINE
8
BLACK
6
CONTINUOUS
10
112.571
20
-111.742
11
112.452
21
-111.61
0
LINE
8
BLACK
6
CONTINUOUS
10
112.452
20
-111.61
11
112.363
21
-111.456
0
LINE
8
BLACK
6
CONTINUOUS
10
112.363
20
-111.456
11
112.309
21
-111.287
0
LINE
8
BLACK
6
CONTINUOUS
10
112.309
20
-111.287
11
112.29
21
-111.11
0
LINE
8
BLACK
6
CONTINUOUS
10
112.29
20
-111.11
11
112.309
21
-110.933
0
LINE
8
BLACK
6
CONTINUOUS
10
112.309
20
-110.933
11
112.363
21
-110.764
0
LINE
8
BLACK
6
CONTINUOUS
10
112.363
20
-110.764
11
112.452
21
-110.61
0
LINE
8
BLACK
6
CONTINUOUS
10
112.452
20
-110.61
11
112.571
21
-110.478
0
LINE
8
BLACK
6
CONTINUOUS
10
112.571
20
-110.478
11
112.715
21
-110.374
0
LINE
8
BLACK
6
CONTINUOUS
10
112.715
20
-110.374
11
112.877
21
-110.302
0
LINE
8
BLACK
6
CONTINUOUS
10
112.877
20
-110.302
11
113.051
21
-110.265
0
LINE
8
BLACK
6
CONTINUOUS
10
113.051
20
-110.265
11
113.229
21
-110.265
0
LINE
8
BLACK
6
CONTINUOUS
10
113.229
20
-110.265
11
113.403
21
-110.302
0
LINE
8
BLACK
6
CONTINUOUS
10
113.403
20
-107.762
11
113.565
21
-107.834
0
LINE
8
BLACK
6
CONTINUOUS
10
113.565
20
-107.834
11
113.709
21
-107.938
0
LINE
8
BLACK
6
CONTINUOUS
10
113.709
20
-107.938
11
113.828
21
-108.07
0
LINE
8
BLACK
6
CONTINUOUS
10
113.828
20
-108.07
11
113.917
21
-108.224
0
LINE
8
BLACK
6
CONTINUOUS
10
113.917
20
-108.224
11
113.971
21
-108.393
0
LINE
8
BLACK
6
CONTINUOUS
10
113.971
20
-108.393
11
113.99
21
-108.57
0
LINE
8
BLACK
6
CONTINUOUS
10
113.99
20
-108.57
11
113.971
21
-108.747
0
LINE
8
BLACK
6
CONTINUOUS
10
113.971
20
-108.747
11
113.917
21
-108.916
0
LINE
8
BLACK
6
CONTINUOUS
10
113.917
20
-108.916
11
113.828
21
-109.07
0
LINE
8
BLACK
6
CONTINUOUS
10
113.828
20
-109.07
11
113.709
21
-109.202
0
LINE
8
BLACK
6
CONTINUOUS
10
113.709
20
-109.202
11
113.565
21
-109.306
0
LINE
8
BLACK
6
CONTINUOUS
10
113.565
20
-109.306
11
113.403
21
-109.378
0
LINE
8
BLACK
6
CONTINUOUS
10
113.403
20
-109.378
11
113.229
21
-109.415
0
LINE
8
BLACK
6
CONTINUOUS
10
113.229
20
-109.415
11
113.051
21
-109.415
0
LINE
8
BLACK
6
CONTINUOUS
10
113.051
20
-109.415
11
112.877
21
-109.378
0
LINE
8
BLACK
6
CONTINUOUS
10
112.877
20
-109.378
11
112.715
21
-109.306
0
LINE
8
BLACK
6
CONTINUOUS
10
112.715
20
-109.306
11
112.571
21
-109.202
0
LINE
8
BLACK
6
CONTINUOUS
10
112.571
20
-109.202
11
112.452
21
-109.07
0
LINE
8
BLACK
6
CONTINUOUS
10
112.452
20
-109.07
11
112.363
21
-108.916
0
LINE
8
BLACK
6
CONTINUOUS
10
112.363
20
-108.916
11
112.309
21
-108.747
0
LINE
8
BLACK
6
CONTINUOUS
10
112.309
20
-108.747
11
112.29
21
-108.57
0
LINE
8
BLACK
6
CONTINUOUS
10
112.29
20
-108.57
11
112.309
21
-108.393
0
LINE
8
BLACK
6
CONTINUOUS
10
112.309
20
-108.393
11
112.363
21
-108.224
0
LINE
8
BLACK
6
CONTINUOUS
10
112.363
20
-108.224
11
112.452
21
-108.07
0
LINE
8
BLACK
6
CONTINUOUS
10
112.452
20
-108.07
11
112.571
21
-107.938
0
LINE
8
BLACK
6
CONTINUOUS
10
112.571
20
-107.938
11
112.715
21
-107.834
0
LINE
8
BLACK
6
CONTINUOUS
10
112.715
20
-107.834
11
112.877
21
-107.762
0
LINE
8
BLACK
6
CONTINUOUS
10
112.877
20
-107.762
11
113.051
21
-107.725
0
LINE
8
BLACK
6
CONTINUOUS
10
113.051
20
-107.725
11
113.229
21
-107.725
0
LINE
8
BLACK
6
CONTINUOUS
10
113.229
20
-107.725
11
113.403
21
-107.762
0
LINE
8
BLACK
6
CONTINUOUS
10
113.403
20
-105.222
11
113.565
21
-105.294
0
LINE
8
BLACK
6
CONTINUOUS
10
113.565
20
-105.294
11
113.709
21
-105.398
0
LINE
8
BLACK
6
CONTINUOUS
10
113.709
20
-105.398
11
113.828
21
-105.53
0
LINE
8
BLACK
6
CONTINUOUS
10
113.828
20
-105.53
11
113.917
21
-105.684
0
LINE
8
BLACK
6
CONTINUOUS
10
113.917
20
-105.684
11
113.971
21
-105.853
0
LINE
8
BLACK
6
CONTINUOUS
10
113.971
20
-105.853
11
113.99
21
-106.03
0
LINE
8
BLACK
6
CONTINUOUS
10
113.99
20
-106.03
11
113.971
21
-106.207
0
LINE
8
BLACK
6
CONTINUOUS
10
113.971
20
-106.207
11
113.917
21
-106.376
0
LINE
8
BLACK
6
CONTINUOUS
10
113.917
20
-106.376
11
113.828
21
-106.53
0
LINE
8
BLACK
6
CONTINUOUS
10
113.828
20
-106.53
11
113.709
21
-106.662
0
LINE
8
BLACK
6
CONTINUOUS
10
113.709
20
-106.662
11
113.565
21
-106.766
0
LINE
8
BLACK
6
CONTINUOUS
10
113.565
20
-106.766
11
113.403
21
-106.838
0
LINE
8
BLACK
6
CONTINUOUS
10
113.403
20
-106.838
11
113.229
21
-106.875
0
LINE
8
BLACK
6
CONTINUOUS
10
113.229
20
-106.875
11
113.051
21
-106.875
0
LINE
8
BLACK
6
CONTINUOUS
10
113.051
20
-106.875
11
112.877
21
-106.838
0
LINE
8
BLACK
6
CONTINUOUS
10
112.877
20
-106.838
11
112.715
21
-106.766
0
LINE
8
BLACK
6
CONTINUOUS
10
112.715
20
-106.766
11
112.571
21
-106.662
0
LINE
8
BLACK
6
CONTINUOUS
10
112.571
20
-106.662
11
112.452
21
-106.53
0
LINE
8
BLACK
6
CONTINUOUS
10
112.452
20
-106.53
11
112.363
21
-106.376
0
LINE
8
BLACK
6
CONTINUOUS
10
112.363
20
-106.376
11
112.309
21
-106.207
0
LINE
8
BLACK
6
CONTINUOUS
10
112.309
20
-106.207
11
112.29
21
-106.03
0
LINE
8
BLACK
6
CONTINUOUS
10
112.29
20
-106.03
11
112.309
21
-105.853
0
LINE
8
BLACK
6
CONTINUOUS
10
112.309
20
-105.853
11
112.363
21
-105.684
0
LINE
8
BLACK
6
CONTINUOUS
10
112.363
20
-105.684
11
112.452
21
-105.53
0
LINE
8
BLACK
6
CONTINUOUS
10
112.452
20
-105.53
11
112.571
21
-105.398
0
LINE
8
BLACK
6
CONTINUOUS
10
112.571
20
-105.398
11
112.715
21
-105.294
0
LINE
8
BLACK
6
CONTINUOUS
10
112.715
20
-105.294
11
112.877
21
-105.222
0
LINE
8
BLACK
6
CONTINUOUS
10
112.877
20
-105.222
11
113.051
21
-105.185
0
LINE
8
BLACK
6
CONTINUOUS
10
113.051
20
-105.185
11
113.229
21
-105.185
0
LINE
8
BLACK
6
CONTINUOUS
10
113.229
20
-105.185
11
113.403
21
-105.222
0
LINE
8
BLACK
6
CONTINUOUS
10
126.613
20
-102.851
11
126.701
21
-102.909
0
LINE
8
BLACK
6
CONTINUOUS
10
126.701
20
-102.909
11
126.759
21
-102.997
0
LINE
8
BLACK
6
CONTINUOUS
10
126.759
20
-102.997
11
126.78
21
-103.1
0
LINE
8
BLACK
6
CONTINUOUS
10
126.78
20
-103.1
11
126.78
21
-104.76
0
LINE
8
BLACK
6
CONTINUOUS
10
126.78
20
-104.76
11
126.759
21
-104.863
0
LINE
8
BLACK
6
CONTINUOUS
10
126.759
20
-104.863
11
126.701
21
-104.951
0
LINE
8
BLACK
6
CONTINUOUS
10
126.701
20
-104.951
11
126.613
21
-105.009
0
LINE
8
BLACK
6
CONTINUOUS
10
126.613
20
-105.009
11
126.51
21
-105.03
0
LINE
8
BLACK
6
CONTINUOUS
10
126.51
20
-105.03
11
125.25
21
-105.03
0
LINE
8
BLACK
6
CONTINUOUS
10
125.25
20
-105.03
11
125.147
21
-105.009
0
LINE
8
BLACK
6
CONTINUOUS
10
125.147
20
-105.009
11
125.059
21
-104.951
0
LINE
8
BLACK
6
CONTINUOUS
10
125.059
20
-104.951
11
125.001
21
-104.863
0
LINE
8
BLACK
6
CONTINUOUS
10
125.001
20
-104.863
11
124.98
21
-104.76
0
LINE
8
BLACK
6
CONTINUOUS
10
124.98
20
-104.76
11
124.98
21
-103.1
0
LINE
8
BLACK
6
CONTINUOUS
10
124.98
20
-103.1
11
125.001
21
-102.997
0
LINE
8
BLACK
6
CONTINUOUS
10
125.001
20
-102.997
11
125.059
21
-102.909
0
LINE
8
BLACK
6
CONTINUOUS
10
125.059
20
-102.909
11
125.147
21
-102.851
0
LINE
8
BLACK
6
CONTINUOUS
10
125.147
20
-102.851
11
125.25
21
-102.83
0
LINE
8
BLACK
6
CONTINUOUS
10
125.25
20
-102.83
11
126.51
21
-102.83
0
LINE
8
BLACK
6
CONTINUOUS
10
126.51
20
-102.83
11
126.613
21
-102.851
0
LINE
8
BLACK
6
CONTINUOUS
10
124.073
20
-102.826
11
124.161
21
-102.884
0
LINE
8
BLACK
6
CONTINUOUS
10
124.161
20
-102.884
11
124.219
21
-102.972
0
LINE
8
BLACK
6
CONTINUOUS
10
124.219
20
-102.972
11
124.24
21
-103.075
0
LINE
8
BLACK
6
CONTINUOUS
10
124.24
20
-103.075
11
124.24
21
-104.735
0
LINE
8
BLACK
6
CONTINUOUS
10
124.24
20
-104.735
11
124.219
21
-104.838
0
LINE
8
BLACK
6
CONTINUOUS
10
124.219
20
-104.838
11
124.161
21
-104.926
0
LINE
8
BLACK
6
CONTINUOUS
10
124.161
20
-104.926
11
124.073
21
-104.984
0
LINE
8
BLACK
6
CONTINUOUS
10
124.073
20
-104.984
11
123.97
21
-105.005
0
LINE
8
BLACK
6
CONTINUOUS
10
123.97
20
-105.005
11
122.71
21
-105.005
0
LINE
8
BLACK
6
CONTINUOUS
10
122.71
20
-105.005
11
122.607
21
-104.984
0
LINE
8
BLACK
6
CONTINUOUS
10
122.607
20
-104.984
11
122.519
21
-104.926
0
LINE
8
BLACK
6
CONTINUOUS
10
122.519
20
-104.926
11
122.461
21
-104.838
0
LINE
8
BLACK
6
CONTINUOUS
10
122.461
20
-104.838
11
122.44
21
-104.735
0
LINE
8
BLACK
6
CONTINUOUS
10
122.44
20
-104.735
11
122.44
21
-103.075
0
LINE
8
BLACK
6
CONTINUOUS
10
122.44
20
-103.075
11
122.461
21
-102.972
0
LINE
8
BLACK
6
CONTINUOUS
10
122.461
20
-102.972
11
122.519
21
-102.884
0
LINE
8
BLACK
6
CONTINUOUS
10
122.519
20
-102.884
11
122.607
21
-102.826
0
LINE
8
BLACK
6
CONTINUOUS
10
122.607
20
-102.826
11
122.71
21
-102.805
0
LINE
8
BLACK
6
CONTINUOUS
10
122.71
20
-102.805
11
123.97
21
-102.805
0
LINE
8
BLACK
6
CONTINUOUS
10
123.97
20
-102.805
11
124.073
21
-102.826
0
LINE
8
BLACK
6
CONTINUOUS
10
113.403
20
-102.682
11
113.565
21
-102.754
0
LINE
8
BLACK
6
CONTINUOUS
10
113.565
20
-102.754
11
113.709
21
-102.858
0
LINE
8
BLACK
6
CONTINUOUS
10
113.709
20
-102.858
11
113.828
21
-102.99
0
LINE
8
BLACK
6
CONTINUOUS
10
113.828
20
-102.99
11
113.917
21
-103.144
0
LINE
8
BLACK
6
CONTINUOUS
10
113.917
20
-103.144
11
113.971
21
-103.313
0
LINE
8
BLACK
6
CONTINUOUS
10
113.971
20
-103.313
11
113.99
21
-103.49
0
LINE
8
BLACK
6
CONTINUOUS
10
113.99
20
-103.49
11
113.971
21
-103.667
0
LINE
8
BLACK
6
CONTINUOUS
10
113.971
20
-103.667
11
113.917
21
-103.836
0
LINE
8
BLACK
6
CONTINUOUS
10
113.917
20
-103.836
11
113.828
21
-103.99
0
LINE
8
BLACK
6
CONTINUOUS
10
113.828
20
-103.99
11
113.709
21
-104.122
0
LINE
8
BLACK
6
CONTINUOUS
10
113.709
20
-104.122
11
113.565
21
-104.226
0
LINE
8
BLACK
6
CONTINUOUS
10
113.565
20
-104.226
11
113.403
21
-104.298
0
LINE
8
BLACK
6
CONTINUOUS
10
113.403
20
-104.298
11
113.229
21
-104.335
0
LINE
8
BLACK
6
CONTINUOUS
10
113.229
20
-104.335
11
113.051
21
-104.335
0
LINE
8
BLACK
6
CONTINUOUS
10
113.051
20
-104.335
11
112.877
21
-104.298
0
LINE
8
BLACK
6
CONTINUOUS
10
112.877
20
-104.298
11
112.715
21
-104.226
0
LINE
8
BLACK
6
CONTINUOUS
10
112.715
20
-104.226
11
112.571
21
-104.122
0
LINE
8
BLACK
6
CONTINUOUS
10
112.571
20
-104.122
11
112.452
21
-103.99
0
LINE
8
BLACK
6
CONTINUOUS
10
112.452
20
-103.99
11
112.363
21
-103.836
0
LINE
8
BLACK
6
CONTINUOUS
10
112.363
20
-103.836
11
112.309
21
-103.667
0
LINE
8
BLACK
6
CONTINUOUS
10
112.309
20
-103.667
11
112.29
21
-103.49
0
LINE
8
BLACK
6
CONTINUOUS
10
112.29
20
-103.49
11
112.309
21
-103.313
0
LINE
8
BLACK
6
CONTINUOUS
10
112.309
20
-103.313
11
112.363
21
-103.144
0
LINE
8
BLACK
6
CONTINUOUS
10
112.363
20
-103.144
11
112.452
21
-102.99
0
LINE
8
BLACK
6
CONTINUOUS
10
112.452
20
-102.99
11
112.571
21
-102.858
0
LINE
8
BLACK
6
CONTINUOUS
10
112.571
20
-102.858
11
112.715
21
-102.754
0
LINE
8
BLACK
6
CONTINUOUS
10
112.715
20
-102.754
11
112.877
21
-102.682
0
LINE
8
BLACK
6
CONTINUOUS
10
112.877
20
-102.682
11
113.051
21
-102.645
0
LINE
8
BLACK
6
CONTINUOUS
10
113.051
20
-102.645
11
113.229
21
-102.645
0
LINE
8
BLACK
6
CONTINUOUS
10
113.229
20
-102.645
11
113.403
21
-102.682
0
LINE
8
BLACK
6
CONTINUOUS
10
126.613
20
-100.311
11
126.701
21
-100.369
0
LINE
8
BLACK
6
CONTINUOUS
10
126.701
20
-100.369
11
126.759
21
-100.457
0
LINE
8
BLACK
6
CONTINUOUS
10
126.759
20
-100.457
11
126.78
21
-100.56
0
LINE
8
BLACK
6
CONTINUOUS
10
126.78
20
-100.56
11
126.78
21
-102.22
0
LINE
8
BLACK
6
CONTINUOUS
10
126.78
20
-102.22
11
126.759
21
-102.323
0
LINE
8
BLACK
6
CONTINUOUS
10
126.759
20
-102.323
11
126.701
21
-102.411
0
LINE
8
BLACK
6
CONTINUOUS
10
126.701
20
-102.411
11
126.613
21
-102.469
0
LINE
8
BLACK
6
CONTINUOUS
10
126.613
20
-102.469
11
126.51
21
-102.49
0
LINE
8
BLACK
6
CONTINUOUS
10
126.51
20
-102.49
11
125.25
21
-102.49
0
LINE
8
BLACK
6
CONTINUOUS
10
125.25
20
-102.49
11
125.147
21
-102.469
0
LINE
8
BLACK
6
CONTINUOUS
10
125.147
20
-102.469
11
125.059
21
-102.411
0
LINE
8
BLACK
6
CONTINUOUS
10
125.059
20
-102.411
11
125.001
21
-102.323
0
LINE
8
BLACK
6
CONTINUOUS
10
125.001
20
-102.323
11
124.98
21
-102.22
0
LINE
8
BLACK
6
CONTINUOUS
10
124.98
20
-102.22
11
124.98
21
-100.56
0
LINE
8
BLACK
6
CONTINUOUS
10
124.98
20
-100.56
11
125.001
21
-100.457
0
LINE
8
BLACK
6
CONTINUOUS
10
125.001
20
-100.457
11
125.059
21
-100.369
0
LINE
8
BLACK
6
CONTINUOUS
10
125.059
20
-100.369
11
125.147
21
-100.311
0
LINE
8
BLACK
6
CONTINUOUS
10
125.147
20
-100.311
11
125.25
21
-100.29
0
LINE
8
BLACK
6
CONTINUOUS
10
125.25
20
-100.29
11
126.51
21
-100.29
0
LINE
8
BLACK
6
CONTINUOUS
10
126.51
20
-100.29
11
126.613
21
-100.311
0
LINE
8
BLACK
6
CONTINUOUS
10
124.073
20
-100.311
11
124.161
21
-100.369
0
LINE
8
BLACK
6
CONTINUOUS
10
124.161
20
-100.369
11
124.219
21
-100.457
0
LINE
8
BLACK
6
CONTINUOUS
10
124.219
20
-100.457
11
124.24
21
-100.56
0
LINE
8
BLACK
6
CONTINUOUS
10
124.24
20
-100.56
11
124.24
21
-102.22
0
LINE
8
BLACK
6
CONTINUOUS
10
124.24
20
-102.22
11
124.219
21
-102.323
0
LINE
8
BLACK
6
CONTINUOUS
10
124.219
20
-102.323
11
124.161
21
-102.411
0
LINE
8
BLACK
6
CONTINUOUS
10
124.161
20
-102.411
11
124.073
21
-102.469
0
LINE
8
BLACK
6
CONTINUOUS
10
124.073
20
-102.469
11
123.97
21
-102.49
0
LINE
8
BLACK
6
CONTINUOUS
10
123.97
20
-102.49
11
122.71
21
-102.49
0
LINE
8
BLACK
6
CONTINUOUS
10
122.71
20
-102.49
11
122.607
21
-102.469
0
LINE
8
BLACK
6
CONTINUOUS
10
122.607
20
-102.469
11
122.519
21
-102.411
0
LINE
8
BLACK
6
CONTINUOUS
10
122.519
20
-102.411
11
122.461
21
-102.323
0
LINE
8
BLACK
6
CONTINUOUS
10
122.461
20
-102.323
11
122.44
21
-102.22
0
LINE
8
BLACK
6
CONTINUOUS
10
122.44
20
-102.22
11
122.44
21
-100.56
0
LINE
8
BLACK
6
CONTINUOUS
10
122.44
20
-100.56
11
122.461
21
-100.457
0
LINE
8
BLACK
6
CONTINUOUS
10
122.461
20
-100.457
11
122.519
21
-100.369
0
LINE
8
BLACK
6
CONTINUOUS
10
122.519
20
-100.369
11
122.607
21
-100.311
0
LINE
8
BLACK
6
CONTINUOUS
10
122.607
20
-100.311
11
122.71
21
-100.29
0
LINE
8
BLACK
6
CONTINUOUS
10
122.71
20
-100.29
11
123.97
21
-100.29
0
LINE
8
BLACK
6
CONTINUOUS
10
123.97
20
-100.29
11
124.073
21
-100.311
0
LINE
8
BLACK
6
CONTINUOUS
10
113.403
20
-100.142
11
113.565
21
-100.214
0
LINE
8
BLACK
6
CONTINUOUS
10
113.565
20
-100.214
11
113.709
21
-100.318
0
LINE
8
BLACK
6
CONTINUOUS
10
113.709
20
-100.318
11
113.828
21
-100.45
0
LINE
8
BLACK
6
CONTINUOUS
10
113.828
20
-100.45
11
113.917
21
-100.604
0
LINE
8
BLACK
6
CONTINUOUS
10
113.917
20
-100.604
11
113.971
21
-100.773
0
LINE
8
BLACK
6
CONTINUOUS
10
113.971
20
-100.773
11
113.99
21
-100.95
0
LINE
8
BLACK
6
CONTINUOUS
10
113.99
20
-100.95
11
113.971
21
-101.127
0
LINE
8
BLACK
6
CONTINUOUS
10
113.971
20
-101.127
11
113.917
21
-101.296
0
LINE
8
BLACK
6
CONTINUOUS
10
113.917
20
-101.296
11
113.828
21
-101.45
0
LINE
8
BLACK
6
CONTINUOUS
10
113.828
20
-101.45
11
113.709
21
-101.582
0
LINE
8
BLACK
6
CONTINUOUS
10
113.709
20
-101.582
11
113.565
21
-101.686
0
LINE
8
BLACK
6
CONTINUOUS
10
113.565
20
-101.686
11
113.403
21
-101.758
0
LINE
8
BLACK
6
CONTINUOUS
10
113.403
20
-101.758
11
113.229
21
-101.795
0
LINE
8
BLACK
6
CONTINUOUS
10
113.229
20
-101.795
11
113.051
21
-101.795
0
LINE
8
BLACK
6
CONTINUOUS
10
113.051
20
-101.795
11
112.877
21
-101.758
0
LINE
8
BLACK
6
CONTINUOUS
10
112.877
20
-101.758
11
112.715
21
-101.686
0
LINE
8
BLACK
6
CONTINUOUS
10
112.715
20
-101.686
11
112.571
21
-101.582
0
LINE
8
BLACK
6
CONTINUOUS
10
112.571
20
-101.582
11
112.452
21
-101.45
0
LINE
8
BLACK
6
CONTINUOUS
10
112.452
20
-101.45
11
112.363
21
-101.296
0
LINE
8
BLACK
6
CONTINUOUS
10
112.363
20
-101.296
11
112.309
21
-101.127
0
LINE
8
BLACK
6
CONTINUOUS
10
112.309
20
-101.127
11
112.29
21
-100.95
0
LINE
8
BLACK
6
CONTINUOUS
10
112.29
20
-100.95
11
112.309
21
-100.773
0
LINE
8
BLACK
6
CONTINUOUS
10
112.309
20
-100.773
11
112.363
21
-100.604
0
LINE
8
BLACK
6
CONTINUOUS
10
112.363
20
-100.604
11
112.452
21
-100.45
0
LINE
8
BLACK
6
CONTINUOUS
10
112.452
20
-100.45
11
112.571
21
-100.318
0
LINE
8
BLACK
6
CONTINUOUS
10
112.571
20
-100.318
11
112.715
21
-100.214
0
LINE
8
BLACK
6
CONTINUOUS
10
112.715
20
-100.214
11
112.877
21
-100.142
0
LINE
8
BLACK
6
CONTINUOUS
10
112.877
20
-100.142
11
113.051
21
-100.105
0
LINE
8
BLACK
6
CONTINUOUS
10
113.051
20
-100.105
11
113.229
21
-100.105
0
LINE
8
BLACK
6
CONTINUOUS
10
113.229
20
-100.105
11
113.403
21
-100.142
0
LINE
8
BLACK
6
CONTINUOUS
10
134.863
20
-99.4558
11
134.881
21
-99.4632
0
LINE
8
BLACK
6
CONTINUOUS
10
134.881
20
-99.4632
11
134.899
21
-99.4705
0
LINE
8
BLACK
6
CONTINUOUS
10
134.899
20
-99.4705
11
134.899
21
-99.4705
0
LINE
8
BLACK
6
CONTINUOUS
10
134.899
20
-99.4705
11
134.899
21
-99.4705
0
LINE
8
BLACK
6
CONTINUOUS
10
134.899
20
-99.4705
11
134.906
21
-99.4882
0
LINE
8
BLACK
6
CONTINUOUS
10
134.906
20
-99.4882
11
134.913
21
-99.5058
0
LINE
8
BLACK
6
CONTINUOUS
10
134.913
20
-99.5058
11
134.927
21
-128.646
0
LINE
8
BLACK
6
CONTINUOUS
10
134.927
20
-128.646
11
134.927
21
-128.646
0
LINE
8
BLACK
6
CONTINUOUS
10
134.927
20
-128.646
11
134.927
21
-128.646
0
LINE
8
BLACK
6
CONTINUOUS
10
134.927
20
-128.646
11
134.919
21
-128.664
0
LINE
8
BLACK
6
CONTINUOUS
10
134.919
20
-128.664
11
134.912
21
-128.681
0
LINE
8
BLACK
6
CONTINUOUS
10
134.912
20
-128.681
11
134.912
21
-128.681
0
LINE
8
BLACK
6
CONTINUOUS
10
134.912
20
-128.681
11
134.912
21
-128.681
0
LINE
8
BLACK
6
CONTINUOUS
10
134.912
20
-128.681
11
134.894
21
-128.689
0
LINE
8
BLACK
6
CONTINUOUS
10
134.894
20
-128.689
11
134.877
21
-128.696
0
LINE
8
BLACK
6
CONTINUOUS
10
134.877
20
-128.696
11
134.877
21
-128.696
0
LINE
8
BLACK
6
CONTINUOUS
10
134.877
20
-128.696
11
134.877
21
-128.696
0
LINE
8
BLACK
6
CONTINUOUS
10
134.877
20
-128.696
11
124.39
21
-128.684
0
LINE
8
BLACK
6
CONTINUOUS
10
124.39
20
-128.684
11
124.372
21
-128.677
0
LINE
8
BLACK
6
CONTINUOUS
10
124.372
20
-128.677
11
124.355
21
-128.67
0
LINE
8
BLACK
6
CONTINUOUS
10
124.355
20
-128.67
11
124.355
21
-128.669
0
LINE
8
BLACK
6
CONTINUOUS
10
124.355
20
-128.669
11
124.355
21
-128.669
0
LINE
8
BLACK
6
CONTINUOUS
10
124.355
20
-128.669
11
124.347
21
-128.652
0
LINE
8
BLACK
6
CONTINUOUS
10
124.347
20
-128.652
11
124.34
21
-128.634
0
LINE
8
BLACK
6
CONTINUOUS
10
124.34
20
-128.634
11
124.34
21
-121.69
0
LINE
8
BLACK
6
CONTINUOUS
10
124.34
20
-121.69
11
123.62
21
-121.69
0
LINE
8
BLACK
6
CONTINUOUS
10
123.62
20
-121.69
11
123.585
21
-121.675
0
LINE
8
BLACK
6
CONTINUOUS
10
123.585
20
-121.675
11
123.57
21
-121.64
0
LINE
8
BLACK
6
CONTINUOUS
10
123.57
20
-121.64
11
123.57
21
-120.98
0
LINE
8
BLACK
6
CONTINUOUS
10
123.57
20
-120.98
11
121.05
21
-120.98
0
LINE
8
BLACK
6
CONTINUOUS
10
121.05
20
-120.98
11
121.05
21
-121.632
0
LINE
8
BLACK
6
CONTINUOUS
10
121.05
20
-121.632
11
121.05
21
-121.633
0
LINE
8
BLACK
6
CONTINUOUS
10
121.05
20
-121.633
11
121.05
21
-121.633
0
LINE
8
BLACK
6
CONTINUOUS
10
121.05
20
-121.633
11
121.043
21
-121.65
0
LINE
8
BLACK
6
CONTINUOUS
10
121.043
20
-121.65
11
121.035
21
-121.668
0
LINE
8
BLACK
6
CONTINUOUS
10
121.035
20
-121.668
11
121.035
21
-121.668
0
LINE
8
BLACK
6
CONTINUOUS
10
121.035
20
-121.668
11
121.035
21
-121.668
0
LINE
8
BLACK
6
CONTINUOUS
10
121.035
20
-121.668
11
121.018
21
-121.675
0
LINE
8
BLACK
6
CONTINUOUS
10
121.018
20
-121.675
11
121
21
-121.682
0
LINE
8
BLACK
6
CONTINUOUS
10
121
20
-121.682
11
121
21
-121.682
0
LINE
8
BLACK
6
CONTINUOUS
10
121
20
-121.682
11
121
21
-121.682
0
LINE
8
BLACK
6
CONTINUOUS
10
121
20
-121.682
11
117.88
21
-121.677
0
LINE
8
BLACK
6
CONTINUOUS
10
117.88
20
-121.677
11
117.862
21
-121.67
0
LINE
8
BLACK
6
CONTINUOUS
10
117.862
20
-121.67
11
117.845
21
-121.663
0
LINE
8
BLACK
6
CONTINUOUS
10
117.845
20
-121.663
11
117.845
21
-121.663
0
LINE
8
BLACK
6
CONTINUOUS
10
117.845
20
-121.663
11
117.845
21
-121.663
0
LINE
8
BLACK
6
CONTINUOUS
10
117.845
20
-121.663
11
117.837
21
-121.645
0
LINE
8
BLACK
6
CONTINUOUS
10
117.837
20
-121.645
11
117.83
21
-121.627
0
LINE
8
BLACK
6
CONTINUOUS
10
117.83
20
-121.627
11
117.83
21
-120.97
0
LINE
8
BLACK
6
CONTINUOUS
10
117.83
20
-120.97
11
115.31
21
-120.97
0
LINE
8
BLACK
6
CONTINUOUS
10
115.31
20
-120.97
11
115.31
21
-121.62
0
LINE
8
BLACK
6
CONTINUOUS
10
115.31
20
-121.62
11
115.295
21
-121.655
0
LINE
8
BLACK
6
CONTINUOUS
10
115.295
20
-121.655
11
115.26
21
-121.67
0
LINE
8
BLACK
6
CONTINUOUS
10
115.26
20
-121.67
11
111.86
21
-121.67
0
LINE
8
BLACK
6
CONTINUOUS
10
111.86
20
-121.67
11
111.86
21
-121.67
0
LINE
8
BLACK
6
CONTINUOUS
10
111.86
20
-121.67
11
111.842
21
-121.663
0
LINE
8
BLACK
6
CONTINUOUS
10
111.842
20
-121.663
11
111.825
21
-121.655
0
LINE
8
BLACK
6
CONTINUOUS
10
111.825
20
-121.655
11
111.825
21
-121.655
0
LINE
8
BLACK
6
CONTINUOUS
10
111.825
20
-121.655
11
111.825
21
-121.655
0
LINE
8
BLACK
6
CONTINUOUS
10
111.825
20
-121.655
11
111.817
21
-121.638
0
LINE
8
BLACK
6
CONTINUOUS
10
111.817
20
-121.638
11
111.81
21
-121.62
0
LINE
8
BLACK
6
CONTINUOUS
10
111.81
20
-121.62
11
111.794
21
-99.4942
0
LINE
8
BLACK
6
CONTINUOUS
10
111.794
20
-99.4942
11
111.794
21
-99.4942
0
LINE
8
BLACK
6
CONTINUOUS
10
111.794
20
-99.4942
11
111.794
21
-99.4941
0
LINE
8
BLACK
6
CONTINUOUS
10
111.794
20
-99.4941
11
111.801
21
-99.4765
0
LINE
8
BLACK
6
CONTINUOUS
10
111.801
20
-99.4765
11
111.808
21
-99.4588
0
LINE
8
BLACK
6
CONTINUOUS
10
111.808
20
-99.4588
11
111.808
21
-99.4588
0
LINE
8
BLACK
6
CONTINUOUS
10
111.808
20
-99.4588
11
111.808
21
-99.4588
0
LINE
8
BLACK
6
CONTINUOUS
10
111.808
20
-99.4588
11
111.826
21
-99.4515
0
LINE
8
BLACK
6
CONTINUOUS
10
111.826
20
-99.4515
11
111.844
21
-99.4442
0
LINE
8
BLACK
6
CONTINUOUS
10
111.844
20
-99.4442
11
111.844
21
-99.4442
0
LINE
8
BLACK
6
CONTINUOUS
10
111.844
20
-99.4442
11
111.844
21
-99.4442
0
LINE
8
BLACK
6
CONTINUOUS
10
111.844
20
-99.4442
11
134.863
21
-99.4558
0
LINE
8
BLACK
6
CONTINUOUS
10
111.91
20
-121.57
11
115.21
21
-121.57
0
LINE
8
BLACK
6
CONTINUOUS
10
115.21
20
-121.57
11
115.21
21
-120.92
0
LINE
8
BLACK
6
CONTINUOUS
10
115.21
20
-120.92
11
115.225
21
-120.885
0
LINE
8
BLACK
6
CONTINUOUS
10
115.225
20
-120.885
11
115.26
21
-120.87
0
LINE
8
BLACK
6
CONTINUOUS
10
115.26
20
-120.87
11
117.88
21
-120.87
0
LINE
8
BLACK
6
CONTINUOUS
10
117.88
20
-120.87
11
117.915
21
-120.885
0
LINE
8
BLACK
6
CONTINUOUS
10
117.915
20
-120.885
11
117.93
21
-120.92
0
LINE
8
BLACK
6
CONTINUOUS
10
117.93
20
-120.92
11
117.93
21
-121.578
0
LINE
8
BLACK
6
CONTINUOUS
10
117.93
20
-121.578
11
120.95
21
-121.582
0
LINE
8
BLACK
6
CONTINUOUS
10
120.95
20
-121.582
11
120.95
21
-120.93
0
LINE
8
BLACK
6
CONTINUOUS
10
120.95
20
-120.93
11
120.965
21
-120.895
0
LINE
8
BLACK
6
CONTINUOUS
10
120.965
20
-120.895
11
121
21
-120.88
0
LINE
8
BLACK
6
CONTINUOUS
10
121
20
-120.88
11
123.62
21
-120.88
0
LINE
8
BLACK
6
CONTINUOUS
10
123.62
20
-120.88
11
123.655
21
-120.895
0
LINE
8
BLACK
6
CONTINUOUS
10
123.655
20
-120.895
11
123.67
21
-120.93
0
LINE
8
BLACK
6
CONTINUOUS
10
123.67
20
-120.93
11
123.67
21
-121.59
0
LINE
8
BLACK
6
CONTINUOUS
10
123.67
20
-121.59
11
124.39
21
-121.59
0
LINE
8
BLACK
6
CONTINUOUS
10
124.39
20
-121.59
11
124.425
21
-121.605
0
LINE
8
BLACK
6
CONTINUOUS
10
124.425
20
-121.605
11
124.44
21
-121.64
0
LINE
8
BLACK
6
CONTINUOUS
10
124.44
20
-121.64
11
124.44
21
-128.584
0
LINE
8
BLACK
6
CONTINUOUS
10
124.44
20
-128.584
11
134.827
21
-128.596
0
LINE
8
BLACK
6
CONTINUOUS
10
134.827
20
-128.596
11
134.813
21
-99.5558
0
LINE
8
BLACK
6
CONTINUOUS
10
134.813
20
-99.5558
11
111.894
21
-99.5442
0
LINE
8
BLACK
6
CONTINUOUS
10
111.894
20
-99.5442
11
111.91
21
-121.57
  0
ENDSEC
  0
EOF
