22800 0 2 2           
30 Autodesk Translation Framework 21 ASM 228.6.0.65535 OSX 24 Sun Feb 26 07:53:48 2023 
1 9.999999999999999547e-07 1.000000000000000036e-10 
asmheader $-1 -1 @13 228.6.0.65535 #
body $2 -1 $-1 $3 $-1 $4 #
rgb_color-st-attrib $-1 -1 $-1 $-1 $1 0.627450980392156854 0.627450980392156854 0.627450980392156854 1 #
lump $-1 -1 $-1 $-1 $5 $1 #
transform $-1 -1 1 0 0 0 1 0 0 0 1 0 0 0 1 no_rotate no_reflect no_shear #
shell $-1 -1 $-1 $-1 $-1 $6 $-1 $3 #
face $7 -1 $-1 $8 $9 $5 $-1 $10 reversed single #
DXID-attrib $-1 -1 $-1 $-1 $6 @10 ASM ENTITY @1 0 #
face $11 -1 $-1 $12 $13 $5 $-1 $14 reversed single #
loop $-1 -1 $-1 $-1 $15 $6 #
plane-surface $-1 -1 $-1 0.3959797974644669871 1.000346410822116061 -0.3959797974644669871 0 1 0 -10 0 -4.449288932340130198e-14 forward_v I I I I #
DXID-attrib $-1 -1 $-1 $-1 $8 @10 ASM ENTITY @1 1 #
face $16 -1 $-1 $17 $18 $5 $-1 $19 reversed single #
loop $-1 -1 $-1 $-1 $20 $8 #
plane-surface $-1 -1 $-1 -0.3959797974644699847 4.5 0.3959797974644699847 -4.449288932340130198e-15 0 -1 -1 0 4.449288932340130198e-15 forward_v I I I I #
coedge $-1 -1 $-1 $21 $22 $20 $23 reversed $9 0 $-1 #
DXID-attrib $-1 -1 $-1 $-1 $12 @10 ASM ENTITY @1 2 #
face $24 -1 $-1 $25 $26 $5 $-1 $27 reversed single #
loop $-1 -1 $-1 $-1 $28 $12 #
plane-surface $-1 -1 $-1 0.3959797974644669871 4.5 0.3959797974644669871 -1 0 0 0 0 1 forward_v I I I I #
coedge $-1 -1 $-1 $29 $30 $15 $23 forward $13 0 $-1 #
coedge $-1 -1 $-1 $31 $15 $32 $33 reversed $9 0 $-1 #
coedge $-1 -1 $-1 $15 $31 $28 $34 reversed $9 0 $-1 #
edge $-1 -1 $-1 $35 -0.03959797974644702762 $36 0.03959797974644667373 $20 $37 reversed @7 unknown #
DXID-attrib $-1 -1 $-1 $-1 $17 @10 ASM ENTITY @1 3 #
face $38 -1 $-1 $39 $40 $5 $-1 $41 reversed single #
loop $-1 -1 $-1 $-1 $42 $17 #
plane-surface $-1 -1 $-1 0.3959797974644669871 4.5 -0.3959797974644669871 -4.449288932340130198e-15 0 1 1 0 4.449288932340130198e-15 forward_v I I I I #
coedge $-1 -1 $-1 $43 $44 $22 $34 forward $18 0 $-1 #
coedge $-1 -1 $-1 $45 $20 $44 $46 reversed $13 0 $-1 #
coedge $-1 -1 $-1 $20 $45 $47 $48 forward $13 0 $-1 #
coedge $49 -1 $-1 $22 $21 $42 $50 reversed $9 0 $-1 #
coedge $-1 -1 $-1 $47 $51 $21 $33 forward $40 0 $-1 #
edge $-1 -1 $-1 $52 1.942890293094023946e-16 $35 0.07919595949289384706 $32 $53 reversed @7 unknown #
edge $-1 -1 $-1 $36 -0.03959797974644670149 $54 0.03959797974644670149 $28 $55 reversed @7 unknown #
vertex $-1 -1 $-1 $33 1 $56 #
vertex $-1 -1 $-1 $34 0 $57 #
straight-curve $-1 -1 $-1 2.699663409488844411e-16 1.000346410822116283 0.3959797974644682639 -10 0 4.449288932340130198e-14 F -10000.00000100000034 F 10000.00000100000034 #
DXID-attrib $-1 -1 $-1 $-1 $25 @10 ASM ENTITY @1 4 #
face $58 -1 $-1 $59 $60 $5 $-1 $61 reversed single #
loop $-1 -1 $-1 $-1 $32 $25 #
plane-surface $-1 -1 $-1 -0.3959797974644699847 4.5 -0.3959797974644699847 1 0 0 0 0 -1 forward_v I I I I #
coedge $-1 -1 $-1 $62 $63 $31 $50 forward $26 0 $-1 #
coedge $-1 -1 $-1 $64 $28 $63 $65 reversed $18 0 $-1 #
coedge $-1 -1 $-1 $28 $64 $29 $46 forward $18 0 $-1 #
coedge $-1 -1 $-1 $30 $29 $66 $67 reversed $13 0 $-1 #
edge $-1 -1 $-1 $68 -0 $36 0.003499653589177884137 $29 $69 forward @7 unknown #
coedge $-1 -1 $-1 $70 $32 $30 $48 reversed $40 0 $-1 #
edge $-1 -1 $-1 $71 -0 $35 0.003499653589177884137 $47 $72 forward @7 unknown #
ATTRIB_CUSTOM-attrib $-1 -1 $-1 $-1 $31 @17 sketch_attrib_def 1 1 3 @13 115 0 1 0 1 1 #
edge $-1 -1 $-1 $54 -0 $52 0.07919595949289369441 $42 $73 reversed @7 unknown #
coedge $-1 -1 $-1 $32 $70 $62 $74 forward $40 0 $-1 #
vertex $-1 -1 $-1 $50 1 $75 #
straight-curve $-1 -1 $-1 -0.3959797974644700957 1.000346410822116283 -0.3959797974644685414 0 0 -10 F -10000.0395989797471 F 9999.96040302025358 #
vertex $-1 -1 $-1 $50 0 $76 #
straight-curve $-1 -1 $-1 0.3959797974644669871 1.000346410822116283 0 0 0 10 F -10000.00000100000034 F 10000.00000100000034 #
point $-1 -1 $-1 -0.3959797974644699847 1.000346410822116061 0.3959797974644699847 #
point $-1 -1 $-1 0.3959797974644669871 1.000346410822116061 0.3959797974644669871 #
DXID-attrib $-1 -1 $-1 $-1 $39 @10 ASM ENTITY @1 5 #
face $77 -1 $-1 $78 $79 $5 $-1 $80 forward single #
loop $-1 -1 $-1 $-1 $81 $39 #
plane-surface $-1 -1 $-1 0 13.5 0 0 -1 0 0 0 -1 forward_v I I I I #
coedge $-1 -1 $-1 $82 $42 $51 $74 reversed $26 0 $-1 #
coedge $-1 -1 $-1 $42 $82 $43 $65 forward $26 0 $-1 #
coedge $-1 -1 $-1 $44 $43 $83 $84 reversed $18 0 $-1 #
edge $-1 -1 $-1 $85 -0 $54 0.003499653589177884137 $43 $86 forward @7 unknown #
coedge $-1 -1 $-1 $83 $87 $45 $67 forward $88 0 $-1 #
edge $-1 -1 $-1 $71 0 $68 0.0007919595949289371262 $45 $89 forward @7 unknown #
vertex $-1 -1 $-1 $46 2 $90 #
straight-curve $-1 -1 $-1 0.3959797974644669871 4.5 0.3959797974644669871 -0 -1000 -0 I I #
coedge $-1 -1 $-1 $51 $47 $87 $91 reversed $40 0 $-1 #
vertex $-1 -1 $-1 $67 2 $92 #
straight-curve $-1 -1 $-1 -0.3959797974644699847 4.5 0.3959797974644699847 -0 -1000 -0 I I #
straight-curve $-1 -1 $-1 0.3959797974644669871 1.000346410822116283 -0.3959797974644669871 10 0 4.449288932340130198e-14 F -10000.0395989797471 F 9999.96040302025358 #
edge $-1 -1 $-1 $93 -0 $52 0.003499653589177884137 $62 $94 forward @7 unknown #
point $-1 -1 $-1 -0.3959797974644699292 1.000346410822116061 -0.3959797974644699847 #
point $-1 -1 $-1 0.3959797974644669871 1.000346410822116061 -0.3959797974644669871 #
DXID-attrib $-1 -1 $-1 $-1 $59 @10 ASM ENTITY @1 6 #
face $95 -1 $-1 $96 $97 $5 $-1 $98 forward single #
loop $-1 -1 $-1 $99 $100 $59 #
torus-surface $-1 -1 $-1 0 13.25000000000000178 0 0 -1 0 0.2600000000000020073 0.2499999999999970302 0 0 -1 forward_v I I I I #
coedge $-1 -1 $-1 $81 $81 $100 $101 reversed $60 0 $-1 #
coedge $-1 -1 $-1 $63 $62 $102 $103 reversed $26 0 $-1 #
coedge $-1 -1 $-1 $102 $66 $64 $84 forward $88 0 $-1 #
edge $-1 -1 $-1 $68 0 $85 0.0007919595949289339821 $64 $104 forward @7 unknown #
vertex $-1 -1 $-1 $103 2 $105 #
straight-curve $-1 -1 $-1 0.3959797974644669871 4.5 -0.3959797974644669871 -0 -1000 -0 I I #
coedge $-1 -1 $-1 $66 $102 $70 $91 forward $88 0 $-1 #
loop $-1 -1 $-1 $-1 $83 $106 #
straight-curve $-1 -1 $-1 -0.3959797974644699847 4.5 0.3959797974644699847 1000 0 -4.449288932340130653e-12 F 0 F 0.0007919595949289371262 #
point $-1 -1 $-1 0.3959797974644669871 4.5 0.3959797974644669871 #
edge $-1 -1 $-1 $93 0 $71 0.0007919595949289399452 $87 $107 forward @7 unknown #
point $-1 -1 $-1 -0.3959797974644699847 4.5 0.3959797974644699847 #
vertex $-1 -1 $-1 $74 2 $108 #
straight-curve $-1 -1 $-1 -0.3959797974644699847 4.5 -0.3959797974644699847 -0 -1000 -0 I I #
DXID-attrib $-1 -1 $-1 $-1 $78 @10 ASM ENTITY @1 7 #
face $109 -1 $-1 $110 $111 $5 $-1 $112 reversed single #
loop $-1 -1 $-1 $113 $114 $78 #
cone-surface $-1 -1 $-1 0 4.5 0 0 1 0 0 0 -0.5099999999999991207 1 I I 0 1 0.5099999999999991207 forward I I I I #
loop $-1 -1 $-1 $-1 $115 $59 #
coedge $-1 -1 $-1 $100 $100 $81 $101 forward $79 0 $-1 #
edge $-1 -1 $-1 $116 0 $116 6.283185307179586232 $81 $117 forward @14 tangent_not_g2 #
coedge $-1 -1 $-1 $87 $83 $82 $103 forward $88 0 $-1 #
edge $-1 -1 $-1 $85 0 $93 0.0007919595949289371262 $82 $118 forward @7 unknown #
straight-curve $-1 -1 $-1 0.3959797974644669871 4.5 0.3959797974644669871 0 0 -1000 F 0 F 0.0007919595949289339821 #
point $-1 -1 $-1 0.3959797974644669871 4.5 -0.3959797974644669871 #
face $119 -1 $-1 $-1 $120 $5 $-1 $121 reversed single #
straight-curve $-1 -1 $-1 -0.3959797974644699847 4.5 -0.3959797974644699847 0 0 1000 F 0 F 0.0007919595949289399452 #
point $-1 -1 $-1 -0.3959797974644699847 4.5 -0.3959797974644699847 #
DXID-attrib $-1 -1 $-1 $-1 $96 @10 ASM ENTITY @1 8 #
face $122 -1 $-1 $106 $123 $5 $-1 $124 forward single #
loop $-1 -1 $-1 $125 $126 $96 #
plane-surface $-1 -1 $-1 0.5100000000000000089 5 0 0 -1 0 0 0 -1 forward_v I I I I #
loop $-1 -1 $-1 $-1 $127 $78 #
coedge $-1 -1 $-1 $114 $114 $128 $129 reversed $97 0 $-1 #
coedge $-1 -1 $-1 $115 $115 $127 $130 reversed $99 0 $-1 #
vertex $-1 -1 $-1 $101 0 $131 #
ellipse-curve $-1 -1 $-1 0 13.5 0 0 -1 0 0 0 -0.2600000000000000089 1 I I #
straight-curve $-1 -1 $-1 0.3959797974644669871 4.5 -0.3959797974644669871 -1000 0 -4.449288932340130653e-12 F 0 F 0.0007919595949289371262 #
DXID-attrib $-1 -1 $-1 $-1 $106 @10 ASM ENTITY @2 10 #
loop $-1 -1 $-1 $88 $132 $106 #
plane-surface $-1 -1 $-1 0.750000000000000111 4.5 0 0 1 0 0 0 1 forward_v I I I I #
DXID-attrib $-1 -1 $-1 $-1 $110 @10 ASM ENTITY @1 9 #
loop $133 -1 $-1 $134 $135 $110 #
torus-surface $-1 -1 $-1 0 4.75 0 0 -1 0 0.7500000000000011102 0.2499999999999990008 0 0 -1 forward_v I I I I #
loop $-1 -1 $-1 $-1 $128 $96 #
coedge $-1 -1 $-1 $126 $126 $136 $137 reversed $111 0 $-1 #
coedge $-1 -1 $-1 $127 $127 $115 $130 forward $113 0 $-1 #
coedge $-1 -1 $-1 $128 $128 $114 $129 forward $125 0 $-1 #
edge $-1 -1 $-1 $138 0 $138 6.283185307179586232 $114 $139 forward @7 unknown #
edge $-1 -1 $-1 $140 0 $140 6.283185307179586232 $115 $141 forward @14 tangent_not_g2 #
point $-1 -1 $-1 0 13.5 -0.2600000000000000089 #
coedge $-1 -1 $-1 $132 $132 $142 $143 forward $120 0 $-1 #
DXID-attrib $-1 -1 $-1 $-1 $123 @18 ASM_LOOP_FROM_STEP @3 145 #
loop $-1 -1 $-1 $144 $136 $110 #
coedge $-1 -1 $-1 $135 $135 $-1 $145 forward $123 0 $-1 #
coedge $-1 -1 $-1 $136 $136 $126 $137 forward $134 0 $-1 #
edge $-1 -1 $-1 $146 0 $146 6.283185307179586232 $126 $147 forward @14 tangent_not_g2 #
vertex $-1 -1 $-1 $129 0 $148 #
ellipse-curve $-1 -1 $-1 0 5 0 0 -1 0 0 0 -0.5100000000000000089 1 I I #
vertex $-1 -1 $-1 $130 0 $149 #
ellipse-curve $-1 -1 $-1 0 13.25000000000000178 0 0 -1 0 0 0 -0.5099999999999991207 1 I I #
coedge $-1 -1 $-1 $142 $142 $132 $143 reversed $144 0 $-1 #
edge $-1 -1 $-1 $150 0 $150 6.283185307179586232 $142 $151 forward @14 tangent_not_g2 #
loop $-1 -1 $-1 $-1 $142 $110 #
edge $-1 -1 $-1 $152 1 $152 0 $135 $-1 forward @7 unknown #
vertex $-1 -1 $-1 $137 0 $153 #
ellipse-curve $-1 -1 $-1 0 5 0 0 -1 0 0 0 -0.750000000000000111 1 I I #
point $-1 -1 $-1 0 5 -0.5100000000000000089 #
point $-1 -1 $-1 0 13.25000000000000178 -0.5099999999999991207 #
vertex $-1 -1 $-1 $143 0 $154 #
ellipse-curve $-1 -1 $-1 0 4.5 0 0 -1 0 0 0 -0.7500000000000011102 1 I I #
vertex $-1 -1 $-1 $145 0 $155 #
point $-1 -1 $-1 0 5 -0.750000000000000111 #
point $-1 -1 $-1 0 4.5 -0.7500000000000011102 #
point $-1 -1 $-1 0 4.75 -1 #
End-of-ASM-data 