  0
SECTION
  2
HEADER
  9
$ANGBASE
  50
0.0
  9
$ANGDIR
  70
1
  9
$MEASUREMENT
  70
1
  0
ENDSEC
  0
SECTION
  2
TABLES
  0
TABLE
  2
LTYPE
  70
4
  0
LTYPE
  5
40F
  2
CONTINUOUS
  70
0
  3
Solid line
  72
65
  73
0
  40
0.0
  0
LTYPE
  5
410
  2
DASHDOT
 70
0
  3
Dash Dot ____ _ ____ _
 72
65
 73
4
 40
2.0
 49
1.25
 49
-0.25
 49
0.25
 49
-0.25
  0
LTYPE
  5
411
  2
DASHED
 70
0
  3
Dashed __ __ __ __ __
 72
65
 73
2
 40
0.75
 49
0.5
 49
-0.25
  0
LTYPE
  5
43B
  2
DOTTED
 70
0
  3
Dotted .  .  .  .
 72
65
 73
2
 40
0.2
 49
0.0
 49
-0.2
  0
ENDTAB
  0
TABLE
  2
STYLE
  70
4
  0
STYLE
  2
KICAD
  70
0
  40
0
  41
1
  42
1
  50
0
  71
0
  3
isocp.shx
  0
STYLE
  2
KICADB
  70
0
  40
0
  41
1
  42
1
  50
0
  71
0
  3
isocp.shx
  0
STYLE
  2
KICADI
  70
0
  40
0
  41
1
  42
1
  50
15
  71
0
  3
isocp.shx
  0
STYLE
  2
KICADBI
  70
0
  40
0
  41
1
  42
1
  50
15
  71
0
  3
isocp.shx
  0
ENDTAB
  0
TABLE
  2
LAYER
  70
1
  0
LAYER
  2
BLACK
  70
0
  62
7
  6
CONTINUOUS
  0
ENDTAB
  0
ENDSEC
  0
SECTION
  2
ENTITIES
0
LINE
8
BLACK
6
CONTINUOUS
10
64.7814
20
-72.6934
11
62.5814
21
-72.6934
0
LINE
8
BLACK
6
CONTINUOUS
10
62.5814
20
-72.6934
11
62.5814
21
-70.4934
0
LINE
8
BLACK
6
CONTINUOUS
10
62.5814
20
-70.4934
11
64.7814
21
-70.4934
0
LINE
8
BLACK
6
CONTINUOUS
10
64.7814
20
-70.4934
11
64.7814
21
-72.6934
0
LINE
8
BLACK
6
CONTINUOUS
10
66.5224
20
-70.5354
11
66.7117
21
-70.6087
0
LINE
8
BLACK
6
CONTINUOUS
10
66.7117
20
-70.6087
11
66.8843
21
-70.7156
0
LINE
8
BLACK
6
CONTINUOUS
10
66.8843
20
-70.7156
11
67.0343
21
-70.8523
0
LINE
8
BLACK
6
CONTINUOUS
10
67.0343
20
-70.8523
11
67.1567
21
-71.0143
0
LINE
8
BLACK
6
CONTINUOUS
10
67.1567
20
-71.0143
11
67.2471
21
-71.196
0
LINE
8
BLACK
6
CONTINUOUS
10
67.2471
20
-71.196
11
67.3027
21
-71.3913
0
LINE
8
BLACK
6
CONTINUOUS
10
67.3027
20
-71.3913
11
67.3214
21
-71.5934
0
LINE
8
BLACK
6
CONTINUOUS
10
67.3214
20
-71.5934
11
67.3027
21
-71.7955
0
LINE
8
BLACK
6
CONTINUOUS
10
67.3027
20
-71.7955
11
67.2471
21
-71.9907
0
LINE
8
BLACK
6
CONTINUOUS
10
67.2471
20
-71.9907
11
67.1567
21
-72.1725
0
LINE
8
BLACK
6
CONTINUOUS
10
67.1567
20
-72.1725
11
67.0343
21
-72.3344
0
LINE
8
BLACK
6
CONTINUOUS
10
67.0343
20
-72.3344
11
66.8843
21
-72.4712
0
LINE
8
BLACK
6
CONTINUOUS
10
66.8843
20
-72.4712
11
66.7117
21
-72.5781
0
LINE
8
BLACK
6
CONTINUOUS
10
66.7117
20
-72.5781
11
66.5224
21
-72.6514
0
LINE
8
BLACK
6
CONTINUOUS
10
66.5224
20
-72.6514
11
66.3229
21
-72.6887
0
LINE
8
BLACK
6
CONTINUOUS
10
66.3229
20
-72.6887
11
66.1199
21
-72.6887
0
LINE
8
BLACK
6
CONTINUOUS
10
66.1199
20
-72.6887
11
65.9204
21
-72.6514
0
LINE
8
BLACK
6
CONTINUOUS
10
65.9204
20
-72.6514
11
65.7311
21
-72.5781
0
LINE
8
BLACK
6
CONTINUOUS
10
65.7311
20
-72.5781
11
65.5585
21
-72.4712
0
LINE
8
BLACK
6
CONTINUOUS
10
65.5585
20
-72.4712
11
65.4085
21
-72.3344
0
LINE
8
BLACK
6
CONTINUOUS
10
65.4085
20
-72.3344
11
65.2862
21
-72.1725
0
LINE
8
BLACK
6
CONTINUOUS
10
65.2862
20
-72.1725
11
65.1957
21
-71.9907
0
LINE
8
BLACK
6
CONTINUOUS
10
65.1957
20
-71.9907
11
65.1401
21
-71.7955
0
LINE
8
BLACK
6
CONTINUOUS
10
65.1401
20
-71.7955
11
65.1214
21
-71.5934
0
LINE
8
BLACK
6
CONTINUOUS
10
65.1214
20
-71.5934
11
65.1401
21
-71.3913
0
LINE
8
BLACK
6
CONTINUOUS
10
65.1401
20
-71.3913
11
65.1957
21
-71.196
0
LINE
8
BLACK
6
CONTINUOUS
10
65.1957
20
-71.196
11
65.2862
21
-71.0143
0
LINE
8
BLACK
6
CONTINUOUS
10
65.2862
20
-71.0143
11
65.4085
21
-70.8523
0
LINE
8
BLACK
6
CONTINUOUS
10
65.4085
20
-70.8523
11
65.5585
21
-70.7156
0
LINE
8
BLACK
6
CONTINUOUS
10
65.5585
20
-70.7156
11
65.7311
21
-70.6087
0
LINE
8
BLACK
6
CONTINUOUS
10
65.7311
20
-70.6087
11
65.9204
21
-70.5354
0
LINE
8
BLACK
6
CONTINUOUS
10
65.9204
20
-70.5354
11
66.1199
21
-70.4981
0
LINE
8
BLACK
6
CONTINUOUS
10
66.1199
20
-70.4981
11
66.3229
21
-70.4981
0
LINE
8
BLACK
6
CONTINUOUS
10
66.3229
20
-70.4981
11
66.5224
21
-70.5354
0
LINE
8
BLACK
6
CONTINUOUS
10
69.0624
20
-70.5354
11
69.2517
21
-70.6087
0
LINE
8
BLACK
6
CONTINUOUS
10
69.2517
20
-70.6087
11
69.4243
21
-70.7156
0
LINE
8
BLACK
6
CONTINUOUS
10
69.4243
20
-70.7156
11
69.5743
21
-70.8523
0
LINE
8
BLACK
6
CONTINUOUS
10
69.5743
20
-70.8523
11
69.6967
21
-71.0143
0
LINE
8
BLACK
6
CONTINUOUS
10
69.6967
20
-71.0143
11
69.7871
21
-71.196
0
LINE
8
BLACK
6
CONTINUOUS
10
69.7871
20
-71.196
11
69.8427
21
-71.3913
0
LINE
8
BLACK
6
CONTINUOUS
10
69.8427
20
-71.3913
11
69.8614
21
-71.5934
0
LINE
8
BLACK
6
CONTINUOUS
10
69.8614
20
-71.5934
11
69.8427
21
-71.7955
0
LINE
8
BLACK
6
CONTINUOUS
10
69.8427
20
-71.7955
11
69.7871
21
-71.9907
0
LINE
8
BLACK
6
CONTINUOUS
10
69.7871
20
-71.9907
11
69.6967
21
-72.1725
0
LINE
8
BLACK
6
CONTINUOUS
10
69.6967
20
-72.1725
11
69.5743
21
-72.3344
0
LINE
8
BLACK
6
CONTINUOUS
10
69.5743
20
-72.3344
11
69.4243
21
-72.4712
0
LINE
8
BLACK
6
CONTINUOUS
10
69.4243
20
-72.4712
11
69.2517
21
-72.5781
0
LINE
8
BLACK
6
CONTINUOUS
10
69.2517
20
-72.5781
11
69.0624
21
-72.6514
0
LINE
8
BLACK
6
CONTINUOUS
10
69.0624
20
-72.6514
11
68.8629
21
-72.6887
0
LINE
8
BLACK
6
CONTINUOUS
10
68.8629
20
-72.6887
11
68.6599
21
-72.6887
0
LINE
8
BLACK
6
CONTINUOUS
10
68.6599
20
-72.6887
11
68.4604
21
-72.6514
0
LINE
8
BLACK
6
CONTINUOUS
10
68.4604
20
-72.6514
11
68.2711
21
-72.5781
0
LINE
8
BLACK
6
CONTINUOUS
10
68.2711
20
-72.5781
11
68.0985
21
-72.4712
0
LINE
8
BLACK
6
CONTINUOUS
10
68.0985
20
-72.4712
11
67.9485
21
-72.3344
0
LINE
8
BLACK
6
CONTINUOUS
10
67.9485
20
-72.3344
11
67.8262
21
-72.1725
0
LINE
8
BLACK
6
CONTINUOUS
10
67.8262
20
-72.1725
11
67.7357
21
-71.9907
0
LINE
8
BLACK
6
CONTINUOUS
10
67.7357
20
-71.9907
11
67.6801
21
-71.7955
0
LINE
8
BLACK
6
CONTINUOUS
10
67.6801
20
-71.7955
11
67.6614
21
-71.5934
0
LINE
8
BLACK
6
CONTINUOUS
10
67.6614
20
-71.5934
11
67.6801
21
-71.3913
0
LINE
8
BLACK
6
CONTINUOUS
10
67.6801
20
-71.3913
11
67.7357
21
-71.196
0
LINE
8
BLACK
6
CONTINUOUS
10
67.7357
20
-71.196
11
67.8262
21
-71.0143
0
LINE
8
BLACK
6
CONTINUOUS
10
67.8262
20
-71.0143
11
67.9485
21
-70.8523
0
LINE
8
BLACK
6
CONTINUOUS
10
67.9485
20
-70.8523
11
68.0985
21
-70.7156
0
LINE
8
BLACK
6
CONTINUOUS
10
68.0985
20
-70.7156
11
68.2711
21
-70.6087
0
LINE
8
BLACK
6
CONTINUOUS
10
68.2711
20
-70.6087
11
68.4604
21
-70.5354
0
LINE
8
BLACK
6
CONTINUOUS
10
68.4604
20
-70.5354
11
68.6599
21
-70.4981
0
LINE
8
BLACK
6
CONTINUOUS
10
68.6599
20
-70.4981
11
68.8629
21
-70.4981
0
LINE
8
BLACK
6
CONTINUOUS
10
68.8629
20
-70.4981
11
69.0624
21
-70.5354
0
LINE
8
BLACK
6
CONTINUOUS
10
65.04
20
-47.083
11
65.1515
21
-47.1398
0
LINE
8
BLACK
6
CONTINUOUS
10
65.1515
20
-47.1398
11
65.24
21
-47.2283
0
LINE
8
BLACK
6
CONTINUOUS
10
65.24
20
-47.2283
11
65.2968
21
-47.3398
0
LINE
8
BLACK
6
CONTINUOUS
10
65.2968
20
-47.3398
11
65.3164
21
-47.4634
0
LINE
8
BLACK
6
CONTINUOUS
10
65.3164
20
-47.4634
11
65.2968
21
-47.587
0
LINE
8
BLACK
6
CONTINUOUS
10
65.2968
20
-47.587
11
65.24
21
-47.6985
0
LINE
8
BLACK
6
CONTINUOUS
10
65.24
20
-47.6985
11
65.1515
21
-47.787
0
LINE
8
BLACK
6
CONTINUOUS
10
65.1515
20
-47.787
11
65.04
21
-47.8438
0
LINE
8
BLACK
6
CONTINUOUS
10
65.04
20
-47.8438
11
64.9164
21
-47.8634
0
LINE
8
BLACK
6
CONTINUOUS
10
64.9164
20
-47.8634
11
64.8849
21
-47.8584
0
LINE
8
BLACK
6
CONTINUOUS
10
64.8849
20
-47.8584
11
64.8849
21
-56.6197
0
LINE
8
BLACK
6
CONTINUOUS
10
64.8849
20
-56.6197
11
65.7548
21
-57.4896
0
LINE
8
BLACK
6
CONTINUOUS
10
65.7548
20
-57.4896
11
65.7682
21
-57.5075
0
LINE
8
BLACK
6
CONTINUOUS
10
65.7682
20
-57.5075
11
65.7716
21
-57.5104
0
LINE
8
BLACK
6
CONTINUOUS
10
65.7716
20
-57.5104
11
65.7723
21
-57.513
0
LINE
8
BLACK
6
CONTINUOUS
10
65.7723
20
-57.513
11
65.7761
21
-57.5181
0
LINE
8
BLACK
6
CONTINUOUS
10
65.7761
20
-57.5181
11
65.7827
21
-57.5483
0
LINE
8
BLACK
6
CONTINUOUS
10
65.7827
20
-57.5483
11
65.7914
21
-57.578
0
LINE
8
BLACK
6
CONTINUOUS
10
65.7914
20
-57.578
11
65.7914
21
-59.6774
0
LINE
8
BLACK
6
CONTINUOUS
10
65.7914
20
-59.6774
11
65.7882
21
-59.6995
0
LINE
8
BLACK
6
CONTINUOUS
10
65.7882
20
-59.6995
11
65.7886
21
-59.704
0
LINE
8
BLACK
6
CONTINUOUS
10
65.7886
20
-59.704
11
65.7873
21
-59.7064
0
LINE
8
BLACK
6
CONTINUOUS
10
65.7873
20
-59.7064
11
65.7864
21
-59.7126
0
LINE
8
BLACK
6
CONTINUOUS
10
65.7864
20
-59.7126
11
65.7696
21
-59.7386
0
LINE
8
BLACK
6
CONTINUOUS
10
65.7696
20
-59.7386
11
65.7548
21
-59.7658
0
LINE
8
BLACK
6
CONTINUOUS
10
65.7548
20
-59.7658
11
65.051
21
-60.4696
0
LINE
8
BLACK
6
CONTINUOUS
10
65.051
20
-60.4696
11
65.0331
21
-60.4829
0
LINE
8
BLACK
6
CONTINUOUS
10
65.0331
20
-60.4829
11
65.0302
21
-60.4863
0
LINE
8
BLACK
6
CONTINUOUS
10
65.0302
20
-60.4863
11
65.0276
21
-60.4871
0
LINE
8
BLACK
6
CONTINUOUS
10
65.0276
20
-60.4871
11
65.0225
21
-60.4909
0
LINE
8
BLACK
6
CONTINUOUS
10
65.0225
20
-60.4909
11
64.9923
21
-60.4975
0
LINE
8
BLACK
6
CONTINUOUS
10
64.9923
20
-60.4975
11
64.9626
21
-60.5062
0
LINE
8
BLACK
6
CONTINUOUS
10
64.9626
20
-60.5062
11
62.7254
21
-60.5062
0
LINE
8
BLACK
6
CONTINUOUS
10
62.7254
20
-60.5062
11
60.5664
21
-62.6652
0
LINE
8
BLACK
6
CONTINUOUS
10
60.5664
20
-62.6652
11
60.5664
21
-64.7366
0
LINE
8
BLACK
6
CONTINUOUS
10
60.5664
20
-64.7366
11
65.0327
21
-69.2029
0
LINE
8
BLACK
6
CONTINUOUS
10
65.0327
20
-69.2029
11
69.0359
21
-69.2029
0
LINE
8
BLACK
6
CONTINUOUS
10
69.0359
20
-69.2029
11
69.058
21
-69.2061
0
LINE
8
BLACK
6
CONTINUOUS
10
69.058
20
-69.2061
11
69.0625
21
-69.2057
0
LINE
8
BLACK
6
CONTINUOUS
10
69.0625
20
-69.2057
11
69.0649
21
-69.207
0
LINE
8
BLACK
6
CONTINUOUS
10
69.0649
20
-69.207
11
69.0711
21
-69.2079
0
LINE
8
BLACK
6
CONTINUOUS
10
69.0711
20
-69.2079
11
69.0972
21
-69.2247
0
LINE
8
BLACK
6
CONTINUOUS
10
69.0972
20
-69.2247
11
69.1243
21
-69.2395
0
LINE
8
BLACK
6
CONTINUOUS
10
69.1243
20
-69.2395
11
70.6186
21
-70.7338
0
LINE
8
BLACK
6
CONTINUOUS
10
70.6186
20
-70.7338
11
70.6385
21
-70.7156
0
LINE
8
BLACK
6
CONTINUOUS
10
70.6385
20
-70.7156
11
70.8111
21
-70.6087
0
LINE
8
BLACK
6
CONTINUOUS
10
70.8111
20
-70.6087
11
71.0004
21
-70.5354
0
LINE
8
BLACK
6
CONTINUOUS
10
71.0004
20
-70.5354
11
71.1999
21
-70.4981
0
LINE
8
BLACK
6
CONTINUOUS
10
71.1999
20
-70.4981
11
71.4029
21
-70.4981
0
LINE
8
BLACK
6
CONTINUOUS
10
71.4029
20
-70.4981
11
71.6024
21
-70.5354
0
LINE
8
BLACK
6
CONTINUOUS
10
71.6024
20
-70.5354
11
71.7917
21
-70.6087
0
LINE
8
BLACK
6
CONTINUOUS
10
71.7917
20
-70.6087
11
71.9643
21
-70.7156
0
LINE
8
BLACK
6
CONTINUOUS
10
71.9643
20
-70.7156
11
72.1143
21
-70.8523
0
LINE
8
BLACK
6
CONTINUOUS
10
72.1143
20
-70.8523
11
72.2367
21
-71.0143
0
LINE
8
BLACK
6
CONTINUOUS
10
72.2367
20
-71.0143
11
72.3271
21
-71.196
0
LINE
8
BLACK
6
CONTINUOUS
10
72.3271
20
-71.196
11
72.3827
21
-71.3913
0
LINE
8
BLACK
6
CONTINUOUS
10
72.3827
20
-71.3913
11
72.4014
21
-71.5934
0
LINE
8
BLACK
6
CONTINUOUS
10
72.4014
20
-71.5934
11
72.3827
21
-71.7955
0
LINE
8
BLACK
6
CONTINUOUS
10
72.3827
20
-71.7955
11
72.3271
21
-71.9907
0
LINE
8
BLACK
6
CONTINUOUS
10
72.3271
20
-71.9907
11
72.2367
21
-72.1725
0
LINE
8
BLACK
6
CONTINUOUS
10
72.2367
20
-72.1725
11
72.1143
21
-72.3344
0
LINE
8
BLACK
6
CONTINUOUS
10
72.1143
20
-72.3344
11
71.9643
21
-72.4712
0
LINE
8
BLACK
6
CONTINUOUS
10
71.9643
20
-72.4712
11
71.7917
21
-72.5781
0
LINE
8
BLACK
6
CONTINUOUS
10
71.7917
20
-72.5781
11
71.6024
21
-72.6514
0
LINE
8
BLACK
6
CONTINUOUS
10
71.6024
20
-72.6514
11
71.4029
21
-72.6887
0
LINE
8
BLACK
6
CONTINUOUS
10
71.4029
20
-72.6887
11
71.1999
21
-72.6887
0
LINE
8
BLACK
6
CONTINUOUS
10
71.1999
20
-72.6887
11
71.0004
21
-72.6514
0
LINE
8
BLACK
6
CONTINUOUS
10
71.0004
20
-72.6514
11
70.8111
21
-72.5781
0
LINE
8
BLACK
6
CONTINUOUS
10
70.8111
20
-72.5781
11
70.6385
21
-72.4712
0
LINE
8
BLACK
6
CONTINUOUS
10
70.6385
20
-72.4712
11
70.4885
21
-72.3344
0
LINE
8
BLACK
6
CONTINUOUS
10
70.4885
20
-72.3344
11
70.3662
21
-72.1725
0
LINE
8
BLACK
6
CONTINUOUS
10
70.3662
20
-72.1725
11
70.2757
21
-71.9907
0
LINE
8
BLACK
6
CONTINUOUS
10
70.2757
20
-71.9907
11
70.2202
21
-71.7955
0
LINE
8
BLACK
6
CONTINUOUS
10
70.2202
20
-71.7955
11
70.2014
21
-71.5934
0
LINE
8
BLACK
6
CONTINUOUS
10
70.2014
20
-71.5934
11
70.2202
21
-71.3913
0
LINE
8
BLACK
6
CONTINUOUS
10
70.2202
20
-71.3913
11
70.2757
21
-71.196
0
LINE
8
BLACK
6
CONTINUOUS
10
70.2757
20
-71.196
11
70.3662
21
-71.0143
0
LINE
8
BLACK
6
CONTINUOUS
10
70.3662
20
-71.0143
11
70.4434
21
-70.9121
0
LINE
8
BLACK
6
CONTINUOUS
10
70.4434
20
-70.9121
11
68.9841
21
-69.4529
0
LINE
8
BLACK
6
CONTINUOUS
10
68.9841
20
-69.4529
11
64.9809
21
-69.4529
0
LINE
8
BLACK
6
CONTINUOUS
10
64.9809
20
-69.4529
11
64.9588
21
-69.4497
0
LINE
8
BLACK
6
CONTINUOUS
10
64.9588
20
-69.4497
11
64.9543
21
-69.45
0
LINE
8
BLACK
6
CONTINUOUS
10
64.9543
20
-69.45
11
64.952
21
-69.4487
0
LINE
8
BLACK
6
CONTINUOUS
10
64.952
20
-69.4487
11
64.9457
21
-69.4478
0
LINE
8
BLACK
6
CONTINUOUS
10
64.9457
20
-69.4478
11
64.9197
21
-69.4311
0
LINE
8
BLACK
6
CONTINUOUS
10
64.9197
20
-69.4311
11
64.8925
21
-69.4163
0
LINE
8
BLACK
6
CONTINUOUS
10
64.8925
20
-69.4163
11
60.353
21
-64.8768
0
LINE
8
BLACK
6
CONTINUOUS
10
60.353
20
-64.8768
11
60.3397
21
-64.8589
0
LINE
8
BLACK
6
CONTINUOUS
10
60.3397
20
-64.8589
11
60.3363
21
-64.856
0
LINE
8
BLACK
6
CONTINUOUS
10
60.3363
20
-64.856
11
60.3355
21
-64.8533
0
LINE
8
BLACK
6
CONTINUOUS
10
60.3355
20
-64.8533
11
60.3317
21
-64.8483
0
LINE
8
BLACK
6
CONTINUOUS
10
60.3317
20
-64.8483
11
60.3251
21
-64.8181
0
LINE
8
BLACK
6
CONTINUOUS
10
60.3251
20
-64.8181
11
60.3164
21
-64.7884
0
LINE
8
BLACK
6
CONTINUOUS
10
60.3164
20
-64.7884
11
60.3164
21
-62.6134
0
LINE
8
BLACK
6
CONTINUOUS
10
60.3164
20
-62.6134
11
60.3196
21
-62.5913
0
LINE
8
BLACK
6
CONTINUOUS
10
60.3196
20
-62.5913
11
60.3193
21
-62.5868
0
LINE
8
BLACK
6
CONTINUOUS
10
60.3193
20
-62.5868
11
60.3206
21
-62.5844
0
LINE
8
BLACK
6
CONTINUOUS
10
60.3206
20
-62.5844
11
60.3215
21
-62.5782
0
LINE
8
BLACK
6
CONTINUOUS
10
60.3215
20
-62.5782
11
60.3382
21
-62.5521
0
LINE
8
BLACK
6
CONTINUOUS
10
60.3382
20
-62.5521
11
60.353
21
-62.525
0
LINE
8
BLACK
6
CONTINUOUS
10
60.353
20
-62.525
11
62.5852
21
-60.2928
0
LINE
8
BLACK
6
CONTINUOUS
10
62.5852
20
-60.2928
11
62.6031
21
-60.2794
0
LINE
8
BLACK
6
CONTINUOUS
10
62.6031
20
-60.2794
11
62.606
21
-60.276
0
LINE
8
BLACK
6
CONTINUOUS
10
62.606
20
-60.276
11
62.6087
21
-60.2753
0
LINE
8
BLACK
6
CONTINUOUS
10
62.6087
20
-60.2753
11
62.6137
21
-60.2715
0
LINE
8
BLACK
6
CONTINUOUS
10
62.6137
20
-60.2715
11
62.6439
21
-60.2649
0
LINE
8
BLACK
6
CONTINUOUS
10
62.6439
20
-60.2649
11
62.6736
21
-60.2562
0
LINE
8
BLACK
6
CONTINUOUS
10
62.6736
20
-60.2562
11
64.9108
21
-60.2562
0
LINE
8
BLACK
6
CONTINUOUS
10
64.9108
20
-60.2562
11
65.5414
21
-59.6256
0
LINE
8
BLACK
6
CONTINUOUS
10
65.5414
20
-59.6256
11
65.5414
21
-57.6298
0
LINE
8
BLACK
6
CONTINUOUS
10
65.5414
20
-57.6298
11
64.6715
21
-56.7599
0
LINE
8
BLACK
6
CONTINUOUS
10
64.6715
20
-56.7599
11
64.6582
21
-56.742
0
LINE
8
BLACK
6
CONTINUOUS
10
64.6582
20
-56.742
11
64.6548
21
-56.7391
0
LINE
8
BLACK
6
CONTINUOUS
10
64.6548
20
-56.7391
11
64.654
21
-56.7364
0
LINE
8
BLACK
6
CONTINUOUS
10
64.654
20
-56.7364
11
64.6502
21
-56.7314
0
LINE
8
BLACK
6
CONTINUOUS
10
64.6502
20
-56.7314
11
64.6436
21
-56.7012
0
LINE
8
BLACK
6
CONTINUOUS
10
64.6436
20
-56.7012
11
64.6349
21
-56.6715
0
LINE
8
BLACK
6
CONTINUOUS
10
64.6349
20
-56.6715
11
64.6349
21
-47.7406
0
LINE
8
BLACK
6
CONTINUOUS
10
64.6349
20
-47.7406
11
64.5928
21
-47.6985
0
LINE
8
BLACK
6
CONTINUOUS
10
64.5928
20
-47.6985
11
64.536
21
-47.587
0
LINE
8
BLACK
6
CONTINUOUS
10
64.536
20
-47.587
11
64.5164
21
-47.4634
0
LINE
8
BLACK
6
CONTINUOUS
10
64.5164
20
-47.4634
11
64.536
21
-47.3398
0
LINE
8
BLACK
6
CONTINUOUS
10
64.536
20
-47.3398
11
64.5928
21
-47.2283
0
LINE
8
BLACK
6
CONTINUOUS
10
64.5928
20
-47.2283
11
64.6813
21
-47.1398
0
LINE
8
BLACK
6
CONTINUOUS
10
64.6813
20
-47.1398
11
64.7928
21
-47.083
0
LINE
8
BLACK
6
CONTINUOUS
10
64.7928
20
-47.083
11
64.9164
21
-47.0634
0
LINE
8
BLACK
6
CONTINUOUS
10
64.9164
20
-47.0634
11
65.04
21
-47.083
0
LINE
8
BLACK
6
CONTINUOUS
10
56.4729
20
-49.5774
11
56.5844
21
-49.6342
0
LINE
8
BLACK
6
CONTINUOUS
10
56.5844
20
-49.6342
11
56.6729
21
-49.7227
0
LINE
8
BLACK
6
CONTINUOUS
10
56.6729
20
-49.7227
11
56.7297
21
-49.8342
0
LINE
8
BLACK
6
CONTINUOUS
10
56.7297
20
-49.8342
11
56.7493
21
-49.9578
0
LINE
8
BLACK
6
CONTINUOUS
10
56.7493
20
-49.9578
11
56.7297
21
-50.0814
0
LINE
8
BLACK
6
CONTINUOUS
10
56.7297
20
-50.0814
11
56.6729
21
-50.1929
0
LINE
8
BLACK
6
CONTINUOUS
10
56.6729
20
-50.1929
11
56.5844
21
-50.2814
0
LINE
8
BLACK
6
CONTINUOUS
10
56.5844
20
-50.2814
11
56.4743
21
-50.3375
0
LINE
8
BLACK
6
CONTINUOUS
10
56.4743
20
-50.3375
11
56.4743
21
-58.0754
0
LINE
8
BLACK
6
CONTINUOUS
10
56.4743
20
-58.0754
11
57.2325
21
-58.8336
0
LINE
8
BLACK
6
CONTINUOUS
10
57.2325
20
-58.8336
11
57.2855
21
-58.8066
0
LINE
8
BLACK
6
CONTINUOUS
10
57.2855
20
-58.8066
11
57.4091
21
-58.787
0
LINE
8
BLACK
6
CONTINUOUS
10
57.4091
20
-58.787
11
57.5327
21
-58.8066
0
LINE
8
BLACK
6
CONTINUOUS
10
57.5327
20
-58.8066
11
57.6442
21
-58.8634
0
LINE
8
BLACK
6
CONTINUOUS
10
57.6442
20
-58.8634
11
57.7327
21
-58.9519
0
LINE
8
BLACK
6
CONTINUOUS
10
57.7327
20
-58.9519
11
57.7895
21
-59.0634
0
LINE
8
BLACK
6
CONTINUOUS
10
57.7895
20
-59.0634
11
57.8091
21
-59.187
0
LINE
8
BLACK
6
CONTINUOUS
10
57.8091
20
-59.187
11
57.7895
21
-59.3106
0
LINE
8
BLACK
6
CONTINUOUS
10
57.7895
20
-59.3106
11
57.7327
21
-59.4221
0
LINE
8
BLACK
6
CONTINUOUS
10
57.7327
20
-59.4221
11
57.6864
21
-59.4684
0
LINE
8
BLACK
6
CONTINUOUS
10
57.6864
20
-59.4684
11
57.6864
21
-60.3734
0
LINE
8
BLACK
6
CONTINUOUS
10
57.6864
20
-60.3734
11
57.6674
21
-60.4691
0
LINE
8
BLACK
6
CONTINUOUS
10
57.6674
20
-60.4691
11
57.6132
21
-60.5502
0
LINE
8
BLACK
6
CONTINUOUS
10
57.6132
20
-60.5502
11
57.6132
21
-60.5502
0
LINE
8
BLACK
6
CONTINUOUS
10
57.6132
20
-60.5502
11
56.9232
21
-61.2402
0
LINE
8
BLACK
6
CONTINUOUS
10
56.9232
20
-61.2402
11
56.8421
21
-61.2944
0
LINE
8
BLACK
6
CONTINUOUS
10
56.8421
20
-61.2944
11
56.7464
21
-61.3134
0
LINE
8
BLACK
6
CONTINUOUS
10
56.7464
20
-61.3134
11
54.545
21
-61.3134
0
LINE
8
BLACK
6
CONTINUOUS
10
54.545
20
-61.3134
11
53.7664
21
-62.0919
0
LINE
8
BLACK
6
CONTINUOUS
10
53.7664
20
-62.0919
11
53.7664
21
-65.6634
0
LINE
8
BLACK
6
CONTINUOUS
10
53.7664
20
-65.6634
11
53.7474
21
-65.7591
0
LINE
8
BLACK
6
CONTINUOUS
10
53.7474
20
-65.7591
11
53.6932
21
-65.8402
0
LINE
8
BLACK
6
CONTINUOUS
10
53.6932
20
-65.8402
11
52.0526
21
-67.4808
0
LINE
8
BLACK
6
CONTINUOUS
10
52.0526
20
-67.4808
11
52.079
21
-67.5184
0
LINE
8
BLACK
6
CONTINUOUS
10
52.079
20
-67.5184
11
52.171
21
-67.7159
0
LINE
8
BLACK
6
CONTINUOUS
10
52.171
20
-67.7159
11
52.2274
21
-67.9263
0
LINE
8
BLACK
6
CONTINUOUS
10
52.2274
20
-67.9263
11
52.2464
21
-68.1434
0
LINE
8
BLACK
6
CONTINUOUS
10
52.2464
20
-68.1434
11
52.2274
21
-68.3604
0
LINE
8
BLACK
6
CONTINUOUS
10
52.2274
20
-68.3604
11
52.171
21
-68.5709
0
LINE
8
BLACK
6
CONTINUOUS
10
52.171
20
-68.5709
11
52.079
21
-68.7684
0
LINE
8
BLACK
6
CONTINUOUS
10
52.079
20
-68.7684
11
51.954
21
-68.9469
0
LINE
8
BLACK
6
CONTINUOUS
10
51.954
20
-68.9469
11
51.7999
21
-69.1009
0
LINE
8
BLACK
6
CONTINUOUS
10
51.7999
20
-69.1009
11
51.6214
21
-69.2259
0
LINE
8
BLACK
6
CONTINUOUS
10
51.6214
20
-69.2259
11
51.4239
21
-69.318
0
LINE
8
BLACK
6
CONTINUOUS
10
51.4239
20
-69.318
11
51.2664
21
-69.3602
0
LINE
8
BLACK
6
CONTINUOUS
10
51.2664
20
-69.3602
11
51.2664
21
-69.8412
0
LINE
8
BLACK
6
CONTINUOUS
10
51.2664
20
-69.8412
11
51.4439
21
-69.8888
0
LINE
8
BLACK
6
CONTINUOUS
10
51.4439
20
-69.8888
11
51.6414
21
-69.9809
0
LINE
8
BLACK
6
CONTINUOUS
10
51.6414
20
-69.9809
11
51.8199
21
-70.1058
0
LINE
8
BLACK
6
CONTINUOUS
10
51.8199
20
-70.1058
11
51.974
21
-70.2599
0
LINE
8
BLACK
6
CONTINUOUS
10
51.974
20
-70.2599
11
52.099
21
-70.4384
0
LINE
8
BLACK
6
CONTINUOUS
10
52.099
20
-70.4384
11
52.191
21
-70.6359
0
LINE
8
BLACK
6
CONTINUOUS
10
52.191
20
-70.6359
11
52.2474
21
-70.8463
0
LINE
8
BLACK
6
CONTINUOUS
10
52.2474
20
-70.8463
11
52.2664
21
-71.0634
0
LINE
8
BLACK
6
CONTINUOUS
10
52.2664
20
-71.0634
11
52.2474
21
-71.2804
0
LINE
8
BLACK
6
CONTINUOUS
10
52.2474
20
-71.2804
11
52.191
21
-71.4909
0
LINE
8
BLACK
6
CONTINUOUS
10
52.191
20
-71.4909
11
52.099
21
-71.6884
0
LINE
8
BLACK
6
CONTINUOUS
10
52.099
20
-71.6884
11
51.974
21
-71.8669
0
LINE
8
BLACK
6
CONTINUOUS
10
51.974
20
-71.8669
11
51.8199
21
-72.0209
0
LINE
8
BLACK
6
CONTINUOUS
10
51.8199
20
-72.0209
11
51.6414
21
-72.1459
0
LINE
8
BLACK
6
CONTINUOUS
10
51.6414
20
-72.1459
11
51.4439
21
-72.238
0
LINE
8
BLACK
6
CONTINUOUS
10
51.4439
20
-72.238
11
51.2335
21
-72.2944
0
LINE
8
BLACK
6
CONTINUOUS
10
51.2335
20
-72.2944
11
51.0164
21
-72.3134
0
LINE
8
BLACK
6
CONTINUOUS
10
51.0164
20
-72.3134
11
50.7994
21
-72.2944
0
LINE
8
BLACK
6
CONTINUOUS
10
50.7994
20
-72.2944
11
50.5889
21
-72.238
0
LINE
8
BLACK
6
CONTINUOUS
10
50.5889
20
-72.238
11
50.3914
21
-72.1459
0
LINE
8
BLACK
6
CONTINUOUS
10
50.3914
20
-72.1459
11
50.2129
21
-72.0209
0
LINE
8
BLACK
6
CONTINUOUS
10
50.2129
20
-72.0209
11
50.0589
21
-71.8669
0
LINE
8
BLACK
6
CONTINUOUS
10
50.0589
20
-71.8669
11
49.9339
21
-71.6884
0
LINE
8
BLACK
6
CONTINUOUS
10
49.9339
20
-71.6884
11
49.8418
21
-71.4909
0
LINE
8
BLACK
6
CONTINUOUS
10
49.8418
20
-71.4909
11
49.7854
21
-71.2804
0
LINE
8
BLACK
6
CONTINUOUS
10
49.7854
20
-71.2804
11
49.7664
21
-71.0634
0
LINE
8
BLACK
6
CONTINUOUS
10
49.7664
20
-71.0634
11
49.7854
21
-70.8463
0
LINE
8
BLACK
6
CONTINUOUS
10
49.7854
20
-70.8463
11
49.8418
21
-70.6359
0
LINE
8
BLACK
6
CONTINUOUS
10
49.8418
20
-70.6359
11
49.9339
21
-70.4384
0
LINE
8
BLACK
6
CONTINUOUS
10
49.9339
20
-70.4384
11
50.0589
21
-70.2599
0
LINE
8
BLACK
6
CONTINUOUS
10
50.0589
20
-70.2599
11
50.2129
21
-70.1058
0
LINE
8
BLACK
6
CONTINUOUS
10
50.2129
20
-70.1058
11
50.3914
21
-69.9809
0
LINE
8
BLACK
6
CONTINUOUS
10
50.3914
20
-69.9809
11
50.5889
21
-69.8888
0
LINE
8
BLACK
6
CONTINUOUS
10
50.5889
20
-69.8888
11
50.7664
21
-69.8412
0
LINE
8
BLACK
6
CONTINUOUS
10
50.7664
20
-69.8412
11
50.7664
21
-69.3709
0
LINE
8
BLACK
6
CONTINUOUS
10
50.7664
20
-69.3709
11
50.5689
21
-69.318
0
LINE
8
BLACK
6
CONTINUOUS
10
50.5689
20
-69.318
11
50.3714
21
-69.2259
0
LINE
8
BLACK
6
CONTINUOUS
10
50.3714
20
-69.2259
11
50.1929
21
-69.1009
0
LINE
8
BLACK
6
CONTINUOUS
10
50.1929
20
-69.1009
11
50.0389
21
-68.9469
0
LINE
8
BLACK
6
CONTINUOUS
10
50.0389
20
-68.9469
11
49.9139
21
-68.7684
0
LINE
8
BLACK
6
CONTINUOUS
10
49.9139
20
-68.7684
11
49.8218
21
-68.5709
0
LINE
8
BLACK
6
CONTINUOUS
10
49.8218
20
-68.5709
11
49.7654
21
-68.3604
0
LINE
8
BLACK
6
CONTINUOUS
10
49.7654
20
-68.3604
11
49.7464
21
-68.1434
0
LINE
8
BLACK
6
CONTINUOUS
10
49.7464
20
-68.1434
11
49.7654
21
-67.9263
0
LINE
8
BLACK
6
CONTINUOUS
10
49.7654
20
-67.9263
11
49.8218
21
-67.7159
0
LINE
8
BLACK
6
CONTINUOUS
10
49.8218
20
-67.7159
11
49.9139
21
-67.5184
0
LINE
8
BLACK
6
CONTINUOUS
10
49.9139
20
-67.5184
11
50.0389
21
-67.3399
0
LINE
8
BLACK
6
CONTINUOUS
10
50.0389
20
-67.3399
11
50.1929
21
-67.1858
0
LINE
8
BLACK
6
CONTINUOUS
10
50.1929
20
-67.1858
11
50.3714
21
-67.0609
0
LINE
8
BLACK
6
CONTINUOUS
10
50.3714
20
-67.0609
11
50.5689
21
-66.9688
0
LINE
8
BLACK
6
CONTINUOUS
10
50.5689
20
-66.9688
11
50.7794
21
-66.9124
0
LINE
8
BLACK
6
CONTINUOUS
10
50.7794
20
-66.9124
11
50.9964
21
-66.8934
0
LINE
8
BLACK
6
CONTINUOUS
10
50.9964
20
-66.8934
11
51.2135
21
-66.9124
0
LINE
8
BLACK
6
CONTINUOUS
10
51.2135
20
-66.9124
11
51.4239
21
-66.9688
0
LINE
8
BLACK
6
CONTINUOUS
10
51.4239
20
-66.9688
11
51.6214
21
-67.0609
0
LINE
8
BLACK
6
CONTINUOUS
10
51.6214
20
-67.0609
11
51.7061
21
-67.1201
0
LINE
8
BLACK
6
CONTINUOUS
10
51.7061
20
-67.1201
11
53.2664
21
-65.5598
0
LINE
8
BLACK
6
CONTINUOUS
10
53.2664
20
-65.5598
11
53.2664
21
-62.0919
0
LINE
8
BLACK
6
CONTINUOUS
10
53.2664
20
-62.0919
11
50.6779
21
-59.5034
0
LINE
8
BLACK
6
CONTINUOUS
10
50.6779
20
-59.5034
11
50.5064
21
-59.5034
0
LINE
8
BLACK
6
CONTINUOUS
10
50.5064
20
-59.5034
11
50.5064
21
-60.1034
0
LINE
8
BLACK
6
CONTINUOUS
10
50.5064
20
-60.1034
11
48.8064
21
-60.1034
0
LINE
8
BLACK
6
CONTINUOUS
10
48.8064
20
-60.1034
11
48.8064
21
-58.4034
0
LINE
8
BLACK
6
CONTINUOUS
10
48.8064
20
-58.4034
11
50.5064
21
-58.4034
0
LINE
8
BLACK
6
CONTINUOUS
10
50.5064
20
-58.4034
11
50.5064
21
-59.0034
0
LINE
8
BLACK
6
CONTINUOUS
10
50.5064
20
-59.0034
11
50.7814
21
-59.0034
0
LINE
8
BLACK
6
CONTINUOUS
10
50.7814
20
-59.0034
11
50.8771
21
-59.0224
0
LINE
8
BLACK
6
CONTINUOUS
10
50.8771
20
-59.0224
11
50.9582
21
-59.0766
0
LINE
8
BLACK
6
CONTINUOUS
10
50.9582
20
-59.0766
11
53.5164
21
-61.6348
0
LINE
8
BLACK
6
CONTINUOUS
10
53.5164
20
-61.6348
11
54.2646
21
-60.8866
0
LINE
8
BLACK
6
CONTINUOUS
10
54.2646
20
-60.8866
11
54.2646
21
-60.8866
0
LINE
8
BLACK
6
CONTINUOUS
10
54.2646
20
-60.8866
11
54.3457
21
-60.8324
0
LINE
8
BLACK
6
CONTINUOUS
10
54.3457
20
-60.8324
11
54.3457
21
-60.8324
0
LINE
8
BLACK
6
CONTINUOUS
10
54.3457
20
-60.8324
11
54.4414
21
-60.8134
0
LINE
8
BLACK
6
CONTINUOUS
10
54.4414
20
-60.8134
11
54.4414
21
-60.8134
0
LINE
8
BLACK
6
CONTINUOUS
10
54.4414
20
-60.8134
11
56.6429
21
-60.8134
0
LINE
8
BLACK
6
CONTINUOUS
10
56.6429
20
-60.8134
11
57.1864
21
-60.2698
0
LINE
8
BLACK
6
CONTINUOUS
10
57.1864
20
-60.2698
11
57.1864
21
-59.5169
0
LINE
8
BLACK
6
CONTINUOUS
10
57.1864
20
-59.5169
11
57.174
21
-59.5106
0
LINE
8
BLACK
6
CONTINUOUS
10
57.174
20
-59.5106
11
57.0855
21
-59.4221
0
LINE
8
BLACK
6
CONTINUOUS
10
57.0855
20
-59.4221
11
57.0287
21
-59.3106
0
LINE
8
BLACK
6
CONTINUOUS
10
57.0287
20
-59.3106
11
57.0091
21
-59.187
0
LINE
8
BLACK
6
CONTINUOUS
10
57.0091
20
-59.187
11
57.0287
21
-59.0634
0
LINE
8
BLACK
6
CONTINUOUS
10
57.0287
20
-59.0634
11
57.0557
21
-59.0104
0
LINE
8
BLACK
6
CONTINUOUS
10
57.0557
20
-59.0104
11
56.2609
21
-58.2156
0
LINE
8
BLACK
6
CONTINUOUS
10
56.2609
20
-58.2156
11
56.2476
21
-58.1977
0
LINE
8
BLACK
6
CONTINUOUS
10
56.2476
20
-58.1977
11
56.2442
21
-58.1948
0
LINE
8
BLACK
6
CONTINUOUS
10
56.2442
20
-58.1948
11
56.2434
21
-58.1921
0
LINE
8
BLACK
6
CONTINUOUS
10
56.2434
20
-58.1921
11
56.2396
21
-58.1871
0
LINE
8
BLACK
6
CONTINUOUS
10
56.2396
20
-58.1871
11
56.233
21
-58.1569
0
LINE
8
BLACK
6
CONTINUOUS
10
56.233
20
-58.1569
11
56.2243
21
-58.1272
0
LINE
8
BLACK
6
CONTINUOUS
10
56.2243
20
-58.1272
11
56.2243
21
-50.3375
0
LINE
8
BLACK
6
CONTINUOUS
10
56.2243
20
-50.3375
11
56.1142
21
-50.2814
0
LINE
8
BLACK
6
CONTINUOUS
10
56.1142
20
-50.2814
11
56.0257
21
-50.1929
0
LINE
8
BLACK
6
CONTINUOUS
10
56.0257
20
-50.1929
11
55.9689
21
-50.0814
0
LINE
8
BLACK
6
CONTINUOUS
10
55.9689
20
-50.0814
11
55.9493
21
-49.9578
0
LINE
8
BLACK
6
CONTINUOUS
10
55.9493
20
-49.9578
11
55.9689
21
-49.8342
0
LINE
8
BLACK
6
CONTINUOUS
10
55.9689
20
-49.8342
11
56.0257
21
-49.7227
0
LINE
8
BLACK
6
CONTINUOUS
10
56.0257
20
-49.7227
11
56.1142
21
-49.6342
0
LINE
8
BLACK
6
CONTINUOUS
10
56.1142
20
-49.6342
11
56.2257
21
-49.5774
0
LINE
8
BLACK
6
CONTINUOUS
10
56.2257
20
-49.5774
11
56.3493
21
-49.5578
0
LINE
8
BLACK
6
CONTINUOUS
10
56.3493
20
-49.5578
11
56.4729
21
-49.5774
0
LINE
8
BLACK
6
CONTINUOUS
10
56.9635
20
-66.9124
11
57.1739
21
-66.9688
0
LINE
8
BLACK
6
CONTINUOUS
10
57.1739
20
-66.9688
11
57.3714
21
-67.0609
0
LINE
8
BLACK
6
CONTINUOUS
10
57.3714
20
-67.0609
11
57.5499
21
-67.1858
0
LINE
8
BLACK
6
CONTINUOUS
10
57.5499
20
-67.1858
11
57.704
21
-67.3399
0
LINE
8
BLACK
6
CONTINUOUS
10
57.704
20
-67.3399
11
57.829
21
-67.5184
0
LINE
8
BLACK
6
CONTINUOUS
10
57.829
20
-67.5184
11
57.921
21
-67.7159
0
LINE
8
BLACK
6
CONTINUOUS
10
57.921
20
-67.7159
11
57.9774
21
-67.9263
0
LINE
8
BLACK
6
CONTINUOUS
10
57.9774
20
-67.9263
11
57.9964
21
-68.1434
0
LINE
8
BLACK
6
CONTINUOUS
10
57.9964
20
-68.1434
11
57.9774
21
-68.3604
0
LINE
8
BLACK
6
CONTINUOUS
10
57.9774
20
-68.3604
11
57.921
21
-68.5709
0
LINE
8
BLACK
6
CONTINUOUS
10
57.921
20
-68.5709
11
57.829
21
-68.7684
0
LINE
8
BLACK
6
CONTINUOUS
10
57.829
20
-68.7684
11
57.704
21
-68.9469
0
LINE
8
BLACK
6
CONTINUOUS
10
57.704
20
-68.9469
11
57.5499
21
-69.1009
0
LINE
8
BLACK
6
CONTINUOUS
10
57.5499
20
-69.1009
11
57.3714
21
-69.2259
0
LINE
8
BLACK
6
CONTINUOUS
10
57.3714
20
-69.2259
11
57.1739
21
-69.318
0
LINE
8
BLACK
6
CONTINUOUS
10
57.1739
20
-69.318
11
57.0164
21
-69.3602
0
LINE
8
BLACK
6
CONTINUOUS
10
57.0164
20
-69.3602
11
57.0164
21
-69.8412
0
LINE
8
BLACK
6
CONTINUOUS
10
57.0164
20
-69.8412
11
57.1939
21
-69.8888
0
LINE
8
BLACK
6
CONTINUOUS
10
57.1939
20
-69.8888
11
57.3914
21
-69.9809
0
LINE
8
BLACK
6
CONTINUOUS
10
57.3914
20
-69.9809
11
57.5699
21
-70.1058
0
LINE
8
BLACK
6
CONTINUOUS
10
57.5699
20
-70.1058
11
57.724
21
-70.2599
0
LINE
8
BLACK
6
CONTINUOUS
10
57.724
20
-70.2599
11
57.849
21
-70.4384
0
LINE
8
BLACK
6
CONTINUOUS
10
57.849
20
-70.4384
11
57.941
21
-70.6359
0
LINE
8
BLACK
6
CONTINUOUS
10
57.941
20
-70.6359
11
57.9974
21
-70.8463
0
LINE
8
BLACK
6
CONTINUOUS
10
57.9974
20
-70.8463
11
58.0164
21
-71.0634
0
LINE
8
BLACK
6
CONTINUOUS
10
58.0164
20
-71.0634
11
57.9974
21
-71.2804
0
LINE
8
BLACK
6
CONTINUOUS
10
57.9974
20
-71.2804
11
57.941
21
-71.4909
0
LINE
8
BLACK
6
CONTINUOUS
10
57.941
20
-71.4909
11
57.849
21
-71.6884
0
LINE
8
BLACK
6
CONTINUOUS
10
57.849
20
-71.6884
11
57.724
21
-71.8669
0
LINE
8
BLACK
6
CONTINUOUS
10
57.724
20
-71.8669
11
57.5699
21
-72.0209
0
LINE
8
BLACK
6
CONTINUOUS
10
57.5699
20
-72.0209
11
57.3914
21
-72.1459
0
LINE
8
BLACK
6
CONTINUOUS
10
57.3914
20
-72.1459
11
57.1939
21
-72.238
0
LINE
8
BLACK
6
CONTINUOUS
10
57.1939
20
-72.238
11
56.9835
21
-72.2944
0
LINE
8
BLACK
6
CONTINUOUS
10
56.9835
20
-72.2944
11
56.7664
21
-72.3134
0
LINE
8
BLACK
6
CONTINUOUS
10
56.7664
20
-72.3134
11
56.5494
21
-72.2944
0
LINE
8
BLACK
6
CONTINUOUS
10
56.5494
20
-72.2944
11
56.3389
21
-72.238
0
LINE
8
BLACK
6
CONTINUOUS
10
56.3389
20
-72.238
11
56.1414
21
-72.1459
0
LINE
8
BLACK
6
CONTINUOUS
10
56.1414
20
-72.1459
11
55.9629
21
-72.0209
0
LINE
8
BLACK
6
CONTINUOUS
10
55.9629
20
-72.0209
11
55.8089
21
-71.8669
0
LINE
8
BLACK
6
CONTINUOUS
10
55.8089
20
-71.8669
11
55.6839
21
-71.6884
0
LINE
8
BLACK
6
CONTINUOUS
10
55.6839
20
-71.6884
11
55.5918
21
-71.4909
0
LINE
8
BLACK
6
CONTINUOUS
10
55.5918
20
-71.4909
11
55.5354
21
-71.2804
0
LINE
8
BLACK
6
CONTINUOUS
10
55.5354
20
-71.2804
11
55.5164
21
-71.0634
0
LINE
8
BLACK
6
CONTINUOUS
10
55.5164
20
-71.0634
11
55.5354
21
-70.8463
0
LINE
8
BLACK
6
CONTINUOUS
10
55.5354
20
-70.8463
11
55.5918
21
-70.6359
0
LINE
8
BLACK
6
CONTINUOUS
10
55.5918
20
-70.6359
11
55.6839
21
-70.4384
0
LINE
8
BLACK
6
CONTINUOUS
10
55.6839
20
-70.4384
11
55.8089
21
-70.2599
0
LINE
8
BLACK
6
CONTINUOUS
10
55.8089
20
-70.2599
11
55.9629
21
-70.1058
0
LINE
8
BLACK
6
CONTINUOUS
10
55.9629
20
-70.1058
11
56.1414
21
-69.9809
0
LINE
8
BLACK
6
CONTINUOUS
10
56.1414
20
-69.9809
11
56.3389
21
-69.8888
0
LINE
8
BLACK
6
CONTINUOUS
10
56.3389
20
-69.8888
11
56.5164
21
-69.8412
0
LINE
8
BLACK
6
CONTINUOUS
10
56.5164
20
-69.8412
11
56.5164
21
-69.3709
0
LINE
8
BLACK
6
CONTINUOUS
10
56.5164
20
-69.3709
11
56.3189
21
-69.318
0
LINE
8
BLACK
6
CONTINUOUS
10
56.3189
20
-69.318
11
56.1214
21
-69.2259
0
LINE
8
BLACK
6
CONTINUOUS
10
56.1214
20
-69.2259
11
55.9429
21
-69.1009
0
LINE
8
BLACK
6
CONTINUOUS
10
55.9429
20
-69.1009
11
55.7889
21
-68.9469
0
LINE
8
BLACK
6
CONTINUOUS
10
55.7889
20
-68.9469
11
55.6639
21
-68.7684
0
LINE
8
BLACK
6
CONTINUOUS
10
55.6639
20
-68.7684
11
55.5718
21
-68.5709
0
LINE
8
BLACK
6
CONTINUOUS
10
55.5718
20
-68.5709
11
55.5154
21
-68.3604
0
LINE
8
BLACK
6
CONTINUOUS
10
55.5154
20
-68.3604
11
55.4964
21
-68.1434
0
LINE
8
BLACK
6
CONTINUOUS
10
55.4964
20
-68.1434
11
55.5154
21
-67.9263
0
LINE
8
BLACK
6
CONTINUOUS
10
55.5154
20
-67.9263
11
55.5718
21
-67.7159
0
LINE
8
BLACK
6
CONTINUOUS
10
55.5718
20
-67.7159
11
55.6639
21
-67.5184
0
LINE
8
BLACK
6
CONTINUOUS
10
55.6639
20
-67.5184
11
55.7889
21
-67.3399
0
LINE
8
BLACK
6
CONTINUOUS
10
55.7889
20
-67.3399
11
55.9429
21
-67.1858
0
LINE
8
BLACK
6
CONTINUOUS
10
55.9429
20
-67.1858
11
56.1214
21
-67.0609
0
LINE
8
BLACK
6
CONTINUOUS
10
56.1214
20
-67.0609
11
56.3189
21
-66.9688
0
LINE
8
BLACK
6
CONTINUOUS
10
56.3189
20
-66.9688
11
56.5294
21
-66.9124
0
LINE
8
BLACK
6
CONTINUOUS
10
56.5294
20
-66.9124
11
56.7464
21
-66.8934
0
LINE
8
BLACK
6
CONTINUOUS
10
56.7464
20
-66.8934
11
56.9635
21
-66.9124
0
LINE
8
BLACK
6
CONTINUOUS
10
68.0504
20
-57.803
11
68.1619
21
-57.8598
0
LINE
8
BLACK
6
CONTINUOUS
10
68.1619
20
-57.8598
11
68.2504
21
-57.9483
0
LINE
8
BLACK
6
CONTINUOUS
10
68.2504
20
-57.9483
11
68.3065
21
-58.0584
0
LINE
8
BLACK
6
CONTINUOUS
10
68.3065
20
-58.0584
11
69.962
21
-58.0584
0
LINE
8
BLACK
6
CONTINUOUS
10
69.962
20
-58.0584
11
70.0178
21
-57.9488
0
LINE
8
BLACK
6
CONTINUOUS
10
70.0178
20
-57.9488
11
70.1063
21
-57.8603
0
LINE
8
BLACK
6
CONTINUOUS
10
70.1063
20
-57.8603
11
70.2178
21
-57.8035
0
LINE
8
BLACK
6
CONTINUOUS
10
70.2178
20
-57.8035
11
70.3414
21
-57.7839
0
LINE
8
BLACK
6
CONTINUOUS
10
70.3414
20
-57.7839
11
70.465
21
-57.8035
0
LINE
8
BLACK
6
CONTINUOUS
10
70.465
20
-57.8035
11
70.5765
21
-57.8603
0
LINE
8
BLACK
6
CONTINUOUS
10
70.5765
20
-57.8603
11
70.665
21
-57.9488
0
LINE
8
BLACK
6
CONTINUOUS
10
70.665
20
-57.9488
11
70.7218
21
-58.0603
0
LINE
8
BLACK
6
CONTINUOUS
10
70.7218
20
-58.0603
11
70.7414
21
-58.1839
0
LINE
8
BLACK
6
CONTINUOUS
10
70.7414
20
-58.1839
11
70.7218
21
-58.3075
0
LINE
8
BLACK
6
CONTINUOUS
10
70.7218
20
-58.3075
11
70.665
21
-58.419
0
LINE
8
BLACK
6
CONTINUOUS
10
70.665
20
-58.419
11
70.5765
21
-58.5075
0
LINE
8
BLACK
6
CONTINUOUS
10
70.5765
20
-58.5075
11
70.4664
21
-58.5636
0
LINE
8
BLACK
6
CONTINUOUS
10
70.4664
20
-58.5636
11
70.4664
21
-59.6616
0
LINE
8
BLACK
6
CONTINUOUS
10
70.4664
20
-59.6616
11
71.2298
21
-60.425
0
LINE
8
BLACK
6
CONTINUOUS
10
71.2298
20
-60.425
11
71.2432
21
-60.4429
0
LINE
8
BLACK
6
CONTINUOUS
10
71.2432
20
-60.4429
11
71.2466
21
-60.4458
0
LINE
8
BLACK
6
CONTINUOUS
10
71.2466
20
-60.4458
11
71.2473
21
-60.4484
0
LINE
8
BLACK
6
CONTINUOUS
10
71.2473
20
-60.4484
11
71.2511
21
-60.4535
0
LINE
8
BLACK
6
CONTINUOUS
10
71.2511
20
-60.4535
11
71.2577
21
-60.4837
0
LINE
8
BLACK
6
CONTINUOUS
10
71.2577
20
-60.4837
11
71.2664
21
-60.5134
0
LINE
8
BLACK
6
CONTINUOUS
10
71.2664
20
-60.5134
11
71.2664
21
-67.5861
0
LINE
8
BLACK
6
CONTINUOUS
10
71.2664
20
-67.5861
11
71.31
21
-67.593
0
LINE
8
BLACK
6
CONTINUOUS
10
71.31
20
-67.593
11
71.4215
21
-67.6498
0
LINE
8
BLACK
6
CONTINUOUS
10
71.4215
20
-67.6498
11
71.51
21
-67.7383
0
LINE
8
BLACK
6
CONTINUOUS
10
71.51
20
-67.7383
11
71.5668
21
-67.8498
0
LINE
8
BLACK
6
CONTINUOUS
10
71.5668
20
-67.8498
11
71.5864
21
-67.9734
0
LINE
8
BLACK
6
CONTINUOUS
10
71.5864
20
-67.9734
11
71.5668
21
-68.097
0
LINE
8
BLACK
6
CONTINUOUS
10
71.5668
20
-68.097
11
71.51
21
-68.2085
0
LINE
8
BLACK
6
CONTINUOUS
10
71.51
20
-68.2085
11
71.4215
21
-68.297
0
LINE
8
BLACK
6
CONTINUOUS
10
71.4215
20
-68.297
11
71.31
21
-68.3538
0
LINE
8
BLACK
6
CONTINUOUS
10
71.31
20
-68.3538
11
71.1864
21
-68.3734
0
LINE
8
BLACK
6
CONTINUOUS
10
71.1864
20
-68.3734
11
71.0628
21
-68.3538
0
LINE
8
BLACK
6
CONTINUOUS
10
71.0628
20
-68.3538
11
70.9513
21
-68.297
0
LINE
8
BLACK
6
CONTINUOUS
10
70.9513
20
-68.297
11
70.8628
21
-68.2085
0
LINE
8
BLACK
6
CONTINUOUS
10
70.8628
20
-68.2085
11
70.806
21
-68.097
0
LINE
8
BLACK
6
CONTINUOUS
10
70.806
20
-68.097
11
70.7864
21
-67.9734
0
LINE
8
BLACK
6
CONTINUOUS
10
70.7864
20
-67.9734
11
70.806
21
-67.8498
0
LINE
8
BLACK
6
CONTINUOUS
10
70.806
20
-67.8498
11
70.8628
21
-67.7383
0
LINE
8
BLACK
6
CONTINUOUS
10
70.8628
20
-67.7383
11
70.9513
21
-67.6498
0
LINE
8
BLACK
6
CONTINUOUS
10
70.9513
20
-67.6498
11
71.0164
21
-67.6166
0
LINE
8
BLACK
6
CONTINUOUS
10
71.0164
20
-67.6166
11
71.0164
21
-60.5652
0
LINE
8
BLACK
6
CONTINUOUS
10
71.0164
20
-60.5652
11
70.253
21
-59.8018
0
LINE
8
BLACK
6
CONTINUOUS
10
70.253
20
-59.8018
11
70.2397
21
-59.7839
0
LINE
8
BLACK
6
CONTINUOUS
10
70.2397
20
-59.7839
11
70.2363
21
-59.781
0
LINE
8
BLACK
6
CONTINUOUS
10
70.2363
20
-59.781
11
70.2355
21
-59.7783
0
LINE
8
BLACK
6
CONTINUOUS
10
70.2355
20
-59.7783
11
70.2317
21
-59.7733
0
LINE
8
BLACK
6
CONTINUOUS
10
70.2317
20
-59.7733
11
70.2251
21
-59.7431
0
LINE
8
BLACK
6
CONTINUOUS
10
70.2251
20
-59.7431
11
70.2164
21
-59.7134
0
LINE
8
BLACK
6
CONTINUOUS
10
70.2164
20
-59.7134
11
70.2164
21
-58.5636
0
LINE
8
BLACK
6
CONTINUOUS
10
70.2164
20
-58.5636
11
70.1063
21
-58.5075
0
LINE
8
BLACK
6
CONTINUOUS
10
70.1063
20
-58.5075
11
70.0178
21
-58.419
0
LINE
8
BLACK
6
CONTINUOUS
10
70.0178
20
-58.419
11
69.9615
21
-58.3084
0
LINE
8
BLACK
6
CONTINUOUS
10
69.9615
20
-58.3084
11
68.3065
21
-58.3084
0
LINE
8
BLACK
6
CONTINUOUS
10
68.3065
20
-58.3084
11
68.2504
21
-58.4185
0
LINE
8
BLACK
6
CONTINUOUS
10
68.2504
20
-58.4185
11
68.1619
21
-58.507
0
LINE
8
BLACK
6
CONTINUOUS
10
68.1619
20
-58.507
11
68.0504
21
-58.5638
0
LINE
8
BLACK
6
CONTINUOUS
10
68.0504
20
-58.5638
11
67.9268
21
-58.5834
0
LINE
8
BLACK
6
CONTINUOUS
10
67.9268
20
-58.5834
11
67.8032
21
-58.5638
0
LINE
8
BLACK
6
CONTINUOUS
10
67.8032
20
-58.5638
11
67.6917
21
-58.507
0
LINE
8
BLACK
6
CONTINUOUS
10
67.6917
20
-58.507
11
67.6032
21
-58.4185
0
LINE
8
BLACK
6
CONTINUOUS
10
67.6032
20
-58.4185
11
67.5464
21
-58.307
0
LINE
8
BLACK
6
CONTINUOUS
10
67.5464
20
-58.307
11
67.5268
21
-58.1834
0
LINE
8
BLACK
6
CONTINUOUS
10
67.5268
20
-58.1834
11
67.5464
21
-58.0598
0
LINE
8
BLACK
6
CONTINUOUS
10
67.5464
20
-58.0598
11
67.6032
21
-57.9483
0
LINE
8
BLACK
6
CONTINUOUS
10
67.6032
20
-57.9483
11
67.6917
21
-57.8598
0
LINE
8
BLACK
6
CONTINUOUS
10
67.6917
20
-57.8598
11
67.8032
21
-57.803
0
LINE
8
BLACK
6
CONTINUOUS
10
67.8032
20
-57.803
11
67.9268
21
-57.7834
0
LINE
8
BLACK
6
CONTINUOUS
10
67.9268
20
-57.7834
11
68.0504
21
-57.803
0
LINE
8
BLACK
6
CONTINUOUS
10
62.39
20
-63.5204
11
62.5015
21
-63.5772
0
LINE
8
BLACK
6
CONTINUOUS
10
62.5015
20
-63.5772
11
62.59
21
-63.6657
0
LINE
8
BLACK
6
CONTINUOUS
10
62.59
20
-63.6657
11
62.6468
21
-63.7772
0
LINE
8
BLACK
6
CONTINUOUS
10
62.6468
20
-63.7772
11
62.6664
21
-63.9008
0
LINE
8
BLACK
6
CONTINUOUS
10
62.6664
20
-63.9008
11
62.6468
21
-64.0244
0
LINE
8
BLACK
6
CONTINUOUS
10
62.6468
20
-64.0244
11
62.59
21
-64.1359
0
LINE
8
BLACK
6
CONTINUOUS
10
62.59
20
-64.1359
11
62.5015
21
-64.2244
0
LINE
8
BLACK
6
CONTINUOUS
10
62.5015
20
-64.2244
11
62.3914
21
-64.2805
0
LINE
8
BLACK
6
CONTINUOUS
10
62.3914
20
-64.2805
11
62.3914
21
-64.5116
0
LINE
8
BLACK
6
CONTINUOUS
10
62.3914
20
-64.5116
11
64.4677
21
-66.5879
0
LINE
8
BLACK
6
CONTINUOUS
10
64.4677
20
-66.5879
11
64.6367
21
-66.5879
0
LINE
8
BLACK
6
CONTINUOUS
10
64.6367
20
-66.5879
11
64.6928
21
-66.4778
0
LINE
8
BLACK
6
CONTINUOUS
10
64.6928
20
-66.4778
11
64.7813
21
-66.3893
0
LINE
8
BLACK
6
CONTINUOUS
10
64.7813
20
-66.3893
11
64.8928
21
-66.3325
0
LINE
8
BLACK
6
CONTINUOUS
10
64.8928
20
-66.3325
11
65.0164
21
-66.3129
0
LINE
8
BLACK
6
CONTINUOUS
10
65.0164
20
-66.3129
11
65.14
21
-66.3325
0
LINE
8
BLACK
6
CONTINUOUS
10
65.14
20
-66.3325
11
65.2515
21
-66.3893
0
LINE
8
BLACK
6
CONTINUOUS
10
65.2515
20
-66.3893
11
65.34
21
-66.4778
0
LINE
8
BLACK
6
CONTINUOUS
10
65.34
20
-66.4778
11
65.3968
21
-66.5893
0
LINE
8
BLACK
6
CONTINUOUS
10
65.3968
20
-66.5893
11
65.4164
21
-66.7129
0
LINE
8
BLACK
6
CONTINUOUS
10
65.4164
20
-66.7129
11
65.3968
21
-66.8365
0
LINE
8
BLACK
6
CONTINUOUS
10
65.3968
20
-66.8365
11
65.34
21
-66.948
0
LINE
8
BLACK
6
CONTINUOUS
10
65.34
20
-66.948
11
65.2515
21
-67.0365
0
LINE
8
BLACK
6
CONTINUOUS
10
65.2515
20
-67.0365
11
65.14
21
-67.0933
0
LINE
8
BLACK
6
CONTINUOUS
10
65.14
20
-67.0933
11
65.0164
21
-67.1129
0
LINE
8
BLACK
6
CONTINUOUS
10
65.0164
20
-67.1129
11
64.8928
21
-67.0933
0
LINE
8
BLACK
6
CONTINUOUS
10
64.8928
20
-67.0933
11
64.7813
21
-67.0365
0
LINE
8
BLACK
6
CONTINUOUS
10
64.7813
20
-67.0365
11
64.6928
21
-66.948
0
LINE
8
BLACK
6
CONTINUOUS
10
64.6928
20
-66.948
11
64.6367
21
-66.8379
0
LINE
8
BLACK
6
CONTINUOUS
10
64.6367
20
-66.8379
11
64.4159
21
-66.8379
0
LINE
8
BLACK
6
CONTINUOUS
10
64.4159
20
-66.8379
11
64.3938
21
-66.8347
0
LINE
8
BLACK
6
CONTINUOUS
10
64.3938
20
-66.8347
11
64.3893
21
-66.835
0
LINE
8
BLACK
6
CONTINUOUS
10
64.3893
20
-66.835
11
64.387
21
-66.8337
0
LINE
8
BLACK
6
CONTINUOUS
10
64.387
20
-66.8337
11
64.3807
21
-66.8328
0
LINE
8
BLACK
6
CONTINUOUS
10
64.3807
20
-66.8328
11
64.3547
21
-66.8161
0
LINE
8
BLACK
6
CONTINUOUS
10
64.3547
20
-66.8161
11
64.3275
21
-66.8013
0
LINE
8
BLACK
6
CONTINUOUS
10
64.3275
20
-66.8013
11
62.178
21
-64.6518
0
LINE
8
BLACK
6
CONTINUOUS
10
62.178
20
-64.6518
11
62.1647
21
-64.6339
0
LINE
8
BLACK
6
CONTINUOUS
10
62.1647
20
-64.6339
11
62.1613
21
-64.631
0
LINE
8
BLACK
6
CONTINUOUS
10
62.1613
20
-64.631
11
62.1605
21
-64.6283
0
LINE
8
BLACK
6
CONTINUOUS
10
62.1605
20
-64.6283
11
62.1567
21
-64.6233
0
LINE
8
BLACK
6
CONTINUOUS
10
62.1567
20
-64.6233
11
62.1501
21
-64.5931
0
LINE
8
BLACK
6
CONTINUOUS
10
62.1501
20
-64.5931
11
62.1414
21
-64.5634
0
LINE
8
BLACK
6
CONTINUOUS
10
62.1414
20
-64.5634
11
62.1414
21
-64.2805
0
LINE
8
BLACK
6
CONTINUOUS
10
62.1414
20
-64.2805
11
62.0313
21
-64.2244
0
LINE
8
BLACK
6
CONTINUOUS
10
62.0313
20
-64.2244
11
61.9428
21
-64.1359
0
LINE
8
BLACK
6
CONTINUOUS
10
61.9428
20
-64.1359
11
61.886
21
-64.0244
0
LINE
8
BLACK
6
CONTINUOUS
10
61.886
20
-64.0244
11
61.8664
21
-63.9008
0
LINE
8
BLACK
6
CONTINUOUS
10
61.8664
20
-63.9008
11
61.886
21
-63.7772
0
LINE
8
BLACK
6
CONTINUOUS
10
61.886
20
-63.7772
11
61.9428
21
-63.6657
0
LINE
8
BLACK
6
CONTINUOUS
10
61.9428
20
-63.6657
11
62.0313
21
-63.5772
0
LINE
8
BLACK
6
CONTINUOUS
10
62.0313
20
-63.5772
11
62.1428
21
-63.5204
0
LINE
8
BLACK
6
CONTINUOUS
10
62.1428
20
-63.5204
11
62.2664
21
-63.5008
0
LINE
8
BLACK
6
CONTINUOUS
10
62.2664
20
-63.5008
11
62.39
21
-63.5204
0
LINE
8
BLACK
6
CONTINUOUS
10
66.5914
20
-66.8884
11
65.7414
21
-66.8884
0
LINE
8
BLACK
6
CONTINUOUS
10
65.7414
20
-66.8884
11
65.7414
21
-66.0384
0
LINE
8
BLACK
6
CONTINUOUS
10
65.7414
20
-66.0384
11
66.5914
21
-66.0384
0
LINE
8
BLACK
6
CONTINUOUS
10
66.5914
20
-66.0384
11
66.5914
21
-66.8884
0
LINE
8
BLACK
6
CONTINUOUS
10
67.2978
20
-66.0592
11
67.4162
21
-66.1196
0
LINE
8
BLACK
6
CONTINUOUS
10
67.4162
20
-66.1196
11
67.5103
21
-66.2136
0
LINE
8
BLACK
6
CONTINUOUS
10
67.5103
20
-66.2136
11
67.5706
21
-66.3321
0
LINE
8
BLACK
6
CONTINUOUS
10
67.5706
20
-66.3321
11
67.5914
21
-66.4634
0
LINE
8
BLACK
6
CONTINUOUS
10
67.5914
20
-66.4634
11
67.5706
21
-66.5947
0
LINE
8
BLACK
6
CONTINUOUS
10
67.5706
20
-66.5947
11
67.5103
21
-66.7132
0
LINE
8
BLACK
6
CONTINUOUS
10
67.5103
20
-66.7132
11
67.4162
21
-66.8072
0
LINE
8
BLACK
6
CONTINUOUS
10
67.4162
20
-66.8072
11
67.2978
21
-66.8676
0
LINE
8
BLACK
6
CONTINUOUS
10
67.2978
20
-66.8676
11
67.1664
21
-66.8884
0
LINE
8
BLACK
6
CONTINUOUS
10
67.1664
20
-66.8884
11
67.0351
21
-66.8676
0
LINE
8
BLACK
6
CONTINUOUS
10
67.0351
20
-66.8676
11
66.9166
21
-66.8072
0
LINE
8
BLACK
6
CONTINUOUS
10
66.9166
20
-66.8072
11
66.8226
21
-66.7132
0
LINE
8
BLACK
6
CONTINUOUS
10
66.8226
20
-66.7132
11
66.7622
21
-66.5947
0
LINE
8
BLACK
6
CONTINUOUS
10
66.7622
20
-66.5947
11
66.7414
21
-66.4634
0
LINE
8
BLACK
6
CONTINUOUS
10
66.7414
20
-66.4634
11
66.7622
21
-66.3321
0
LINE
8
BLACK
6
CONTINUOUS
10
66.7622
20
-66.3321
11
66.8226
21
-66.2136
0
LINE
8
BLACK
6
CONTINUOUS
10
66.8226
20
-66.2136
11
66.9166
21
-66.1196
0
LINE
8
BLACK
6
CONTINUOUS
10
66.9166
20
-66.1196
11
67.0351
21
-66.0592
0
LINE
8
BLACK
6
CONTINUOUS
10
67.0351
20
-66.0592
11
67.1664
21
-66.0384
0
LINE
8
BLACK
6
CONTINUOUS
10
67.1664
20
-66.0384
11
67.2978
21
-66.0592
0
LINE
8
BLACK
6
CONTINUOUS
10
68.2978
20
-66.0592
11
68.4162
21
-66.1196
0
LINE
8
BLACK
6
CONTINUOUS
10
68.4162
20
-66.1196
11
68.5103
21
-66.2136
0
LINE
8
BLACK
6
CONTINUOUS
10
68.5103
20
-66.2136
11
68.5706
21
-66.3321
0
LINE
8
BLACK
6
CONTINUOUS
10
68.5706
20
-66.3321
11
68.5914
21
-66.4634
0
LINE
8
BLACK
6
CONTINUOUS
10
68.5914
20
-66.4634
11
68.5706
21
-66.5947
0
LINE
8
BLACK
6
CONTINUOUS
10
68.5706
20
-66.5947
11
68.5103
21
-66.7132
0
LINE
8
BLACK
6
CONTINUOUS
10
68.5103
20
-66.7132
11
68.4162
21
-66.8072
0
LINE
8
BLACK
6
CONTINUOUS
10
68.4162
20
-66.8072
11
68.2978
21
-66.8676
0
LINE
8
BLACK
6
CONTINUOUS
10
68.2978
20
-66.8676
11
68.1664
21
-66.8884
0
LINE
8
BLACK
6
CONTINUOUS
10
68.1664
20
-66.8884
11
68.0351
21
-66.8676
0
LINE
8
BLACK
6
CONTINUOUS
10
68.0351
20
-66.8676
11
67.9166
21
-66.8072
0
LINE
8
BLACK
6
CONTINUOUS
10
67.9166
20
-66.8072
11
67.8226
21
-66.7132
0
LINE
8
BLACK
6
CONTINUOUS
10
67.8226
20
-66.7132
11
67.7622
21
-66.5947
0
LINE
8
BLACK
6
CONTINUOUS
10
67.7622
20
-66.5947
11
67.7414
21
-66.4634
0
LINE
8
BLACK
6
CONTINUOUS
10
67.7414
20
-66.4634
11
67.7622
21
-66.3321
0
LINE
8
BLACK
6
CONTINUOUS
10
67.7622
20
-66.3321
11
67.8226
21
-66.2136
0
LINE
8
BLACK
6
CONTINUOUS
10
67.8226
20
-66.2136
11
67.9166
21
-66.1196
0
LINE
8
BLACK
6
CONTINUOUS
10
67.9166
20
-66.1196
11
68.0351
21
-66.0592
0
LINE
8
BLACK
6
CONTINUOUS
10
68.0351
20
-66.0592
11
68.1664
21
-66.0384
0
LINE
8
BLACK
6
CONTINUOUS
10
68.1664
20
-66.0384
11
68.2978
21
-66.0592
0
LINE
8
BLACK
6
CONTINUOUS
10
69.2978
20
-66.0592
11
69.4162
21
-66.1196
0
LINE
8
BLACK
6
CONTINUOUS
10
69.4162
20
-66.1196
11
69.5103
21
-66.2136
0
LINE
8
BLACK
6
CONTINUOUS
10
69.5103
20
-66.2136
11
69.5706
21
-66.3321
0
LINE
8
BLACK
6
CONTINUOUS
10
69.5706
20
-66.3321
11
69.5914
21
-66.4634
0
LINE
8
BLACK
6
CONTINUOUS
10
69.5914
20
-66.4634
11
69.5706
21
-66.5947
0
LINE
8
BLACK
6
CONTINUOUS
10
69.5706
20
-66.5947
11
69.5103
21
-66.7132
0
LINE
8
BLACK
6
CONTINUOUS
10
69.5103
20
-66.7132
11
69.4162
21
-66.8072
0
LINE
8
BLACK
6
CONTINUOUS
10
69.4162
20
-66.8072
11
69.2978
21
-66.8676
0
LINE
8
BLACK
6
CONTINUOUS
10
69.2978
20
-66.8676
11
69.1664
21
-66.8884
0
LINE
8
BLACK
6
CONTINUOUS
10
69.1664
20
-66.8884
11
69.0351
21
-66.8676
0
LINE
8
BLACK
6
CONTINUOUS
10
69.0351
20
-66.8676
11
68.9166
21
-66.8072
0
LINE
8
BLACK
6
CONTINUOUS
10
68.9166
20
-66.8072
11
68.8226
21
-66.7132
0
LINE
8
BLACK
6
CONTINUOUS
10
68.8226
20
-66.7132
11
68.7622
21
-66.5947
0
LINE
8
BLACK
6
CONTINUOUS
10
68.7622
20
-66.5947
11
68.7414
21
-66.4634
0
LINE
8
BLACK
6
CONTINUOUS
10
68.7414
20
-66.4634
11
68.7622
21
-66.3321
0
LINE
8
BLACK
6
CONTINUOUS
10
68.7622
20
-66.3321
11
68.8226
21
-66.2136
0
LINE
8
BLACK
6
CONTINUOUS
10
68.8226
20
-66.2136
11
68.9166
21
-66.1196
0
LINE
8
BLACK
6
CONTINUOUS
10
68.9166
20
-66.1196
11
69.0351
21
-66.0592
0
LINE
8
BLACK
6
CONTINUOUS
10
69.0351
20
-66.0592
11
69.1664
21
-66.0384
0
LINE
8
BLACK
6
CONTINUOUS
10
69.1664
20
-66.0384
11
69.2978
21
-66.0592
0
LINE
8
BLACK
6
CONTINUOUS
10
70.2978
20
-66.0592
11
70.4162
21
-66.1196
0
LINE
8
BLACK
6
CONTINUOUS
10
70.4162
20
-66.1196
11
70.5103
21
-66.2136
0
LINE
8
BLACK
6
CONTINUOUS
10
70.5103
20
-66.2136
11
70.5706
21
-66.3321
0
LINE
8
BLACK
6
CONTINUOUS
10
70.5706
20
-66.3321
11
70.5914
21
-66.4634
0
LINE
8
BLACK
6
CONTINUOUS
10
70.5914
20
-66.4634
11
70.5706
21
-66.5947
0
LINE
8
BLACK
6
CONTINUOUS
10
70.5706
20
-66.5947
11
70.5103
21
-66.7132
0
LINE
8
BLACK
6
CONTINUOUS
10
70.5103
20
-66.7132
11
70.4162
21
-66.8072
0
LINE
8
BLACK
6
CONTINUOUS
10
70.4162
20
-66.8072
11
70.2978
21
-66.8676
0
LINE
8
BLACK
6
CONTINUOUS
10
70.2978
20
-66.8676
11
70.1664
21
-66.8884
0
LINE
8
BLACK
6
CONTINUOUS
10
70.1664
20
-66.8884
11
70.0351
21
-66.8676
0
LINE
8
BLACK
6
CONTINUOUS
10
70.0351
20
-66.8676
11
69.9166
21
-66.8072
0
LINE
8
BLACK
6
CONTINUOUS
10
69.9166
20
-66.8072
11
69.8226
21
-66.7132
0
LINE
8
BLACK
6
CONTINUOUS
10
69.8226
20
-66.7132
11
69.7622
21
-66.5947
0
LINE
8
BLACK
6
CONTINUOUS
10
69.7622
20
-66.5947
11
69.7414
21
-66.4634
0
LINE
8
BLACK
6
CONTINUOUS
10
69.7414
20
-66.4634
11
69.7622
21
-66.3321
0
LINE
8
BLACK
6
CONTINUOUS
10
69.7622
20
-66.3321
11
69.8226
21
-66.2136
0
LINE
8
BLACK
6
CONTINUOUS
10
69.8226
20
-66.2136
11
69.9166
21
-66.1196
0
LINE
8
BLACK
6
CONTINUOUS
10
69.9166
20
-66.1196
11
70.0351
21
-66.0592
0
LINE
8
BLACK
6
CONTINUOUS
10
70.0351
20
-66.0592
11
70.1664
21
-66.0384
0
LINE
8
BLACK
6
CONTINUOUS
10
70.1664
20
-66.0384
11
70.2978
21
-66.0592
0
LINE
8
BLACK
6
CONTINUOUS
10
68.015
20
-65.158
11
68.1265
21
-65.2148
0
LINE
8
BLACK
6
CONTINUOUS
10
68.1265
20
-65.2148
11
68.215
21
-65.3033
0
LINE
8
BLACK
6
CONTINUOUS
10
68.215
20
-65.3033
11
68.2718
21
-65.4148
0
LINE
8
BLACK
6
CONTINUOUS
10
68.2718
20
-65.4148
11
68.2914
21
-65.5384
0
LINE
8
BLACK
6
CONTINUOUS
10
68.2914
20
-65.5384
11
68.2718
21
-65.662
0
LINE
8
BLACK
6
CONTINUOUS
10
68.2718
20
-65.662
11
68.215
21
-65.7735
0
LINE
8
BLACK
6
CONTINUOUS
10
68.215
20
-65.7735
11
68.1265
21
-65.862
0
LINE
8
BLACK
6
CONTINUOUS
10
68.1265
20
-65.862
11
68.015
21
-65.9188
0
LINE
8
BLACK
6
CONTINUOUS
10
68.015
20
-65.9188
11
67.8914
21
-65.9384
0
LINE
8
BLACK
6
CONTINUOUS
10
67.8914
20
-65.9384
11
67.7678
21
-65.9188
0
LINE
8
BLACK
6
CONTINUOUS
10
67.7678
20
-65.9188
11
67.6563
21
-65.862
0
LINE
8
BLACK
6
CONTINUOUS
10
67.6563
20
-65.862
11
67.5678
21
-65.7735
0
LINE
8
BLACK
6
CONTINUOUS
10
67.5678
20
-65.7735
11
67.511
21
-65.662
0
LINE
8
BLACK
6
CONTINUOUS
10
67.511
20
-65.662
11
67.4914
21
-65.5384
0
LINE
8
BLACK
6
CONTINUOUS
10
67.4914
20
-65.5384
11
67.511
21
-65.4148
0
LINE
8
BLACK
6
CONTINUOUS
10
67.511
20
-65.4148
11
67.5678
21
-65.3033
0
LINE
8
BLACK
6
CONTINUOUS
10
67.5678
20
-65.3033
11
67.6563
21
-65.2148
0
LINE
8
BLACK
6
CONTINUOUS
10
67.6563
20
-65.2148
11
67.7678
21
-65.158
0
LINE
8
BLACK
6
CONTINUOUS
10
67.7678
20
-65.158
11
67.8914
21
-65.1384
0
LINE
8
BLACK
6
CONTINUOUS
10
67.8914
20
-65.1384
11
68.015
21
-65.158
0
LINE
8
BLACK
6
CONTINUOUS
10
67.69
20
-63.693
11
67.8015
21
-63.7498
0
LINE
8
BLACK
6
CONTINUOUS
10
67.8015
20
-63.7498
11
67.89
21
-63.8383
0
LINE
8
BLACK
6
CONTINUOUS
10
67.89
20
-63.8383
11
67.9468
21
-63.9498
0
LINE
8
BLACK
6
CONTINUOUS
10
67.9468
20
-63.9498
11
67.9664
21
-64.0734
0
LINE
8
BLACK
6
CONTINUOUS
10
67.9664
20
-64.0734
11
67.9468
21
-64.197
0
LINE
8
BLACK
6
CONTINUOUS
10
67.9468
20
-64.197
11
67.89
21
-64.3085
0
LINE
8
BLACK
6
CONTINUOUS
10
67.89
20
-64.3085
11
67.8015
21
-64.397
0
LINE
8
BLACK
6
CONTINUOUS
10
67.8015
20
-64.397
11
67.69
21
-64.4538
0
LINE
8
BLACK
6
CONTINUOUS
10
67.69
20
-64.4538
11
67.5664
21
-64.4734
0
LINE
8
BLACK
6
CONTINUOUS
10
67.5664
20
-64.4734
11
67.4428
21
-64.4538
0
LINE
8
BLACK
6
CONTINUOUS
10
67.4428
20
-64.4538
11
67.3313
21
-64.397
0
LINE
8
BLACK
6
CONTINUOUS
10
67.3313
20
-64.397
11
67.2428
21
-64.3085
0
LINE
8
BLACK
6
CONTINUOUS
10
67.2428
20
-64.3085
11
67.186
21
-64.197
0
LINE
8
BLACK
6
CONTINUOUS
10
67.186
20
-64.197
11
67.1664
21
-64.0734
0
LINE
8
BLACK
6
CONTINUOUS
10
67.1664
20
-64.0734
11
67.186
21
-63.9498
0
LINE
8
BLACK
6
CONTINUOUS
10
67.186
20
-63.9498
11
67.2428
21
-63.8383
0
LINE
8
BLACK
6
CONTINUOUS
10
67.2428
20
-63.8383
11
67.3313
21
-63.7498
0
LINE
8
BLACK
6
CONTINUOUS
10
67.3313
20
-63.7498
11
67.4428
21
-63.693
0
LINE
8
BLACK
6
CONTINUOUS
10
67.4428
20
-63.693
11
67.5664
21
-63.6734
0
LINE
8
BLACK
6
CONTINUOUS
10
67.5664
20
-63.6734
11
67.69
21
-63.693
0
LINE
8
BLACK
6
CONTINUOUS
10
69.91
20
-63.693
11
70.0215
21
-63.7498
0
LINE
8
BLACK
6
CONTINUOUS
10
70.0215
20
-63.7498
11
70.11
21
-63.8383
0
LINE
8
BLACK
6
CONTINUOUS
10
70.11
20
-63.8383
11
70.1668
21
-63.9498
0
LINE
8
BLACK
6
CONTINUOUS
10
70.1668
20
-63.9498
11
70.1864
21
-64.0734
0
LINE
8
BLACK
6
CONTINUOUS
10
70.1864
20
-64.0734
11
70.1668
21
-64.197
0
LINE
8
BLACK
6
CONTINUOUS
10
70.1668
20
-64.197
11
70.11
21
-64.3085
0
LINE
8
BLACK
6
CONTINUOUS
10
70.11
20
-64.3085
11
70.0215
21
-64.397
0
LINE
8
BLACK
6
CONTINUOUS
10
70.0215
20
-64.397
11
69.91
21
-64.4538
0
LINE
8
BLACK
6
CONTINUOUS
10
69.91
20
-64.4538
11
69.7864
21
-64.4734
0
LINE
8
BLACK
6
CONTINUOUS
10
69.7864
20
-64.4734
11
69.6628
21
-64.4538
0
LINE
8
BLACK
6
CONTINUOUS
10
69.6628
20
-64.4538
11
69.5513
21
-64.397
0
LINE
8
BLACK
6
CONTINUOUS
10
69.5513
20
-64.397
11
69.4628
21
-64.3085
0
LINE
8
BLACK
6
CONTINUOUS
10
69.4628
20
-64.3085
11
69.406
21
-64.197
0
LINE
8
BLACK
6
CONTINUOUS
10
69.406
20
-64.197
11
69.3864
21
-64.0734
0
LINE
8
BLACK
6
CONTINUOUS
10
69.3864
20
-64.0734
11
69.406
21
-63.9498
0
LINE
8
BLACK
6
CONTINUOUS
10
69.406
20
-63.9498
11
69.4628
21
-63.8383
0
LINE
8
BLACK
6
CONTINUOUS
10
69.4628
20
-63.8383
11
69.5513
21
-63.7498
0
LINE
8
BLACK
6
CONTINUOUS
10
69.5513
20
-63.7498
11
69.6628
21
-63.693
0
LINE
8
BLACK
6
CONTINUOUS
10
69.6628
20
-63.693
11
69.7864
21
-63.6734
0
LINE
8
BLACK
6
CONTINUOUS
10
69.7864
20
-63.6734
11
69.91
21
-63.693
0
LINE
8
BLACK
6
CONTINUOUS
10
68.5474
20
-40.6954
11
68.7367
21
-40.7687
0
LINE
8
BLACK
6
CONTINUOUS
10
68.7367
20
-40.7687
11
68.9093
21
-40.8756
0
LINE
8
BLACK
6
CONTINUOUS
10
68.9093
20
-40.8756
11
69.0593
21
-41.0123
0
LINE
8
BLACK
6
CONTINUOUS
10
69.0593
20
-41.0123
11
69.1817
21
-41.1743
0
LINE
8
BLACK
6
CONTINUOUS
10
69.1817
20
-41.1743
11
69.2721
21
-41.356
0
LINE
8
BLACK
6
CONTINUOUS
10
69.2721
20
-41.356
11
69.3277
21
-41.5513
0
LINE
8
BLACK
6
CONTINUOUS
10
69.3277
20
-41.5513
11
69.3464
21
-41.7534
0
LINE
8
BLACK
6
CONTINUOUS
10
69.3464
20
-41.7534
11
69.3277
21
-41.9555
0
LINE
8
BLACK
6
CONTINUOUS
10
69.3277
20
-41.9555
11
69.2721
21
-42.1507
0
LINE
8
BLACK
6
CONTINUOUS
10
69.2721
20
-42.1507
11
69.1817
21
-42.3325
0
LINE
8
BLACK
6
CONTINUOUS
10
69.1817
20
-42.3325
11
69.0593
21
-42.4944
0
LINE
8
BLACK
6
CONTINUOUS
10
69.0593
20
-42.4944
11
68.9093
21
-42.6312
0
LINE
8
BLACK
6
CONTINUOUS
10
68.9093
20
-42.6312
11
68.7367
21
-42.7381
0
LINE
8
BLACK
6
CONTINUOUS
10
68.7367
20
-42.7381
11
68.5474
21
-42.8114
0
LINE
8
BLACK
6
CONTINUOUS
10
68.5474
20
-42.8114
11
68.3479
21
-42.8487
0
LINE
8
BLACK
6
CONTINUOUS
10
68.3479
20
-42.8487
11
68.1449
21
-42.8487
0
LINE
8
BLACK
6
CONTINUOUS
10
68.1449
20
-42.8487
11
67.9454
21
-42.8114
0
LINE
8
BLACK
6
CONTINUOUS
10
67.9454
20
-42.8114
11
67.7561
21
-42.7381
0
LINE
8
BLACK
6
CONTINUOUS
10
67.7561
20
-42.7381
11
67.5835
21
-42.6312
0
LINE
8
BLACK
6
CONTINUOUS
10
67.5835
20
-42.6312
11
67.5636
21
-42.613
0
LINE
8
BLACK
6
CONTINUOUS
10
67.5636
20
-42.613
11
66.9914
21
-43.1852
0
LINE
8
BLACK
6
CONTINUOUS
10
66.9914
20
-43.1852
11
66.9914
21
-63.2734
0
LINE
8
BLACK
6
CONTINUOUS
10
66.9914
20
-63.2734
11
66.9882
21
-63.2955
0
LINE
8
BLACK
6
CONTINUOUS
10
66.9882
20
-63.2955
11
66.9886
21
-63.3
0
LINE
8
BLACK
6
CONTINUOUS
10
66.9886
20
-63.3
11
66.9873
21
-63.3023
0
LINE
8
BLACK
6
CONTINUOUS
10
66.9873
20
-63.3023
11
66.9864
21
-63.3086
0
LINE
8
BLACK
6
CONTINUOUS
10
66.9864
20
-63.3086
11
66.9696
21
-63.3346
0
LINE
8
BLACK
6
CONTINUOUS
10
66.9696
20
-63.3346
11
66.9548
21
-63.3618
0
LINE
8
BLACK
6
CONTINUOUS
10
66.9548
20
-63.3618
11
66.4262
21
-63.8904
0
LINE
8
BLACK
6
CONTINUOUS
10
66.4262
20
-63.8904
11
66.4532
21
-63.9434
0
LINE
8
BLACK
6
CONTINUOUS
10
66.4532
20
-63.9434
11
66.4728
21
-64.067
0
LINE
8
BLACK
6
CONTINUOUS
10
66.4728
20
-64.067
11
66.4532
21
-64.1906
0
LINE
8
BLACK
6
CONTINUOUS
10
66.4532
20
-64.1906
11
66.3964
21
-64.3021
0
LINE
8
BLACK
6
CONTINUOUS
10
66.3964
20
-64.3021
11
66.3079
21
-64.3906
0
LINE
8
BLACK
6
CONTINUOUS
10
66.3079
20
-64.3906
11
66.1964
21
-64.4474
0
LINE
8
BLACK
6
CONTINUOUS
10
66.1964
20
-64.4474
11
66.0728
21
-64.467
0
LINE
8
BLACK
6
CONTINUOUS
10
66.0728
20
-64.467
11
65.9492
21
-64.4474
0
LINE
8
BLACK
6
CONTINUOUS
10
65.9492
20
-64.4474
11
65.8377
21
-64.3906
0
LINE
8
BLACK
6
CONTINUOUS
10
65.8377
20
-64.3906
11
65.7492
21
-64.3021
0
LINE
8
BLACK
6
CONTINUOUS
10
65.7492
20
-64.3021
11
65.6924
21
-64.1906
0
LINE
8
BLACK
6
CONTINUOUS
10
65.6924
20
-64.1906
11
65.6728
21
-64.067
0
LINE
8
BLACK
6
CONTINUOUS
10
65.6728
20
-64.067
11
65.6924
21
-63.9434
0
LINE
8
BLACK
6
CONTINUOUS
10
65.6924
20
-63.9434
11
65.7492
21
-63.8319
0
LINE
8
BLACK
6
CONTINUOUS
10
65.7492
20
-63.8319
11
65.8377
21
-63.7434
0
LINE
8
BLACK
6
CONTINUOUS
10
65.8377
20
-63.7434
11
65.9492
21
-63.6866
0
LINE
8
BLACK
6
CONTINUOUS
10
65.9492
20
-63.6866
11
66.0728
21
-63.667
0
LINE
8
BLACK
6
CONTINUOUS
10
66.0728
20
-63.667
11
66.1964
21
-63.6866
0
LINE
8
BLACK
6
CONTINUOUS
10
66.1964
20
-63.6866
11
66.2494
21
-63.7136
0
LINE
8
BLACK
6
CONTINUOUS
10
66.2494
20
-63.7136
11
66.7414
21
-63.2216
0
LINE
8
BLACK
6
CONTINUOUS
10
66.7414
20
-63.2216
11
66.7414
21
-43.1334
0
LINE
8
BLACK
6
CONTINUOUS
10
66.7414
20
-43.1334
11
66.7446
21
-43.1113
0
LINE
8
BLACK
6
CONTINUOUS
10
66.7446
20
-43.1113
11
66.7443
21
-43.1068
0
LINE
8
BLACK
6
CONTINUOUS
10
66.7443
20
-43.1068
11
66.7456
21
-43.1044
0
LINE
8
BLACK
6
CONTINUOUS
10
66.7456
20
-43.1044
11
66.7465
21
-43.0982
0
LINE
8
BLACK
6
CONTINUOUS
10
66.7465
20
-43.0982
11
66.7632
21
-43.0721
0
LINE
8
BLACK
6
CONTINUOUS
10
66.7632
20
-43.0721
11
66.778
21
-43.045
0
LINE
8
BLACK
6
CONTINUOUS
10
66.778
20
-43.045
11
67.3884
21
-42.4347
0
LINE
8
BLACK
6
CONTINUOUS
10
67.3884
20
-42.4347
11
67.3112
21
-42.3325
0
LINE
8
BLACK
6
CONTINUOUS
10
67.3112
20
-42.3325
11
67.2207
21
-42.1507
0
LINE
8
BLACK
6
CONTINUOUS
10
67.2207
20
-42.1507
11
67.1651
21
-41.9555
0
LINE
8
BLACK
6
CONTINUOUS
10
67.1651
20
-41.9555
11
67.1464
21
-41.7534
0
LINE
8
BLACK
6
CONTINUOUS
10
67.1464
20
-41.7534
11
67.1651
21
-41.5513
0
LINE
8
BLACK
6
CONTINUOUS
10
67.1651
20
-41.5513
11
67.2207
21
-41.356
0
LINE
8
BLACK
6
CONTINUOUS
10
67.2207
20
-41.356
11
67.3112
21
-41.1743
0
LINE
8
BLACK
6
CONTINUOUS
10
67.3112
20
-41.1743
11
67.4335
21
-41.0123
0
LINE
8
BLACK
6
CONTINUOUS
10
67.4335
20
-41.0123
11
67.5835
21
-40.8756
0
LINE
8
BLACK
6
CONTINUOUS
10
67.5835
20
-40.8756
11
67.7561
21
-40.7687
0
LINE
8
BLACK
6
CONTINUOUS
10
67.7561
20
-40.7687
11
67.9454
21
-40.6954
0
LINE
8
BLACK
6
CONTINUOUS
10
67.9454
20
-40.6954
11
68.1449
21
-40.6581
0
LINE
8
BLACK
6
CONTINUOUS
10
68.1449
20
-40.6581
11
68.3479
21
-40.6581
0
LINE
8
BLACK
6
CONTINUOUS
10
68.3479
20
-40.6581
11
68.5474
21
-40.6954
0
LINE
8
BLACK
6
CONTINUOUS
10
71.9895
20
-63.2835
11
72.101
21
-63.3403
0
LINE
8
BLACK
6
CONTINUOUS
10
72.101
20
-63.3403
11
72.1895
21
-63.4288
0
LINE
8
BLACK
6
CONTINUOUS
10
72.1895
20
-63.4288
11
72.2463
21
-63.5403
0
LINE
8
BLACK
6
CONTINUOUS
10
72.2463
20
-63.5403
11
72.2659
21
-63.6639
0
LINE
8
BLACK
6
CONTINUOUS
10
72.2659
20
-63.6639
11
72.2463
21
-63.7875
0
LINE
8
BLACK
6
CONTINUOUS
10
72.2463
20
-63.7875
11
72.1895
21
-63.899
0
LINE
8
BLACK
6
CONTINUOUS
10
72.1895
20
-63.899
11
72.101
21
-63.9875
0
LINE
8
BLACK
6
CONTINUOUS
10
72.101
20
-63.9875
11
71.9895
21
-64.0443
0
LINE
8
BLACK
6
CONTINUOUS
10
71.9895
20
-64.0443
11
71.8659
21
-64.0639
0
LINE
8
BLACK
6
CONTINUOUS
10
71.8659
20
-64.0639
11
71.7423
21
-64.0443
0
LINE
8
BLACK
6
CONTINUOUS
10
71.7423
20
-64.0443
11
71.6308
21
-63.9875
0
LINE
8
BLACK
6
CONTINUOUS
10
71.6308
20
-63.9875
11
71.5423
21
-63.899
0
LINE
8
BLACK
6
CONTINUOUS
10
71.5423
20
-63.899
11
71.4855
21
-63.7875
0
LINE
8
BLACK
6
CONTINUOUS
10
71.4855
20
-63.7875
11
71.4659
21
-63.6639
0
LINE
8
BLACK
6
CONTINUOUS
10
71.4659
20
-63.6639
11
71.4855
21
-63.5403
0
LINE
8
BLACK
6
CONTINUOUS
10
71.4855
20
-63.5403
11
71.5423
21
-63.4288
0
LINE
8
BLACK
6
CONTINUOUS
10
71.5423
20
-63.4288
11
71.6308
21
-63.3403
0
LINE
8
BLACK
6
CONTINUOUS
10
71.6308
20
-63.3403
11
71.7423
21
-63.2835
0
LINE
8
BLACK
6
CONTINUOUS
10
71.7423
20
-63.2835
11
71.8659
21
-63.2639
0
LINE
8
BLACK
6
CONTINUOUS
10
71.8659
20
-63.2639
11
71.9895
21
-63.2835
0
LINE
8
BLACK
6
CONTINUOUS
10
49.9191
20
-60.985
11
50.0814
21
-61.0573
0
LINE
8
BLACK
6
CONTINUOUS
10
50.0814
20
-61.0573
11
50.2252
21
-61.1617
0
LINE
8
BLACK
6
CONTINUOUS
10
50.2252
20
-61.1617
11
50.3441
21
-61.2938
0
LINE
8
BLACK
6
CONTINUOUS
10
50.3441
20
-61.2938
11
50.4329
21
-61.4477
0
LINE
8
BLACK
6
CONTINUOUS
10
50.4329
20
-61.4477
11
50.4878
21
-61.6167
0
LINE
8
BLACK
6
CONTINUOUS
10
50.4878
20
-61.6167
11
50.5064
21
-61.7934
0
LINE
8
BLACK
6
CONTINUOUS
10
50.5064
20
-61.7934
11
50.4878
21
-61.9701
0
LINE
8
BLACK
6
CONTINUOUS
10
50.4878
20
-61.9701
11
50.4329
21
-62.1391
0
LINE
8
BLACK
6
CONTINUOUS
10
50.4329
20
-62.1391
11
50.3441
21
-62.293
0
LINE
8
BLACK
6
CONTINUOUS
10
50.3441
20
-62.293
11
50.2252
21
-62.4251
0
LINE
8
BLACK
6
CONTINUOUS
10
50.2252
20
-62.4251
11
50.0814
21
-62.5295
0
LINE
8
BLACK
6
CONTINUOUS
10
50.0814
20
-62.5295
11
49.9191
21
-62.6018
0
LINE
8
BLACK
6
CONTINUOUS
10
49.9191
20
-62.6018
11
49.7453
21
-62.6387
0
LINE
8
BLACK
6
CONTINUOUS
10
49.7453
20
-62.6387
11
49.5676
21
-62.6387
0
LINE
8
BLACK
6
CONTINUOUS
10
49.5676
20
-62.6387
11
49.3938
21
-62.6018
0
LINE
8
BLACK
6
CONTINUOUS
10
49.3938
20
-62.6018
11
49.2314
21
-62.5295
0
LINE
8
BLACK
6
CONTINUOUS
10
49.2314
20
-62.5295
11
49.0877
21
-62.4251
0
LINE
8
BLACK
6
CONTINUOUS
10
49.0877
20
-62.4251
11
48.9688
21
-62.293
0
LINE
8
BLACK
6
CONTINUOUS
10
48.9688
20
-62.293
11
48.8799
21
-62.1391
0
LINE
8
BLACK
6
CONTINUOUS
10
48.8799
20
-62.1391
11
48.825
21
-61.9701
0
LINE
8
BLACK
6
CONTINUOUS
10
48.825
20
-61.9701
11
48.8064
21
-61.7934
0
LINE
8
BLACK
6
CONTINUOUS
10
48.8064
20
-61.7934
11
48.825
21
-61.6167
0
LINE
8
BLACK
6
CONTINUOUS
10
48.825
20
-61.6167
11
48.8799
21
-61.4477
0
LINE
8
BLACK
6
CONTINUOUS
10
48.8799
20
-61.4477
11
48.9688
21
-61.2938
0
LINE
8
BLACK
6
CONTINUOUS
10
48.9688
20
-61.2938
11
49.0877
21
-61.1617
0
LINE
8
BLACK
6
CONTINUOUS
10
49.0877
20
-61.1617
11
49.2314
21
-61.0573
0
LINE
8
BLACK
6
CONTINUOUS
10
49.2314
20
-61.0573
11
49.3938
21
-60.985
0
LINE
8
BLACK
6
CONTINUOUS
10
49.3938
20
-60.985
11
49.5676
21
-60.948
0
LINE
8
BLACK
6
CONTINUOUS
10
49.5676
20
-60.948
11
49.7453
21
-60.948
0
LINE
8
BLACK
6
CONTINUOUS
10
49.7453
20
-60.948
11
49.9191
21
-60.985
0
LINE
8
BLACK
6
CONTINUOUS
10
49.9191
20
-48.285
11
50.0814
21
-48.3573
0
LINE
8
BLACK
6
CONTINUOUS
10
50.0814
20
-48.3573
11
50.2252
21
-48.4617
0
LINE
8
BLACK
6
CONTINUOUS
10
50.2252
20
-48.4617
11
50.3441
21
-48.5938
0
LINE
8
BLACK
6
CONTINUOUS
10
50.3441
20
-48.5938
11
50.4329
21
-48.7477
0
LINE
8
BLACK
6
CONTINUOUS
10
50.4329
20
-48.7477
11
50.4878
21
-48.9167
0
LINE
8
BLACK
6
CONTINUOUS
10
50.4878
20
-48.9167
11
50.4933
21
-48.9684
0
LINE
8
BLACK
6
CONTINUOUS
10
50.4933
20
-48.9684
11
51.7664
21
-48.9684
0
LINE
8
BLACK
6
CONTINUOUS
10
51.7664
20
-48.9684
11
51.7885
21
-48.9716
0
LINE
8
BLACK
6
CONTINUOUS
10
51.7885
20
-48.9716
11
51.793
21
-48.9712
0
LINE
8
BLACK
6
CONTINUOUS
10
51.793
20
-48.9712
11
51.7954
21
-48.9725
0
LINE
8
BLACK
6
CONTINUOUS
10
51.7954
20
-48.9725
11
51.8016
21
-48.9734
0
LINE
8
BLACK
6
CONTINUOUS
10
51.8016
20
-48.9734
11
51.8277
21
-48.9902
0
LINE
8
BLACK
6
CONTINUOUS
10
51.8277
20
-48.9902
11
51.8548
21
-49.005
0
LINE
8
BLACK
6
CONTINUOUS
10
51.8548
20
-49.005
11
53.1397
21
-50.2899
0
LINE
8
BLACK
6
CONTINUOUS
10
53.1397
20
-50.2899
11
53.1531
21
-50.3078
0
LINE
8
BLACK
6
CONTINUOUS
10
53.1531
20
-50.3078
11
53.1565
21
-50.3107
0
LINE
8
BLACK
6
CONTINUOUS
10
53.1565
20
-50.3107
11
53.1572
21
-50.3133
0
LINE
8
BLACK
6
CONTINUOUS
10
53.1572
20
-50.3133
11
53.161
21
-50.3184
0
LINE
8
BLACK
6
CONTINUOUS
10
53.161
20
-50.3184
11
53.1676
21
-50.3486
0
LINE
8
BLACK
6
CONTINUOUS
10
53.1676
20
-50.3486
11
53.1763
21
-50.3783
0
LINE
8
BLACK
6
CONTINUOUS
10
53.1763
20
-50.3783
11
53.1763
21
-59.2797
0
LINE
8
BLACK
6
CONTINUOUS
10
53.1763
20
-59.2797
11
53.2864
21
-59.3358
0
LINE
8
BLACK
6
CONTINUOUS
10
53.2864
20
-59.3358
11
53.3749
21
-59.4243
0
LINE
8
BLACK
6
CONTINUOUS
10
53.3749
20
-59.4243
11
53.4317
21
-59.5358
0
LINE
8
BLACK
6
CONTINUOUS
10
53.4317
20
-59.5358
11
53.4513
21
-59.6594
0
LINE
8
BLACK
6
CONTINUOUS
10
53.4513
20
-59.6594
11
53.4317
21
-59.783
0
LINE
8
BLACK
6
CONTINUOUS
10
53.4317
20
-59.783
11
53.3749
21
-59.8945
0
LINE
8
BLACK
6
CONTINUOUS
10
53.3749
20
-59.8945
11
53.2864
21
-59.983
0
LINE
8
BLACK
6
CONTINUOUS
10
53.2864
20
-59.983
11
53.1749
21
-60.0398
0
LINE
8
BLACK
6
CONTINUOUS
10
53.1749
20
-60.0398
11
53.0513
21
-60.0594
0
LINE
8
BLACK
6
CONTINUOUS
10
53.0513
20
-60.0594
11
52.9277
21
-60.0398
0
LINE
8
BLACK
6
CONTINUOUS
10
52.9277
20
-60.0398
11
52.8162
21
-59.983
0
LINE
8
BLACK
6
CONTINUOUS
10
52.8162
20
-59.983
11
52.7277
21
-59.8945
0
LINE
8
BLACK
6
CONTINUOUS
10
52.7277
20
-59.8945
11
52.6709
21
-59.783
0
LINE
8
BLACK
6
CONTINUOUS
10
52.6709
20
-59.783
11
52.6513
21
-59.6594
0
LINE
8
BLACK
6
CONTINUOUS
10
52.6513
20
-59.6594
11
52.6709
21
-59.5358
0
LINE
8
BLACK
6
CONTINUOUS
10
52.6709
20
-59.5358
11
52.7277
21
-59.4243
0
LINE
8
BLACK
6
CONTINUOUS
10
52.7277
20
-59.4243
11
52.8162
21
-59.3358
0
LINE
8
BLACK
6
CONTINUOUS
10
52.8162
20
-59.3358
11
52.9263
21
-59.2797
0
LINE
8
BLACK
6
CONTINUOUS
10
52.9263
20
-59.2797
11
52.9263
21
-50.4301
0
LINE
8
BLACK
6
CONTINUOUS
10
52.9263
20
-50.4301
11
51.7146
21
-49.2184
0
LINE
8
BLACK
6
CONTINUOUS
10
51.7146
20
-49.2184
11
50.4933
21
-49.2184
0
LINE
8
BLACK
6
CONTINUOUS
10
50.4933
20
-49.2184
11
50.4878
21
-49.2701
0
LINE
8
BLACK
6
CONTINUOUS
10
50.4878
20
-49.2701
11
50.4329
21
-49.4391
0
LINE
8
BLACK
6
CONTINUOUS
10
50.4329
20
-49.4391
11
50.3441
21
-49.593
0
LINE
8
BLACK
6
CONTINUOUS
10
50.3441
20
-49.593
11
50.2252
21
-49.7251
0
LINE
8
BLACK
6
CONTINUOUS
10
50.2252
20
-49.7251
11
50.0814
21
-49.8295
0
LINE
8
BLACK
6
CONTINUOUS
10
50.0814
20
-49.8295
11
49.9191
21
-49.9018
0
LINE
8
BLACK
6
CONTINUOUS
10
49.9191
20
-49.9018
11
49.7453
21
-49.9387
0
LINE
8
BLACK
6
CONTINUOUS
10
49.7453
20
-49.9387
11
49.5676
21
-49.9387
0
LINE
8
BLACK
6
CONTINUOUS
10
49.5676
20
-49.9387
11
49.3938
21
-49.9018
0
LINE
8
BLACK
6
CONTINUOUS
10
49.3938
20
-49.9018
11
49.2314
21
-49.8295
0
LINE
8
BLACK
6
CONTINUOUS
10
49.2314
20
-49.8295
11
49.0877
21
-49.7251
0
LINE
8
BLACK
6
CONTINUOUS
10
49.0877
20
-49.7251
11
48.9688
21
-49.593
0
LINE
8
BLACK
6
CONTINUOUS
10
48.9688
20
-49.593
11
48.8799
21
-49.4391
0
LINE
8
BLACK
6
CONTINUOUS
10
48.8799
20
-49.4391
11
48.825
21
-49.2701
0
LINE
8
BLACK
6
CONTINUOUS
10
48.825
20
-49.2701
11
48.8064
21
-49.0934
0
LINE
8
BLACK
6
CONTINUOUS
10
48.8064
20
-49.0934
11
48.825
21
-48.9167
0
LINE
8
BLACK
6
CONTINUOUS
10
48.825
20
-48.9167
11
48.8799
21
-48.7477
0
LINE
8
BLACK
6
CONTINUOUS
10
48.8799
20
-48.7477
11
48.9688
21
-48.5938
0
LINE
8
BLACK
6
CONTINUOUS
10
48.9688
20
-48.5938
11
49.0877
21
-48.4617
0
LINE
8
BLACK
6
CONTINUOUS
10
49.0877
20
-48.4617
11
49.2314
21
-48.3573
0
LINE
8
BLACK
6
CONTINUOUS
10
49.2314
20
-48.3573
11
49.3938
21
-48.285
0
LINE
8
BLACK
6
CONTINUOUS
10
49.3938
20
-48.285
11
49.5676
21
-48.248
0
LINE
8
BLACK
6
CONTINUOUS
10
49.5676
20
-48.248
11
49.7453
21
-48.248
0
LINE
8
BLACK
6
CONTINUOUS
10
49.7453
20
-48.248
11
49.9191
21
-48.285
0
LINE
8
BLACK
6
CONTINUOUS
10
60.9274
20
-40.6954
11
61.1167
21
-40.7687
0
LINE
8
BLACK
6
CONTINUOUS
10
61.1167
20
-40.7687
11
61.2893
21
-40.8756
0
LINE
8
BLACK
6
CONTINUOUS
10
61.2893
20
-40.8756
11
61.4393
21
-41.0123
0
LINE
8
BLACK
6
CONTINUOUS
10
61.4393
20
-41.0123
11
61.5617
21
-41.1743
0
LINE
8
BLACK
6
CONTINUOUS
10
61.5617
20
-41.1743
11
61.6521
21
-41.356
0
LINE
8
BLACK
6
CONTINUOUS
10
61.6521
20
-41.356
11
61.7077
21
-41.5513
0
LINE
8
BLACK
6
CONTINUOUS
10
61.7077
20
-41.5513
11
61.7264
21
-41.7534
0
LINE
8
BLACK
6
CONTINUOUS
10
61.7264
20
-41.7534
11
61.7077
21
-41.9555
0
LINE
8
BLACK
6
CONTINUOUS
10
61.7077
20
-41.9555
11
61.6521
21
-42.1507
0
LINE
8
BLACK
6
CONTINUOUS
10
61.6521
20
-42.1507
11
61.5617
21
-42.3325
0
LINE
8
BLACK
6
CONTINUOUS
10
61.5617
20
-42.3325
11
61.4393
21
-42.4944
0
LINE
8
BLACK
6
CONTINUOUS
10
61.4393
20
-42.4944
11
61.2893
21
-42.6312
0
LINE
8
BLACK
6
CONTINUOUS
10
61.2893
20
-42.6312
11
61.1167
21
-42.7381
0
LINE
8
BLACK
6
CONTINUOUS
10
61.1167
20
-42.7381
11
60.9274
21
-42.8114
0
LINE
8
BLACK
6
CONTINUOUS
10
60.9274
20
-42.8114
11
60.7514
21
-42.8443
0
LINE
8
BLACK
6
CONTINUOUS
10
60.7514
20
-42.8443
11
60.7514
21
-53.5716
0
LINE
8
BLACK
6
CONTINUOUS
10
60.7514
20
-53.5716
11
64.7507
21
-57.5709
0
LINE
8
BLACK
6
CONTINUOUS
10
64.7507
20
-57.5709
11
64.7641
21
-57.5888
0
LINE
8
BLACK
6
CONTINUOUS
10
64.7641
20
-57.5888
11
64.7675
21
-57.5917
0
LINE
8
BLACK
6
CONTINUOUS
10
64.7675
20
-57.5917
11
64.7682
21
-57.5943
0
LINE
8
BLACK
6
CONTINUOUS
10
64.7682
20
-57.5943
11
64.772
21
-57.5994
0
LINE
8
BLACK
6
CONTINUOUS
10
64.772
20
-57.5994
11
64.7786
21
-57.6296
0
LINE
8
BLACK
6
CONTINUOUS
10
64.7786
20
-57.6296
11
64.7873
21
-57.6593
0
LINE
8
BLACK
6
CONTINUOUS
10
64.7873
20
-57.6593
11
64.7873
21
-59.2765
0
LINE
8
BLACK
6
CONTINUOUS
10
64.7873
20
-59.2765
11
64.8974
21
-59.3326
0
LINE
8
BLACK
6
CONTINUOUS
10
64.8974
20
-59.3326
11
64.9859
21
-59.4211
0
LINE
8
BLACK
6
CONTINUOUS
10
64.9859
20
-59.4211
11
65.0427
21
-59.5326
0
LINE
8
BLACK
6
CONTINUOUS
10
65.0427
20
-59.5326
11
65.0623
21
-59.6562
0
LINE
8
BLACK
6
CONTINUOUS
10
65.0623
20
-59.6562
11
65.0427
21
-59.7798
0
LINE
8
BLACK
6
CONTINUOUS
10
65.0427
20
-59.7798
11
64.9859
21
-59.8913
0
LINE
8
BLACK
6
CONTINUOUS
10
64.9859
20
-59.8913
11
64.8974
21
-59.9798
0
LINE
8
BLACK
6
CONTINUOUS
10
64.8974
20
-59.9798
11
64.7859
21
-60.0366
0
LINE
8
BLACK
6
CONTINUOUS
10
64.7859
20
-60.0366
11
64.6623
21
-60.0562
0
LINE
8
BLACK
6
CONTINUOUS
10
64.6623
20
-60.0562
11
64.5387
21
-60.0366
0
LINE
8
BLACK
6
CONTINUOUS
10
64.5387
20
-60.0366
11
64.4272
21
-59.9798
0
LINE
8
BLACK
6
CONTINUOUS
10
64.4272
20
-59.9798
11
64.3387
21
-59.8913
0
LINE
8
BLACK
6
CONTINUOUS
10
64.3387
20
-59.8913
11
64.2819
21
-59.7798
0
LINE
8
BLACK
6
CONTINUOUS
10
64.2819
20
-59.7798
11
64.2623
21
-59.6562
0
LINE
8
BLACK
6
CONTINUOUS
10
64.2623
20
-59.6562
11
64.2819
21
-59.5326
0
LINE
8
BLACK
6
CONTINUOUS
10
64.2819
20
-59.5326
11
64.3387
21
-59.4211
0
LINE
8
BLACK
6
CONTINUOUS
10
64.3387
20
-59.4211
11
64.4272
21
-59.3326
0
LINE
8
BLACK
6
CONTINUOUS
10
64.4272
20
-59.3326
11
64.5373
21
-59.2765
0
LINE
8
BLACK
6
CONTINUOUS
10
64.5373
20
-59.2765
11
64.5373
21
-57.7111
0
LINE
8
BLACK
6
CONTINUOUS
10
64.5373
20
-57.7111
11
60.538
21
-53.7118
0
LINE
8
BLACK
6
CONTINUOUS
10
60.538
20
-53.7118
11
60.5247
21
-53.6939
0
LINE
8
BLACK
6
CONTINUOUS
10
60.5247
20
-53.6939
11
60.5213
21
-53.691
0
LINE
8
BLACK
6
CONTINUOUS
10
60.5213
20
-53.691
11
60.5205
21
-53.6883
0
LINE
8
BLACK
6
CONTINUOUS
10
60.5205
20
-53.6883
11
60.5167
21
-53.6833
0
LINE
8
BLACK
6
CONTINUOUS
10
60.5167
20
-53.6833
11
60.5101
21
-53.6531
0
LINE
8
BLACK
6
CONTINUOUS
10
60.5101
20
-53.6531
11
60.5014
21
-53.6234
0
LINE
8
BLACK
6
CONTINUOUS
10
60.5014
20
-53.6234
11
60.5014
21
-42.8443
0
LINE
8
BLACK
6
CONTINUOUS
10
60.5014
20
-42.8443
11
60.3254
21
-42.8114
0
LINE
8
BLACK
6
CONTINUOUS
10
60.3254
20
-42.8114
11
60.1361
21
-42.7381
0
LINE
8
BLACK
6
CONTINUOUS
10
60.1361
20
-42.7381
11
59.9635
21
-42.6312
0
LINE
8
BLACK
6
CONTINUOUS
10
59.9635
20
-42.6312
11
59.8135
21
-42.4944
0
LINE
8
BLACK
6
CONTINUOUS
10
59.8135
20
-42.4944
11
59.6912
21
-42.3325
0
LINE
8
BLACK
6
CONTINUOUS
10
59.6912
20
-42.3325
11
59.6007
21
-42.1507
0
LINE
8
BLACK
6
CONTINUOUS
10
59.6007
20
-42.1507
11
59.5451
21
-41.9555
0
LINE
8
BLACK
6
CONTINUOUS
10
59.5451
20
-41.9555
11
59.5264
21
-41.7534
0
LINE
8
BLACK
6
CONTINUOUS
10
59.5264
20
-41.7534
11
59.5451
21
-41.5513
0
LINE
8
BLACK
6
CONTINUOUS
10
59.5451
20
-41.5513
11
59.6007
21
-41.356
0
LINE
8
BLACK
6
CONTINUOUS
10
59.6007
20
-41.356
11
59.6912
21
-41.1743
0
LINE
8
BLACK
6
CONTINUOUS
10
59.6912
20
-41.1743
11
59.8135
21
-41.0123
0
LINE
8
BLACK
6
CONTINUOUS
10
59.8135
20
-41.0123
11
59.9635
21
-40.8756
0
LINE
8
BLACK
6
CONTINUOUS
10
59.9635
20
-40.8756
11
60.1361
21
-40.7687
0
LINE
8
BLACK
6
CONTINUOUS
10
60.1361
20
-40.7687
11
60.3254
21
-40.6954
0
LINE
8
BLACK
6
CONTINUOUS
10
60.3254
20
-40.6954
11
60.5249
21
-40.6581
0
LINE
8
BLACK
6
CONTINUOUS
10
60.5249
20
-40.6581
11
60.7279
21
-40.6581
0
LINE
8
BLACK
6
CONTINUOUS
10
60.7279
20
-40.6581
11
60.9274
21
-40.6954
0
LINE
8
BLACK
6
CONTINUOUS
10
55.5482
20
-59.2272
11
55.6597
21
-59.284
0
LINE
8
BLACK
6
CONTINUOUS
10
55.6597
20
-59.284
11
55.7482
21
-59.3725
0
LINE
8
BLACK
6
CONTINUOUS
10
55.7482
20
-59.3725
11
55.805
21
-59.484
0
LINE
8
BLACK
6
CONTINUOUS
10
55.805
20
-59.484
11
55.8246
21
-59.6076
0
LINE
8
BLACK
6
CONTINUOUS
10
55.8246
20
-59.6076
11
55.805
21
-59.7312
0
LINE
8
BLACK
6
CONTINUOUS
10
55.805
20
-59.7312
11
55.7482
21
-59.8427
0
LINE
8
BLACK
6
CONTINUOUS
10
55.7482
20
-59.8427
11
55.6597
21
-59.9312
0
LINE
8
BLACK
6
CONTINUOUS
10
55.6597
20
-59.9312
11
55.5482
21
-59.988
0
LINE
8
BLACK
6
CONTINUOUS
10
55.5482
20
-59.988
11
55.4246
21
-60.0076
0
LINE
8
BLACK
6
CONTINUOUS
10
55.4246
20
-60.0076
11
55.301
21
-59.988
0
LINE
8
BLACK
6
CONTINUOUS
10
55.301
20
-59.988
11
55.1895
21
-59.9312
0
LINE
8
BLACK
6
CONTINUOUS
10
55.1895
20
-59.9312
11
55.101
21
-59.8427
0
LINE
8
BLACK
6
CONTINUOUS
10
55.101
20
-59.8427
11
55.0442
21
-59.7312
0
LINE
8
BLACK
6
CONTINUOUS
10
55.0442
20
-59.7312
11
55.0246
21
-59.6076
0
LINE
8
BLACK
6
CONTINUOUS
10
55.0246
20
-59.6076
11
55.0442
21
-59.484
0
LINE
8
BLACK
6
CONTINUOUS
10
55.0442
20
-59.484
11
55.101
21
-59.3725
0
LINE
8
BLACK
6
CONTINUOUS
10
55.101
20
-59.3725
11
55.1895
21
-59.284
0
LINE
8
BLACK
6
CONTINUOUS
10
55.1895
20
-59.284
11
55.301
21
-59.2272
0
LINE
8
BLACK
6
CONTINUOUS
10
55.301
20
-59.2272
11
55.4246
21
-59.2076
0
LINE
8
BLACK
6
CONTINUOUS
10
55.4246
20
-59.2076
11
55.5482
21
-59.2272
0
LINE
8
BLACK
6
CONTINUOUS
10
72.09
20
-59.143
11
72.2015
21
-59.1998
0
LINE
8
BLACK
6
CONTINUOUS
10
72.2015
20
-59.1998
11
72.29
21
-59.2883
0
LINE
8
BLACK
6
CONTINUOUS
10
72.29
20
-59.2883
11
72.3468
21
-59.3998
0
LINE
8
BLACK
6
CONTINUOUS
10
72.3468
20
-59.3998
11
72.3664
21
-59.5234
0
LINE
8
BLACK
6
CONTINUOUS
10
72.3664
20
-59.5234
11
72.3468
21
-59.647
0
LINE
8
BLACK
6
CONTINUOUS
10
72.3468
20
-59.647
11
72.29
21
-59.7585
0
LINE
8
BLACK
6
CONTINUOUS
10
72.29
20
-59.7585
11
72.2015
21
-59.847
0
LINE
8
BLACK
6
CONTINUOUS
10
72.2015
20
-59.847
11
72.09
21
-59.9038
0
LINE
8
BLACK
6
CONTINUOUS
10
72.09
20
-59.9038
11
71.9664
21
-59.9234
0
LINE
8
BLACK
6
CONTINUOUS
10
71.9664
20
-59.9234
11
71.8428
21
-59.9038
0
LINE
8
BLACK
6
CONTINUOUS
10
71.8428
20
-59.9038
11
71.7313
21
-59.847
0
LINE
8
BLACK
6
CONTINUOUS
10
71.7313
20
-59.847
11
71.6428
21
-59.7585
0
LINE
8
BLACK
6
CONTINUOUS
10
71.6428
20
-59.7585
11
71.586
21
-59.647
0
LINE
8
BLACK
6
CONTINUOUS
10
71.586
20
-59.647
11
71.5664
21
-59.5234
0
LINE
8
BLACK
6
CONTINUOUS
10
71.5664
20
-59.5234
11
71.586
21
-59.3998
0
LINE
8
BLACK
6
CONTINUOUS
10
71.586
20
-59.3998
11
71.6428
21
-59.2883
0
LINE
8
BLACK
6
CONTINUOUS
10
71.6428
20
-59.2883
11
71.7313
21
-59.1998
0
LINE
8
BLACK
6
CONTINUOUS
10
71.7313
20
-59.1998
11
71.8428
21
-59.143
0
LINE
8
BLACK
6
CONTINUOUS
10
71.8428
20
-59.143
11
71.9664
21
-59.1234
0
LINE
8
BLACK
6
CONTINUOUS
10
71.9664
20
-59.1234
11
72.09
21
-59.143
0
LINE
8
BLACK
6
CONTINUOUS
10
68.0504
20
-59.103
11
68.1619
21
-59.1598
0
LINE
8
BLACK
6
CONTINUOUS
10
68.1619
20
-59.1598
11
68.2504
21
-59.2483
0
LINE
8
BLACK
6
CONTINUOUS
10
68.2504
20
-59.2483
11
68.3072
21
-59.3598
0
LINE
8
BLACK
6
CONTINUOUS
10
68.3072
20
-59.3598
11
68.3268
21
-59.4834
0
LINE
8
BLACK
6
CONTINUOUS
10
68.3268
20
-59.4834
11
68.3072
21
-59.607
0
LINE
8
BLACK
6
CONTINUOUS
10
68.3072
20
-59.607
11
68.2504
21
-59.7185
0
LINE
8
BLACK
6
CONTINUOUS
10
68.2504
20
-59.7185
11
68.1619
21
-59.807
0
LINE
8
BLACK
6
CONTINUOUS
10
68.1619
20
-59.807
11
68.0504
21
-59.8638
0
LINE
8
BLACK
6
CONTINUOUS
10
68.0504
20
-59.8638
11
67.9268
21
-59.8834
0
LINE
8
BLACK
6
CONTINUOUS
10
67.9268
20
-59.8834
11
67.8032
21
-59.8638
0
LINE
8
BLACK
6
CONTINUOUS
10
67.8032
20
-59.8638
11
67.6917
21
-59.807
0
LINE
8
BLACK
6
CONTINUOUS
10
67.6917
20
-59.807
11
67.6032
21
-59.7185
0
LINE
8
BLACK
6
CONTINUOUS
10
67.6032
20
-59.7185
11
67.5464
21
-59.607
0
LINE
8
BLACK
6
CONTINUOUS
10
67.5464
20
-59.607
11
67.5268
21
-59.4834
0
LINE
8
BLACK
6
CONTINUOUS
10
67.5268
20
-59.4834
11
67.5464
21
-59.3598
0
LINE
8
BLACK
6
CONTINUOUS
10
67.5464
20
-59.3598
11
67.6032
21
-59.2483
0
LINE
8
BLACK
6
CONTINUOUS
10
67.6032
20
-59.2483
11
67.6917
21
-59.1598
0
LINE
8
BLACK
6
CONTINUOUS
10
67.6917
20
-59.1598
11
67.8032
21
-59.103
0
LINE
8
BLACK
6
CONTINUOUS
10
67.8032
20
-59.103
11
67.9268
21
-59.0834
0
LINE
8
BLACK
6
CONTINUOUS
10
67.9268
20
-59.0834
11
68.0504
21
-59.103
0
LINE
8
BLACK
6
CONTINUOUS
10
58.3874
20
-40.6954
11
58.5767
21
-40.7687
0
LINE
8
BLACK
6
CONTINUOUS
10
58.5767
20
-40.7687
11
58.7493
21
-40.8756
0
LINE
8
BLACK
6
CONTINUOUS
10
58.7493
20
-40.8756
11
58.8993
21
-41.0123
0
LINE
8
BLACK
6
CONTINUOUS
10
58.8993
20
-41.0123
11
59.0217
21
-41.1743
0
LINE
8
BLACK
6
CONTINUOUS
10
59.0217
20
-41.1743
11
59.1121
21
-41.356
0
LINE
8
BLACK
6
CONTINUOUS
10
59.1121
20
-41.356
11
59.1677
21
-41.5513
0
LINE
8
BLACK
6
CONTINUOUS
10
59.1677
20
-41.5513
11
59.1864
21
-41.7534
0
LINE
8
BLACK
6
CONTINUOUS
10
59.1864
20
-41.7534
11
59.1677
21
-41.9555
0
LINE
8
BLACK
6
CONTINUOUS
10
59.1677
20
-41.9555
11
59.1121
21
-42.1507
0
LINE
8
BLACK
6
CONTINUOUS
10
59.1121
20
-42.1507
11
59.0217
21
-42.3325
0
LINE
8
BLACK
6
CONTINUOUS
10
59.0217
20
-42.3325
11
58.8993
21
-42.4944
0
LINE
8
BLACK
6
CONTINUOUS
10
58.8993
20
-42.4944
11
58.7493
21
-42.6312
0
LINE
8
BLACK
6
CONTINUOUS
10
58.7493
20
-42.6312
11
58.5767
21
-42.7381
0
LINE
8
BLACK
6
CONTINUOUS
10
58.5767
20
-42.7381
11
58.3874
21
-42.8114
0
LINE
8
BLACK
6
CONTINUOUS
10
58.3874
20
-42.8114
11
58.2114
21
-42.8443
0
LINE
8
BLACK
6
CONTINUOUS
10
58.2114
20
-42.8443
11
58.2114
21
-54.9742
0
LINE
8
BLACK
6
CONTINUOUS
10
58.2114
20
-54.9742
11
61.9457
21
-58.7085
0
LINE
8
BLACK
6
CONTINUOUS
10
61.9457
20
-58.7085
11
61.9987
21
-58.6815
0
LINE
8
BLACK
6
CONTINUOUS
10
61.9987
20
-58.6815
11
62.1223
21
-58.6619
0
LINE
8
BLACK
6
CONTINUOUS
10
62.1223
20
-58.6619
11
62.2459
21
-58.6815
0
LINE
8
BLACK
6
CONTINUOUS
10
62.2459
20
-58.6815
11
62.3574
21
-58.7383
0
LINE
8
BLACK
6
CONTINUOUS
10
62.3574
20
-58.7383
11
62.4459
21
-58.8268
0
LINE
8
BLACK
6
CONTINUOUS
10
62.4459
20
-58.8268
11
62.5027
21
-58.9383
0
LINE
8
BLACK
6
CONTINUOUS
10
62.5027
20
-58.9383
11
62.5223
21
-59.0619
0
LINE
8
BLACK
6
CONTINUOUS
10
62.5223
20
-59.0619
11
62.5027
21
-59.1855
0
LINE
8
BLACK
6
CONTINUOUS
10
62.5027
20
-59.1855
11
62.4459
21
-59.297
0
LINE
8
BLACK
6
CONTINUOUS
10
62.4459
20
-59.297
11
62.3574
21
-59.3855
0
LINE
8
BLACK
6
CONTINUOUS
10
62.3574
20
-59.3855
11
62.2459
21
-59.4423
0
LINE
8
BLACK
6
CONTINUOUS
10
62.2459
20
-59.4423
11
62.1223
21
-59.4619
0
LINE
8
BLACK
6
CONTINUOUS
10
62.1223
20
-59.4619
11
61.9987
21
-59.4423
0
LINE
8
BLACK
6
CONTINUOUS
10
61.9987
20
-59.4423
11
61.8872
21
-59.3855
0
LINE
8
BLACK
6
CONTINUOUS
10
61.8872
20
-59.3855
11
61.7987
21
-59.297
0
LINE
8
BLACK
6
CONTINUOUS
10
61.7987
20
-59.297
11
61.7419
21
-59.1855
0
LINE
8
BLACK
6
CONTINUOUS
10
61.7419
20
-59.1855
11
61.7223
21
-59.0619
0
LINE
8
BLACK
6
CONTINUOUS
10
61.7223
20
-59.0619
11
61.7419
21
-58.9383
0
LINE
8
BLACK
6
CONTINUOUS
10
61.7419
20
-58.9383
11
61.7689
21
-58.8853
0
LINE
8
BLACK
6
CONTINUOUS
10
61.7689
20
-58.8853
11
57.998
21
-55.1144
0
LINE
8
BLACK
6
CONTINUOUS
10
57.998
20
-55.1144
11
57.9847
21
-55.0965
0
LINE
8
BLACK
6
CONTINUOUS
10
57.9847
20
-55.0965
11
57.9813
21
-55.0936
0
LINE
8
BLACK
6
CONTINUOUS
10
57.9813
20
-55.0936
11
57.9805
21
-55.0909
0
LINE
8
BLACK
6
CONTINUOUS
10
57.9805
20
-55.0909
11
57.9767
21
-55.0859
0
LINE
8
BLACK
6
CONTINUOUS
10
57.9767
20
-55.0859
11
57.9701
21
-55.0557
0
LINE
8
BLACK
6
CONTINUOUS
10
57.9701
20
-55.0557
11
57.9614
21
-55.026
0
LINE
8
BLACK
6
CONTINUOUS
10
57.9614
20
-55.026
11
57.9614
21
-42.8443
0
LINE
8
BLACK
6
CONTINUOUS
10
57.9614
20
-42.8443
11
57.7854
21
-42.8114
0
LINE
8
BLACK
6
CONTINUOUS
10
57.7854
20
-42.8114
11
57.5961
21
-42.7381
0
LINE
8
BLACK
6
CONTINUOUS
10
57.5961
20
-42.7381
11
57.4235
21
-42.6312
0
LINE
8
BLACK
6
CONTINUOUS
10
57.4235
20
-42.6312
11
57.2735
21
-42.4944
0
LINE
8
BLACK
6
CONTINUOUS
10
57.2735
20
-42.4944
11
57.1512
21
-42.3325
0
LINE
8
BLACK
6
CONTINUOUS
10
57.1512
20
-42.3325
11
57.0607
21
-42.1507
0
LINE
8
BLACK
6
CONTINUOUS
10
57.0607
20
-42.1507
11
57.0052
21
-41.9555
0
LINE
8
BLACK
6
CONTINUOUS
10
57.0052
20
-41.9555
11
56.9864
21
-41.7534
0
LINE
8
BLACK
6
CONTINUOUS
10
56.9864
20
-41.7534
11
57.0052
21
-41.5513
0
LINE
8
BLACK
6
CONTINUOUS
10
57.0052
20
-41.5513
11
57.0607
21
-41.356
0
LINE
8
BLACK
6
CONTINUOUS
10
57.0607
20
-41.356
11
57.1512
21
-41.1743
0
LINE
8
BLACK
6
CONTINUOUS
10
57.1512
20
-41.1743
11
57.2735
21
-41.0123
0
LINE
8
BLACK
6
CONTINUOUS
10
57.2735
20
-41.0123
11
57.4235
21
-40.8756
0
LINE
8
BLACK
6
CONTINUOUS
10
57.4235
20
-40.8756
11
57.5961
21
-40.7687
0
LINE
8
BLACK
6
CONTINUOUS
10
57.5961
20
-40.7687
11
57.7854
21
-40.6954
0
LINE
8
BLACK
6
CONTINUOUS
10
57.7854
20
-40.6954
11
57.9849
21
-40.6581
0
LINE
8
BLACK
6
CONTINUOUS
10
57.9849
20
-40.6581
11
58.1879
21
-40.6581
0
LINE
8
BLACK
6
CONTINUOUS
10
58.1879
20
-40.6581
11
58.3874
21
-40.6954
0
LINE
8
BLACK
6
CONTINUOUS
10
71.765
20
-57.933
11
71.8765
21
-57.9898
0
LINE
8
BLACK
6
CONTINUOUS
10
71.8765
20
-57.9898
11
71.965
21
-58.0783
0
LINE
8
BLACK
6
CONTINUOUS
10
71.965
20
-58.0783
11
72.0218
21
-58.1898
0
LINE
8
BLACK
6
CONTINUOUS
10
72.0218
20
-58.1898
11
72.0414
21
-58.3134
0
LINE
8
BLACK
6
CONTINUOUS
10
72.0414
20
-58.3134
11
72.0218
21
-58.437
0
LINE
8
BLACK
6
CONTINUOUS
10
72.0218
20
-58.437
11
71.965
21
-58.5485
0
LINE
8
BLACK
6
CONTINUOUS
10
71.965
20
-58.5485
11
71.8765
21
-58.637
0
LINE
8
BLACK
6
CONTINUOUS
10
71.8765
20
-58.637
11
71.765
21
-58.6938
0
LINE
8
BLACK
6
CONTINUOUS
10
71.765
20
-58.6938
11
71.6414
21
-58.7134
0
LINE
8
BLACK
6
CONTINUOUS
10
71.6414
20
-58.7134
11
71.5178
21
-58.6938
0
LINE
8
BLACK
6
CONTINUOUS
10
71.5178
20
-58.6938
11
71.4063
21
-58.637
0
LINE
8
BLACK
6
CONTINUOUS
10
71.4063
20
-58.637
11
71.3178
21
-58.5485
0
LINE
8
BLACK
6
CONTINUOUS
10
71.3178
20
-58.5485
11
71.261
21
-58.437
0
LINE
8
BLACK
6
CONTINUOUS
10
71.261
20
-58.437
11
71.2414
21
-58.3134
0
LINE
8
BLACK
6
CONTINUOUS
10
71.2414
20
-58.3134
11
71.261
21
-58.1898
0
LINE
8
BLACK
6
CONTINUOUS
10
71.261
20
-58.1898
11
71.3178
21
-58.0783
0
LINE
8
BLACK
6
CONTINUOUS
10
71.3178
20
-58.0783
11
71.4063
21
-57.9898
0
LINE
8
BLACK
6
CONTINUOUS
10
71.4063
20
-57.9898
11
71.5178
21
-57.933
0
LINE
8
BLACK
6
CONTINUOUS
10
71.5178
20
-57.933
11
71.6414
21
-57.9134
0
LINE
8
BLACK
6
CONTINUOUS
10
71.6414
20
-57.9134
11
71.765
21
-57.933
0
LINE
8
BLACK
6
CONTINUOUS
10
54.975
20
-57.6835
11
55.0865
21
-57.7403
0
LINE
8
BLACK
6
CONTINUOUS
10
55.0865
20
-57.7403
11
55.175
21
-57.8288
0
LINE
8
BLACK
6
CONTINUOUS
10
55.175
20
-57.8288
11
55.2318
21
-57.9403
0
LINE
8
BLACK
6
CONTINUOUS
10
55.2318
20
-57.9403
11
55.2514
21
-58.0639
0
LINE
8
BLACK
6
CONTINUOUS
10
55.2514
20
-58.0639
11
55.2318
21
-58.1875
0
LINE
8
BLACK
6
CONTINUOUS
10
55.2318
20
-58.1875
11
55.175
21
-58.299
0
LINE
8
BLACK
6
CONTINUOUS
10
55.175
20
-58.299
11
55.0865
21
-58.3875
0
LINE
8
BLACK
6
CONTINUOUS
10
55.0865
20
-58.3875
11
54.975
21
-58.4443
0
LINE
8
BLACK
6
CONTINUOUS
10
54.975
20
-58.4443
11
54.8514
21
-58.4639
0
LINE
8
BLACK
6
CONTINUOUS
10
54.8514
20
-58.4639
11
54.7278
21
-58.4443
0
LINE
8
BLACK
6
CONTINUOUS
10
54.7278
20
-58.4443
11
54.6163
21
-58.3875
0
LINE
8
BLACK
6
CONTINUOUS
10
54.6163
20
-58.3875
11
54.5278
21
-58.299
0
LINE
8
BLACK
6
CONTINUOUS
10
54.5278
20
-58.299
11
54.471
21
-58.1875
0
LINE
8
BLACK
6
CONTINUOUS
10
54.471
20
-58.1875
11
54.4514
21
-58.0639
0
LINE
8
BLACK
6
CONTINUOUS
10
54.4514
20
-58.0639
11
54.471
21
-57.9403
0
LINE
8
BLACK
6
CONTINUOUS
10
54.471
20
-57.9403
11
54.5278
21
-57.8288
0
LINE
8
BLACK
6
CONTINUOUS
10
54.5278
20
-57.8288
11
54.6163
21
-57.7403
0
LINE
8
BLACK
6
CONTINUOUS
10
54.6163
20
-57.7403
11
54.7278
21
-57.6835
0
LINE
8
BLACK
6
CONTINUOUS
10
54.7278
20
-57.6835
11
54.8514
21
-57.6639
0
LINE
8
BLACK
6
CONTINUOUS
10
54.8514
20
-57.6639
11
54.975
21
-57.6835
0
LINE
8
BLACK
6
CONTINUOUS
10
63.415
20
-57.633
11
63.5265
21
-57.6898
0
LINE
8
BLACK
6
CONTINUOUS
10
63.5265
20
-57.6898
11
63.615
21
-57.7783
0
LINE
8
BLACK
6
CONTINUOUS
10
63.615
20
-57.7783
11
63.6718
21
-57.8898
0
LINE
8
BLACK
6
CONTINUOUS
10
63.6718
20
-57.8898
11
63.6914
21
-58.0134
0
LINE
8
BLACK
6
CONTINUOUS
10
63.6914
20
-58.0134
11
63.6718
21
-58.137
0
LINE
8
BLACK
6
CONTINUOUS
10
63.6718
20
-58.137
11
63.615
21
-58.2485
0
LINE
8
BLACK
6
CONTINUOUS
10
63.615
20
-58.2485
11
63.5265
21
-58.337
0
LINE
8
BLACK
6
CONTINUOUS
10
63.5265
20
-58.337
11
63.415
21
-58.3938
0
LINE
8
BLACK
6
CONTINUOUS
10
63.415
20
-58.3938
11
63.2914
21
-58.4134
0
LINE
8
BLACK
6
CONTINUOUS
10
63.2914
20
-58.4134
11
63.1678
21
-58.3938
0
LINE
8
BLACK
6
CONTINUOUS
10
63.1678
20
-58.3938
11
63.0563
21
-58.337
0
LINE
8
BLACK
6
CONTINUOUS
10
63.0563
20
-58.337
11
62.9678
21
-58.2485
0
LINE
8
BLACK
6
CONTINUOUS
10
62.9678
20
-58.2485
11
62.911
21
-58.137
0
LINE
8
BLACK
6
CONTINUOUS
10
62.911
20
-58.137
11
62.8914
21
-58.0134
0
LINE
8
BLACK
6
CONTINUOUS
10
62.8914
20
-58.0134
11
62.911
21
-57.8898
0
LINE
8
BLACK
6
CONTINUOUS
10
62.911
20
-57.8898
11
62.9678
21
-57.7783
0
LINE
8
BLACK
6
CONTINUOUS
10
62.9678
20
-57.7783
11
63.0563
21
-57.6898
0
LINE
8
BLACK
6
CONTINUOUS
10
63.0563
20
-57.6898
11
63.1678
21
-57.633
0
LINE
8
BLACK
6
CONTINUOUS
10
63.1678
20
-57.633
11
63.2914
21
-57.6134
0
LINE
8
BLACK
6
CONTINUOUS
10
63.2914
20
-57.6134
11
63.415
21
-57.633
0
LINE
8
BLACK
6
CONTINUOUS
10
49.9191
20
-55.905
11
50.0814
21
-55.9773
0
LINE
8
BLACK
6
CONTINUOUS
10
50.0814
20
-55.9773
11
50.2252
21
-56.0817
0
LINE
8
BLACK
6
CONTINUOUS
10
50.2252
20
-56.0817
11
50.3441
21
-56.2138
0
LINE
8
BLACK
6
CONTINUOUS
10
50.3441
20
-56.2138
11
50.4329
21
-56.3677
0
LINE
8
BLACK
6
CONTINUOUS
10
50.4329
20
-56.3677
11
50.4878
21
-56.5367
0
LINE
8
BLACK
6
CONTINUOUS
10
50.4878
20
-56.5367
11
50.5064
21
-56.7134
0
LINE
8
BLACK
6
CONTINUOUS
10
50.5064
20
-56.7134
11
50.4878
21
-56.8901
0
LINE
8
BLACK
6
CONTINUOUS
10
50.4878
20
-56.8901
11
50.4329
21
-57.0591
0
LINE
8
BLACK
6
CONTINUOUS
10
50.4329
20
-57.0591
11
50.3441
21
-57.213
0
LINE
8
BLACK
6
CONTINUOUS
10
50.3441
20
-57.213
11
50.2252
21
-57.3451
0
LINE
8
BLACK
6
CONTINUOUS
10
50.2252
20
-57.3451
11
50.0814
21
-57.4495
0
LINE
8
BLACK
6
CONTINUOUS
10
50.0814
20
-57.4495
11
49.9191
21
-57.5218
0
LINE
8
BLACK
6
CONTINUOUS
10
49.9191
20
-57.5218
11
49.7453
21
-57.5587
0
LINE
8
BLACK
6
CONTINUOUS
10
49.7453
20
-57.5587
11
49.5676
21
-57.5587
0
LINE
8
BLACK
6
CONTINUOUS
10
49.5676
20
-57.5587
11
49.3938
21
-57.5218
0
LINE
8
BLACK
6
CONTINUOUS
10
49.3938
20
-57.5218
11
49.2314
21
-57.4495
0
LINE
8
BLACK
6
CONTINUOUS
10
49.2314
20
-57.4495
11
49.0877
21
-57.3451
0
LINE
8
BLACK
6
CONTINUOUS
10
49.0877
20
-57.3451
11
48.9688
21
-57.213
0
LINE
8
BLACK
6
CONTINUOUS
10
48.9688
20
-57.213
11
48.8799
21
-57.0591
0
LINE
8
BLACK
6
CONTINUOUS
10
48.8799
20
-57.0591
11
48.825
21
-56.8901
0
LINE
8
BLACK
6
CONTINUOUS
10
48.825
20
-56.8901
11
48.8064
21
-56.7134
0
LINE
8
BLACK
6
CONTINUOUS
10
48.8064
20
-56.7134
11
48.825
21
-56.5367
0
LINE
8
BLACK
6
CONTINUOUS
10
48.825
20
-56.5367
11
48.8799
21
-56.3677
0
LINE
8
BLACK
6
CONTINUOUS
10
48.8799
20
-56.3677
11
48.9688
21
-56.2138
0
LINE
8
BLACK
6
CONTINUOUS
10
48.9688
20
-56.2138
11
49.0877
21
-56.0817
0
LINE
8
BLACK
6
CONTINUOUS
10
49.0877
20
-56.0817
11
49.2314
21
-55.9773
0
LINE
8
BLACK
6
CONTINUOUS
10
49.2314
20
-55.9773
11
49.3938
21
-55.905
0
LINE
8
BLACK
6
CONTINUOUS
10
49.3938
20
-55.905
11
49.5676
21
-55.868
0
LINE
8
BLACK
6
CONTINUOUS
10
49.5676
20
-55.868
11
49.7453
21
-55.868
0
LINE
8
BLACK
6
CONTINUOUS
10
49.7453
20
-55.868
11
49.9191
21
-55.905
0
LINE
8
BLACK
6
CONTINUOUS
10
63.4674
20
-40.6954
11
63.6567
21
-40.7687
0
LINE
8
BLACK
6
CONTINUOUS
10
63.6567
20
-40.7687
11
63.8293
21
-40.8756
0
LINE
8
BLACK
6
CONTINUOUS
10
63.8293
20
-40.8756
11
63.9793
21
-41.0123
0
LINE
8
BLACK
6
CONTINUOUS
10
63.9793
20
-41.0123
11
64.1017
21
-41.1743
0
LINE
8
BLACK
6
CONTINUOUS
10
64.1017
20
-41.1743
11
64.1921
21
-41.356
0
LINE
8
BLACK
6
CONTINUOUS
10
64.1921
20
-41.356
11
64.2477
21
-41.5513
0
LINE
8
BLACK
6
CONTINUOUS
10
64.2477
20
-41.5513
11
64.2664
21
-41.7534
0
LINE
8
BLACK
6
CONTINUOUS
10
64.2664
20
-41.7534
11
64.2477
21
-41.9555
0
LINE
8
BLACK
6
CONTINUOUS
10
64.2477
20
-41.9555
11
64.1921
21
-42.1507
0
LINE
8
BLACK
6
CONTINUOUS
10
64.1921
20
-42.1507
11
64.1017
21
-42.3325
0
LINE
8
BLACK
6
CONTINUOUS
10
64.1017
20
-42.3325
11
64.0245
21
-42.4347
0
LINE
8
BLACK
6
CONTINUOUS
10
64.0245
20
-42.4347
11
66.2985
21
-44.7087
0
LINE
8
BLACK
6
CONTINUOUS
10
66.2985
20
-44.7087
11
66.3119
21
-44.7266
0
LINE
8
BLACK
6
CONTINUOUS
10
66.3119
20
-44.7266
11
66.3153
21
-44.7295
0
LINE
8
BLACK
6
CONTINUOUS
10
66.3153
20
-44.7295
11
66.316
21
-44.7321
0
LINE
8
BLACK
6
CONTINUOUS
10
66.316
20
-44.7321
11
66.3198
21
-44.7372
0
LINE
8
BLACK
6
CONTINUOUS
10
66.3198
20
-44.7372
11
66.3264
21
-44.7674
0
LINE
8
BLACK
6
CONTINUOUS
10
66.3264
20
-44.7674
11
66.3351
21
-44.7971
0
LINE
8
BLACK
6
CONTINUOUS
10
66.3351
20
-44.7971
11
66.3351
21
-56.2835
0
LINE
8
BLACK
6
CONTINUOUS
10
66.3351
20
-56.2835
11
66.3904
21
-56.3388
0
LINE
8
BLACK
6
CONTINUOUS
10
66.3904
20
-56.3388
11
66.4472
21
-56.4503
0
LINE
8
BLACK
6
CONTINUOUS
10
66.4472
20
-56.4503
11
66.4668
21
-56.5739
0
LINE
8
BLACK
6
CONTINUOUS
10
66.4668
20
-56.5739
11
66.4472
21
-56.6975
0
LINE
8
BLACK
6
CONTINUOUS
10
66.4472
20
-56.6975
11
66.3904
21
-56.809
0
LINE
8
BLACK
6
CONTINUOUS
10
66.3904
20
-56.809
11
66.3019
21
-56.8975
0
LINE
8
BLACK
6
CONTINUOUS
10
66.3019
20
-56.8975
11
66.1904
21
-56.9543
0
LINE
8
BLACK
6
CONTINUOUS
10
66.1904
20
-56.9543
11
66.0668
21
-56.9739
0
LINE
8
BLACK
6
CONTINUOUS
10
66.0668
20
-56.9739
11
65.9432
21
-56.9543
0
LINE
8
BLACK
6
CONTINUOUS
10
65.9432
20
-56.9543
11
65.8317
21
-56.8975
0
LINE
8
BLACK
6
CONTINUOUS
10
65.8317
20
-56.8975
11
65.7432
21
-56.809
0
LINE
8
BLACK
6
CONTINUOUS
10
65.7432
20
-56.809
11
65.6864
21
-56.6975
0
LINE
8
BLACK
6
CONTINUOUS
10
65.6864
20
-56.6975
11
65.6668
21
-56.5739
0
LINE
8
BLACK
6
CONTINUOUS
10
65.6668
20
-56.5739
11
65.6864
21
-56.4503
0
LINE
8
BLACK
6
CONTINUOUS
10
65.6864
20
-56.4503
11
65.7432
21
-56.3388
0
LINE
8
BLACK
6
CONTINUOUS
10
65.7432
20
-56.3388
11
65.8317
21
-56.2503
0
LINE
8
BLACK
6
CONTINUOUS
10
65.8317
20
-56.2503
11
65.9432
21
-56.1935
0
LINE
8
BLACK
6
CONTINUOUS
10
65.9432
20
-56.1935
11
66.0668
21
-56.1739
0
LINE
8
BLACK
6
CONTINUOUS
10
66.0668
20
-56.1739
11
66.0851
21
-56.1768
0
LINE
8
BLACK
6
CONTINUOUS
10
66.0851
20
-56.1768
11
66.0851
21
-44.8489
0
LINE
8
BLACK
6
CONTINUOUS
10
66.0851
20
-44.8489
11
63.8493
21
-42.613
0
LINE
8
BLACK
6
CONTINUOUS
10
63.8493
20
-42.613
11
63.8293
21
-42.6312
0
LINE
8
BLACK
6
CONTINUOUS
10
63.8293
20
-42.6312
11
63.6567
21
-42.7381
0
LINE
8
BLACK
6
CONTINUOUS
10
63.6567
20
-42.7381
11
63.4674
21
-42.8114
0
LINE
8
BLACK
6
CONTINUOUS
10
63.4674
20
-42.8114
11
63.2679
21
-42.8487
0
LINE
8
BLACK
6
CONTINUOUS
10
63.2679
20
-42.8487
11
63.0649
21
-42.8487
0
LINE
8
BLACK
6
CONTINUOUS
10
63.0649
20
-42.8487
11
62.8654
21
-42.8114
0
LINE
8
BLACK
6
CONTINUOUS
10
62.8654
20
-42.8114
11
62.6761
21
-42.7381
0
LINE
8
BLACK
6
CONTINUOUS
10
62.6761
20
-42.7381
11
62.5035
21
-42.6312
0
LINE
8
BLACK
6
CONTINUOUS
10
62.5035
20
-42.6312
11
62.3535
21
-42.4944
0
LINE
8
BLACK
6
CONTINUOUS
10
62.3535
20
-42.4944
11
62.2312
21
-42.3325
0
LINE
8
BLACK
6
CONTINUOUS
10
62.2312
20
-42.3325
11
62.1407
21
-42.1507
0
LINE
8
BLACK
6
CONTINUOUS
10
62.1407
20
-42.1507
11
62.0851
21
-41.9555
0
LINE
8
BLACK
6
CONTINUOUS
10
62.0851
20
-41.9555
11
62.0664
21
-41.7534
0
LINE
8
BLACK
6
CONTINUOUS
10
62.0664
20
-41.7534
11
62.0851
21
-41.5513
0
LINE
8
BLACK
6
CONTINUOUS
10
62.0851
20
-41.5513
11
62.1407
21
-41.356
0
LINE
8
BLACK
6
CONTINUOUS
10
62.1407
20
-41.356
11
62.2312
21
-41.1743
0
LINE
8
BLACK
6
CONTINUOUS
10
62.2312
20
-41.1743
11
62.3535
21
-41.0123
0
LINE
8
BLACK
6
CONTINUOUS
10
62.3535
20
-41.0123
11
62.5035
21
-40.8756
0
LINE
8
BLACK
6
CONTINUOUS
10
62.5035
20
-40.8756
11
62.6761
21
-40.7687
0
LINE
8
BLACK
6
CONTINUOUS
10
62.6761
20
-40.7687
11
62.8654
21
-40.6954
0
LINE
8
BLACK
6
CONTINUOUS
10
62.8654
20
-40.6954
11
63.0649
21
-40.6581
0
LINE
8
BLACK
6
CONTINUOUS
10
63.0649
20
-40.6581
11
63.2679
21
-40.6581
0
LINE
8
BLACK
6
CONTINUOUS
10
63.2679
20
-40.6581
11
63.4674
21
-40.6954
0
LINE
8
BLACK
6
CONTINUOUS
10
51.9547
20
-55.0818
11
52.0662
21
-55.1386
0
LINE
8
BLACK
6
CONTINUOUS
10
52.0662
20
-55.1386
11
52.1547
21
-55.2271
0
LINE
8
BLACK
6
CONTINUOUS
10
52.1547
20
-55.2271
11
52.2115
21
-55.3386
0
LINE
8
BLACK
6
CONTINUOUS
10
52.2115
20
-55.3386
11
52.2311
21
-55.4622
0
LINE
8
BLACK
6
CONTINUOUS
10
52.2311
20
-55.4622
11
52.2115
21
-55.5859
0
LINE
8
BLACK
6
CONTINUOUS
10
52.2115
20
-55.5859
11
52.1547
21
-55.6974
0
LINE
8
BLACK
6
CONTINUOUS
10
52.1547
20
-55.6974
11
52.0662
21
-55.7858
0
LINE
8
BLACK
6
CONTINUOUS
10
52.0662
20
-55.7858
11
51.9547
21
-55.8427
0
LINE
8
BLACK
6
CONTINUOUS
10
51.9547
20
-55.8427
11
51.8311
21
-55.8622
0
LINE
8
BLACK
6
CONTINUOUS
10
51.8311
20
-55.8622
11
51.7075
21
-55.8427
0
LINE
8
BLACK
6
CONTINUOUS
10
51.7075
20
-55.8427
11
51.596
21
-55.7858
0
LINE
8
BLACK
6
CONTINUOUS
10
51.596
20
-55.7858
11
51.5075
21
-55.6974
0
LINE
8
BLACK
6
CONTINUOUS
10
51.5075
20
-55.6974
11
51.4506
21
-55.5859
0
LINE
8
BLACK
6
CONTINUOUS
10
51.4506
20
-55.5859
11
51.4311
21
-55.4622
0
LINE
8
BLACK
6
CONTINUOUS
10
51.4311
20
-55.4622
11
51.4506
21
-55.3386
0
LINE
8
BLACK
6
CONTINUOUS
10
51.4506
20
-55.3386
11
51.5075
21
-55.2271
0
LINE
8
BLACK
6
CONTINUOUS
10
51.5075
20
-55.2271
11
51.596
21
-55.1386
0
LINE
8
BLACK
6
CONTINUOUS
10
51.596
20
-55.1386
11
51.7075
21
-55.0818
0
LINE
8
BLACK
6
CONTINUOUS
10
51.7075
20
-55.0818
11
51.8311
21
-55.0622
0
LINE
8
BLACK
6
CONTINUOUS
10
51.8311
20
-55.0622
11
51.9547
21
-55.0818
0
LINE
8
BLACK
6
CONTINUOUS
10
69.3814
20
-53.6919
11
69.469
21
-53.7504
0
LINE
8
BLACK
6
CONTINUOUS
10
69.469
20
-53.7504
11
69.5276
21
-53.838
0
LINE
8
BLACK
6
CONTINUOUS
10
69.5276
20
-53.838
11
69.5481
21
-53.9413
0
LINE
8
BLACK
6
CONTINUOUS
10
69.5481
20
-53.9413
11
69.5481
21
-55.2013
0
LINE
8
BLACK
6
CONTINUOUS
10
69.5481
20
-55.2013
11
69.5276
21
-55.3046
0
LINE
8
BLACK
6
CONTINUOUS
10
69.5276
20
-55.3046
11
69.469
21
-55.3922
0
LINE
8
BLACK
6
CONTINUOUS
10
69.469
20
-55.3922
11
69.3814
21
-55.4507
0
LINE
8
BLACK
6
CONTINUOUS
10
69.3814
20
-55.4507
11
69.2781
21
-55.4713
0
LINE
8
BLACK
6
CONTINUOUS
10
69.2781
20
-55.4713
11
67.6181
21
-55.4713
0
LINE
8
BLACK
6
CONTINUOUS
10
67.6181
20
-55.4713
11
67.5148
21
-55.4507
0
LINE
8
BLACK
6
CONTINUOUS
10
67.5148
20
-55.4507
11
67.4272
21
-55.3922
0
LINE
8
BLACK
6
CONTINUOUS
10
67.4272
20
-55.3922
11
67.3687
21
-55.3046
0
LINE
8
BLACK
6
CONTINUOUS
10
67.3687
20
-55.3046
11
67.3481
21
-55.2013
0
LINE
8
BLACK
6
CONTINUOUS
10
67.3481
20
-55.2013
11
67.3481
21
-53.9413
0
LINE
8
BLACK
6
CONTINUOUS
10
67.3481
20
-53.9413
11
67.3687
21
-53.838
0
LINE
8
BLACK
6
CONTINUOUS
10
67.3687
20
-53.838
11
67.4272
21
-53.7504
0
LINE
8
BLACK
6
CONTINUOUS
10
67.4272
20
-53.7504
11
67.5148
21
-53.6919
0
LINE
8
BLACK
6
CONTINUOUS
10
67.5148
20
-53.6919
11
67.6181
21
-53.6713
0
LINE
8
BLACK
6
CONTINUOUS
10
67.6181
20
-53.6713
11
69.2781
21
-53.6713
0
LINE
8
BLACK
6
CONTINUOUS
10
69.2781
20
-53.6713
11
69.3814
21
-53.6919
0
LINE
8
BLACK
6
CONTINUOUS
10
71.9214
20
-53.6919
11
72.009
21
-53.7504
0
LINE
8
BLACK
6
CONTINUOUS
10
72.009
20
-53.7504
11
72.0676
21
-53.838
0
LINE
8
BLACK
6
CONTINUOUS
10
72.0676
20
-53.838
11
72.0881
21
-53.9413
0
LINE
8
BLACK
6
CONTINUOUS
10
72.0881
20
-53.9413
11
72.0881
21
-55.2013
0
LINE
8
BLACK
6
CONTINUOUS
10
72.0881
20
-55.2013
11
72.0676
21
-55.3046
0
LINE
8
BLACK
6
CONTINUOUS
10
72.0676
20
-55.3046
11
72.009
21
-55.3922
0
LINE
8
BLACK
6
CONTINUOUS
10
72.009
20
-55.3922
11
71.9214
21
-55.4507
0
LINE
8
BLACK
6
CONTINUOUS
10
71.9214
20
-55.4507
11
71.8181
21
-55.4713
0
LINE
8
BLACK
6
CONTINUOUS
10
71.8181
20
-55.4713
11
70.1581
21
-55.4713
0
LINE
8
BLACK
6
CONTINUOUS
10
70.1581
20
-55.4713
11
70.0548
21
-55.4507
0
LINE
8
BLACK
6
CONTINUOUS
10
70.0548
20
-55.4507
11
69.9672
21
-55.3922
0
LINE
8
BLACK
6
CONTINUOUS
10
69.9672
20
-55.3922
11
69.9087
21
-55.3046
0
LINE
8
BLACK
6
CONTINUOUS
10
69.9087
20
-55.3046
11
69.8881
21
-55.2013
0
LINE
8
BLACK
6
CONTINUOUS
10
69.8881
20
-55.2013
11
69.8881
21
-53.9413
0
LINE
8
BLACK
6
CONTINUOUS
10
69.8881
20
-53.9413
11
69.9087
21
-53.838
0
LINE
8
BLACK
6
CONTINUOUS
10
69.9087
20
-53.838
11
69.9672
21
-53.7504
0
LINE
8
BLACK
6
CONTINUOUS
10
69.9672
20
-53.7504
11
70.0548
21
-53.6919
0
LINE
8
BLACK
6
CONTINUOUS
10
70.0548
20
-53.6919
11
70.1581
21
-53.6713
0
LINE
8
BLACK
6
CONTINUOUS
10
70.1581
20
-53.6713
11
71.8181
21
-53.6713
0
LINE
8
BLACK
6
CONTINUOUS
10
71.8181
20
-53.6713
11
71.9214
21
-53.6919
0
LINE
8
BLACK
6
CONTINUOUS
10
57.4678
20
-54.5574
11
57.5793
21
-54.6142
0
LINE
8
BLACK
6
CONTINUOUS
10
57.5793
20
-54.6142
11
57.6678
21
-54.7027
0
LINE
8
BLACK
6
CONTINUOUS
10
57.6678
20
-54.7027
11
57.7246
21
-54.8142
0
LINE
8
BLACK
6
CONTINUOUS
10
57.7246
20
-54.8142
11
57.7442
21
-54.9378
0
LINE
8
BLACK
6
CONTINUOUS
10
57.7442
20
-54.9378
11
57.7246
21
-55.0614
0
LINE
8
BLACK
6
CONTINUOUS
10
57.7246
20
-55.0614
11
57.6678
21
-55.1729
0
LINE
8
BLACK
6
CONTINUOUS
10
57.6678
20
-55.1729
11
57.5793
21
-55.2614
0
LINE
8
BLACK
6
CONTINUOUS
10
57.5793
20
-55.2614
11
57.4678
21
-55.3182
0
LINE
8
BLACK
6
CONTINUOUS
10
57.4678
20
-55.3182
11
57.3442
21
-55.3378
0
LINE
8
BLACK
6
CONTINUOUS
10
57.3442
20
-55.3378
11
57.2206
21
-55.3182
0
LINE
8
BLACK
6
CONTINUOUS
10
57.2206
20
-55.3182
11
57.1091
21
-55.2614
0
LINE
8
BLACK
6
CONTINUOUS
10
57.1091
20
-55.2614
11
57.0206
21
-55.1729
0
LINE
8
BLACK
6
CONTINUOUS
10
57.0206
20
-55.1729
11
56.9638
21
-55.0614
0
LINE
8
BLACK
6
CONTINUOUS
10
56.9638
20
-55.0614
11
56.9442
21
-54.9378
0
LINE
8
BLACK
6
CONTINUOUS
10
56.9442
20
-54.9378
11
56.9638
21
-54.8142
0
LINE
8
BLACK
6
CONTINUOUS
10
56.9638
20
-54.8142
11
57.0206
21
-54.7027
0
LINE
8
BLACK
6
CONTINUOUS
10
57.0206
20
-54.7027
11
57.1091
21
-54.6142
0
LINE
8
BLACK
6
CONTINUOUS
10
57.1091
20
-54.6142
11
57.2206
21
-54.5574
0
LINE
8
BLACK
6
CONTINUOUS
10
57.2206
20
-54.5574
11
57.3442
21
-54.5378
0
LINE
8
BLACK
6
CONTINUOUS
10
57.3442
20
-54.5378
11
57.4678
21
-54.5574
0
LINE
8
BLACK
6
CONTINUOUS
10
51.4898
20
-49.9082
11
51.6013
21
-49.965
0
LINE
8
BLACK
6
CONTINUOUS
10
51.6013
20
-49.965
11
51.6898
21
-50.0535
0
LINE
8
BLACK
6
CONTINUOUS
10
51.6898
20
-50.0535
11
51.7466
21
-50.165
0
LINE
8
BLACK
6
CONTINUOUS
10
51.7466
20
-50.165
11
51.7662
21
-50.2886
0
LINE
8
BLACK
6
CONTINUOUS
10
51.7662
20
-50.2886
11
51.7466
21
-50.4122
0
LINE
8
BLACK
6
CONTINUOUS
10
51.7466
20
-50.4122
11
51.7196
21
-50.4652
0
LINE
8
BLACK
6
CONTINUOUS
10
51.7196
20
-50.4652
11
52.4448
21
-51.1904
0
LINE
8
BLACK
6
CONTINUOUS
10
52.4448
20
-51.1904
11
52.4582
21
-51.2083
0
LINE
8
BLACK
6
CONTINUOUS
10
52.4582
20
-51.2083
11
52.4616
21
-51.2112
0
LINE
8
BLACK
6
CONTINUOUS
10
52.4616
20
-51.2112
11
52.4623
21
-51.2138
0
LINE
8
BLACK
6
CONTINUOUS
10
52.4623
20
-51.2138
11
52.4661
21
-51.2189
0
LINE
8
BLACK
6
CONTINUOUS
10
52.4661
20
-51.2189
11
52.4727
21
-51.2491
0
LINE
8
BLACK
6
CONTINUOUS
10
52.4727
20
-51.2491
11
52.4814
21
-51.2788
0
LINE
8
BLACK
6
CONTINUOUS
10
52.4814
20
-51.2788
11
52.4814
21
-53.8234
0
LINE
8
BLACK
6
CONTINUOUS
10
52.4814
20
-53.8234
11
52.4782
21
-53.8455
0
LINE
8
BLACK
6
CONTINUOUS
10
52.4782
20
-53.8455
11
52.4786
21
-53.85
0
LINE
8
BLACK
6
CONTINUOUS
10
52.4786
20
-53.85
11
52.4773
21
-53.8524
0
LINE
8
BLACK
6
CONTINUOUS
10
52.4773
20
-53.8524
11
52.4764
21
-53.8586
0
LINE
8
BLACK
6
CONTINUOUS
10
52.4764
20
-53.8586
11
52.4596
21
-53.8846
0
LINE
8
BLACK
6
CONTINUOUS
10
52.4596
20
-53.8846
11
52.4448
21
-53.9118
0
LINE
8
BLACK
6
CONTINUOUS
10
52.4448
20
-53.9118
11
51.7148
21
-54.6418
0
LINE
8
BLACK
6
CONTINUOUS
10
51.7148
20
-54.6418
11
51.6969
21
-54.6551
0
LINE
8
BLACK
6
CONTINUOUS
10
51.6969
20
-54.6551
11
51.694
21
-54.6585
0
LINE
8
BLACK
6
CONTINUOUS
10
51.694
20
-54.6585
11
51.6914
21
-54.6593
0
LINE
8
BLACK
6
CONTINUOUS
10
51.6914
20
-54.6593
11
51.6863
21
-54.6631
0
LINE
8
BLACK
6
CONTINUOUS
10
51.6863
20
-54.6631
11
51.6561
21
-54.6697
0
LINE
8
BLACK
6
CONTINUOUS
10
51.6561
20
-54.6697
11
51.6264
21
-54.6784
0
LINE
8
BLACK
6
CONTINUOUS
10
51.6264
20
-54.6784
11
50.3392
21
-54.6784
0
LINE
8
BLACK
6
CONTINUOUS
10
50.3392
20
-54.6784
11
50.2252
21
-54.8051
0
LINE
8
BLACK
6
CONTINUOUS
10
50.2252
20
-54.8051
11
50.0814
21
-54.9095
0
LINE
8
BLACK
6
CONTINUOUS
10
50.0814
20
-54.9095
11
49.9191
21
-54.9818
0
LINE
8
BLACK
6
CONTINUOUS
10
49.9191
20
-54.9818
11
49.7453
21
-55.0187
0
LINE
8
BLACK
6
CONTINUOUS
10
49.7453
20
-55.0187
11
49.5676
21
-55.0187
0
LINE
8
BLACK
6
CONTINUOUS
10
49.5676
20
-55.0187
11
49.3938
21
-54.9818
0
LINE
8
BLACK
6
CONTINUOUS
10
49.3938
20
-54.9818
11
49.2314
21
-54.9095
0
LINE
8
BLACK
6
CONTINUOUS
10
49.2314
20
-54.9095
11
49.0877
21
-54.8051
0
LINE
8
BLACK
6
CONTINUOUS
10
49.0877
20
-54.8051
11
48.9688
21
-54.673
0
LINE
8
BLACK
6
CONTINUOUS
10
48.9688
20
-54.673
11
48.8799
21
-54.5191
0
LINE
8
BLACK
6
CONTINUOUS
10
48.8799
20
-54.5191
11
48.825
21
-54.3501
0
LINE
8
BLACK
6
CONTINUOUS
10
48.825
20
-54.3501
11
48.8064
21
-54.1734
0
LINE
8
BLACK
6
CONTINUOUS
10
48.8064
20
-54.1734
11
48.825
21
-53.9967
0
LINE
8
BLACK
6
CONTINUOUS
10
48.825
20
-53.9967
11
48.8799
21
-53.8277
0
LINE
8
BLACK
6
CONTINUOUS
10
48.8799
20
-53.8277
11
48.9688
21
-53.6738
0
LINE
8
BLACK
6
CONTINUOUS
10
48.9688
20
-53.6738
11
49.0877
21
-53.5417
0
LINE
8
BLACK
6
CONTINUOUS
10
49.0877
20
-53.5417
11
49.2314
21
-53.4373
0
LINE
8
BLACK
6
CONTINUOUS
10
49.2314
20
-53.4373
11
49.3938
21
-53.365
0
LINE
8
BLACK
6
CONTINUOUS
10
49.3938
20
-53.365
11
49.5676
21
-53.328
0
LINE
8
BLACK
6
CONTINUOUS
10
49.5676
20
-53.328
11
49.7453
21
-53.328
0
LINE
8
BLACK
6
CONTINUOUS
10
49.7453
20
-53.328
11
49.9191
21
-53.365
0
LINE
8
BLACK
6
CONTINUOUS
10
49.9191
20
-53.365
11
50.0814
21
-53.4373
0
LINE
8
BLACK
6
CONTINUOUS
10
50.0814
20
-53.4373
11
50.2252
21
-53.5417
0
LINE
8
BLACK
6
CONTINUOUS
10
50.2252
20
-53.5417
11
50.3441
21
-53.6738
0
LINE
8
BLACK
6
CONTINUOUS
10
50.3441
20
-53.6738
11
50.4329
21
-53.8277
0
LINE
8
BLACK
6
CONTINUOUS
10
50.4329
20
-53.8277
11
50.4878
21
-53.9967
0
LINE
8
BLACK
6
CONTINUOUS
10
50.4878
20
-53.9967
11
50.5064
21
-54.1734
0
LINE
8
BLACK
6
CONTINUOUS
10
50.5064
20
-54.1734
11
50.4878
21
-54.3501
0
LINE
8
BLACK
6
CONTINUOUS
10
50.4878
20
-54.3501
11
50.4624
21
-54.4284
0
LINE
8
BLACK
6
CONTINUOUS
10
50.4624
20
-54.4284
11
51.5746
21
-54.4284
0
LINE
8
BLACK
6
CONTINUOUS
10
51.5746
20
-54.4284
11
52.2314
21
-53.7716
0
LINE
8
BLACK
6
CONTINUOUS
10
52.2314
20
-53.7716
11
52.2314
21
-51.3306
0
LINE
8
BLACK
6
CONTINUOUS
10
52.2314
20
-51.3306
11
51.5428
21
-50.642
0
LINE
8
BLACK
6
CONTINUOUS
10
51.5428
20
-50.642
11
51.4898
21
-50.669
0
LINE
8
BLACK
6
CONTINUOUS
10
51.4898
20
-50.669
11
51.3662
21
-50.6886
0
LINE
8
BLACK
6
CONTINUOUS
10
51.3662
20
-50.6886
11
51.2426
21
-50.669
0
LINE
8
BLACK
6
CONTINUOUS
10
51.2426
20
-50.669
11
51.1311
21
-50.6122
0
LINE
8
BLACK
6
CONTINUOUS
10
51.1311
20
-50.6122
11
51.0426
21
-50.5237
0
LINE
8
BLACK
6
CONTINUOUS
10
51.0426
20
-50.5237
11
50.9858
21
-50.4122
0
LINE
8
BLACK
6
CONTINUOUS
10
50.9858
20
-50.4122
11
50.9662
21
-50.2886
0
LINE
8
BLACK
6
CONTINUOUS
10
50.9662
20
-50.2886
11
50.9858
21
-50.165
0
LINE
8
BLACK
6
CONTINUOUS
10
50.9858
20
-50.165
11
51.0426
21
-50.0535
0
LINE
8
BLACK
6
CONTINUOUS
10
51.0426
20
-50.0535
11
51.1311
21
-49.965
0
LINE
8
BLACK
6
CONTINUOUS
10
51.1311
20
-49.965
11
51.2426
21
-49.9082
0
LINE
8
BLACK
6
CONTINUOUS
10
51.2426
20
-49.9082
11
51.3662
21
-49.8886
0
LINE
8
BLACK
6
CONTINUOUS
10
51.3662
20
-49.8886
11
51.4898
21
-49.9082
0
LINE
8
BLACK
6
CONTINUOUS
10
63.5949
20
-53.4022
11
63.7064
21
-53.459
0
LINE
8
BLACK
6
CONTINUOUS
10
63.7064
20
-53.459
11
63.7949
21
-53.5475
0
LINE
8
BLACK
6
CONTINUOUS
10
63.7949
20
-53.5475
11
63.8517
21
-53.659
0
LINE
8
BLACK
6
CONTINUOUS
10
63.8517
20
-53.659
11
63.8713
21
-53.7826
0
LINE
8
BLACK
6
CONTINUOUS
10
63.8713
20
-53.7826
11
63.8517
21
-53.9062
0
LINE
8
BLACK
6
CONTINUOUS
10
63.8517
20
-53.9062
11
63.7949
21
-54.0177
0
LINE
8
BLACK
6
CONTINUOUS
10
63.7949
20
-54.0177
11
63.7064
21
-54.1062
0
LINE
8
BLACK
6
CONTINUOUS
10
63.7064
20
-54.1062
11
63.5949
21
-54.163
0
LINE
8
BLACK
6
CONTINUOUS
10
63.5949
20
-54.163
11
63.4713
21
-54.1826
0
LINE
8
BLACK
6
CONTINUOUS
10
63.4713
20
-54.1826
11
63.3477
21
-54.163
0
LINE
8
BLACK
6
CONTINUOUS
10
63.3477
20
-54.163
11
63.2362
21
-54.1062
0
LINE
8
BLACK
6
CONTINUOUS
10
63.2362
20
-54.1062
11
63.1477
21
-54.0177
0
LINE
8
BLACK
6
CONTINUOUS
10
63.1477
20
-54.0177
11
63.0909
21
-53.9062
0
LINE
8
BLACK
6
CONTINUOUS
10
63.0909
20
-53.9062
11
63.0713
21
-53.7826
0
LINE
8
BLACK
6
CONTINUOUS
10
63.0713
20
-53.7826
11
63.0909
21
-53.659
0
LINE
8
BLACK
6
CONTINUOUS
10
63.0909
20
-53.659
11
63.1477
21
-53.5475
0
LINE
8
BLACK
6
CONTINUOUS
10
63.1477
20
-53.5475
11
63.2362
21
-53.459
0
LINE
8
BLACK
6
CONTINUOUS
10
63.2362
20
-53.459
11
63.3477
21
-53.4022
0
LINE
8
BLACK
6
CONTINUOUS
10
63.3477
20
-53.4022
11
63.4713
21
-53.3826
0
LINE
8
BLACK
6
CONTINUOUS
10
63.4713
20
-53.3826
11
63.5949
21
-53.4022
0
LINE
8
BLACK
6
CONTINUOUS
10
57.4678
20
-53.4004
11
57.5793
21
-53.4572
0
LINE
8
BLACK
6
CONTINUOUS
10
57.5793
20
-53.4572
11
57.6678
21
-53.5457
0
LINE
8
BLACK
6
CONTINUOUS
10
57.6678
20
-53.5457
11
57.7246
21
-53.6572
0
LINE
8
BLACK
6
CONTINUOUS
10
57.7246
20
-53.6572
11
57.7442
21
-53.7808
0
LINE
8
BLACK
6
CONTINUOUS
10
57.7442
20
-53.7808
11
57.7246
21
-53.9044
0
LINE
8
BLACK
6
CONTINUOUS
10
57.7246
20
-53.9044
11
57.6678
21
-54.0159
0
LINE
8
BLACK
6
CONTINUOUS
10
57.6678
20
-54.0159
11
57.5793
21
-54.1044
0
LINE
8
BLACK
6
CONTINUOUS
10
57.5793
20
-54.1044
11
57.4678
21
-54.1612
0
LINE
8
BLACK
6
CONTINUOUS
10
57.4678
20
-54.1612
11
57.3442
21
-54.1808
0
LINE
8
BLACK
6
CONTINUOUS
10
57.3442
20
-54.1808
11
57.2206
21
-54.1612
0
LINE
8
BLACK
6
CONTINUOUS
10
57.2206
20
-54.1612
11
57.1091
21
-54.1044
0
LINE
8
BLACK
6
CONTINUOUS
10
57.1091
20
-54.1044
11
57.0206
21
-54.0159
0
LINE
8
BLACK
6
CONTINUOUS
10
57.0206
20
-54.0159
11
56.9638
21
-53.9044
0
LINE
8
BLACK
6
CONTINUOUS
10
56.9638
20
-53.9044
11
56.9442
21
-53.7808
0
LINE
8
BLACK
6
CONTINUOUS
10
56.9442
20
-53.7808
11
56.9638
21
-53.6572
0
LINE
8
BLACK
6
CONTINUOUS
10
56.9638
20
-53.6572
11
57.0206
21
-53.5457
0
LINE
8
BLACK
6
CONTINUOUS
10
57.0206
20
-53.5457
11
57.1091
21
-53.4572
0
LINE
8
BLACK
6
CONTINUOUS
10
57.1091
20
-53.4572
11
57.2206
21
-53.4004
0
LINE
8
BLACK
6
CONTINUOUS
10
57.2206
20
-53.4004
11
57.3442
21
-53.3808
0
LINE
8
BLACK
6
CONTINUOUS
10
57.3442
20
-53.3808
11
57.4678
21
-53.4004
0
LINE
8
BLACK
6
CONTINUOUS
10
51.24
20
-52.558
11
51.3515
21
-52.6148
0
LINE
8
BLACK
6
CONTINUOUS
10
51.3515
20
-52.6148
11
51.44
21
-52.7033
0
LINE
8
BLACK
6
CONTINUOUS
10
51.44
20
-52.7033
11
51.4968
21
-52.8148
0
LINE
8
BLACK
6
CONTINUOUS
10
51.4968
20
-52.8148
11
51.5164
21
-52.9384
0
LINE
8
BLACK
6
CONTINUOUS
10
51.5164
20
-52.9384
11
51.4968
21
-53.062
0
LINE
8
BLACK
6
CONTINUOUS
10
51.4968
20
-53.062
11
51.44
21
-53.1735
0
LINE
8
BLACK
6
CONTINUOUS
10
51.44
20
-53.1735
11
51.3515
21
-53.262
0
LINE
8
BLACK
6
CONTINUOUS
10
51.3515
20
-53.262
11
51.24
21
-53.3188
0
LINE
8
BLACK
6
CONTINUOUS
10
51.24
20
-53.3188
11
51.1164
21
-53.3384
0
LINE
8
BLACK
6
CONTINUOUS
10
51.1164
20
-53.3384
11
50.9928
21
-53.3188
0
LINE
8
BLACK
6
CONTINUOUS
10
50.9928
20
-53.3188
11
50.8813
21
-53.262
0
LINE
8
BLACK
6
CONTINUOUS
10
50.8813
20
-53.262
11
50.7928
21
-53.1735
0
LINE
8
BLACK
6
CONTINUOUS
10
50.7928
20
-53.1735
11
50.736
21
-53.062
0
LINE
8
BLACK
6
CONTINUOUS
10
50.736
20
-53.062
11
50.7164
21
-52.9384
0
LINE
8
BLACK
6
CONTINUOUS
10
50.7164
20
-52.9384
11
50.736
21
-52.8148
0
LINE
8
BLACK
6
CONTINUOUS
10
50.736
20
-52.8148
11
50.7928
21
-52.7033
0
LINE
8
BLACK
6
CONTINUOUS
10
50.7928
20
-52.7033
11
50.8813
21
-52.6148
0
LINE
8
BLACK
6
CONTINUOUS
10
50.8813
20
-52.6148
11
50.9928
21
-52.558
0
LINE
8
BLACK
6
CONTINUOUS
10
50.9928
20
-52.558
11
51.1164
21
-52.5384
0
LINE
8
BLACK
6
CONTINUOUS
10
51.1164
20
-52.5384
11
51.24
21
-52.558
0
LINE
8
BLACK
6
CONTINUOUS
10
69.4065
20
-51.1519
11
69.4941
21
-51.2104
0
LINE
8
BLACK
6
CONTINUOUS
10
69.4941
20
-51.2104
11
69.5526
21
-51.298
0
LINE
8
BLACK
6
CONTINUOUS
10
69.5526
20
-51.298
11
69.5732
21
-51.4013
0
LINE
8
BLACK
6
CONTINUOUS
10
69.5732
20
-51.4013
11
69.5732
21
-52.6613
0
LINE
8
BLACK
6
CONTINUOUS
10
69.5732
20
-52.6613
11
69.5526
21
-52.7646
0
LINE
8
BLACK
6
CONTINUOUS
10
69.5526
20
-52.7646
11
69.4941
21
-52.8522
0
LINE
8
BLACK
6
CONTINUOUS
10
69.4941
20
-52.8522
11
69.4065
21
-52.9107
0
LINE
8
BLACK
6
CONTINUOUS
10
69.4065
20
-52.9107
11
69.3032
21
-52.9313
0
LINE
8
BLACK
6
CONTINUOUS
10
69.3032
20
-52.9313
11
67.6432
21
-52.9313
0
LINE
8
BLACK
6
CONTINUOUS
10
67.6432
20
-52.9313
11
67.5398
21
-52.9107
0
LINE
8
BLACK
6
CONTINUOUS
10
67.5398
20
-52.9107
11
67.4522
21
-52.8522
0
LINE
8
BLACK
6
CONTINUOUS
10
67.4522
20
-52.8522
11
67.3937
21
-52.7646
0
LINE
8
BLACK
6
CONTINUOUS
10
67.3937
20
-52.7646
11
67.3732
21
-52.6613
0
LINE
8
BLACK
6
CONTINUOUS
10
67.3732
20
-52.6613
11
67.3732
21
-51.4013
0
LINE
8
BLACK
6
CONTINUOUS
10
67.3732
20
-51.4013
11
67.3937
21
-51.298
0
LINE
8
BLACK
6
CONTINUOUS
10
67.3937
20
-51.298
11
67.4522
21
-51.2104
0
LINE
8
BLACK
6
CONTINUOUS
10
67.4522
20
-51.2104
11
67.5398
21
-51.1519
0
LINE
8
BLACK
6
CONTINUOUS
10
67.5398
20
-51.1519
11
67.6432
21
-51.1313
0
LINE
8
BLACK
6
CONTINUOUS
10
67.6432
20
-51.1313
11
69.3032
21
-51.1313
0
LINE
8
BLACK
6
CONTINUOUS
10
69.3032
20
-51.1313
11
69.4065
21
-51.1519
0
LINE
8
BLACK
6
CONTINUOUS
10
71.9214
20
-51.1519
11
72.009
21
-51.2104
0
LINE
8
BLACK
6
CONTINUOUS
10
72.009
20
-51.2104
11
72.0676
21
-51.298
0
LINE
8
BLACK
6
CONTINUOUS
10
72.0676
20
-51.298
11
72.0881
21
-51.4013
0
LINE
8
BLACK
6
CONTINUOUS
10
72.0881
20
-51.4013
11
72.0881
21
-52.6613
0
LINE
8
BLACK
6
CONTINUOUS
10
72.0881
20
-52.6613
11
72.0676
21
-52.7646
0
LINE
8
BLACK
6
CONTINUOUS
10
72.0676
20
-52.7646
11
72.009
21
-52.8522
0
LINE
8
BLACK
6
CONTINUOUS
10
72.009
20
-52.8522
11
71.9214
21
-52.9107
0
LINE
8
BLACK
6
CONTINUOUS
10
71.9214
20
-52.9107
11
71.8181
21
-52.9313
0
LINE
8
BLACK
6
CONTINUOUS
10
71.8181
20
-52.9313
11
70.1581
21
-52.9313
0
LINE
8
BLACK
6
CONTINUOUS
10
70.1581
20
-52.9313
11
70.0548
21
-52.9107
0
LINE
8
BLACK
6
CONTINUOUS
10
70.0548
20
-52.9107
11
69.9672
21
-52.8522
0
LINE
8
BLACK
6
CONTINUOUS
10
69.9672
20
-52.8522
11
69.9087
21
-52.7646
0
LINE
8
BLACK
6
CONTINUOUS
10
69.9087
20
-52.7646
11
69.8881
21
-52.6613
0
LINE
8
BLACK
6
CONTINUOUS
10
69.8881
20
-52.6613
11
69.8881
21
-51.4013
0
LINE
8
BLACK
6
CONTINUOUS
10
69.8881
20
-51.4013
11
69.9087
21
-51.298
0
LINE
8
BLACK
6
CONTINUOUS
10
69.9087
20
-51.298
11
69.9672
21
-51.2104
0
LINE
8
BLACK
6
CONTINUOUS
10
69.9672
20
-51.2104
11
70.0548
21
-51.1519
0
LINE
8
BLACK
6
CONTINUOUS
10
70.0548
20
-51.1519
11
70.1581
21
-51.1313
0
LINE
8
BLACK
6
CONTINUOUS
10
70.1581
20
-51.1313
11
71.8181
21
-51.1313
0
LINE
8
BLACK
6
CONTINUOUS
10
71.8181
20
-51.1313
11
71.9214
21
-51.1519
0
LINE
8
BLACK
6
CONTINUOUS
10
49.9191
20
-50.825
11
50.0814
21
-50.8973
0
LINE
8
BLACK
6
CONTINUOUS
10
50.0814
20
-50.8973
11
50.2252
21
-51.0017
0
LINE
8
BLACK
6
CONTINUOUS
10
50.2252
20
-51.0017
11
50.3441
21
-51.1338
0
LINE
8
BLACK
6
CONTINUOUS
10
50.3441
20
-51.1338
11
50.4329
21
-51.2877
0
LINE
8
BLACK
6
CONTINUOUS
10
50.4329
20
-51.2877
11
50.4878
21
-51.4567
0
LINE
8
BLACK
6
CONTINUOUS
10
50.4878
20
-51.4567
11
50.5064
21
-51.6334
0
LINE
8
BLACK
6
CONTINUOUS
10
50.5064
20
-51.6334
11
50.4878
21
-51.8101
0
LINE
8
BLACK
6
CONTINUOUS
10
50.4878
20
-51.8101
11
50.4329
21
-51.9791
0
LINE
8
BLACK
6
CONTINUOUS
10
50.4329
20
-51.9791
11
50.3441
21
-52.133
0
LINE
8
BLACK
6
CONTINUOUS
10
50.3441
20
-52.133
11
50.2252
21
-52.2651
0
LINE
8
BLACK
6
CONTINUOUS
10
50.2252
20
-52.2651
11
50.0814
21
-52.3695
0
LINE
8
BLACK
6
CONTINUOUS
10
50.0814
20
-52.3695
11
49.9191
21
-52.4418
0
LINE
8
BLACK
6
CONTINUOUS
10
49.9191
20
-52.4418
11
49.7453
21
-52.4787
0
LINE
8
BLACK
6
CONTINUOUS
10
49.7453
20
-52.4787
11
49.5676
21
-52.4787
0
LINE
8
BLACK
6
CONTINUOUS
10
49.5676
20
-52.4787
11
49.3938
21
-52.4418
0
LINE
8
BLACK
6
CONTINUOUS
10
49.3938
20
-52.4418
11
49.2314
21
-52.3695
0
LINE
8
BLACK
6
CONTINUOUS
10
49.2314
20
-52.3695
11
49.0877
21
-52.2651
0
LINE
8
BLACK
6
CONTINUOUS
10
49.0877
20
-52.2651
11
48.9688
21
-52.133
0
LINE
8
BLACK
6
CONTINUOUS
10
48.9688
20
-52.133
11
48.8799
21
-51.9791
0
LINE
8
BLACK
6
CONTINUOUS
10
48.8799
20
-51.9791
11
48.825
21
-51.8101
0
LINE
8
BLACK
6
CONTINUOUS
10
48.825
20
-51.8101
11
48.8064
21
-51.6334
0
LINE
8
BLACK
6
CONTINUOUS
10
48.8064
20
-51.6334
11
48.825
21
-51.4567
0
LINE
8
BLACK
6
CONTINUOUS
10
48.825
20
-51.4567
11
48.8799
21
-51.2877
0
LINE
8
BLACK
6
CONTINUOUS
10
48.8799
20
-51.2877
11
48.9688
21
-51.1338
0
LINE
8
BLACK
6
CONTINUOUS
10
48.9688
20
-51.1338
11
49.0877
21
-51.0017
0
LINE
8
BLACK
6
CONTINUOUS
10
49.0877
20
-51.0017
11
49.2314
21
-50.8973
0
LINE
8
BLACK
6
CONTINUOUS
10
49.2314
20
-50.8973
11
49.3938
21
-50.825
0
LINE
8
BLACK
6
CONTINUOUS
10
49.3938
20
-50.825
11
49.5676
21
-50.788
0
LINE
8
BLACK
6
CONTINUOUS
10
49.5676
20
-50.788
11
49.7453
21
-50.788
0
LINE
8
BLACK
6
CONTINUOUS
10
49.7453
20
-50.788
11
49.9191
21
-50.825
0
LINE
8
BLACK
6
CONTINUOUS
10
55.0274
20
-49.4093
11
55.1389
21
-49.4661
0
LINE
8
BLACK
6
CONTINUOUS
10
55.1389
20
-49.4661
11
55.2274
21
-49.5546
0
LINE
8
BLACK
6
CONTINUOUS
10
55.2274
20
-49.5546
11
55.2842
21
-49.6661
0
LINE
8
BLACK
6
CONTINUOUS
10
55.2842
20
-49.6661
11
55.3038
21
-49.7897
0
LINE
8
BLACK
6
CONTINUOUS
10
55.3038
20
-49.7897
11
55.2842
21
-49.9133
0
LINE
8
BLACK
6
CONTINUOUS
10
55.2842
20
-49.9133
11
55.2274
21
-50.0248
0
LINE
8
BLACK
6
CONTINUOUS
10
55.2274
20
-50.0248
11
55.1389
21
-50.1133
0
LINE
8
BLACK
6
CONTINUOUS
10
55.1389
20
-50.1133
11
55.0274
21
-50.1701
0
LINE
8
BLACK
6
CONTINUOUS
10
55.0274
20
-50.1701
11
54.9038
21
-50.1897
0
LINE
8
BLACK
6
CONTINUOUS
10
54.9038
20
-50.1897
11
54.7802
21
-50.1701
0
LINE
8
BLACK
6
CONTINUOUS
10
54.7802
20
-50.1701
11
54.6687
21
-50.1133
0
LINE
8
BLACK
6
CONTINUOUS
10
54.6687
20
-50.1133
11
54.5802
21
-50.0248
0
LINE
8
BLACK
6
CONTINUOUS
10
54.5802
20
-50.0248
11
54.5234
21
-49.9133
0
LINE
8
BLACK
6
CONTINUOUS
10
54.5234
20
-49.9133
11
54.5038
21
-49.7897
0
LINE
8
BLACK
6
CONTINUOUS
10
54.5038
20
-49.7897
11
54.5234
21
-49.6661
0
LINE
8
BLACK
6
CONTINUOUS
10
54.5234
20
-49.6661
11
54.5802
21
-49.5546
0
LINE
8
BLACK
6
CONTINUOUS
10
54.5802
20
-49.5546
11
54.6687
21
-49.4661
0
LINE
8
BLACK
6
CONTINUOUS
10
54.6687
20
-49.4661
11
54.7802
21
-49.4093
0
LINE
8
BLACK
6
CONTINUOUS
10
54.7802
20
-49.4093
11
54.9038
21
-49.3897
0
LINE
8
BLACK
6
CONTINUOUS
10
54.9038
20
-49.3897
11
55.0274
21
-49.4093
0
LINE
8
BLACK
6
CONTINUOUS
10
61.9557
20
-48.5559
11
62.0672
21
-48.6127
0
LINE
8
BLACK
6
CONTINUOUS
10
62.0672
20
-48.6127
11
62.1557
21
-48.7012
0
LINE
8
BLACK
6
CONTINUOUS
10
62.1557
20
-48.7012
11
62.2125
21
-48.8127
0
LINE
8
BLACK
6
CONTINUOUS
10
62.2125
20
-48.8127
11
62.2321
21
-48.9363
0
LINE
8
BLACK
6
CONTINUOUS
10
62.2321
20
-48.9363
11
62.2125
21
-49.0599
0
LINE
8
BLACK
6
CONTINUOUS
10
62.2125
20
-49.0599
11
62.1557
21
-49.1714
0
LINE
8
BLACK
6
CONTINUOUS
10
62.1557
20
-49.1714
11
62.0672
21
-49.2599
0
LINE
8
BLACK
6
CONTINUOUS
10
62.0672
20
-49.2599
11
61.9557
21
-49.3167
0
LINE
8
BLACK
6
CONTINUOUS
10
61.9557
20
-49.3167
11
61.8321
21
-49.3363
0
LINE
8
BLACK
6
CONTINUOUS
10
61.8321
20
-49.3363
11
61.7085
21
-49.3167
0
LINE
8
BLACK
6
CONTINUOUS
10
61.7085
20
-49.3167
11
61.597
21
-49.2599
0
LINE
8
BLACK
6
CONTINUOUS
10
61.597
20
-49.2599
11
61.5085
21
-49.1714
0
LINE
8
BLACK
6
CONTINUOUS
10
61.5085
20
-49.1714
11
61.4517
21
-49.0599
0
LINE
8
BLACK
6
CONTINUOUS
10
61.4517
20
-49.0599
11
61.4321
21
-48.9363
0
LINE
8
BLACK
6
CONTINUOUS
10
61.4321
20
-48.9363
11
61.4517
21
-48.8127
0
LINE
8
BLACK
6
CONTINUOUS
10
61.4517
20
-48.8127
11
61.5085
21
-48.7012
0
LINE
8
BLACK
6
CONTINUOUS
10
61.5085
20
-48.7012
11
61.597
21
-48.6127
0
LINE
8
BLACK
6
CONTINUOUS
10
61.597
20
-48.6127
11
61.7085
21
-48.5559
0
LINE
8
BLACK
6
CONTINUOUS
10
61.7085
20
-48.5559
11
61.8321
21
-48.5363
0
LINE
8
BLACK
6
CONTINUOUS
10
61.8321
20
-48.5363
11
61.9557
21
-48.5559
0
LINE
8
BLACK
6
CONTINUOUS
10
53.0616
20
-48.4745
11
53.1731
21
-48.5313
0
LINE
8
BLACK
6
CONTINUOUS
10
53.1731
20
-48.5313
11
53.2616
21
-48.6198
0
LINE
8
BLACK
6
CONTINUOUS
10
53.2616
20
-48.6198
11
53.3184
21
-48.7313
0
LINE
8
BLACK
6
CONTINUOUS
10
53.3184
20
-48.7313
11
53.338
21
-48.8549
0
LINE
8
BLACK
6
CONTINUOUS
10
53.338
20
-48.8549
11
53.3184
21
-48.9785
0
LINE
8
BLACK
6
CONTINUOUS
10
53.3184
20
-48.9785
11
53.2616
21
-49.09
0
LINE
8
BLACK
6
CONTINUOUS
10
53.2616
20
-49.09
11
53.1731
21
-49.1785
0
LINE
8
BLACK
6
CONTINUOUS
10
53.1731
20
-49.1785
11
53.0616
21
-49.2353
0
LINE
8
BLACK
6
CONTINUOUS
10
53.0616
20
-49.2353
11
52.938
21
-49.2549
0
LINE
8
BLACK
6
CONTINUOUS
10
52.938
20
-49.2549
11
52.8144
21
-49.2353
0
LINE
8
BLACK
6
CONTINUOUS
10
52.8144
20
-49.2353
11
52.7029
21
-49.1785
0
LINE
8
BLACK
6
CONTINUOUS
10
52.7029
20
-49.1785
11
52.6144
21
-49.09
0
LINE
8
BLACK
6
CONTINUOUS
10
52.6144
20
-49.09
11
52.5576
21
-48.9785
0
LINE
8
BLACK
6
CONTINUOUS
10
52.5576
20
-48.9785
11
52.538
21
-48.8549
0
LINE
8
BLACK
6
CONTINUOUS
10
52.538
20
-48.8549
11
52.5576
21
-48.7313
0
LINE
8
BLACK
6
CONTINUOUS
10
52.5576
20
-48.7313
11
52.6144
21
-48.6198
0
LINE
8
BLACK
6
CONTINUOUS
10
52.6144
20
-48.6198
11
52.7029
21
-48.5313
0
LINE
8
BLACK
6
CONTINUOUS
10
52.7029
20
-48.5313
11
52.8144
21
-48.4745
0
LINE
8
BLACK
6
CONTINUOUS
10
52.8144
20
-48.4745
11
52.938
21
-48.4549
0
LINE
8
BLACK
6
CONTINUOUS
10
52.938
20
-48.4549
11
53.0616
21
-48.4745
0
LINE
8
BLACK
6
CONTINUOUS
10
65.6086
20
-48.3308
11
65.7201
21
-48.3876
0
LINE
8
BLACK
6
CONTINUOUS
10
65.7201
20
-48.3876
11
65.8086
21
-48.4761
0
LINE
8
BLACK
6
CONTINUOUS
10
65.8086
20
-48.4761
11
65.8654
21
-48.5876
0
LINE
8
BLACK
6
CONTINUOUS
10
65.8654
20
-48.5876
11
65.885
21
-48.7112
0
LINE
8
BLACK
6
CONTINUOUS
10
65.885
20
-48.7112
11
65.8654
21
-48.8348
0
LINE
8
BLACK
6
CONTINUOUS
10
65.8654
20
-48.8348
11
65.8086
21
-48.9463
0
LINE
8
BLACK
6
CONTINUOUS
10
65.8086
20
-48.9463
11
65.7201
21
-49.0348
0
LINE
8
BLACK
6
CONTINUOUS
10
65.7201
20
-49.0348
11
65.6086
21
-49.0916
0
LINE
8
BLACK
6
CONTINUOUS
10
65.6086
20
-49.0916
11
65.485
21
-49.1112
0
LINE
8
BLACK
6
CONTINUOUS
10
65.485
20
-49.1112
11
65.3614
21
-49.0916
0
LINE
8
BLACK
6
CONTINUOUS
10
65.3614
20
-49.0916
11
65.2499
21
-49.0348
0
LINE
8
BLACK
6
CONTINUOUS
10
65.2499
20
-49.0348
11
65.1614
21
-48.9463
0
LINE
8
BLACK
6
CONTINUOUS
10
65.1614
20
-48.9463
11
65.1046
21
-48.8348
0
LINE
8
BLACK
6
CONTINUOUS
10
65.1046
20
-48.8348
11
65.085
21
-48.7112
0
LINE
8
BLACK
6
CONTINUOUS
10
65.085
20
-48.7112
11
65.1046
21
-48.5876
0
LINE
8
BLACK
6
CONTINUOUS
10
65.1046
20
-48.5876
11
65.1614
21
-48.4761
0
LINE
8
BLACK
6
CONTINUOUS
10
65.1614
20
-48.4761
11
65.2499
21
-48.3876
0
LINE
8
BLACK
6
CONTINUOUS
10
65.2499
20
-48.3876
11
65.3614
21
-48.3308
0
LINE
8
BLACK
6
CONTINUOUS
10
65.3614
20
-48.3308
11
65.485
21
-48.3112
0
LINE
8
BLACK
6
CONTINUOUS
10
65.485
20
-48.3112
11
65.6086
21
-48.3308
0
LINE
8
BLACK
6
CONTINUOUS
10
69.3011
20
-47.7219
11
69.4126
21
-47.7787
0
LINE
8
BLACK
6
CONTINUOUS
10
69.4126
20
-47.7787
11
69.5011
21
-47.8672
0
LINE
8
BLACK
6
CONTINUOUS
10
69.5011
20
-47.8672
11
69.5579
21
-47.9787
0
LINE
8
BLACK
6
CONTINUOUS
10
69.5579
20
-47.9787
11
69.5775
21
-48.1023
0
LINE
8
BLACK
6
CONTINUOUS
10
69.5775
20
-48.1023
11
69.5579
21
-48.2259
0
LINE
8
BLACK
6
CONTINUOUS
10
69.5579
20
-48.2259
11
69.5011
21
-48.3374
0
LINE
8
BLACK
6
CONTINUOUS
10
69.5011
20
-48.3374
11
69.4126
21
-48.4259
0
LINE
8
BLACK
6
CONTINUOUS
10
69.4126
20
-48.4259
11
69.3011
21
-48.4828
0
LINE
8
BLACK
6
CONTINUOUS
10
69.3011
20
-48.4828
11
69.1775
21
-48.5023
0
LINE
8
BLACK
6
CONTINUOUS
10
69.1775
20
-48.5023
11
69.0539
21
-48.4828
0
LINE
8
BLACK
6
CONTINUOUS
10
69.0539
20
-48.4828
11
68.9424
21
-48.4259
0
LINE
8
BLACK
6
CONTINUOUS
10
68.9424
20
-48.4259
11
68.8539
21
-48.3374
0
LINE
8
BLACK
6
CONTINUOUS
10
68.8539
20
-48.3374
11
68.797
21
-48.2259
0
LINE
8
BLACK
6
CONTINUOUS
10
68.797
20
-48.2259
11
68.7775
21
-48.1023
0
LINE
8
BLACK
6
CONTINUOUS
10
68.7775
20
-48.1023
11
68.797
21
-47.9787
0
LINE
8
BLACK
6
CONTINUOUS
10
68.797
20
-47.9787
11
68.8539
21
-47.8672
0
LINE
8
BLACK
6
CONTINUOUS
10
68.8539
20
-47.8672
11
68.9424
21
-47.7787
0
LINE
8
BLACK
6
CONTINUOUS
10
68.9424
20
-47.7787
11
69.0539
21
-47.7219
0
LINE
8
BLACK
6
CONTINUOUS
10
69.0539
20
-47.7219
11
69.1775
21
-47.7023
0
LINE
8
BLACK
6
CONTINUOUS
10
69.1775
20
-47.7023
11
69.3011
21
-47.7219
0
LINE
8
BLACK
6
CONTINUOUS
10
49.9191
20
-45.745
11
50.0814
21
-45.8173
0
LINE
8
BLACK
6
CONTINUOUS
10
50.0814
20
-45.8173
11
50.2252
21
-45.9217
0
LINE
8
BLACK
6
CONTINUOUS
10
50.2252
20
-45.9217
11
50.3441
21
-46.0538
0
LINE
8
BLACK
6
CONTINUOUS
10
50.3441
20
-46.0538
11
50.4329
21
-46.2077
0
LINE
8
BLACK
6
CONTINUOUS
10
50.4329
20
-46.2077
11
50.4878
21
-46.3767
0
LINE
8
BLACK
6
CONTINUOUS
10
50.4878
20
-46.3767
11
50.5064
21
-46.5534
0
LINE
8
BLACK
6
CONTINUOUS
10
50.5064
20
-46.5534
11
50.4878
21
-46.7301
0
LINE
8
BLACK
6
CONTINUOUS
10
50.4878
20
-46.7301
11
50.4329
21
-46.8991
0
LINE
8
BLACK
6
CONTINUOUS
10
50.4329
20
-46.8991
11
50.3441
21
-47.053
0
LINE
8
BLACK
6
CONTINUOUS
10
50.3441
20
-47.053
11
50.2252
21
-47.1851
0
LINE
8
BLACK
6
CONTINUOUS
10
50.2252
20
-47.1851
11
50.0814
21
-47.2895
0
LINE
8
BLACK
6
CONTINUOUS
10
50.0814
20
-47.2895
11
49.9191
21
-47.3618
0
LINE
8
BLACK
6
CONTINUOUS
10
49.9191
20
-47.3618
11
49.7453
21
-47.3987
0
LINE
8
BLACK
6
CONTINUOUS
10
49.7453
20
-47.3987
11
49.5676
21
-47.3987
0
LINE
8
BLACK
6
CONTINUOUS
10
49.5676
20
-47.3987
11
49.3938
21
-47.3618
0
LINE
8
BLACK
6
CONTINUOUS
10
49.3938
20
-47.3618
11
49.2314
21
-47.2895
0
LINE
8
BLACK
6
CONTINUOUS
10
49.2314
20
-47.2895
11
49.0877
21
-47.1851
0
LINE
8
BLACK
6
CONTINUOUS
10
49.0877
20
-47.1851
11
48.9688
21
-47.053
0
LINE
8
BLACK
6
CONTINUOUS
10
48.9688
20
-47.053
11
48.8799
21
-46.8991
0
LINE
8
BLACK
6
CONTINUOUS
10
48.8799
20
-46.8991
11
48.825
21
-46.7301
0
LINE
8
BLACK
6
CONTINUOUS
10
48.825
20
-46.7301
11
48.8064
21
-46.5534
0
LINE
8
BLACK
6
CONTINUOUS
10
48.8064
20
-46.5534
11
48.825
21
-46.3767
0
LINE
8
BLACK
6
CONTINUOUS
10
48.825
20
-46.3767
11
48.8799
21
-46.2077
0
LINE
8
BLACK
6
CONTINUOUS
10
48.8799
20
-46.2077
11
48.9688
21
-46.0538
0
LINE
8
BLACK
6
CONTINUOUS
10
48.9688
20
-46.0538
11
49.0877
21
-45.9217
0
LINE
8
BLACK
6
CONTINUOUS
10
49.0877
20
-45.9217
11
49.2314
21
-45.8173
0
LINE
8
BLACK
6
CONTINUOUS
10
49.2314
20
-45.8173
11
49.3938
21
-45.745
0
LINE
8
BLACK
6
CONTINUOUS
10
49.3938
20
-45.745
11
49.5676
21
-45.708
0
LINE
8
BLACK
6
CONTINUOUS
10
49.5676
20
-45.708
11
49.7453
21
-45.708
0
LINE
8
BLACK
6
CONTINUOUS
10
49.7453
20
-45.708
11
49.9191
21
-45.745
0
LINE
8
BLACK
6
CONTINUOUS
10
71.4855
20
-43.922
11
71.597
21
-43.9788
0
LINE
8
BLACK
6
CONTINUOUS
10
71.597
20
-43.9788
11
71.6855
21
-44.0673
0
LINE
8
BLACK
6
CONTINUOUS
10
71.6855
20
-44.0673
11
71.7423
21
-44.1788
0
LINE
8
BLACK
6
CONTINUOUS
10
71.7423
20
-44.1788
11
71.7619
21
-44.3024
0
LINE
8
BLACK
6
CONTINUOUS
10
71.7619
20
-44.3024
11
71.7423
21
-44.426
0
LINE
8
BLACK
6
CONTINUOUS
10
71.7423
20
-44.426
11
71.6855
21
-44.5375
0
LINE
8
BLACK
6
CONTINUOUS
10
71.6855
20
-44.5375
11
71.597
21
-44.626
0
LINE
8
BLACK
6
CONTINUOUS
10
71.597
20
-44.626
11
71.4855
21
-44.6828
0
LINE
8
BLACK
6
CONTINUOUS
10
71.4855
20
-44.6828
11
71.3619
21
-44.7024
0
LINE
8
BLACK
6
CONTINUOUS
10
71.3619
20
-44.7024
11
71.2383
21
-44.6828
0
LINE
8
BLACK
6
CONTINUOUS
10
71.2383
20
-44.6828
11
71.1268
21
-44.626
0
LINE
8
BLACK
6
CONTINUOUS
10
71.1268
20
-44.626
11
71.0383
21
-44.5375
0
LINE
8
BLACK
6
CONTINUOUS
10
71.0383
20
-44.5375
11
70.9815
21
-44.426
0
LINE
8
BLACK
6
CONTINUOUS
10
70.9815
20
-44.426
11
70.9619
21
-44.3024
0
LINE
8
BLACK
6
CONTINUOUS
10
70.9619
20
-44.3024
11
70.9815
21
-44.1788
0
LINE
8
BLACK
6
CONTINUOUS
10
70.9815
20
-44.1788
11
71.0383
21
-44.0673
0
LINE
8
BLACK
6
CONTINUOUS
10
71.0383
20
-44.0673
11
71.1268
21
-43.9788
0
LINE
8
BLACK
6
CONTINUOUS
10
71.1268
20
-43.9788
11
71.2383
21
-43.922
0
LINE
8
BLACK
6
CONTINUOUS
10
71.2383
20
-43.922
11
71.3619
21
-43.9024
0
LINE
8
BLACK
6
CONTINUOUS
10
71.3619
20
-43.9024
11
71.4855
21
-43.922
0
LINE
8
BLACK
6
CONTINUOUS
10
71.8864
20
-42.8534
11
69.6864
21
-42.8534
0
LINE
8
BLACK
6
CONTINUOUS
10
69.6864
20
-42.8534
11
69.6864
21
-40.6534
0
LINE
8
BLACK
6
CONTINUOUS
10
69.6864
20
-40.6534
11
71.8864
21
-40.6534
0
LINE
8
BLACK
6
CONTINUOUS
10
71.8864
20
-40.6534
11
71.8864
21
-42.8534
0
LINE
8
BLACK
6
CONTINUOUS
10
50.7674
20
-40.6954
11
50.9567
21
-40.7687
0
LINE
8
BLACK
6
CONTINUOUS
10
50.9567
20
-40.7687
11
51.1293
21
-40.8756
0
LINE
8
BLACK
6
CONTINUOUS
10
51.1293
20
-40.8756
11
51.2793
21
-41.0123
0
LINE
8
BLACK
6
CONTINUOUS
10
51.2793
20
-41.0123
11
51.4017
21
-41.1743
0
LINE
8
BLACK
6
CONTINUOUS
10
51.4017
20
-41.1743
11
51.4921
21
-41.356
0
LINE
8
BLACK
6
CONTINUOUS
10
51.4921
20
-41.356
11
51.5477
21
-41.5513
0
LINE
8
BLACK
6
CONTINUOUS
10
51.5477
20
-41.5513
11
51.5664
21
-41.7534
0
LINE
8
BLACK
6
CONTINUOUS
10
51.5664
20
-41.7534
11
51.5477
21
-41.9555
0
LINE
8
BLACK
6
CONTINUOUS
10
51.5477
20
-41.9555
11
51.4921
21
-42.1507
0
LINE
8
BLACK
6
CONTINUOUS
10
51.4921
20
-42.1507
11
51.4017
21
-42.3325
0
LINE
8
BLACK
6
CONTINUOUS
10
51.4017
20
-42.3325
11
51.2793
21
-42.4944
0
LINE
8
BLACK
6
CONTINUOUS
10
51.2793
20
-42.4944
11
51.1293
21
-42.6312
0
LINE
8
BLACK
6
CONTINUOUS
10
51.1293
20
-42.6312
11
50.9567
21
-42.7381
0
LINE
8
BLACK
6
CONTINUOUS
10
50.9567
20
-42.7381
11
50.7674
21
-42.8114
0
LINE
8
BLACK
6
CONTINUOUS
10
50.7674
20
-42.8114
11
50.5679
21
-42.8487
0
LINE
8
BLACK
6
CONTINUOUS
10
50.5679
20
-42.8487
11
50.3649
21
-42.8487
0
LINE
8
BLACK
6
CONTINUOUS
10
50.3649
20
-42.8487
11
50.1654
21
-42.8114
0
LINE
8
BLACK
6
CONTINUOUS
10
50.1654
20
-42.8114
11
49.9761
21
-42.7381
0
LINE
8
BLACK
6
CONTINUOUS
10
49.9761
20
-42.7381
11
49.8035
21
-42.6312
0
LINE
8
BLACK
6
CONTINUOUS
10
49.8035
20
-42.6312
11
49.6535
21
-42.4944
0
LINE
8
BLACK
6
CONTINUOUS
10
49.6535
20
-42.4944
11
49.5312
21
-42.3325
0
LINE
8
BLACK
6
CONTINUOUS
10
49.5312
20
-42.3325
11
49.4407
21
-42.1507
0
LINE
8
BLACK
6
CONTINUOUS
10
49.4407
20
-42.1507
11
49.3851
21
-41.9555
0
LINE
8
BLACK
6
CONTINUOUS
10
49.3851
20
-41.9555
11
49.3664
21
-41.7534
0
LINE
8
BLACK
6
CONTINUOUS
10
49.3664
20
-41.7534
11
49.3851
21
-41.5513
0
LINE
8
BLACK
6
CONTINUOUS
10
49.3851
20
-41.5513
11
49.4407
21
-41.356
0
LINE
8
BLACK
6
CONTINUOUS
10
49.4407
20
-41.356
11
49.5312
21
-41.1743
0
LINE
8
BLACK
6
CONTINUOUS
10
49.5312
20
-41.1743
11
49.6535
21
-41.0123
0
LINE
8
BLACK
6
CONTINUOUS
10
49.6535
20
-41.0123
11
49.8035
21
-40.8756
0
LINE
8
BLACK
6
CONTINUOUS
10
49.8035
20
-40.8756
11
49.9761
21
-40.7687
0
LINE
8
BLACK
6
CONTINUOUS
10
49.9761
20
-40.7687
11
50.1654
21
-40.6954
0
LINE
8
BLACK
6
CONTINUOUS
10
50.1654
20
-40.6954
11
50.3649
21
-40.6581
0
LINE
8
BLACK
6
CONTINUOUS
10
50.3649
20
-40.6581
11
50.5679
21
-40.6581
0
LINE
8
BLACK
6
CONTINUOUS
10
50.5679
20
-40.6581
11
50.7674
21
-40.6954
0
LINE
8
BLACK
6
CONTINUOUS
10
53.3074
20
-40.6954
11
53.4967
21
-40.7687
0
LINE
8
BLACK
6
CONTINUOUS
10
53.4967
20
-40.7687
11
53.6693
21
-40.8756
0
LINE
8
BLACK
6
CONTINUOUS
10
53.6693
20
-40.8756
11
53.8193
21
-41.0123
0
LINE
8
BLACK
6
CONTINUOUS
10
53.8193
20
-41.0123
11
53.9417
21
-41.1743
0
LINE
8
BLACK
6
CONTINUOUS
10
53.9417
20
-41.1743
11
54.0321
21
-41.356
0
LINE
8
BLACK
6
CONTINUOUS
10
54.0321
20
-41.356
11
54.0877
21
-41.5513
0
LINE
8
BLACK
6
CONTINUOUS
10
54.0877
20
-41.5513
11
54.1064
21
-41.7534
0
LINE
8
BLACK
6
CONTINUOUS
10
54.1064
20
-41.7534
11
54.0877
21
-41.9555
0
LINE
8
BLACK
6
CONTINUOUS
10
54.0877
20
-41.9555
11
54.0321
21
-42.1507
0
LINE
8
BLACK
6
CONTINUOUS
10
54.0321
20
-42.1507
11
53.9417
21
-42.3325
0
LINE
8
BLACK
6
CONTINUOUS
10
53.9417
20
-42.3325
11
53.8193
21
-42.4944
0
LINE
8
BLACK
6
CONTINUOUS
10
53.8193
20
-42.4944
11
53.6693
21
-42.6312
0
LINE
8
BLACK
6
CONTINUOUS
10
53.6693
20
-42.6312
11
53.4967
21
-42.7381
0
LINE
8
BLACK
6
CONTINUOUS
10
53.4967
20
-42.7381
11
53.3074
21
-42.8114
0
LINE
8
BLACK
6
CONTINUOUS
10
53.3074
20
-42.8114
11
53.1079
21
-42.8487
0
LINE
8
BLACK
6
CONTINUOUS
10
53.1079
20
-42.8487
11
52.9049
21
-42.8487
0
LINE
8
BLACK
6
CONTINUOUS
10
52.9049
20
-42.8487
11
52.7054
21
-42.8114
0
LINE
8
BLACK
6
CONTINUOUS
10
52.7054
20
-42.8114
11
52.5161
21
-42.7381
0
LINE
8
BLACK
6
CONTINUOUS
10
52.5161
20
-42.7381
11
52.3435
21
-42.6312
0
LINE
8
BLACK
6
CONTINUOUS
10
52.3435
20
-42.6312
11
52.1935
21
-42.4944
0
LINE
8
BLACK
6
CONTINUOUS
10
52.1935
20
-42.4944
11
52.0712
21
-42.3325
0
LINE
8
BLACK
6
CONTINUOUS
10
52.0712
20
-42.3325
11
51.9807
21
-42.1507
0
LINE
8
BLACK
6
CONTINUOUS
10
51.9807
20
-42.1507
11
51.9251
21
-41.9555
0
LINE
8
BLACK
6
CONTINUOUS
10
51.9251
20
-41.9555
11
51.9064
21
-41.7534
0
LINE
8
BLACK
6
CONTINUOUS
10
51.9064
20
-41.7534
11
51.9251
21
-41.5513
0
LINE
8
BLACK
6
CONTINUOUS
10
51.9251
20
-41.5513
11
51.9807
21
-41.356
0
LINE
8
BLACK
6
CONTINUOUS
10
51.9807
20
-41.356
11
52.0712
21
-41.1743
0
LINE
8
BLACK
6
CONTINUOUS
10
52.0712
20
-41.1743
11
52.1935
21
-41.0123
0
LINE
8
BLACK
6
CONTINUOUS
10
52.1935
20
-41.0123
11
52.3435
21
-40.8756
0
LINE
8
BLACK
6
CONTINUOUS
10
52.3435
20
-40.8756
11
52.5161
21
-40.7687
0
LINE
8
BLACK
6
CONTINUOUS
10
52.5161
20
-40.7687
11
52.7054
21
-40.6954
0
LINE
8
BLACK
6
CONTINUOUS
10
52.7054
20
-40.6954
11
52.9049
21
-40.6581
0
LINE
8
BLACK
6
CONTINUOUS
10
52.9049
20
-40.6581
11
53.1079
21
-40.6581
0
LINE
8
BLACK
6
CONTINUOUS
10
53.1079
20
-40.6581
11
53.3074
21
-40.6954
0
LINE
8
BLACK
6
CONTINUOUS
10
55.8474
20
-40.6954
11
56.0367
21
-40.7687
0
LINE
8
BLACK
6
CONTINUOUS
10
56.0367
20
-40.7687
11
56.2093
21
-40.8756
0
LINE
8
BLACK
6
CONTINUOUS
10
56.2093
20
-40.8756
11
56.3593
21
-41.0123
0
LINE
8
BLACK
6
CONTINUOUS
10
56.3593
20
-41.0123
11
56.4817
21
-41.1743
0
LINE
8
BLACK
6
CONTINUOUS
10
56.4817
20
-41.1743
11
56.5721
21
-41.356
0
LINE
8
BLACK
6
CONTINUOUS
10
56.5721
20
-41.356
11
56.6277
21
-41.5513
0
LINE
8
BLACK
6
CONTINUOUS
10
56.6277
20
-41.5513
11
56.6464
21
-41.7534
0
LINE
8
BLACK
6
CONTINUOUS
10
56.6464
20
-41.7534
11
56.6277
21
-41.9555
0
LINE
8
BLACK
6
CONTINUOUS
10
56.6277
20
-41.9555
11
56.5721
21
-42.1507
0
LINE
8
BLACK
6
CONTINUOUS
10
56.5721
20
-42.1507
11
56.4817
21
-42.3325
0
LINE
8
BLACK
6
CONTINUOUS
10
56.4817
20
-42.3325
11
56.3593
21
-42.4944
0
LINE
8
BLACK
6
CONTINUOUS
10
56.3593
20
-42.4944
11
56.2093
21
-42.6312
0
LINE
8
BLACK
6
CONTINUOUS
10
56.2093
20
-42.6312
11
56.0367
21
-42.7381
0
LINE
8
BLACK
6
CONTINUOUS
10
56.0367
20
-42.7381
11
55.8474
21
-42.8114
0
LINE
8
BLACK
6
CONTINUOUS
10
55.8474
20
-42.8114
11
55.6479
21
-42.8487
0
LINE
8
BLACK
6
CONTINUOUS
10
55.6479
20
-42.8487
11
55.4449
21
-42.8487
0
LINE
8
BLACK
6
CONTINUOUS
10
55.4449
20
-42.8487
11
55.2454
21
-42.8114
0
LINE
8
BLACK
6
CONTINUOUS
10
55.2454
20
-42.8114
11
55.0561
21
-42.7381
0
LINE
8
BLACK
6
CONTINUOUS
10
55.0561
20
-42.7381
11
54.8835
21
-42.6312
0
LINE
8
BLACK
6
CONTINUOUS
10
54.8835
20
-42.6312
11
54.7335
21
-42.4944
0
LINE
8
BLACK
6
CONTINUOUS
10
54.7335
20
-42.4944
11
54.6112
21
-42.3325
0
LINE
8
BLACK
6
CONTINUOUS
10
54.6112
20
-42.3325
11
54.5207
21
-42.1507
0
LINE
8
BLACK
6
CONTINUOUS
10
54.5207
20
-42.1507
11
54.4651
21
-41.9555
0
LINE
8
BLACK
6
CONTINUOUS
10
54.4651
20
-41.9555
11
54.4464
21
-41.7534
0
LINE
8
BLACK
6
CONTINUOUS
10
54.4464
20
-41.7534
11
54.4651
21
-41.5513
0
LINE
8
BLACK
6
CONTINUOUS
10
54.4651
20
-41.5513
11
54.5207
21
-41.356
0
LINE
8
BLACK
6
CONTINUOUS
10
54.5207
20
-41.356
11
54.6112
21
-41.1743
0
LINE
8
BLACK
6
CONTINUOUS
10
54.6112
20
-41.1743
11
54.7335
21
-41.0123
0
LINE
8
BLACK
6
CONTINUOUS
10
54.7335
20
-41.0123
11
54.8835
21
-40.8756
0
LINE
8
BLACK
6
CONTINUOUS
10
54.8835
20
-40.8756
11
55.0561
21
-40.7687
0
LINE
8
BLACK
6
CONTINUOUS
10
55.0561
20
-40.7687
11
55.2454
21
-40.6954
0
LINE
8
BLACK
6
CONTINUOUS
10
55.2454
20
-40.6954
11
55.4449
21
-40.6581
0
LINE
8
BLACK
6
CONTINUOUS
10
55.4449
20
-40.6581
11
55.6479
21
-40.6581
0
LINE
8
BLACK
6
CONTINUOUS
10
55.6479
20
-40.6581
11
55.8474
21
-40.6954
0
LINE
8
BLACK
6
CONTINUOUS
10
66.0074
20
-40.6954
11
66.1967
21
-40.7687
0
LINE
8
BLACK
6
CONTINUOUS
10
66.1967
20
-40.7687
11
66.3693
21
-40.8756
0
LINE
8
BLACK
6
CONTINUOUS
10
66.3693
20
-40.8756
11
66.5193
21
-41.0123
0
LINE
8
BLACK
6
CONTINUOUS
10
66.5193
20
-41.0123
11
66.6417
21
-41.1743
0
LINE
8
BLACK
6
CONTINUOUS
10
66.6417
20
-41.1743
11
66.7321
21
-41.356
0
LINE
8
BLACK
6
CONTINUOUS
10
66.7321
20
-41.356
11
66.7877
21
-41.5513
0
LINE
8
BLACK
6
CONTINUOUS
10
66.7877
20
-41.5513
11
66.8064
21
-41.7534
0
LINE
8
BLACK
6
CONTINUOUS
10
66.8064
20
-41.7534
11
66.7877
21
-41.9555
0
LINE
8
BLACK
6
CONTINUOUS
10
66.7877
20
-41.9555
11
66.7321
21
-42.1507
0
LINE
8
BLACK
6
CONTINUOUS
10
66.7321
20
-42.1507
11
66.6417
21
-42.3325
0
LINE
8
BLACK
6
CONTINUOUS
10
66.6417
20
-42.3325
11
66.5193
21
-42.4944
0
LINE
8
BLACK
6
CONTINUOUS
10
66.5193
20
-42.4944
11
66.3693
21
-42.6312
0
LINE
8
BLACK
6
CONTINUOUS
10
66.3693
20
-42.6312
11
66.1967
21
-42.7381
0
LINE
8
BLACK
6
CONTINUOUS
10
66.1967
20
-42.7381
11
66.0074
21
-42.8114
0
LINE
8
BLACK
6
CONTINUOUS
10
66.0074
20
-42.8114
11
65.8079
21
-42.8487
0
LINE
8
BLACK
6
CONTINUOUS
10
65.8079
20
-42.8487
11
65.6049
21
-42.8487
0
LINE
8
BLACK
6
CONTINUOUS
10
65.6049
20
-42.8487
11
65.4054
21
-42.8114
0
LINE
8
BLACK
6
CONTINUOUS
10
65.4054
20
-42.8114
11
65.2161
21
-42.7381
0
LINE
8
BLACK
6
CONTINUOUS
10
65.2161
20
-42.7381
11
65.0435
21
-42.6312
0
LINE
8
BLACK
6
CONTINUOUS
10
65.0435
20
-42.6312
11
64.8935
21
-42.4944
0
LINE
8
BLACK
6
CONTINUOUS
10
64.8935
20
-42.4944
11
64.7712
21
-42.3325
0
LINE
8
BLACK
6
CONTINUOUS
10
64.7712
20
-42.3325
11
64.6807
21
-42.1507
0
LINE
8
BLACK
6
CONTINUOUS
10
64.6807
20
-42.1507
11
64.6251
21
-41.9555
0
LINE
8
BLACK
6
CONTINUOUS
10
64.6251
20
-41.9555
11
64.6064
21
-41.7534
0
LINE
8
BLACK
6
CONTINUOUS
10
64.6064
20
-41.7534
11
64.6251
21
-41.5513
0
LINE
8
BLACK
6
CONTINUOUS
10
64.6251
20
-41.5513
11
64.6807
21
-41.356
0
LINE
8
BLACK
6
CONTINUOUS
10
64.6807
20
-41.356
11
64.7712
21
-41.1743
0
LINE
8
BLACK
6
CONTINUOUS
10
64.7712
20
-41.1743
11
64.8935
21
-41.0123
0
LINE
8
BLACK
6
CONTINUOUS
10
64.8935
20
-41.0123
11
65.0435
21
-40.8756
0
LINE
8
BLACK
6
CONTINUOUS
10
65.0435
20
-40.8756
11
65.2161
21
-40.7687
0
LINE
8
BLACK
6
CONTINUOUS
10
65.2161
20
-40.7687
11
65.4054
21
-40.6954
0
LINE
8
BLACK
6
CONTINUOUS
10
65.4054
20
-40.6954
11
65.6049
21
-40.6581
0
LINE
8
BLACK
6
CONTINUOUS
10
65.6049
20
-40.6581
11
65.8079
21
-40.6581
0
LINE
8
BLACK
6
CONTINUOUS
10
65.8079
20
-40.6581
11
66.0074
21
-40.6954
0
LINE
8
BLACK
6
CONTINUOUS
10
66.99
20
-39.8171
11
67.1015
21
-39.8739
0
LINE
8
BLACK
6
CONTINUOUS
10
67.1015
20
-39.8739
11
67.19
21
-39.9624
0
LINE
8
BLACK
6
CONTINUOUS
10
67.19
20
-39.9624
11
67.2468
21
-40.0739
0
LINE
8
BLACK
6
CONTINUOUS
10
67.2468
20
-40.0739
11
67.2664
21
-40.1975
0
LINE
8
BLACK
6
CONTINUOUS
10
67.2664
20
-40.1975
11
67.2468
21
-40.3211
0
LINE
8
BLACK
6
CONTINUOUS
10
67.2468
20
-40.3211
11
67.19
21
-40.4326
0
LINE
8
BLACK
6
CONTINUOUS
10
67.19
20
-40.4326
11
67.1015
21
-40.5211
0
LINE
8
BLACK
6
CONTINUOUS
10
67.1015
20
-40.5211
11
66.99
21
-40.5779
0
LINE
8
BLACK
6
CONTINUOUS
10
66.99
20
-40.5779
11
66.8664
21
-40.5975
0
LINE
8
BLACK
6
CONTINUOUS
10
66.8664
20
-40.5975
11
66.7428
21
-40.5779
0
LINE
8
BLACK
6
CONTINUOUS
10
66.7428
20
-40.5779
11
66.6313
21
-40.5211
0
LINE
8
BLACK
6
CONTINUOUS
10
66.6313
20
-40.5211
11
66.5428
21
-40.4326
0
LINE
8
BLACK
6
CONTINUOUS
10
66.5428
20
-40.4326
11
66.486
21
-40.3211
0
LINE
8
BLACK
6
CONTINUOUS
10
66.486
20
-40.3211
11
66.4664
21
-40.1975
0
LINE
8
BLACK
6
CONTINUOUS
10
66.4664
20
-40.1975
11
66.486
21
-40.0739
0
LINE
8
BLACK
6
CONTINUOUS
10
66.486
20
-40.0739
11
66.5428
21
-39.9624
0
LINE
8
BLACK
6
CONTINUOUS
10
66.5428
20
-39.9624
11
66.6313
21
-39.8739
0
LINE
8
BLACK
6
CONTINUOUS
10
66.6313
20
-39.8739
11
66.7428
21
-39.8171
0
LINE
8
BLACK
6
CONTINUOUS
10
66.7428
20
-39.8171
11
66.8664
21
-39.7975
0
LINE
8
BLACK
6
CONTINUOUS
10
66.8664
20
-39.7975
11
66.99
21
-39.8171
0
CIRCLE
8
BLACK
10
67.5664
20
-64.0734
40
0.2
0
CIRCLE
8
BLACK
10
53.0513
20
-59.6594
40
0.2
0
CIRCLE
8
BLACK
10
51.3662
20
-50.2886
40
0.2
0
CIRCLE
8
BLACK
10
57.3442
20
-54.9378
40
0.2
0
CIRCLE
8
BLACK
10
54.9038
20
-49.7897
40
0.2
0
CIRCLE
8
BLACK
10
67.9268
20
-59.4834
40
0.2
0
CIRCLE
8
BLACK
10
71.9664
20
-59.5234
40
0.2
0
CIRCLE
8
BLACK
10
66.8664
20
-40.1975
40
0.2
0
CIRCLE
8
BLACK
10
62.1223
20
-59.0619
40
0.2
0
CIRCLE
8
BLACK
10
64.6623
20
-59.6562
40
0.2
0
CIRCLE
8
BLACK
10
66.0668
20
-56.5739
40
0.2
0
CIRCLE
8
BLACK
10
56.3493
20
-49.9578
40
0.2
0
CIRCLE
8
BLACK
10
57.4091
20
-59.187
40
0.2
0
CIRCLE
8
BLACK
10
61.8321
20
-48.9363
40
0.2
0
CIRCLE
8
BLACK
10
51.1164
20
-52.9384
40
0.2
0
CIRCLE
8
BLACK
10
55.4246
20
-59.6076
40
0.2
0
CIRCLE
8
BLACK
10
54.8514
20
-58.0639
40
0.2
0
CIRCLE
8
BLACK
10
57.3442
20
-53.7808
40
0.2
0
CIRCLE
8
BLACK
10
52.938
20
-48.8549
40
0.2
0
CIRCLE
8
BLACK
10
71.3619
20
-44.3024
40
0.2
0
CIRCLE
8
BLACK
10
71.1864
20
-67.9734
40
0.2
0
CIRCLE
8
BLACK
10
65.0164
20
-66.7129
40
0.2
0
CIRCLE
8
BLACK
10
62.2664
20
-63.9008
40
0.2
0
CIRCLE
8
BLACK
10
67.9268
20
-58.1834
40
0.2
0
CIRCLE
8
BLACK
10
70.3414
20
-58.1839
40
0.2
0
CIRCLE
8
BLACK
10
63.4713
20
-53.7826
40
0.2
0
CIRCLE
8
BLACK
10
69.1775
20
-48.1023
40
0.2
0
CIRCLE
8
BLACK
10
71.8659
20
-63.6639
40
0.2
0
CIRCLE
8
BLACK
10
63.2914
20
-58.0134
40
0.2
0
CIRCLE
8
BLACK
10
65.485
20
-48.7112
40
0.2
0
CIRCLE
8
BLACK
10
51.8311
20
-55.4622
40
0.2
0
CIRCLE
8
BLACK
10
66.0728
20
-64.067
40
0.2
0
CIRCLE
8
BLACK
10
69.7864
20
-64.0734
40
0.2
0
CIRCLE
8
BLACK
10
64.9164
20
-47.4634
40
0.2
0
CIRCLE
8
BLACK
10
71.6414
20
-58.3134
40
0.2
0
CIRCLE
8
BLACK
10
67.8914
20
-65.5384
40
0.2
0
LINE
8
BLACK
6
CONTINUOUS
10
71.9956
20
-39.3614
11
72.0078
21
-39.3624
0
LINE
8
BLACK
6
CONTINUOUS
10
72.0078
20
-39.3624
11
72.2117
21
-39.4625
0
LINE
8
BLACK
6
CONTINUOUS
10
72.2117
20
-39.4625
11
72.4007
21
-39.5884
0
LINE
8
BLACK
6
CONTINUOUS
10
72.4007
20
-39.5884
11
72.5717
21
-39.738
0
LINE
8
BLACK
6
CONTINUOUS
10
72.5717
20
-39.738
11
72.7218
21
-39.9085
0
LINE
8
BLACK
6
CONTINUOUS
10
72.7218
20
-39.9085
11
72.8482
21
-40.0972
0
LINE
8
BLACK
6
CONTINUOUS
10
72.8482
20
-40.0972
11
72.949
21
-40.3008
0
LINE
8
BLACK
6
CONTINUOUS
10
72.949
20
-40.3008
11
72.949
21
-40.3008
0
LINE
8
BLACK
6
CONTINUOUS
10
72.949
20
-40.3008
11
72.95
21
-40.3131
0
LINE
8
BLACK
6
CONTINUOUS
10
72.95
20
-40.3131
11
72.9528
21
-40.32
0
LINE
8
BLACK
6
CONTINUOUS
10
72.9528
20
-40.32
11
72.9528
21
-73.0768
0
LINE
8
BLACK
6
CONTINUOUS
10
72.9528
20
-73.0768
11
72.95
21
-73.0836
0
LINE
8
BLACK
6
CONTINUOUS
10
72.95
20
-73.0836
11
72.949
21
-73.096
0
LINE
8
BLACK
6
CONTINUOUS
10
72.949
20
-73.096
11
72.949
21
-73.096
0
LINE
8
BLACK
6
CONTINUOUS
10
72.949
20
-73.096
11
72.8482
21
-73.2995
0
LINE
8
BLACK
6
CONTINUOUS
10
72.8482
20
-73.2995
11
72.7217
21
-73.4882
0
LINE
8
BLACK
6
CONTINUOUS
10
72.7217
20
-73.4882
11
72.5717
21
-73.6588
0
LINE
8
BLACK
6
CONTINUOUS
10
72.5717
20
-73.6588
11
72.4007
21
-73.8083
0
LINE
8
BLACK
6
CONTINUOUS
10
72.4007
20
-73.8083
11
72.2117
21
-73.9342
0
LINE
8
BLACK
6
CONTINUOUS
10
72.2117
20
-73.9342
11
72.0078
21
-74.0344
0
LINE
8
BLACK
6
CONTINUOUS
10
72.0078
20
-74.0344
11
72.0078
21
-74.0344
0
LINE
8
BLACK
6
CONTINUOUS
10
72.0078
20
-74.0344
11
71.9956
21
-74.0353
0
LINE
8
BLACK
6
CONTINUOUS
10
71.9956
20
-74.0353
11
71.9887
21
-74.0382
0
LINE
8
BLACK
6
CONTINUOUS
10
71.9887
20
-74.0382
11
49.2741
21
-74.0382
0
LINE
8
BLACK
6
CONTINUOUS
10
49.2741
20
-74.0382
11
49.2673
21
-74.0353
0
LINE
8
BLACK
6
CONTINUOUS
10
49.2673
20
-74.0353
11
49.2551
21
-74.0344
0
LINE
8
BLACK
6
CONTINUOUS
10
49.2551
20
-74.0344
11
49.0512
21
-73.9342
0
LINE
8
BLACK
6
CONTINUOUS
10
49.0512
20
-73.9342
11
48.8621
21
-73.8083
0
LINE
8
BLACK
6
CONTINUOUS
10
48.8621
20
-73.8083
11
48.6911
21
-73.6588
0
LINE
8
BLACK
6
CONTINUOUS
10
48.6911
20
-73.6588
11
48.5411
21
-73.4882
0
LINE
8
BLACK
6
CONTINUOUS
10
48.5411
20
-73.4882
11
48.4146
21
-73.2996
0
LINE
8
BLACK
6
CONTINUOUS
10
48.4146
20
-73.2996
11
48.3138
21
-73.096
0
LINE
8
BLACK
6
CONTINUOUS
10
48.3138
20
-73.096
11
48.3138
21
-73.096
0
LINE
8
BLACK
6
CONTINUOUS
10
48.3138
20
-73.096
11
48.3128
21
-73.0836
0
LINE
8
BLACK
6
CONTINUOUS
10
48.3128
20
-73.0836
11
48.31
21
-73.0768
0
LINE
8
BLACK
6
CONTINUOUS
10
48.31
20
-73.0768
11
48.31
21
-40.32
0
LINE
8
BLACK
6
CONTINUOUS
10
48.31
20
-40.32
11
48.3128
21
-40.3131
0
LINE
8
BLACK
6
CONTINUOUS
10
48.3128
20
-40.3131
11
48.3138
21
-40.3008
0
LINE
8
BLACK
6
CONTINUOUS
10
48.3138
20
-40.3008
11
48.4146
21
-40.0972
0
LINE
8
BLACK
6
CONTINUOUS
10
48.4146
20
-40.0972
11
48.5411
21
-39.9086
0
LINE
8
BLACK
6
CONTINUOUS
10
48.5411
20
-39.9086
11
48.6911
21
-39.738
0
LINE
8
BLACK
6
CONTINUOUS
10
48.6911
20
-39.738
11
48.8621
21
-39.5885
0
LINE
8
BLACK
6
CONTINUOUS
10
48.8621
20
-39.5885
11
49.0512
21
-39.4626
0
LINE
8
BLACK
6
CONTINUOUS
10
49.0512
20
-39.4626
11
49.2551
21
-39.3624
0
LINE
8
BLACK
6
CONTINUOUS
10
49.2551
20
-39.3624
11
49.2551
21
-39.3624
0
LINE
8
BLACK
6
CONTINUOUS
10
49.2551
20
-39.3624
11
49.2673
21
-39.3614
0
LINE
8
BLACK
6
CONTINUOUS
10
49.2673
20
-39.3614
11
49.2741
21
-39.3586
0
LINE
8
BLACK
6
CONTINUOUS
10
49.2741
20
-39.3586
11
71.9887
21
-39.3586
0
LINE
8
BLACK
6
CONTINUOUS
10
71.9887
20
-39.3586
11
71.9956
21
-39.3614
0
LINE
8
BLACK
6
CONTINUOUS
10
49.2841
20
-39.4586
11
49.194
21
-39.4958
0
LINE
8
BLACK
6
CONTINUOUS
10
49.194
20
-39.4958
11
49.0081
21
-39.6027
0
LINE
8
BLACK
6
CONTINUOUS
10
49.0081
20
-39.6027
11
48.8377
21
-39.7331
0
LINE
8
BLACK
6
CONTINUOUS
10
48.8377
20
-39.7331
11
48.6858
21
-39.8845
0
LINE
8
BLACK
6
CONTINUOUS
10
48.6858
20
-39.8845
11
48.5549
21
-40.0545
0
LINE
8
BLACK
6
CONTINUOUS
10
48.5549
20
-40.0545
11
48.4474
21
-40.2402
0
LINE
8
BLACK
6
CONTINUOUS
10
48.4474
20
-40.2402
11
48.41
21
-40.33
0
LINE
8
BLACK
6
CONTINUOUS
10
48.41
20
-40.33
11
48.41
21
-73.0668
0
LINE
8
BLACK
6
CONTINUOUS
10
48.41
20
-73.0668
11
48.4473
21
-73.1566
0
LINE
8
BLACK
6
CONTINUOUS
10
48.4473
20
-73.1566
11
48.5549
21
-73.3422
0
LINE
8
BLACK
6
CONTINUOUS
10
48.5549
20
-73.3422
11
48.6857
21
-73.5123
0
LINE
8
BLACK
6
CONTINUOUS
10
48.6857
20
-73.5123
11
48.8377
21
-73.6637
0
LINE
8
BLACK
6
CONTINUOUS
10
48.8377
20
-73.6637
11
49.0081
21
-73.7941
0
LINE
8
BLACK
6
CONTINUOUS
10
49.0081
20
-73.7941
11
49.194
21
-73.901
0
LINE
8
BLACK
6
CONTINUOUS
10
49.194
20
-73.901
11
49.284
21
-73.9382
0
LINE
8
BLACK
6
CONTINUOUS
10
49.284
20
-73.9382
11
71.9788
21
-73.9382
0
LINE
8
BLACK
6
CONTINUOUS
10
71.9788
20
-73.9382
11
72.0688
21
-73.901
0
LINE
8
BLACK
6
CONTINUOUS
10
72.0688
20
-73.901
11
72.2548
21
-73.794
0
LINE
8
BLACK
6
CONTINUOUS
10
72.2548
20
-73.794
11
72.4251
21
-73.6637
0
LINE
8
BLACK
6
CONTINUOUS
10
72.4251
20
-73.6637
11
72.5771
21
-73.5122
0
LINE
8
BLACK
6
CONTINUOUS
10
72.5771
20
-73.5122
11
72.7079
21
-73.3422
0
LINE
8
BLACK
6
CONTINUOUS
10
72.7079
20
-73.3422
11
72.8155
21
-73.1566
0
LINE
8
BLACK
6
CONTINUOUS
10
72.8155
20
-73.1566
11
72.8528
21
-73.0668
0
LINE
8
BLACK
6
CONTINUOUS
10
72.8528
20
-73.0668
11
72.8528
21
-40.3299
0
LINE
8
BLACK
6
CONTINUOUS
10
72.8528
20
-40.3299
11
72.8155
21
-40.2402
0
LINE
8
BLACK
6
CONTINUOUS
10
72.8155
20
-40.2402
11
72.7079
21
-40.0545
0
LINE
8
BLACK
6
CONTINUOUS
10
72.7079
20
-40.0545
11
72.5771
21
-39.8845
0
LINE
8
BLACK
6
CONTINUOUS
10
72.5771
20
-39.8845
11
72.4252
21
-39.733
0
LINE
8
BLACK
6
CONTINUOUS
10
72.4252
20
-39.733
11
72.2548
21
-39.6027
0
LINE
8
BLACK
6
CONTINUOUS
10
72.2548
20
-39.6027
11
72.0688
21
-39.4957
0
LINE
8
BLACK
6
CONTINUOUS
10
72.0688
20
-39.4957
11
71.9788
21
-39.4586
0
LINE
8
BLACK
6
CONTINUOUS
10
71.9788
20
-39.4586
11
49.2841
21
-39.4586
  0
ENDSEC
  0
EOF
