  0
SECTION
  2
HEADER
  9
$ANGBASE
  50
0.0
  9
$ANGDIR
  70
1
  9
$MEASUREMENT
  70
1
  0
ENDSEC
  0
SECTION
  2
TABLES
  0
TABLE
  2
LTYPE
  70
4
  0
LTYPE
  5
40F
  2
CONTINUOUS
  70
0
  3
Solid line
  72
65
  73
0
  40
0.0
  0
LTYPE
  5
410
  2
DASHDOT
 70
0
  3
Dash Dot ____ _ ____ _
 72
65
 73
4
 40
2.0
 49
1.25
 49
-0.25
 49
0.25
 49
-0.25
  0
LTYPE
  5
411
  2
DASHED
 70
0
  3
Dashed __ __ __ __ __
 72
65
 73
2
 40
0.75
 49
0.5
 49
-0.25
  0
LTYPE
  5
43B
  2
DOTTED
 70
0
  3
Dotted .  .  .  .
 72
65
 73
2
 40
0.2
 49
0.0
 49
-0.2
  0
ENDTAB
  0
TABLE
  2
STYLE
  70
4
  0
STYLE
  2
KICAD
  70
0
  40
0
  41
1
  42
1
  50
0
  71
0
  3
isocp.shx
  0
STYLE
  2
KICADB
  70
0
  40
0
  41
1
  42
1
  50
0
  71
0
  3
isocp.shx
  0
STYLE
  2
KICADI
  70
0
  40
0
  41
1
  42
1
  50
15
  71
0
  3
isocp.shx
  0
STYLE
  2
KICADBI
  70
0
  40
0
  41
1
  42
1
  50
15
  71
0
  3
isocp.shx
  0
ENDTAB
  0
TABLE
  2
LAYER
  70
1
  0
LAYER
  2
BLACK
  70
0
  62
7
  6
CONTINUOUS
  0
ENDTAB
  0
ENDSEC
  0
SECTION
  2
ENTITIES
0
LINE
8
BLACK
6
CONTINUOUS
10
128.265
20
-128.68
11
126.065
21
-128.68
0
LINE
8
BLACK
6
CONTINUOUS
10
126.065
20
-128.68
11
126.065
21
-126.48
0
LINE
8
BLACK
6
CONTINUOUS
10
126.065
20
-126.48
11
128.265
21
-126.48
0
LINE
8
BLACK
6
CONTINUOUS
10
128.265
20
-126.48
11
128.265
21
-128.68
0
LINE
8
BLACK
6
CONTINUOUS
10
130.006
20
-126.522
11
130.195
21
-126.595
0
LINE
8
BLACK
6
CONTINUOUS
10
130.195
20
-126.595
11
130.368
21
-126.702
0
LINE
8
BLACK
6
CONTINUOUS
10
130.368
20
-126.702
11
130.518
21
-126.839
0
LINE
8
BLACK
6
CONTINUOUS
10
130.518
20
-126.839
11
130.64
21
-127.001
0
LINE
8
BLACK
6
CONTINUOUS
10
130.64
20
-127.001
11
130.731
21
-127.183
0
LINE
8
BLACK
6
CONTINUOUS
10
130.731
20
-127.183
11
130.786
21
-127.378
0
LINE
8
BLACK
6
CONTINUOUS
10
130.786
20
-127.378
11
130.805
21
-127.58
0
LINE
8
BLACK
6
CONTINUOUS
10
130.805
20
-127.58
11
130.786
21
-127.782
0
LINE
8
BLACK
6
CONTINUOUS
10
130.786
20
-127.782
11
130.731
21
-127.977
0
LINE
8
BLACK
6
CONTINUOUS
10
130.731
20
-127.977
11
130.64
21
-128.159
0
LINE
8
BLACK
6
CONTINUOUS
10
130.64
20
-128.159
11
130.518
21
-128.321
0
LINE
8
BLACK
6
CONTINUOUS
10
130.518
20
-128.321
11
130.368
21
-128.458
0
LINE
8
BLACK
6
CONTINUOUS
10
130.368
20
-128.458
11
130.195
21
-128.565
0
LINE
8
BLACK
6
CONTINUOUS
10
130.195
20
-128.565
11
130.006
21
-128.638
0
LINE
8
BLACK
6
CONTINUOUS
10
130.006
20
-128.638
11
129.806
21
-128.675
0
LINE
8
BLACK
6
CONTINUOUS
10
129.806
20
-128.675
11
129.604
21
-128.675
0
LINE
8
BLACK
6
CONTINUOUS
10
129.604
20
-128.675
11
129.404
21
-128.638
0
LINE
8
BLACK
6
CONTINUOUS
10
129.404
20
-128.638
11
129.215
21
-128.565
0
LINE
8
BLACK
6
CONTINUOUS
10
129.215
20
-128.565
11
129.042
21
-128.458
0
LINE
8
BLACK
6
CONTINUOUS
10
129.042
20
-128.458
11
128.892
21
-128.321
0
LINE
8
BLACK
6
CONTINUOUS
10
128.892
20
-128.321
11
128.77
21
-128.159
0
LINE
8
BLACK
6
CONTINUOUS
10
128.77
20
-128.159
11
128.679
21
-127.977
0
LINE
8
BLACK
6
CONTINUOUS
10
128.679
20
-127.977
11
128.624
21
-127.782
0
LINE
8
BLACK
6
CONTINUOUS
10
128.624
20
-127.782
11
128.605
21
-127.58
0
LINE
8
BLACK
6
CONTINUOUS
10
128.605
20
-127.58
11
128.624
21
-127.378
0
LINE
8
BLACK
6
CONTINUOUS
10
128.624
20
-127.378
11
128.679
21
-127.183
0
LINE
8
BLACK
6
CONTINUOUS
10
128.679
20
-127.183
11
128.77
21
-127.001
0
LINE
8
BLACK
6
CONTINUOUS
10
128.77
20
-127.001
11
128.892
21
-126.839
0
LINE
8
BLACK
6
CONTINUOUS
10
128.892
20
-126.839
11
129.042
21
-126.702
0
LINE
8
BLACK
6
CONTINUOUS
10
129.042
20
-126.702
11
129.215
21
-126.595
0
LINE
8
BLACK
6
CONTINUOUS
10
129.215
20
-126.595
11
129.404
21
-126.522
0
LINE
8
BLACK
6
CONTINUOUS
10
129.404
20
-126.522
11
129.604
21
-126.485
0
LINE
8
BLACK
6
CONTINUOUS
10
129.604
20
-126.485
11
129.806
21
-126.485
0
LINE
8
BLACK
6
CONTINUOUS
10
129.806
20
-126.485
11
130.006
21
-126.522
0
LINE
8
BLACK
6
CONTINUOUS
10
132.546
20
-126.522
11
132.735
21
-126.595
0
LINE
8
BLACK
6
CONTINUOUS
10
132.735
20
-126.595
11
132.908
21
-126.702
0
LINE
8
BLACK
6
CONTINUOUS
10
132.908
20
-126.702
11
133.058
21
-126.839
0
LINE
8
BLACK
6
CONTINUOUS
10
133.058
20
-126.839
11
133.18
21
-127.001
0
LINE
8
BLACK
6
CONTINUOUS
10
133.18
20
-127.001
11
133.271
21
-127.183
0
LINE
8
BLACK
6
CONTINUOUS
10
133.271
20
-127.183
11
133.326
21
-127.378
0
LINE
8
BLACK
6
CONTINUOUS
10
133.326
20
-127.378
11
133.345
21
-127.58
0
LINE
8
BLACK
6
CONTINUOUS
10
133.345
20
-127.58
11
133.326
21
-127.782
0
LINE
8
BLACK
6
CONTINUOUS
10
133.326
20
-127.782
11
133.271
21
-127.977
0
LINE
8
BLACK
6
CONTINUOUS
10
133.271
20
-127.977
11
133.18
21
-128.159
0
LINE
8
BLACK
6
CONTINUOUS
10
133.18
20
-128.159
11
133.058
21
-128.321
0
LINE
8
BLACK
6
CONTINUOUS
10
133.058
20
-128.321
11
132.908
21
-128.458
0
LINE
8
BLACK
6
CONTINUOUS
10
132.908
20
-128.458
11
132.735
21
-128.565
0
LINE
8
BLACK
6
CONTINUOUS
10
132.735
20
-128.565
11
132.546
21
-128.638
0
LINE
8
BLACK
6
CONTINUOUS
10
132.546
20
-128.638
11
132.346
21
-128.675
0
LINE
8
BLACK
6
CONTINUOUS
10
132.346
20
-128.675
11
132.144
21
-128.675
0
LINE
8
BLACK
6
CONTINUOUS
10
132.144
20
-128.675
11
131.944
21
-128.638
0
LINE
8
BLACK
6
CONTINUOUS
10
131.944
20
-128.638
11
131.755
21
-128.565
0
LINE
8
BLACK
6
CONTINUOUS
10
131.755
20
-128.565
11
131.582
21
-128.458
0
LINE
8
BLACK
6
CONTINUOUS
10
131.582
20
-128.458
11
131.432
21
-128.321
0
LINE
8
BLACK
6
CONTINUOUS
10
131.432
20
-128.321
11
131.31
21
-128.159
0
LINE
8
BLACK
6
CONTINUOUS
10
131.31
20
-128.159
11
131.219
21
-127.977
0
LINE
8
BLACK
6
CONTINUOUS
10
131.219
20
-127.977
11
131.164
21
-127.782
0
LINE
8
BLACK
6
CONTINUOUS
10
131.164
20
-127.782
11
131.145
21
-127.58
0
LINE
8
BLACK
6
CONTINUOUS
10
131.145
20
-127.58
11
131.164
21
-127.378
0
LINE
8
BLACK
6
CONTINUOUS
10
131.164
20
-127.378
11
131.219
21
-127.183
0
LINE
8
BLACK
6
CONTINUOUS
10
131.219
20
-127.183
11
131.31
21
-127.001
0
LINE
8
BLACK
6
CONTINUOUS
10
131.31
20
-127.001
11
131.432
21
-126.839
0
LINE
8
BLACK
6
CONTINUOUS
10
131.432
20
-126.839
11
131.582
21
-126.702
0
LINE
8
BLACK
6
CONTINUOUS
10
131.582
20
-126.702
11
131.755
21
-126.595
0
LINE
8
BLACK
6
CONTINUOUS
10
131.755
20
-126.595
11
131.944
21
-126.522
0
LINE
8
BLACK
6
CONTINUOUS
10
131.944
20
-126.522
11
132.144
21
-126.485
0
LINE
8
BLACK
6
CONTINUOUS
10
132.144
20
-126.485
11
132.346
21
-126.485
0
LINE
8
BLACK
6
CONTINUOUS
10
132.346
20
-126.485
11
132.546
21
-126.522
0
LINE
8
BLACK
6
CONTINUOUS
10
128.524
20
-103.07
11
128.635
21
-103.126
0
LINE
8
BLACK
6
CONTINUOUS
10
128.635
20
-103.126
11
128.724
21
-103.215
0
LINE
8
BLACK
6
CONTINUOUS
10
128.724
20
-103.215
11
128.78
21
-103.326
0
LINE
8
BLACK
6
CONTINUOUS
10
128.78
20
-103.326
11
128.8
21
-103.45
0
LINE
8
BLACK
6
CONTINUOUS
10
128.8
20
-103.45
11
128.78
21
-103.574
0
LINE
8
BLACK
6
CONTINUOUS
10
128.78
20
-103.574
11
128.724
21
-103.685
0
LINE
8
BLACK
6
CONTINUOUS
10
128.724
20
-103.685
11
128.635
21
-103.774
0
LINE
8
BLACK
6
CONTINUOUS
10
128.635
20
-103.774
11
128.524
21
-103.83
0
LINE
8
BLACK
6
CONTINUOUS
10
128.524
20
-103.83
11
128.4
21
-103.85
0
LINE
8
BLACK
6
CONTINUOUS
10
128.4
20
-103.85
11
128.368
21
-103.845
0
LINE
8
BLACK
6
CONTINUOUS
10
128.368
20
-103.845
11
128.368
21
-112.606
0
LINE
8
BLACK
6
CONTINUOUS
10
128.368
20
-112.606
11
129.238
21
-113.476
0
LINE
8
BLACK
6
CONTINUOUS
10
129.238
20
-113.476
11
129.252
21
-113.494
0
LINE
8
BLACK
6
CONTINUOUS
10
129.252
20
-113.494
11
129.255
21
-113.497
0
LINE
8
BLACK
6
CONTINUOUS
10
129.255
20
-113.497
11
129.256
21
-113.5
0
LINE
8
BLACK
6
CONTINUOUS
10
129.256
20
-113.5
11
129.26
21
-113.505
0
LINE
8
BLACK
6
CONTINUOUS
10
129.26
20
-113.505
11
129.266
21
-113.535
0
LINE
8
BLACK
6
CONTINUOUS
10
129.266
20
-113.535
11
129.275
21
-113.565
0
LINE
8
BLACK
6
CONTINUOUS
10
129.275
20
-113.565
11
129.275
21
-115.664
0
LINE
8
BLACK
6
CONTINUOUS
10
129.275
20
-115.664
11
129.272
21
-115.686
0
LINE
8
BLACK
6
CONTINUOUS
10
129.272
20
-115.686
11
129.272
21
-115.691
0
LINE
8
BLACK
6
CONTINUOUS
10
129.272
20
-115.691
11
129.271
21
-115.693
0
LINE
8
BLACK
6
CONTINUOUS
10
129.271
20
-115.693
11
129.27
21
-115.699
0
LINE
8
BLACK
6
CONTINUOUS
10
129.27
20
-115.699
11
129.253
21
-115.725
0
LINE
8
BLACK
6
CONTINUOUS
10
129.253
20
-115.725
11
129.238
21
-115.752
0
LINE
8
BLACK
6
CONTINUOUS
10
129.238
20
-115.752
11
128.535
21
-116.456
0
LINE
8
BLACK
6
CONTINUOUS
10
128.535
20
-116.456
11
128.517
21
-116.47
0
LINE
8
BLACK
6
CONTINUOUS
10
128.517
20
-116.47
11
128.514
21
-116.473
0
LINE
8
BLACK
6
CONTINUOUS
10
128.514
20
-116.473
11
128.511
21
-116.474
0
LINE
8
BLACK
6
CONTINUOUS
10
128.511
20
-116.474
11
128.506
21
-116.478
0
LINE
8
BLACK
6
CONTINUOUS
10
128.506
20
-116.478
11
128.476
21
-116.484
0
LINE
8
BLACK
6
CONTINUOUS
10
128.476
20
-116.484
11
128.446
21
-116.493
0
LINE
8
BLACK
6
CONTINUOUS
10
128.446
20
-116.493
11
126.209
21
-116.493
0
LINE
8
BLACK
6
CONTINUOUS
10
126.209
20
-116.493
11
124.05
21
-118.652
0
LINE
8
BLACK
6
CONTINUOUS
10
124.05
20
-118.652
11
124.05
21
-120.723
0
LINE
8
BLACK
6
CONTINUOUS
10
124.05
20
-120.723
11
128.516
21
-125.189
0
LINE
8
BLACK
6
CONTINUOUS
10
128.516
20
-125.189
11
132.519
21
-125.189
0
LINE
8
BLACK
6
CONTINUOUS
10
132.519
20
-125.189
11
132.542
21
-125.193
0
LINE
8
BLACK
6
CONTINUOUS
10
132.542
20
-125.193
11
132.546
21
-125.192
0
LINE
8
BLACK
6
CONTINUOUS
10
132.546
20
-125.192
11
132.548
21
-125.194
0
LINE
8
BLACK
6
CONTINUOUS
10
132.548
20
-125.194
11
132.555
21
-125.195
0
LINE
8
BLACK
6
CONTINUOUS
10
132.555
20
-125.195
11
132.581
21
-125.211
0
LINE
8
BLACK
6
CONTINUOUS
10
132.581
20
-125.211
11
132.608
21
-125.226
0
LINE
8
BLACK
6
CONTINUOUS
10
132.608
20
-125.226
11
134.102
21
-126.72
0
LINE
8
BLACK
6
CONTINUOUS
10
134.102
20
-126.72
11
134.122
21
-126.702
0
LINE
8
BLACK
6
CONTINUOUS
10
134.122
20
-126.702
11
134.295
21
-126.595
0
LINE
8
BLACK
6
CONTINUOUS
10
134.295
20
-126.595
11
134.484
21
-126.522
0
LINE
8
BLACK
6
CONTINUOUS
10
134.484
20
-126.522
11
134.684
21
-126.485
0
LINE
8
BLACK
6
CONTINUOUS
10
134.684
20
-126.485
11
134.886
21
-126.485
0
LINE
8
BLACK
6
CONTINUOUS
10
134.886
20
-126.485
11
135.086
21
-126.522
0
LINE
8
BLACK
6
CONTINUOUS
10
135.086
20
-126.522
11
135.275
21
-126.595
0
LINE
8
BLACK
6
CONTINUOUS
10
135.275
20
-126.595
11
135.448
21
-126.702
0
LINE
8
BLACK
6
CONTINUOUS
10
135.448
20
-126.702
11
135.598
21
-126.839
0
LINE
8
BLACK
6
CONTINUOUS
10
135.598
20
-126.839
11
135.72
21
-127.001
0
LINE
8
BLACK
6
CONTINUOUS
10
135.72
20
-127.001
11
135.811
21
-127.183
0
LINE
8
BLACK
6
CONTINUOUS
10
135.811
20
-127.183
11
135.866
21
-127.378
0
LINE
8
BLACK
6
CONTINUOUS
10
135.866
20
-127.378
11
135.885
21
-127.58
0
LINE
8
BLACK
6
CONTINUOUS
10
135.885
20
-127.58
11
135.866
21
-127.782
0
LINE
8
BLACK
6
CONTINUOUS
10
135.866
20
-127.782
11
135.811
21
-127.977
0
LINE
8
BLACK
6
CONTINUOUS
10
135.811
20
-127.977
11
135.72
21
-128.159
0
LINE
8
BLACK
6
CONTINUOUS
10
135.72
20
-128.159
11
135.598
21
-128.321
0
LINE
8
BLACK
6
CONTINUOUS
10
135.598
20
-128.321
11
135.448
21
-128.458
0
LINE
8
BLACK
6
CONTINUOUS
10
135.448
20
-128.458
11
135.275
21
-128.565
0
LINE
8
BLACK
6
CONTINUOUS
10
135.275
20
-128.565
11
135.086
21
-128.638
0
LINE
8
BLACK
6
CONTINUOUS
10
135.086
20
-128.638
11
134.886
21
-128.675
0
LINE
8
BLACK
6
CONTINUOUS
10
134.886
20
-128.675
11
134.684
21
-128.675
0
LINE
8
BLACK
6
CONTINUOUS
10
134.684
20
-128.675
11
134.484
21
-128.638
0
LINE
8
BLACK
6
CONTINUOUS
10
134.484
20
-128.638
11
134.295
21
-128.565
0
LINE
8
BLACK
6
CONTINUOUS
10
134.295
20
-128.565
11
134.122
21
-128.458
0
LINE
8
BLACK
6
CONTINUOUS
10
134.122
20
-128.458
11
133.972
21
-128.321
0
LINE
8
BLACK
6
CONTINUOUS
10
133.972
20
-128.321
11
133.85
21
-128.159
0
LINE
8
BLACK
6
CONTINUOUS
10
133.85
20
-128.159
11
133.759
21
-127.977
0
LINE
8
BLACK
6
CONTINUOUS
10
133.759
20
-127.977
11
133.704
21
-127.782
0
LINE
8
BLACK
6
CONTINUOUS
10
133.704
20
-127.782
11
133.685
21
-127.58
0
LINE
8
BLACK
6
CONTINUOUS
10
133.685
20
-127.58
11
133.704
21
-127.378
0
LINE
8
BLACK
6
CONTINUOUS
10
133.704
20
-127.378
11
133.759
21
-127.183
0
LINE
8
BLACK
6
CONTINUOUS
10
133.759
20
-127.183
11
133.85
21
-127.001
0
LINE
8
BLACK
6
CONTINUOUS
10
133.85
20
-127.001
11
133.927
21
-126.899
0
LINE
8
BLACK
6
CONTINUOUS
10
133.927
20
-126.899
11
132.468
21
-125.439
0
LINE
8
BLACK
6
CONTINUOUS
10
132.468
20
-125.439
11
128.464
21
-125.439
0
LINE
8
BLACK
6
CONTINUOUS
10
128.464
20
-125.439
11
128.442
21
-125.436
0
LINE
8
BLACK
6
CONTINUOUS
10
128.442
20
-125.436
11
128.438
21
-125.437
0
LINE
8
BLACK
6
CONTINUOUS
10
128.438
20
-125.437
11
128.436
21
-125.435
0
LINE
8
BLACK
6
CONTINUOUS
10
128.436
20
-125.435
11
128.429
21
-125.434
0
LINE
8
BLACK
6
CONTINUOUS
10
128.429
20
-125.434
11
128.403
21
-125.418
0
LINE
8
BLACK
6
CONTINUOUS
10
128.403
20
-125.418
11
128.376
21
-125.403
0
LINE
8
BLACK
6
CONTINUOUS
10
128.376
20
-125.403
11
123.837
21
-120.863
0
LINE
8
BLACK
6
CONTINUOUS
10
123.837
20
-120.863
11
123.823
21
-120.846
0
LINE
8
BLACK
6
CONTINUOUS
10
123.823
20
-120.846
11
123.82
21
-120.843
0
LINE
8
BLACK
6
CONTINUOUS
10
123.82
20
-120.843
11
123.819
21
-120.84
0
LINE
8
BLACK
6
CONTINUOUS
10
123.819
20
-120.84
11
123.815
21
-120.835
0
LINE
8
BLACK
6
CONTINUOUS
10
123.815
20
-120.835
11
123.809
21
-120.805
0
LINE
8
BLACK
6
CONTINUOUS
10
123.809
20
-120.805
11
123.8
21
-120.775
0
LINE
8
BLACK
6
CONTINUOUS
10
123.8
20
-120.775
11
123.8
21
-118.6
0
LINE
8
BLACK
6
CONTINUOUS
10
123.8
20
-118.6
11
123.803
21
-118.578
0
LINE
8
BLACK
6
CONTINUOUS
10
123.803
20
-118.578
11
123.803
21
-118.573
0
LINE
8
BLACK
6
CONTINUOUS
10
123.803
20
-118.573
11
123.804
21
-118.571
0
LINE
8
BLACK
6
CONTINUOUS
10
123.804
20
-118.571
11
123.805
21
-118.565
0
LINE
8
BLACK
6
CONTINUOUS
10
123.805
20
-118.565
11
123.822
21
-118.539
0
LINE
8
BLACK
6
CONTINUOUS
10
123.822
20
-118.539
11
123.837
21
-118.512
0
LINE
8
BLACK
6
CONTINUOUS
10
123.837
20
-118.512
11
126.069
21
-116.279
0
LINE
8
BLACK
6
CONTINUOUS
10
126.069
20
-116.279
11
126.087
21
-116.266
0
LINE
8
BLACK
6
CONTINUOUS
10
126.087
20
-116.266
11
126.09
21
-116.263
0
LINE
8
BLACK
6
CONTINUOUS
10
126.09
20
-116.263
11
126.092
21
-116.262
0
LINE
8
BLACK
6
CONTINUOUS
10
126.092
20
-116.262
11
126.097
21
-116.258
0
LINE
8
BLACK
6
CONTINUOUS
10
126.097
20
-116.258
11
126.128
21
-116.252
0
LINE
8
BLACK
6
CONTINUOUS
10
126.128
20
-116.252
11
126.157
21
-116.243
0
LINE
8
BLACK
6
CONTINUOUS
10
126.157
20
-116.243
11
128.394
21
-116.243
0
LINE
8
BLACK
6
CONTINUOUS
10
128.394
20
-116.243
11
129.025
21
-115.612
0
LINE
8
BLACK
6
CONTINUOUS
10
129.025
20
-115.612
11
129.025
21
-113.616
0
LINE
8
BLACK
6
CONTINUOUS
10
129.025
20
-113.616
11
128.155
21
-112.746
0
LINE
8
BLACK
6
CONTINUOUS
10
128.155
20
-112.746
11
128.142
21
-112.729
0
LINE
8
BLACK
6
CONTINUOUS
10
128.142
20
-112.729
11
128.138
21
-112.726
0
LINE
8
BLACK
6
CONTINUOUS
10
128.138
20
-112.726
11
128.138
21
-112.723
0
LINE
8
BLACK
6
CONTINUOUS
10
128.138
20
-112.723
11
128.134
21
-112.718
0
LINE
8
BLACK
6
CONTINUOUS
10
128.134
20
-112.718
11
128.127
21
-112.688
0
LINE
8
BLACK
6
CONTINUOUS
10
128.127
20
-112.688
11
128.118
21
-112.658
0
LINE
8
BLACK
6
CONTINUOUS
10
128.118
20
-112.658
11
128.118
21
-103.727
0
LINE
8
BLACK
6
CONTINUOUS
10
128.118
20
-103.727
11
128.076
21
-103.685
0
LINE
8
BLACK
6
CONTINUOUS
10
128.076
20
-103.685
11
128.02
21
-103.574
0
LINE
8
BLACK
6
CONTINUOUS
10
128.02
20
-103.574
11
128
21
-103.45
0
LINE
8
BLACK
6
CONTINUOUS
10
128
20
-103.45
11
128.02
21
-103.326
0
LINE
8
BLACK
6
CONTINUOUS
10
128.02
20
-103.326
11
128.076
21
-103.215
0
LINE
8
BLACK
6
CONTINUOUS
10
128.076
20
-103.215
11
128.165
21
-103.126
0
LINE
8
BLACK
6
CONTINUOUS
10
128.165
20
-103.126
11
128.276
21
-103.07
0
LINE
8
BLACK
6
CONTINUOUS
10
128.276
20
-103.07
11
128.4
21
-103.05
0
LINE
8
BLACK
6
CONTINUOUS
10
128.4
20
-103.05
11
128.524
21
-103.07
0
LINE
8
BLACK
6
CONTINUOUS
10
119.957
20
-105.564
11
120.068
21
-105.621
0
LINE
8
BLACK
6
CONTINUOUS
10
120.068
20
-105.621
11
120.157
21
-105.709
0
LINE
8
BLACK
6
CONTINUOUS
10
120.157
20
-105.709
11
120.213
21
-105.821
0
LINE
8
BLACK
6
CONTINUOUS
10
120.213
20
-105.821
11
120.233
21
-105.944
0
LINE
8
BLACK
6
CONTINUOUS
10
120.233
20
-105.944
11
120.213
21
-106.068
0
LINE
8
BLACK
6
CONTINUOUS
10
120.213
20
-106.068
11
120.157
21
-106.18
0
LINE
8
BLACK
6
CONTINUOUS
10
120.157
20
-106.18
11
120.068
21
-106.268
0
LINE
8
BLACK
6
CONTINUOUS
10
120.068
20
-106.268
11
119.958
21
-106.324
0
LINE
8
BLACK
6
CONTINUOUS
10
119.958
20
-106.324
11
119.958
21
-114.062
0
LINE
8
BLACK
6
CONTINUOUS
10
119.958
20
-114.062
11
120.716
21
-114.82
0
LINE
8
BLACK
6
CONTINUOUS
10
120.716
20
-114.82
11
120.769
21
-114.793
0
LINE
8
BLACK
6
CONTINUOUS
10
120.769
20
-114.793
11
120.893
21
-114.774
0
LINE
8
BLACK
6
CONTINUOUS
10
120.893
20
-114.774
11
121.016
21
-114.793
0
LINE
8
BLACK
6
CONTINUOUS
10
121.016
20
-114.793
11
121.128
21
-114.85
0
LINE
8
BLACK
6
CONTINUOUS
10
121.128
20
-114.85
11
121.216
21
-114.938
0
LINE
8
BLACK
6
CONTINUOUS
10
121.216
20
-114.938
11
121.273
21
-115.05
0
LINE
8
BLACK
6
CONTINUOUS
10
121.273
20
-115.05
11
121.293
21
-115.174
0
LINE
8
BLACK
6
CONTINUOUS
10
121.293
20
-115.174
11
121.273
21
-115.297
0
LINE
8
BLACK
6
CONTINUOUS
10
121.273
20
-115.297
11
121.216
21
-115.409
0
LINE
8
BLACK
6
CONTINUOUS
10
121.216
20
-115.409
11
121.17
21
-115.455
0
LINE
8
BLACK
6
CONTINUOUS
10
121.17
20
-115.455
11
121.17
21
-116.36
0
LINE
8
BLACK
6
CONTINUOUS
10
121.17
20
-116.36
11
121.151
21
-116.456
0
LINE
8
BLACK
6
CONTINUOUS
10
121.151
20
-116.456
11
121.097
21
-116.537
0
LINE
8
BLACK
6
CONTINUOUS
10
121.097
20
-116.537
11
121.097
21
-116.537
0
LINE
8
BLACK
6
CONTINUOUS
10
121.097
20
-116.537
11
120.407
21
-117.227
0
LINE
8
BLACK
6
CONTINUOUS
10
120.407
20
-117.227
11
120.326
21
-117.281
0
LINE
8
BLACK
6
CONTINUOUS
10
120.326
20
-117.281
11
120.23
21
-117.3
0
LINE
8
BLACK
6
CONTINUOUS
10
120.23
20
-117.3
11
118.029
21
-117.3
0
LINE
8
BLACK
6
CONTINUOUS
10
118.029
20
-117.3
11
117.25
21
-118.079
0
LINE
8
BLACK
6
CONTINUOUS
10
117.25
20
-118.079
11
117.25
21
-121.65
0
LINE
8
BLACK
6
CONTINUOUS
10
117.25
20
-121.65
11
117.231
21
-121.746
0
LINE
8
BLACK
6
CONTINUOUS
10
117.231
20
-121.746
11
117.177
21
-121.827
0
LINE
8
BLACK
6
CONTINUOUS
10
117.177
20
-121.827
11
115.536
21
-123.467
0
LINE
8
BLACK
6
CONTINUOUS
10
115.536
20
-123.467
11
115.563
21
-123.505
0
LINE
8
BLACK
6
CONTINUOUS
10
115.563
20
-123.505
11
115.655
21
-123.702
0
LINE
8
BLACK
6
CONTINUOUS
10
115.655
20
-123.702
11
115.711
21
-123.913
0
LINE
8
BLACK
6
CONTINUOUS
10
115.711
20
-123.913
11
115.73
21
-124.13
0
LINE
8
BLACK
6
CONTINUOUS
10
115.73
20
-124.13
11
115.711
21
-124.347
0
LINE
8
BLACK
6
CONTINUOUS
10
115.711
20
-124.347
11
115.655
21
-124.558
0
LINE
8
BLACK
6
CONTINUOUS
10
115.655
20
-124.558
11
115.563
21
-124.755
0
LINE
8
BLACK
6
CONTINUOUS
10
115.563
20
-124.755
11
115.438
21
-124.933
0
LINE
8
BLACK
6
CONTINUOUS
10
115.438
20
-124.933
11
115.283
21
-125.088
0
LINE
8
BLACK
6
CONTINUOUS
10
115.283
20
-125.088
11
115.105
21
-125.213
0
LINE
8
BLACK
6
CONTINUOUS
10
115.105
20
-125.213
11
114.908
21
-125.305
0
LINE
8
BLACK
6
CONTINUOUS
10
114.908
20
-125.305
11
114.75
21
-125.347
0
LINE
8
BLACK
6
CONTINUOUS
10
114.75
20
-125.347
11
114.75
21
-125.828
0
LINE
8
BLACK
6
CONTINUOUS
10
114.75
20
-125.828
11
114.928
21
-125.875
0
LINE
8
BLACK
6
CONTINUOUS
10
114.928
20
-125.875
11
115.125
21
-125.967
0
LINE
8
BLACK
6
CONTINUOUS
10
115.125
20
-125.967
11
115.303
21
-126.092
0
LINE
8
BLACK
6
CONTINUOUS
10
115.303
20
-126.092
11
115.458
21
-126.247
0
LINE
8
BLACK
6
CONTINUOUS
10
115.458
20
-126.247
11
115.583
21
-126.425
0
LINE
8
BLACK
6
CONTINUOUS
10
115.583
20
-126.425
11
115.675
21
-126.622
0
LINE
8
BLACK
6
CONTINUOUS
10
115.675
20
-126.622
11
115.731
21
-126.833
0
LINE
8
BLACK
6
CONTINUOUS
10
115.731
20
-126.833
11
115.75
21
-127.05
0
LINE
8
BLACK
6
CONTINUOUS
10
115.75
20
-127.05
11
115.731
21
-127.267
0
LINE
8
BLACK
6
CONTINUOUS
10
115.731
20
-127.267
11
115.675
21
-127.478
0
LINE
8
BLACK
6
CONTINUOUS
10
115.675
20
-127.478
11
115.583
21
-127.675
0
LINE
8
BLACK
6
CONTINUOUS
10
115.583
20
-127.675
11
115.458
21
-127.853
0
LINE
8
BLACK
6
CONTINUOUS
10
115.458
20
-127.853
11
115.303
21
-128.008
0
LINE
8
BLACK
6
CONTINUOUS
10
115.303
20
-128.008
11
115.125
21
-128.133
0
LINE
8
BLACK
6
CONTINUOUS
10
115.125
20
-128.133
11
114.928
21
-128.225
0
LINE
8
BLACK
6
CONTINUOUS
10
114.928
20
-128.225
11
114.717
21
-128.281
0
LINE
8
BLACK
6
CONTINUOUS
10
114.717
20
-128.281
11
114.5
21
-128.3
0
LINE
8
BLACK
6
CONTINUOUS
10
114.5
20
-128.3
11
114.283
21
-128.281
0
LINE
8
BLACK
6
CONTINUOUS
10
114.283
20
-128.281
11
114.072
21
-128.225
0
LINE
8
BLACK
6
CONTINUOUS
10
114.072
20
-128.225
11
113.875
21
-128.133
0
LINE
8
BLACK
6
CONTINUOUS
10
113.875
20
-128.133
11
113.697
21
-128.008
0
LINE
8
BLACK
6
CONTINUOUS
10
113.697
20
-128.008
11
113.542
21
-127.853
0
LINE
8
BLACK
6
CONTINUOUS
10
113.542
20
-127.853
11
113.417
21
-127.675
0
LINE
8
BLACK
6
CONTINUOUS
10
113.417
20
-127.675
11
113.325
21
-127.478
0
LINE
8
BLACK
6
CONTINUOUS
10
113.325
20
-127.478
11
113.269
21
-127.267
0
LINE
8
BLACK
6
CONTINUOUS
10
113.269
20
-127.267
11
113.25
21
-127.05
0
LINE
8
BLACK
6
CONTINUOUS
10
113.25
20
-127.05
11
113.269
21
-126.833
0
LINE
8
BLACK
6
CONTINUOUS
10
113.269
20
-126.833
11
113.325
21
-126.622
0
LINE
8
BLACK
6
CONTINUOUS
10
113.325
20
-126.622
11
113.417
21
-126.425
0
LINE
8
BLACK
6
CONTINUOUS
10
113.417
20
-126.425
11
113.542
21
-126.247
0
LINE
8
BLACK
6
CONTINUOUS
10
113.542
20
-126.247
11
113.697
21
-126.092
0
LINE
8
BLACK
6
CONTINUOUS
10
113.697
20
-126.092
11
113.875
21
-125.967
0
LINE
8
BLACK
6
CONTINUOUS
10
113.875
20
-125.967
11
114.072
21
-125.875
0
LINE
8
BLACK
6
CONTINUOUS
10
114.072
20
-125.875
11
114.25
21
-125.828
0
LINE
8
BLACK
6
CONTINUOUS
10
114.25
20
-125.828
11
114.25
21
-125.358
0
LINE
8
BLACK
6
CONTINUOUS
10
114.25
20
-125.358
11
114.052
21
-125.305
0
LINE
8
BLACK
6
CONTINUOUS
10
114.052
20
-125.305
11
113.855
21
-125.213
0
LINE
8
BLACK
6
CONTINUOUS
10
113.855
20
-125.213
11
113.677
21
-125.088
0
LINE
8
BLACK
6
CONTINUOUS
10
113.677
20
-125.088
11
113.522
21
-124.933
0
LINE
8
BLACK
6
CONTINUOUS
10
113.522
20
-124.933
11
113.397
21
-124.755
0
LINE
8
BLACK
6
CONTINUOUS
10
113.397
20
-124.755
11
113.305
21
-124.558
0
LINE
8
BLACK
6
CONTINUOUS
10
113.305
20
-124.558
11
113.249
21
-124.347
0
LINE
8
BLACK
6
CONTINUOUS
10
113.249
20
-124.347
11
113.23
21
-124.13
0
LINE
8
BLACK
6
CONTINUOUS
10
113.23
20
-124.13
11
113.249
21
-123.913
0
LINE
8
BLACK
6
CONTINUOUS
10
113.249
20
-123.913
11
113.305
21
-123.702
0
LINE
8
BLACK
6
CONTINUOUS
10
113.305
20
-123.702
11
113.397
21
-123.505
0
LINE
8
BLACK
6
CONTINUOUS
10
113.397
20
-123.505
11
113.522
21
-123.327
0
LINE
8
BLACK
6
CONTINUOUS
10
113.522
20
-123.327
11
113.677
21
-123.172
0
LINE
8
BLACK
6
CONTINUOUS
10
113.677
20
-123.172
11
113.855
21
-123.047
0
LINE
8
BLACK
6
CONTINUOUS
10
113.855
20
-123.047
11
114.052
21
-122.955
0
LINE
8
BLACK
6
CONTINUOUS
10
114.052
20
-122.955
11
114.263
21
-122.899
0
LINE
8
BLACK
6
CONTINUOUS
10
114.263
20
-122.899
11
114.48
21
-122.88
0
LINE
8
BLACK
6
CONTINUOUS
10
114.48
20
-122.88
11
114.697
21
-122.899
0
LINE
8
BLACK
6
CONTINUOUS
10
114.697
20
-122.899
11
114.908
21
-122.955
0
LINE
8
BLACK
6
CONTINUOUS
10
114.908
20
-122.955
11
115.105
21
-123.047
0
LINE
8
BLACK
6
CONTINUOUS
10
115.105
20
-123.047
11
115.19
21
-123.107
0
LINE
8
BLACK
6
CONTINUOUS
10
115.19
20
-123.107
11
116.75
21
-121.546
0
LINE
8
BLACK
6
CONTINUOUS
10
116.75
20
-121.546
11
116.75
21
-118.079
0
LINE
8
BLACK
6
CONTINUOUS
10
116.75
20
-118.079
11
114.161
21
-115.49
0
LINE
8
BLACK
6
CONTINUOUS
10
114.161
20
-115.49
11
113.99
21
-115.49
0
LINE
8
BLACK
6
CONTINUOUS
10
113.99
20
-115.49
11
113.99
21
-116.09
0
LINE
8
BLACK
6
CONTINUOUS
10
113.99
20
-116.09
11
112.29
21
-116.09
0
LINE
8
BLACK
6
CONTINUOUS
10
112.29
20
-116.09
11
112.29
21
-114.39
0
LINE
8
BLACK
6
CONTINUOUS
10
112.29
20
-114.39
11
113.99
21
-114.39
0
LINE
8
BLACK
6
CONTINUOUS
10
113.99
20
-114.39
11
113.99
21
-114.99
0
LINE
8
BLACK
6
CONTINUOUS
10
113.99
20
-114.99
11
114.265
21
-114.99
0
LINE
8
BLACK
6
CONTINUOUS
10
114.265
20
-114.99
11
114.361
21
-115.009
0
LINE
8
BLACK
6
CONTINUOUS
10
114.361
20
-115.009
11
114.442
21
-115.063
0
LINE
8
BLACK
6
CONTINUOUS
10
114.442
20
-115.063
11
117
21
-117.621
0
LINE
8
BLACK
6
CONTINUOUS
10
117
20
-117.621
11
117.748
21
-116.873
0
LINE
8
BLACK
6
CONTINUOUS
10
117.748
20
-116.873
11
117.748
21
-116.873
0
LINE
8
BLACK
6
CONTINUOUS
10
117.748
20
-116.873
11
117.829
21
-116.819
0
LINE
8
BLACK
6
CONTINUOUS
10
117.829
20
-116.819
11
117.829
21
-116.819
0
LINE
8
BLACK
6
CONTINUOUS
10
117.829
20
-116.819
11
117.925
21
-116.8
0
LINE
8
BLACK
6
CONTINUOUS
10
117.925
20
-116.8
11
117.925
21
-116.8
0
LINE
8
BLACK
6
CONTINUOUS
10
117.925
20
-116.8
11
120.126
21
-116.8
0
LINE
8
BLACK
6
CONTINUOUS
10
120.126
20
-116.8
11
120.67
21
-116.256
0
LINE
8
BLACK
6
CONTINUOUS
10
120.67
20
-116.256
11
120.67
21
-115.504
0
LINE
8
BLACK
6
CONTINUOUS
10
120.67
20
-115.504
11
120.658
21
-115.497
0
LINE
8
BLACK
6
CONTINUOUS
10
120.658
20
-115.497
11
120.569
21
-115.409
0
LINE
8
BLACK
6
CONTINUOUS
10
120.569
20
-115.409
11
120.512
21
-115.297
0
LINE
8
BLACK
6
CONTINUOUS
10
120.512
20
-115.297
11
120.493
21
-115.174
0
LINE
8
BLACK
6
CONTINUOUS
10
120.493
20
-115.174
11
120.512
21
-115.05
0
LINE
8
BLACK
6
CONTINUOUS
10
120.512
20
-115.05
11
120.539
21
-114.997
0
LINE
8
BLACK
6
CONTINUOUS
10
120.539
20
-114.997
11
119.745
21
-114.202
0
LINE
8
BLACK
6
CONTINUOUS
10
119.745
20
-114.202
11
119.731
21
-114.184
0
LINE
8
BLACK
6
CONTINUOUS
10
119.731
20
-114.184
11
119.728
21
-114.181
0
LINE
8
BLACK
6
CONTINUOUS
10
119.728
20
-114.181
11
119.727
21
-114.179
0
LINE
8
BLACK
6
CONTINUOUS
10
119.727
20
-114.179
11
119.723
21
-114.174
0
LINE
8
BLACK
6
CONTINUOUS
10
119.723
20
-114.174
11
119.717
21
-114.143
0
LINE
8
BLACK
6
CONTINUOUS
10
119.717
20
-114.143
11
119.708
21
-114.114
0
LINE
8
BLACK
6
CONTINUOUS
10
119.708
20
-114.114
11
119.708
21
-106.324
0
LINE
8
BLACK
6
CONTINUOUS
10
119.708
20
-106.324
11
119.598
21
-106.268
0
LINE
8
BLACK
6
CONTINUOUS
10
119.598
20
-106.268
11
119.509
21
-106.18
0
LINE
8
BLACK
6
CONTINUOUS
10
119.509
20
-106.18
11
119.452
21
-106.068
0
LINE
8
BLACK
6
CONTINUOUS
10
119.452
20
-106.068
11
119.433
21
-105.944
0
LINE
8
BLACK
6
CONTINUOUS
10
119.433
20
-105.944
11
119.452
21
-105.821
0
LINE
8
BLACK
6
CONTINUOUS
10
119.452
20
-105.821
11
119.509
21
-105.709
0
LINE
8
BLACK
6
CONTINUOUS
10
119.509
20
-105.709
11
119.598
21
-105.621
0
LINE
8
BLACK
6
CONTINUOUS
10
119.598
20
-105.621
11
119.709
21
-105.564
0
LINE
8
BLACK
6
CONTINUOUS
10
119.709
20
-105.564
11
119.833
21
-105.544
0
LINE
8
BLACK
6
CONTINUOUS
10
119.833
20
-105.544
11
119.957
21
-105.564
0
LINE
8
BLACK
6
CONTINUOUS
10
120.447
20
-122.899
11
120.658
21
-122.955
0
LINE
8
BLACK
6
CONTINUOUS
10
120.658
20
-122.955
11
120.855
21
-123.047
0
LINE
8
BLACK
6
CONTINUOUS
10
120.855
20
-123.047
11
121.033
21
-123.172
0
LINE
8
BLACK
6
CONTINUOUS
10
121.033
20
-123.172
11
121.188
21
-123.327
0
LINE
8
BLACK
6
CONTINUOUS
10
121.188
20
-123.327
11
121.313
21
-123.505
0
LINE
8
BLACK
6
CONTINUOUS
10
121.313
20
-123.505
11
121.405
21
-123.702
0
LINE
8
BLACK
6
CONTINUOUS
10
121.405
20
-123.702
11
121.461
21
-123.913
0
LINE
8
BLACK
6
CONTINUOUS
10
121.461
20
-123.913
11
121.48
21
-124.13
0
LINE
8
BLACK
6
CONTINUOUS
10
121.48
20
-124.13
11
121.461
21
-124.347
0
LINE
8
BLACK
6
CONTINUOUS
10
121.461
20
-124.347
11
121.405
21
-124.558
0
LINE
8
BLACK
6
CONTINUOUS
10
121.405
20
-124.558
11
121.313
21
-124.755
0
LINE
8
BLACK
6
CONTINUOUS
10
121.313
20
-124.755
11
121.188
21
-124.933
0
LINE
8
BLACK
6
CONTINUOUS
10
121.188
20
-124.933
11
121.033
21
-125.088
0
LINE
8
BLACK
6
CONTINUOUS
10
121.033
20
-125.088
11
120.855
21
-125.213
0
LINE
8
BLACK
6
CONTINUOUS
10
120.855
20
-125.213
11
120.658
21
-125.305
0
LINE
8
BLACK
6
CONTINUOUS
10
120.658
20
-125.305
11
120.5
21
-125.347
0
LINE
8
BLACK
6
CONTINUOUS
10
120.5
20
-125.347
11
120.5
21
-125.828
0
LINE
8
BLACK
6
CONTINUOUS
10
120.5
20
-125.828
11
120.678
21
-125.875
0
LINE
8
BLACK
6
CONTINUOUS
10
120.678
20
-125.875
11
120.875
21
-125.967
0
LINE
8
BLACK
6
CONTINUOUS
10
120.875
20
-125.967
11
121.053
21
-126.092
0
LINE
8
BLACK
6
CONTINUOUS
10
121.053
20
-126.092
11
121.208
21
-126.247
0
LINE
8
BLACK
6
CONTINUOUS
10
121.208
20
-126.247
11
121.333
21
-126.425
0
LINE
8
BLACK
6
CONTINUOUS
10
121.333
20
-126.425
11
121.425
21
-126.622
0
LINE
8
BLACK
6
CONTINUOUS
10
121.425
20
-126.622
11
121.481
21
-126.833
0
LINE
8
BLACK
6
CONTINUOUS
10
121.481
20
-126.833
11
121.5
21
-127.05
0
LINE
8
BLACK
6
CONTINUOUS
10
121.5
20
-127.05
11
121.481
21
-127.267
0
LINE
8
BLACK
6
CONTINUOUS
10
121.481
20
-127.267
11
121.425
21
-127.478
0
LINE
8
BLACK
6
CONTINUOUS
10
121.425
20
-127.478
11
121.333
21
-127.675
0
LINE
8
BLACK
6
CONTINUOUS
10
121.333
20
-127.675
11
121.208
21
-127.853
0
LINE
8
BLACK
6
CONTINUOUS
10
121.208
20
-127.853
11
121.053
21
-128.008
0
LINE
8
BLACK
6
CONTINUOUS
10
121.053
20
-128.008
11
120.875
21
-128.133
0
LINE
8
BLACK
6
CONTINUOUS
10
120.875
20
-128.133
11
120.678
21
-128.225
0
LINE
8
BLACK
6
CONTINUOUS
10
120.678
20
-128.225
11
120.467
21
-128.281
0
LINE
8
BLACK
6
CONTINUOUS
10
120.467
20
-128.281
11
120.25
21
-128.3
0
LINE
8
BLACK
6
CONTINUOUS
10
120.25
20
-128.3
11
120.033
21
-128.281
0
LINE
8
BLACK
6
CONTINUOUS
10
120.033
20
-128.281
11
119.822
21
-128.225
0
LINE
8
BLACK
6
CONTINUOUS
10
119.822
20
-128.225
11
119.625
21
-128.133
0
LINE
8
BLACK
6
CONTINUOUS
10
119.625
20
-128.133
11
119.447
21
-128.008
0
LINE
8
BLACK
6
CONTINUOUS
10
119.447
20
-128.008
11
119.292
21
-127.853
0
LINE
8
BLACK
6
CONTINUOUS
10
119.292
20
-127.853
11
119.167
21
-127.675
0
LINE
8
BLACK
6
CONTINUOUS
10
119.167
20
-127.675
11
119.075
21
-127.478
0
LINE
8
BLACK
6
CONTINUOUS
10
119.075
20
-127.478
11
119.019
21
-127.267
0
LINE
8
BLACK
6
CONTINUOUS
10
119.019
20
-127.267
11
119
21
-127.05
0
LINE
8
BLACK
6
CONTINUOUS
10
119
20
-127.05
11
119.019
21
-126.833
0
LINE
8
BLACK
6
CONTINUOUS
10
119.019
20
-126.833
11
119.075
21
-126.622
0
LINE
8
BLACK
6
CONTINUOUS
10
119.075
20
-126.622
11
119.167
21
-126.425
0
LINE
8
BLACK
6
CONTINUOUS
10
119.167
20
-126.425
11
119.292
21
-126.247
0
LINE
8
BLACK
6
CONTINUOUS
10
119.292
20
-126.247
11
119.447
21
-126.092
0
LINE
8
BLACK
6
CONTINUOUS
10
119.447
20
-126.092
11
119.625
21
-125.967
0
LINE
8
BLACK
6
CONTINUOUS
10
119.625
20
-125.967
11
119.822
21
-125.875
0
LINE
8
BLACK
6
CONTINUOUS
10
119.822
20
-125.875
11
120
21
-125.828
0
LINE
8
BLACK
6
CONTINUOUS
10
120
20
-125.828
11
120
21
-125.358
0
LINE
8
BLACK
6
CONTINUOUS
10
120
20
-125.358
11
119.802
21
-125.305
0
LINE
8
BLACK
6
CONTINUOUS
10
119.802
20
-125.305
11
119.605
21
-125.213
0
LINE
8
BLACK
6
CONTINUOUS
10
119.605
20
-125.213
11
119.427
21
-125.088
0
LINE
8
BLACK
6
CONTINUOUS
10
119.427
20
-125.088
11
119.272
21
-124.933
0
LINE
8
BLACK
6
CONTINUOUS
10
119.272
20
-124.933
11
119.147
21
-124.755
0
LINE
8
BLACK
6
CONTINUOUS
10
119.147
20
-124.755
11
119.055
21
-124.558
0
LINE
8
BLACK
6
CONTINUOUS
10
119.055
20
-124.558
11
118.999
21
-124.347
0
LINE
8
BLACK
6
CONTINUOUS
10
118.999
20
-124.347
11
118.98
21
-124.13
0
LINE
8
BLACK
6
CONTINUOUS
10
118.98
20
-124.13
11
118.999
21
-123.913
0
LINE
8
BLACK
6
CONTINUOUS
10
118.999
20
-123.913
11
119.055
21
-123.702
0
LINE
8
BLACK
6
CONTINUOUS
10
119.055
20
-123.702
11
119.147
21
-123.505
0
LINE
8
BLACK
6
CONTINUOUS
10
119.147
20
-123.505
11
119.272
21
-123.327
0
LINE
8
BLACK
6
CONTINUOUS
10
119.272
20
-123.327
11
119.427
21
-123.172
0
LINE
8
BLACK
6
CONTINUOUS
10
119.427
20
-123.172
11
119.605
21
-123.047
0
LINE
8
BLACK
6
CONTINUOUS
10
119.605
20
-123.047
11
119.802
21
-122.955
0
LINE
8
BLACK
6
CONTINUOUS
10
119.802
20
-122.955
11
120.013
21
-122.899
0
LINE
8
BLACK
6
CONTINUOUS
10
120.013
20
-122.899
11
120.23
21
-122.88
0
LINE
8
BLACK
6
CONTINUOUS
10
120.23
20
-122.88
11
120.447
21
-122.899
0
LINE
8
BLACK
6
CONTINUOUS
10
131.534
20
-113.79
11
131.646
21
-113.846
0
LINE
8
BLACK
6
CONTINUOUS
10
131.646
20
-113.846
11
131.734
21
-113.935
0
LINE
8
BLACK
6
CONTINUOUS
10
131.734
20
-113.935
11
131.79
21
-114.045
0
LINE
8
BLACK
6
CONTINUOUS
10
131.79
20
-114.045
11
133.446
21
-114.045
0
LINE
8
BLACK
6
CONTINUOUS
10
133.446
20
-114.045
11
133.501
21
-113.935
0
LINE
8
BLACK
6
CONTINUOUS
10
133.501
20
-113.935
11
133.59
21
-113.847
0
LINE
8
BLACK
6
CONTINUOUS
10
133.59
20
-113.847
11
133.701
21
-113.79
0
LINE
8
BLACK
6
CONTINUOUS
10
133.701
20
-113.79
11
133.825
21
-113.77
0
LINE
8
BLACK
6
CONTINUOUS
10
133.825
20
-113.77
11
133.949
21
-113.79
0
LINE
8
BLACK
6
CONTINUOUS
10
133.949
20
-113.79
11
134.06
21
-113.847
0
LINE
8
BLACK
6
CONTINUOUS
10
134.06
20
-113.847
11
134.149
21
-113.935
0
LINE
8
BLACK
6
CONTINUOUS
10
134.149
20
-113.935
11
134.205
21
-114.047
0
LINE
8
BLACK
6
CONTINUOUS
10
134.205
20
-114.047
11
134.225
21
-114.17
0
LINE
8
BLACK
6
CONTINUOUS
10
134.225
20
-114.17
11
134.205
21
-114.294
0
LINE
8
BLACK
6
CONTINUOUS
10
134.205
20
-114.294
11
134.149
21
-114.406
0
LINE
8
BLACK
6
CONTINUOUS
10
134.149
20
-114.406
11
134.06
21
-114.494
0
LINE
8
BLACK
6
CONTINUOUS
10
134.06
20
-114.494
11
133.95
21
-114.55
0
LINE
8
BLACK
6
CONTINUOUS
10
133.95
20
-114.55
11
133.95
21
-115.648
0
LINE
8
BLACK
6
CONTINUOUS
10
133.95
20
-115.648
11
134.713
21
-116.412
0
LINE
8
BLACK
6
CONTINUOUS
10
134.713
20
-116.412
11
134.727
21
-116.429
0
LINE
8
BLACK
6
CONTINUOUS
10
134.727
20
-116.429
11
134.73
21
-116.432
0
LINE
8
BLACK
6
CONTINUOUS
10
134.73
20
-116.432
11
134.731
21
-116.435
0
LINE
8
BLACK
6
CONTINUOUS
10
134.731
20
-116.435
11
134.735
21
-116.44
0
LINE
8
BLACK
6
CONTINUOUS
10
134.735
20
-116.44
11
134.741
21
-116.47
0
LINE
8
BLACK
6
CONTINUOUS
10
134.741
20
-116.47
11
134.75
21
-116.5
0
LINE
8
BLACK
6
CONTINUOUS
10
134.75
20
-116.5
11
134.75
21
-123.573
0
LINE
8
BLACK
6
CONTINUOUS
10
134.75
20
-123.573
11
134.794
21
-123.58
0
LINE
8
BLACK
6
CONTINUOUS
10
134.794
20
-123.58
11
134.905
21
-123.636
0
LINE
8
BLACK
6
CONTINUOUS
10
134.905
20
-123.636
11
134.994
21
-123.725
0
LINE
8
BLACK
6
CONTINUOUS
10
134.994
20
-123.725
11
135.05
21
-123.836
0
LINE
8
BLACK
6
CONTINUOUS
10
135.05
20
-123.836
11
135.07
21
-123.96
0
LINE
8
BLACK
6
CONTINUOUS
10
135.07
20
-123.96
11
135.05
21
-124.084
0
LINE
8
BLACK
6
CONTINUOUS
10
135.05
20
-124.084
11
134.994
21
-124.195
0
LINE
8
BLACK
6
CONTINUOUS
10
134.994
20
-124.195
11
134.905
21
-124.284
0
LINE
8
BLACK
6
CONTINUOUS
10
134.905
20
-124.284
11
134.794
21
-124.34
0
LINE
8
BLACK
6
CONTINUOUS
10
134.794
20
-124.34
11
134.67
21
-124.36
0
LINE
8
BLACK
6
CONTINUOUS
10
134.67
20
-124.36
11
134.546
21
-124.34
0
LINE
8
BLACK
6
CONTINUOUS
10
134.546
20
-124.34
11
134.435
21
-124.284
0
LINE
8
BLACK
6
CONTINUOUS
10
134.435
20
-124.284
11
134.346
21
-124.195
0
LINE
8
BLACK
6
CONTINUOUS
10
134.346
20
-124.195
11
134.29
21
-124.084
0
LINE
8
BLACK
6
CONTINUOUS
10
134.29
20
-124.084
11
134.27
21
-123.96
0
LINE
8
BLACK
6
CONTINUOUS
10
134.27
20
-123.96
11
134.29
21
-123.836
0
LINE
8
BLACK
6
CONTINUOUS
10
134.29
20
-123.836
11
134.346
21
-123.725
0
LINE
8
BLACK
6
CONTINUOUS
10
134.346
20
-123.725
11
134.435
21
-123.636
0
LINE
8
BLACK
6
CONTINUOUS
10
134.435
20
-123.636
11
134.5
21
-123.603
0
LINE
8
BLACK
6
CONTINUOUS
10
134.5
20
-123.603
11
134.5
21
-116.552
0
LINE
8
BLACK
6
CONTINUOUS
10
134.5
20
-116.552
11
133.737
21
-115.788
0
LINE
8
BLACK
6
CONTINUOUS
10
133.737
20
-115.788
11
133.723
21
-115.771
0
LINE
8
BLACK
6
CONTINUOUS
10
133.723
20
-115.771
11
133.72
21
-115.768
0
LINE
8
BLACK
6
CONTINUOUS
10
133.72
20
-115.768
11
133.719
21
-115.765
0
LINE
8
BLACK
6
CONTINUOUS
10
133.719
20
-115.765
11
133.715
21
-115.76
0
LINE
8
BLACK
6
CONTINUOUS
10
133.715
20
-115.76
11
133.709
21
-115.73
0
LINE
8
BLACK
6
CONTINUOUS
10
133.709
20
-115.73
11
133.7
21
-115.7
0
LINE
8
BLACK
6
CONTINUOUS
10
133.7
20
-115.7
11
133.7
21
-114.55
0
LINE
8
BLACK
6
CONTINUOUS
10
133.7
20
-114.55
11
133.59
21
-114.494
0
LINE
8
BLACK
6
CONTINUOUS
10
133.59
20
-114.494
11
133.501
21
-114.406
0
LINE
8
BLACK
6
CONTINUOUS
10
133.501
20
-114.406
11
133.445
21
-114.295
0
LINE
8
BLACK
6
CONTINUOUS
10
133.445
20
-114.295
11
131.79
21
-114.295
0
LINE
8
BLACK
6
CONTINUOUS
10
131.79
20
-114.295
11
131.734
21
-114.405
0
LINE
8
BLACK
6
CONTINUOUS
10
131.734
20
-114.405
11
131.646
21
-114.494
0
LINE
8
BLACK
6
CONTINUOUS
10
131.646
20
-114.494
11
131.534
21
-114.55
0
LINE
8
BLACK
6
CONTINUOUS
10
131.534
20
-114.55
11
131.41
21
-114.57
0
LINE
8
BLACK
6
CONTINUOUS
10
131.41
20
-114.57
11
131.287
21
-114.55
0
LINE
8
BLACK
6
CONTINUOUS
10
131.287
20
-114.55
11
131.175
21
-114.494
0
LINE
8
BLACK
6
CONTINUOUS
10
131.175
20
-114.494
11
131.087
21
-114.405
0
LINE
8
BLACK
6
CONTINUOUS
10
131.087
20
-114.405
11
131.03
21
-114.294
0
LINE
8
BLACK
6
CONTINUOUS
10
131.03
20
-114.294
11
131.01
21
-114.17
0
LINE
8
BLACK
6
CONTINUOUS
10
131.01
20
-114.17
11
131.03
21
-114.046
0
LINE
8
BLACK
6
CONTINUOUS
10
131.03
20
-114.046
11
131.087
21
-113.935
0
LINE
8
BLACK
6
CONTINUOUS
10
131.087
20
-113.935
11
131.175
21
-113.846
0
LINE
8
BLACK
6
CONTINUOUS
10
131.175
20
-113.846
11
131.287
21
-113.79
0
LINE
8
BLACK
6
CONTINUOUS
10
131.287
20
-113.79
11
131.41
21
-113.77
0
LINE
8
BLACK
6
CONTINUOUS
10
131.41
20
-113.77
11
131.534
21
-113.79
0
LINE
8
BLACK
6
CONTINUOUS
10
125.874
20
-119.507
11
125.985
21
-119.564
0
LINE
8
BLACK
6
CONTINUOUS
10
125.985
20
-119.564
11
126.074
21
-119.652
0
LINE
8
BLACK
6
CONTINUOUS
10
126.074
20
-119.652
11
126.13
21
-119.764
0
LINE
8
BLACK
6
CONTINUOUS
10
126.13
20
-119.764
11
126.15
21
-119.887
0
LINE
8
BLACK
6
CONTINUOUS
10
126.15
20
-119.887
11
126.13
21
-120.011
0
LINE
8
BLACK
6
CONTINUOUS
10
126.13
20
-120.011
11
126.074
21
-120.123
0
LINE
8
BLACK
6
CONTINUOUS
10
126.074
20
-120.123
11
125.985
21
-120.211
0
LINE
8
BLACK
6
CONTINUOUS
10
125.985
20
-120.211
11
125.875
21
-120.267
0
LINE
8
BLACK
6
CONTINUOUS
10
125.875
20
-120.267
11
125.875
21
-120.498
0
LINE
8
BLACK
6
CONTINUOUS
10
125.875
20
-120.498
11
127.951
21
-122.575
0
LINE
8
BLACK
6
CONTINUOUS
10
127.951
20
-122.575
11
128.12
21
-122.575
0
LINE
8
BLACK
6
CONTINUOUS
10
128.12
20
-122.575
11
128.176
21
-122.464
0
LINE
8
BLACK
6
CONTINUOUS
10
128.176
20
-122.464
11
128.265
21
-122.376
0
LINE
8
BLACK
6
CONTINUOUS
10
128.265
20
-122.376
11
128.376
21
-122.319
0
LINE
8
BLACK
6
CONTINUOUS
10
128.376
20
-122.319
11
128.5
21
-122.299
0
LINE
8
BLACK
6
CONTINUOUS
10
128.5
20
-122.299
11
128.624
21
-122.319
0
LINE
8
BLACK
6
CONTINUOUS
10
128.624
20
-122.319
11
128.735
21
-122.376
0
LINE
8
BLACK
6
CONTINUOUS
10
128.735
20
-122.376
11
128.824
21
-122.464
0
LINE
8
BLACK
6
CONTINUOUS
10
128.824
20
-122.464
11
128.88
21
-122.576
0
LINE
8
BLACK
6
CONTINUOUS
10
128.88
20
-122.576
11
128.9
21
-122.7
0
LINE
8
BLACK
6
CONTINUOUS
10
128.9
20
-122.7
11
128.88
21
-122.823
0
LINE
8
BLACK
6
CONTINUOUS
10
128.88
20
-122.823
11
128.824
21
-122.935
0
LINE
8
BLACK
6
CONTINUOUS
10
128.824
20
-122.935
11
128.735
21
-123.023
0
LINE
8
BLACK
6
CONTINUOUS
10
128.735
20
-123.023
11
128.624
21
-123.08
0
LINE
8
BLACK
6
CONTINUOUS
10
128.624
20
-123.08
11
128.5
21
-123.099
0
LINE
8
BLACK
6
CONTINUOUS
10
128.5
20
-123.099
11
128.376
21
-123.08
0
LINE
8
BLACK
6
CONTINUOUS
10
128.376
20
-123.08
11
128.265
21
-123.023
0
LINE
8
BLACK
6
CONTINUOUS
10
128.265
20
-123.023
11
128.176
21
-122.935
0
LINE
8
BLACK
6
CONTINUOUS
10
128.176
20
-122.935
11
128.12
21
-122.825
0
LINE
8
BLACK
6
CONTINUOUS
10
128.12
20
-122.825
11
127.899
21
-122.825
0
LINE
8
BLACK
6
CONTINUOUS
10
127.899
20
-122.825
11
127.877
21
-122.821
0
LINE
8
BLACK
6
CONTINUOUS
10
127.877
20
-122.821
11
127.873
21
-122.822
0
LINE
8
BLACK
6
CONTINUOUS
10
127.873
20
-122.822
11
127.871
21
-122.82
0
LINE
8
BLACK
6
CONTINUOUS
10
127.871
20
-122.82
11
127.864
21
-122.819
0
LINE
8
BLACK
6
CONTINUOUS
10
127.864
20
-122.819
11
127.838
21
-122.803
0
LINE
8
BLACK
6
CONTINUOUS
10
127.838
20
-122.803
11
127.811
21
-122.788
0
LINE
8
BLACK
6
CONTINUOUS
10
127.811
20
-122.788
11
125.662
21
-120.638
0
LINE
8
BLACK
6
CONTINUOUS
10
125.662
20
-120.638
11
125.648
21
-120.621
0
LINE
8
BLACK
6
CONTINUOUS
10
125.648
20
-120.621
11
125.645
21
-120.618
0
LINE
8
BLACK
6
CONTINUOUS
10
125.645
20
-120.618
11
125.644
21
-120.615
0
LINE
8
BLACK
6
CONTINUOUS
10
125.644
20
-120.615
11
125.64
21
-120.61
0
LINE
8
BLACK
6
CONTINUOUS
10
125.64
20
-120.61
11
125.634
21
-120.58
0
LINE
8
BLACK
6
CONTINUOUS
10
125.634
20
-120.58
11
125.625
21
-120.55
0
LINE
8
BLACK
6
CONTINUOUS
10
125.625
20
-120.55
11
125.625
21
-120.267
0
LINE
8
BLACK
6
CONTINUOUS
10
125.625
20
-120.267
11
125.515
21
-120.211
0
LINE
8
BLACK
6
CONTINUOUS
10
125.515
20
-120.211
11
125.426
21
-120.123
0
LINE
8
BLACK
6
CONTINUOUS
10
125.426
20
-120.123
11
125.37
21
-120.011
0
LINE
8
BLACK
6
CONTINUOUS
10
125.37
20
-120.011
11
125.35
21
-119.887
0
LINE
8
BLACK
6
CONTINUOUS
10
125.35
20
-119.887
11
125.37
21
-119.764
0
LINE
8
BLACK
6
CONTINUOUS
10
125.37
20
-119.764
11
125.426
21
-119.652
0
LINE
8
BLACK
6
CONTINUOUS
10
125.426
20
-119.652
11
125.515
21
-119.564
0
LINE
8
BLACK
6
CONTINUOUS
10
125.515
20
-119.564
11
125.626
21
-119.507
0
LINE
8
BLACK
6
CONTINUOUS
10
125.626
20
-119.507
11
125.75
21
-119.487
0
LINE
8
BLACK
6
CONTINUOUS
10
125.75
20
-119.487
11
125.874
21
-119.507
0
LINE
8
BLACK
6
CONTINUOUS
10
130.075
20
-122.875
11
129.225
21
-122.875
0
LINE
8
BLACK
6
CONTINUOUS
10
129.225
20
-122.875
11
129.225
21
-122.025
0
LINE
8
BLACK
6
CONTINUOUS
10
129.225
20
-122.025
11
130.075
21
-122.025
0
LINE
8
BLACK
6
CONTINUOUS
10
130.075
20
-122.025
11
130.075
21
-122.875
0
LINE
8
BLACK
6
CONTINUOUS
10
130.781
20
-122.046
11
130.9
21
-122.106
0
LINE
8
BLACK
6
CONTINUOUS
10
130.9
20
-122.106
11
130.994
21
-122.2
0
LINE
8
BLACK
6
CONTINUOUS
10
130.994
20
-122.2
11
131.054
21
-122.319
0
LINE
8
BLACK
6
CONTINUOUS
10
131.054
20
-122.319
11
131.075
21
-122.45
0
LINE
8
BLACK
6
CONTINUOUS
10
131.075
20
-122.45
11
131.054
21
-122.581
0
LINE
8
BLACK
6
CONTINUOUS
10
131.054
20
-122.581
11
130.994
21
-122.7
0
LINE
8
BLACK
6
CONTINUOUS
10
130.994
20
-122.7
11
130.9
21
-122.794
0
LINE
8
BLACK
6
CONTINUOUS
10
130.9
20
-122.794
11
130.781
21
-122.854
0
LINE
8
BLACK
6
CONTINUOUS
10
130.781
20
-122.854
11
130.65
21
-122.875
0
LINE
8
BLACK
6
CONTINUOUS
10
130.65
20
-122.875
11
130.519
21
-122.854
0
LINE
8
BLACK
6
CONTINUOUS
10
130.519
20
-122.854
11
130.4
21
-122.794
0
LINE
8
BLACK
6
CONTINUOUS
10
130.4
20
-122.794
11
130.306
21
-122.7
0
LINE
8
BLACK
6
CONTINUOUS
10
130.306
20
-122.7
11
130.246
21
-122.581
0
LINE
8
BLACK
6
CONTINUOUS
10
130.246
20
-122.581
11
130.225
21
-122.45
0
LINE
8
BLACK
6
CONTINUOUS
10
130.225
20
-122.45
11
130.246
21
-122.319
0
LINE
8
BLACK
6
CONTINUOUS
10
130.246
20
-122.319
11
130.306
21
-122.2
0
LINE
8
BLACK
6
CONTINUOUS
10
130.306
20
-122.2
11
130.4
21
-122.106
0
LINE
8
BLACK
6
CONTINUOUS
10
130.4
20
-122.106
11
130.519
21
-122.046
0
LINE
8
BLACK
6
CONTINUOUS
10
130.519
20
-122.046
11
130.65
21
-122.025
0
LINE
8
BLACK
6
CONTINUOUS
10
130.65
20
-122.025
11
130.781
21
-122.046
0
LINE
8
BLACK
6
CONTINUOUS
10
131.781
20
-122.046
11
131.9
21
-122.106
0
LINE
8
BLACK
6
CONTINUOUS
10
131.9
20
-122.106
11
131.994
21
-122.2
0
LINE
8
BLACK
6
CONTINUOUS
10
131.994
20
-122.2
11
132.054
21
-122.319
0
LINE
8
BLACK
6
CONTINUOUS
10
132.054
20
-122.319
11
132.075
21
-122.45
0
LINE
8
BLACK
6
CONTINUOUS
10
132.075
20
-122.45
11
132.054
21
-122.581
0
LINE
8
BLACK
6
CONTINUOUS
10
132.054
20
-122.581
11
131.994
21
-122.7
0
LINE
8
BLACK
6
CONTINUOUS
10
131.994
20
-122.7
11
131.9
21
-122.794
0
LINE
8
BLACK
6
CONTINUOUS
10
131.9
20
-122.794
11
131.781
21
-122.854
0
LINE
8
BLACK
6
CONTINUOUS
10
131.781
20
-122.854
11
131.65
21
-122.875
0
LINE
8
BLACK
6
CONTINUOUS
10
131.65
20
-122.875
11
131.519
21
-122.854
0
LINE
8
BLACK
6
CONTINUOUS
10
131.519
20
-122.854
11
131.4
21
-122.794
0
LINE
8
BLACK
6
CONTINUOUS
10
131.4
20
-122.794
11
131.306
21
-122.7
0
LINE
8
BLACK
6
CONTINUOUS
10
131.306
20
-122.7
11
131.246
21
-122.581
0
LINE
8
BLACK
6
CONTINUOUS
10
131.246
20
-122.581
11
131.225
21
-122.45
0
LINE
8
BLACK
6
CONTINUOUS
10
131.225
20
-122.45
11
131.246
21
-122.319
0
LINE
8
BLACK
6
CONTINUOUS
10
131.246
20
-122.319
11
131.306
21
-122.2
0
LINE
8
BLACK
6
CONTINUOUS
10
131.306
20
-122.2
11
131.4
21
-122.106
0
LINE
8
BLACK
6
CONTINUOUS
10
131.4
20
-122.106
11
131.519
21
-122.046
0
LINE
8
BLACK
6
CONTINUOUS
10
131.519
20
-122.046
11
131.65
21
-122.025
0
LINE
8
BLACK
6
CONTINUOUS
10
131.65
20
-122.025
11
131.781
21
-122.046
0
LINE
8
BLACK
6
CONTINUOUS
10
132.781
20
-122.046
11
132.9
21
-122.106
0
LINE
8
BLACK
6
CONTINUOUS
10
132.9
20
-122.106
11
132.994
21
-122.2
0
LINE
8
BLACK
6
CONTINUOUS
10
132.994
20
-122.2
11
133.054
21
-122.319
0
LINE
8
BLACK
6
CONTINUOUS
10
133.054
20
-122.319
11
133.075
21
-122.45
0
LINE
8
BLACK
6
CONTINUOUS
10
133.075
20
-122.45
11
133.054
21
-122.581
0
LINE
8
BLACK
6
CONTINUOUS
10
133.054
20
-122.581
11
132.994
21
-122.7
0
LINE
8
BLACK
6
CONTINUOUS
10
132.994
20
-122.7
11
132.9
21
-122.794
0
LINE
8
BLACK
6
CONTINUOUS
10
132.9
20
-122.794
11
132.781
21
-122.854
0
LINE
8
BLACK
6
CONTINUOUS
10
132.781
20
-122.854
11
132.65
21
-122.875
0
LINE
8
BLACK
6
CONTINUOUS
10
132.65
20
-122.875
11
132.519
21
-122.854
0
LINE
8
BLACK
6
CONTINUOUS
10
132.519
20
-122.854
11
132.4
21
-122.794
0
LINE
8
BLACK
6
CONTINUOUS
10
132.4
20
-122.794
11
132.306
21
-122.7
0
LINE
8
BLACK
6
CONTINUOUS
10
132.306
20
-122.7
11
132.246
21
-122.581
0
LINE
8
BLACK
6
CONTINUOUS
10
132.246
20
-122.581
11
132.225
21
-122.45
0
LINE
8
BLACK
6
CONTINUOUS
10
132.225
20
-122.45
11
132.246
21
-122.319
0
LINE
8
BLACK
6
CONTINUOUS
10
132.246
20
-122.319
11
132.306
21
-122.2
0
LINE
8
BLACK
6
CONTINUOUS
10
132.306
20
-122.2
11
132.4
21
-122.106
0
LINE
8
BLACK
6
CONTINUOUS
10
132.4
20
-122.106
11
132.519
21
-122.046
0
LINE
8
BLACK
6
CONTINUOUS
10
132.519
20
-122.046
11
132.65
21
-122.025
0
LINE
8
BLACK
6
CONTINUOUS
10
132.65
20
-122.025
11
132.781
21
-122.046
0
LINE
8
BLACK
6
CONTINUOUS
10
133.781
20
-122.046
11
133.9
21
-122.106
0
LINE
8
BLACK
6
CONTINUOUS
10
133.9
20
-122.106
11
133.994
21
-122.2
0
LINE
8
BLACK
6
CONTINUOUS
10
133.994
20
-122.2
11
134.054
21
-122.319
0
LINE
8
BLACK
6
CONTINUOUS
10
134.054
20
-122.319
11
134.075
21
-122.45
0
LINE
8
BLACK
6
CONTINUOUS
10
134.075
20
-122.45
11
134.054
21
-122.581
0
LINE
8
BLACK
6
CONTINUOUS
10
134.054
20
-122.581
11
133.994
21
-122.7
0
LINE
8
BLACK
6
CONTINUOUS
10
133.994
20
-122.7
11
133.9
21
-122.794
0
LINE
8
BLACK
6
CONTINUOUS
10
133.9
20
-122.794
11
133.781
21
-122.854
0
LINE
8
BLACK
6
CONTINUOUS
10
133.781
20
-122.854
11
133.65
21
-122.875
0
LINE
8
BLACK
6
CONTINUOUS
10
133.65
20
-122.875
11
133.519
21
-122.854
0
LINE
8
BLACK
6
CONTINUOUS
10
133.519
20
-122.854
11
133.4
21
-122.794
0
LINE
8
BLACK
6
CONTINUOUS
10
133.4
20
-122.794
11
133.306
21
-122.7
0
LINE
8
BLACK
6
CONTINUOUS
10
133.306
20
-122.7
11
133.246
21
-122.581
0
LINE
8
BLACK
6
CONTINUOUS
10
133.246
20
-122.581
11
133.225
21
-122.45
0
LINE
8
BLACK
6
CONTINUOUS
10
133.225
20
-122.45
11
133.246
21
-122.319
0
LINE
8
BLACK
6
CONTINUOUS
10
133.246
20
-122.319
11
133.306
21
-122.2
0
LINE
8
BLACK
6
CONTINUOUS
10
133.306
20
-122.2
11
133.4
21
-122.106
0
LINE
8
BLACK
6
CONTINUOUS
10
133.4
20
-122.106
11
133.519
21
-122.046
0
LINE
8
BLACK
6
CONTINUOUS
10
133.519
20
-122.046
11
133.65
21
-122.025
0
LINE
8
BLACK
6
CONTINUOUS
10
133.65
20
-122.025
11
133.781
21
-122.046
0
LINE
8
BLACK
6
CONTINUOUS
10
131.499
20
-121.145
11
131.61
21
-121.201
0
LINE
8
BLACK
6
CONTINUOUS
10
131.61
20
-121.201
11
131.699
21
-121.29
0
LINE
8
BLACK
6
CONTINUOUS
10
131.699
20
-121.29
11
131.755
21
-121.401
0
LINE
8
BLACK
6
CONTINUOUS
10
131.755
20
-121.401
11
131.775
21
-121.525
0
LINE
8
BLACK
6
CONTINUOUS
10
131.775
20
-121.525
11
131.755
21
-121.649
0
LINE
8
BLACK
6
CONTINUOUS
10
131.755
20
-121.649
11
131.699
21
-121.76
0
LINE
8
BLACK
6
CONTINUOUS
10
131.699
20
-121.76
11
131.61
21
-121.849
0
LINE
8
BLACK
6
CONTINUOUS
10
131.61
20
-121.849
11
131.499
21
-121.905
0
LINE
8
BLACK
6
CONTINUOUS
10
131.499
20
-121.905
11
131.375
21
-121.925
0
LINE
8
BLACK
6
CONTINUOUS
10
131.375
20
-121.925
11
131.251
21
-121.905
0
LINE
8
BLACK
6
CONTINUOUS
10
131.251
20
-121.905
11
131.14
21
-121.849
0
LINE
8
BLACK
6
CONTINUOUS
10
131.14
20
-121.849
11
131.051
21
-121.76
0
LINE
8
BLACK
6
CONTINUOUS
10
131.051
20
-121.76
11
130.995
21
-121.649
0
LINE
8
BLACK
6
CONTINUOUS
10
130.995
20
-121.649
11
130.975
21
-121.525
0
LINE
8
BLACK
6
CONTINUOUS
10
130.975
20
-121.525
11
130.995
21
-121.401
0
LINE
8
BLACK
6
CONTINUOUS
10
130.995
20
-121.401
11
131.051
21
-121.29
0
LINE
8
BLACK
6
CONTINUOUS
10
131.051
20
-121.29
11
131.14
21
-121.201
0
LINE
8
BLACK
6
CONTINUOUS
10
131.14
20
-121.201
11
131.251
21
-121.145
0
LINE
8
BLACK
6
CONTINUOUS
10
131.251
20
-121.145
11
131.375
21
-121.125
0
LINE
8
BLACK
6
CONTINUOUS
10
131.375
20
-121.125
11
131.499
21
-121.145
0
LINE
8
BLACK
6
CONTINUOUS
10
131.174
20
-119.68
11
131.285
21
-119.736
0
LINE
8
BLACK
6
CONTINUOUS
10
131.285
20
-119.736
11
131.374
21
-119.825
0
LINE
8
BLACK
6
CONTINUOUS
10
131.374
20
-119.825
11
131.43
21
-119.936
0
LINE
8
BLACK
6
CONTINUOUS
10
131.43
20
-119.936
11
131.45
21
-120.06
0
LINE
8
BLACK
6
CONTINUOUS
10
131.45
20
-120.06
11
131.43
21
-120.184
0
LINE
8
BLACK
6
CONTINUOUS
10
131.43
20
-120.184
11
131.374
21
-120.295
0
LINE
8
BLACK
6
CONTINUOUS
10
131.374
20
-120.295
11
131.285
21
-120.384
0
LINE
8
BLACK
6
CONTINUOUS
10
131.285
20
-120.384
11
131.174
21
-120.44
0
LINE
8
BLACK
6
CONTINUOUS
10
131.174
20
-120.44
11
131.05
21
-120.46
0
LINE
8
BLACK
6
CONTINUOUS
10
131.05
20
-120.46
11
130.926
21
-120.44
0
LINE
8
BLACK
6
CONTINUOUS
10
130.926
20
-120.44
11
130.815
21
-120.384
0
LINE
8
BLACK
6
CONTINUOUS
10
130.815
20
-120.384
11
130.726
21
-120.295
0
LINE
8
BLACK
6
CONTINUOUS
10
130.726
20
-120.295
11
130.67
21
-120.184
0
LINE
8
BLACK
6
CONTINUOUS
10
130.67
20
-120.184
11
130.65
21
-120.06
0
LINE
8
BLACK
6
CONTINUOUS
10
130.65
20
-120.06
11
130.67
21
-119.936
0
LINE
8
BLACK
6
CONTINUOUS
10
130.67
20
-119.936
11
130.726
21
-119.825
0
LINE
8
BLACK
6
CONTINUOUS
10
130.726
20
-119.825
11
130.815
21
-119.736
0
LINE
8
BLACK
6
CONTINUOUS
10
130.815
20
-119.736
11
130.926
21
-119.68
0
LINE
8
BLACK
6
CONTINUOUS
10
130.926
20
-119.68
11
131.05
21
-119.66
0
LINE
8
BLACK
6
CONTINUOUS
10
131.05
20
-119.66
11
131.174
21
-119.68
0
LINE
8
BLACK
6
CONTINUOUS
10
133.394
20
-119.68
11
133.505
21
-119.736
0
LINE
8
BLACK
6
CONTINUOUS
10
133.505
20
-119.736
11
133.594
21
-119.825
0
LINE
8
BLACK
6
CONTINUOUS
10
133.594
20
-119.825
11
133.65
21
-119.936
0
LINE
8
BLACK
6
CONTINUOUS
10
133.65
20
-119.936
11
133.67
21
-120.06
0
LINE
8
BLACK
6
CONTINUOUS
10
133.67
20
-120.06
11
133.65
21
-120.184
0
LINE
8
BLACK
6
CONTINUOUS
10
133.65
20
-120.184
11
133.594
21
-120.295
0
LINE
8
BLACK
6
CONTINUOUS
10
133.594
20
-120.295
11
133.505
21
-120.384
0
LINE
8
BLACK
6
CONTINUOUS
10
133.505
20
-120.384
11
133.394
21
-120.44
0
LINE
8
BLACK
6
CONTINUOUS
10
133.394
20
-120.44
11
133.27
21
-120.46
0
LINE
8
BLACK
6
CONTINUOUS
10
133.27
20
-120.46
11
133.146
21
-120.44
0
LINE
8
BLACK
6
CONTINUOUS
10
133.146
20
-120.44
11
133.035
21
-120.384
0
LINE
8
BLACK
6
CONTINUOUS
10
133.035
20
-120.384
11
132.946
21
-120.295
0
LINE
8
BLACK
6
CONTINUOUS
10
132.946
20
-120.295
11
132.89
21
-120.184
0
LINE
8
BLACK
6
CONTINUOUS
10
132.89
20
-120.184
11
132.87
21
-120.06
0
LINE
8
BLACK
6
CONTINUOUS
10
132.87
20
-120.06
11
132.89
21
-119.936
0
LINE
8
BLACK
6
CONTINUOUS
10
132.89
20
-119.936
11
132.946
21
-119.825
0
LINE
8
BLACK
6
CONTINUOUS
10
132.946
20
-119.825
11
133.035
21
-119.736
0
LINE
8
BLACK
6
CONTINUOUS
10
133.035
20
-119.736
11
133.146
21
-119.68
0
LINE
8
BLACK
6
CONTINUOUS
10
133.146
20
-119.68
11
133.27
21
-119.66
0
LINE
8
BLACK
6
CONTINUOUS
10
133.27
20
-119.66
11
133.394
21
-119.68
0
LINE
8
BLACK
6
CONTINUOUS
10
132.031
20
-96.682
11
132.22
21
-96.7553
0
LINE
8
BLACK
6
CONTINUOUS
10
132.22
20
-96.7553
11
132.393
21
-96.8622
0
LINE
8
BLACK
6
CONTINUOUS
10
132.393
20
-96.8622
11
132.543
21
-96.9989
0
LINE
8
BLACK
6
CONTINUOUS
10
132.543
20
-96.9989
11
132.665
21
-97.1609
0
LINE
8
BLACK
6
CONTINUOUS
10
132.665
20
-97.1609
11
132.756
21
-97.3426
0
LINE
8
BLACK
6
CONTINUOUS
10
132.756
20
-97.3426
11
132.811
21
-97.5379
0
LINE
8
BLACK
6
CONTINUOUS
10
132.811
20
-97.5379
11
132.83
21
-97.74
0
LINE
8
BLACK
6
CONTINUOUS
10
132.83
20
-97.74
11
132.811
21
-97.9421
0
LINE
8
BLACK
6
CONTINUOUS
10
132.811
20
-97.9421
11
132.756
21
-98.1374
0
LINE
8
BLACK
6
CONTINUOUS
10
132.756
20
-98.1374
11
132.665
21
-98.3191
0
LINE
8
BLACK
6
CONTINUOUS
10
132.665
20
-98.3191
11
132.543
21
-98.4811
0
LINE
8
BLACK
6
CONTINUOUS
10
132.543
20
-98.4811
11
132.393
21
-98.6178
0
LINE
8
BLACK
6
CONTINUOUS
10
132.393
20
-98.6178
11
132.22
21
-98.7247
0
LINE
8
BLACK
6
CONTINUOUS
10
132.22
20
-98.7247
11
132.031
21
-98.798
0
LINE
8
BLACK
6
CONTINUOUS
10
132.031
20
-98.798
11
131.831
21
-98.8353
0
LINE
8
BLACK
6
CONTINUOUS
10
131.831
20
-98.8353
11
131.629
21
-98.8353
0
LINE
8
BLACK
6
CONTINUOUS
10
131.629
20
-98.8353
11
131.429
21
-98.798
0
LINE
8
BLACK
6
CONTINUOUS
10
131.429
20
-98.798
11
131.24
21
-98.7247
0
LINE
8
BLACK
6
CONTINUOUS
10
131.24
20
-98.7247
11
131.067
21
-98.6178
0
LINE
8
BLACK
6
CONTINUOUS
10
131.067
20
-98.6178
11
131.047
21
-98.5996
0
LINE
8
BLACK
6
CONTINUOUS
10
131.047
20
-98.5996
11
130.475
21
-99.1718
0
LINE
8
BLACK
6
CONTINUOUS
10
130.475
20
-99.1718
11
130.475
21
-119.26
0
LINE
8
BLACK
6
CONTINUOUS
10
130.475
20
-119.26
11
130.472
21
-119.282
0
LINE
8
BLACK
6
CONTINUOUS
10
130.472
20
-119.282
11
130.472
21
-119.287
0
LINE
8
BLACK
6
CONTINUOUS
10
130.472
20
-119.287
11
130.471
21
-119.289
0
LINE
8
BLACK
6
CONTINUOUS
10
130.471
20
-119.289
11
130.47
21
-119.295
0
LINE
8
BLACK
6
CONTINUOUS
10
130.47
20
-119.295
11
130.453
21
-119.321
0
LINE
8
BLACK
6
CONTINUOUS
10
130.453
20
-119.321
11
130.438
21
-119.348
0
LINE
8
BLACK
6
CONTINUOUS
10
130.438
20
-119.348
11
129.91
21
-119.877
0
LINE
8
BLACK
6
CONTINUOUS
10
129.91
20
-119.877
11
129.937
21
-119.93
0
LINE
8
BLACK
6
CONTINUOUS
10
129.937
20
-119.93
11
129.956
21
-120.054
0
LINE
8
BLACK
6
CONTINUOUS
10
129.956
20
-120.054
11
129.937
21
-120.177
0
LINE
8
BLACK
6
CONTINUOUS
10
129.937
20
-120.177
11
129.88
21
-120.289
0
LINE
8
BLACK
6
CONTINUOUS
10
129.88
20
-120.289
11
129.792
21
-120.377
0
LINE
8
BLACK
6
CONTINUOUS
10
129.792
20
-120.377
11
129.68
21
-120.434
0
LINE
8
BLACK
6
CONTINUOUS
10
129.68
20
-120.434
11
129.556
21
-120.454
0
LINE
8
BLACK
6
CONTINUOUS
10
129.556
20
-120.454
11
129.433
21
-120.434
0
LINE
8
BLACK
6
CONTINUOUS
10
129.433
20
-120.434
11
129.321
21
-120.377
0
LINE
8
BLACK
6
CONTINUOUS
10
129.321
20
-120.377
11
129.233
21
-120.289
0
LINE
8
BLACK
6
CONTINUOUS
10
129.233
20
-120.289
11
129.176
21
-120.177
0
LINE
8
BLACK
6
CONTINUOUS
10
129.176
20
-120.177
11
129.156
21
-120.054
0
LINE
8
BLACK
6
CONTINUOUS
10
129.156
20
-120.054
11
129.176
21
-119.93
0
LINE
8
BLACK
6
CONTINUOUS
10
129.176
20
-119.93
11
129.233
21
-119.818
0
LINE
8
BLACK
6
CONTINUOUS
10
129.233
20
-119.818
11
129.321
21
-119.73
0
LINE
8
BLACK
6
CONTINUOUS
10
129.321
20
-119.73
11
129.433
21
-119.673
0
LINE
8
BLACK
6
CONTINUOUS
10
129.433
20
-119.673
11
129.556
21
-119.654
0
LINE
8
BLACK
6
CONTINUOUS
10
129.556
20
-119.654
11
129.68
21
-119.673
0
LINE
8
BLACK
6
CONTINUOUS
10
129.68
20
-119.673
11
129.733
21
-119.7
0
LINE
8
BLACK
6
CONTINUOUS
10
129.733
20
-119.7
11
130.225
21
-119.208
0
LINE
8
BLACK
6
CONTINUOUS
10
130.225
20
-119.208
11
130.225
21
-99.12
0
LINE
8
BLACK
6
CONTINUOUS
10
130.225
20
-99.12
11
130.228
21
-99.0979
0
LINE
8
BLACK
6
CONTINUOUS
10
130.228
20
-99.0979
11
130.228
21
-99.0934
0
LINE
8
BLACK
6
CONTINUOUS
10
130.228
20
-99.0934
11
130.229
21
-99.091
0
LINE
8
BLACK
6
CONTINUOUS
10
130.229
20
-99.091
11
130.23
21
-99.0848
0
LINE
8
BLACK
6
CONTINUOUS
10
130.23
20
-99.0848
11
130.247
21
-99.0588
0
LINE
8
BLACK
6
CONTINUOUS
10
130.247
20
-99.0588
11
130.262
21
-99.0316
0
LINE
8
BLACK
6
CONTINUOUS
10
130.262
20
-99.0316
11
130.872
21
-98.4213
0
LINE
8
BLACK
6
CONTINUOUS
10
130.872
20
-98.4213
11
130.795
21
-98.3191
0
LINE
8
BLACK
6
CONTINUOUS
10
130.795
20
-98.3191
11
130.704
21
-98.1374
0
LINE
8
BLACK
6
CONTINUOUS
10
130.704
20
-98.1374
11
130.649
21
-97.9421
0
LINE
8
BLACK
6
CONTINUOUS
10
130.649
20
-97.9421
11
130.63
21
-97.74
0
LINE
8
BLACK
6
CONTINUOUS
10
130.63
20
-97.74
11
130.649
21
-97.5379
0
LINE
8
BLACK
6
CONTINUOUS
10
130.649
20
-97.5379
11
130.704
21
-97.3426
0
LINE
8
BLACK
6
CONTINUOUS
10
130.704
20
-97.3426
11
130.795
21
-97.1609
0
LINE
8
BLACK
6
CONTINUOUS
10
130.795
20
-97.1609
11
130.917
21
-96.9989
0
LINE
8
BLACK
6
CONTINUOUS
10
130.917
20
-96.9989
11
131.067
21
-96.8622
0
LINE
8
BLACK
6
CONTINUOUS
10
131.067
20
-96.8622
11
131.24
21
-96.7553
0
LINE
8
BLACK
6
CONTINUOUS
10
131.24
20
-96.7553
11
131.429
21
-96.682
0
LINE
8
BLACK
6
CONTINUOUS
10
131.429
20
-96.682
11
131.629
21
-96.6447
0
LINE
8
BLACK
6
CONTINUOUS
10
131.629
20
-96.6447
11
131.831
21
-96.6447
0
LINE
8
BLACK
6
CONTINUOUS
10
131.831
20
-96.6447
11
132.031
21
-96.682
0
LINE
8
BLACK
6
CONTINUOUS
10
135.473
20
-119.27
11
135.585
21
-119.327
0
LINE
8
BLACK
6
CONTINUOUS
10
135.585
20
-119.327
11
135.673
21
-119.415
0
LINE
8
BLACK
6
CONTINUOUS
10
135.673
20
-119.415
11
135.73
21
-119.527
0
LINE
8
BLACK
6
CONTINUOUS
10
135.73
20
-119.527
11
135.749
21
-119.65
0
LINE
8
BLACK
6
CONTINUOUS
10
135.749
20
-119.65
11
135.73
21
-119.774
0
LINE
8
BLACK
6
CONTINUOUS
10
135.73
20
-119.774
11
135.673
21
-119.886
0
LINE
8
BLACK
6
CONTINUOUS
10
135.673
20
-119.886
11
135.585
21
-119.974
0
LINE
8
BLACK
6
CONTINUOUS
10
135.585
20
-119.974
11
135.473
21
-120.031
0
LINE
8
BLACK
6
CONTINUOUS
10
135.473
20
-120.031
11
135.35
21
-120.05
0
LINE
8
BLACK
6
CONTINUOUS
10
135.35
20
-120.05
11
135.226
21
-120.031
0
LINE
8
BLACK
6
CONTINUOUS
10
135.226
20
-120.031
11
135.114
21
-119.974
0
LINE
8
BLACK
6
CONTINUOUS
10
135.114
20
-119.974
11
135.026
21
-119.886
0
LINE
8
BLACK
6
CONTINUOUS
10
135.026
20
-119.886
11
134.969
21
-119.774
0
LINE
8
BLACK
6
CONTINUOUS
10
134.969
20
-119.774
11
134.95
21
-119.65
0
LINE
8
BLACK
6
CONTINUOUS
10
134.95
20
-119.65
11
134.969
21
-119.527
0
LINE
8
BLACK
6
CONTINUOUS
10
134.969
20
-119.527
11
135.026
21
-119.415
0
LINE
8
BLACK
6
CONTINUOUS
10
135.026
20
-119.415
11
135.114
21
-119.327
0
LINE
8
BLACK
6
CONTINUOUS
10
135.114
20
-119.327
11
135.226
21
-119.27
0
LINE
8
BLACK
6
CONTINUOUS
10
135.226
20
-119.27
11
135.35
21
-119.25
0
LINE
8
BLACK
6
CONTINUOUS
10
135.35
20
-119.25
11
135.473
21
-119.27
0
LINE
8
BLACK
6
CONTINUOUS
10
113.403
20
-116.972
11
113.565
21
-117.044
0
LINE
8
BLACK
6
CONTINUOUS
10
113.565
20
-117.044
11
113.709
21
-117.148
0
LINE
8
BLACK
6
CONTINUOUS
10
113.709
20
-117.148
11
113.828
21
-117.28
0
LINE
8
BLACK
6
CONTINUOUS
10
113.828
20
-117.28
11
113.917
21
-117.434
0
LINE
8
BLACK
6
CONTINUOUS
10
113.917
20
-117.434
11
113.971
21
-117.603
0
LINE
8
BLACK
6
CONTINUOUS
10
113.971
20
-117.603
11
113.99
21
-117.78
0
LINE
8
BLACK
6
CONTINUOUS
10
113.99
20
-117.78
11
113.971
21
-117.957
0
LINE
8
BLACK
6
CONTINUOUS
10
113.971
20
-117.957
11
113.917
21
-118.126
0
LINE
8
BLACK
6
CONTINUOUS
10
113.917
20
-118.126
11
113.828
21
-118.28
0
LINE
8
BLACK
6
CONTINUOUS
10
113.828
20
-118.28
11
113.709
21
-118.412
0
LINE
8
BLACK
6
CONTINUOUS
10
113.709
20
-118.412
11
113.565
21
-118.516
0
LINE
8
BLACK
6
CONTINUOUS
10
113.565
20
-118.516
11
113.403
21
-118.588
0
LINE
8
BLACK
6
CONTINUOUS
10
113.403
20
-118.588
11
113.229
21
-118.625
0
LINE
8
BLACK
6
CONTINUOUS
10
113.229
20
-118.625
11
113.051
21
-118.625
0
LINE
8
BLACK
6
CONTINUOUS
10
113.051
20
-118.625
11
112.877
21
-118.588
0
LINE
8
BLACK
6
CONTINUOUS
10
112.877
20
-118.588
11
112.715
21
-118.516
0
LINE
8
BLACK
6
CONTINUOUS
10
112.715
20
-118.516
11
112.571
21
-118.412
0
LINE
8
BLACK
6
CONTINUOUS
10
112.571
20
-118.412
11
112.452
21
-118.28
0
LINE
8
BLACK
6
CONTINUOUS
10
112.452
20
-118.28
11
112.363
21
-118.126
0
LINE
8
BLACK
6
CONTINUOUS
10
112.363
20
-118.126
11
112.309
21
-117.957
0
LINE
8
BLACK
6
CONTINUOUS
10
112.309
20
-117.957
11
112.29
21
-117.78
0
LINE
8
BLACK
6
CONTINUOUS
10
112.29
20
-117.78
11
112.309
21
-117.603
0
LINE
8
BLACK
6
CONTINUOUS
10
112.309
20
-117.603
11
112.363
21
-117.434
0
LINE
8
BLACK
6
CONTINUOUS
10
112.363
20
-117.434
11
112.452
21
-117.28
0
LINE
8
BLACK
6
CONTINUOUS
10
112.452
20
-117.28
11
112.571
21
-117.148
0
LINE
8
BLACK
6
CONTINUOUS
10
112.571
20
-117.148
11
112.715
21
-117.044
0
LINE
8
BLACK
6
CONTINUOUS
10
112.715
20
-117.044
11
112.877
21
-116.972
0
LINE
8
BLACK
6
CONTINUOUS
10
112.877
20
-116.972
11
113.051
21
-116.935
0
LINE
8
BLACK
6
CONTINUOUS
10
113.051
20
-116.935
11
113.229
21
-116.935
0
LINE
8
BLACK
6
CONTINUOUS
10
113.229
20
-116.935
11
113.403
21
-116.972
0
LINE
8
BLACK
6
CONTINUOUS
10
113.403
20
-104.272
11
113.565
21
-104.344
0
LINE
8
BLACK
6
CONTINUOUS
10
113.565
20
-104.344
11
113.709
21
-104.448
0
LINE
8
BLACK
6
CONTINUOUS
10
113.709
20
-104.448
11
113.828
21
-104.58
0
LINE
8
BLACK
6
CONTINUOUS
10
113.828
20
-104.58
11
113.917
21
-104.734
0
LINE
8
BLACK
6
CONTINUOUS
10
113.917
20
-104.734
11
113.971
21
-104.903
0
LINE
8
BLACK
6
CONTINUOUS
10
113.971
20
-104.903
11
113.977
21
-104.955
0
LINE
8
BLACK
6
CONTINUOUS
10
113.977
20
-104.955
11
115.25
21
-104.955
0
LINE
8
BLACK
6
CONTINUOUS
10
115.25
20
-104.955
11
115.272
21
-104.958
0
LINE
8
BLACK
6
CONTINUOUS
10
115.272
20
-104.958
11
115.277
21
-104.958
0
LINE
8
BLACK
6
CONTINUOUS
10
115.277
20
-104.958
11
115.279
21
-104.959
0
LINE
8
BLACK
6
CONTINUOUS
10
115.279
20
-104.959
11
115.285
21
-104.96
0
LINE
8
BLACK
6
CONTINUOUS
10
115.285
20
-104.96
11
115.311
21
-104.977
0
LINE
8
BLACK
6
CONTINUOUS
10
115.311
20
-104.977
11
115.338
21
-104.992
0
LINE
8
BLACK
6
CONTINUOUS
10
115.338
20
-104.992
11
116.623
21
-106.277
0
LINE
8
BLACK
6
CONTINUOUS
10
116.623
20
-106.277
11
116.637
21
-106.294
0
LINE
8
BLACK
6
CONTINUOUS
10
116.637
20
-106.294
11
116.64
21
-106.297
0
LINE
8
BLACK
6
CONTINUOUS
10
116.64
20
-106.297
11
116.641
21
-106.3
0
LINE
8
BLACK
6
CONTINUOUS
10
116.641
20
-106.3
11
116.645
21
-106.305
0
LINE
8
BLACK
6
CONTINUOUS
10
116.645
20
-106.305
11
116.651
21
-106.335
0
LINE
8
BLACK
6
CONTINUOUS
10
116.651
20
-106.335
11
116.66
21
-106.365
0
LINE
8
BLACK
6
CONTINUOUS
10
116.66
20
-106.365
11
116.66
21
-115.266
0
LINE
8
BLACK
6
CONTINUOUS
10
116.66
20
-115.266
11
116.77
21
-115.322
0
LINE
8
BLACK
6
CONTINUOUS
10
116.77
20
-115.322
11
116.859
21
-115.411
0
LINE
8
BLACK
6
CONTINUOUS
10
116.859
20
-115.411
11
116.915
21
-115.522
0
LINE
8
BLACK
6
CONTINUOUS
10
116.915
20
-115.522
11
116.935
21
-115.646
0
LINE
8
BLACK
6
CONTINUOUS
10
116.935
20
-115.646
11
116.915
21
-115.77
0
LINE
8
BLACK
6
CONTINUOUS
10
116.915
20
-115.77
11
116.859
21
-115.881
0
LINE
8
BLACK
6
CONTINUOUS
10
116.859
20
-115.881
11
116.77
21
-115.97
0
LINE
8
BLACK
6
CONTINUOUS
10
116.77
20
-115.97
11
116.659
21
-116.026
0
LINE
8
BLACK
6
CONTINUOUS
10
116.659
20
-116.026
11
116.535
21
-116.046
0
LINE
8
BLACK
6
CONTINUOUS
10
116.535
20
-116.046
11
116.411
21
-116.026
0
LINE
8
BLACK
6
CONTINUOUS
10
116.411
20
-116.026
11
116.3
21
-115.97
0
LINE
8
BLACK
6
CONTINUOUS
10
116.3
20
-115.97
11
116.211
21
-115.881
0
LINE
8
BLACK
6
CONTINUOUS
10
116.211
20
-115.881
11
116.154
21
-115.77
0
LINE
8
BLACK
6
CONTINUOUS
10
116.154
20
-115.77
11
116.135
21
-115.646
0
LINE
8
BLACK
6
CONTINUOUS
10
116.135
20
-115.646
11
116.154
21
-115.522
0
LINE
8
BLACK
6
CONTINUOUS
10
116.154
20
-115.522
11
116.211
21
-115.411
0
LINE
8
BLACK
6
CONTINUOUS
10
116.211
20
-115.411
11
116.3
21
-115.322
0
LINE
8
BLACK
6
CONTINUOUS
10
116.3
20
-115.322
11
116.41
21
-115.266
0
LINE
8
BLACK
6
CONTINUOUS
10
116.41
20
-115.266
11
116.41
21
-106.417
0
LINE
8
BLACK
6
CONTINUOUS
10
116.41
20
-106.417
11
115.198
21
-105.205
0
LINE
8
BLACK
6
CONTINUOUS
10
115.198
20
-105.205
11
113.977
21
-105.205
0
LINE
8
BLACK
6
CONTINUOUS
10
113.977
20
-105.205
11
113.971
21
-105.257
0
LINE
8
BLACK
6
CONTINUOUS
10
113.971
20
-105.257
11
113.917
21
-105.426
0
LINE
8
BLACK
6
CONTINUOUS
10
113.917
20
-105.426
11
113.828
21
-105.58
0
LINE
8
BLACK
6
CONTINUOUS
10
113.828
20
-105.58
11
113.709
21
-105.712
0
LINE
8
BLACK
6
CONTINUOUS
10
113.709
20
-105.712
11
113.565
21
-105.816
0
LINE
8
BLACK
6
CONTINUOUS
10
113.565
20
-105.816
11
113.403
21
-105.888
0
LINE
8
BLACK
6
CONTINUOUS
10
113.403
20
-105.888
11
113.229
21
-105.925
0
LINE
8
BLACK
6
CONTINUOUS
10
113.229
20
-105.925
11
113.051
21
-105.925
0
LINE
8
BLACK
6
CONTINUOUS
10
113.051
20
-105.925
11
112.877
21
-105.888
0
LINE
8
BLACK
6
CONTINUOUS
10
112.877
20
-105.888
11
112.715
21
-105.816
0
LINE
8
BLACK
6
CONTINUOUS
10
112.715
20
-105.816
11
112.571
21
-105.712
0
LINE
8
BLACK
6
CONTINUOUS
10
112.571
20
-105.712
11
112.452
21
-105.58
0
LINE
8
BLACK
6
CONTINUOUS
10
112.452
20
-105.58
11
112.363
21
-105.426
0
LINE
8
BLACK
6
CONTINUOUS
10
112.363
20
-105.426
11
112.309
21
-105.257
0
LINE
8
BLACK
6
CONTINUOUS
10
112.309
20
-105.257
11
112.29
21
-105.08
0
LINE
8
BLACK
6
CONTINUOUS
10
112.29
20
-105.08
11
112.309
21
-104.903
0
LINE
8
BLACK
6
CONTINUOUS
10
112.309
20
-104.903
11
112.363
21
-104.734
0
LINE
8
BLACK
6
CONTINUOUS
10
112.363
20
-104.734
11
112.452
21
-104.58
0
LINE
8
BLACK
6
CONTINUOUS
10
112.452
20
-104.58
11
112.571
21
-104.448
0
LINE
8
BLACK
6
CONTINUOUS
10
112.571
20
-104.448
11
112.715
21
-104.344
0
LINE
8
BLACK
6
CONTINUOUS
10
112.715
20
-104.344
11
112.877
21
-104.272
0
LINE
8
BLACK
6
CONTINUOUS
10
112.877
20
-104.272
11
113.051
21
-104.235
0
LINE
8
BLACK
6
CONTINUOUS
10
113.051
20
-104.235
11
113.229
21
-104.235
0
LINE
8
BLACK
6
CONTINUOUS
10
113.229
20
-104.235
11
113.403
21
-104.272
0
LINE
8
BLACK
6
CONTINUOUS
10
124.411
20
-96.682
11
124.6
21
-96.7553
0
LINE
8
BLACK
6
CONTINUOUS
10
124.6
20
-96.7553
11
124.773
21
-96.8622
0
LINE
8
BLACK
6
CONTINUOUS
10
124.773
20
-96.8622
11
124.923
21
-96.9989
0
LINE
8
BLACK
6
CONTINUOUS
10
124.923
20
-96.9989
11
125.045
21
-97.1609
0
LINE
8
BLACK
6
CONTINUOUS
10
125.045
20
-97.1609
11
125.136
21
-97.3426
0
LINE
8
BLACK
6
CONTINUOUS
10
125.136
20
-97.3426
11
125.191
21
-97.5379
0
LINE
8
BLACK
6
CONTINUOUS
10
125.191
20
-97.5379
11
125.21
21
-97.74
0
LINE
8
BLACK
6
CONTINUOUS
10
125.21
20
-97.74
11
125.191
21
-97.9421
0
LINE
8
BLACK
6
CONTINUOUS
10
125.191
20
-97.9421
11
125.136
21
-98.1374
0
LINE
8
BLACK
6
CONTINUOUS
10
125.136
20
-98.1374
11
125.045
21
-98.3191
0
LINE
8
BLACK
6
CONTINUOUS
10
125.045
20
-98.3191
11
124.923
21
-98.4811
0
LINE
8
BLACK
6
CONTINUOUS
10
124.923
20
-98.4811
11
124.773
21
-98.6178
0
LINE
8
BLACK
6
CONTINUOUS
10
124.773
20
-98.6178
11
124.6
21
-98.7247
0
LINE
8
BLACK
6
CONTINUOUS
10
124.6
20
-98.7247
11
124.411
21
-98.798
0
LINE
8
BLACK
6
CONTINUOUS
10
124.411
20
-98.798
11
124.235
21
-98.8309
0
LINE
8
BLACK
6
CONTINUOUS
10
124.235
20
-98.8309
11
124.235
21
-109.558
0
LINE
8
BLACK
6
CONTINUOUS
10
124.235
20
-109.558
11
128.234
21
-113.558
0
LINE
8
BLACK
6
CONTINUOUS
10
128.234
20
-113.558
11
128.248
21
-113.575
0
LINE
8
BLACK
6
CONTINUOUS
10
128.248
20
-113.575
11
128.251
21
-113.578
0
LINE
8
BLACK
6
CONTINUOUS
10
128.251
20
-113.578
11
128.252
21
-113.581
0
LINE
8
BLACK
6
CONTINUOUS
10
128.252
20
-113.581
11
128.256
21
-113.586
0
LINE
8
BLACK
6
CONTINUOUS
10
128.256
20
-113.586
11
128.262
21
-113.616
0
LINE
8
BLACK
6
CONTINUOUS
10
128.262
20
-113.616
11
128.271
21
-113.646
0
LINE
8
BLACK
6
CONTINUOUS
10
128.271
20
-113.646
11
128.271
21
-115.263
0
LINE
8
BLACK
6
CONTINUOUS
10
128.271
20
-115.263
11
128.381
21
-115.319
0
LINE
8
BLACK
6
CONTINUOUS
10
128.381
20
-115.319
11
128.47
21
-115.408
0
LINE
8
BLACK
6
CONTINUOUS
10
128.47
20
-115.408
11
128.526
21
-115.519
0
LINE
8
BLACK
6
CONTINUOUS
10
128.526
20
-115.519
11
128.546
21
-115.643
0
LINE
8
BLACK
6
CONTINUOUS
10
128.546
20
-115.643
11
128.526
21
-115.766
0
LINE
8
BLACK
6
CONTINUOUS
10
128.526
20
-115.766
11
128.47
21
-115.878
0
LINE
8
BLACK
6
CONTINUOUS
10
128.47
20
-115.878
11
128.381
21
-115.966
0
LINE
8
BLACK
6
CONTINUOUS
10
128.381
20
-115.966
11
128.27
21
-116.023
0
LINE
8
BLACK
6
CONTINUOUS
10
128.27
20
-116.023
11
128.146
21
-116.043
0
LINE
8
BLACK
6
CONTINUOUS
10
128.146
20
-116.043
11
128.022
21
-116.023
0
LINE
8
BLACK
6
CONTINUOUS
10
128.022
20
-116.023
11
127.911
21
-115.966
0
LINE
8
BLACK
6
CONTINUOUS
10
127.911
20
-115.966
11
127.822
21
-115.878
0
LINE
8
BLACK
6
CONTINUOUS
10
127.822
20
-115.878
11
127.765
21
-115.766
0
LINE
8
BLACK
6
CONTINUOUS
10
127.765
20
-115.766
11
127.746
21
-115.643
0
LINE
8
BLACK
6
CONTINUOUS
10
127.746
20
-115.643
11
127.765
21
-115.519
0
LINE
8
BLACK
6
CONTINUOUS
10
127.765
20
-115.519
11
127.822
21
-115.408
0
LINE
8
BLACK
6
CONTINUOUS
10
127.822
20
-115.408
11
127.911
21
-115.319
0
LINE
8
BLACK
6
CONTINUOUS
10
127.911
20
-115.319
11
128.021
21
-115.263
0
LINE
8
BLACK
6
CONTINUOUS
10
128.021
20
-115.263
11
128.021
21
-113.698
0
LINE
8
BLACK
6
CONTINUOUS
10
128.021
20
-113.698
11
124.022
21
-109.698
0
LINE
8
BLACK
6
CONTINUOUS
10
124.022
20
-109.698
11
124.008
21
-109.681
0
LINE
8
BLACK
6
CONTINUOUS
10
124.008
20
-109.681
11
124.005
21
-109.678
0
LINE
8
BLACK
6
CONTINUOUS
10
124.005
20
-109.678
11
124.004
21
-109.675
0
LINE
8
BLACK
6
CONTINUOUS
10
124.004
20
-109.675
11
124
21
-109.67
0
LINE
8
BLACK
6
CONTINUOUS
10
124
20
-109.67
11
123.994
21
-109.64
0
LINE
8
BLACK
6
CONTINUOUS
10
123.994
20
-109.64
11
123.985
21
-109.61
0
LINE
8
BLACK
6
CONTINUOUS
10
123.985
20
-109.61
11
123.985
21
-98.8309
0
LINE
8
BLACK
6
CONTINUOUS
10
123.985
20
-98.8309
11
123.809
21
-98.798
0
LINE
8
BLACK
6
CONTINUOUS
10
123.809
20
-98.798
11
123.62
21
-98.7247
0
LINE
8
BLACK
6
CONTINUOUS
10
123.62
20
-98.7247
11
123.447
21
-98.6178
0
LINE
8
BLACK
6
CONTINUOUS
10
123.447
20
-98.6178
11
123.297
21
-98.4811
0
LINE
8
BLACK
6
CONTINUOUS
10
123.297
20
-98.4811
11
123.175
21
-98.3191
0
LINE
8
BLACK
6
CONTINUOUS
10
123.175
20
-98.3191
11
123.084
21
-98.1374
0
LINE
8
BLACK
6
CONTINUOUS
10
123.084
20
-98.1374
11
123.029
21
-97.9421
0
LINE
8
BLACK
6
CONTINUOUS
10
123.029
20
-97.9421
11
123.01
21
-97.74
0
LINE
8
BLACK
6
CONTINUOUS
10
123.01
20
-97.74
11
123.029
21
-97.5379
0
LINE
8
BLACK
6
CONTINUOUS
10
123.029
20
-97.5379
11
123.084
21
-97.3426
0
LINE
8
BLACK
6
CONTINUOUS
10
123.084
20
-97.3426
11
123.175
21
-97.1609
0
LINE
8
BLACK
6
CONTINUOUS
10
123.175
20
-97.1609
11
123.297
21
-96.9989
0
LINE
8
BLACK
6
CONTINUOUS
10
123.297
20
-96.9989
11
123.447
21
-96.8622
0
LINE
8
BLACK
6
CONTINUOUS
10
123.447
20
-96.8622
11
123.62
21
-96.7553
0
LINE
8
BLACK
6
CONTINUOUS
10
123.62
20
-96.7553
11
123.809
21
-96.682
0
LINE
8
BLACK
6
CONTINUOUS
10
123.809
20
-96.682
11
124.009
21
-96.6447
0
LINE
8
BLACK
6
CONTINUOUS
10
124.009
20
-96.6447
11
124.211
21
-96.6447
0
LINE
8
BLACK
6
CONTINUOUS
10
124.211
20
-96.6447
11
124.411
21
-96.682
0
LINE
8
BLACK
6
CONTINUOUS
10
119.032
20
-115.214
11
119.143
21
-115.271
0
LINE
8
BLACK
6
CONTINUOUS
10
119.143
20
-115.271
11
119.232
21
-115.359
0
LINE
8
BLACK
6
CONTINUOUS
10
119.232
20
-115.359
11
119.289
21
-115.471
0
LINE
8
BLACK
6
CONTINUOUS
10
119.289
20
-115.471
11
119.308
21
-115.594
0
LINE
8
BLACK
6
CONTINUOUS
10
119.308
20
-115.594
11
119.289
21
-115.718
0
LINE
8
BLACK
6
CONTINUOUS
10
119.289
20
-115.718
11
119.232
21
-115.829
0
LINE
8
BLACK
6
CONTINUOUS
10
119.232
20
-115.829
11
119.143
21
-115.918
0
LINE
8
BLACK
6
CONTINUOUS
10
119.143
20
-115.918
11
119.032
21
-115.975
0
LINE
8
BLACK
6
CONTINUOUS
10
119.032
20
-115.975
11
118.908
21
-115.994
0
LINE
8
BLACK
6
CONTINUOUS
10
118.908
20
-115.994
11
118.785
21
-115.975
0
LINE
8
BLACK
6
CONTINUOUS
10
118.785
20
-115.975
11
118.673
21
-115.918
0
LINE
8
BLACK
6
CONTINUOUS
10
118.673
20
-115.918
11
118.585
21
-115.829
0
LINE
8
BLACK
6
CONTINUOUS
10
118.585
20
-115.829
11
118.528
21
-115.718
0
LINE
8
BLACK
6
CONTINUOUS
10
118.528
20
-115.718
11
118.508
21
-115.594
0
LINE
8
BLACK
6
CONTINUOUS
10
118.508
20
-115.594
11
118.528
21
-115.471
0
LINE
8
BLACK
6
CONTINUOUS
10
118.528
20
-115.471
11
118.585
21
-115.359
0
LINE
8
BLACK
6
CONTINUOUS
10
118.585
20
-115.359
11
118.673
21
-115.271
0
LINE
8
BLACK
6
CONTINUOUS
10
118.673
20
-115.271
11
118.785
21
-115.214
0
LINE
8
BLACK
6
CONTINUOUS
10
118.785
20
-115.214
11
118.908
21
-115.194
0
LINE
8
BLACK
6
CONTINUOUS
10
118.908
20
-115.194
11
119.032
21
-115.214
0
LINE
8
BLACK
6
CONTINUOUS
10
135.574
20
-115.13
11
135.685
21
-115.186
0
LINE
8
BLACK
6
CONTINUOUS
10
135.685
20
-115.186
11
135.774
21
-115.275
0
LINE
8
BLACK
6
CONTINUOUS
10
135.774
20
-115.275
11
135.83
21
-115.386
0
LINE
8
BLACK
6
CONTINUOUS
10
135.83
20
-115.386
11
135.85
21
-115.51
0
LINE
8
BLACK
6
CONTINUOUS
10
135.85
20
-115.51
11
135.83
21
-115.634
0
LINE
8
BLACK
6
CONTINUOUS
10
135.83
20
-115.634
11
135.774
21
-115.745
0
LINE
8
BLACK
6
CONTINUOUS
10
135.774
20
-115.745
11
135.685
21
-115.834
0
LINE
8
BLACK
6
CONTINUOUS
10
135.685
20
-115.834
11
135.574
21
-115.89
0
LINE
8
BLACK
6
CONTINUOUS
10
135.574
20
-115.89
11
135.45
21
-115.91
0
LINE
8
BLACK
6
CONTINUOUS
10
135.45
20
-115.91
11
135.326
21
-115.89
0
LINE
8
BLACK
6
CONTINUOUS
10
135.326
20
-115.89
11
135.215
21
-115.834
0
LINE
8
BLACK
6
CONTINUOUS
10
135.215
20
-115.834
11
135.126
21
-115.745
0
LINE
8
BLACK
6
CONTINUOUS
10
135.126
20
-115.745
11
135.07
21
-115.634
0
LINE
8
BLACK
6
CONTINUOUS
10
135.07
20
-115.634
11
135.05
21
-115.51
0
LINE
8
BLACK
6
CONTINUOUS
10
135.05
20
-115.51
11
135.07
21
-115.386
0
LINE
8
BLACK
6
CONTINUOUS
10
135.07
20
-115.386
11
135.126
21
-115.275
0
LINE
8
BLACK
6
CONTINUOUS
10
135.126
20
-115.275
11
135.215
21
-115.186
0
LINE
8
BLACK
6
CONTINUOUS
10
135.215
20
-115.186
11
135.326
21
-115.13
0
LINE
8
BLACK
6
CONTINUOUS
10
135.326
20
-115.13
11
135.45
21
-115.11
0
LINE
8
BLACK
6
CONTINUOUS
10
135.45
20
-115.11
11
135.574
21
-115.13
0
LINE
8
BLACK
6
CONTINUOUS
10
131.534
20
-115.09
11
131.646
21
-115.146
0
LINE
8
BLACK
6
CONTINUOUS
10
131.646
20
-115.146
11
131.734
21
-115.235
0
LINE
8
BLACK
6
CONTINUOUS
10
131.734
20
-115.235
11
131.791
21
-115.346
0
LINE
8
BLACK
6
CONTINUOUS
10
131.791
20
-115.346
11
131.81
21
-115.47
0
LINE
8
BLACK
6
CONTINUOUS
10
131.81
20
-115.47
11
131.791
21
-115.594
0
LINE
8
BLACK
6
CONTINUOUS
10
131.791
20
-115.594
11
131.734
21
-115.705
0
LINE
8
BLACK
6
CONTINUOUS
10
131.734
20
-115.705
11
131.646
21
-115.794
0
LINE
8
BLACK
6
CONTINUOUS
10
131.646
20
-115.794
11
131.534
21
-115.85
0
LINE
8
BLACK
6
CONTINUOUS
10
131.534
20
-115.85
11
131.41
21
-115.87
0
LINE
8
BLACK
6
CONTINUOUS
10
131.41
20
-115.87
11
131.287
21
-115.85
0
LINE
8
BLACK
6
CONTINUOUS
10
131.287
20
-115.85
11
131.175
21
-115.794
0
LINE
8
BLACK
6
CONTINUOUS
10
131.175
20
-115.794
11
131.087
21
-115.705
0
LINE
8
BLACK
6
CONTINUOUS
10
131.087
20
-115.705
11
131.03
21
-115.594
0
LINE
8
BLACK
6
CONTINUOUS
10
131.03
20
-115.594
11
131.01
21
-115.47
0
LINE
8
BLACK
6
CONTINUOUS
10
131.01
20
-115.47
11
131.03
21
-115.346
0
LINE
8
BLACK
6
CONTINUOUS
10
131.03
20
-115.346
11
131.087
21
-115.235
0
LINE
8
BLACK
6
CONTINUOUS
10
131.087
20
-115.235
11
131.175
21
-115.146
0
LINE
8
BLACK
6
CONTINUOUS
10
131.175
20
-115.146
11
131.287
21
-115.09
0
LINE
8
BLACK
6
CONTINUOUS
10
131.287
20
-115.09
11
131.41
21
-115.07
0
LINE
8
BLACK
6
CONTINUOUS
10
131.41
20
-115.07
11
131.534
21
-115.09
0
LINE
8
BLACK
6
CONTINUOUS
10
121.871
20
-96.682
11
122.06
21
-96.7553
0
LINE
8
BLACK
6
CONTINUOUS
10
122.06
20
-96.7553
11
122.233
21
-96.8622
0
LINE
8
BLACK
6
CONTINUOUS
10
122.233
20
-96.8622
11
122.383
21
-96.9989
0
LINE
8
BLACK
6
CONTINUOUS
10
122.383
20
-96.9989
11
122.505
21
-97.1609
0
LINE
8
BLACK
6
CONTINUOUS
10
122.505
20
-97.1609
11
122.596
21
-97.3426
0
LINE
8
BLACK
6
CONTINUOUS
10
122.596
20
-97.3426
11
122.651
21
-97.5379
0
LINE
8
BLACK
6
CONTINUOUS
10
122.651
20
-97.5379
11
122.67
21
-97.74
0
LINE
8
BLACK
6
CONTINUOUS
10
122.67
20
-97.74
11
122.651
21
-97.9421
0
LINE
8
BLACK
6
CONTINUOUS
10
122.651
20
-97.9421
11
122.596
21
-98.1374
0
LINE
8
BLACK
6
CONTINUOUS
10
122.596
20
-98.1374
11
122.505
21
-98.3191
0
LINE
8
BLACK
6
CONTINUOUS
10
122.505
20
-98.3191
11
122.383
21
-98.4811
0
LINE
8
BLACK
6
CONTINUOUS
10
122.383
20
-98.4811
11
122.233
21
-98.6178
0
LINE
8
BLACK
6
CONTINUOUS
10
122.233
20
-98.6178
11
122.06
21
-98.7247
0
LINE
8
BLACK
6
CONTINUOUS
10
122.06
20
-98.7247
11
121.871
21
-98.798
0
LINE
8
BLACK
6
CONTINUOUS
10
121.871
20
-98.798
11
121.695
21
-98.8309
0
LINE
8
BLACK
6
CONTINUOUS
10
121.695
20
-98.8309
11
121.695
21
-110.961
0
LINE
8
BLACK
6
CONTINUOUS
10
121.695
20
-110.961
11
125.429
21
-114.695
0
LINE
8
BLACK
6
CONTINUOUS
10
125.429
20
-114.695
11
125.482
21
-114.668
0
LINE
8
BLACK
6
CONTINUOUS
10
125.482
20
-114.668
11
125.606
21
-114.648
0
LINE
8
BLACK
6
CONTINUOUS
10
125.606
20
-114.648
11
125.73
21
-114.668
0
LINE
8
BLACK
6
CONTINUOUS
10
125.73
20
-114.668
11
125.841
21
-114.725
0
LINE
8
BLACK
6
CONTINUOUS
10
125.841
20
-114.725
11
125.93
21
-114.813
0
LINE
8
BLACK
6
CONTINUOUS
10
125.93
20
-114.813
11
125.986
21
-114.925
0
LINE
8
BLACK
6
CONTINUOUS
10
125.986
20
-114.925
11
126.006
21
-115.048
0
LINE
8
BLACK
6
CONTINUOUS
10
126.006
20
-115.048
11
125.986
21
-115.172
0
LINE
8
BLACK
6
CONTINUOUS
10
125.986
20
-115.172
11
125.93
21
-115.284
0
LINE
8
BLACK
6
CONTINUOUS
10
125.93
20
-115.284
11
125.841
21
-115.372
0
LINE
8
BLACK
6
CONTINUOUS
10
125.841
20
-115.372
11
125.73
21
-115.429
0
LINE
8
BLACK
6
CONTINUOUS
10
125.73
20
-115.429
11
125.606
21
-115.448
0
LINE
8
BLACK
6
CONTINUOUS
10
125.606
20
-115.448
11
125.482
21
-115.429
0
LINE
8
BLACK
6
CONTINUOUS
10
125.482
20
-115.429
11
125.371
21
-115.372
0
LINE
8
BLACK
6
CONTINUOUS
10
125.371
20
-115.372
11
125.282
21
-115.284
0
LINE
8
BLACK
6
CONTINUOUS
10
125.282
20
-115.284
11
125.225
21
-115.172
0
LINE
8
BLACK
6
CONTINUOUS
10
125.225
20
-115.172
11
125.206
21
-115.048
0
LINE
8
BLACK
6
CONTINUOUS
10
125.206
20
-115.048
11
125.225
21
-114.925
0
LINE
8
BLACK
6
CONTINUOUS
10
125.225
20
-114.925
11
125.252
21
-114.872
0
LINE
8
BLACK
6
CONTINUOUS
10
125.252
20
-114.872
11
121.482
21
-111.101
0
LINE
8
BLACK
6
CONTINUOUS
10
121.482
20
-111.101
11
121.468
21
-111.083
0
LINE
8
BLACK
6
CONTINUOUS
10
121.468
20
-111.083
11
121.465
21
-111.08
0
LINE
8
BLACK
6
CONTINUOUS
10
121.465
20
-111.08
11
121.464
21
-111.078
0
LINE
8
BLACK
6
CONTINUOUS
10
121.464
20
-111.078
11
121.46
21
-111.073
0
LINE
8
BLACK
6
CONTINUOUS
10
121.46
20
-111.073
11
121.454
21
-111.042
0
LINE
8
BLACK
6
CONTINUOUS
10
121.454
20
-111.042
11
121.445
21
-111.013
0
LINE
8
BLACK
6
CONTINUOUS
10
121.445
20
-111.013
11
121.445
21
-98.8309
0
LINE
8
BLACK
6
CONTINUOUS
10
121.445
20
-98.8309
11
121.269
21
-98.798
0
LINE
8
BLACK
6
CONTINUOUS
10
121.269
20
-98.798
11
121.08
21
-98.7247
0
LINE
8
BLACK
6
CONTINUOUS
10
121.08
20
-98.7247
11
120.907
21
-98.6178
0
LINE
8
BLACK
6
CONTINUOUS
10
120.907
20
-98.6178
11
120.757
21
-98.4811
0
LINE
8
BLACK
6
CONTINUOUS
10
120.757
20
-98.4811
11
120.635
21
-98.3191
0
LINE
8
BLACK
6
CONTINUOUS
10
120.635
20
-98.3191
11
120.544
21
-98.1374
0
LINE
8
BLACK
6
CONTINUOUS
10
120.544
20
-98.1374
11
120.489
21
-97.9421
0
LINE
8
BLACK
6
CONTINUOUS
10
120.489
20
-97.9421
11
120.47
21
-97.74
0
LINE
8
BLACK
6
CONTINUOUS
10
120.47
20
-97.74
11
120.489
21
-97.5379
0
LINE
8
BLACK
6
CONTINUOUS
10
120.489
20
-97.5379
11
120.544
21
-97.3426
0
LINE
8
BLACK
6
CONTINUOUS
10
120.544
20
-97.3426
11
120.635
21
-97.1609
0
LINE
8
BLACK
6
CONTINUOUS
10
120.635
20
-97.1609
11
120.757
21
-96.9989
0
LINE
8
BLACK
6
CONTINUOUS
10
120.757
20
-96.9989
11
120.907
21
-96.8622
0
LINE
8
BLACK
6
CONTINUOUS
10
120.907
20
-96.8622
11
121.08
21
-96.7553
0
LINE
8
BLACK
6
CONTINUOUS
10
121.08
20
-96.7553
11
121.269
21
-96.682
0
LINE
8
BLACK
6
CONTINUOUS
10
121.269
20
-96.682
11
121.469
21
-96.6447
0
LINE
8
BLACK
6
CONTINUOUS
10
121.469
20
-96.6447
11
121.671
21
-96.6447
0
LINE
8
BLACK
6
CONTINUOUS
10
121.671
20
-96.6447
11
121.871
21
-96.682
0
LINE
8
BLACK
6
CONTINUOUS
10
135.249
20
-113.92
11
135.36
21
-113.976
0
LINE
8
BLACK
6
CONTINUOUS
10
135.36
20
-113.976
11
135.449
21
-114.065
0
LINE
8
BLACK
6
CONTINUOUS
10
135.449
20
-114.065
11
135.505
21
-114.176
0
LINE
8
BLACK
6
CONTINUOUS
10
135.505
20
-114.176
11
135.525
21
-114.3
0
LINE
8
BLACK
6
CONTINUOUS
10
135.525
20
-114.3
11
135.505
21
-114.424
0
LINE
8
BLACK
6
CONTINUOUS
10
135.505
20
-114.424
11
135.449
21
-114.535
0
LINE
8
BLACK
6
CONTINUOUS
10
135.449
20
-114.535
11
135.36
21
-114.624
0
LINE
8
BLACK
6
CONTINUOUS
10
135.36
20
-114.624
11
135.249
21
-114.68
0
LINE
8
BLACK
6
CONTINUOUS
10
135.249
20
-114.68
11
135.125
21
-114.7
0
LINE
8
BLACK
6
CONTINUOUS
10
135.125
20
-114.7
11
135.001
21
-114.68
0
LINE
8
BLACK
6
CONTINUOUS
10
135.001
20
-114.68
11
134.89
21
-114.624
0
LINE
8
BLACK
6
CONTINUOUS
10
134.89
20
-114.624
11
134.801
21
-114.535
0
LINE
8
BLACK
6
CONTINUOUS
10
134.801
20
-114.535
11
134.745
21
-114.424
0
LINE
8
BLACK
6
CONTINUOUS
10
134.745
20
-114.424
11
134.725
21
-114.3
0
LINE
8
BLACK
6
CONTINUOUS
10
134.725
20
-114.3
11
134.745
21
-114.176
0
LINE
8
BLACK
6
CONTINUOUS
10
134.745
20
-114.176
11
134.801
21
-114.065
0
LINE
8
BLACK
6
CONTINUOUS
10
134.801
20
-114.065
11
134.89
21
-113.976
0
LINE
8
BLACK
6
CONTINUOUS
10
134.89
20
-113.976
11
135.001
21
-113.92
0
LINE
8
BLACK
6
CONTINUOUS
10
135.001
20
-113.92
11
135.125
21
-113.9
0
LINE
8
BLACK
6
CONTINUOUS
10
135.125
20
-113.9
11
135.249
21
-113.92
0
LINE
8
BLACK
6
CONTINUOUS
10
118.459
20
-113.67
11
118.57
21
-113.727
0
LINE
8
BLACK
6
CONTINUOUS
10
118.57
20
-113.727
11
118.659
21
-113.815
0
LINE
8
BLACK
6
CONTINUOUS
10
118.659
20
-113.815
11
118.715
21
-113.927
0
LINE
8
BLACK
6
CONTINUOUS
10
118.715
20
-113.927
11
118.735
21
-114.05
0
LINE
8
BLACK
6
CONTINUOUS
10
118.735
20
-114.05
11
118.715
21
-114.174
0
LINE
8
BLACK
6
CONTINUOUS
10
118.715
20
-114.174
11
118.659
21
-114.286
0
LINE
8
BLACK
6
CONTINUOUS
10
118.659
20
-114.286
11
118.57
21
-114.374
0
LINE
8
BLACK
6
CONTINUOUS
10
118.57
20
-114.374
11
118.459
21
-114.431
0
LINE
8
BLACK
6
CONTINUOUS
10
118.459
20
-114.431
11
118.335
21
-114.45
0
LINE
8
BLACK
6
CONTINUOUS
10
118.335
20
-114.45
11
118.211
21
-114.431
0
LINE
8
BLACK
6
CONTINUOUS
10
118.211
20
-114.431
11
118.1
21
-114.374
0
LINE
8
BLACK
6
CONTINUOUS
10
118.1
20
-114.374
11
118.011
21
-114.286
0
LINE
8
BLACK
6
CONTINUOUS
10
118.011
20
-114.286
11
117.955
21
-114.174
0
LINE
8
BLACK
6
CONTINUOUS
10
117.955
20
-114.174
11
117.935
21
-114.05
0
LINE
8
BLACK
6
CONTINUOUS
10
117.935
20
-114.05
11
117.955
21
-113.927
0
LINE
8
BLACK
6
CONTINUOUS
10
117.955
20
-113.927
11
118.011
21
-113.815
0
LINE
8
BLACK
6
CONTINUOUS
10
118.011
20
-113.815
11
118.1
21
-113.727
0
LINE
8
BLACK
6
CONTINUOUS
10
118.1
20
-113.727
11
118.211
21
-113.67
0
LINE
8
BLACK
6
CONTINUOUS
10
118.211
20
-113.67
11
118.335
21
-113.65
0
LINE
8
BLACK
6
CONTINUOUS
10
118.335
20
-113.65
11
118.459
21
-113.67
0
LINE
8
BLACK
6
CONTINUOUS
10
126.899
20
-113.62
11
127.01
21
-113.676
0
LINE
8
BLACK
6
CONTINUOUS
10
127.01
20
-113.676
11
127.099
21
-113.765
0
LINE
8
BLACK
6
CONTINUOUS
10
127.099
20
-113.765
11
127.155
21
-113.876
0
LINE
8
BLACK
6
CONTINUOUS
10
127.155
20
-113.876
11
127.175
21
-114
0
LINE
8
BLACK
6
CONTINUOUS
10
127.175
20
-114
11
127.155
21
-114.124
0
LINE
8
BLACK
6
CONTINUOUS
10
127.155
20
-114.124
11
127.099
21
-114.235
0
LINE
8
BLACK
6
CONTINUOUS
10
127.099
20
-114.235
11
127.01
21
-114.324
0
LINE
8
BLACK
6
CONTINUOUS
10
127.01
20
-114.324
11
126.899
21
-114.38
0
LINE
8
BLACK
6
CONTINUOUS
10
126.899
20
-114.38
11
126.775
21
-114.4
0
LINE
8
BLACK
6
CONTINUOUS
10
126.775
20
-114.4
11
126.651
21
-114.38
0
LINE
8
BLACK
6
CONTINUOUS
10
126.651
20
-114.38
11
126.54
21
-114.324
0
LINE
8
BLACK
6
CONTINUOUS
10
126.54
20
-114.324
11
126.451
21
-114.235
0
LINE
8
BLACK
6
CONTINUOUS
10
126.451
20
-114.235
11
126.395
21
-114.124
0
LINE
8
BLACK
6
CONTINUOUS
10
126.395
20
-114.124
11
126.375
21
-114
0
LINE
8
BLACK
6
CONTINUOUS
10
126.375
20
-114
11
126.395
21
-113.876
0
LINE
8
BLACK
6
CONTINUOUS
10
126.395
20
-113.876
11
126.451
21
-113.765
0
LINE
8
BLACK
6
CONTINUOUS
10
126.451
20
-113.765
11
126.54
21
-113.676
0
LINE
8
BLACK
6
CONTINUOUS
10
126.54
20
-113.676
11
126.651
21
-113.62
0
LINE
8
BLACK
6
CONTINUOUS
10
126.651
20
-113.62
11
126.775
21
-113.6
0
LINE
8
BLACK
6
CONTINUOUS
10
126.775
20
-113.6
11
126.899
21
-113.62
0
LINE
8
BLACK
6
CONTINUOUS
10
113.403
20
-111.892
11
113.565
21
-111.964
0
LINE
8
BLACK
6
CONTINUOUS
10
113.565
20
-111.964
11
113.709
21
-112.068
0
LINE
8
BLACK
6
CONTINUOUS
10
113.709
20
-112.068
11
113.828
21
-112.2
0
LINE
8
BLACK
6
CONTINUOUS
10
113.828
20
-112.2
11
113.917
21
-112.354
0
LINE
8
BLACK
6
CONTINUOUS
10
113.917
20
-112.354
11
113.971
21
-112.523
0
LINE
8
BLACK
6
CONTINUOUS
10
113.971
20
-112.523
11
113.99
21
-112.7
0
LINE
8
BLACK
6
CONTINUOUS
10
113.99
20
-112.7
11
113.971
21
-112.877
0
LINE
8
BLACK
6
CONTINUOUS
10
113.971
20
-112.877
11
113.917
21
-113.046
0
LINE
8
BLACK
6
CONTINUOUS
10
113.917
20
-113.046
11
113.828
21
-113.2
0
LINE
8
BLACK
6
CONTINUOUS
10
113.828
20
-113.2
11
113.709
21
-113.332
0
LINE
8
BLACK
6
CONTINUOUS
10
113.709
20
-113.332
11
113.565
21
-113.436
0
LINE
8
BLACK
6
CONTINUOUS
10
113.565
20
-113.436
11
113.403
21
-113.508
0
LINE
8
BLACK
6
CONTINUOUS
10
113.403
20
-113.508
11
113.229
21
-113.545
0
LINE
8
BLACK
6
CONTINUOUS
10
113.229
20
-113.545
11
113.051
21
-113.545
0
LINE
8
BLACK
6
CONTINUOUS
10
113.051
20
-113.545
11
112.877
21
-113.508
0
LINE
8
BLACK
6
CONTINUOUS
10
112.877
20
-113.508
11
112.715
21
-113.436
0
LINE
8
BLACK
6
CONTINUOUS
10
112.715
20
-113.436
11
112.571
21
-113.332
0
LINE
8
BLACK
6
CONTINUOUS
10
112.571
20
-113.332
11
112.452
21
-113.2
0
LINE
8
BLACK
6
CONTINUOUS
10
112.452
20
-113.2
11
112.363
21
-113.046
0
LINE
8
BLACK
6
CONTINUOUS
10
112.363
20
-113.046
11
112.309
21
-112.877
0
LINE
8
BLACK
6
CONTINUOUS
10
112.309
20
-112.877
11
112.29
21
-112.7
0
LINE
8
BLACK
6
CONTINUOUS
10
112.29
20
-112.7
11
112.309
21
-112.523
0
LINE
8
BLACK
6
CONTINUOUS
10
112.309
20
-112.523
11
112.363
21
-112.354
0
LINE
8
BLACK
6
CONTINUOUS
10
112.363
20
-112.354
11
112.452
21
-112.2
0
LINE
8
BLACK
6
CONTINUOUS
10
112.452
20
-112.2
11
112.571
21
-112.068
0
LINE
8
BLACK
6
CONTINUOUS
10
112.571
20
-112.068
11
112.715
21
-111.964
0
LINE
8
BLACK
6
CONTINUOUS
10
112.715
20
-111.964
11
112.877
21
-111.892
0
LINE
8
BLACK
6
CONTINUOUS
10
112.877
20
-111.892
11
113.051
21
-111.855
0
LINE
8
BLACK
6
CONTINUOUS
10
113.051
20
-111.855
11
113.229
21
-111.855
0
LINE
8
BLACK
6
CONTINUOUS
10
113.229
20
-111.855
11
113.403
21
-111.892
0
LINE
8
BLACK
6
CONTINUOUS
10
126.951
20
-96.682
11
127.14
21
-96.7553
0
LINE
8
BLACK
6
CONTINUOUS
10
127.14
20
-96.7553
11
127.313
21
-96.8622
0
LINE
8
BLACK
6
CONTINUOUS
10
127.313
20
-96.8622
11
127.463
21
-96.9989
0
LINE
8
BLACK
6
CONTINUOUS
10
127.463
20
-96.9989
11
127.585
21
-97.1609
0
LINE
8
BLACK
6
CONTINUOUS
10
127.585
20
-97.1609
11
127.676
21
-97.3426
0
LINE
8
BLACK
6
CONTINUOUS
10
127.676
20
-97.3426
11
127.731
21
-97.5379
0
LINE
8
BLACK
6
CONTINUOUS
10
127.731
20
-97.5379
11
127.75
21
-97.74
0
LINE
8
BLACK
6
CONTINUOUS
10
127.75
20
-97.74
11
127.731
21
-97.9421
0
LINE
8
BLACK
6
CONTINUOUS
10
127.731
20
-97.9421
11
127.676
21
-98.1374
0
LINE
8
BLACK
6
CONTINUOUS
10
127.676
20
-98.1374
11
127.585
21
-98.3191
0
LINE
8
BLACK
6
CONTINUOUS
10
127.585
20
-98.3191
11
127.508
21
-98.4213
0
LINE
8
BLACK
6
CONTINUOUS
10
127.508
20
-98.4213
11
129.782
21
-100.695
0
LINE
8
BLACK
6
CONTINUOUS
10
129.782
20
-100.695
11
129.795
21
-100.713
0
LINE
8
BLACK
6
CONTINUOUS
10
129.795
20
-100.713
11
129.799
21
-100.716
0
LINE
8
BLACK
6
CONTINUOUS
10
129.799
20
-100.716
11
129.8
21
-100.719
0
LINE
8
BLACK
6
CONTINUOUS
10
129.8
20
-100.719
11
129.803
21
-100.724
0
LINE
8
BLACK
6
CONTINUOUS
10
129.803
20
-100.724
11
129.81
21
-100.754
0
LINE
8
BLACK
6
CONTINUOUS
10
129.81
20
-100.754
11
129.819
21
-100.784
0
LINE
8
BLACK
6
CONTINUOUS
10
129.819
20
-100.784
11
129.819
21
-112.27
0
LINE
8
BLACK
6
CONTINUOUS
10
129.819
20
-112.27
11
129.874
21
-112.325
0
LINE
8
BLACK
6
CONTINUOUS
10
129.874
20
-112.325
11
129.931
21
-112.437
0
LINE
8
BLACK
6
CONTINUOUS
10
129.931
20
-112.437
11
129.95
21
-112.56
0
LINE
8
BLACK
6
CONTINUOUS
10
129.95
20
-112.56
11
129.931
21
-112.684
0
LINE
8
BLACK
6
CONTINUOUS
10
129.931
20
-112.684
11
129.874
21
-112.796
0
LINE
8
BLACK
6
CONTINUOUS
10
129.874
20
-112.796
11
129.786
21
-112.884
0
LINE
8
BLACK
6
CONTINUOUS
10
129.786
20
-112.884
11
129.674
21
-112.941
0
LINE
8
BLACK
6
CONTINUOUS
10
129.674
20
-112.941
11
129.55
21
-112.96
0
LINE
8
BLACK
6
CONTINUOUS
10
129.55
20
-112.96
11
129.427
21
-112.941
0
LINE
8
BLACK
6
CONTINUOUS
10
129.427
20
-112.941
11
129.315
21
-112.884
0
LINE
8
BLACK
6
CONTINUOUS
10
129.315
20
-112.884
11
129.227
21
-112.796
0
LINE
8
BLACK
6
CONTINUOUS
10
129.227
20
-112.796
11
129.17
21
-112.684
0
LINE
8
BLACK
6
CONTINUOUS
10
129.17
20
-112.684
11
129.15
21
-112.56
0
LINE
8
BLACK
6
CONTINUOUS
10
129.15
20
-112.56
11
129.17
21
-112.437
0
LINE
8
BLACK
6
CONTINUOUS
10
129.17
20
-112.437
11
129.227
21
-112.325
0
LINE
8
BLACK
6
CONTINUOUS
10
129.227
20
-112.325
11
129.315
21
-112.237
0
LINE
8
BLACK
6
CONTINUOUS
10
129.315
20
-112.237
11
129.427
21
-112.18
0
LINE
8
BLACK
6
CONTINUOUS
10
129.427
20
-112.18
11
129.55
21
-112.16
0
LINE
8
BLACK
6
CONTINUOUS
10
129.55
20
-112.16
11
129.569
21
-112.163
0
LINE
8
BLACK
6
CONTINUOUS
10
129.569
20
-112.163
11
129.569
21
-100.835
0
LINE
8
BLACK
6
CONTINUOUS
10
129.569
20
-100.835
11
127.333
21
-98.5996
0
LINE
8
BLACK
6
CONTINUOUS
10
127.333
20
-98.5996
11
127.313
21
-98.6178
0
LINE
8
BLACK
6
CONTINUOUS
10
127.313
20
-98.6178
11
127.14
21
-98.7247
0
LINE
8
BLACK
6
CONTINUOUS
10
127.14
20
-98.7247
11
126.951
21
-98.798
0
LINE
8
BLACK
6
CONTINUOUS
10
126.951
20
-98.798
11
126.751
21
-98.8353
0
LINE
8
BLACK
6
CONTINUOUS
10
126.751
20
-98.8353
11
126.549
21
-98.8353
0
LINE
8
BLACK
6
CONTINUOUS
10
126.549
20
-98.8353
11
126.349
21
-98.798
0
LINE
8
BLACK
6
CONTINUOUS
10
126.349
20
-98.798
11
126.16
21
-98.7247
0
LINE
8
BLACK
6
CONTINUOUS
10
126.16
20
-98.7247
11
125.987
21
-98.6178
0
LINE
8
BLACK
6
CONTINUOUS
10
125.987
20
-98.6178
11
125.837
21
-98.4811
0
LINE
8
BLACK
6
CONTINUOUS
10
125.837
20
-98.4811
11
125.715
21
-98.3191
0
LINE
8
BLACK
6
CONTINUOUS
10
125.715
20
-98.3191
11
125.624
21
-98.1374
0
LINE
8
BLACK
6
CONTINUOUS
10
125.624
20
-98.1374
11
125.569
21
-97.9421
0
LINE
8
BLACK
6
CONTINUOUS
10
125.569
20
-97.9421
11
125.55
21
-97.74
0
LINE
8
BLACK
6
CONTINUOUS
10
125.55
20
-97.74
11
125.569
21
-97.5379
0
LINE
8
BLACK
6
CONTINUOUS
10
125.569
20
-97.5379
11
125.624
21
-97.3426
0
LINE
8
BLACK
6
CONTINUOUS
10
125.624
20
-97.3426
11
125.715
21
-97.1609
0
LINE
8
BLACK
6
CONTINUOUS
10
125.715
20
-97.1609
11
125.837
21
-96.9989
0
LINE
8
BLACK
6
CONTINUOUS
10
125.837
20
-96.9989
11
125.987
21
-96.8622
0
LINE
8
BLACK
6
CONTINUOUS
10
125.987
20
-96.8622
11
126.16
21
-96.7553
0
LINE
8
BLACK
6
CONTINUOUS
10
126.16
20
-96.7553
11
126.349
21
-96.682
0
LINE
8
BLACK
6
CONTINUOUS
10
126.349
20
-96.682
11
126.549
21
-96.6447
0
LINE
8
BLACK
6
CONTINUOUS
10
126.549
20
-96.6447
11
126.751
21
-96.6447
0
LINE
8
BLACK
6
CONTINUOUS
10
126.751
20
-96.6447
11
126.951
21
-96.682
0
LINE
8
BLACK
6
CONTINUOUS
10
115.438
20
-111.068
11
115.55
21
-111.125
0
LINE
8
BLACK
6
CONTINUOUS
10
115.55
20
-111.125
11
115.638
21
-111.214
0
LINE
8
BLACK
6
CONTINUOUS
10
115.638
20
-111.214
11
115.695
21
-111.325
0
LINE
8
BLACK
6
CONTINUOUS
10
115.695
20
-111.325
11
115.715
21
-111.449
0
LINE
8
BLACK
6
CONTINUOUS
10
115.715
20
-111.449
11
115.695
21
-111.572
0
LINE
8
BLACK
6
CONTINUOUS
10
115.695
20
-111.572
11
115.638
21
-111.684
0
LINE
8
BLACK
6
CONTINUOUS
10
115.638
20
-111.684
11
115.55
21
-111.772
0
LINE
8
BLACK
6
CONTINUOUS
10
115.55
20
-111.772
11
115.438
21
-111.829
0
LINE
8
BLACK
6
CONTINUOUS
10
115.438
20
-111.829
11
115.315
21
-111.849
0
LINE
8
BLACK
6
CONTINUOUS
10
115.315
20
-111.849
11
115.191
21
-111.829
0
LINE
8
BLACK
6
CONTINUOUS
10
115.191
20
-111.829
11
115.08
21
-111.772
0
LINE
8
BLACK
6
CONTINUOUS
10
115.08
20
-111.772
11
114.991
21
-111.684
0
LINE
8
BLACK
6
CONTINUOUS
10
114.991
20
-111.684
11
114.934
21
-111.572
0
LINE
8
BLACK
6
CONTINUOUS
10
114.934
20
-111.572
11
114.915
21
-111.449
0
LINE
8
BLACK
6
CONTINUOUS
10
114.915
20
-111.449
11
114.934
21
-111.325
0
LINE
8
BLACK
6
CONTINUOUS
10
114.934
20
-111.325
11
114.991
21
-111.214
0
LINE
8
BLACK
6
CONTINUOUS
10
114.991
20
-111.214
11
115.08
21
-111.125
0
LINE
8
BLACK
6
CONTINUOUS
10
115.08
20
-111.125
11
115.191
21
-111.068
0
LINE
8
BLACK
6
CONTINUOUS
10
115.191
20
-111.068
11
115.315
21
-111.049
0
LINE
8
BLACK
6
CONTINUOUS
10
115.315
20
-111.049
11
115.438
21
-111.068
0
LINE
8
BLACK
6
CONTINUOUS
10
132.865
20
-109.678
11
132.953
21
-109.737
0
LINE
8
BLACK
6
CONTINUOUS
10
132.953
20
-109.737
11
133.011
21
-109.825
0
LINE
8
BLACK
6
CONTINUOUS
10
133.011
20
-109.825
11
133.032
21
-109.928
0
LINE
8
BLACK
6
CONTINUOUS
10
133.032
20
-109.928
11
133.032
21
-111.188
0
LINE
8
BLACK
6
CONTINUOUS
10
133.032
20
-111.188
11
133.011
21
-111.291
0
LINE
8
BLACK
6
CONTINUOUS
10
133.011
20
-111.291
11
132.953
21
-111.379
0
LINE
8
BLACK
6
CONTINUOUS
10
132.953
20
-111.379
11
132.865
21
-111.437
0
LINE
8
BLACK
6
CONTINUOUS
10
132.865
20
-111.437
11
132.762
21
-111.458
0
LINE
8
BLACK
6
CONTINUOUS
10
132.762
20
-111.458
11
131.102
21
-111.458
0
LINE
8
BLACK
6
CONTINUOUS
10
131.102
20
-111.458
11
130.998
21
-111.437
0
LINE
8
BLACK
6
CONTINUOUS
10
130.998
20
-111.437
11
130.911
21
-111.379
0
LINE
8
BLACK
6
CONTINUOUS
10
130.911
20
-111.379
11
130.852
21
-111.291
0
LINE
8
BLACK
6
CONTINUOUS
10
130.852
20
-111.291
11
130.832
21
-111.188
0
LINE
8
BLACK
6
CONTINUOUS
10
130.832
20
-111.188
11
130.832
21
-109.928
0
LINE
8
BLACK
6
CONTINUOUS
10
130.832
20
-109.928
11
130.852
21
-109.825
0
LINE
8
BLACK
6
CONTINUOUS
10
130.852
20
-109.825
11
130.911
21
-109.737
0
LINE
8
BLACK
6
CONTINUOUS
10
130.911
20
-109.737
11
130.998
21
-109.678
0
LINE
8
BLACK
6
CONTINUOUS
10
130.998
20
-109.678
11
131.102
21
-109.658
0
LINE
8
BLACK
6
CONTINUOUS
10
131.102
20
-109.658
11
132.762
21
-109.658
0
LINE
8
BLACK
6
CONTINUOUS
10
132.762
20
-109.658
11
132.865
21
-109.678
0
LINE
8
BLACK
6
CONTINUOUS
10
135.405
20
-109.678
11
135.493
21
-109.737
0
LINE
8
BLACK
6
CONTINUOUS
10
135.493
20
-109.737
11
135.551
21
-109.825
0
LINE
8
BLACK
6
CONTINUOUS
10
135.551
20
-109.825
11
135.572
21
-109.928
0
LINE
8
BLACK
6
CONTINUOUS
10
135.572
20
-109.928
11
135.572
21
-111.188
0
LINE
8
BLACK
6
CONTINUOUS
10
135.572
20
-111.188
11
135.551
21
-111.291
0
LINE
8
BLACK
6
CONTINUOUS
10
135.551
20
-111.291
11
135.493
21
-111.379
0
LINE
8
BLACK
6
CONTINUOUS
10
135.493
20
-111.379
11
135.405
21
-111.437
0
LINE
8
BLACK
6
CONTINUOUS
10
135.405
20
-111.437
11
135.302
21
-111.458
0
LINE
8
BLACK
6
CONTINUOUS
10
135.302
20
-111.458
11
133.642
21
-111.458
0
LINE
8
BLACK
6
CONTINUOUS
10
133.642
20
-111.458
11
133.538
21
-111.437
0
LINE
8
BLACK
6
CONTINUOUS
10
133.538
20
-111.437
11
133.451
21
-111.379
0
LINE
8
BLACK
6
CONTINUOUS
10
133.451
20
-111.379
11
133.392
21
-111.291
0
LINE
8
BLACK
6
CONTINUOUS
10
133.392
20
-111.291
11
133.372
21
-111.188
0
LINE
8
BLACK
6
CONTINUOUS
10
133.372
20
-111.188
11
133.372
21
-109.928
0
LINE
8
BLACK
6
CONTINUOUS
10
133.372
20
-109.928
11
133.392
21
-109.825
0
LINE
8
BLACK
6
CONTINUOUS
10
133.392
20
-109.825
11
133.451
21
-109.737
0
LINE
8
BLACK
6
CONTINUOUS
10
133.451
20
-109.737
11
133.538
21
-109.678
0
LINE
8
BLACK
6
CONTINUOUS
10
133.538
20
-109.678
11
133.642
21
-109.658
0
LINE
8
BLACK
6
CONTINUOUS
10
133.642
20
-109.658
11
135.302
21
-109.658
0
LINE
8
BLACK
6
CONTINUOUS
10
135.302
20
-109.658
11
135.405
21
-109.678
0
LINE
8
BLACK
6
CONTINUOUS
10
120.951
20
-110.544
11
121.063
21
-110.601
0
LINE
8
BLACK
6
CONTINUOUS
10
121.063
20
-110.601
11
121.151
21
-110.689
0
LINE
8
BLACK
6
CONTINUOUS
10
121.151
20
-110.689
11
121.208
21
-110.801
0
LINE
8
BLACK
6
CONTINUOUS
10
121.208
20
-110.801
11
121.228
21
-110.924
0
LINE
8
BLACK
6
CONTINUOUS
10
121.228
20
-110.924
11
121.208
21
-111.048
0
LINE
8
BLACK
6
CONTINUOUS
10
121.208
20
-111.048
11
121.151
21
-111.16
0
LINE
8
BLACK
6
CONTINUOUS
10
121.151
20
-111.16
11
121.063
21
-111.248
0
LINE
8
BLACK
6
CONTINUOUS
10
121.063
20
-111.248
11
120.951
21
-111.305
0
LINE
8
BLACK
6
CONTINUOUS
10
120.951
20
-111.305
11
120.828
21
-111.324
0
LINE
8
BLACK
6
CONTINUOUS
10
120.828
20
-111.324
11
120.704
21
-111.305
0
LINE
8
BLACK
6
CONTINUOUS
10
120.704
20
-111.305
11
120.593
21
-111.248
0
LINE
8
BLACK
6
CONTINUOUS
10
120.593
20
-111.248
11
120.504
21
-111.16
0
LINE
8
BLACK
6
CONTINUOUS
10
120.504
20
-111.16
11
120.447
21
-111.048
0
LINE
8
BLACK
6
CONTINUOUS
10
120.447
20
-111.048
11
120.428
21
-110.924
0
LINE
8
BLACK
6
CONTINUOUS
10
120.428
20
-110.924
11
120.447
21
-110.801
0
LINE
8
BLACK
6
CONTINUOUS
10
120.447
20
-110.801
11
120.504
21
-110.689
0
LINE
8
BLACK
6
CONTINUOUS
10
120.504
20
-110.689
11
120.593
21
-110.601
0
LINE
8
BLACK
6
CONTINUOUS
10
120.593
20
-110.601
11
120.704
21
-110.544
0
LINE
8
BLACK
6
CONTINUOUS
10
120.704
20
-110.544
11
120.828
21
-110.524
0
LINE
8
BLACK
6
CONTINUOUS
10
120.828
20
-110.524
11
120.951
21
-110.544
0
LINE
8
BLACK
6
CONTINUOUS
10
114.973
20
-105.895
11
115.085
21
-105.952
0
LINE
8
BLACK
6
CONTINUOUS
10
115.085
20
-105.952
11
115.173
21
-106.04
0
LINE
8
BLACK
6
CONTINUOUS
10
115.173
20
-106.04
11
115.23
21
-106.152
0
LINE
8
BLACK
6
CONTINUOUS
10
115.23
20
-106.152
11
115.25
21
-106.275
0
LINE
8
BLACK
6
CONTINUOUS
10
115.25
20
-106.275
11
115.23
21
-106.399
0
LINE
8
BLACK
6
CONTINUOUS
10
115.23
20
-106.399
11
115.203
21
-106.452
0
LINE
8
BLACK
6
CONTINUOUS
10
115.203
20
-106.452
11
115.928
21
-107.177
0
LINE
8
BLACK
6
CONTINUOUS
10
115.928
20
-107.177
11
115.942
21
-107.195
0
LINE
8
BLACK
6
CONTINUOUS
10
115.942
20
-107.195
11
115.945
21
-107.198
0
LINE
8
BLACK
6
CONTINUOUS
10
115.945
20
-107.198
11
115.946
21
-107.2
0
LINE
8
BLACK
6
CONTINUOUS
10
115.946
20
-107.2
11
115.95
21
-107.205
0
LINE
8
BLACK
6
CONTINUOUS
10
115.95
20
-107.205
11
115.956
21
-107.236
0
LINE
8
BLACK
6
CONTINUOUS
10
115.956
20
-107.236
11
115.965
21
-107.265
0
LINE
8
BLACK
6
CONTINUOUS
10
115.965
20
-107.265
11
115.965
21
-109.81
0
LINE
8
BLACK
6
CONTINUOUS
10
115.965
20
-109.81
11
115.962
21
-109.832
0
LINE
8
BLACK
6
CONTINUOUS
10
115.962
20
-109.832
11
115.962
21
-109.837
0
LINE
8
BLACK
6
CONTINUOUS
10
115.962
20
-109.837
11
115.961
21
-109.839
0
LINE
8
BLACK
6
CONTINUOUS
10
115.961
20
-109.839
11
115.96
21
-109.845
0
LINE
8
BLACK
6
CONTINUOUS
10
115.96
20
-109.845
11
115.943
21
-109.871
0
LINE
8
BLACK
6
CONTINUOUS
10
115.943
20
-109.871
11
115.928
21
-109.898
0
LINE
8
BLACK
6
CONTINUOUS
10
115.928
20
-109.898
11
115.198
21
-110.628
0
LINE
8
BLACK
6
CONTINUOUS
10
115.198
20
-110.628
11
115.181
21
-110.642
0
LINE
8
BLACK
6
CONTINUOUS
10
115.181
20
-110.642
11
115.178
21
-110.645
0
LINE
8
BLACK
6
CONTINUOUS
10
115.178
20
-110.645
11
115.175
21
-110.646
0
LINE
8
BLACK
6
CONTINUOUS
10
115.175
20
-110.646
11
115.17
21
-110.65
0
LINE
8
BLACK
6
CONTINUOUS
10
115.17
20
-110.65
11
115.14
21
-110.656
0
LINE
8
BLACK
6
CONTINUOUS
10
115.14
20
-110.656
11
115.11
21
-110.665
0
LINE
8
BLACK
6
CONTINUOUS
10
115.11
20
-110.665
11
113.823
21
-110.665
0
LINE
8
BLACK
6
CONTINUOUS
10
113.823
20
-110.665
11
113.709
21
-110.792
0
LINE
8
BLACK
6
CONTINUOUS
10
113.709
20
-110.792
11
113.565
21
-110.896
0
LINE
8
BLACK
6
CONTINUOUS
10
113.565
20
-110.896
11
113.403
21
-110.968
0
LINE
8
BLACK
6
CONTINUOUS
10
113.403
20
-110.968
11
113.229
21
-111.005
0
LINE
8
BLACK
6
CONTINUOUS
10
113.229
20
-111.005
11
113.051
21
-111.005
0
LINE
8
BLACK
6
CONTINUOUS
10
113.051
20
-111.005
11
112.877
21
-110.968
0
LINE
8
BLACK
6
CONTINUOUS
10
112.877
20
-110.968
11
112.715
21
-110.896
0
LINE
8
BLACK
6
CONTINUOUS
10
112.715
20
-110.896
11
112.571
21
-110.792
0
LINE
8
BLACK
6
CONTINUOUS
10
112.571
20
-110.792
11
112.452
21
-110.66
0
LINE
8
BLACK
6
CONTINUOUS
10
112.452
20
-110.66
11
112.363
21
-110.506
0
LINE
8
BLACK
6
CONTINUOUS
10
112.363
20
-110.506
11
112.309
21
-110.337
0
LINE
8
BLACK
6
CONTINUOUS
10
112.309
20
-110.337
11
112.29
21
-110.16
0
LINE
8
BLACK
6
CONTINUOUS
10
112.29
20
-110.16
11
112.309
21
-109.983
0
LINE
8
BLACK
6
CONTINUOUS
10
112.309
20
-109.983
11
112.363
21
-109.814
0
LINE
8
BLACK
6
CONTINUOUS
10
112.363
20
-109.814
11
112.452
21
-109.66
0
LINE
8
BLACK
6
CONTINUOUS
10
112.452
20
-109.66
11
112.571
21
-109.528
0
LINE
8
BLACK
6
CONTINUOUS
10
112.571
20
-109.528
11
112.715
21
-109.424
0
LINE
8
BLACK
6
CONTINUOUS
10
112.715
20
-109.424
11
112.877
21
-109.352
0
LINE
8
BLACK
6
CONTINUOUS
10
112.877
20
-109.352
11
113.051
21
-109.315
0
LINE
8
BLACK
6
CONTINUOUS
10
113.051
20
-109.315
11
113.229
21
-109.315
0
LINE
8
BLACK
6
CONTINUOUS
10
113.229
20
-109.315
11
113.403
21
-109.352
0
LINE
8
BLACK
6
CONTINUOUS
10
113.403
20
-109.352
11
113.565
21
-109.424
0
LINE
8
BLACK
6
CONTINUOUS
10
113.565
20
-109.424
11
113.709
21
-109.528
0
LINE
8
BLACK
6
CONTINUOUS
10
113.709
20
-109.528
11
113.828
21
-109.66
0
LINE
8
BLACK
6
CONTINUOUS
10
113.828
20
-109.66
11
113.917
21
-109.814
0
LINE
8
BLACK
6
CONTINUOUS
10
113.917
20
-109.814
11
113.971
21
-109.983
0
LINE
8
BLACK
6
CONTINUOUS
10
113.971
20
-109.983
11
113.99
21
-110.16
0
LINE
8
BLACK
6
CONTINUOUS
10
113.99
20
-110.16
11
113.971
21
-110.337
0
LINE
8
BLACK
6
CONTINUOUS
10
113.971
20
-110.337
11
113.946
21
-110.415
0
LINE
8
BLACK
6
CONTINUOUS
10
113.946
20
-110.415
11
115.058
21
-110.415
0
LINE
8
BLACK
6
CONTINUOUS
10
115.058
20
-110.415
11
115.715
21
-109.758
0
LINE
8
BLACK
6
CONTINUOUS
10
115.715
20
-109.758
11
115.715
21
-107.317
0
LINE
8
BLACK
6
CONTINUOUS
10
115.715
20
-107.317
11
115.026
21
-106.629
0
LINE
8
BLACK
6
CONTINUOUS
10
115.026
20
-106.629
11
114.973
21
-106.656
0
LINE
8
BLACK
6
CONTINUOUS
10
114.973
20
-106.656
11
114.85
21
-106.675
0
LINE
8
BLACK
6
CONTINUOUS
10
114.85
20
-106.675
11
114.726
21
-106.656
0
LINE
8
BLACK
6
CONTINUOUS
10
114.726
20
-106.656
11
114.615
21
-106.599
0
LINE
8
BLACK
6
CONTINUOUS
10
114.615
20
-106.599
11
114.526
21
-106.51
0
LINE
8
BLACK
6
CONTINUOUS
10
114.526
20
-106.51
11
114.469
21
-106.399
0
LINE
8
BLACK
6
CONTINUOUS
10
114.469
20
-106.399
11
114.45
21
-106.275
0
LINE
8
BLACK
6
CONTINUOUS
10
114.45
20
-106.275
11
114.469
21
-106.152
0
LINE
8
BLACK
6
CONTINUOUS
10
114.469
20
-106.152
11
114.526
21
-106.04
0
LINE
8
BLACK
6
CONTINUOUS
10
114.526
20
-106.04
11
114.615
21
-105.952
0
LINE
8
BLACK
6
CONTINUOUS
10
114.615
20
-105.952
11
114.726
21
-105.895
0
LINE
8
BLACK
6
CONTINUOUS
10
114.726
20
-105.895
11
114.85
21
-105.875
0
LINE
8
BLACK
6
CONTINUOUS
10
114.85
20
-105.875
11
114.973
21
-105.895
0
LINE
8
BLACK
6
CONTINUOUS
10
127.079
20
-109.389
11
127.19
21
-109.446
0
LINE
8
BLACK
6
CONTINUOUS
10
127.19
20
-109.446
11
127.279
21
-109.534
0
LINE
8
BLACK
6
CONTINUOUS
10
127.279
20
-109.534
11
127.335
21
-109.646
0
LINE
8
BLACK
6
CONTINUOUS
10
127.335
20
-109.646
11
127.355
21
-109.769
0
LINE
8
BLACK
6
CONTINUOUS
10
127.355
20
-109.769
11
127.335
21
-109.893
0
LINE
8
BLACK
6
CONTINUOUS
10
127.335
20
-109.893
11
127.279
21
-110.004
0
LINE
8
BLACK
6
CONTINUOUS
10
127.279
20
-110.004
11
127.19
21
-110.093
0
LINE
8
BLACK
6
CONTINUOUS
10
127.19
20
-110.093
11
127.079
21
-110.15
0
LINE
8
BLACK
6
CONTINUOUS
10
127.079
20
-110.15
11
126.955
21
-110.169
0
LINE
8
BLACK
6
CONTINUOUS
10
126.955
20
-110.169
11
126.831
21
-110.15
0
LINE
8
BLACK
6
CONTINUOUS
10
126.831
20
-110.15
11
126.72
21
-110.093
0
LINE
8
BLACK
6
CONTINUOUS
10
126.72
20
-110.093
11
126.631
21
-110.004
0
LINE
8
BLACK
6
CONTINUOUS
10
126.631
20
-110.004
11
126.574
21
-109.893
0
LINE
8
BLACK
6
CONTINUOUS
10
126.574
20
-109.893
11
126.555
21
-109.769
0
LINE
8
BLACK
6
CONTINUOUS
10
126.555
20
-109.769
11
126.574
21
-109.646
0
LINE
8
BLACK
6
CONTINUOUS
10
126.574
20
-109.646
11
126.631
21
-109.534
0
LINE
8
BLACK
6
CONTINUOUS
10
126.631
20
-109.534
11
126.72
21
-109.446
0
LINE
8
BLACK
6
CONTINUOUS
10
126.72
20
-109.446
11
126.831
21
-109.389
0
LINE
8
BLACK
6
CONTINUOUS
10
126.831
20
-109.389
11
126.955
21
-109.369
0
LINE
8
BLACK
6
CONTINUOUS
10
126.955
20
-109.369
11
127.079
21
-109.389
0
LINE
8
BLACK
6
CONTINUOUS
10
120.951
20
-109.387
11
121.063
21
-109.444
0
LINE
8
BLACK
6
CONTINUOUS
10
121.063
20
-109.444
11
121.151
21
-109.532
0
LINE
8
BLACK
6
CONTINUOUS
10
121.151
20
-109.532
11
121.208
21
-109.644
0
LINE
8
BLACK
6
CONTINUOUS
10
121.208
20
-109.644
11
121.228
21
-109.767
0
LINE
8
BLACK
6
CONTINUOUS
10
121.228
20
-109.767
11
121.208
21
-109.891
0
LINE
8
BLACK
6
CONTINUOUS
10
121.208
20
-109.891
11
121.151
21
-110.003
0
LINE
8
BLACK
6
CONTINUOUS
10
121.151
20
-110.003
11
121.063
21
-110.091
0
LINE
8
BLACK
6
CONTINUOUS
10
121.063
20
-110.091
11
120.951
21
-110.148
0
LINE
8
BLACK
6
CONTINUOUS
10
120.951
20
-110.148
11
120.828
21
-110.167
0
LINE
8
BLACK
6
CONTINUOUS
10
120.828
20
-110.167
11
120.704
21
-110.148
0
LINE
8
BLACK
6
CONTINUOUS
10
120.704
20
-110.148
11
120.593
21
-110.091
0
LINE
8
BLACK
6
CONTINUOUS
10
120.593
20
-110.091
11
120.504
21
-110.003
0
LINE
8
BLACK
6
CONTINUOUS
10
120.504
20
-110.003
11
120.447
21
-109.891
0
LINE
8
BLACK
6
CONTINUOUS
10
120.447
20
-109.891
11
120.428
21
-109.767
0
LINE
8
BLACK
6
CONTINUOUS
10
120.428
20
-109.767
11
120.447
21
-109.644
0
LINE
8
BLACK
6
CONTINUOUS
10
120.447
20
-109.644
11
120.504
21
-109.532
0
LINE
8
BLACK
6
CONTINUOUS
10
120.504
20
-109.532
11
120.593
21
-109.444
0
LINE
8
BLACK
6
CONTINUOUS
10
120.593
20
-109.444
11
120.704
21
-109.387
0
LINE
8
BLACK
6
CONTINUOUS
10
120.704
20
-109.387
11
120.828
21
-109.367
0
LINE
8
BLACK
6
CONTINUOUS
10
120.828
20
-109.367
11
120.951
21
-109.387
0
LINE
8
BLACK
6
CONTINUOUS
10
114.724
20
-108.545
11
114.835
21
-108.601
0
LINE
8
BLACK
6
CONTINUOUS
10
114.835
20
-108.601
11
114.924
21
-108.69
0
LINE
8
BLACK
6
CONTINUOUS
10
114.924
20
-108.69
11
114.98
21
-108.801
0
LINE
8
BLACK
6
CONTINUOUS
10
114.98
20
-108.801
11
115
21
-108.925
0
LINE
8
BLACK
6
CONTINUOUS
10
115
20
-108.925
11
114.98
21
-109.049
0
LINE
8
BLACK
6
CONTINUOUS
10
114.98
20
-109.049
11
114.924
21
-109.16
0
LINE
8
BLACK
6
CONTINUOUS
10
114.924
20
-109.16
11
114.835
21
-109.249
0
LINE
8
BLACK
6
CONTINUOUS
10
114.835
20
-109.249
11
114.724
21
-109.305
0
LINE
8
BLACK
6
CONTINUOUS
10
114.724
20
-109.305
11
114.6
21
-109.325
0
LINE
8
BLACK
6
CONTINUOUS
10
114.6
20
-109.325
11
114.476
21
-109.305
0
LINE
8
BLACK
6
CONTINUOUS
10
114.476
20
-109.305
11
114.365
21
-109.249
0
LINE
8
BLACK
6
CONTINUOUS
10
114.365
20
-109.249
11
114.276
21
-109.16
0
LINE
8
BLACK
6
CONTINUOUS
10
114.276
20
-109.16
11
114.22
21
-109.049
0
LINE
8
BLACK
6
CONTINUOUS
10
114.22
20
-109.049
11
114.2
21
-108.925
0
LINE
8
BLACK
6
CONTINUOUS
10
114.2
20
-108.925
11
114.22
21
-108.801
0
LINE
8
BLACK
6
CONTINUOUS
10
114.22
20
-108.801
11
114.276
21
-108.69
0
LINE
8
BLACK
6
CONTINUOUS
10
114.276
20
-108.69
11
114.365
21
-108.601
0
LINE
8
BLACK
6
CONTINUOUS
10
114.365
20
-108.601
11
114.476
21
-108.545
0
LINE
8
BLACK
6
CONTINUOUS
10
114.476
20
-108.545
11
114.6
21
-108.525
0
LINE
8
BLACK
6
CONTINUOUS
10
114.6
20
-108.525
11
114.724
21
-108.545
0
LINE
8
BLACK
6
CONTINUOUS
10
132.89
20
-107.138
11
132.978
21
-107.197
0
LINE
8
BLACK
6
CONTINUOUS
10
132.978
20
-107.197
11
133.036
21
-107.285
0
LINE
8
BLACK
6
CONTINUOUS
10
133.036
20
-107.285
11
133.057
21
-107.388
0
LINE
8
BLACK
6
CONTINUOUS
10
133.057
20
-107.388
11
133.057
21
-108.648
0
LINE
8
BLACK
6
CONTINUOUS
10
133.057
20
-108.648
11
133.036
21
-108.751
0
LINE
8
BLACK
6
CONTINUOUS
10
133.036
20
-108.751
11
132.978
21
-108.839
0
LINE
8
BLACK
6
CONTINUOUS
10
132.978
20
-108.839
11
132.89
21
-108.897
0
LINE
8
BLACK
6
CONTINUOUS
10
132.89
20
-108.897
11
132.787
21
-108.918
0
LINE
8
BLACK
6
CONTINUOUS
10
132.787
20
-108.918
11
131.127
21
-108.918
0
LINE
8
BLACK
6
CONTINUOUS
10
131.127
20
-108.918
11
131.023
21
-108.897
0
LINE
8
BLACK
6
CONTINUOUS
10
131.023
20
-108.897
11
130.936
21
-108.839
0
LINE
8
BLACK
6
CONTINUOUS
10
130.936
20
-108.839
11
130.877
21
-108.751
0
LINE
8
BLACK
6
CONTINUOUS
10
130.877
20
-108.751
11
130.857
21
-108.648
0
LINE
8
BLACK
6
CONTINUOUS
10
130.857
20
-108.648
11
130.857
21
-107.388
0
LINE
8
BLACK
6
CONTINUOUS
10
130.857
20
-107.388
11
130.877
21
-107.285
0
LINE
8
BLACK
6
CONTINUOUS
10
130.877
20
-107.285
11
130.936
21
-107.197
0
LINE
8
BLACK
6
CONTINUOUS
10
130.936
20
-107.197
11
131.023
21
-107.138
0
LINE
8
BLACK
6
CONTINUOUS
10
131.023
20
-107.138
11
131.127
21
-107.118
0
LINE
8
BLACK
6
CONTINUOUS
10
131.127
20
-107.118
11
132.787
21
-107.118
0
LINE
8
BLACK
6
CONTINUOUS
10
132.787
20
-107.118
11
132.89
21
-107.138
0
LINE
8
BLACK
6
CONTINUOUS
10
135.405
20
-107.138
11
135.493
21
-107.197
0
LINE
8
BLACK
6
CONTINUOUS
10
135.493
20
-107.197
11
135.551
21
-107.285
0
LINE
8
BLACK
6
CONTINUOUS
10
135.551
20
-107.285
11
135.572
21
-107.388
0
LINE
8
BLACK
6
CONTINUOUS
10
135.572
20
-107.388
11
135.572
21
-108.648
0
LINE
8
BLACK
6
CONTINUOUS
10
135.572
20
-108.648
11
135.551
21
-108.751
0
LINE
8
BLACK
6
CONTINUOUS
10
135.551
20
-108.751
11
135.493
21
-108.839
0
LINE
8
BLACK
6
CONTINUOUS
10
135.493
20
-108.839
11
135.405
21
-108.897
0
LINE
8
BLACK
6
CONTINUOUS
10
135.405
20
-108.897
11
135.302
21
-108.918
0
LINE
8
BLACK
6
CONTINUOUS
10
135.302
20
-108.918
11
133.642
21
-108.918
0
LINE
8
BLACK
6
CONTINUOUS
10
133.642
20
-108.918
11
133.538
21
-108.897
0
LINE
8
BLACK
6
CONTINUOUS
10
133.538
20
-108.897
11
133.451
21
-108.839
0
LINE
8
BLACK
6
CONTINUOUS
10
133.451
20
-108.839
11
133.392
21
-108.751
0
LINE
8
BLACK
6
CONTINUOUS
10
133.392
20
-108.751
11
133.372
21
-108.648
0
LINE
8
BLACK
6
CONTINUOUS
10
133.372
20
-108.648
11
133.372
21
-107.388
0
LINE
8
BLACK
6
CONTINUOUS
10
133.372
20
-107.388
11
133.392
21
-107.285
0
LINE
8
BLACK
6
CONTINUOUS
10
133.392
20
-107.285
11
133.451
21
-107.197
0
LINE
8
BLACK
6
CONTINUOUS
10
133.451
20
-107.197
11
133.538
21
-107.138
0
LINE
8
BLACK
6
CONTINUOUS
10
133.538
20
-107.138
11
133.642
21
-107.118
0
LINE
8
BLACK
6
CONTINUOUS
10
133.642
20
-107.118
11
135.302
21
-107.118
0
LINE
8
BLACK
6
CONTINUOUS
10
135.302
20
-107.118
11
135.405
21
-107.138
0
LINE
8
BLACK
6
CONTINUOUS
10
113.403
20
-106.812
11
113.565
21
-106.884
0
LINE
8
BLACK
6
CONTINUOUS
10
113.565
20
-106.884
11
113.709
21
-106.988
0
LINE
8
BLACK
6
CONTINUOUS
10
113.709
20
-106.988
11
113.828
21
-107.12
0
LINE
8
BLACK
6
CONTINUOUS
10
113.828
20
-107.12
11
113.917
21
-107.274
0
LINE
8
BLACK
6
CONTINUOUS
10
113.917
20
-107.274
11
113.971
21
-107.443
0
LINE
8
BLACK
6
CONTINUOUS
10
113.971
20
-107.443
11
113.99
21
-107.62
0
LINE
8
BLACK
6
CONTINUOUS
10
113.99
20
-107.62
11
113.971
21
-107.797
0
LINE
8
BLACK
6
CONTINUOUS
10
113.971
20
-107.797
11
113.917
21
-107.966
0
LINE
8
BLACK
6
CONTINUOUS
10
113.917
20
-107.966
11
113.828
21
-108.12
0
LINE
8
BLACK
6
CONTINUOUS
10
113.828
20
-108.12
11
113.709
21
-108.252
0
LINE
8
BLACK
6
CONTINUOUS
10
113.709
20
-108.252
11
113.565
21
-108.356
0
LINE
8
BLACK
6
CONTINUOUS
10
113.565
20
-108.356
11
113.403
21
-108.428
0
LINE
8
BLACK
6
CONTINUOUS
10
113.403
20
-108.428
11
113.229
21
-108.465
0
LINE
8
BLACK
6
CONTINUOUS
10
113.229
20
-108.465
11
113.051
21
-108.465
0
LINE
8
BLACK
6
CONTINUOUS
10
113.051
20
-108.465
11
112.877
21
-108.428
0
LINE
8
BLACK
6
CONTINUOUS
10
112.877
20
-108.428
11
112.715
21
-108.356
0
LINE
8
BLACK
6
CONTINUOUS
10
112.715
20
-108.356
11
112.571
21
-108.252
0
LINE
8
BLACK
6
CONTINUOUS
10
112.571
20
-108.252
11
112.452
21
-108.12
0
LINE
8
BLACK
6
CONTINUOUS
10
112.452
20
-108.12
11
112.363
21
-107.966
0
LINE
8
BLACK
6
CONTINUOUS
10
112.363
20
-107.966
11
112.309
21
-107.797
0
LINE
8
BLACK
6
CONTINUOUS
10
112.309
20
-107.797
11
112.29
21
-107.62
0
LINE
8
BLACK
6
CONTINUOUS
10
112.29
20
-107.62
11
112.309
21
-107.443
0
LINE
8
BLACK
6
CONTINUOUS
10
112.309
20
-107.443
11
112.363
21
-107.274
0
LINE
8
BLACK
6
CONTINUOUS
10
112.363
20
-107.274
11
112.452
21
-107.12
0
LINE
8
BLACK
6
CONTINUOUS
10
112.452
20
-107.12
11
112.571
21
-106.988
0
LINE
8
BLACK
6
CONTINUOUS
10
112.571
20
-106.988
11
112.715
21
-106.884
0
LINE
8
BLACK
6
CONTINUOUS
10
112.715
20
-106.884
11
112.877
21
-106.812
0
LINE
8
BLACK
6
CONTINUOUS
10
112.877
20
-106.812
11
113.051
21
-106.775
0
LINE
8
BLACK
6
CONTINUOUS
10
113.051
20
-106.775
11
113.229
21
-106.775
0
LINE
8
BLACK
6
CONTINUOUS
10
113.229
20
-106.775
11
113.403
21
-106.812
0
LINE
8
BLACK
6
CONTINUOUS
10
118.511
20
-105.396
11
118.623
21
-105.453
0
LINE
8
BLACK
6
CONTINUOUS
10
118.623
20
-105.453
11
118.711
21
-105.541
0
LINE
8
BLACK
6
CONTINUOUS
10
118.711
20
-105.541
11
118.768
21
-105.653
0
LINE
8
BLACK
6
CONTINUOUS
10
118.768
20
-105.653
11
118.787
21
-105.776
0
LINE
8
BLACK
6
CONTINUOUS
10
118.787
20
-105.776
11
118.768
21
-105.9
0
LINE
8
BLACK
6
CONTINUOUS
10
118.768
20
-105.9
11
118.711
21
-106.011
0
LINE
8
BLACK
6
CONTINUOUS
10
118.711
20
-106.011
11
118.623
21
-106.1
0
LINE
8
BLACK
6
CONTINUOUS
10
118.623
20
-106.1
11
118.511
21
-106.157
0
LINE
8
BLACK
6
CONTINUOUS
10
118.511
20
-106.157
11
118.387
21
-106.176
0
LINE
8
BLACK
6
CONTINUOUS
10
118.387
20
-106.176
11
118.264
21
-106.157
0
LINE
8
BLACK
6
CONTINUOUS
10
118.264
20
-106.157
11
118.152
21
-106.1
0
LINE
8
BLACK
6
CONTINUOUS
10
118.152
20
-106.1
11
118.064
21
-106.011
0
LINE
8
BLACK
6
CONTINUOUS
10
118.064
20
-106.011
11
118.007
21
-105.9
0
LINE
8
BLACK
6
CONTINUOUS
10
118.007
20
-105.9
11
117.987
21
-105.776
0
LINE
8
BLACK
6
CONTINUOUS
10
117.987
20
-105.776
11
118.007
21
-105.653
0
LINE
8
BLACK
6
CONTINUOUS
10
118.007
20
-105.653
11
118.064
21
-105.541
0
LINE
8
BLACK
6
CONTINUOUS
10
118.064
20
-105.541
11
118.152
21
-105.453
0
LINE
8
BLACK
6
CONTINUOUS
10
118.152
20
-105.453
11
118.264
21
-105.396
0
LINE
8
BLACK
6
CONTINUOUS
10
118.264
20
-105.396
11
118.387
21
-105.376
0
LINE
8
BLACK
6
CONTINUOUS
10
118.387
20
-105.376
11
118.511
21
-105.396
0
LINE
8
BLACK
6
CONTINUOUS
10
125.439
20
-104.542
11
125.551
21
-104.599
0
LINE
8
BLACK
6
CONTINUOUS
10
125.551
20
-104.599
11
125.639
21
-104.688
0
LINE
8
BLACK
6
CONTINUOUS
10
125.639
20
-104.688
11
125.696
21
-104.799
0
LINE
8
BLACK
6
CONTINUOUS
10
125.696
20
-104.799
11
125.716
21
-104.923
0
LINE
8
BLACK
6
CONTINUOUS
10
125.716
20
-104.923
11
125.696
21
-105.047
0
LINE
8
BLACK
6
CONTINUOUS
10
125.696
20
-105.047
11
125.639
21
-105.158
0
LINE
8
BLACK
6
CONTINUOUS
10
125.639
20
-105.158
11
125.551
21
-105.247
0
LINE
8
BLACK
6
CONTINUOUS
10
125.551
20
-105.247
11
125.439
21
-105.303
0
LINE
8
BLACK
6
CONTINUOUS
10
125.439
20
-105.303
11
125.316
21
-105.323
0
LINE
8
BLACK
6
CONTINUOUS
10
125.316
20
-105.323
11
125.192
21
-105.303
0
LINE
8
BLACK
6
CONTINUOUS
10
125.192
20
-105.303
11
125.081
21
-105.247
0
LINE
8
BLACK
6
CONTINUOUS
10
125.081
20
-105.247
11
124.992
21
-105.158
0
LINE
8
BLACK
6
CONTINUOUS
10
124.992
20
-105.158
11
124.935
21
-105.047
0
LINE
8
BLACK
6
CONTINUOUS
10
124.935
20
-105.047
11
124.916
21
-104.923
0
LINE
8
BLACK
6
CONTINUOUS
10
124.916
20
-104.923
11
124.935
21
-104.799
0
LINE
8
BLACK
6
CONTINUOUS
10
124.935
20
-104.799
11
124.992
21
-104.688
0
LINE
8
BLACK
6
CONTINUOUS
10
124.992
20
-104.688
11
125.081
21
-104.599
0
LINE
8
BLACK
6
CONTINUOUS
10
125.081
20
-104.599
11
125.192
21
-104.542
0
LINE
8
BLACK
6
CONTINUOUS
10
125.192
20
-104.542
11
125.316
21
-104.523
0
LINE
8
BLACK
6
CONTINUOUS
10
125.316
20
-104.523
11
125.439
21
-104.542
0
LINE
8
BLACK
6
CONTINUOUS
10
116.545
20
-104.461
11
116.657
21
-104.518
0
LINE
8
BLACK
6
CONTINUOUS
10
116.657
20
-104.518
11
116.745
21
-104.606
0
LINE
8
BLACK
6
CONTINUOUS
10
116.745
20
-104.606
11
116.802
21
-104.718
0
LINE
8
BLACK
6
CONTINUOUS
10
116.802
20
-104.718
11
116.822
21
-104.841
0
LINE
8
BLACK
6
CONTINUOUS
10
116.822
20
-104.841
11
116.802
21
-104.965
0
LINE
8
BLACK
6
CONTINUOUS
10
116.802
20
-104.965
11
116.745
21
-105.077
0
LINE
8
BLACK
6
CONTINUOUS
10
116.745
20
-105.077
11
116.657
21
-105.165
0
LINE
8
BLACK
6
CONTINUOUS
10
116.657
20
-105.165
11
116.545
21
-105.222
0
LINE
8
BLACK
6
CONTINUOUS
10
116.545
20
-105.222
11
116.422
21
-105.242
0
LINE
8
BLACK
6
CONTINUOUS
10
116.422
20
-105.242
11
116.298
21
-105.222
0
LINE
8
BLACK
6
CONTINUOUS
10
116.298
20
-105.222
11
116.186
21
-105.165
0
LINE
8
BLACK
6
CONTINUOUS
10
116.186
20
-105.165
11
116.098
21
-105.077
0
LINE
8
BLACK
6
CONTINUOUS
10
116.098
20
-105.077
11
116.041
21
-104.965
0
LINE
8
BLACK
6
CONTINUOUS
10
116.041
20
-104.965
11
116.022
21
-104.841
0
LINE
8
BLACK
6
CONTINUOUS
10
116.022
20
-104.841
11
116.041
21
-104.718
0
LINE
8
BLACK
6
CONTINUOUS
10
116.041
20
-104.718
11
116.098
21
-104.606
0
LINE
8
BLACK
6
CONTINUOUS
10
116.098
20
-104.606
11
116.186
21
-104.518
0
LINE
8
BLACK
6
CONTINUOUS
10
116.186
20
-104.518
11
116.298
21
-104.461
0
LINE
8
BLACK
6
CONTINUOUS
10
116.298
20
-104.461
11
116.422
21
-104.441
0
LINE
8
BLACK
6
CONTINUOUS
10
116.422
20
-104.441
11
116.545
21
-104.461
0
LINE
8
BLACK
6
CONTINUOUS
10
129.092
20
-104.317
11
129.204
21
-104.374
0
LINE
8
BLACK
6
CONTINUOUS
10
129.204
20
-104.374
11
129.292
21
-104.463
0
LINE
8
BLACK
6
CONTINUOUS
10
129.292
20
-104.463
11
129.349
21
-104.574
0
LINE
8
BLACK
6
CONTINUOUS
10
129.349
20
-104.574
11
129.369
21
-104.698
0
LINE
8
BLACK
6
CONTINUOUS
10
129.369
20
-104.698
11
129.349
21
-104.821
0
LINE
8
BLACK
6
CONTINUOUS
10
129.349
20
-104.821
11
129.292
21
-104.933
0
LINE
8
BLACK
6
CONTINUOUS
10
129.292
20
-104.933
11
129.204
21
-105.021
0
LINE
8
BLACK
6
CONTINUOUS
10
129.204
20
-105.021
11
129.092
21
-105.078
0
LINE
8
BLACK
6
CONTINUOUS
10
129.092
20
-105.078
11
128.969
21
-105.098
0
LINE
8
BLACK
6
CONTINUOUS
10
128.969
20
-105.098
11
128.845
21
-105.078
0
LINE
8
BLACK
6
CONTINUOUS
10
128.845
20
-105.078
11
128.733
21
-105.021
0
LINE
8
BLACK
6
CONTINUOUS
10
128.733
20
-105.021
11
128.645
21
-104.933
0
LINE
8
BLACK
6
CONTINUOUS
10
128.645
20
-104.933
11
128.588
21
-104.821
0
LINE
8
BLACK
6
CONTINUOUS
10
128.588
20
-104.821
11
128.569
21
-104.698
0
LINE
8
BLACK
6
CONTINUOUS
10
128.569
20
-104.698
11
128.588
21
-104.574
0
LINE
8
BLACK
6
CONTINUOUS
10
128.588
20
-104.574
11
128.645
21
-104.463
0
LINE
8
BLACK
6
CONTINUOUS
10
128.645
20
-104.463
11
128.733
21
-104.374
0
LINE
8
BLACK
6
CONTINUOUS
10
128.733
20
-104.374
11
128.845
21
-104.317
0
LINE
8
BLACK
6
CONTINUOUS
10
128.845
20
-104.317
11
128.969
21
-104.298
0
LINE
8
BLACK
6
CONTINUOUS
10
128.969
20
-104.298
11
129.092
21
-104.317
0
LINE
8
BLACK
6
CONTINUOUS
10
132.785
20
-103.709
11
132.896
21
-103.765
0
LINE
8
BLACK
6
CONTINUOUS
10
132.896
20
-103.765
11
132.985
21
-103.854
0
LINE
8
BLACK
6
CONTINUOUS
10
132.985
20
-103.854
11
133.041
21
-103.965
0
LINE
8
BLACK
6
CONTINUOUS
10
133.041
20
-103.965
11
133.061
21
-104.089
0
LINE
8
BLACK
6
CONTINUOUS
10
133.061
20
-104.089
11
133.041
21
-104.213
0
LINE
8
BLACK
6
CONTINUOUS
10
133.041
20
-104.213
11
132.985
21
-104.324
0
LINE
8
BLACK
6
CONTINUOUS
10
132.985
20
-104.324
11
132.896
21
-104.413
0
LINE
8
BLACK
6
CONTINUOUS
10
132.896
20
-104.413
11
132.785
21
-104.469
0
LINE
8
BLACK
6
CONTINUOUS
10
132.785
20
-104.469
11
132.661
21
-104.489
0
LINE
8
BLACK
6
CONTINUOUS
10
132.661
20
-104.489
11
132.537
21
-104.469
0
LINE
8
BLACK
6
CONTINUOUS
10
132.537
20
-104.469
11
132.426
21
-104.413
0
LINE
8
BLACK
6
CONTINUOUS
10
132.426
20
-104.413
11
132.337
21
-104.324
0
LINE
8
BLACK
6
CONTINUOUS
10
132.337
20
-104.324
11
132.281
21
-104.213
0
LINE
8
BLACK
6
CONTINUOUS
10
132.281
20
-104.213
11
132.261
21
-104.089
0
LINE
8
BLACK
6
CONTINUOUS
10
132.261
20
-104.089
11
132.281
21
-103.965
0
LINE
8
BLACK
6
CONTINUOUS
10
132.281
20
-103.965
11
132.337
21
-103.854
0
LINE
8
BLACK
6
CONTINUOUS
10
132.337
20
-103.854
11
132.426
21
-103.765
0
LINE
8
BLACK
6
CONTINUOUS
10
132.426
20
-103.765
11
132.537
21
-103.709
0
LINE
8
BLACK
6
CONTINUOUS
10
132.537
20
-103.709
11
132.661
21
-103.689
0
LINE
8
BLACK
6
CONTINUOUS
10
132.661
20
-103.689
11
132.785
21
-103.709
0
LINE
8
BLACK
6
CONTINUOUS
10
113.403
20
-101.732
11
113.565
21
-101.804
0
LINE
8
BLACK
6
CONTINUOUS
10
113.565
20
-101.804
11
113.709
21
-101.908
0
LINE
8
BLACK
6
CONTINUOUS
10
113.709
20
-101.908
11
113.828
21
-102.04
0
LINE
8
BLACK
6
CONTINUOUS
10
113.828
20
-102.04
11
113.917
21
-102.194
0
LINE
8
BLACK
6
CONTINUOUS
10
113.917
20
-102.194
11
113.971
21
-102.363
0
LINE
8
BLACK
6
CONTINUOUS
10
113.971
20
-102.363
11
113.99
21
-102.54
0
LINE
8
BLACK
6
CONTINUOUS
10
113.99
20
-102.54
11
113.971
21
-102.717
0
LINE
8
BLACK
6
CONTINUOUS
10
113.971
20
-102.717
11
113.917
21
-102.886
0
LINE
8
BLACK
6
CONTINUOUS
10
113.917
20
-102.886
11
113.828
21
-103.04
0
LINE
8
BLACK
6
CONTINUOUS
10
113.828
20
-103.04
11
113.709
21
-103.172
0
LINE
8
BLACK
6
CONTINUOUS
10
113.709
20
-103.172
11
113.565
21
-103.276
0
LINE
8
BLACK
6
CONTINUOUS
10
113.565
20
-103.276
11
113.403
21
-103.348
0
LINE
8
BLACK
6
CONTINUOUS
10
113.403
20
-103.348
11
113.229
21
-103.385
0
LINE
8
BLACK
6
CONTINUOUS
10
113.229
20
-103.385
11
113.051
21
-103.385
0
LINE
8
BLACK
6
CONTINUOUS
10
113.051
20
-103.385
11
112.877
21
-103.348
0
LINE
8
BLACK
6
CONTINUOUS
10
112.877
20
-103.348
11
112.715
21
-103.276
0
LINE
8
BLACK
6
CONTINUOUS
10
112.715
20
-103.276
11
112.571
21
-103.172
0
LINE
8
BLACK
6
CONTINUOUS
10
112.571
20
-103.172
11
112.452
21
-103.04
0
LINE
8
BLACK
6
CONTINUOUS
10
112.452
20
-103.04
11
112.363
21
-102.886
0
LINE
8
BLACK
6
CONTINUOUS
10
112.363
20
-102.886
11
112.309
21
-102.717
0
LINE
8
BLACK
6
CONTINUOUS
10
112.309
20
-102.717
11
112.29
21
-102.54
0
LINE
8
BLACK
6
CONTINUOUS
10
112.29
20
-102.54
11
112.309
21
-102.363
0
LINE
8
BLACK
6
CONTINUOUS
10
112.309
20
-102.363
11
112.363
21
-102.194
0
LINE
8
BLACK
6
CONTINUOUS
10
112.363
20
-102.194
11
112.452
21
-102.04
0
LINE
8
BLACK
6
CONTINUOUS
10
112.452
20
-102.04
11
112.571
21
-101.908
0
LINE
8
BLACK
6
CONTINUOUS
10
112.571
20
-101.908
11
112.715
21
-101.804
0
LINE
8
BLACK
6
CONTINUOUS
10
112.715
20
-101.804
11
112.877
21
-101.732
0
LINE
8
BLACK
6
CONTINUOUS
10
112.877
20
-101.732
11
113.051
21
-101.695
0
LINE
8
BLACK
6
CONTINUOUS
10
113.051
20
-101.695
11
113.229
21
-101.695
0
LINE
8
BLACK
6
CONTINUOUS
10
113.229
20
-101.695
11
113.403
21
-101.732
0
LINE
8
BLACK
6
CONTINUOUS
10
134.969
20
-99.9086
11
135.081
21
-99.9654
0
LINE
8
BLACK
6
CONTINUOUS
10
135.081
20
-99.9654
11
135.169
21
-100.054
0
LINE
8
BLACK
6
CONTINUOUS
10
135.169
20
-100.054
11
135.226
21
-100.165
0
LINE
8
BLACK
6
CONTINUOUS
10
135.226
20
-100.165
11
135.245
21
-100.289
0
LINE
8
BLACK
6
CONTINUOUS
10
135.245
20
-100.289
11
135.226
21
-100.413
0
LINE
8
BLACK
6
CONTINUOUS
10
135.226
20
-100.413
11
135.169
21
-100.524
0
LINE
8
BLACK
6
CONTINUOUS
10
135.169
20
-100.524
11
135.081
21
-100.613
0
LINE
8
BLACK
6
CONTINUOUS
10
135.081
20
-100.613
11
134.969
21
-100.669
0
LINE
8
BLACK
6
CONTINUOUS
10
134.969
20
-100.669
11
134.845
21
-100.689
0
LINE
8
BLACK
6
CONTINUOUS
10
134.845
20
-100.689
11
134.722
21
-100.669
0
LINE
8
BLACK
6
CONTINUOUS
10
134.722
20
-100.669
11
134.61
21
-100.613
0
LINE
8
BLACK
6
CONTINUOUS
10
134.61
20
-100.613
11
134.522
21
-100.524
0
LINE
8
BLACK
6
CONTINUOUS
10
134.522
20
-100.524
11
134.465
21
-100.413
0
LINE
8
BLACK
6
CONTINUOUS
10
134.465
20
-100.413
11
134.445
21
-100.289
0
LINE
8
BLACK
6
CONTINUOUS
10
134.445
20
-100.289
11
134.465
21
-100.165
0
LINE
8
BLACK
6
CONTINUOUS
10
134.465
20
-100.165
11
134.522
21
-100.054
0
LINE
8
BLACK
6
CONTINUOUS
10
134.522
20
-100.054
11
134.61
21
-99.9654
0
LINE
8
BLACK
6
CONTINUOUS
10
134.61
20
-99.9654
11
134.722
21
-99.9086
0
LINE
8
BLACK
6
CONTINUOUS
10
134.722
20
-99.9086
11
134.845
21
-99.889
0
LINE
8
BLACK
6
CONTINUOUS
10
134.845
20
-99.889
11
134.969
21
-99.9086
0
LINE
8
BLACK
6
CONTINUOUS
10
135.37
20
-98.84
11
133.17
21
-98.84
0
LINE
8
BLACK
6
CONTINUOUS
10
133.17
20
-98.84
11
133.17
21
-96.64
0
LINE
8
BLACK
6
CONTINUOUS
10
133.17
20
-96.64
11
135.37
21
-96.64
0
LINE
8
BLACK
6
CONTINUOUS
10
135.37
20
-96.64
11
135.37
21
-98.84
0
LINE
8
BLACK
6
CONTINUOUS
10
114.251
20
-96.682
11
114.44
21
-96.7553
0
LINE
8
BLACK
6
CONTINUOUS
10
114.44
20
-96.7553
11
114.613
21
-96.8622
0
LINE
8
BLACK
6
CONTINUOUS
10
114.613
20
-96.8622
11
114.763
21
-96.9989
0
LINE
8
BLACK
6
CONTINUOUS
10
114.763
20
-96.9989
11
114.885
21
-97.1609
0
LINE
8
BLACK
6
CONTINUOUS
10
114.885
20
-97.1609
11
114.976
21
-97.3426
0
LINE
8
BLACK
6
CONTINUOUS
10
114.976
20
-97.3426
11
115.031
21
-97.5379
0
LINE
8
BLACK
6
CONTINUOUS
10
115.031
20
-97.5379
11
115.05
21
-97.74
0
LINE
8
BLACK
6
CONTINUOUS
10
115.05
20
-97.74
11
115.031
21
-97.9421
0
LINE
8
BLACK
6
CONTINUOUS
10
115.031
20
-97.9421
11
114.976
21
-98.1374
0
LINE
8
BLACK
6
CONTINUOUS
10
114.976
20
-98.1374
11
114.885
21
-98.3191
0
LINE
8
BLACK
6
CONTINUOUS
10
114.885
20
-98.3191
11
114.763
21
-98.4811
0
LINE
8
BLACK
6
CONTINUOUS
10
114.763
20
-98.4811
11
114.613
21
-98.6178
0
LINE
8
BLACK
6
CONTINUOUS
10
114.613
20
-98.6178
11
114.44
21
-98.7247
0
LINE
8
BLACK
6
CONTINUOUS
10
114.44
20
-98.7247
11
114.251
21
-98.798
0
LINE
8
BLACK
6
CONTINUOUS
10
114.251
20
-98.798
11
114.051
21
-98.8353
0
LINE
8
BLACK
6
CONTINUOUS
10
114.051
20
-98.8353
11
113.849
21
-98.8353
0
LINE
8
BLACK
6
CONTINUOUS
10
113.849
20
-98.8353
11
113.649
21
-98.798
0
LINE
8
BLACK
6
CONTINUOUS
10
113.649
20
-98.798
11
113.46
21
-98.7247
0
LINE
8
BLACK
6
CONTINUOUS
10
113.46
20
-98.7247
11
113.287
21
-98.6178
0
LINE
8
BLACK
6
CONTINUOUS
10
113.287
20
-98.6178
11
113.137
21
-98.4811
0
LINE
8
BLACK
6
CONTINUOUS
10
113.137
20
-98.4811
11
113.015
21
-98.3191
0
LINE
8
BLACK
6
CONTINUOUS
10
113.015
20
-98.3191
11
112.924
21
-98.1374
0
LINE
8
BLACK
6
CONTINUOUS
10
112.924
20
-98.1374
11
112.869
21
-97.9421
0
LINE
8
BLACK
6
CONTINUOUS
10
112.869
20
-97.9421
11
112.85
21
-97.74
0
LINE
8
BLACK
6
CONTINUOUS
10
112.85
20
-97.74
11
112.869
21
-97.5379
0
LINE
8
BLACK
6
CONTINUOUS
10
112.869
20
-97.5379
11
112.924
21
-97.3426
0
LINE
8
BLACK
6
CONTINUOUS
10
112.924
20
-97.3426
11
113.015
21
-97.1609
0
LINE
8
BLACK
6
CONTINUOUS
10
113.015
20
-97.1609
11
113.137
21
-96.9989
0
LINE
8
BLACK
6
CONTINUOUS
10
113.137
20
-96.9989
11
113.287
21
-96.8622
0
LINE
8
BLACK
6
CONTINUOUS
10
113.287
20
-96.8622
11
113.46
21
-96.7553
0
LINE
8
BLACK
6
CONTINUOUS
10
113.46
20
-96.7553
11
113.649
21
-96.682
0
LINE
8
BLACK
6
CONTINUOUS
10
113.649
20
-96.682
11
113.849
21
-96.6447
0
LINE
8
BLACK
6
CONTINUOUS
10
113.849
20
-96.6447
11
114.051
21
-96.6447
0
LINE
8
BLACK
6
CONTINUOUS
10
114.051
20
-96.6447
11
114.251
21
-96.682
0
LINE
8
BLACK
6
CONTINUOUS
10
116.791
20
-96.682
11
116.98
21
-96.7553
0
LINE
8
BLACK
6
CONTINUOUS
10
116.98
20
-96.7553
11
117.153
21
-96.8622
0
LINE
8
BLACK
6
CONTINUOUS
10
117.153
20
-96.8622
11
117.303
21
-96.9989
0
LINE
8
BLACK
6
CONTINUOUS
10
117.303
20
-96.9989
11
117.425
21
-97.1609
0
LINE
8
BLACK
6
CONTINUOUS
10
117.425
20
-97.1609
11
117.516
21
-97.3426
0
LINE
8
BLACK
6
CONTINUOUS
10
117.516
20
-97.3426
11
117.571
21
-97.5379
0
LINE
8
BLACK
6
CONTINUOUS
10
117.571
20
-97.5379
11
117.59
21
-97.74
0
LINE
8
BLACK
6
CONTINUOUS
10
117.59
20
-97.74
11
117.571
21
-97.9421
0
LINE
8
BLACK
6
CONTINUOUS
10
117.571
20
-97.9421
11
117.516
21
-98.1374
0
LINE
8
BLACK
6
CONTINUOUS
10
117.516
20
-98.1374
11
117.425
21
-98.3191
0
LINE
8
BLACK
6
CONTINUOUS
10
117.425
20
-98.3191
11
117.303
21
-98.4811
0
LINE
8
BLACK
6
CONTINUOUS
10
117.303
20
-98.4811
11
117.153
21
-98.6178
0
LINE
8
BLACK
6
CONTINUOUS
10
117.153
20
-98.6178
11
116.98
21
-98.7247
0
LINE
8
BLACK
6
CONTINUOUS
10
116.98
20
-98.7247
11
116.791
21
-98.798
0
LINE
8
BLACK
6
CONTINUOUS
10
116.791
20
-98.798
11
116.591
21
-98.8353
0
LINE
8
BLACK
6
CONTINUOUS
10
116.591
20
-98.8353
11
116.389
21
-98.8353
0
LINE
8
BLACK
6
CONTINUOUS
10
116.389
20
-98.8353
11
116.189
21
-98.798
0
LINE
8
BLACK
6
CONTINUOUS
10
116.189
20
-98.798
11
116
21
-98.7247
0
LINE
8
BLACK
6
CONTINUOUS
10
116
20
-98.7247
11
115.827
21
-98.6178
0
LINE
8
BLACK
6
CONTINUOUS
10
115.827
20
-98.6178
11
115.677
21
-98.4811
0
LINE
8
BLACK
6
CONTINUOUS
10
115.677
20
-98.4811
11
115.555
21
-98.3191
0
LINE
8
BLACK
6
CONTINUOUS
10
115.555
20
-98.3191
11
115.464
21
-98.1374
0
LINE
8
BLACK
6
CONTINUOUS
10
115.464
20
-98.1374
11
115.409
21
-97.9421
0
LINE
8
BLACK
6
CONTINUOUS
10
115.409
20
-97.9421
11
115.39
21
-97.74
0
LINE
8
BLACK
6
CONTINUOUS
10
115.39
20
-97.74
11
115.409
21
-97.5379
0
LINE
8
BLACK
6
CONTINUOUS
10
115.409
20
-97.5379
11
115.464
21
-97.3426
0
LINE
8
BLACK
6
CONTINUOUS
10
115.464
20
-97.3426
11
115.555
21
-97.1609
0
LINE
8
BLACK
6
CONTINUOUS
10
115.555
20
-97.1609
11
115.677
21
-96.9989
0
LINE
8
BLACK
6
CONTINUOUS
10
115.677
20
-96.9989
11
115.827
21
-96.8622
0
LINE
8
BLACK
6
CONTINUOUS
10
115.827
20
-96.8622
11
116
21
-96.7553
0
LINE
8
BLACK
6
CONTINUOUS
10
116
20
-96.7553
11
116.189
21
-96.682
0
LINE
8
BLACK
6
CONTINUOUS
10
116.189
20
-96.682
11
116.389
21
-96.6447
0
LINE
8
BLACK
6
CONTINUOUS
10
116.389
20
-96.6447
11
116.591
21
-96.6447
0
LINE
8
BLACK
6
CONTINUOUS
10
116.591
20
-96.6447
11
116.791
21
-96.682
0
LINE
8
BLACK
6
CONTINUOUS
10
119.331
20
-96.682
11
119.52
21
-96.7553
0
LINE
8
BLACK
6
CONTINUOUS
10
119.52
20
-96.7553
11
119.693
21
-96.8622
0
LINE
8
BLACK
6
CONTINUOUS
10
119.693
20
-96.8622
11
119.843
21
-96.9989
0
LINE
8
BLACK
6
CONTINUOUS
10
119.843
20
-96.9989
11
119.965
21
-97.1609
0
LINE
8
BLACK
6
CONTINUOUS
10
119.965
20
-97.1609
11
120.056
21
-97.3426
0
LINE
8
BLACK
6
CONTINUOUS
10
120.056
20
-97.3426
11
120.111
21
-97.5379
0
LINE
8
BLACK
6
CONTINUOUS
10
120.111
20
-97.5379
11
120.13
21
-97.74
0
LINE
8
BLACK
6
CONTINUOUS
10
120.13
20
-97.74
11
120.111
21
-97.9421
0
LINE
8
BLACK
6
CONTINUOUS
10
120.111
20
-97.9421
11
120.056
21
-98.1374
0
LINE
8
BLACK
6
CONTINUOUS
10
120.056
20
-98.1374
11
119.965
21
-98.3191
0
LINE
8
BLACK
6
CONTINUOUS
10
119.965
20
-98.3191
11
119.843
21
-98.4811
0
LINE
8
BLACK
6
CONTINUOUS
10
119.843
20
-98.4811
11
119.693
21
-98.6178
0
LINE
8
BLACK
6
CONTINUOUS
10
119.693
20
-98.6178
11
119.52
21
-98.7247
0
LINE
8
BLACK
6
CONTINUOUS
10
119.52
20
-98.7247
11
119.331
21
-98.798
0
LINE
8
BLACK
6
CONTINUOUS
10
119.331
20
-98.798
11
119.131
21
-98.8353
0
LINE
8
BLACK
6
CONTINUOUS
10
119.131
20
-98.8353
11
118.929
21
-98.8353
0
LINE
8
BLACK
6
CONTINUOUS
10
118.929
20
-98.8353
11
118.729
21
-98.798
0
LINE
8
BLACK
6
CONTINUOUS
10
118.729
20
-98.798
11
118.54
21
-98.7247
0
LINE
8
BLACK
6
CONTINUOUS
10
118.54
20
-98.7247
11
118.367
21
-98.6178
0
LINE
8
BLACK
6
CONTINUOUS
10
118.367
20
-98.6178
11
118.217
21
-98.4811
0
LINE
8
BLACK
6
CONTINUOUS
10
118.217
20
-98.4811
11
118.095
21
-98.3191
0
LINE
8
BLACK
6
CONTINUOUS
10
118.095
20
-98.3191
11
118.004
21
-98.1374
0
LINE
8
BLACK
6
CONTINUOUS
10
118.004
20
-98.1374
11
117.949
21
-97.9421
0
LINE
8
BLACK
6
CONTINUOUS
10
117.949
20
-97.9421
11
117.93
21
-97.74
0
LINE
8
BLACK
6
CONTINUOUS
10
117.93
20
-97.74
11
117.949
21
-97.5379
0
LINE
8
BLACK
6
CONTINUOUS
10
117.949
20
-97.5379
11
118.004
21
-97.3426
0
LINE
8
BLACK
6
CONTINUOUS
10
118.004
20
-97.3426
11
118.095
21
-97.1609
0
LINE
8
BLACK
6
CONTINUOUS
10
118.095
20
-97.1609
11
118.217
21
-96.9989
0
LINE
8
BLACK
6
CONTINUOUS
10
118.217
20
-96.9989
11
118.367
21
-96.8622
0
LINE
8
BLACK
6
CONTINUOUS
10
118.367
20
-96.8622
11
118.54
21
-96.7553
0
LINE
8
BLACK
6
CONTINUOUS
10
118.54
20
-96.7553
11
118.729
21
-96.682
0
LINE
8
BLACK
6
CONTINUOUS
10
118.729
20
-96.682
11
118.929
21
-96.6447
0
LINE
8
BLACK
6
CONTINUOUS
10
118.929
20
-96.6447
11
119.131
21
-96.6447
0
LINE
8
BLACK
6
CONTINUOUS
10
119.131
20
-96.6447
11
119.331
21
-96.682
0
LINE
8
BLACK
6
CONTINUOUS
10
129.491
20
-96.682
11
129.68
21
-96.7553
0
LINE
8
BLACK
6
CONTINUOUS
10
129.68
20
-96.7553
11
129.853
21
-96.8622
0
LINE
8
BLACK
6
CONTINUOUS
10
129.853
20
-96.8622
11
130.003
21
-96.9989
0
LINE
8
BLACK
6
CONTINUOUS
10
130.003
20
-96.9989
11
130.125
21
-97.1609
0
LINE
8
BLACK
6
CONTINUOUS
10
130.125
20
-97.1609
11
130.216
21
-97.3426
0
LINE
8
BLACK
6
CONTINUOUS
10
130.216
20
-97.3426
11
130.271
21
-97.5379
0
LINE
8
BLACK
6
CONTINUOUS
10
130.271
20
-97.5379
11
130.29
21
-97.74
0
LINE
8
BLACK
6
CONTINUOUS
10
130.29
20
-97.74
11
130.271
21
-97.9421
0
LINE
8
BLACK
6
CONTINUOUS
10
130.271
20
-97.9421
11
130.216
21
-98.1374
0
LINE
8
BLACK
6
CONTINUOUS
10
130.216
20
-98.1374
11
130.125
21
-98.3191
0
LINE
8
BLACK
6
CONTINUOUS
10
130.125
20
-98.3191
11
130.003
21
-98.4811
0
LINE
8
BLACK
6
CONTINUOUS
10
130.003
20
-98.4811
11
129.853
21
-98.6178
0
LINE
8
BLACK
6
CONTINUOUS
10
129.853
20
-98.6178
11
129.68
21
-98.7247
0
LINE
8
BLACK
6
CONTINUOUS
10
129.68
20
-98.7247
11
129.491
21
-98.798
0
LINE
8
BLACK
6
CONTINUOUS
10
129.491
20
-98.798
11
129.291
21
-98.8353
0
LINE
8
BLACK
6
CONTINUOUS
10
129.291
20
-98.8353
11
129.089
21
-98.8353
0
LINE
8
BLACK
6
CONTINUOUS
10
129.089
20
-98.8353
11
128.889
21
-98.798
0
LINE
8
BLACK
6
CONTINUOUS
10
128.889
20
-98.798
11
128.7
21
-98.7247
0
LINE
8
BLACK
6
CONTINUOUS
10
128.7
20
-98.7247
11
128.527
21
-98.6178
0
LINE
8
BLACK
6
CONTINUOUS
10
128.527
20
-98.6178
11
128.377
21
-98.4811
0
LINE
8
BLACK
6
CONTINUOUS
10
128.377
20
-98.4811
11
128.255
21
-98.3191
0
LINE
8
BLACK
6
CONTINUOUS
10
128.255
20
-98.3191
11
128.164
21
-98.1374
0
LINE
8
BLACK
6
CONTINUOUS
10
128.164
20
-98.1374
11
128.109
21
-97.9421
0
LINE
8
BLACK
6
CONTINUOUS
10
128.109
20
-97.9421
11
128.09
21
-97.74
0
LINE
8
BLACK
6
CONTINUOUS
10
128.09
20
-97.74
11
128.109
21
-97.5379
0
LINE
8
BLACK
6
CONTINUOUS
10
128.109
20
-97.5379
11
128.164
21
-97.3426
0
LINE
8
BLACK
6
CONTINUOUS
10
128.164
20
-97.3426
11
128.255
21
-97.1609
0
LINE
8
BLACK
6
CONTINUOUS
10
128.255
20
-97.1609
11
128.377
21
-96.9989
0
LINE
8
BLACK
6
CONTINUOUS
10
128.377
20
-96.9989
11
128.527
21
-96.8622
0
LINE
8
BLACK
6
CONTINUOUS
10
128.527
20
-96.8622
11
128.7
21
-96.7553
0
LINE
8
BLACK
6
CONTINUOUS
10
128.7
20
-96.7553
11
128.889
21
-96.682
0
LINE
8
BLACK
6
CONTINUOUS
10
128.889
20
-96.682
11
129.089
21
-96.6447
0
LINE
8
BLACK
6
CONTINUOUS
10
129.089
20
-96.6447
11
129.291
21
-96.6447
0
LINE
8
BLACK
6
CONTINUOUS
10
129.291
20
-96.6447
11
129.491
21
-96.682
0
LINE
8
BLACK
6
CONTINUOUS
10
130.474
20
-95.8037
11
130.585
21
-95.8605
0
LINE
8
BLACK
6
CONTINUOUS
10
130.585
20
-95.8605
11
130.674
21
-95.949
0
LINE
8
BLACK
6
CONTINUOUS
10
130.674
20
-95.949
11
130.73
21
-96.0605
0
LINE
8
BLACK
6
CONTINUOUS
10
130.73
20
-96.0605
11
130.75
21
-96.1841
0
LINE
8
BLACK
6
CONTINUOUS
10
130.75
20
-96.1841
11
130.73
21
-96.3077
0
LINE
8
BLACK
6
CONTINUOUS
10
130.73
20
-96.3077
11
130.674
21
-96.4192
0
LINE
8
BLACK
6
CONTINUOUS
10
130.674
20
-96.4192
11
130.585
21
-96.5077
0
LINE
8
BLACK
6
CONTINUOUS
10
130.585
20
-96.5077
11
130.474
21
-96.5645
0
LINE
8
BLACK
6
CONTINUOUS
10
130.474
20
-96.5645
11
130.35
21
-96.5841
0
LINE
8
BLACK
6
CONTINUOUS
10
130.35
20
-96.5841
11
130.226
21
-96.5645
0
LINE
8
BLACK
6
CONTINUOUS
10
130.226
20
-96.5645
11
130.115
21
-96.5077
0
LINE
8
BLACK
6
CONTINUOUS
10
130.115
20
-96.5077
11
130.026
21
-96.4192
0
LINE
8
BLACK
6
CONTINUOUS
10
130.026
20
-96.4192
11
129.97
21
-96.3077
0
LINE
8
BLACK
6
CONTINUOUS
10
129.97
20
-96.3077
11
129.95
21
-96.1841
0
LINE
8
BLACK
6
CONTINUOUS
10
129.95
20
-96.1841
11
129.97
21
-96.0605
0
LINE
8
BLACK
6
CONTINUOUS
10
129.97
20
-96.0605
11
130.026
21
-95.949
0
LINE
8
BLACK
6
CONTINUOUS
10
130.026
20
-95.949
11
130.115
21
-95.8605
0
LINE
8
BLACK
6
CONTINUOUS
10
130.115
20
-95.8605
11
130.226
21
-95.8037
0
LINE
8
BLACK
6
CONTINUOUS
10
130.226
20
-95.8037
11
130.35
21
-95.7841
0
LINE
8
BLACK
6
CONTINUOUS
10
130.35
20
-95.7841
11
130.474
21
-95.8037
0
CIRCLE
8
BLACK
10
131.05
20
-120.06
40
0.2
0
CIRCLE
8
BLACK
10
116.535
20
-115.646
40
0.2
0
CIRCLE
8
BLACK
10
114.85
20
-106.275
40
0.2
0
CIRCLE
8
BLACK
10
120.828
20
-110.924
40
0.2
0
CIRCLE
8
BLACK
10
118.387
20
-105.776
40
0.2
0
CIRCLE
8
BLACK
10
131.41
20
-115.47
40
0.2
0
CIRCLE
8
BLACK
10
135.45
20
-115.51
40
0.2
0
CIRCLE
8
BLACK
10
130.35
20
-96.1841
40
0.2
0
CIRCLE
8
BLACK
10
125.606
20
-115.048
40
0.2
0
CIRCLE
8
BLACK
10
128.146
20
-115.643
40
0.2
0
CIRCLE
8
BLACK
10
129.55
20
-112.56
40
0.2
0
CIRCLE
8
BLACK
10
119.833
20
-105.944
40
0.2
0
CIRCLE
8
BLACK
10
120.893
20
-115.174
40
0.2
0
CIRCLE
8
BLACK
10
125.316
20
-104.923
40
0.2
0
CIRCLE
8
BLACK
10
114.6
20
-108.925
40
0.2
0
CIRCLE
8
BLACK
10
118.908
20
-115.594
40
0.2
0
CIRCLE
8
BLACK
10
118.335
20
-114.05
40
0.2
0
CIRCLE
8
BLACK
10
120.828
20
-109.767
40
0.2
0
CIRCLE
8
BLACK
10
116.422
20
-104.841
40
0.2
0
CIRCLE
8
BLACK
10
134.845
20
-100.289
40
0.2
0
CIRCLE
8
BLACK
10
134.67
20
-123.96
40
0.2
0
CIRCLE
8
BLACK
10
128.5
20
-122.7
40
0.2
0
CIRCLE
8
BLACK
10
125.75
20
-119.887
40
0.2
0
CIRCLE
8
BLACK
10
131.41
20
-114.17
40
0.2
0
CIRCLE
8
BLACK
10
133.825
20
-114.17
40
0.2
0
CIRCLE
8
BLACK
10
126.955
20
-109.769
40
0.2
0
CIRCLE
8
BLACK
10
132.661
20
-104.089
40
0.2
0
CIRCLE
8
BLACK
10
135.35
20
-119.65
40
0.2
0
CIRCLE
8
BLACK
10
126.775
20
-114
40
0.2
0
CIRCLE
8
BLACK
10
128.969
20
-104.698
40
0.2
0
CIRCLE
8
BLACK
10
115.315
20
-111.449
40
0.2
0
CIRCLE
8
BLACK
10
129.556
20
-120.054
40
0.2
0
CIRCLE
8
BLACK
10
133.27
20
-120.06
40
0.2
0
CIRCLE
8
BLACK
10
128.4
20
-103.45
40
0.2
0
CIRCLE
8
BLACK
10
135.125
20
-114.3
40
0.2
0
CIRCLE
8
BLACK
10
131.375
20
-121.525
40
0.2
0
LINE
8
BLACK
6
CONTINUOUS
10
135.479
20
-95.348
11
135.491
21
-95.349
0
LINE
8
BLACK
6
CONTINUOUS
10
135.491
20
-95.349
11
135.491
21
-95.349
0
LINE
8
BLACK
6
CONTINUOUS
10
135.491
20
-95.349
11
135.695
21
-95.4492
0
LINE
8
BLACK
6
CONTINUOUS
10
135.695
20
-95.4492
11
135.884
21
-95.5751
0
LINE
8
BLACK
6
CONTINUOUS
10
135.884
20
-95.5751
11
136.055
21
-95.7246
0
LINE
8
BLACK
6
CONTINUOUS
10
136.055
20
-95.7246
11
136.205
21
-95.8951
0
LINE
8
BLACK
6
CONTINUOUS
10
136.205
20
-95.8951
11
136.332
21
-96.0838
0
LINE
8
BLACK
6
CONTINUOUS
10
136.332
20
-96.0838
11
136.433
21
-96.2874
0
LINE
8
BLACK
6
CONTINUOUS
10
136.433
20
-96.2874
11
136.433
21
-96.2874
0
LINE
8
BLACK
6
CONTINUOUS
10
136.433
20
-96.2874
11
136.434
21
-96.2997
0
LINE
8
BLACK
6
CONTINUOUS
10
136.434
20
-96.2997
11
136.436
21
-96.3066
0
LINE
8
BLACK
6
CONTINUOUS
10
136.436
20
-96.3066
11
136.436
21
-129.063
0
LINE
8
BLACK
6
CONTINUOUS
10
136.436
20
-129.063
11
136.434
21
-129.07
0
LINE
8
BLACK
6
CONTINUOUS
10
136.434
20
-129.07
11
136.433
21
-129.083
0
LINE
8
BLACK
6
CONTINUOUS
10
136.433
20
-129.083
11
136.433
21
-129.083
0
LINE
8
BLACK
6
CONTINUOUS
10
136.433
20
-129.083
11
136.332
21
-129.286
0
LINE
8
BLACK
6
CONTINUOUS
10
136.332
20
-129.286
11
136.205
21
-129.475
0
LINE
8
BLACK
6
CONTINUOUS
10
136.205
20
-129.475
11
136.055
21
-129.645
0
LINE
8
BLACK
6
CONTINUOUS
10
136.055
20
-129.645
11
135.884
21
-129.795
0
LINE
8
BLACK
6
CONTINUOUS
10
135.884
20
-129.795
11
135.695
21
-129.921
0
LINE
8
BLACK
6
CONTINUOUS
10
135.695
20
-129.921
11
135.491
21
-130.021
0
LINE
8
BLACK
6
CONTINUOUS
10
135.491
20
-130.021
11
135.491
21
-130.021
0
LINE
8
BLACK
6
CONTINUOUS
10
135.491
20
-130.021
11
135.479
21
-130.022
0
LINE
8
BLACK
6
CONTINUOUS
10
135.479
20
-130.022
11
135.472
21
-130.025
0
LINE
8
BLACK
6
CONTINUOUS
10
135.472
20
-130.025
11
112.758
21
-130.025
0
LINE
8
BLACK
6
CONTINUOUS
10
112.758
20
-130.025
11
112.751
21
-130.022
0
LINE
8
BLACK
6
CONTINUOUS
10
112.751
20
-130.022
11
112.739
21
-130.021
0
LINE
8
BLACK
6
CONTINUOUS
10
112.739
20
-130.021
11
112.739
21
-130.021
0
LINE
8
BLACK
6
CONTINUOUS
10
112.739
20
-130.021
11
112.535
21
-129.921
0
LINE
8
BLACK
6
CONTINUOUS
10
112.535
20
-129.921
11
112.346
21
-129.795
0
LINE
8
BLACK
6
CONTINUOUS
10
112.346
20
-129.795
11
112.175
21
-129.645
0
LINE
8
BLACK
6
CONTINUOUS
10
112.175
20
-129.645
11
112.025
21
-129.475
0
LINE
8
BLACK
6
CONTINUOUS
10
112.025
20
-129.475
11
111.898
21
-129.286
0
LINE
8
BLACK
6
CONTINUOUS
10
111.898
20
-129.286
11
111.797
21
-129.083
0
LINE
8
BLACK
6
CONTINUOUS
10
111.797
20
-129.083
11
111.797
21
-129.083
0
LINE
8
BLACK
6
CONTINUOUS
10
111.797
20
-129.083
11
111.796
21
-129.07
0
LINE
8
BLACK
6
CONTINUOUS
10
111.796
20
-129.07
11
111.794
21
-129.063
0
LINE
8
BLACK
6
CONTINUOUS
10
111.794
20
-129.063
11
111.794
21
-96.3066
0
LINE
8
BLACK
6
CONTINUOUS
10
111.794
20
-96.3066
11
111.796
21
-96.2997
0
LINE
8
BLACK
6
CONTINUOUS
10
111.796
20
-96.2997
11
111.797
21
-96.2874
0
LINE
8
BLACK
6
CONTINUOUS
10
111.797
20
-96.2874
11
111.797
21
-96.2874
0
LINE
8
BLACK
6
CONTINUOUS
10
111.797
20
-96.2874
11
111.898
21
-96.0838
0
LINE
8
BLACK
6
CONTINUOUS
10
111.898
20
-96.0838
11
112.025
21
-95.8952
0
LINE
8
BLACK
6
CONTINUOUS
10
112.025
20
-95.8952
11
112.175
21
-95.7246
0
LINE
8
BLACK
6
CONTINUOUS
10
112.175
20
-95.7246
11
112.346
21
-95.5751
0
LINE
8
BLACK
6
CONTINUOUS
10
112.346
20
-95.5751
11
112.535
21
-95.4492
0
LINE
8
BLACK
6
CONTINUOUS
10
112.535
20
-95.4492
11
112.739
21
-95.349
0
LINE
8
BLACK
6
CONTINUOUS
10
112.739
20
-95.349
11
112.739
21
-95.349
0
LINE
8
BLACK
6
CONTINUOUS
10
112.739
20
-95.349
11
112.751
21
-95.348
0
LINE
8
BLACK
6
CONTINUOUS
10
112.751
20
-95.348
11
112.758
21
-95.3452
0
LINE
8
BLACK
6
CONTINUOUS
10
112.758
20
-95.3452
11
135.472
21
-95.3452
0
LINE
8
BLACK
6
CONTINUOUS
10
135.472
20
-95.3452
11
135.479
21
-95.348
0
LINE
8
BLACK
6
CONTINUOUS
10
112.768
20
-95.4452
11
112.678
21
-95.4824
0
LINE
8
BLACK
6
CONTINUOUS
10
112.678
20
-95.4824
11
112.492
21
-95.5893
0
LINE
8
BLACK
6
CONTINUOUS
10
112.492
20
-95.5893
11
112.321
21
-95.7197
0
LINE
8
BLACK
6
CONTINUOUS
10
112.321
20
-95.7197
11
112.169
21
-95.8712
0
LINE
8
BLACK
6
CONTINUOUS
10
112.169
20
-95.8712
11
112.038
21
-96.0412
0
LINE
8
BLACK
6
CONTINUOUS
10
112.038
20
-96.0412
11
111.931
21
-96.2268
0
LINE
8
BLACK
6
CONTINUOUS
10
111.931
20
-96.2268
11
111.894
21
-96.3166
0
LINE
8
BLACK
6
CONTINUOUS
10
111.894
20
-96.3166
11
111.894
21
-129.053
0
LINE
8
BLACK
6
CONTINUOUS
10
111.894
20
-129.053
11
111.931
21
-129.143
0
LINE
8
BLACK
6
CONTINUOUS
10
111.931
20
-129.143
11
112.038
21
-129.329
0
LINE
8
BLACK
6
CONTINUOUS
10
112.038
20
-129.329
11
112.169
21
-129.499
0
LINE
8
BLACK
6
CONTINUOUS
10
112.169
20
-129.499
11
112.321
21
-129.65
0
LINE
8
BLACK
6
CONTINUOUS
10
112.321
20
-129.65
11
112.492
21
-129.781
0
LINE
8
BLACK
6
CONTINUOUS
10
112.492
20
-129.781
11
112.678
21
-129.888
0
LINE
8
BLACK
6
CONTINUOUS
10
112.678
20
-129.888
11
112.768
21
-129.925
0
LINE
8
BLACK
6
CONTINUOUS
10
112.768
20
-129.925
11
135.462
21
-129.925
0
LINE
8
BLACK
6
CONTINUOUS
10
135.462
20
-129.925
11
135.552
21
-129.888
0
LINE
8
BLACK
6
CONTINUOUS
10
135.552
20
-129.888
11
135.738
21
-129.781
0
LINE
8
BLACK
6
CONTINUOUS
10
135.738
20
-129.781
11
135.909
21
-129.65
0
LINE
8
BLACK
6
CONTINUOUS
10
135.909
20
-129.65
11
136.061
21
-129.499
0
LINE
8
BLACK
6
CONTINUOUS
10
136.061
20
-129.499
11
136.192
21
-129.329
0
LINE
8
BLACK
6
CONTINUOUS
10
136.192
20
-129.329
11
136.299
21
-129.143
0
LINE
8
BLACK
6
CONTINUOUS
10
136.299
20
-129.143
11
136.336
21
-129.053
0
LINE
8
BLACK
6
CONTINUOUS
10
136.336
20
-129.053
11
136.336
21
-96.3165
0
LINE
8
BLACK
6
CONTINUOUS
10
136.336
20
-96.3165
11
136.299
21
-96.2268
0
LINE
8
BLACK
6
CONTINUOUS
10
136.299
20
-96.2268
11
136.192
21
-96.0411
0
LINE
8
BLACK
6
CONTINUOUS
10
136.192
20
-96.0411
11
136.061
21
-95.8711
0
LINE
8
BLACK
6
CONTINUOUS
10
136.061
20
-95.8711
11
135.909
21
-95.7197
0
LINE
8
BLACK
6
CONTINUOUS
10
135.909
20
-95.7197
11
135.738
21
-95.5893
0
LINE
8
BLACK
6
CONTINUOUS
10
135.738
20
-95.5893
11
135.552
21
-95.4823
0
LINE
8
BLACK
6
CONTINUOUS
10
135.552
20
-95.4823
11
135.462
21
-95.4452
0
LINE
8
BLACK
6
CONTINUOUS
10
135.462
20
-95.4452
11
112.768
21
-95.4452
  0
ENDSEC
  0
EOF
