%TF.GenerationSoftware,KiCad,Pcbnew,(6.0.10-0)*%
%TF.CreationDate,2023-01-20T18:31:20+01:00*%
%TF.ProjectId,KNeoPiX_v1.3,4b4e656f-5069-4585-9f76-312e332e6b69,rev?*%
%TF.SameCoordinates,Original*%
%TF.FileFunction,Copper,L2,Bot*%
%TF.FilePolarity,Positive*%
%FSLAX46Y46*%
G04 Gerber Fmt 4.6, Leading zero omitted, Abs format (unit mm)*
G04 Created by KiCad (PCBNEW (6.0.10-0)) date 2023-01-20 18:31:20*
%MOMM*%
%LPD*%
G01*
G04 APERTURE LIST*
%TA.AperFunction,ComponentPad*%
%ADD10C,1.875000*%
%TD*%
%TA.AperFunction,ComponentPad*%
%ADD11R,2.200000X2.200000*%
%TD*%
%TA.AperFunction,ComponentPad*%
%ADD12C,2.200000*%
%TD*%
%TA.AperFunction,ComponentPad*%
%ADD13R,1.700000X1.700000*%
%TD*%
%TA.AperFunction,ComponentPad*%
%ADD14O,1.700000X1.700000*%
%TD*%
%TA.AperFunction,ComponentPad*%
%ADD15C,2.500000*%
%TD*%
%TA.AperFunction,SMDPad,CuDef*%
%ADD16O,1.998980X2.748280*%
%TD*%
%TA.AperFunction,SMDPad,CuDef*%
%ADD17R,1.000000X1.500000*%
%TD*%
%TA.AperFunction,SMDPad,CuDef*%
%ADD18R,2.500000X1.800000*%
%TD*%
%TA.AperFunction,ViaPad*%
%ADD19C,0.800000*%
%TD*%
%TA.AperFunction,Conductor*%
%ADD20C,0.250000*%
%TD*%
%TA.AperFunction,Conductor*%
%ADD21C,1.500000*%
%TD*%
%TA.AperFunction,Conductor*%
%ADD22C,0.500000*%
%TD*%
G04 APERTURE END LIST*
D10*
%TO.P,H2,1,1*%
%TO.N,KNX+*%
X120250000Y-124150000D03*
%TD*%
D11*
%TO.P,J4,1,Pin_1*%
%TO.N,NEO_GND*%
X127165000Y-127580000D03*
D12*
%TO.P,J4,2,Pin_2*%
%TO.N,NEO_DATA0_OUT*%
X129705000Y-127580000D03*
%TO.P,J4,3,Pin_3*%
%TO.N,NEO_DATA1_OUT*%
X132245000Y-127580000D03*
%TO.P,J4,4,Pin_4*%
%TO.N,NEO_VCC_IN*%
X134785000Y-127580000D03*
%TD*%
D11*
%TO.P,J3,1,Pin_1*%
%TO.N,NEO_GND*%
X134270000Y-97740000D03*
D12*
%TO.P,J3,2,Pin_2*%
%TO.N,S_3V3*%
X131730000Y-97740000D03*
%TO.P,J3,3,Pin_3*%
%TO.N,KNX_5V*%
X129190000Y-97740000D03*
%TO.P,J3,4,Pin_4*%
%TO.N,D1*%
X126650000Y-97740000D03*
%TO.P,J3,5,Pin_5*%
%TO.N,D2*%
X124110000Y-97740000D03*
%TO.P,J3,6,Pin_6*%
%TO.N,D3*%
X121570000Y-97740000D03*
%TO.P,J3,7,Pin_7*%
%TO.N,D8*%
X119030000Y-97740000D03*
%TO.P,J3,8,Pin_8*%
%TO.N,D9*%
X116490000Y-97740000D03*
%TO.P,J3,9,Pin_9*%
%TO.N,D10*%
X113950000Y-97740000D03*
%TD*%
D13*
%TO.P,GN1,1,KNX+*%
%TO.N,KNX+*%
X113140000Y-117780000D03*
D14*
%TO.P,GN1,2,GND*%
%TO.N,KNX_GND*%
X113140000Y-115240000D03*
%TO.P,GN1,3,SAVE*%
%TO.N,KNX_SAVE*%
X113140000Y-112700000D03*
%TO.P,GN1,4,Rx*%
%TO.N,KNX_RX*%
X113140000Y-110160000D03*
%TO.P,GN1,5,Tx*%
%TO.N,KNX_TX*%
X113140000Y-107620000D03*
%TO.P,GN1,6,3V3*%
%TO.N,KNX_3V3*%
X113140000Y-105080000D03*
%TO.P,GN1,7,Vcc2*%
%TO.N,KNX_5V*%
X113140000Y-102540000D03*
%TD*%
D15*
%TO.P,J2,1,Pin_1*%
%TO.N,KNX+*%
X120250000Y-127050000D03*
%TO.P,J2,2,Pin_2*%
%TO.N,KNX_GND*%
X114500000Y-127050000D03*
%TD*%
D10*
%TO.P,H1,1,1*%
%TO.N,KNX_GND*%
X114500000Y-124150000D03*
%TD*%
D15*
%TO.P,J1,1,Pin_1*%
%TO.N,KNX+*%
X120230000Y-124130000D03*
%TO.P,J1,2,Pin_2*%
%TO.N,KNX_GND*%
X114480000Y-124130000D03*
%TD*%
D16*
%TO.P,U1,1,PA02_A0_D0*%
%TO.N,D0*%
X133059520Y-117540580D03*
%TO.P,U1,2,PA4_A1_D1*%
%TO.N,D1*%
X130519520Y-117540580D03*
%TO.P,U1,3,PA10_A2_D2*%
%TO.N,D2*%
X127979520Y-117540580D03*
%TO.P,U1,4,PA11_A3_D3*%
%TO.N,D3*%
X125439520Y-117540580D03*
%TO.P,U1,5,PA8_A4_D4_SDA*%
%TO.N,D4_SDA*%
X122899520Y-117540580D03*
%TO.P,U1,6,PA9_A5_D5_SCL*%
%TO.N,D5_SCL*%
X120359520Y-117540580D03*
%TO.P,U1,7,PB08_A6_D6_TX*%
%TO.N,D6_TX*%
X117819520Y-117540580D03*
%TO.P,U1,8,PB09_A7_D7_RX*%
%TO.N,D7_RX*%
X117819520Y-101376020D03*
%TO.P,U1,9,PA7_A8_D8_SCK*%
%TO.N,D8*%
X120359520Y-101376020D03*
%TO.P,U1,10,PA5_A9_D9_MISO*%
%TO.N,D9*%
X122899520Y-101376020D03*
%TO.P,U1,11,PA6_A10_D10_MOSI*%
%TO.N,D10*%
X125439520Y-101376020D03*
%TO.P,U1,12,3V3*%
%TO.N,S_3V3*%
X127979520Y-101376020D03*
%TO.P,U1,13,GND*%
%TO.N,NEO_GND*%
X130519520Y-101376020D03*
%TO.P,U1,14,5V*%
%TO.N,5V-MCU*%
X133059520Y-101376020D03*
%TD*%
D17*
%TO.P,JP3,1,A*%
%TO.N,NEO_VCC_IN*%
X135040000Y-122048000D03*
%TO.P,JP3,2,B*%
%TO.N,VCC_OUT*%
X133740000Y-122048000D03*
%TD*%
D18*
%TO.P,D3,A,A*%
%TO.N,KNX+*%
X119400000Y-121560000D03*
%TO.P,D3,C,C*%
%TO.N,KNX_GND*%
X115400000Y-121560000D03*
%TD*%
D17*
%TO.P,JP1,1,A*%
%TO.N,NEO_GND*%
X127820000Y-122058000D03*
%TO.P,JP1,2,B*%
%TO.N,KNX_GND*%
X126520000Y-122058000D03*
%TD*%
%TO.P,JP2,1,A*%
%TO.N,S_3V3*%
X131200000Y-122058000D03*
%TO.P,JP2,2,B*%
%TO.N,KNX_3V3*%
X129900000Y-122058000D03*
%TD*%
D19*
%TO.N,KNX_3V3*%
X120200000Y-108350000D03*
%TO.N,KNX_RX*%
X119470000Y-111230000D03*
%TO.N,KNX_TX*%
X118030000Y-109140000D03*
%TO.N,D0*%
X130951319Y-111215588D03*
%TO.N,D10*%
X130035600Y-106186500D03*
%TO.N,D3*%
X123730000Y-111270000D03*
%TO.N,D2*%
X126973000Y-110613600D03*
%TO.N,D1*%
X127764600Y-111287000D03*
%TO.N,KNX_GND*%
X115420000Y-113180000D03*
%TO.N,D4_SDA*%
X125095000Y-112528500D03*
%TO.N,D5_SCL*%
X124968000Y-111506000D03*
%TO.N,D6_TX*%
X121970000Y-114030000D03*
%TO.N,D7_RX*%
X119200000Y-105394600D03*
%TO.N,KNX_SAVE*%
X128778000Y-108089600D03*
%TO.N,5V-MCU*%
X131500000Y-104177000D03*
%TO.N,VCC_OUT*%
X135490000Y-119860000D03*
X130200000Y-104178900D03*
%TO.N,S_3V3*%
X125730000Y-103886000D03*
X128802000Y-103862000D03*
%TO.N,NEO_GND*%
X128970000Y-109450000D03*
X121740000Y-111670000D03*
%TD*%
D20*
%TO.N,KNX_3V3*%
X127376600Y-107073400D02*
X126100000Y-108350000D01*
X129900000Y-122058000D02*
X129900000Y-120130000D01*
X113680000Y-105080000D02*
X116950000Y-108350000D01*
X134642800Y-118557200D02*
X134642800Y-113207083D01*
X134642800Y-113207083D02*
X131050000Y-109614283D01*
X126100000Y-108350000D02*
X120200000Y-108350000D01*
X131050000Y-109614283D02*
X131050000Y-108000000D01*
X133634340Y-119565660D02*
X134642800Y-118557200D01*
X129900000Y-120130000D02*
X130464340Y-119565660D01*
X129130900Y-107070000D02*
X130120000Y-107070000D01*
X131050000Y-108000000D02*
X130120000Y-107070000D01*
X129130900Y-107070000D02*
X129127500Y-107073400D01*
X130464340Y-119565660D02*
X133634340Y-119565660D01*
X120200000Y-108350000D02*
X116950000Y-108350000D01*
X129127500Y-107073400D02*
X127376600Y-107073400D01*
%TO.N,KNX_RX*%
X114720000Y-111230000D02*
X119470000Y-111230000D01*
X113650000Y-110160000D02*
X114720000Y-111230000D01*
%TO.N,KNX_TX*%
X113890000Y-107620000D02*
X115420000Y-109150000D01*
X113140000Y-107620000D02*
X113890000Y-107620000D01*
X118020000Y-109150000D02*
X118030000Y-109140000D01*
X115420000Y-109150000D02*
X118020000Y-109150000D01*
%TO.N,D0*%
X133059520Y-117540580D02*
X133059520Y-112259520D01*
X130966907Y-111200000D02*
X130951319Y-111215588D01*
X132000000Y-111200000D02*
X130966907Y-111200000D01*
X133059520Y-112259520D02*
X132000000Y-111200000D01*
%TO.N,D10*%
X124968000Y-105091000D02*
X124968000Y-101847540D01*
X125000000Y-107250000D02*
X126063500Y-106186500D01*
X113950000Y-99810000D02*
X115064600Y-100924600D01*
X115064600Y-100924600D02*
X115064600Y-105164600D01*
X115064600Y-105164600D02*
X117150000Y-107250000D01*
X113950000Y-97740000D02*
X113950000Y-99810000D01*
X126063500Y-106186500D02*
X130035600Y-106186500D01*
X126063500Y-106186500D02*
X124968000Y-105091000D01*
X117150000Y-107250000D02*
X125000000Y-107250000D01*
%TO.N,D9*%
X122280900Y-106119100D02*
X122900000Y-105500000D01*
X122900000Y-105500000D02*
X122899520Y-105499520D01*
X116490000Y-97740000D02*
X116490000Y-105295400D01*
X117313700Y-106119100D02*
X122280900Y-106119100D01*
X122899520Y-105499520D02*
X122899520Y-101376020D01*
X116490000Y-105295400D02*
X117313700Y-106119100D01*
%TO.N,D8*%
X119320000Y-99460000D02*
X119030000Y-99170000D01*
X120359520Y-101376020D02*
X120359520Y-99849520D01*
X119970000Y-99460000D02*
X119320000Y-99460000D01*
X119030000Y-99170000D02*
X119030000Y-97740000D01*
X120359520Y-99849520D02*
X119970000Y-99460000D01*
%TO.N,D3*%
X125620000Y-110150000D02*
X126060000Y-110590000D01*
X123730000Y-110800000D02*
X124380000Y-110150000D01*
X126060000Y-110590000D02*
X126060000Y-116920100D01*
X123730000Y-111270000D02*
X123730000Y-110800000D01*
X124380000Y-110150000D02*
X125620000Y-110150000D01*
%TO.N,D2*%
X127979520Y-115841120D02*
X127979520Y-117540580D01*
X126973000Y-114834600D02*
X126973000Y-110613600D01*
X126973000Y-114834600D02*
X127979520Y-115841120D01*
%TO.N,D1*%
X129437000Y-111287000D02*
X127764600Y-111287000D01*
X130519520Y-112369520D02*
X129437000Y-111287000D01*
X130519520Y-117540580D02*
X130519520Y-112369520D01*
%TO.N,KNX_GND*%
X115400000Y-119930000D02*
X115400000Y-121560000D01*
X115400000Y-114440000D02*
X115400000Y-114270000D01*
X125658000Y-122058000D02*
X123530000Y-119930000D01*
X123530000Y-119930000D02*
X115400000Y-119930000D01*
X115400000Y-119930000D02*
X115400000Y-114270000D01*
X113140000Y-115240000D02*
X114600000Y-115240000D01*
D21*
X114480000Y-124130000D02*
X114480000Y-122480000D01*
D20*
X126520000Y-122058000D02*
X125658000Y-122058000D01*
X115400000Y-114270000D02*
X115400000Y-113200000D01*
D21*
X114480000Y-122480000D02*
X115400000Y-121560000D01*
D20*
X114600000Y-115240000D02*
X115400000Y-114440000D01*
X115400000Y-113200000D02*
X115420000Y-113180000D01*
%TO.N,D4_SDA*%
X125095000Y-113955000D02*
X125095000Y-112528500D01*
X122899520Y-116150480D02*
X125095000Y-113955000D01*
X122899520Y-117540580D02*
X122899520Y-116150480D01*
%TO.N,D5_SCL*%
X124100000Y-113950000D02*
X124100000Y-112374000D01*
X120359520Y-115690480D02*
X120920000Y-115130000D01*
X120359520Y-117540580D02*
X120359520Y-115690480D01*
X122920000Y-115130000D02*
X124100000Y-113950000D01*
X120920000Y-115130000D02*
X122920000Y-115130000D01*
X124100000Y-112374000D02*
X124968000Y-111506000D01*
%TO.N,D6_TX*%
X118560000Y-114030000D02*
X121970000Y-114030000D01*
X117819520Y-114770480D02*
X118560000Y-114030000D01*
X117819520Y-117540580D02*
X117819520Y-114770480D01*
%TO.N,D7_RX*%
X119200000Y-105394600D02*
X117819520Y-104014120D01*
X117819520Y-104014120D02*
X117819520Y-101376020D01*
%TO.N,KNX_SAVE*%
X120930000Y-109444695D02*
X121459695Y-108915000D01*
X120930000Y-111620000D02*
X120930000Y-109444695D01*
X120180000Y-112370000D02*
X120930000Y-111620000D01*
X121459695Y-108915000D02*
X127952600Y-108915000D01*
X127952600Y-108915000D02*
X128778000Y-108089600D01*
X113470000Y-112370000D02*
X120180000Y-112370000D01*
D21*
%TO.N,KNX+*%
X120230000Y-122390000D02*
X119400000Y-121560000D01*
X120230000Y-124130000D02*
X120230000Y-122390000D01*
D22*
%TO.N,NEO_VCC_IN*%
X135040000Y-122048000D02*
X135040000Y-127325000D01*
D20*
%TO.N,5V-MCU*%
X133060000Y-103630000D02*
X133059520Y-103629520D01*
X133059520Y-103629520D02*
X133059520Y-101376020D01*
X131500000Y-104177000D02*
X132513000Y-104177000D01*
X132513000Y-104177000D02*
X133060000Y-103630000D01*
%TO.N,VCC_OUT*%
X132150000Y-106250000D02*
X131060000Y-105160000D01*
X135100000Y-120250000D02*
X135490000Y-119860000D01*
X133740000Y-120732114D02*
X134222114Y-120250000D01*
X133740000Y-122048000D02*
X133740000Y-120732114D01*
X135490000Y-119860000D02*
X135556500Y-119793500D01*
X130200000Y-104310000D02*
X130200000Y-104178900D01*
X132150000Y-109350000D02*
X132150000Y-106250000D01*
X134222114Y-120250000D02*
X135100000Y-120250000D01*
X131060000Y-105160000D02*
X131050000Y-105160000D01*
X131050000Y-105160000D02*
X130200000Y-104310000D01*
X135556500Y-119793500D02*
X135556500Y-112756500D01*
X135556500Y-112756500D02*
X132150000Y-109350000D01*
%TO.N,S_3V3*%
X131586057Y-106546057D02*
X131586057Y-109514622D01*
X131586057Y-109514622D02*
X135106980Y-113035545D01*
X128802000Y-103862000D02*
X128802000Y-104772000D01*
X125730000Y-103886000D02*
X127364000Y-103886000D01*
X133820538Y-120015180D02*
X131572480Y-120015180D01*
X135106980Y-113035545D02*
X135106980Y-118728738D01*
X128570000Y-99470000D02*
X131073604Y-99470000D01*
X127979520Y-103270480D02*
X127979520Y-101376020D01*
X131073604Y-99470000D02*
X131730000Y-98813604D01*
X128802000Y-103862000D02*
X128778000Y-103886000D01*
X135106980Y-118728738D02*
X133820538Y-120015180D01*
X127979520Y-100060480D02*
X128570000Y-99470000D01*
X130120000Y-105080000D02*
X131586057Y-106546057D01*
X131572480Y-120015180D02*
X131200000Y-120387660D01*
X127979520Y-101376020D02*
X127979520Y-100060480D01*
X128802000Y-104772000D02*
X129110000Y-105080000D01*
X128778000Y-103886000D02*
X125730000Y-103886000D01*
X131730000Y-98813604D02*
X131730000Y-97740000D01*
X129110000Y-105080000D02*
X130120000Y-105080000D01*
X127364000Y-103886000D02*
X127979520Y-103270480D01*
X131200000Y-120387660D02*
X131200000Y-122058000D01*
%TO.N,NEO_GND*%
X130519520Y-100660480D02*
X131610000Y-99570000D01*
X122210000Y-109450000D02*
X128970000Y-109450000D01*
X134270000Y-99190000D02*
X133890000Y-99570000D01*
D22*
X127150000Y-124850000D02*
X127150000Y-127565000D01*
D20*
X121740000Y-111670000D02*
X121740000Y-109920000D01*
D22*
X127820000Y-124180000D02*
X127820000Y-122058000D01*
X127820000Y-124180000D02*
X127150000Y-124850000D01*
D20*
X121740000Y-109920000D02*
X122210000Y-109450000D01*
X134270000Y-97740000D02*
X134270000Y-99190000D01*
X133890000Y-99570000D02*
X131610000Y-99570000D01*
%TD*%
%TA.AperFunction,Conductor*%
%TO.N,D5_SCL*%
G36*
X125148038Y-111120352D02*
G01*
X125353648Y-111325962D01*
X125368000Y-111360610D01*
X125368000Y-111651390D01*
X125353648Y-111686038D01*
X125148038Y-111891648D01*
X125113390Y-111906000D01*
X124617000Y-111906000D01*
X124582352Y-111891648D01*
X124568000Y-111857000D01*
X124568000Y-111360610D01*
X124582352Y-111325962D01*
X124787962Y-111120352D01*
X124822610Y-111106000D01*
X125113390Y-111106000D01*
X125148038Y-111120352D01*
G37*
%TD.AperFunction*%
%TD*%
%TA.AperFunction,Conductor*%
%TO.N,KNX_GND*%
G36*
X115600038Y-112794352D02*
G01*
X115805648Y-112999962D01*
X115820000Y-113034610D01*
X115820000Y-113325390D01*
X115805648Y-113360038D01*
X115454648Y-113711038D01*
X115420000Y-113725390D01*
X115385352Y-113711038D01*
X115034352Y-113360038D01*
X115020000Y-113325390D01*
X115020000Y-113034610D01*
X115034352Y-112999962D01*
X115239962Y-112794352D01*
X115274610Y-112780000D01*
X115565390Y-112780000D01*
X115600038Y-112794352D01*
G37*
%TD.AperFunction*%
%TD*%
%TA.AperFunction,Conductor*%
%TO.N,VCC_OUT*%
G36*
X130380038Y-103793252D02*
G01*
X130585648Y-103998862D01*
X130600000Y-104033510D01*
X130600000Y-104529900D01*
X130585648Y-104564548D01*
X130551000Y-104578900D01*
X130054610Y-104578900D01*
X130019962Y-104564548D01*
X129814352Y-104358938D01*
X129800000Y-104324290D01*
X129800000Y-104033510D01*
X129814352Y-103998862D01*
X130019962Y-103793252D01*
X130054610Y-103778900D01*
X130345390Y-103778900D01*
X130380038Y-103793252D01*
G37*
%TD.AperFunction*%
%TD*%
%TA.AperFunction,Conductor*%
%TO.N,S_3V3*%
G36*
X128982038Y-103476352D02*
G01*
X129187648Y-103681962D01*
X129202000Y-103716610D01*
X129202000Y-104007390D01*
X129187648Y-104042038D01*
X128836648Y-104393038D01*
X128802000Y-104407390D01*
X128767352Y-104393038D01*
X128270962Y-103896648D01*
X128256610Y-103862000D01*
X128270962Y-103827352D01*
X128621962Y-103476352D01*
X128656610Y-103462000D01*
X128947390Y-103462000D01*
X128982038Y-103476352D01*
G37*
%TD.AperFunction*%
%TD*%
%TA.AperFunction,Conductor*%
%TO.N,D7_RX*%
G36*
X119380038Y-105008952D02*
G01*
X119585648Y-105214562D01*
X119600000Y-105249210D01*
X119600000Y-105539990D01*
X119585648Y-105574638D01*
X119381038Y-105779248D01*
X119346390Y-105793600D01*
X119053610Y-105793600D01*
X119018962Y-105779248D01*
X118814352Y-105574638D01*
X118800000Y-105539990D01*
X118800000Y-105043600D01*
X118814352Y-105008952D01*
X118849000Y-104994600D01*
X119345390Y-104994600D01*
X119380038Y-105008952D01*
G37*
%TD.AperFunction*%
%TD*%
%TA.AperFunction,Conductor*%
%TO.N,KNX_SAVE*%
G36*
X128958038Y-107703952D02*
G01*
X129163648Y-107909562D01*
X129178000Y-107944210D01*
X129178000Y-108234990D01*
X129163648Y-108269638D01*
X128958038Y-108475248D01*
X128923390Y-108489600D01*
X128427000Y-108489600D01*
X128392352Y-108475248D01*
X128378000Y-108440600D01*
X128378000Y-107944210D01*
X128392352Y-107909562D01*
X128597962Y-107703952D01*
X128632610Y-107689600D01*
X128923390Y-107689600D01*
X128958038Y-107703952D01*
G37*
%TD.AperFunction*%
%TD*%
%TA.AperFunction,Conductor*%
%TO.N,D6_TX*%
G36*
X122150038Y-113644352D02*
G01*
X122355648Y-113849962D01*
X122370000Y-113884610D01*
X122370000Y-114175390D01*
X122355648Y-114210038D01*
X122150038Y-114415648D01*
X122115390Y-114430000D01*
X121824610Y-114430000D01*
X121789962Y-114415648D01*
X121438962Y-114064648D01*
X121424610Y-114030000D01*
X121438962Y-113995352D01*
X121789962Y-113644352D01*
X121824610Y-113630000D01*
X122115390Y-113630000D01*
X122150038Y-113644352D01*
G37*
%TD.AperFunction*%
%TD*%
%TA.AperFunction,Conductor*%
%TO.N,KNX_3V3*%
G36*
X120380038Y-107964352D02*
G01*
X120731038Y-108315352D01*
X120745390Y-108350000D01*
X120731038Y-108384648D01*
X120380038Y-108735648D01*
X120345390Y-108750000D01*
X120054610Y-108750000D01*
X120019962Y-108735648D01*
X119668962Y-108384648D01*
X119654610Y-108350000D01*
X119668962Y-108315352D01*
X120019962Y-107964352D01*
X120054610Y-107950000D01*
X120345390Y-107950000D01*
X120380038Y-107964352D01*
G37*
%TD.AperFunction*%
%TD*%
%TA.AperFunction,Conductor*%
%TO.N,KNX_SAVE*%
G36*
X128958038Y-107703952D02*
G01*
X129163648Y-107909562D01*
X129178000Y-107944210D01*
X129178000Y-108234990D01*
X129163648Y-108269638D01*
X128958038Y-108475248D01*
X128923390Y-108489600D01*
X128427000Y-108489600D01*
X128392352Y-108475248D01*
X128378000Y-108440600D01*
X128378000Y-107944210D01*
X128392352Y-107909562D01*
X128597962Y-107703952D01*
X128632610Y-107689600D01*
X128923390Y-107689600D01*
X128958038Y-107703952D01*
G37*
%TD.AperFunction*%
%TD*%
%TA.AperFunction,Conductor*%
%TO.N,KNX_GND*%
G36*
X115600038Y-112794352D02*
G01*
X115805648Y-112999962D01*
X115820000Y-113034610D01*
X115820000Y-113325390D01*
X115805648Y-113360038D01*
X115454648Y-113711038D01*
X115420000Y-113725390D01*
X115385352Y-113711038D01*
X115034352Y-113360038D01*
X115020000Y-113325390D01*
X115020000Y-113034610D01*
X115034352Y-112999962D01*
X115239962Y-112794352D01*
X115274610Y-112780000D01*
X115565390Y-112780000D01*
X115600038Y-112794352D01*
G37*
%TD.AperFunction*%
%TD*%
%TA.AperFunction,Conductor*%
%TO.N,5V-MCU*%
G36*
X131680038Y-103791352D02*
G01*
X132031038Y-104142352D01*
X132045390Y-104177000D01*
X132031038Y-104211648D01*
X131680038Y-104562648D01*
X131645390Y-104577000D01*
X131354610Y-104577000D01*
X131319962Y-104562648D01*
X131114352Y-104357038D01*
X131100000Y-104322390D01*
X131100000Y-104031610D01*
X131114352Y-103996962D01*
X131319962Y-103791352D01*
X131354610Y-103777000D01*
X131645390Y-103777000D01*
X131680038Y-103791352D01*
G37*
%TD.AperFunction*%
%TD*%
%TA.AperFunction,Conductor*%
%TO.N,D0*%
G36*
X131131357Y-110829940D02*
G01*
X131482357Y-111180940D01*
X131496709Y-111215588D01*
X131482357Y-111250236D01*
X131131357Y-111601236D01*
X131096709Y-111615588D01*
X130805929Y-111615588D01*
X130771281Y-111601236D01*
X130565671Y-111395626D01*
X130551319Y-111360978D01*
X130551319Y-111070198D01*
X130565671Y-111035550D01*
X130771281Y-110829940D01*
X130805929Y-110815588D01*
X131096709Y-110815588D01*
X131131357Y-110829940D01*
G37*
%TD.AperFunction*%
%TD*%
%TA.AperFunction,Conductor*%
%TO.N,KNX_RX*%
G36*
X119650038Y-110844352D02*
G01*
X119855648Y-111049962D01*
X119870000Y-111084610D01*
X119870000Y-111375390D01*
X119855648Y-111410038D01*
X119650038Y-111615648D01*
X119615390Y-111630000D01*
X119324610Y-111630000D01*
X119289962Y-111615648D01*
X118938962Y-111264648D01*
X118924610Y-111230000D01*
X118938962Y-111195352D01*
X119289962Y-110844352D01*
X119324610Y-110830000D01*
X119615390Y-110830000D01*
X119650038Y-110844352D01*
G37*
%TD.AperFunction*%
%TD*%
%TA.AperFunction,Conductor*%
%TO.N,D10*%
G36*
X130215638Y-105800852D02*
G01*
X130421248Y-106006462D01*
X130435600Y-106041110D01*
X130435600Y-106331890D01*
X130421248Y-106366538D01*
X130215638Y-106572148D01*
X130180990Y-106586500D01*
X129890210Y-106586500D01*
X129855562Y-106572148D01*
X129504562Y-106221148D01*
X129490210Y-106186500D01*
X129504562Y-106151852D01*
X129855562Y-105800852D01*
X129890210Y-105786500D01*
X130180990Y-105786500D01*
X130215638Y-105800852D01*
G37*
%TD.AperFunction*%
%TD*%
%TA.AperFunction,Conductor*%
%TO.N,S_3V3*%
G36*
X128982038Y-103476352D02*
G01*
X129187648Y-103681962D01*
X129202000Y-103716610D01*
X129202000Y-104007390D01*
X129187648Y-104042038D01*
X128836648Y-104393038D01*
X128802000Y-104407390D01*
X128767352Y-104393038D01*
X128270962Y-103896648D01*
X128256610Y-103862000D01*
X128270962Y-103827352D01*
X128621962Y-103476352D01*
X128656610Y-103462000D01*
X128947390Y-103462000D01*
X128982038Y-103476352D01*
G37*
%TD.AperFunction*%
%TD*%
%TA.AperFunction,Conductor*%
%TO.N,NEO_GND*%
G36*
X121774648Y-111138962D02*
G01*
X122125648Y-111489962D01*
X122140000Y-111524610D01*
X122140000Y-111815390D01*
X122125648Y-111850038D01*
X121920038Y-112055648D01*
X121885390Y-112070000D01*
X121594610Y-112070000D01*
X121559962Y-112055648D01*
X121354352Y-111850038D01*
X121340000Y-111815390D01*
X121340000Y-111524610D01*
X121354352Y-111489962D01*
X121705352Y-111138962D01*
X121740000Y-111124610D01*
X121774648Y-111138962D01*
G37*
%TD.AperFunction*%
%TD*%
%TA.AperFunction,Conductor*%
%TO.N,5V-MCU*%
G36*
X131680038Y-103791352D02*
G01*
X132031038Y-104142352D01*
X132045390Y-104177000D01*
X132031038Y-104211648D01*
X131680038Y-104562648D01*
X131645390Y-104577000D01*
X131354610Y-104577000D01*
X131319962Y-104562648D01*
X131114352Y-104357038D01*
X131100000Y-104322390D01*
X131100000Y-104031610D01*
X131114352Y-103996962D01*
X131319962Y-103791352D01*
X131354610Y-103777000D01*
X131645390Y-103777000D01*
X131680038Y-103791352D01*
G37*
%TD.AperFunction*%
%TD*%
%TA.AperFunction,Conductor*%
%TO.N,D7_RX*%
G36*
X119380038Y-105008952D02*
G01*
X119585648Y-105214562D01*
X119600000Y-105249210D01*
X119600000Y-105539990D01*
X119585648Y-105574638D01*
X119381038Y-105779248D01*
X119346390Y-105793600D01*
X119053610Y-105793600D01*
X119018962Y-105779248D01*
X118814352Y-105574638D01*
X118800000Y-105539990D01*
X118800000Y-105043600D01*
X118814352Y-105008952D01*
X118849000Y-104994600D01*
X119345390Y-104994600D01*
X119380038Y-105008952D01*
G37*
%TD.AperFunction*%
%TD*%
%TA.AperFunction,Conductor*%
%TO.N,D10*%
G36*
X130215638Y-105800852D02*
G01*
X130421248Y-106006462D01*
X130435600Y-106041110D01*
X130435600Y-106331890D01*
X130421248Y-106366538D01*
X130215638Y-106572148D01*
X130180990Y-106586500D01*
X129890210Y-106586500D01*
X129855562Y-106572148D01*
X129504562Y-106221148D01*
X129490210Y-106186500D01*
X129504562Y-106151852D01*
X129855562Y-105800852D01*
X129890210Y-105786500D01*
X130180990Y-105786500D01*
X130215638Y-105800852D01*
G37*
%TD.AperFunction*%
%TD*%
%TA.AperFunction,Conductor*%
%TO.N,D4_SDA*%
G36*
X125275038Y-112142852D02*
G01*
X125480648Y-112348462D01*
X125495000Y-112383110D01*
X125495000Y-112673890D01*
X125480648Y-112708538D01*
X125129648Y-113059538D01*
X125095000Y-113073890D01*
X125060352Y-113059538D01*
X124709352Y-112708538D01*
X124695000Y-112673890D01*
X124695000Y-112383110D01*
X124709352Y-112348462D01*
X124914962Y-112142852D01*
X124949610Y-112128500D01*
X125240390Y-112128500D01*
X125275038Y-112142852D01*
G37*
%TD.AperFunction*%
%TD*%
%TA.AperFunction,Conductor*%
%TO.N,NEO_GND*%
G36*
X129150038Y-109064352D02*
G01*
X129355648Y-109269962D01*
X129370000Y-109304610D01*
X129370000Y-109595390D01*
X129355648Y-109630038D01*
X129150038Y-109835648D01*
X129115390Y-109850000D01*
X128824610Y-109850000D01*
X128789962Y-109835648D01*
X128438962Y-109484648D01*
X128424610Y-109450000D01*
X128438962Y-109415352D01*
X128789962Y-109064352D01*
X128824610Y-109050000D01*
X129115390Y-109050000D01*
X129150038Y-109064352D01*
G37*
%TD.AperFunction*%
%TD*%
%TA.AperFunction,Conductor*%
%TO.N,VCC_OUT*%
G36*
X135524648Y-119328962D02*
G01*
X135875648Y-119679962D01*
X135890000Y-119714610D01*
X135890000Y-120005390D01*
X135875648Y-120040038D01*
X135670038Y-120245648D01*
X135635390Y-120260000D01*
X135139000Y-120260000D01*
X135104352Y-120245648D01*
X135090000Y-120211000D01*
X135090000Y-119714610D01*
X135104352Y-119679962D01*
X135455352Y-119328962D01*
X135490000Y-119314610D01*
X135524648Y-119328962D01*
G37*
%TD.AperFunction*%
%TD*%
%TA.AperFunction,Conductor*%
%TO.N,NEO_GND*%
G36*
X129150038Y-109064352D02*
G01*
X129355648Y-109269962D01*
X129370000Y-109304610D01*
X129370000Y-109595390D01*
X129355648Y-109630038D01*
X129150038Y-109835648D01*
X129115390Y-109850000D01*
X128824610Y-109850000D01*
X128789962Y-109835648D01*
X128438962Y-109484648D01*
X128424610Y-109450000D01*
X128438962Y-109415352D01*
X128789962Y-109064352D01*
X128824610Y-109050000D01*
X129115390Y-109050000D01*
X129150038Y-109064352D01*
G37*
%TD.AperFunction*%
%TD*%
%TA.AperFunction,Conductor*%
%TO.N,NEO_GND*%
G36*
X121774648Y-111138962D02*
G01*
X122125648Y-111489962D01*
X122140000Y-111524610D01*
X122140000Y-111815390D01*
X122125648Y-111850038D01*
X121920038Y-112055648D01*
X121885390Y-112070000D01*
X121594610Y-112070000D01*
X121559962Y-112055648D01*
X121354352Y-111850038D01*
X121340000Y-111815390D01*
X121340000Y-111524610D01*
X121354352Y-111489962D01*
X121705352Y-111138962D01*
X121740000Y-111124610D01*
X121774648Y-111138962D01*
G37*
%TD.AperFunction*%
%TD*%
%TA.AperFunction,Conductor*%
%TO.N,VCC_OUT*%
G36*
X135524648Y-119328962D02*
G01*
X135875648Y-119679962D01*
X135890000Y-119714610D01*
X135890000Y-120005390D01*
X135875648Y-120040038D01*
X135670038Y-120245648D01*
X135635390Y-120260000D01*
X135139000Y-120260000D01*
X135104352Y-120245648D01*
X135090000Y-120211000D01*
X135090000Y-119714610D01*
X135104352Y-119679962D01*
X135455352Y-119328962D01*
X135490000Y-119314610D01*
X135524648Y-119328962D01*
G37*
%TD.AperFunction*%
%TD*%
%TA.AperFunction,Conductor*%
%TO.N,S_3V3*%
G36*
X125910038Y-103500352D02*
G01*
X126261038Y-103851352D01*
X126275390Y-103886000D01*
X126261038Y-103920648D01*
X125910038Y-104271648D01*
X125875390Y-104286000D01*
X125584610Y-104286000D01*
X125549962Y-104271648D01*
X125344352Y-104066038D01*
X125330000Y-104031390D01*
X125330000Y-103740610D01*
X125344352Y-103705962D01*
X125549962Y-103500352D01*
X125584610Y-103486000D01*
X125875390Y-103486000D01*
X125910038Y-103500352D01*
G37*
%TD.AperFunction*%
%TD*%
%TA.AperFunction,Conductor*%
%TO.N,D4_SDA*%
G36*
X125275038Y-112142852D02*
G01*
X125480648Y-112348462D01*
X125495000Y-112383110D01*
X125495000Y-112673890D01*
X125480648Y-112708538D01*
X125129648Y-113059538D01*
X125095000Y-113073890D01*
X125060352Y-113059538D01*
X124709352Y-112708538D01*
X124695000Y-112673890D01*
X124695000Y-112383110D01*
X124709352Y-112348462D01*
X124914962Y-112142852D01*
X124949610Y-112128500D01*
X125240390Y-112128500D01*
X125275038Y-112142852D01*
G37*
%TD.AperFunction*%
%TD*%
%TA.AperFunction,Conductor*%
%TO.N,KNX_TX*%
G36*
X118210038Y-108754352D02*
G01*
X118415648Y-108959962D01*
X118430000Y-108994610D01*
X118430000Y-109285390D01*
X118415648Y-109320038D01*
X118210038Y-109525648D01*
X118175390Y-109540000D01*
X117884610Y-109540000D01*
X117849962Y-109525648D01*
X117498962Y-109174648D01*
X117484610Y-109140000D01*
X117498962Y-109105352D01*
X117849962Y-108754352D01*
X117884610Y-108740000D01*
X118175390Y-108740000D01*
X118210038Y-108754352D01*
G37*
%TD.AperFunction*%
%TD*%
%TA.AperFunction,Conductor*%
%TO.N,D3*%
G36*
X123764648Y-110738962D02*
G01*
X124115648Y-111089962D01*
X124130000Y-111124610D01*
X124130000Y-111415390D01*
X124115648Y-111450038D01*
X123910038Y-111655648D01*
X123875390Y-111670000D01*
X123584610Y-111670000D01*
X123549962Y-111655648D01*
X123344352Y-111450038D01*
X123330000Y-111415390D01*
X123330000Y-111124610D01*
X123344352Y-111089962D01*
X123695352Y-110738962D01*
X123730000Y-110724610D01*
X123764648Y-110738962D01*
G37*
%TD.AperFunction*%
%TD*%
%TA.AperFunction,Conductor*%
%TO.N,D2*%
G36*
X127153038Y-110227952D02*
G01*
X127358648Y-110433562D01*
X127373000Y-110468210D01*
X127373000Y-110758990D01*
X127358648Y-110793638D01*
X127007648Y-111144638D01*
X126973000Y-111158990D01*
X126938352Y-111144638D01*
X126587352Y-110793638D01*
X126573000Y-110758990D01*
X126573000Y-110468210D01*
X126587352Y-110433562D01*
X126792962Y-110227952D01*
X126827610Y-110213600D01*
X127118390Y-110213600D01*
X127153038Y-110227952D01*
G37*
%TD.AperFunction*%
%TD*%
%TA.AperFunction,Conductor*%
%TO.N,KNX_3V3*%
G36*
X120380038Y-107964352D02*
G01*
X120731038Y-108315352D01*
X120745390Y-108350000D01*
X120731038Y-108384648D01*
X120380038Y-108735648D01*
X120345390Y-108750000D01*
X120054610Y-108750000D01*
X120019962Y-108735648D01*
X119668962Y-108384648D01*
X119654610Y-108350000D01*
X119668962Y-108315352D01*
X120019962Y-107964352D01*
X120054610Y-107950000D01*
X120345390Y-107950000D01*
X120380038Y-107964352D01*
G37*
%TD.AperFunction*%
%TD*%
%TA.AperFunction,Conductor*%
%TO.N,D0*%
G36*
X131131357Y-110829940D02*
G01*
X131482357Y-111180940D01*
X131496709Y-111215588D01*
X131482357Y-111250236D01*
X131131357Y-111601236D01*
X131096709Y-111615588D01*
X130805929Y-111615588D01*
X130771281Y-111601236D01*
X130565671Y-111395626D01*
X130551319Y-111360978D01*
X130551319Y-111070198D01*
X130565671Y-111035550D01*
X130771281Y-110829940D01*
X130805929Y-110815588D01*
X131096709Y-110815588D01*
X131131357Y-110829940D01*
G37*
%TD.AperFunction*%
%TD*%
%TA.AperFunction,Conductor*%
%TO.N,KNX_TX*%
G36*
X118210038Y-108754352D02*
G01*
X118415648Y-108959962D01*
X118430000Y-108994610D01*
X118430000Y-109285390D01*
X118415648Y-109320038D01*
X118210038Y-109525648D01*
X118175390Y-109540000D01*
X117884610Y-109540000D01*
X117849962Y-109525648D01*
X117498962Y-109174648D01*
X117484610Y-109140000D01*
X117498962Y-109105352D01*
X117849962Y-108754352D01*
X117884610Y-108740000D01*
X118175390Y-108740000D01*
X118210038Y-108754352D01*
G37*
%TD.AperFunction*%
%TD*%
%TA.AperFunction,Conductor*%
%TO.N,KNX_RX*%
G36*
X119650038Y-110844352D02*
G01*
X119855648Y-111049962D01*
X119870000Y-111084610D01*
X119870000Y-111375390D01*
X119855648Y-111410038D01*
X119650038Y-111615648D01*
X119615390Y-111630000D01*
X119324610Y-111630000D01*
X119289962Y-111615648D01*
X118938962Y-111264648D01*
X118924610Y-111230000D01*
X118938962Y-111195352D01*
X119289962Y-110844352D01*
X119324610Y-110830000D01*
X119615390Y-110830000D01*
X119650038Y-110844352D01*
G37*
%TD.AperFunction*%
%TD*%
%TA.AperFunction,Conductor*%
%TO.N,VCC_OUT*%
G36*
X130380038Y-103793252D02*
G01*
X130585648Y-103998862D01*
X130600000Y-104033510D01*
X130600000Y-104529900D01*
X130585648Y-104564548D01*
X130551000Y-104578900D01*
X130054610Y-104578900D01*
X130019962Y-104564548D01*
X129814352Y-104358938D01*
X129800000Y-104324290D01*
X129800000Y-104033510D01*
X129814352Y-103998862D01*
X130019962Y-103793252D01*
X130054610Y-103778900D01*
X130345390Y-103778900D01*
X130380038Y-103793252D01*
G37*
%TD.AperFunction*%
%TD*%
%TA.AperFunction,Conductor*%
%TO.N,D3*%
G36*
X123764648Y-110738962D02*
G01*
X124115648Y-111089962D01*
X124130000Y-111124610D01*
X124130000Y-111415390D01*
X124115648Y-111450038D01*
X123910038Y-111655648D01*
X123875390Y-111670000D01*
X123584610Y-111670000D01*
X123549962Y-111655648D01*
X123344352Y-111450038D01*
X123330000Y-111415390D01*
X123330000Y-111124610D01*
X123344352Y-111089962D01*
X123695352Y-110738962D01*
X123730000Y-110724610D01*
X123764648Y-110738962D01*
G37*
%TD.AperFunction*%
%TD*%
%TA.AperFunction,Conductor*%
%TO.N,D6_TX*%
G36*
X122150038Y-113644352D02*
G01*
X122355648Y-113849962D01*
X122370000Y-113884610D01*
X122370000Y-114175390D01*
X122355648Y-114210038D01*
X122150038Y-114415648D01*
X122115390Y-114430000D01*
X121824610Y-114430000D01*
X121789962Y-114415648D01*
X121438962Y-114064648D01*
X121424610Y-114030000D01*
X121438962Y-113995352D01*
X121789962Y-113644352D01*
X121824610Y-113630000D01*
X122115390Y-113630000D01*
X122150038Y-113644352D01*
G37*
%TD.AperFunction*%
%TD*%
%TA.AperFunction,Conductor*%
%TO.N,D2*%
G36*
X127153038Y-110227952D02*
G01*
X127358648Y-110433562D01*
X127373000Y-110468210D01*
X127373000Y-110758990D01*
X127358648Y-110793638D01*
X127007648Y-111144638D01*
X126973000Y-111158990D01*
X126938352Y-111144638D01*
X126587352Y-110793638D01*
X126573000Y-110758990D01*
X126573000Y-110468210D01*
X126587352Y-110433562D01*
X126792962Y-110227952D01*
X126827610Y-110213600D01*
X127118390Y-110213600D01*
X127153038Y-110227952D01*
G37*
%TD.AperFunction*%
%TD*%
%TA.AperFunction,Conductor*%
%TO.N,D1*%
G36*
X127944638Y-110901352D02*
G01*
X128295638Y-111252352D01*
X128309990Y-111287000D01*
X128295638Y-111321648D01*
X127944638Y-111672648D01*
X127909990Y-111687000D01*
X127619210Y-111687000D01*
X127584562Y-111672648D01*
X127378952Y-111467038D01*
X127364600Y-111432390D01*
X127364600Y-111141610D01*
X127378952Y-111106962D01*
X127584562Y-110901352D01*
X127619210Y-110887000D01*
X127909990Y-110887000D01*
X127944638Y-110901352D01*
G37*
%TD.AperFunction*%
%TD*%
%TA.AperFunction,Conductor*%
%TO.N,D5_SCL*%
G36*
X125148038Y-111120352D02*
G01*
X125353648Y-111325962D01*
X125368000Y-111360610D01*
X125368000Y-111651390D01*
X125353648Y-111686038D01*
X125148038Y-111891648D01*
X125113390Y-111906000D01*
X124617000Y-111906000D01*
X124582352Y-111891648D01*
X124568000Y-111857000D01*
X124568000Y-111360610D01*
X124582352Y-111325962D01*
X124787962Y-111120352D01*
X124822610Y-111106000D01*
X125113390Y-111106000D01*
X125148038Y-111120352D01*
G37*
%TD.AperFunction*%
%TD*%
%TA.AperFunction,Conductor*%
%TO.N,S_3V3*%
G36*
X125910038Y-103500352D02*
G01*
X126261038Y-103851352D01*
X126275390Y-103886000D01*
X126261038Y-103920648D01*
X125910038Y-104271648D01*
X125875390Y-104286000D01*
X125584610Y-104286000D01*
X125549962Y-104271648D01*
X125344352Y-104066038D01*
X125330000Y-104031390D01*
X125330000Y-103740610D01*
X125344352Y-103705962D01*
X125549962Y-103500352D01*
X125584610Y-103486000D01*
X125875390Y-103486000D01*
X125910038Y-103500352D01*
G37*
%TD.AperFunction*%
%TD*%
%TA.AperFunction,Conductor*%
%TO.N,D1*%
G36*
X127944638Y-110901352D02*
G01*
X128295638Y-111252352D01*
X128309990Y-111287000D01*
X128295638Y-111321648D01*
X127944638Y-111672648D01*
X127909990Y-111687000D01*
X127619210Y-111687000D01*
X127584562Y-111672648D01*
X127378952Y-111467038D01*
X127364600Y-111432390D01*
X127364600Y-111141610D01*
X127378952Y-111106962D01*
X127584562Y-110901352D01*
X127619210Y-110887000D01*
X127909990Y-110887000D01*
X127944638Y-110901352D01*
G37*
%TD.AperFunction*%
%TD*%
M02*
