M48
; DRILL file {KiCad (6.0.10-0)} date Friday, 20 January 2023 at 18:31:20
; FORMAT={-:-/ absolute / inch / decimal}
; #@! TF.CreationDate,2023-01-20T18:31:20+01:00
; #@! TF.GenerationSoftware,Kicad,Pcbnew,(6.0.10-0)
; #@! TF.FileFunction,Plated,1,2,PTH
FMAT,2
INCH
; #@! TA.AperFunction,Plated,PTH,ViaDrill
T1C0.0157
; #@! TA.AperFunction,Plated,PTH,ComponentDrill
T2C0.0394
; #@! TA.AperFunction,Plated,PTH,ComponentDrill
T3C0.0433
; #@! TA.AperFunction,Plated,PTH,ComponentDrill
T4C0.0492
%
G90
G05
T1
X4.5441Y-4.4559
X4.6469Y-4.2969
X4.6929Y-4.1494
X4.7035Y-4.3791
X4.7323Y-4.2657
X4.7929Y-4.3965
X4.802Y-4.4894
X4.8713Y-4.3807
X4.92Y-4.39
X4.925Y-4.4303
X4.95Y-4.09
X4.9989Y-4.3549
X5.0301Y-4.3814
X5.07Y-4.2555
X5.0709Y-4.0891
X5.0776Y-4.3091
X5.1195Y-4.1806
X5.126Y-4.1015
X5.1556Y-4.3786
X5.1772Y-4.1015
X5.3343Y-4.7189
T2
X4.4543Y-4.037
X4.4543Y-4.137
X4.4543Y-4.237
X4.4543Y-4.337
X4.4543Y-4.437
X4.4543Y-4.537
X4.4543Y-4.637
T3
X4.4862Y-3.848
X4.5071Y-4.887
X4.5079Y-5.002
X4.5862Y-3.848
X4.6862Y-3.848
X4.7335Y-4.887
X4.7343Y-5.002
X4.7862Y-3.848
X4.8862Y-3.848
X4.9862Y-3.848
X5.0065Y-5.0228
X5.0862Y-3.848
X5.1065Y-5.0228
X5.1862Y-3.848
X5.2065Y-5.0228
X5.2862Y-3.848
X5.3065Y-5.0228
T4
X4.5079Y-4.8878
X4.7343Y-4.8878
T0
M30
