%TF.GenerationSoftware,KiCad,Pcbnew,(7.0.0-0)*%
%TF.CreationDate,2023-02-23T11:22:35+01:00*%
%TF.ProjectId,KNeoPiX_v1.3,4b4e656f-5069-4585-9f76-312e332e6b69,rev?*%
%TF.SameCoordinates,Original*%
%TF.FileFunction,Copper,L1,Top*%
%TF.FilePolarity,Positive*%
%FSLAX46Y46*%
G04 Gerber Fmt 4.6, Leading zero omitted, Abs format (unit mm)*
G04 Created by KiCad (PCBNEW (7.0.0-0)) date 2023-02-23 11:22:35*
%MOMM*%
%LPD*%
G01*
G04 APERTURE LIST*
G04 Aperture macros list*
%AMRoundRect*
0 Rectangle with rounded corners*
0 $1 Rounding radius*
0 $2 $3 $4 $5 $6 $7 $8 $9 X,Y pos of 4 corners*
0 Add a 4 corners polygon primitive as box body*
4,1,4,$2,$3,$4,$5,$6,$7,$8,$9,$2,$3,0*
0 Add four circle primitives for the rounded corners*
1,1,$1+$1,$2,$3*
1,1,$1+$1,$4,$5*
1,1,$1+$1,$6,$7*
1,1,$1+$1,$8,$9*
0 Add four rect primitives between the rounded corners*
20,1,$1+$1,$2,$3,$4,$5,0*
20,1,$1+$1,$4,$5,$6,$7,0*
20,1,$1+$1,$6,$7,$8,$9,0*
20,1,$1+$1,$8,$9,$2,$3,0*%
%AMFreePoly0*
4,1,19,0.550000,-0.750000,0.000000,-0.750000,0.000000,-0.744911,-0.071157,-0.744911,-0.207708,-0.704816,-0.327430,-0.627875,-0.420627,-0.520320,-0.479746,-0.390866,-0.500000,-0.250000,-0.500000,0.250000,-0.479746,0.390866,-0.420627,0.520320,-0.327430,0.627875,-0.207708,0.704816,-0.071157,0.744911,0.000000,0.744911,0.000000,0.750000,0.550000,0.750000,0.550000,-0.750000,0.550000,-0.750000,
$1*%
%AMFreePoly1*
4,1,19,0.000000,0.744911,0.071157,0.744911,0.207708,0.704816,0.327430,0.627875,0.420627,0.520320,0.479746,0.390866,0.500000,0.250000,0.500000,-0.250000,0.479746,-0.390866,0.420627,-0.520320,0.327430,-0.627875,0.207708,-0.704816,0.071157,-0.744911,0.000000,-0.744911,0.000000,-0.750000,-0.550000,-0.750000,-0.550000,0.750000,0.000000,0.750000,0.000000,0.744911,0.000000,0.744911,
$1*%
G04 Aperture macros list end*
%ADD10C,0.250000*%
%TA.AperFunction,NonConductor*%
%ADD11C,0.250000*%
%TD*%
%TA.AperFunction,SMDPad,CuDef*%
%ADD12RoundRect,0.250000X-0.475000X0.250000X-0.475000X-0.250000X0.475000X-0.250000X0.475000X0.250000X0*%
%TD*%
%TA.AperFunction,SMDPad,CuDef*%
%ADD13RoundRect,0.150000X-0.150000X-0.625000X0.150000X-0.625000X0.150000X0.625000X-0.150000X0.625000X0*%
%TD*%
%TA.AperFunction,SMDPad,CuDef*%
%ADD14RoundRect,0.250000X-0.350000X-0.650000X0.350000X-0.650000X0.350000X0.650000X-0.350000X0.650000X0*%
%TD*%
%TA.AperFunction,SMDPad,CuDef*%
%ADD15R,1.500000X2.000000*%
%TD*%
%TA.AperFunction,SMDPad,CuDef*%
%ADD16R,3.800000X2.000000*%
%TD*%
%TA.AperFunction,SMDPad,CuDef*%
%ADD17RoundRect,0.160000X-0.160000X0.197500X-0.160000X-0.197500X0.160000X-0.197500X0.160000X0.197500X0*%
%TD*%
%TA.AperFunction,SMDPad,CuDef*%
%ADD18R,1.000000X1.500000*%
%TD*%
%TA.AperFunction,SMDPad,CuDef*%
%ADD19RoundRect,0.160000X0.160000X-0.197500X0.160000X0.197500X-0.160000X0.197500X-0.160000X-0.197500X0*%
%TD*%
%TA.AperFunction,SMDPad,CuDef*%
%ADD20RoundRect,0.250000X0.475000X-0.250000X0.475000X0.250000X-0.475000X0.250000X-0.475000X-0.250000X0*%
%TD*%
%TA.AperFunction,ComponentPad*%
%ADD21C,1.875000*%
%TD*%
%TA.AperFunction,ComponentPad*%
%ADD22R,0.850000X0.850000*%
%TD*%
%TA.AperFunction,ComponentPad*%
%ADD23O,0.850000X0.850000*%
%TD*%
%TA.AperFunction,ComponentPad*%
%ADD24R,2.200000X2.200000*%
%TD*%
%TA.AperFunction,ComponentPad*%
%ADD25C,2.200000*%
%TD*%
%TA.AperFunction,ComponentPad*%
%ADD26O,1.700000X1.700000*%
%TD*%
%TA.AperFunction,ComponentPad*%
%ADD27R,1.700000X1.700000*%
%TD*%
%TA.AperFunction,SMDPad,CuDef*%
%ADD28RoundRect,0.150000X0.150000X-0.825000X0.150000X0.825000X-0.150000X0.825000X-0.150000X-0.825000X0*%
%TD*%
%TA.AperFunction,SMDPad,CuDef*%
%ADD29R,1.000000X0.900000*%
%TD*%
%TA.AperFunction,ComponentPad*%
%ADD30C,2.500000*%
%TD*%
%TA.AperFunction,SMDPad,CuDef*%
%ADD31FreePoly0,270.000000*%
%TD*%
%TA.AperFunction,SMDPad,CuDef*%
%ADD32R,1.500000X1.000000*%
%TD*%
%TA.AperFunction,SMDPad,CuDef*%
%ADD33FreePoly1,270.000000*%
%TD*%
%TA.AperFunction,ViaPad*%
%ADD34C,0.800000*%
%TD*%
%TA.AperFunction,Conductor*%
%ADD35C,0.250000*%
%TD*%
G04 APERTURE END LIST*
D10*
D11*
X119019048Y-129617380D02*
X119019048Y-128617380D01*
X119590476Y-129617380D02*
X119161905Y-129045952D01*
X119590476Y-128617380D02*
X119019048Y-129188809D01*
X120019048Y-129617380D02*
X120019048Y-128617380D01*
X120019048Y-128617380D02*
X120590476Y-129617380D01*
X120590476Y-129617380D02*
X120590476Y-128617380D01*
X120971429Y-128617380D02*
X121638095Y-129617380D01*
X121638095Y-128617380D02*
X120971429Y-129617380D01*
X122019048Y-129236428D02*
X122780953Y-129236428D01*
X122400000Y-129617380D02*
X122400000Y-128855476D01*
D10*
D11*
X113219048Y-129647380D02*
X113219048Y-128647380D01*
X113790476Y-129647380D02*
X113361905Y-129075952D01*
X113790476Y-128647380D02*
X113219048Y-129218809D01*
X114219048Y-129647380D02*
X114219048Y-128647380D01*
X114219048Y-128647380D02*
X114790476Y-129647380D01*
X114790476Y-129647380D02*
X114790476Y-128647380D01*
X115171429Y-128647380D02*
X115838095Y-129647380D01*
X115838095Y-128647380D02*
X115171429Y-129647380D01*
X116219048Y-129266428D02*
X116980953Y-129266428D01*
D12*
%TO.P,C2,1*%
%TO.N,KNX_3V3*%
X124270000Y-102100000D03*
%TO.P,C2,2*%
%TO.N,KNX_GND*%
X124270000Y-104000000D03*
%TD*%
D13*
%TO.P,J5,1,Pin_1*%
%TO.N,EXT_GND*%
X129625000Y-123675000D03*
%TO.P,J5,2,Pin_2*%
%TO.N,S_3V3*%
X130625000Y-123675000D03*
%TO.P,J5,3,Pin_3*%
%TO.N,SWCLK*%
X131625000Y-123675000D03*
%TO.P,J5,4,Pin_4*%
%TO.N,SWDIO*%
X132625000Y-123675000D03*
%TO.P,J5,5,Pin_5*%
%TO.N,RESET*%
X133625000Y-123675000D03*
D14*
%TO.P,J5,MP*%
%TO.N,N/C*%
X128325000Y-121150000D03*
X134925000Y-121150000D03*
%TD*%
D15*
%TO.P,U2,1,VI*%
%TO.N,EXT_VCC_IN*%
X122149999Y-116524999D03*
%TO.P,U2,2,GND*%
%TO.N,EXT_GND*%
X124449999Y-116524999D03*
D16*
X124449999Y-110224999D03*
D15*
%TO.P,U2,3,VO*%
%TO.N,EXT_VCC_OUT*%
X126749999Y-116524999D03*
%TD*%
D12*
%TO.P,C1,1*%
%TO.N,S_3V3*%
X121625000Y-102100000D03*
%TO.P,C1,2*%
%TO.N,EXT_GND*%
X121625000Y-104000000D03*
%TD*%
D17*
%TO.P,R4,1*%
%TO.N,NEO_DATA1_OUT*%
X117080000Y-109362500D03*
%TO.P,R4,2*%
%TO.N,D5_SCL*%
X117080000Y-110557500D03*
%TD*%
D18*
%TO.P,JP3,1,A*%
%TO.N,EXT_VCC_IN*%
X133669999Y-118774999D03*
%TO.P,JP3,2,B*%
%TO.N,EXT_VCC_OUT*%
X134969999Y-118774999D03*
%TD*%
D19*
%TO.P,R3,1*%
%TO.N,NEO_DATA0_OUT*%
X115760000Y-110547500D03*
%TO.P,R3,2*%
%TO.N,D4_SDA*%
X115760000Y-109352500D03*
%TD*%
D20*
%TO.P,C4,1*%
%TO.N,EXT_VCC_OUT*%
X121650000Y-107700000D03*
%TO.P,C4,2*%
%TO.N,EXT_GND*%
X121650000Y-105800000D03*
%TD*%
D18*
%TO.P,JP4,1,A*%
%TO.N,KNX_SAVE*%
X133974999Y-102649999D03*
%TO.P,JP4,2,B*%
%TO.N,D10*%
X135274999Y-102649999D03*
%TD*%
D12*
%TO.P,C3,1*%
%TO.N,EXT_VCC_IN*%
X127050000Y-102100000D03*
%TO.P,C3,2*%
%TO.N,EXT_GND*%
X127050000Y-104000000D03*
%TD*%
%TO.P,C6,1*%
%TO.N,EXT_GND*%
X127075000Y-105825000D03*
%TO.P,C6,2*%
%TO.N,S_3V3*%
X127075000Y-107725000D03*
%TD*%
D21*
%TO.P,H2,1,1*%
%TO.N,KNX+*%
X120250000Y-124150000D03*
%TD*%
D20*
%TO.P,C7,1*%
%TO.N,D0*%
X130175000Y-115575000D03*
%TO.P,C7,2*%
%TO.N,EXT_GND*%
X130175000Y-113675000D03*
%TD*%
D22*
%TO.P,J6,1,Pin_1*%
%TO.N,EXT_GND*%
X129649999Y-122449999D03*
D23*
%TO.P,J6,2,Pin_2*%
%TO.N,S_3V3*%
X130649999Y-122449999D03*
%TO.P,J6,3,Pin_3*%
%TO.N,SWCLK*%
X131649999Y-122449999D03*
%TO.P,J6,4,Pin_4*%
%TO.N,SWDIO*%
X132649999Y-122449999D03*
%TO.P,J6,5,Pin_5*%
%TO.N,RESET*%
X133649999Y-122449999D03*
%TD*%
D17*
%TO.P,R1,1*%
%TO.N,KNX_TX*%
X118540000Y-109352500D03*
%TO.P,R1,2*%
%TO.N,D7_RX*%
X118540000Y-110547500D03*
%TD*%
D24*
%TO.P,J4,1,Pin_1*%
%TO.N,EXT_GND*%
X127164999Y-127579999D03*
D25*
%TO.P,J4,2,Pin_2*%
%TO.N,NEO_DATA0_OUT*%
X129705000Y-127580000D03*
%TO.P,J4,3,Pin_3*%
%TO.N,NEO_DATA1_OUT*%
X132245000Y-127580000D03*
%TO.P,J4,4,Pin_4*%
%TO.N,EXT_VCC_IN*%
X134785000Y-127580000D03*
%TD*%
D24*
%TO.P,J3,1,Pin_1*%
%TO.N,EXT_GND*%
X134269999Y-97739999D03*
D25*
%TO.P,J3,2,Pin_2*%
%TO.N,S_3V3*%
X131730000Y-97740000D03*
%TO.P,J3,3,Pin_3*%
%TO.N,KNX_5V*%
X129190000Y-97740000D03*
%TO.P,J3,4,Pin_4*%
%TO.N,D1*%
X126650000Y-97740000D03*
%TO.P,J3,5,Pin_5*%
%TO.N,D2*%
X124110000Y-97740000D03*
%TO.P,J3,6,Pin_6*%
%TO.N,D3*%
X121570000Y-97740000D03*
%TO.P,J3,7,Pin_7*%
%TO.N,D8*%
X119030000Y-97740000D03*
%TO.P,J3,8,Pin_8*%
%TO.N,D9*%
X116490000Y-97740000D03*
%TO.P,J3,9,Pin_9*%
%TO.N,D10*%
X113950000Y-97740000D03*
%TD*%
D19*
%TO.P,R2,1*%
%TO.N,KNX_RX*%
X119890000Y-110550000D03*
%TO.P,R2,2*%
%TO.N,D6_TX*%
X119890000Y-109355000D03*
%TD*%
D26*
%TO.P,GN1,1,KNX+*%
%TO.N,KNX+*%
X113139999Y-117779999D03*
D27*
%TO.P,GN1,2,GND*%
%TO.N,KNX_GND*%
X113139999Y-115239999D03*
D26*
%TO.P,GN1,3,SAVE*%
%TO.N,KNX_SAVE*%
X113139999Y-112699999D03*
%TO.P,GN1,4,Rx*%
%TO.N,KNX_RX*%
X113139999Y-110159999D03*
%TO.P,GN1,5,Tx*%
%TO.N,KNX_TX*%
X113139999Y-107619999D03*
%TO.P,GN1,6,3V3*%
%TO.N,KNX_3V3*%
X113139999Y-105079999D03*
%TO.P,GN1,7,Vcc2*%
%TO.N,KNX_5V*%
X113139999Y-102539999D03*
%TD*%
D18*
%TO.P,JP1,1,A*%
%TO.N,EXT_GND*%
X125749999Y-118774999D03*
%TO.P,JP1,2,B*%
%TO.N,KNX_GND*%
X127049999Y-118774999D03*
%TD*%
D28*
%TO.P,U3,1,VDD1*%
%TO.N,KNX_3V3*%
X115795000Y-107555000D03*
%TO.P,U3,2,VOA*%
%TO.N,KNX_RX*%
X117065000Y-107555000D03*
%TO.P,U3,3,VIB*%
%TO.N,KNX_TX*%
X118335000Y-107555000D03*
%TO.P,U3,4,GND1*%
%TO.N,KNX_GND*%
X119605000Y-107555000D03*
%TO.P,U3,5,GND2*%
%TO.N,EXT_GND*%
X119605000Y-102605000D03*
%TO.P,U3,6,VOB*%
%TO.N,D7_RX*%
X118335000Y-102605000D03*
%TO.P,U3,7,VIA*%
%TO.N,D6_TX*%
X117065000Y-102605000D03*
%TO.P,U3,8,VDD2*%
%TO.N,S_3V3*%
X115795000Y-102605000D03*
%TD*%
D18*
%TO.P,JP2,1,A*%
%TO.N,S_3V3*%
X129749999Y-118774999D03*
%TO.P,JP2,2,B*%
%TO.N,KNX_3V3*%
X131049999Y-118774999D03*
%TD*%
D20*
%TO.P,C5,1*%
%TO.N,S_3V3*%
X124285000Y-107725000D03*
%TO.P,C5,2*%
%TO.N,EXT_GND*%
X124285000Y-105825000D03*
%TD*%
D29*
%TO.P,SW1,1,1*%
%TO.N,EXT_GND*%
X135409999Y-112674999D03*
X133809999Y-112674999D03*
%TO.P,SW1,2,2*%
%TO.N,D0*%
X135409999Y-116774999D03*
X133809999Y-116774999D03*
%TD*%
D30*
%TO.P,J2,1,Pin_1*%
%TO.N,KNX+*%
X120250000Y-127050000D03*
%TO.P,J2,2,Pin_2*%
%TO.N,KNX_GND*%
X114500000Y-127050000D03*
%TD*%
D21*
%TO.P,H1,1,1*%
%TO.N,KNX_GND*%
X114500000Y-124150000D03*
%TD*%
D18*
%TO.P,JP6,1,A*%
%TO.N,5V-MCU*%
X133974999Y-105149999D03*
%TO.P,JP6,2,B*%
%TO.N,KNX_5V*%
X135274999Y-105149999D03*
%TD*%
D31*
%TO.P,JP5,1,A*%
%TO.N,S_3V3*%
X131125000Y-102400000D03*
D32*
%TO.P,JP5,2,C*%
%TO.N,EXT_VCC_OUT*%
X131124999Y-103699999D03*
D33*
%TO.P,JP5,3,B*%
%TO.N,5V-MCU*%
X131125000Y-105000000D03*
%TD*%
D30*
%TO.P,J1,1,Pin_1*%
%TO.N,KNX+*%
X120230000Y-124130000D03*
%TO.P,J1,2,Pin_2*%
%TO.N,KNX_GND*%
X114480000Y-124130000D03*
%TD*%
D28*
%TO.P,U4,1,VDD1*%
%TO.N,S_3V3*%
X115795000Y-117325000D03*
%TO.P,U4,2,VOA*%
%TO.N,NEO_DATA0_OUT*%
X117065000Y-117325000D03*
%TO.P,U4,3,VIB*%
%TO.N,NEO_DATA1_OUT*%
X118335000Y-117325000D03*
%TO.P,U4,4,GND1*%
%TO.N,EXT_GND*%
X119605000Y-117325000D03*
%TO.P,U4,5,GND2*%
X119605000Y-112375000D03*
%TO.P,U4,6,VOB*%
%TO.N,D5_SCL*%
X118335000Y-112375000D03*
%TO.P,U4,7,VIA*%
%TO.N,D4_SDA*%
X117065000Y-112375000D03*
%TO.P,U4,8,VDD2*%
%TO.N,S_3V3*%
X115795000Y-112375000D03*
%TD*%
D27*
%TO.P,U1,17,PA31_SWDIO*%
%TO.N,SWDIO*%
X134386653Y-110557913D03*
%TO.P,U1,18,PA30_SWCLK*%
%TO.N,SWCLK*%
X134386653Y-108017913D03*
%TO.P,U1,19,RESET*%
%TO.N,RESET*%
X131846653Y-110557913D03*
%TO.P,U1,20,GND*%
%TO.N,EXT_GND*%
X131846653Y-108017913D03*
%TD*%
D34*
%TO.N,KNX_3V3*%
X131050000Y-120060000D03*
X116534900Y-115646000D03*
%TO.N,KNX_RX*%
X114849799Y-106275201D03*
X120827800Y-110924400D03*
%TO.N,KNX_TX*%
X118387400Y-105776300D03*
%TO.N,D0*%
X131410400Y-115470000D03*
X135450000Y-115510000D03*
%TO.N,D10*%
X130350000Y-96184100D03*
%TO.N,D3*%
X125605900Y-115048500D03*
%TO.N,D2*%
X128145900Y-115642800D03*
%TO.N,D1*%
X129550400Y-112560500D03*
%TO.N,KNX_GND*%
X119832900Y-105944400D03*
X120892700Y-115173600D03*
X125315700Y-104922900D03*
%TO.N,D4_SDA*%
X114600000Y-108925000D03*
X118908200Y-115594200D03*
%TO.N,D5_SCL*%
X118335000Y-114050500D03*
%TO.N,D6_TX*%
X120827800Y-109767400D03*
%TO.N,D7_RX*%
X116421600Y-104841500D03*
%TO.N,KNX_SAVE*%
X134845500Y-100289000D03*
%TO.N,EXT_GND*%
X134670000Y-123960000D03*
X128500000Y-122699500D03*
X125750000Y-119887416D03*
X131410400Y-114170000D03*
X133825000Y-114170500D03*
X126954900Y-109769200D03*
%TO.N,5V-MCU*%
X132661051Y-104088949D03*
%TO.N,EXT_VCC_OUT*%
X135349500Y-119650500D03*
X126775000Y-114000000D03*
%TO.N,S_3V3*%
X128968600Y-104697800D03*
X115314652Y-111448859D03*
X129556392Y-120053608D03*
%TO.N,EXT_VCC_IN*%
X133270000Y-120060000D03*
X128400000Y-103450000D03*
%TO.N,SWCLK*%
X135125000Y-114300000D03*
%TO.N,SWDIO*%
X131375000Y-121525000D03*
%TD*%
D35*
%TO.N,KNX_3V3*%
X116390000Y-99610000D02*
X123250000Y-99610000D01*
X115105000Y-107555000D02*
X115795000Y-107555000D01*
X124270000Y-100630000D02*
X124270000Y-102100000D01*
X114890000Y-104560000D02*
X114890000Y-101110000D01*
X131050000Y-120060000D02*
X130975000Y-119985000D01*
X113140000Y-105590000D02*
X115105000Y-107555000D01*
X114890000Y-101110000D02*
X116390000Y-99610000D01*
X130975000Y-119985000D02*
X130975000Y-118850000D01*
X123250000Y-99610000D02*
X124270000Y-100630000D01*
X114370000Y-105080000D02*
X114890000Y-104560000D01*
X113140000Y-105080000D02*
X114370000Y-105080000D01*
%TO.N,KNX_RX*%
X116585000Y-106255000D02*
X117065000Y-106735000D01*
X120264400Y-110924400D02*
X120827800Y-110924400D01*
X114870000Y-106255000D02*
X116585000Y-106255000D01*
X119890000Y-110550000D02*
X120264400Y-110924400D01*
X114849799Y-106275201D02*
X114870000Y-106255000D01*
%TO.N,KNX_TX*%
X118335000Y-105828700D02*
X118387400Y-105776300D01*
X118540000Y-107760000D02*
X118335000Y-107555000D01*
X118335000Y-107555000D02*
X118335000Y-105828700D01*
X118540000Y-109352500D02*
X118540000Y-107760000D01*
%TO.N,D0*%
X135410000Y-116775000D02*
X133810000Y-116775000D01*
X135410000Y-116775000D02*
X135410000Y-115550000D01*
X135410000Y-115550000D02*
X135450000Y-115510000D01*
X131410400Y-115470000D02*
X130280000Y-115470000D01*
%TO.N,D10*%
X130350000Y-96184100D02*
X130365900Y-96200000D01*
X130365900Y-96200000D02*
X135452700Y-96200000D01*
X135452700Y-96200000D02*
X135695200Y-96442500D01*
X135275000Y-101574900D02*
X135275000Y-102650000D01*
X135695200Y-96442500D02*
X135695200Y-101154700D01*
X135695200Y-101154700D02*
X135275000Y-101574900D01*
%TO.N,KNX_GND*%
X123089300Y-115173600D02*
X123225000Y-115309300D01*
X123225000Y-115309300D02*
X123225000Y-119275000D01*
X120892700Y-115173600D02*
X123089300Y-115173600D01*
X123225000Y-119275000D02*
X125400000Y-121450000D01*
X125192900Y-104922900D02*
X125315700Y-104922900D01*
X125400000Y-121450000D02*
X126250000Y-121450000D01*
X119605000Y-107555000D02*
X119832900Y-107327100D01*
X124270000Y-104000000D02*
X125192900Y-104922900D01*
X119832900Y-107327100D02*
X119832900Y-105944400D01*
X126775000Y-120925000D02*
X126775000Y-119050000D01*
X126250000Y-121450000D02*
X126775000Y-120925000D01*
%TO.N,D4_SDA*%
X118908200Y-115594200D02*
X118772300Y-115594200D01*
X117065000Y-113886900D02*
X117065000Y-112375000D01*
X114915000Y-109240000D02*
X115647500Y-109240000D01*
X118772300Y-115594200D02*
X117065000Y-113886900D01*
X114600000Y-108925000D02*
X114915000Y-109240000D01*
%TO.N,D5_SCL*%
X118335000Y-111812500D02*
X117080000Y-110557500D01*
X118335000Y-112375000D02*
X118335000Y-114050500D01*
%TO.N,D6_TX*%
X117800000Y-104410000D02*
X119430000Y-104410000D01*
X120558100Y-109355000D02*
X120558100Y-109497700D01*
X117065000Y-102605000D02*
X117065000Y-103675000D01*
X119430000Y-104410000D02*
X120558100Y-105538100D01*
X117065000Y-103675000D02*
X117800000Y-104410000D01*
X120558100Y-109355000D02*
X119890000Y-109355000D01*
X120558100Y-105538100D02*
X120558100Y-109355000D01*
X120558100Y-109497700D02*
X120827800Y-109767400D01*
%TO.N,D7_RX*%
X118097500Y-110547500D02*
X117895000Y-110345000D01*
X117895000Y-108955000D02*
X117710000Y-108770000D01*
X117910000Y-101220000D02*
X118335000Y-101645000D01*
X116421600Y-101584000D02*
X116785600Y-101220000D01*
X117895000Y-110345000D02*
X117895000Y-108955000D01*
X118335000Y-101645000D02*
X118335000Y-102605000D01*
X116421600Y-104841500D02*
X116421600Y-101584000D01*
X117710000Y-108770000D02*
X117710000Y-106129900D01*
X116785600Y-101220000D02*
X117910000Y-101220000D01*
X117710000Y-106129900D02*
X116421600Y-104841500D01*
X118540000Y-110547500D02*
X118097500Y-110547500D01*
%TO.N,KNX_SAVE*%
X133975000Y-101159500D02*
X134845500Y-100289000D01*
X133975000Y-102650000D02*
X133975000Y-101159500D01*
%TO.N,KNX_5V*%
X132930600Y-101480600D02*
X129190000Y-97740000D01*
X132930600Y-103333900D02*
X132930600Y-101480600D01*
X135275000Y-105150000D02*
X135275000Y-104074900D01*
X133671600Y-104074900D02*
X132930600Y-103333900D01*
X135275000Y-104074900D02*
X133671600Y-104074900D01*
%TO.N,EXT_GND*%
X124450000Y-114100000D02*
X122725000Y-112375000D01*
X119633300Y-117296700D02*
X119633300Y-112403300D01*
X124450000Y-110225000D02*
X126499100Y-110225000D01*
X125750000Y-119887416D02*
X125750000Y-118775000D01*
X124450000Y-117475000D02*
X125750000Y-118775000D01*
X133810000Y-112675000D02*
X133810000Y-114155500D01*
X135320500Y-112675000D02*
X135410000Y-112675000D01*
X121625000Y-104000000D02*
X121625000Y-105775000D01*
X122700000Y-108475000D02*
X122700000Y-106100000D01*
X124450000Y-116525000D02*
X124450000Y-117475000D01*
X129650000Y-122450000D02*
X129650000Y-123650000D01*
X128749500Y-122450000D02*
X128500000Y-122699500D01*
X133810000Y-114155500D02*
X133825000Y-114170500D01*
X119605000Y-102605000D02*
X121000000Y-104000000D01*
X133825000Y-114170500D02*
X135320500Y-112675000D01*
X130670000Y-114170000D02*
X130175000Y-113675000D01*
X129650000Y-122450000D02*
X128749500Y-122450000D01*
X121000000Y-104000000D02*
X121625000Y-104000000D01*
X122700000Y-106100000D02*
X122400000Y-105800000D01*
X122400000Y-105800000D02*
X124260000Y-105800000D01*
X122700000Y-108475000D02*
X124450000Y-110225000D01*
X126499100Y-110225000D02*
X126954900Y-109769200D01*
X131410400Y-114170000D02*
X130670000Y-114170000D01*
X124450000Y-116525000D02*
X124450000Y-114100000D01*
X122725000Y-112375000D02*
X119605000Y-112375000D01*
X124285000Y-105825000D02*
X127075000Y-105825000D01*
X121650000Y-105800000D02*
X122400000Y-105800000D01*
X127075000Y-105825000D02*
X127075000Y-104025000D01*
X133810000Y-112675000D02*
X135410000Y-112675000D01*
%TO.N,NEO_DATA1_OUT*%
X132245000Y-127580000D02*
X132245000Y-126470000D01*
X116435000Y-110007500D02*
X116435000Y-111635000D01*
X117080000Y-109362500D02*
X116435000Y-110007500D01*
X131480000Y-125705000D02*
X128382208Y-125705000D01*
X116435000Y-111635000D02*
X116440000Y-111640000D01*
X118183100Y-115777300D02*
X118183100Y-117173100D01*
X128382208Y-125705000D02*
X121527208Y-118850000D01*
X121527208Y-118850000D02*
X119483249Y-118850000D01*
X132245000Y-126470000D02*
X131480000Y-125705000D01*
X116440000Y-111640000D02*
X116440000Y-114032400D01*
X116440000Y-114032400D02*
X116439100Y-114033300D01*
X119483249Y-118850000D02*
X118335000Y-117701751D01*
X116439100Y-114033300D02*
X118183100Y-115777300D01*
%TO.N,NEO_DATA0_OUT*%
X117452500Y-119157500D02*
X117065000Y-118770000D01*
X115422300Y-118632300D02*
X116927300Y-118632300D01*
X129705000Y-127580000D02*
X129705000Y-126605000D01*
X114589652Y-117799652D02*
X115422300Y-118632300D01*
X121610812Y-119570000D02*
X117865000Y-119570000D01*
X117865000Y-119570000D02*
X117452500Y-119157500D01*
X129255000Y-126155000D02*
X128195812Y-126155000D01*
X117065000Y-118770000D02*
X117065000Y-117325000D01*
X128195812Y-126155000D02*
X121610812Y-119570000D01*
X114982700Y-110547500D02*
X114589652Y-110940548D01*
X129705000Y-126605000D02*
X129255000Y-126155000D01*
X114589652Y-110940548D02*
X114589652Y-117799652D01*
X116927300Y-118632300D02*
X117452500Y-119157500D01*
X115760000Y-110547500D02*
X114982700Y-110547500D01*
%TO.N,5V-MCU*%
X133975000Y-105150000D02*
X133130000Y-105150000D01*
X132680000Y-104700000D02*
X132680000Y-104107898D01*
X132680000Y-104107898D02*
X132661051Y-104088949D01*
X132380000Y-105000000D02*
X132680000Y-104700000D01*
X131125000Y-105000000D02*
X132380000Y-105000000D01*
X133130000Y-105150000D02*
X132680000Y-104700000D01*
%TO.N,EXT_VCC_OUT*%
X129680000Y-106040000D02*
X128125000Y-107595000D01*
X128125000Y-110190200D02*
X126750000Y-111565200D01*
X130650000Y-103700000D02*
X129693600Y-104656400D01*
X126750000Y-111565200D02*
X126750000Y-113975000D01*
X129693600Y-104656400D02*
X129693600Y-104998105D01*
X128125000Y-107595000D02*
X128125000Y-110190200D01*
X126750000Y-113975000D02*
X126775000Y-114000000D01*
X121650000Y-110818400D02*
X121650000Y-107700000D01*
X134970000Y-119271000D02*
X135349500Y-119650500D01*
X126750000Y-116525000D02*
X126750000Y-114025000D01*
X134970000Y-118775000D02*
X134970000Y-119271000D01*
X126750000Y-114025000D02*
X126775000Y-114000000D01*
X129693600Y-104998105D02*
X129680000Y-105011705D01*
X129680000Y-105011705D02*
X129680000Y-106040000D01*
X122396800Y-111565200D02*
X121650000Y-110818400D01*
X126750000Y-111565200D02*
X122396800Y-111565200D01*
%TO.N,S_3V3*%
X129446700Y-102400000D02*
X131125000Y-102400000D01*
X129446700Y-101576700D02*
X128720000Y-100850000D01*
X129125000Y-104541400D02*
X129125000Y-103275400D01*
X115314652Y-111448859D02*
X115314652Y-111894652D01*
X129446700Y-102953700D02*
X129446700Y-102400000D01*
X129446700Y-102953700D02*
X129446700Y-101576700D01*
X130650000Y-121147216D02*
X130650000Y-122450000D01*
X122497600Y-102972600D02*
X121625000Y-102100000D01*
X129556392Y-120053608D02*
X129556392Y-118968608D01*
X128968600Y-104697800D02*
X129125000Y-104541400D01*
X130650000Y-122450000D02*
X130650000Y-123650000D01*
X128720000Y-100850000D02*
X126290000Y-100850000D01*
X115795000Y-101425000D02*
X116870000Y-100350000D01*
X115795000Y-112375000D02*
X115795000Y-117325000D01*
X125750000Y-101390000D02*
X125750000Y-102410000D01*
X125750000Y-102410000D02*
X125187400Y-102972600D01*
X121625000Y-101125000D02*
X121625000Y-102100000D01*
X125187400Y-102972600D02*
X122497600Y-102972600D01*
X120850000Y-100350000D02*
X121625000Y-101125000D01*
X129125000Y-103275400D02*
X129446700Y-102953700D01*
X128968600Y-105831400D02*
X128968600Y-104697800D01*
X115795000Y-102605000D02*
X115795000Y-101425000D01*
X124285000Y-107725000D02*
X127075000Y-107725000D01*
X115314652Y-111894652D02*
X115795000Y-112375000D01*
X129556392Y-120053608D02*
X130650000Y-121147216D01*
X126290000Y-100850000D02*
X125750000Y-101390000D01*
X116870000Y-100350000D02*
X120850000Y-100350000D01*
X127075000Y-107725000D02*
X128968600Y-105831400D01*
%TO.N,EXT_VCC_IN*%
X128400000Y-103450000D02*
X128400000Y-102560000D01*
X127940000Y-102100000D02*
X127050000Y-102100000D01*
X133640000Y-119690000D02*
X133270000Y-120060000D01*
X122150000Y-116525000D02*
X122150000Y-118836396D01*
X134785000Y-126085000D02*
X134785000Y-127580000D01*
X128400000Y-102560000D02*
X127940000Y-102100000D01*
X128538604Y-125225000D02*
X133925000Y-125225000D01*
X133925000Y-125225000D02*
X134785000Y-126085000D01*
X122150000Y-118836396D02*
X128538604Y-125225000D01*
X133640000Y-119690000D02*
X133640000Y-118805000D01*
%TO.N,SWCLK*%
X132520000Y-121405305D02*
X131650000Y-122275305D01*
X133530000Y-114895000D02*
X132925000Y-115500000D01*
X132520000Y-117106000D02*
X132520000Y-121405305D01*
X132925000Y-115500000D02*
X132925000Y-116701000D01*
X132925000Y-116701000D02*
X132520000Y-117106000D01*
X134530000Y-114895000D02*
X133530000Y-114895000D01*
X131650000Y-122450000D02*
X131650000Y-123650000D01*
X135125000Y-114300000D02*
X134530000Y-114895000D01*
%TO.N,SWDIO*%
X132475000Y-116415000D02*
X132475000Y-112410000D01*
X131375000Y-121500000D02*
X132070000Y-120805000D01*
X132070000Y-116820000D02*
X132475000Y-116415000D01*
X132985000Y-111900000D02*
X133700000Y-111900000D01*
X132650000Y-122450000D02*
X132650000Y-123650000D01*
X133700000Y-111900000D02*
X134394331Y-111205669D01*
X131375000Y-121525000D02*
X131375000Y-121500000D01*
X132070000Y-120805000D02*
X132070000Y-116820000D01*
X132475000Y-112410000D02*
X132985000Y-111900000D01*
%TO.N,RESET*%
X128870900Y-115943105D02*
X128425000Y-116389005D01*
X133625000Y-123675000D02*
X133625000Y-124525000D01*
X128870900Y-112906305D02*
X128870900Y-115943105D01*
X133625000Y-124525000D02*
X133375000Y-124775000D01*
X128425000Y-119236827D02*
X127325000Y-120336827D01*
X128475000Y-111225000D02*
X128475000Y-112510405D01*
X129142086Y-110557914D02*
X128475000Y-111225000D01*
X127325000Y-122975805D02*
X129124195Y-124775000D01*
X133375000Y-124775000D02*
X129124195Y-124775000D01*
X128425000Y-116389005D02*
X128425000Y-119236827D01*
X131806977Y-110557914D02*
X129142086Y-110557914D01*
X133625000Y-123675000D02*
X133625000Y-122475000D01*
X127325000Y-120336827D02*
X127325000Y-122975805D01*
X128475000Y-112510405D02*
X128870900Y-112906305D01*
%TD*%
M02*
