%TF.GenerationSoftware,KiCad,Pcbnew,(6.0.10-0)*%
%TF.CreationDate,2023-01-20T18:31:20+01:00*%
%TF.ProjectId,KNeoPiX_v1.3,4b4e656f-5069-4585-9f76-312e332e6b69,rev?*%
%TF.SameCoordinates,Original*%
%TF.FileFunction,Legend,Top*%
%TF.FilePolarity,Positive*%
%FSLAX46Y46*%
G04 Gerber Fmt 4.6, Leading zero omitted, Abs format (unit mm)*
G04 Created by KiCad (PCBNEW (6.0.10-0)) date 2023-01-20 18:31:20*
%MOMM*%
%LPD*%
G01*
G04 APERTURE LIST*
G04 Aperture macros list*
%AMRoundRect*
0 Rectangle with rounded corners*
0 $1 Rounding radius*
0 $2 $3 $4 $5 $6 $7 $8 $9 X,Y pos of 4 corners*
0 Add a 4 corners polygon primitive as box body*
4,1,4,$2,$3,$4,$5,$6,$7,$8,$9,$2,$3,0*
0 Add four circle primitives for the rounded corners*
1,1,$1+$1,$2,$3*
1,1,$1+$1,$4,$5*
1,1,$1+$1,$6,$7*
1,1,$1+$1,$8,$9*
0 Add four rect primitives between the rounded corners*
20,1,$1+$1,$2,$3,$4,$5,0*
20,1,$1+$1,$4,$5,$6,$7,0*
20,1,$1+$1,$6,$7,$8,$9,0*
20,1,$1+$1,$8,$9,$2,$3,0*%
%AMFreePoly0*
4,1,22,0.550000,-0.750000,0.000000,-0.750000,0.000000,-0.745033,-0.079941,-0.743568,-0.215256,-0.701293,-0.333266,-0.622738,-0.424486,-0.514219,-0.481581,-0.384460,-0.499164,-0.250000,-0.500000,-0.250000,-0.500000,0.250000,-0.499164,0.250000,-0.499963,0.256109,-0.478152,0.396186,-0.417904,0.524511,-0.324060,0.630769,-0.204165,0.706417,-0.067858,0.745374,0.000000,0.744959,0.000000,0.750000,
0.550000,0.750000,0.550000,-0.750000,0.550000,-0.750000,$1*%
%AMFreePoly1*
4,1,20,0.000000,0.744959,0.073905,0.744508,0.209726,0.703889,0.328688,0.626782,0.421226,0.519385,0.479903,0.390333,0.500000,0.250000,0.500000,-0.250000,0.499851,-0.262216,0.476331,-0.402017,0.414519,-0.529596,0.319384,-0.634700,0.198574,-0.708877,0.061801,-0.746166,0.000000,-0.745033,0.000000,-0.750000,-0.550000,-0.750000,-0.550000,0.750000,0.000000,0.750000,0.000000,0.744959,
0.000000,0.744959,$1*%
G04 Aperture macros list end*
%ADD10C,0.150000*%
%ADD11C,0.265058*%
%ADD12C,0.100000*%
%ADD13C,0.187500*%
%ADD14C,0.125000*%
%ADD15C,0.062500*%
%ADD16C,0.200000*%
%ADD17C,0.250000*%
%ADD18C,0.120000*%
%ADD19C,0.050000*%
%ADD20RoundRect,0.250000X-0.475000X0.250000X-0.475000X-0.250000X0.475000X-0.250000X0.475000X0.250000X0*%
%ADD21R,1.500000X2.000000*%
%ADD22R,3.800000X2.000000*%
%ADD23RoundRect,0.160000X0.160000X-0.197500X0.160000X0.197500X-0.160000X0.197500X-0.160000X-0.197500X0*%
%ADD24RoundRect,0.250000X0.250000X0.475000X-0.250000X0.475000X-0.250000X-0.475000X0.250000X-0.475000X0*%
%ADD25R,1.000000X1.500000*%
%ADD26RoundRect,0.250000X-0.250000X-0.475000X0.250000X-0.475000X0.250000X0.475000X-0.250000X0.475000X0*%
%ADD27RoundRect,0.250000X0.475000X-0.250000X0.475000X0.250000X-0.475000X0.250000X-0.475000X-0.250000X0*%
%ADD28C,1.875000*%
%ADD29RoundRect,0.160000X-0.197500X-0.160000X0.197500X-0.160000X0.197500X0.160000X-0.197500X0.160000X0*%
%ADD30R,2.200000X2.200000*%
%ADD31C,2.200000*%
%ADD32R,1.700000X1.700000*%
%ADD33O,1.700000X1.700000*%
%ADD34RoundRect,0.150000X-0.150000X0.825000X-0.150000X-0.825000X0.150000X-0.825000X0.150000X0.825000X0*%
%ADD35R,1.000000X0.900000*%
%ADD36C,2.500000*%
%ADD37FreePoly0,0.000000*%
%ADD38FreePoly1,0.000000*%
%ADD39RoundRect,0.150000X0.150000X-0.825000X0.150000X0.825000X-0.150000X0.825000X-0.150000X-0.825000X0*%
%ADD40C,0.800000*%
G04 APERTURE END LIST*
D10*
X126971466Y-121950000D02*
G75*
G03*
X126971466Y-121950000I-691466J0D01*
G01*
X126780000Y-122900000D02*
G75*
G03*
X126780000Y-122900000I-25000J0D01*
G01*
D11*
X122857529Y-119888000D02*
G75*
G03*
X122857529Y-119888000I-132529J0D01*
G01*
D12*
X119785000Y-110746465D02*
X128400000Y-110746465D01*
X128400000Y-110746465D02*
X128400000Y-107241465D01*
X128400000Y-107241465D02*
X119785000Y-107241465D01*
X119785000Y-107241465D02*
X119785000Y-110746465D01*
D11*
X121792529Y-113284000D02*
G75*
G03*
X121792529Y-113284000I-132529J0D01*
G01*
D10*
X127430000Y-109491465D02*
G75*
G03*
X127430000Y-109491465I-25000J0D01*
G01*
X126005000Y-109066465D02*
G75*
G03*
X126005000Y-109066465I-25000J0D01*
G01*
X127621466Y-108591465D02*
G75*
G03*
X127621466Y-108591465I-691466J0D01*
G01*
D12*
X125375000Y-110376465D02*
X128040000Y-110376465D01*
X128040000Y-110376465D02*
X128040000Y-107601465D01*
X128040000Y-107601465D02*
X125375000Y-107601465D01*
X125375000Y-107601465D02*
X125375000Y-110376465D01*
D10*
X127105000Y-108216465D02*
G75*
G03*
X127105000Y-108216465I-25000J0D01*
G01*
D12*
X128065000Y-123505000D02*
X125290000Y-123505000D01*
X125290000Y-123505000D02*
X125290000Y-120840000D01*
X125290000Y-120840000D02*
X128065000Y-120840000D01*
X128065000Y-120840000D02*
X128065000Y-123505000D01*
D10*
X127071466Y-109016465D02*
G75*
G03*
X127071466Y-109016465I-691466J0D01*
G01*
X127671466Y-121825000D02*
G75*
G03*
X127671466Y-121825000I-691466J0D01*
G01*
X125930000Y-121800000D02*
G75*
G03*
X125930000Y-121800000I-25000J0D01*
G01*
X127396466Y-122500000D02*
G75*
G03*
X127396466Y-122500000I-691466J0D01*
G01*
X127746466Y-109291465D02*
G75*
G03*
X127746466Y-109291465I-691466J0D01*
G01*
X127205000Y-121475000D02*
G75*
G03*
X127205000Y-121475000I-25000J0D01*
G01*
D13*
X120559285Y-108309285D02*
X120559285Y-107559285D01*
X120987857Y-108309285D02*
X120666428Y-107880714D01*
X120987857Y-107559285D02*
X120559285Y-107987857D01*
X121309285Y-108309285D02*
X121309285Y-107559285D01*
X121737857Y-108309285D01*
X121737857Y-107559285D01*
X122380714Y-108273571D02*
X122309285Y-108309285D01*
X122166428Y-108309285D01*
X122095000Y-108273571D01*
X122059285Y-108202142D01*
X122059285Y-107916428D01*
X122095000Y-107845000D01*
X122166428Y-107809285D01*
X122309285Y-107809285D01*
X122380714Y-107845000D01*
X122416428Y-107916428D01*
X122416428Y-107987857D01*
X122059285Y-108059285D01*
X122845000Y-108309285D02*
X122773571Y-108273571D01*
X122737857Y-108237857D01*
X122702142Y-108166428D01*
X122702142Y-107952142D01*
X122737857Y-107880714D01*
X122773571Y-107845000D01*
X122845000Y-107809285D01*
X122952142Y-107809285D01*
X123023571Y-107845000D01*
X123059285Y-107880714D01*
X123095000Y-107952142D01*
X123095000Y-108166428D01*
X123059285Y-108237857D01*
X123023571Y-108273571D01*
X122952142Y-108309285D01*
X122845000Y-108309285D01*
X123416428Y-108309285D02*
X123416428Y-107559285D01*
X123702142Y-107559285D01*
X123773571Y-107595000D01*
X123809285Y-107630714D01*
X123845000Y-107702142D01*
X123845000Y-107809285D01*
X123809285Y-107880714D01*
X123773571Y-107916428D01*
X123702142Y-107952142D01*
X123416428Y-107952142D01*
X124166428Y-108309285D02*
X124166428Y-107809285D01*
X124166428Y-107559285D02*
X124130714Y-107595000D01*
X124166428Y-107630714D01*
X124202142Y-107595000D01*
X124166428Y-107559285D01*
X124166428Y-107630714D01*
X124452142Y-107559285D02*
X124952142Y-108309285D01*
X124952142Y-107559285D02*
X124452142Y-108309285D01*
D14*
X120588095Y-108836190D02*
X120754761Y-109336190D01*
X120921428Y-108836190D01*
X121350000Y-109336190D02*
X121064285Y-109336190D01*
X121207142Y-109336190D02*
X121207142Y-108836190D01*
X121159523Y-108907619D01*
X121111904Y-108955238D01*
X121064285Y-108979047D01*
X121564285Y-109288571D02*
X121588095Y-109312380D01*
X121564285Y-109336190D01*
X121540476Y-109312380D01*
X121564285Y-109288571D01*
X121564285Y-109336190D01*
X121754761Y-108836190D02*
X122064285Y-108836190D01*
X121897619Y-109026666D01*
X121969047Y-109026666D01*
X122016666Y-109050476D01*
X122040476Y-109074285D01*
X122064285Y-109121904D01*
X122064285Y-109240952D01*
X122040476Y-109288571D01*
X122016666Y-109312380D01*
X121969047Y-109336190D01*
X121826190Y-109336190D01*
X121778571Y-109312380D01*
X121754761Y-109288571D01*
X120677142Y-109990750D02*
X120843809Y-109990750D01*
X120915238Y-110252655D02*
X120677142Y-110252655D01*
X120677142Y-109752655D01*
X120915238Y-109752655D01*
X121129523Y-110252655D02*
X121129523Y-109919322D01*
X121129523Y-110014560D02*
X121153333Y-109966941D01*
X121177142Y-109943131D01*
X121224761Y-109919322D01*
X121272380Y-109919322D01*
X121439047Y-110252655D02*
X121439047Y-109752655D01*
X121486666Y-110062179D02*
X121629523Y-110252655D01*
X121629523Y-109919322D02*
X121439047Y-110109798D01*
X122058095Y-110252655D02*
X122058095Y-109990750D01*
X122034285Y-109943131D01*
X121986666Y-109919322D01*
X121891428Y-109919322D01*
X121843809Y-109943131D01*
X122058095Y-110228845D02*
X122010476Y-110252655D01*
X121891428Y-110252655D01*
X121843809Y-110228845D01*
X121820000Y-110181226D01*
X121820000Y-110133607D01*
X121843809Y-110085988D01*
X121891428Y-110062179D01*
X122010476Y-110062179D01*
X122058095Y-110038369D01*
X122296190Y-109919322D02*
X122296190Y-110252655D01*
X122296190Y-109966941D02*
X122320000Y-109943131D01*
X122367619Y-109919322D01*
X122439047Y-109919322D01*
X122486666Y-109943131D01*
X122510476Y-109990750D01*
X122510476Y-110252655D01*
X123415238Y-110205036D02*
X123391428Y-110228845D01*
X123320000Y-110252655D01*
X123272380Y-110252655D01*
X123200952Y-110228845D01*
X123153333Y-110181226D01*
X123129523Y-110133607D01*
X123105714Y-110038369D01*
X123105714Y-109966941D01*
X123129523Y-109871703D01*
X123153333Y-109824084D01*
X123200952Y-109776465D01*
X123272380Y-109752655D01*
X123320000Y-109752655D01*
X123391428Y-109776465D01*
X123415238Y-109800274D01*
X123296190Y-110276465D02*
X123343809Y-110300274D01*
X123367619Y-110347893D01*
X123343809Y-110395512D01*
X123296190Y-110419322D01*
X123224761Y-110419322D01*
X123700952Y-110252655D02*
X123653333Y-110228845D01*
X123629523Y-110205036D01*
X123605714Y-110157417D01*
X123605714Y-110014560D01*
X123629523Y-109966941D01*
X123653333Y-109943131D01*
X123700952Y-109919322D01*
X123772380Y-109919322D01*
X123820000Y-109943131D01*
X123843809Y-109966941D01*
X123867619Y-110014560D01*
X123867619Y-110157417D01*
X123843809Y-110205036D01*
X123820000Y-110228845D01*
X123772380Y-110252655D01*
X123700952Y-110252655D01*
X124153333Y-110252655D02*
X124105714Y-110228845D01*
X124081904Y-110181226D01*
X124081904Y-109752655D01*
X124558095Y-110252655D02*
X124558095Y-109990750D01*
X124534285Y-109943131D01*
X124486666Y-109919322D01*
X124391428Y-109919322D01*
X124343809Y-109943131D01*
X124558095Y-110228845D02*
X124510476Y-110252655D01*
X124391428Y-110252655D01*
X124343809Y-110228845D01*
X124320000Y-110181226D01*
X124320000Y-110133607D01*
X124343809Y-110085988D01*
X124391428Y-110062179D01*
X124510476Y-110062179D01*
X124558095Y-110038369D01*
X124796190Y-110252655D02*
X124796190Y-109752655D01*
X124843809Y-110062179D02*
X124986666Y-110252655D01*
X124986666Y-109919322D02*
X124796190Y-110109798D01*
X122852857Y-108911703D02*
X122805238Y-108887893D01*
X122710000Y-108887893D01*
X122662380Y-108911703D01*
X122614761Y-108959322D01*
X122590952Y-109006941D01*
X122590952Y-109102179D01*
X122614761Y-109149798D01*
X122662380Y-109197417D01*
X122710000Y-109221226D01*
X122805238Y-109221226D01*
X122852857Y-109197417D01*
X122757619Y-108721226D02*
X122638571Y-108745036D01*
X122519523Y-108816465D01*
X122448095Y-108935512D01*
X122424285Y-109054560D01*
X122448095Y-109173607D01*
X122519523Y-109292655D01*
X122638571Y-109364084D01*
X122757619Y-109387893D01*
X122876666Y-109364084D01*
X122995714Y-109292655D01*
X123067142Y-109173607D01*
X123090952Y-109054560D01*
X123067142Y-108935512D01*
X122995714Y-108816465D01*
X122876666Y-108745036D01*
X122757619Y-108721226D01*
X123281428Y-108840274D02*
X123305238Y-108816465D01*
X123352857Y-108792655D01*
X123471904Y-108792655D01*
X123519523Y-108816465D01*
X123543333Y-108840274D01*
X123567142Y-108887893D01*
X123567142Y-108935512D01*
X123543333Y-109006941D01*
X123257619Y-109292655D01*
X123567142Y-109292655D01*
X123876666Y-108792655D02*
X123924285Y-108792655D01*
X123971904Y-108816465D01*
X123995714Y-108840274D01*
X124019523Y-108887893D01*
X124043333Y-108983131D01*
X124043333Y-109102179D01*
X124019523Y-109197417D01*
X123995714Y-109245036D01*
X123971904Y-109268845D01*
X123924285Y-109292655D01*
X123876666Y-109292655D01*
X123829047Y-109268845D01*
X123805238Y-109245036D01*
X123781428Y-109197417D01*
X123757619Y-109102179D01*
X123757619Y-108983131D01*
X123781428Y-108887893D01*
X123805238Y-108840274D01*
X123829047Y-108816465D01*
X123876666Y-108792655D01*
X124233809Y-108840274D02*
X124257619Y-108816465D01*
X124305238Y-108792655D01*
X124424285Y-108792655D01*
X124471904Y-108816465D01*
X124495714Y-108840274D01*
X124519523Y-108887893D01*
X124519523Y-108935512D01*
X124495714Y-109006941D01*
X124210000Y-109292655D01*
X124519523Y-109292655D01*
X124710000Y-108840274D02*
X124733809Y-108816465D01*
X124781428Y-108792655D01*
X124900476Y-108792655D01*
X124948095Y-108816465D01*
X124971904Y-108840274D01*
X124995714Y-108887893D01*
X124995714Y-108935512D01*
X124971904Y-109006941D01*
X124686190Y-109292655D01*
X124995714Y-109292655D01*
D12*
%TO.C,C2*%
X116856666Y-101488571D02*
X116832857Y-101512380D01*
X116761428Y-101536190D01*
X116713809Y-101536190D01*
X116642380Y-101512380D01*
X116594761Y-101464761D01*
X116570952Y-101417142D01*
X116547142Y-101321904D01*
X116547142Y-101250476D01*
X116570952Y-101155238D01*
X116594761Y-101107619D01*
X116642380Y-101060000D01*
X116713809Y-101036190D01*
X116761428Y-101036190D01*
X116832857Y-101060000D01*
X116856666Y-101083809D01*
X117047142Y-101083809D02*
X117070952Y-101060000D01*
X117118571Y-101036190D01*
X117237619Y-101036190D01*
X117285238Y-101060000D01*
X117309047Y-101083809D01*
X117332857Y-101131428D01*
X117332857Y-101179047D01*
X117309047Y-101250476D01*
X117023333Y-101536190D01*
X117332857Y-101536190D01*
D14*
%TO.C,U2*%
X131953047Y-119276190D02*
X131953047Y-119680952D01*
X131976857Y-119728571D01*
X132000666Y-119752380D01*
X132048285Y-119776190D01*
X132143523Y-119776190D01*
X132191142Y-119752380D01*
X132214952Y-119728571D01*
X132238761Y-119680952D01*
X132238761Y-119276190D01*
X132453047Y-119323809D02*
X132476857Y-119300000D01*
X132524476Y-119276190D01*
X132643523Y-119276190D01*
X132691142Y-119300000D01*
X132714952Y-119323809D01*
X132738761Y-119371428D01*
X132738761Y-119419047D01*
X132714952Y-119490476D01*
X132429238Y-119776190D01*
X132738761Y-119776190D01*
X129782142Y-118776190D02*
X129544047Y-118776190D01*
X129544047Y-118276190D01*
X129948809Y-118776190D02*
X129948809Y-118276190D01*
X130115476Y-118633333D01*
X130282142Y-118276190D01*
X130282142Y-118776190D01*
X130496428Y-118323809D02*
X130520238Y-118300000D01*
X130567857Y-118276190D01*
X130686904Y-118276190D01*
X130734523Y-118300000D01*
X130758333Y-118323809D01*
X130782142Y-118371428D01*
X130782142Y-118419047D01*
X130758333Y-118490476D01*
X130472619Y-118776190D01*
X130782142Y-118776190D01*
X131020238Y-118776190D02*
X131115476Y-118776190D01*
X131163095Y-118752380D01*
X131186904Y-118728571D01*
X131234523Y-118657142D01*
X131258333Y-118561904D01*
X131258333Y-118371428D01*
X131234523Y-118323809D01*
X131210714Y-118300000D01*
X131163095Y-118276190D01*
X131067857Y-118276190D01*
X131020238Y-118300000D01*
X130996428Y-118323809D01*
X130972619Y-118371428D01*
X130972619Y-118490476D01*
X130996428Y-118538095D01*
X131020238Y-118561904D01*
X131067857Y-118585714D01*
X131163095Y-118585714D01*
X131210714Y-118561904D01*
X131234523Y-118538095D01*
X131258333Y-118490476D01*
X131425000Y-118276190D02*
X131734523Y-118276190D01*
X131567857Y-118466666D01*
X131639285Y-118466666D01*
X131686904Y-118490476D01*
X131710714Y-118514285D01*
X131734523Y-118561904D01*
X131734523Y-118680952D01*
X131710714Y-118728571D01*
X131686904Y-118752380D01*
X131639285Y-118776190D01*
X131496428Y-118776190D01*
X131448809Y-118752380D01*
X131425000Y-118728571D01*
X131901190Y-118276190D02*
X132234523Y-118276190D01*
X132020238Y-118776190D01*
X132425000Y-118776190D02*
X132425000Y-118276190D01*
X132663095Y-118776190D02*
X132663095Y-118276190D01*
X132829761Y-118633333D01*
X132996428Y-118276190D01*
X132996428Y-118776190D01*
X133234523Y-118776190D02*
X133234523Y-118276190D01*
X133425000Y-118276190D01*
X133472619Y-118300000D01*
X133496428Y-118323809D01*
X133520238Y-118371428D01*
X133520238Y-118442857D01*
X133496428Y-118490476D01*
X133472619Y-118514285D01*
X133425000Y-118538095D01*
X133234523Y-118538095D01*
X133734523Y-118585714D02*
X134115476Y-118585714D01*
X134305952Y-118276190D02*
X134615476Y-118276190D01*
X134448809Y-118466666D01*
X134520238Y-118466666D01*
X134567857Y-118490476D01*
X134591666Y-118514285D01*
X134615476Y-118561904D01*
X134615476Y-118680952D01*
X134591666Y-118728571D01*
X134567857Y-118752380D01*
X134520238Y-118776190D01*
X134377380Y-118776190D01*
X134329761Y-118752380D01*
X134305952Y-118728571D01*
X134829761Y-118728571D02*
X134853571Y-118752380D01*
X134829761Y-118776190D01*
X134805952Y-118752380D01*
X134829761Y-118728571D01*
X134829761Y-118776190D01*
X135020238Y-118276190D02*
X135329761Y-118276190D01*
X135163095Y-118466666D01*
X135234523Y-118466666D01*
X135282142Y-118490476D01*
X135305952Y-118514285D01*
X135329761Y-118561904D01*
X135329761Y-118680952D01*
X135305952Y-118728571D01*
X135282142Y-118752380D01*
X135234523Y-118776190D01*
X135091666Y-118776190D01*
X135044047Y-118752380D01*
X135020238Y-118728571D01*
D12*
%TO.C,C1*%
X121666666Y-101498571D02*
X121642857Y-101522380D01*
X121571428Y-101546190D01*
X121523809Y-101546190D01*
X121452380Y-101522380D01*
X121404761Y-101474761D01*
X121380952Y-101427142D01*
X121357142Y-101331904D01*
X121357142Y-101260476D01*
X121380952Y-101165238D01*
X121404761Y-101117619D01*
X121452380Y-101070000D01*
X121523809Y-101046190D01*
X121571428Y-101046190D01*
X121642857Y-101070000D01*
X121666666Y-101093809D01*
X122142857Y-101546190D02*
X121857142Y-101546190D01*
X122000000Y-101546190D02*
X122000000Y-101046190D01*
X121952380Y-101117619D01*
X121904761Y-101165238D01*
X121857142Y-101189047D01*
D15*
%TO.C,R4*%
X124573095Y-116627666D02*
X124454047Y-116711000D01*
X124573095Y-116770523D02*
X124323095Y-116770523D01*
X124323095Y-116675285D01*
X124335000Y-116651476D01*
X124346904Y-116639571D01*
X124370714Y-116627666D01*
X124406428Y-116627666D01*
X124430238Y-116639571D01*
X124442142Y-116651476D01*
X124454047Y-116675285D01*
X124454047Y-116770523D01*
X124406428Y-116413380D02*
X124573095Y-116413380D01*
X124311190Y-116472904D02*
X124489761Y-116532428D01*
X124489761Y-116377666D01*
%TO.C,R3*%
X127263095Y-116627666D02*
X127144047Y-116711000D01*
X127263095Y-116770523D02*
X127013095Y-116770523D01*
X127013095Y-116675285D01*
X127025000Y-116651476D01*
X127036904Y-116639571D01*
X127060714Y-116627666D01*
X127096428Y-116627666D01*
X127120238Y-116639571D01*
X127132142Y-116651476D01*
X127144047Y-116675285D01*
X127144047Y-116770523D01*
X127013095Y-116544333D02*
X127013095Y-116389571D01*
X127108333Y-116472904D01*
X127108333Y-116437190D01*
X127120238Y-116413380D01*
X127132142Y-116401476D01*
X127155952Y-116389571D01*
X127215476Y-116389571D01*
X127239285Y-116401476D01*
X127251190Y-116413380D01*
X127263095Y-116437190D01*
X127263095Y-116508619D01*
X127251190Y-116532428D01*
X127239285Y-116544333D01*
D14*
%TO.C,C4*%
X133046666Y-112748571D02*
X133022857Y-112772380D01*
X132951428Y-112796190D01*
X132903809Y-112796190D01*
X132832380Y-112772380D01*
X132784761Y-112724761D01*
X132760952Y-112677142D01*
X132737142Y-112581904D01*
X132737142Y-112510476D01*
X132760952Y-112415238D01*
X132784761Y-112367619D01*
X132832380Y-112320000D01*
X132903809Y-112296190D01*
X132951428Y-112296190D01*
X133022857Y-112320000D01*
X133046666Y-112343809D01*
X133475238Y-112462857D02*
X133475238Y-112796190D01*
X133356190Y-112272380D02*
X133237142Y-112629523D01*
X133546666Y-112629523D01*
%TO.C,JP4*%
X135746190Y-105226666D02*
X136103333Y-105226666D01*
X136174761Y-105250476D01*
X136222380Y-105298095D01*
X136246190Y-105369523D01*
X136246190Y-105417142D01*
X136246190Y-104988571D02*
X135746190Y-104988571D01*
X135746190Y-104798095D01*
X135770000Y-104750476D01*
X135793809Y-104726666D01*
X135841428Y-104702857D01*
X135912857Y-104702857D01*
X135960476Y-104726666D01*
X135984285Y-104750476D01*
X136008095Y-104798095D01*
X136008095Y-104988571D01*
X135912857Y-104274285D02*
X136246190Y-104274285D01*
X135722380Y-104393333D02*
X136079523Y-104512380D01*
X136079523Y-104202857D01*
%TO.C,C3*%
X130456666Y-112738571D02*
X130432857Y-112762380D01*
X130361428Y-112786190D01*
X130313809Y-112786190D01*
X130242380Y-112762380D01*
X130194761Y-112714761D01*
X130170952Y-112667142D01*
X130147142Y-112571904D01*
X130147142Y-112500476D01*
X130170952Y-112405238D01*
X130194761Y-112357619D01*
X130242380Y-112310000D01*
X130313809Y-112286190D01*
X130361428Y-112286190D01*
X130432857Y-112310000D01*
X130456666Y-112333809D01*
X130623333Y-112286190D02*
X130932857Y-112286190D01*
X130766190Y-112476666D01*
X130837619Y-112476666D01*
X130885238Y-112500476D01*
X130909047Y-112524285D01*
X130932857Y-112571904D01*
X130932857Y-112690952D01*
X130909047Y-112738571D01*
X130885238Y-112762380D01*
X130837619Y-112786190D01*
X130694761Y-112786190D01*
X130647142Y-112762380D01*
X130623333Y-112738571D01*
D12*
%TO.C,C6*%
X124076666Y-101498571D02*
X124052857Y-101522380D01*
X123981428Y-101546190D01*
X123933809Y-101546190D01*
X123862380Y-101522380D01*
X123814761Y-101474761D01*
X123790952Y-101427142D01*
X123767142Y-101331904D01*
X123767142Y-101260476D01*
X123790952Y-101165238D01*
X123814761Y-101117619D01*
X123862380Y-101070000D01*
X123933809Y-101046190D01*
X123981428Y-101046190D01*
X124052857Y-101070000D01*
X124076666Y-101093809D01*
X124505238Y-101046190D02*
X124410000Y-101046190D01*
X124362380Y-101070000D01*
X124338571Y-101093809D01*
X124290952Y-101165238D01*
X124267142Y-101260476D01*
X124267142Y-101450952D01*
X124290952Y-101498571D01*
X124314761Y-101522380D01*
X124362380Y-101546190D01*
X124457619Y-101546190D01*
X124505238Y-101522380D01*
X124529047Y-101498571D01*
X124552857Y-101450952D01*
X124552857Y-101331904D01*
X124529047Y-101284285D01*
X124505238Y-101260476D01*
X124457619Y-101236666D01*
X124362380Y-101236666D01*
X124314761Y-101260476D01*
X124290952Y-101284285D01*
X124267142Y-101331904D01*
D14*
%TO.C,C7*%
X130286666Y-107628571D02*
X130262857Y-107652380D01*
X130191428Y-107676190D01*
X130143809Y-107676190D01*
X130072380Y-107652380D01*
X130024761Y-107604761D01*
X130000952Y-107557142D01*
X129977142Y-107461904D01*
X129977142Y-107390476D01*
X130000952Y-107295238D01*
X130024761Y-107247619D01*
X130072380Y-107200000D01*
X130143809Y-107176190D01*
X130191428Y-107176190D01*
X130262857Y-107200000D01*
X130286666Y-107223809D01*
X130453333Y-107176190D02*
X130786666Y-107176190D01*
X130572380Y-107676190D01*
D15*
%TO.C,R1*%
X117408333Y-117293095D02*
X117325000Y-117174047D01*
X117265476Y-117293095D02*
X117265476Y-117043095D01*
X117360714Y-117043095D01*
X117384523Y-117055000D01*
X117396428Y-117066904D01*
X117408333Y-117090714D01*
X117408333Y-117126428D01*
X117396428Y-117150238D01*
X117384523Y-117162142D01*
X117360714Y-117174047D01*
X117265476Y-117174047D01*
X117646428Y-117293095D02*
X117503571Y-117293095D01*
X117575000Y-117293095D02*
X117575000Y-117043095D01*
X117551190Y-117078809D01*
X117527380Y-117102619D01*
X117503571Y-117114523D01*
D14*
%TO.C,J4*%
X130823333Y-129101190D02*
X130823333Y-129458333D01*
X130799523Y-129529761D01*
X130751904Y-129577380D01*
X130680476Y-129601190D01*
X130632857Y-129601190D01*
X131275714Y-129267857D02*
X131275714Y-129601190D01*
X131156666Y-129077380D02*
X131037619Y-129434523D01*
X131347142Y-129434523D01*
X129355952Y-126176190D02*
X129355952Y-125676190D01*
X129475000Y-125676190D01*
X129546428Y-125700000D01*
X129594047Y-125747619D01*
X129617857Y-125795238D01*
X129641666Y-125890476D01*
X129641666Y-125961904D01*
X129617857Y-126057142D01*
X129594047Y-126104761D01*
X129546428Y-126152380D01*
X129475000Y-126176190D01*
X129355952Y-126176190D01*
X130070238Y-125842857D02*
X130070238Y-126176190D01*
X129951190Y-125652380D02*
X129832142Y-126009523D01*
X130141666Y-126009523D01*
X133442857Y-125676190D02*
X133609523Y-126176190D01*
X133776190Y-125676190D01*
X134228571Y-126128571D02*
X134204761Y-126152380D01*
X134133333Y-126176190D01*
X134085714Y-126176190D01*
X134014285Y-126152380D01*
X133966666Y-126104761D01*
X133942857Y-126057142D01*
X133919047Y-125961904D01*
X133919047Y-125890476D01*
X133942857Y-125795238D01*
X133966666Y-125747619D01*
X134014285Y-125700000D01*
X134085714Y-125676190D01*
X134133333Y-125676190D01*
X134204761Y-125700000D01*
X134228571Y-125723809D01*
X134728571Y-126128571D02*
X134704761Y-126152380D01*
X134633333Y-126176190D01*
X134585714Y-126176190D01*
X134514285Y-126152380D01*
X134466666Y-126104761D01*
X134442857Y-126057142D01*
X134419047Y-125961904D01*
X134419047Y-125890476D01*
X134442857Y-125795238D01*
X134466666Y-125747619D01*
X134514285Y-125700000D01*
X134585714Y-125676190D01*
X134633333Y-125676190D01*
X134704761Y-125700000D01*
X134728571Y-125723809D01*
X134942857Y-125985714D02*
X135323809Y-125985714D01*
X135561904Y-126176190D02*
X135561904Y-125676190D01*
X135800000Y-126176190D02*
X135800000Y-125676190D01*
X136085714Y-126176190D01*
X136085714Y-125676190D01*
X126784047Y-125700000D02*
X126736428Y-125676190D01*
X126665000Y-125676190D01*
X126593571Y-125700000D01*
X126545952Y-125747619D01*
X126522142Y-125795238D01*
X126498333Y-125890476D01*
X126498333Y-125961904D01*
X126522142Y-126057142D01*
X126545952Y-126104761D01*
X126593571Y-126152380D01*
X126665000Y-126176190D01*
X126712619Y-126176190D01*
X126784047Y-126152380D01*
X126807857Y-126128571D01*
X126807857Y-125961904D01*
X126712619Y-125961904D01*
X127022142Y-126176190D02*
X127022142Y-125676190D01*
X127307857Y-126176190D01*
X127307857Y-125676190D01*
X127545952Y-126176190D02*
X127545952Y-125676190D01*
X127665000Y-125676190D01*
X127736428Y-125700000D01*
X127784047Y-125747619D01*
X127807857Y-125795238D01*
X127831666Y-125890476D01*
X127831666Y-125961904D01*
X127807857Y-126057142D01*
X127784047Y-126104761D01*
X127736428Y-126152380D01*
X127665000Y-126176190D01*
X127545952Y-126176190D01*
X131855952Y-126176190D02*
X131855952Y-125676190D01*
X131975000Y-125676190D01*
X132046428Y-125700000D01*
X132094047Y-125747619D01*
X132117857Y-125795238D01*
X132141666Y-125890476D01*
X132141666Y-125961904D01*
X132117857Y-126057142D01*
X132094047Y-126104761D01*
X132046428Y-126152380D01*
X131975000Y-126176190D01*
X131855952Y-126176190D01*
X132594047Y-125676190D02*
X132355952Y-125676190D01*
X132332142Y-125914285D01*
X132355952Y-125890476D01*
X132403571Y-125866666D01*
X132522619Y-125866666D01*
X132570238Y-125890476D01*
X132594047Y-125914285D01*
X132617857Y-125961904D01*
X132617857Y-126080952D01*
X132594047Y-126128571D01*
X132570238Y-126152380D01*
X132522619Y-126176190D01*
X132403571Y-126176190D01*
X132355952Y-126152380D01*
X132332142Y-126128571D01*
%TO.C,J3*%
X123908333Y-95730190D02*
X123908333Y-96087333D01*
X123884523Y-96158761D01*
X123836904Y-96206380D01*
X123765476Y-96230190D01*
X123717857Y-96230190D01*
X124098809Y-95730190D02*
X124408333Y-95730190D01*
X124241666Y-95920666D01*
X124313095Y-95920666D01*
X124360714Y-95944476D01*
X124384523Y-95968285D01*
X124408333Y-96015904D01*
X124408333Y-96134952D01*
X124384523Y-96182571D01*
X124360714Y-96206380D01*
X124313095Y-96230190D01*
X124170238Y-96230190D01*
X124122619Y-96206380D01*
X124098809Y-96182571D01*
X113352857Y-99580190D02*
X113352857Y-99080190D01*
X113471904Y-99080190D01*
X113543333Y-99104000D01*
X113590952Y-99151619D01*
X113614761Y-99199238D01*
X113638571Y-99294476D01*
X113638571Y-99365904D01*
X113614761Y-99461142D01*
X113590952Y-99508761D01*
X113543333Y-99556380D01*
X113471904Y-99580190D01*
X113352857Y-99580190D01*
X114114761Y-99580190D02*
X113829047Y-99580190D01*
X113971904Y-99580190D02*
X113971904Y-99080190D01*
X113924285Y-99151619D01*
X113876666Y-99199238D01*
X113829047Y-99223047D01*
X114424285Y-99080190D02*
X114471904Y-99080190D01*
X114519523Y-99104000D01*
X114543333Y-99127809D01*
X114567142Y-99175428D01*
X114590952Y-99270666D01*
X114590952Y-99389714D01*
X114567142Y-99484952D01*
X114543333Y-99532571D01*
X114519523Y-99556380D01*
X114471904Y-99580190D01*
X114424285Y-99580190D01*
X114376666Y-99556380D01*
X114352857Y-99532571D01*
X114329047Y-99484952D01*
X114305238Y-99389714D01*
X114305238Y-99270666D01*
X114329047Y-99175428D01*
X114352857Y-99127809D01*
X114376666Y-99104000D01*
X114424285Y-99080190D01*
X126300952Y-99580190D02*
X126300952Y-99080190D01*
X126420000Y-99080190D01*
X126491428Y-99104000D01*
X126539047Y-99151619D01*
X126562857Y-99199238D01*
X126586666Y-99294476D01*
X126586666Y-99365904D01*
X126562857Y-99461142D01*
X126539047Y-99508761D01*
X126491428Y-99556380D01*
X126420000Y-99580190D01*
X126300952Y-99580190D01*
X127062857Y-99580190D02*
X126777142Y-99580190D01*
X126920000Y-99580190D02*
X126920000Y-99080190D01*
X126872380Y-99151619D01*
X126824761Y-99199238D01*
X126777142Y-99223047D01*
X129079761Y-99080190D02*
X128841666Y-99080190D01*
X128817857Y-99318285D01*
X128841666Y-99294476D01*
X128889285Y-99270666D01*
X129008333Y-99270666D01*
X129055952Y-99294476D01*
X129079761Y-99318285D01*
X129103571Y-99365904D01*
X129103571Y-99484952D01*
X129079761Y-99532571D01*
X129055952Y-99556380D01*
X129008333Y-99580190D01*
X128889285Y-99580190D01*
X128841666Y-99556380D01*
X128817857Y-99532571D01*
X129246428Y-99080190D02*
X129413095Y-99580190D01*
X129579761Y-99080190D01*
X133919047Y-99104000D02*
X133871428Y-99080190D01*
X133800000Y-99080190D01*
X133728571Y-99104000D01*
X133680952Y-99151619D01*
X133657142Y-99199238D01*
X133633333Y-99294476D01*
X133633333Y-99365904D01*
X133657142Y-99461142D01*
X133680952Y-99508761D01*
X133728571Y-99556380D01*
X133800000Y-99580190D01*
X133847619Y-99580190D01*
X133919047Y-99556380D01*
X133942857Y-99532571D01*
X133942857Y-99365904D01*
X133847619Y-99365904D01*
X134157142Y-99580190D02*
X134157142Y-99080190D01*
X134442857Y-99580190D01*
X134442857Y-99080190D01*
X134680952Y-99580190D02*
X134680952Y-99080190D01*
X134800000Y-99080190D01*
X134871428Y-99104000D01*
X134919047Y-99151619D01*
X134942857Y-99199238D01*
X134966666Y-99294476D01*
X134966666Y-99365904D01*
X134942857Y-99461142D01*
X134919047Y-99508761D01*
X134871428Y-99556380D01*
X134800000Y-99580190D01*
X134680952Y-99580190D01*
X118690952Y-99580190D02*
X118690952Y-99080190D01*
X118810000Y-99080190D01*
X118881428Y-99104000D01*
X118929047Y-99151619D01*
X118952857Y-99199238D01*
X118976666Y-99294476D01*
X118976666Y-99365904D01*
X118952857Y-99461142D01*
X118929047Y-99508761D01*
X118881428Y-99556380D01*
X118810000Y-99580190D01*
X118690952Y-99580190D01*
X119262380Y-99294476D02*
X119214761Y-99270666D01*
X119190952Y-99246857D01*
X119167142Y-99199238D01*
X119167142Y-99175428D01*
X119190952Y-99127809D01*
X119214761Y-99104000D01*
X119262380Y-99080190D01*
X119357619Y-99080190D01*
X119405238Y-99104000D01*
X119429047Y-99127809D01*
X119452857Y-99175428D01*
X119452857Y-99199238D01*
X119429047Y-99246857D01*
X119405238Y-99270666D01*
X119357619Y-99294476D01*
X119262380Y-99294476D01*
X119214761Y-99318285D01*
X119190952Y-99342095D01*
X119167142Y-99389714D01*
X119167142Y-99484952D01*
X119190952Y-99532571D01*
X119214761Y-99556380D01*
X119262380Y-99580190D01*
X119357619Y-99580190D01*
X119405238Y-99556380D01*
X119429047Y-99532571D01*
X119452857Y-99484952D01*
X119452857Y-99389714D01*
X119429047Y-99342095D01*
X119405238Y-99318285D01*
X119357619Y-99294476D01*
X131130952Y-99080190D02*
X131440476Y-99080190D01*
X131273809Y-99270666D01*
X131345238Y-99270666D01*
X131392857Y-99294476D01*
X131416666Y-99318285D01*
X131440476Y-99365904D01*
X131440476Y-99484952D01*
X131416666Y-99532571D01*
X131392857Y-99556380D01*
X131345238Y-99580190D01*
X131202380Y-99580190D01*
X131154761Y-99556380D01*
X131130952Y-99532571D01*
X131583333Y-99080190D02*
X131750000Y-99580190D01*
X131916666Y-99080190D01*
X132035714Y-99080190D02*
X132345238Y-99080190D01*
X132178571Y-99270666D01*
X132250000Y-99270666D01*
X132297619Y-99294476D01*
X132321428Y-99318285D01*
X132345238Y-99365904D01*
X132345238Y-99484952D01*
X132321428Y-99532571D01*
X132297619Y-99556380D01*
X132250000Y-99580190D01*
X132107142Y-99580190D01*
X132059523Y-99556380D01*
X132035714Y-99532571D01*
X123755952Y-99555190D02*
X123755952Y-99055190D01*
X123875000Y-99055190D01*
X123946428Y-99079000D01*
X123994047Y-99126619D01*
X124017857Y-99174238D01*
X124041666Y-99269476D01*
X124041666Y-99340904D01*
X124017857Y-99436142D01*
X123994047Y-99483761D01*
X123946428Y-99531380D01*
X123875000Y-99555190D01*
X123755952Y-99555190D01*
X124232142Y-99102809D02*
X124255952Y-99079000D01*
X124303571Y-99055190D01*
X124422619Y-99055190D01*
X124470238Y-99079000D01*
X124494047Y-99102809D01*
X124517857Y-99150428D01*
X124517857Y-99198047D01*
X124494047Y-99269476D01*
X124208333Y-99555190D01*
X124517857Y-99555190D01*
X121230952Y-99580190D02*
X121230952Y-99080190D01*
X121350000Y-99080190D01*
X121421428Y-99104000D01*
X121469047Y-99151619D01*
X121492857Y-99199238D01*
X121516666Y-99294476D01*
X121516666Y-99365904D01*
X121492857Y-99461142D01*
X121469047Y-99508761D01*
X121421428Y-99556380D01*
X121350000Y-99580190D01*
X121230952Y-99580190D01*
X121683333Y-99080190D02*
X121992857Y-99080190D01*
X121826190Y-99270666D01*
X121897619Y-99270666D01*
X121945238Y-99294476D01*
X121969047Y-99318285D01*
X121992857Y-99365904D01*
X121992857Y-99484952D01*
X121969047Y-99532571D01*
X121945238Y-99556380D01*
X121897619Y-99580190D01*
X121754761Y-99580190D01*
X121707142Y-99556380D01*
X121683333Y-99532571D01*
X116110952Y-99610190D02*
X116110952Y-99110190D01*
X116230000Y-99110190D01*
X116301428Y-99134000D01*
X116349047Y-99181619D01*
X116372857Y-99229238D01*
X116396666Y-99324476D01*
X116396666Y-99395904D01*
X116372857Y-99491142D01*
X116349047Y-99538761D01*
X116301428Y-99586380D01*
X116230000Y-99610190D01*
X116110952Y-99610190D01*
X116634761Y-99610190D02*
X116730000Y-99610190D01*
X116777619Y-99586380D01*
X116801428Y-99562571D01*
X116849047Y-99491142D01*
X116872857Y-99395904D01*
X116872857Y-99205428D01*
X116849047Y-99157809D01*
X116825238Y-99134000D01*
X116777619Y-99110190D01*
X116682380Y-99110190D01*
X116634761Y-99134000D01*
X116610952Y-99157809D01*
X116587142Y-99205428D01*
X116587142Y-99324476D01*
X116610952Y-99372095D01*
X116634761Y-99395904D01*
X116682380Y-99419714D01*
X116777619Y-99419714D01*
X116825238Y-99395904D01*
X116849047Y-99372095D01*
X116872857Y-99324476D01*
D15*
%TO.C,R2*%
X119827333Y-117293095D02*
X119744000Y-117174047D01*
X119684476Y-117293095D02*
X119684476Y-117043095D01*
X119779714Y-117043095D01*
X119803523Y-117055000D01*
X119815428Y-117066904D01*
X119827333Y-117090714D01*
X119827333Y-117126428D01*
X119815428Y-117150238D01*
X119803523Y-117162142D01*
X119779714Y-117174047D01*
X119684476Y-117174047D01*
X119922571Y-117066904D02*
X119934476Y-117055000D01*
X119958285Y-117043095D01*
X120017809Y-117043095D01*
X120041619Y-117055000D01*
X120053523Y-117066904D01*
X120065428Y-117090714D01*
X120065428Y-117114523D01*
X120053523Y-117150238D01*
X119910666Y-117293095D01*
X120065428Y-117293095D01*
D14*
%TO.C,GN1*%
X114803571Y-113860714D02*
X114839285Y-113753571D01*
X114839285Y-113575000D01*
X114803571Y-113503571D01*
X114767857Y-113467857D01*
X114696428Y-113432142D01*
X114625000Y-113432142D01*
X114553571Y-113467857D01*
X114517857Y-113503571D01*
X114482142Y-113575000D01*
X114446428Y-113717857D01*
X114410714Y-113789285D01*
X114375000Y-113825000D01*
X114303571Y-113860714D01*
X114232142Y-113860714D01*
X114160714Y-113825000D01*
X114125000Y-113789285D01*
X114089285Y-113717857D01*
X114089285Y-113539285D01*
X114125000Y-113432142D01*
X114839285Y-112789285D02*
X114446428Y-112789285D01*
X114375000Y-112825000D01*
X114339285Y-112896428D01*
X114339285Y-113039285D01*
X114375000Y-113110714D01*
X114803571Y-112789285D02*
X114839285Y-112860714D01*
X114839285Y-113039285D01*
X114803571Y-113110714D01*
X114732142Y-113146428D01*
X114660714Y-113146428D01*
X114589285Y-113110714D01*
X114553571Y-113039285D01*
X114553571Y-112860714D01*
X114517857Y-112789285D01*
X114339285Y-112503571D02*
X114839285Y-112325000D01*
X114339285Y-112146428D01*
X114803571Y-111575000D02*
X114839285Y-111646428D01*
X114839285Y-111789285D01*
X114803571Y-111860714D01*
X114732142Y-111896428D01*
X114446428Y-111896428D01*
X114375000Y-111860714D01*
X114339285Y-111789285D01*
X114339285Y-111646428D01*
X114375000Y-111575000D01*
X114446428Y-111539285D01*
X114517857Y-111539285D01*
X114589285Y-111896428D01*
X114839285Y-118726428D02*
X114089285Y-118726428D01*
X114839285Y-118297857D02*
X114410714Y-118619285D01*
X114089285Y-118297857D02*
X114517857Y-118726428D01*
X114839285Y-117976428D02*
X114089285Y-117976428D01*
X114839285Y-117547857D01*
X114089285Y-117547857D01*
X114089285Y-117262142D02*
X114839285Y-116762142D01*
X114089285Y-116762142D02*
X114839285Y-117262142D01*
X114089285Y-108137857D02*
X114089285Y-107709285D01*
X114839285Y-107923571D02*
X114089285Y-107923571D01*
X114839285Y-107530714D02*
X114339285Y-107137857D01*
X114339285Y-107530714D02*
X114839285Y-107137857D01*
X114089285Y-106008571D02*
X114089285Y-105544285D01*
X114375000Y-105794285D01*
X114375000Y-105687142D01*
X114410714Y-105615714D01*
X114446428Y-105580000D01*
X114517857Y-105544285D01*
X114696428Y-105544285D01*
X114767857Y-105580000D01*
X114803571Y-105615714D01*
X114839285Y-105687142D01*
X114839285Y-105901428D01*
X114803571Y-105972857D01*
X114767857Y-106008571D01*
X114089285Y-105330000D02*
X114839285Y-105080000D01*
X114089285Y-104830000D01*
X114089285Y-104651428D02*
X114089285Y-104187142D01*
X114375000Y-104437142D01*
X114375000Y-104330000D01*
X114410714Y-104258571D01*
X114446428Y-104222857D01*
X114517857Y-104187142D01*
X114696428Y-104187142D01*
X114767857Y-104222857D01*
X114803571Y-104258571D01*
X114839285Y-104330000D01*
X114839285Y-104544285D01*
X114803571Y-104615714D01*
X114767857Y-104651428D01*
D16*
X117618571Y-115030000D02*
X116118571Y-115030000D01*
X117618571Y-114172857D01*
X116118571Y-114172857D01*
X117618571Y-112815714D02*
X116832857Y-112815714D01*
X116690000Y-112887142D01*
X116618571Y-113030000D01*
X116618571Y-113315714D01*
X116690000Y-113458571D01*
X117547142Y-112815714D02*
X117618571Y-112958571D01*
X117618571Y-113315714D01*
X117547142Y-113458571D01*
X117404285Y-113530000D01*
X117261428Y-113530000D01*
X117118571Y-113458571D01*
X117047142Y-113315714D01*
X117047142Y-112958571D01*
X116975714Y-112815714D01*
X116618571Y-112101428D02*
X117618571Y-112101428D01*
X116761428Y-112101428D02*
X116690000Y-112030000D01*
X116618571Y-111887142D01*
X116618571Y-111672857D01*
X116690000Y-111530000D01*
X116832857Y-111458571D01*
X117618571Y-111458571D01*
X117618571Y-110530000D02*
X117547142Y-110672857D01*
X117475714Y-110744285D01*
X117332857Y-110815714D01*
X116904285Y-110815714D01*
X116761428Y-110744285D01*
X116690000Y-110672857D01*
X116618571Y-110530000D01*
X116618571Y-110315714D01*
X116690000Y-110172857D01*
X116761428Y-110101428D01*
X116904285Y-110030000D01*
X117332857Y-110030000D01*
X117475714Y-110101428D01*
X117547142Y-110172857D01*
X117618571Y-110315714D01*
X117618571Y-110530000D01*
X116832857Y-108887142D02*
X116904285Y-108672857D01*
X116975714Y-108601428D01*
X117118571Y-108530000D01*
X117332857Y-108530000D01*
X117475714Y-108601428D01*
X117547142Y-108672857D01*
X117618571Y-108815714D01*
X117618571Y-109387142D01*
X116118571Y-109387142D01*
X116118571Y-108887142D01*
X116190000Y-108744285D01*
X116261428Y-108672857D01*
X116404285Y-108601428D01*
X116547142Y-108601428D01*
X116690000Y-108672857D01*
X116761428Y-108744285D01*
X116832857Y-108887142D01*
X116832857Y-109387142D01*
X117475714Y-107030000D02*
X117547142Y-107101428D01*
X117618571Y-107315714D01*
X117618571Y-107458571D01*
X117547142Y-107672857D01*
X117404285Y-107815714D01*
X117261428Y-107887142D01*
X116975714Y-107958571D01*
X116761428Y-107958571D01*
X116475714Y-107887142D01*
X116332857Y-107815714D01*
X116190000Y-107672857D01*
X116118571Y-107458571D01*
X116118571Y-107315714D01*
X116190000Y-107101428D01*
X116261428Y-107030000D01*
X116118571Y-106387142D02*
X117332857Y-106387142D01*
X117475714Y-106315714D01*
X117547142Y-106244285D01*
X117618571Y-106101428D01*
X117618571Y-105815714D01*
X117547142Y-105672857D01*
X117475714Y-105601428D01*
X117332857Y-105530000D01*
X116118571Y-105530000D01*
D14*
X115056190Y-103373333D02*
X115556190Y-103206666D01*
X115056190Y-103040000D01*
X115532380Y-102659047D02*
X115556190Y-102706666D01*
X115556190Y-102801904D01*
X115532380Y-102849523D01*
X115508571Y-102873333D01*
X115460952Y-102897142D01*
X115318095Y-102897142D01*
X115270476Y-102873333D01*
X115246666Y-102849523D01*
X115222857Y-102801904D01*
X115222857Y-102706666D01*
X115246666Y-102659047D01*
X115532380Y-102230476D02*
X115556190Y-102278095D01*
X115556190Y-102373333D01*
X115532380Y-102420952D01*
X115508571Y-102444761D01*
X115460952Y-102468571D01*
X115318095Y-102468571D01*
X115270476Y-102444761D01*
X115246666Y-102420952D01*
X115222857Y-102373333D01*
X115222857Y-102278095D01*
X115246666Y-102230476D01*
X115103809Y-102040000D02*
X115080000Y-102016190D01*
X115056190Y-101968571D01*
X115056190Y-101849523D01*
X115080000Y-101801904D01*
X115103809Y-101778095D01*
X115151428Y-101754285D01*
X115199047Y-101754285D01*
X115270476Y-101778095D01*
X115556190Y-102063809D01*
X115556190Y-101754285D01*
X114125000Y-115851428D02*
X114089285Y-115922857D01*
X114089285Y-116030000D01*
X114125000Y-116137142D01*
X114196428Y-116208571D01*
X114267857Y-116244285D01*
X114410714Y-116280000D01*
X114517857Y-116280000D01*
X114660714Y-116244285D01*
X114732142Y-116208571D01*
X114803571Y-116137142D01*
X114839285Y-116030000D01*
X114839285Y-115958571D01*
X114803571Y-115851428D01*
X114767857Y-115815714D01*
X114517857Y-115815714D01*
X114517857Y-115958571D01*
X114839285Y-115494285D02*
X114089285Y-115494285D01*
X114839285Y-115065714D01*
X114089285Y-115065714D01*
X114839285Y-114708571D02*
X114089285Y-114708571D01*
X114089285Y-114530000D01*
X114125000Y-114422857D01*
X114196428Y-114351428D01*
X114267857Y-114315714D01*
X114410714Y-114280000D01*
X114517857Y-114280000D01*
X114660714Y-114315714D01*
X114732142Y-114351428D01*
X114803571Y-114422857D01*
X114839285Y-114530000D01*
X114839285Y-114708571D01*
X114839285Y-110231428D02*
X114482142Y-110481428D01*
X114839285Y-110660000D02*
X114089285Y-110660000D01*
X114089285Y-110374285D01*
X114125000Y-110302857D01*
X114160714Y-110267142D01*
X114232142Y-110231428D01*
X114339285Y-110231428D01*
X114410714Y-110267142D01*
X114446428Y-110302857D01*
X114482142Y-110374285D01*
X114482142Y-110660000D01*
X114839285Y-109981428D02*
X114339285Y-109588571D01*
X114339285Y-109981428D02*
X114839285Y-109588571D01*
X114089285Y-102682857D02*
X114089285Y-103040000D01*
X114446428Y-103075714D01*
X114410714Y-103040000D01*
X114375000Y-102968571D01*
X114375000Y-102790000D01*
X114410714Y-102718571D01*
X114446428Y-102682857D01*
X114517857Y-102647142D01*
X114696428Y-102647142D01*
X114767857Y-102682857D01*
X114803571Y-102718571D01*
X114839285Y-102790000D01*
X114839285Y-102968571D01*
X114803571Y-103040000D01*
X114767857Y-103075714D01*
X114089285Y-102432857D02*
X114839285Y-102182857D01*
X114089285Y-101932857D01*
D12*
%TO.C,U3*%
X120269047Y-115550190D02*
X120269047Y-115954952D01*
X120292857Y-116002571D01*
X120316666Y-116026380D01*
X120364285Y-116050190D01*
X120459523Y-116050190D01*
X120507142Y-116026380D01*
X120530952Y-116002571D01*
X120554761Y-115954952D01*
X120554761Y-115550190D01*
X120745238Y-115550190D02*
X121054761Y-115550190D01*
X120888095Y-115740666D01*
X120959523Y-115740666D01*
X121007142Y-115764476D01*
X121030952Y-115788285D01*
X121054761Y-115835904D01*
X121054761Y-115954952D01*
X121030952Y-116002571D01*
X121007142Y-116026380D01*
X120959523Y-116050190D01*
X120816666Y-116050190D01*
X120769047Y-116026380D01*
X120745238Y-116002571D01*
D14*
X121566666Y-114502380D02*
X121566666Y-114740476D01*
X121423809Y-114454761D02*
X121923809Y-114621428D01*
X121423809Y-114788095D01*
X121423809Y-114954761D02*
X121923809Y-114954761D01*
X121923809Y-115073809D01*
X121900000Y-115145238D01*
X121852380Y-115192857D01*
X121804761Y-115216666D01*
X121709523Y-115240476D01*
X121638095Y-115240476D01*
X121542857Y-115216666D01*
X121495238Y-115192857D01*
X121447619Y-115145238D01*
X121423809Y-115073809D01*
X121423809Y-114954761D01*
X121757142Y-115669047D02*
X121423809Y-115669047D01*
X121757142Y-115454761D02*
X121495238Y-115454761D01*
X121447619Y-115478571D01*
X121423809Y-115526190D01*
X121423809Y-115597619D01*
X121447619Y-115645238D01*
X121471428Y-115669047D01*
X121423809Y-115907142D02*
X121923809Y-115907142D01*
X121566666Y-116073809D01*
X121923809Y-116240476D01*
X121423809Y-116240476D01*
X121423809Y-116740476D02*
X121423809Y-116454761D01*
X121423809Y-116597619D02*
X121923809Y-116597619D01*
X121852380Y-116550000D01*
X121804761Y-116502380D01*
X121780952Y-116454761D01*
X121876190Y-116930952D02*
X121900000Y-116954761D01*
X121923809Y-117002380D01*
X121923809Y-117121428D01*
X121900000Y-117169047D01*
X121876190Y-117192857D01*
X121828571Y-117216666D01*
X121780952Y-117216666D01*
X121709523Y-117192857D01*
X121423809Y-116907142D01*
X121423809Y-117216666D01*
X121923809Y-117526190D02*
X121923809Y-117573809D01*
X121900000Y-117621428D01*
X121876190Y-117645238D01*
X121828571Y-117669047D01*
X121733333Y-117692857D01*
X121614285Y-117692857D01*
X121519047Y-117669047D01*
X121471428Y-117645238D01*
X121447619Y-117621428D01*
X121423809Y-117573809D01*
X121423809Y-117526190D01*
X121447619Y-117478571D01*
X121471428Y-117454761D01*
X121519047Y-117430952D01*
X121614285Y-117407142D01*
X121733333Y-117407142D01*
X121828571Y-117430952D01*
X121876190Y-117454761D01*
X121900000Y-117478571D01*
X121923809Y-117526190D01*
X121423809Y-118169047D02*
X121423809Y-117883333D01*
X121423809Y-118026190D02*
X121923809Y-118026190D01*
X121852380Y-117978571D01*
X121804761Y-117930952D01*
X121780952Y-117883333D01*
X121566666Y-118359523D02*
X121566666Y-118597619D01*
X121423809Y-118311904D02*
X121923809Y-118478571D01*
X121423809Y-118645238D01*
X121423809Y-119097619D02*
X121661904Y-118930952D01*
X121423809Y-118811904D02*
X121923809Y-118811904D01*
X121923809Y-119002380D01*
X121900000Y-119050000D01*
X121876190Y-119073809D01*
X121828571Y-119097619D01*
X121757142Y-119097619D01*
X121709523Y-119073809D01*
X121685714Y-119050000D01*
X121661904Y-119002380D01*
X121661904Y-118811904D01*
D12*
%TO.C,C5*%
X119186666Y-101488571D02*
X119162857Y-101512380D01*
X119091428Y-101536190D01*
X119043809Y-101536190D01*
X118972380Y-101512380D01*
X118924761Y-101464761D01*
X118900952Y-101417142D01*
X118877142Y-101321904D01*
X118877142Y-101250476D01*
X118900952Y-101155238D01*
X118924761Y-101107619D01*
X118972380Y-101060000D01*
X119043809Y-101036190D01*
X119091428Y-101036190D01*
X119162857Y-101060000D01*
X119186666Y-101083809D01*
X119639047Y-101036190D02*
X119400952Y-101036190D01*
X119377142Y-101274285D01*
X119400952Y-101250476D01*
X119448571Y-101226666D01*
X119567619Y-101226666D01*
X119615238Y-101250476D01*
X119639047Y-101274285D01*
X119662857Y-101321904D01*
X119662857Y-101440952D01*
X119639047Y-101488571D01*
X119615238Y-101512380D01*
X119567619Y-101536190D01*
X119448571Y-101536190D01*
X119400952Y-101512380D01*
X119377142Y-101488571D01*
D13*
%TO.C,SW1*%
X132519285Y-111906428D02*
X131769285Y-111906428D01*
X131769285Y-111620714D01*
X131805000Y-111549285D01*
X131840714Y-111513571D01*
X131912142Y-111477857D01*
X132019285Y-111477857D01*
X132090714Y-111513571D01*
X132126428Y-111549285D01*
X132162142Y-111620714D01*
X132162142Y-111906428D01*
X132519285Y-111156428D02*
X132019285Y-111156428D01*
X132162142Y-111156428D02*
X132090714Y-111120714D01*
X132055000Y-111085000D01*
X132019285Y-111013571D01*
X132019285Y-110942142D01*
X132519285Y-110585000D02*
X132483571Y-110656428D01*
X132447857Y-110692142D01*
X132376428Y-110727857D01*
X132162142Y-110727857D01*
X132090714Y-110692142D01*
X132055000Y-110656428D01*
X132019285Y-110585000D01*
X132019285Y-110477857D01*
X132055000Y-110406428D01*
X132090714Y-110370714D01*
X132162142Y-110335000D01*
X132376428Y-110335000D01*
X132447857Y-110370714D01*
X132483571Y-110406428D01*
X132519285Y-110477857D01*
X132519285Y-110585000D01*
X132019285Y-109692142D02*
X132626428Y-109692142D01*
X132697857Y-109727857D01*
X132733571Y-109763571D01*
X132769285Y-109835000D01*
X132769285Y-109942142D01*
X132733571Y-110013571D01*
X132483571Y-109692142D02*
X132519285Y-109763571D01*
X132519285Y-109906428D01*
X132483571Y-109977857D01*
X132447857Y-110013571D01*
X132376428Y-110049285D01*
X132162142Y-110049285D01*
X132090714Y-110013571D01*
X132055000Y-109977857D01*
X132019285Y-109906428D01*
X132019285Y-109763571D01*
X132055000Y-109692142D01*
X132126428Y-108513571D02*
X132162142Y-108406428D01*
X132197857Y-108370714D01*
X132269285Y-108335000D01*
X132376428Y-108335000D01*
X132447857Y-108370714D01*
X132483571Y-108406428D01*
X132519285Y-108477857D01*
X132519285Y-108763571D01*
X131769285Y-108763571D01*
X131769285Y-108513571D01*
X131805000Y-108442142D01*
X131840714Y-108406428D01*
X131912142Y-108370714D01*
X131983571Y-108370714D01*
X132055000Y-108406428D01*
X132090714Y-108442142D01*
X132126428Y-108513571D01*
X132126428Y-108763571D01*
X131769285Y-108120714D02*
X131769285Y-107692142D01*
X132519285Y-107906428D02*
X131769285Y-107906428D01*
X132519285Y-107442142D02*
X131769285Y-107442142D01*
X132519285Y-107013571D01*
X131769285Y-107013571D01*
D14*
%TO.C,JP6*%
X135716190Y-102666666D02*
X136073333Y-102666666D01*
X136144761Y-102690476D01*
X136192380Y-102738095D01*
X136216190Y-102809523D01*
X136216190Y-102857142D01*
X136216190Y-102428571D02*
X135716190Y-102428571D01*
X135716190Y-102238095D01*
X135740000Y-102190476D01*
X135763809Y-102166666D01*
X135811428Y-102142857D01*
X135882857Y-102142857D01*
X135930476Y-102166666D01*
X135954285Y-102190476D01*
X135978095Y-102238095D01*
X135978095Y-102428571D01*
X135716190Y-101714285D02*
X135716190Y-101809523D01*
X135740000Y-101857142D01*
X135763809Y-101880952D01*
X135835238Y-101928571D01*
X135930476Y-101952380D01*
X136120952Y-101952380D01*
X136168571Y-101928571D01*
X136192380Y-101904761D01*
X136216190Y-101857142D01*
X136216190Y-101761904D01*
X136192380Y-101714285D01*
X136168571Y-101690476D01*
X136120952Y-101666666D01*
X136001904Y-101666666D01*
X135954285Y-101690476D01*
X135930476Y-101714285D01*
X135906666Y-101761904D01*
X135906666Y-101857142D01*
X135930476Y-101904761D01*
X135954285Y-101928571D01*
X136001904Y-101952380D01*
%TO.C,JP5*%
X127416190Y-102666666D02*
X127773333Y-102666666D01*
X127844761Y-102690476D01*
X127892380Y-102738095D01*
X127916190Y-102809523D01*
X127916190Y-102857142D01*
X127916190Y-102428571D02*
X127416190Y-102428571D01*
X127416190Y-102238095D01*
X127440000Y-102190476D01*
X127463809Y-102166666D01*
X127511428Y-102142857D01*
X127582857Y-102142857D01*
X127630476Y-102166666D01*
X127654285Y-102190476D01*
X127678095Y-102238095D01*
X127678095Y-102428571D01*
X127416190Y-101690476D02*
X127416190Y-101928571D01*
X127654285Y-101952380D01*
X127630476Y-101928571D01*
X127606666Y-101880952D01*
X127606666Y-101761904D01*
X127630476Y-101714285D01*
X127654285Y-101690476D01*
X127701904Y-101666666D01*
X127820952Y-101666666D01*
X127868571Y-101690476D01*
X127892380Y-101714285D01*
X127916190Y-101761904D01*
X127916190Y-101880952D01*
X127892380Y-101928571D01*
X127868571Y-101952380D01*
X127025714Y-105142380D02*
X127097142Y-105166190D01*
X127216190Y-105166190D01*
X127263809Y-105142380D01*
X127287619Y-105118571D01*
X127311428Y-105070952D01*
X127311428Y-105023333D01*
X127287619Y-104975714D01*
X127263809Y-104951904D01*
X127216190Y-104928095D01*
X127120952Y-104904285D01*
X127073333Y-104880476D01*
X127049523Y-104856666D01*
X127025714Y-104809047D01*
X127025714Y-104761428D01*
X127049523Y-104713809D01*
X127073333Y-104690000D01*
X127120952Y-104666190D01*
X127240000Y-104666190D01*
X127311428Y-104690000D01*
X127716190Y-105142380D02*
X127668571Y-105166190D01*
X127573333Y-105166190D01*
X127525714Y-105142380D01*
X127501904Y-105094761D01*
X127501904Y-104904285D01*
X127525714Y-104856666D01*
X127573333Y-104832857D01*
X127668571Y-104832857D01*
X127716190Y-104856666D01*
X127740000Y-104904285D01*
X127740000Y-104951904D01*
X127501904Y-104999523D01*
X128025714Y-105166190D02*
X127978095Y-105142380D01*
X127954285Y-105094761D01*
X127954285Y-104666190D01*
X128406666Y-105142380D02*
X128359047Y-105166190D01*
X128263809Y-105166190D01*
X128216190Y-105142380D01*
X128192380Y-105094761D01*
X128192380Y-104904285D01*
X128216190Y-104856666D01*
X128263809Y-104832857D01*
X128359047Y-104832857D01*
X128406666Y-104856666D01*
X128430476Y-104904285D01*
X128430476Y-104951904D01*
X128192380Y-104999523D01*
X128859047Y-105142380D02*
X128811428Y-105166190D01*
X128716190Y-105166190D01*
X128668571Y-105142380D01*
X128644761Y-105118571D01*
X128620952Y-105070952D01*
X128620952Y-104928095D01*
X128644761Y-104880476D01*
X128668571Y-104856666D01*
X128716190Y-104832857D01*
X128811428Y-104832857D01*
X128859047Y-104856666D01*
X129001904Y-104832857D02*
X129192380Y-104832857D01*
X129073333Y-104666190D02*
X129073333Y-105094761D01*
X129097142Y-105142380D01*
X129144761Y-105166190D01*
X129192380Y-105166190D01*
X129668571Y-104666190D02*
X129835238Y-105166190D01*
X130001904Y-104666190D01*
X130454285Y-105118571D02*
X130430476Y-105142380D01*
X130359047Y-105166190D01*
X130311428Y-105166190D01*
X130240000Y-105142380D01*
X130192380Y-105094761D01*
X130168571Y-105047142D01*
X130144761Y-104951904D01*
X130144761Y-104880476D01*
X130168571Y-104785238D01*
X130192380Y-104737619D01*
X130240000Y-104690000D01*
X130311428Y-104666190D01*
X130359047Y-104666190D01*
X130430476Y-104690000D01*
X130454285Y-104713809D01*
X130954285Y-105118571D02*
X130930476Y-105142380D01*
X130859047Y-105166190D01*
X130811428Y-105166190D01*
X130740000Y-105142380D01*
X130692380Y-105094761D01*
X130668571Y-105047142D01*
X130644761Y-104951904D01*
X130644761Y-104880476D01*
X130668571Y-104785238D01*
X130692380Y-104737619D01*
X130740000Y-104690000D01*
X130811428Y-104666190D01*
X130859047Y-104666190D01*
X130930476Y-104690000D01*
X130954285Y-104713809D01*
X126799523Y-103992190D02*
X127109047Y-103992190D01*
X126942380Y-104182666D01*
X127013809Y-104182666D01*
X127061428Y-104206476D01*
X127085238Y-104230285D01*
X127109047Y-104277904D01*
X127109047Y-104396952D01*
X127085238Y-104444571D01*
X127061428Y-104468380D01*
X127013809Y-104492190D01*
X126870952Y-104492190D01*
X126823333Y-104468380D01*
X126799523Y-104444571D01*
X127251904Y-103992190D02*
X127418571Y-104492190D01*
X127585238Y-103992190D01*
X127704285Y-103992190D02*
X128013809Y-103992190D01*
X127847142Y-104182666D01*
X127918571Y-104182666D01*
X127966190Y-104206476D01*
X127990000Y-104230285D01*
X128013809Y-104277904D01*
X128013809Y-104396952D01*
X127990000Y-104444571D01*
X127966190Y-104468380D01*
X127918571Y-104492190D01*
X127775714Y-104492190D01*
X127728095Y-104468380D01*
X127704285Y-104444571D01*
X128680476Y-104492190D02*
X128632857Y-104468380D01*
X128609047Y-104444571D01*
X128585238Y-104396952D01*
X128585238Y-104254095D01*
X128609047Y-104206476D01*
X128632857Y-104182666D01*
X128680476Y-104158857D01*
X128751904Y-104158857D01*
X128799523Y-104182666D01*
X128823333Y-104206476D01*
X128847142Y-104254095D01*
X128847142Y-104396952D01*
X128823333Y-104444571D01*
X128799523Y-104468380D01*
X128751904Y-104492190D01*
X128680476Y-104492190D01*
X129061428Y-104492190D02*
X129061428Y-104158857D01*
X129061428Y-104254095D02*
X129085238Y-104206476D01*
X129109047Y-104182666D01*
X129156666Y-104158857D01*
X129204285Y-104158857D01*
X129990000Y-103992190D02*
X129751904Y-103992190D01*
X129728095Y-104230285D01*
X129751904Y-104206476D01*
X129799523Y-104182666D01*
X129918571Y-104182666D01*
X129966190Y-104206476D01*
X129990000Y-104230285D01*
X130013809Y-104277904D01*
X130013809Y-104396952D01*
X129990000Y-104444571D01*
X129966190Y-104468380D01*
X129918571Y-104492190D01*
X129799523Y-104492190D01*
X129751904Y-104468380D01*
X129728095Y-104444571D01*
X130228095Y-104444571D02*
X130251904Y-104468380D01*
X130228095Y-104492190D01*
X130204285Y-104468380D01*
X130228095Y-104444571D01*
X130228095Y-104492190D01*
X130561428Y-103992190D02*
X130609047Y-103992190D01*
X130656666Y-104016000D01*
X130680476Y-104039809D01*
X130704285Y-104087428D01*
X130728095Y-104182666D01*
X130728095Y-104301714D01*
X130704285Y-104396952D01*
X130680476Y-104444571D01*
X130656666Y-104468380D01*
X130609047Y-104492190D01*
X130561428Y-104492190D01*
X130513809Y-104468380D01*
X130490000Y-104444571D01*
X130466190Y-104396952D01*
X130442380Y-104301714D01*
X130442380Y-104182666D01*
X130466190Y-104087428D01*
X130490000Y-104039809D01*
X130513809Y-104016000D01*
X130561428Y-103992190D01*
X130870952Y-103992190D02*
X131037619Y-104492190D01*
X131204285Y-103992190D01*
D17*
%TO.C,J1*%
X118599047Y-129642380D02*
X118599047Y-128642380D01*
X119170476Y-129642380D02*
X118741904Y-129070952D01*
X119170476Y-128642380D02*
X118599047Y-129213809D01*
X119599047Y-129642380D02*
X119599047Y-128642380D01*
X120170476Y-129642380D01*
X120170476Y-128642380D01*
X120551428Y-128642380D02*
X121218095Y-129642380D01*
X121218095Y-128642380D02*
X120551428Y-129642380D01*
X121599047Y-129261428D02*
X122360952Y-129261428D01*
X121980000Y-129642380D02*
X121980000Y-128880476D01*
X112799047Y-129672380D02*
X112799047Y-128672380D01*
X113370476Y-129672380D02*
X112941904Y-129100952D01*
X113370476Y-128672380D02*
X112799047Y-129243809D01*
X113799047Y-129672380D02*
X113799047Y-128672380D01*
X114370476Y-129672380D01*
X114370476Y-128672380D01*
X114751428Y-128672380D02*
X115418095Y-129672380D01*
X115418095Y-128672380D02*
X114751428Y-129672380D01*
X115799047Y-129291428D02*
X116560952Y-129291428D01*
D12*
%TO.C,U4*%
X123317047Y-117074190D02*
X123317047Y-117478952D01*
X123340857Y-117526571D01*
X123364666Y-117550380D01*
X123412285Y-117574190D01*
X123507523Y-117574190D01*
X123555142Y-117550380D01*
X123578952Y-117526571D01*
X123602761Y-117478952D01*
X123602761Y-117074190D01*
X124055142Y-117240857D02*
X124055142Y-117574190D01*
X123936095Y-117050380D02*
X123817047Y-117407523D01*
X124126571Y-117407523D01*
D14*
X122833333Y-118212952D02*
X122833333Y-117974857D01*
X122976190Y-118260571D02*
X122476190Y-118093904D01*
X122976190Y-117927238D01*
X122976190Y-117760571D02*
X122476190Y-117760571D01*
X122476190Y-117641523D01*
X122500000Y-117570095D01*
X122547619Y-117522476D01*
X122595238Y-117498666D01*
X122690476Y-117474857D01*
X122761904Y-117474857D01*
X122857142Y-117498666D01*
X122904761Y-117522476D01*
X122952380Y-117570095D01*
X122976190Y-117641523D01*
X122976190Y-117760571D01*
X122642857Y-117046285D02*
X122976190Y-117046285D01*
X122642857Y-117260571D02*
X122904761Y-117260571D01*
X122952380Y-117236761D01*
X122976190Y-117189142D01*
X122976190Y-117117714D01*
X122952380Y-117070095D01*
X122928571Y-117046285D01*
X122976190Y-116808190D02*
X122642857Y-116808190D01*
X122690476Y-116808190D02*
X122666666Y-116784380D01*
X122642857Y-116736761D01*
X122642857Y-116665333D01*
X122666666Y-116617714D01*
X122714285Y-116593904D01*
X122976190Y-116593904D01*
X122714285Y-116593904D02*
X122666666Y-116570095D01*
X122642857Y-116522476D01*
X122642857Y-116451047D01*
X122666666Y-116403428D01*
X122714285Y-116379619D01*
X122976190Y-116379619D01*
X122976190Y-115879619D02*
X122976190Y-116165333D01*
X122976190Y-116022476D02*
X122476190Y-116022476D01*
X122547619Y-116070095D01*
X122595238Y-116117714D01*
X122619047Y-116165333D01*
X122523809Y-115689142D02*
X122500000Y-115665333D01*
X122476190Y-115617714D01*
X122476190Y-115498666D01*
X122500000Y-115451047D01*
X122523809Y-115427238D01*
X122571428Y-115403428D01*
X122619047Y-115403428D01*
X122690476Y-115427238D01*
X122976190Y-115712952D01*
X122976190Y-115403428D01*
X122476190Y-114951047D02*
X122476190Y-115189142D01*
X122714285Y-115212952D01*
X122690476Y-115189142D01*
X122666666Y-115141523D01*
X122666666Y-115022476D01*
X122690476Y-114974857D01*
X122714285Y-114951047D01*
X122761904Y-114927238D01*
X122880952Y-114927238D01*
X122928571Y-114951047D01*
X122952380Y-114974857D01*
X122976190Y-115022476D01*
X122976190Y-115141523D01*
X122952380Y-115189142D01*
X122928571Y-115212952D01*
X122476190Y-114617714D02*
X122476190Y-114570095D01*
X122500000Y-114522476D01*
X122523809Y-114498666D01*
X122571428Y-114474857D01*
X122666666Y-114451047D01*
X122785714Y-114451047D01*
X122880952Y-114474857D01*
X122928571Y-114498666D01*
X122952380Y-114522476D01*
X122976190Y-114570095D01*
X122976190Y-114617714D01*
X122952380Y-114665333D01*
X122928571Y-114689142D01*
X122880952Y-114712952D01*
X122785714Y-114736761D01*
X122666666Y-114736761D01*
X122571428Y-114712952D01*
X122523809Y-114689142D01*
X122500000Y-114665333D01*
X122476190Y-114617714D01*
D18*
%TO.C,C2*%
X116205000Y-103048748D02*
X116205000Y-103571252D01*
X117675000Y-103048748D02*
X117675000Y-103571252D01*
%TO.C,U2*%
X128924000Y-117640000D02*
X130184000Y-117640000D01*
X135744000Y-121400000D02*
X135744000Y-117640000D01*
X128924000Y-123650000D02*
X128924000Y-117640000D01*
X135744000Y-117640000D02*
X134484000Y-117640000D01*
%TO.C,C1*%
X121025000Y-103068748D02*
X121025000Y-103591252D01*
X122495000Y-103068748D02*
X122495000Y-103591252D01*
%TO.C,R4*%
X126872000Y-116753621D02*
X126872000Y-116418379D01*
X126112000Y-116753621D02*
X126112000Y-116418379D01*
%TO.C,R3*%
X125480000Y-116753621D02*
X125480000Y-116418379D01*
X124720000Y-116753621D02*
X124720000Y-116418379D01*
%TO.C,C4*%
X134231252Y-113125000D02*
X133708748Y-113125000D01*
X134231252Y-114595000D02*
X133708748Y-114595000D01*
%TO.C,JP4*%
X132750000Y-103810000D02*
X135550000Y-103810000D01*
X132750000Y-105810000D02*
X132750000Y-103810000D01*
X135550000Y-105810000D02*
X132750000Y-105810000D01*
X135550000Y-103810000D02*
X135550000Y-105810000D01*
%TO.C,C3*%
X130278748Y-113125000D02*
X130801252Y-113125000D01*
X130278748Y-114595000D02*
X130801252Y-114595000D01*
%TO.C,C6*%
X124895000Y-103591252D02*
X124895000Y-103068748D01*
X123425000Y-103591252D02*
X123425000Y-103068748D01*
D12*
%TO.C,H2*%
X120250000Y-125250000D02*
X120250000Y-125250000D01*
X120250000Y-123050000D02*
X120250000Y-123050000D01*
X120250000Y-125250000D02*
G75*
G03*
X120250000Y-123050000I0J1100000D01*
G01*
X120250000Y-123050000D02*
G75*
G03*
X120250000Y-125250000I0J-1100000D01*
G01*
D18*
%TO.C,C7*%
X131105000Y-109721252D02*
X131105000Y-109198748D01*
X129635000Y-109721252D02*
X129635000Y-109198748D01*
%TO.C,R1*%
X117282379Y-116920000D02*
X117617621Y-116920000D01*
X117282379Y-116160000D02*
X117617621Y-116160000D01*
%TO.C,J4*%
X125605000Y-124420000D02*
X125605000Y-130740000D01*
X125605000Y-124420000D02*
X136345000Y-124420000D01*
X125365000Y-130240000D02*
X125365000Y-130980000D01*
X125605000Y-130180000D02*
X136345000Y-130180000D01*
X125365000Y-130980000D02*
X125865000Y-130980000D01*
X125605000Y-130740000D02*
X136345000Y-130740000D01*
X136345000Y-124420000D02*
X136345000Y-130740000D01*
X125605000Y-124880000D02*
X136345000Y-124880000D01*
%TO.C,J3*%
X135830000Y-94580000D02*
X112389000Y-94580000D01*
X135830000Y-100440000D02*
X112389000Y-100440000D01*
X135830000Y-100900000D02*
X135830000Y-94580000D01*
X135830000Y-95140000D02*
X112389000Y-95140000D01*
X136070000Y-95080000D02*
X136070000Y-94340000D01*
X112389000Y-100900000D02*
X112389000Y-94580000D01*
X135830000Y-100900000D02*
X112389000Y-100900000D01*
X136070000Y-94340000D02*
X135570000Y-94340000D01*
%TO.C,R2*%
X119702379Y-116920000D02*
X120037621Y-116920000D01*
X119702379Y-116160000D02*
X120037621Y-116160000D01*
%TO.C,GN1*%
X111870000Y-119780000D02*
X111870000Y-100000000D01*
D19*
X114940000Y-119580000D02*
X114940000Y-100730000D01*
D18*
%TO.C,U3*%
X121220000Y-116585000D02*
X121220000Y-113135000D01*
X116100000Y-116585000D02*
X116100000Y-118535000D01*
X116100000Y-116585000D02*
X116100000Y-114635000D01*
X121220000Y-116585000D02*
X121220000Y-118535000D01*
%TO.C,C5*%
X118545000Y-103048748D02*
X118545000Y-103571252D01*
X120015000Y-103048748D02*
X120015000Y-103571252D01*
%TO.C,SW1*%
X134560000Y-107260000D02*
X134660000Y-107260000D01*
X134560000Y-111660000D02*
X134660000Y-111660000D01*
X133060000Y-107260000D02*
X133060000Y-111660000D01*
X136160000Y-111660000D02*
X136160000Y-107260000D01*
D12*
%TO.C,H1*%
X114500000Y-125250000D02*
X114500000Y-125250000D01*
X114500000Y-123050000D02*
X114500000Y-123050000D01*
X114500000Y-123050000D02*
G75*
G03*
X114500000Y-125250000I0J-1100000D01*
G01*
X114500000Y-125250000D02*
G75*
G03*
X114500000Y-123050000I0J1100000D01*
G01*
D18*
%TO.C,JP6*%
X132750000Y-103250000D02*
X132750000Y-101250000D01*
X132750000Y-101250000D02*
X135550000Y-101250000D01*
X135550000Y-103250000D02*
X132750000Y-103250000D01*
X135550000Y-101250000D02*
X135550000Y-103250000D01*
%TO.C,JP5*%
X128080000Y-102550000D02*
X128080000Y-101950000D01*
X128930000Y-103450000D02*
X128630000Y-103750000D01*
X128930000Y-103450000D02*
X129230000Y-103750000D01*
X128630000Y-103750000D02*
X129230000Y-103750000D01*
X131530000Y-103250000D02*
X128730000Y-103250000D01*
X128730000Y-101250000D02*
X131530000Y-101250000D01*
X132180000Y-101950000D02*
X132180000Y-102550000D01*
X128080000Y-102550000D02*
G75*
G03*
X128780000Y-103250000I699999J-1D01*
G01*
X132180000Y-101950000D02*
G75*
G03*
X131480000Y-101250000I-700000J0D01*
G01*
X131480000Y-103250000D02*
G75*
G03*
X132180000Y-102550000I0J700000D01*
G01*
X128780000Y-101250000D02*
G75*
G03*
X128080000Y-101950000I-1J-699999D01*
G01*
%TO.C,J1*%
X123430000Y-124955000D02*
X123430000Y-130730000D01*
X117680000Y-122505000D02*
X117680000Y-120730000D01*
X112930000Y-121905000D02*
X112930000Y-125555000D01*
X111930000Y-120730000D02*
X123430000Y-120730000D01*
X111930000Y-124955000D02*
X112930000Y-125555000D01*
X123430000Y-122505000D02*
X123430000Y-120730000D01*
X123430000Y-124955000D02*
X124430000Y-125555000D01*
X118680000Y-121905000D02*
X118680000Y-125555000D01*
X117680000Y-122505000D02*
X118680000Y-121905000D01*
X117680000Y-124955000D02*
X117680000Y-130730000D01*
X111930000Y-130730000D02*
X123430000Y-130730000D01*
X111930000Y-120730000D02*
X111930000Y-122505000D01*
X123430000Y-122505000D02*
X124430000Y-121905000D01*
X124430000Y-121905000D02*
X124430000Y-125555000D01*
X111930000Y-124955000D02*
X111930000Y-130730000D01*
X112930000Y-121905000D02*
X111930000Y-122505000D01*
X117680000Y-124955000D02*
X118680000Y-125555000D01*
%TO.C,U4*%
X123170000Y-116586000D02*
X123170000Y-114636000D01*
X128290000Y-116586000D02*
X128290000Y-114636000D01*
X128290000Y-116586000D02*
X128290000Y-118536000D01*
X123170000Y-116586000D02*
X123170000Y-120036000D01*
%TD*%
%LPC*%
D20*
%TO.C,C2*%
X116940000Y-102360000D03*
X116940000Y-104260000D03*
%TD*%
D21*
%TO.C,U2*%
X130034000Y-122700000D03*
X132334000Y-122700000D03*
D22*
X132334000Y-116400000D03*
D21*
X134634000Y-122700000D03*
%TD*%
D20*
%TO.C,C1*%
X121760000Y-102380000D03*
X121760000Y-104280000D03*
%TD*%
D23*
%TO.C,R4*%
X126492000Y-117183500D03*
X126492000Y-115988500D03*
%TD*%
%TO.C,R3*%
X125100000Y-117183500D03*
X125100000Y-115988500D03*
%TD*%
D24*
%TO.C,C4*%
X134920000Y-113860000D03*
X133020000Y-113860000D03*
%TD*%
D25*
%TO.C,JP4*%
X133500000Y-104810000D03*
X134800000Y-104810000D03*
%TD*%
D26*
%TO.C,C3*%
X129590000Y-113860000D03*
X131490000Y-113860000D03*
%TD*%
D27*
%TO.C,C6*%
X124160000Y-104280000D03*
X124160000Y-102380000D03*
%TD*%
D28*
%TO.C,H2*%
X120250000Y-124150000D03*
%TD*%
D27*
%TO.C,C7*%
X130370000Y-110410000D03*
X130370000Y-108510000D03*
%TD*%
D29*
%TO.C,R1*%
X116852500Y-116540000D03*
X118047500Y-116540000D03*
%TD*%
D30*
%TO.C,J4*%
X127165000Y-127580000D03*
D31*
X129705000Y-127580000D03*
X132245000Y-127580000D03*
X134785000Y-127580000D03*
%TD*%
D30*
%TO.C,J3*%
X134270000Y-97740000D03*
D31*
X131730000Y-97740000D03*
X129190000Y-97740000D03*
X126650000Y-97740000D03*
X124110000Y-97740000D03*
X121570000Y-97740000D03*
X119030000Y-97740000D03*
X116490000Y-97740000D03*
X113950000Y-97740000D03*
%TD*%
D29*
%TO.C,R2*%
X119272500Y-116540000D03*
X120467500Y-116540000D03*
%TD*%
D32*
%TO.C,GN1*%
X113140000Y-117780000D03*
D33*
X113140000Y-115240000D03*
X113140000Y-112700000D03*
X113140000Y-110160000D03*
X113140000Y-107620000D03*
X113140000Y-105080000D03*
X113140000Y-102540000D03*
%TD*%
D34*
%TO.C,U3*%
X120565000Y-114110000D03*
X119295000Y-114110000D03*
X118025000Y-114110000D03*
X116755000Y-114110000D03*
X116755000Y-119060000D03*
X118025000Y-119060000D03*
X119295000Y-119060000D03*
X120565000Y-119060000D03*
%TD*%
D20*
%TO.C,C5*%
X119280000Y-102360000D03*
X119280000Y-104260000D03*
%TD*%
D35*
%TO.C,SW1*%
X133810000Y-107410000D03*
X135410000Y-107410000D03*
X135410000Y-111510000D03*
X133810000Y-111510000D03*
%TD*%
D36*
%TO.C,J2*%
X120250000Y-127050000D03*
X114500000Y-127050000D03*
%TD*%
D28*
%TO.C,H1*%
X114500000Y-124150000D03*
%TD*%
D25*
%TO.C,JP6*%
X133500000Y-102250000D03*
X134800000Y-102250000D03*
%TD*%
D37*
%TO.C,JP5*%
X128830000Y-102250000D03*
D25*
X130130000Y-102250000D03*
D38*
X131430000Y-102250000D03*
%TD*%
D36*
%TO.C,J1*%
X120230000Y-124130000D03*
X114480000Y-124130000D03*
%TD*%
D39*
%TO.C,U4*%
X123825000Y-119061000D03*
X125095000Y-119061000D03*
X126365000Y-119061000D03*
X127635000Y-119061000D03*
X127635000Y-114111000D03*
X126365000Y-114111000D03*
X125095000Y-114111000D03*
X123825000Y-114111000D03*
%TD*%
D40*
X120200000Y-108350000D03*
X119470000Y-111230000D03*
X118030000Y-109140000D03*
X130951319Y-111215588D03*
X130035600Y-106186500D03*
X123730000Y-111270000D03*
X126973000Y-110613600D03*
X127764600Y-111287000D03*
X115420000Y-113180000D03*
X125095000Y-112528500D03*
X124968000Y-111506000D03*
X121970000Y-114030000D03*
X119200000Y-105394600D03*
X128778000Y-108089600D03*
X131500000Y-104177000D03*
X135490000Y-119860000D03*
X130200000Y-104178900D03*
X125730000Y-103886000D03*
X128802000Y-103862000D03*
X128970000Y-109450000D03*
X121740000Y-111670000D03*
M02*
