%TF.GenerationSoftware,KiCad,Pcbnew,(6.0.10-0)*%
%TF.CreationDate,2023-01-20T18:31:20+01:00*%
%TF.ProjectId,KNeoPiX_v1.3,4b4e656f-5069-4585-9f76-312e332e6b69,rev?*%
%TF.SameCoordinates,Original*%
%TF.FileFunction,Copper,L1,Top*%
%TF.FilePolarity,Positive*%
%FSLAX46Y46*%
G04 Gerber Fmt 4.6, Leading zero omitted, Abs format (unit mm)*
G04 Created by KiCad (PCBNEW (6.0.10-0)) date 2023-01-20 18:31:20*
%MOMM*%
%LPD*%
G01*
G04 APERTURE LIST*
G04 Aperture macros list*
%AMRoundRect*
0 Rectangle with rounded corners*
0 $1 Rounding radius*
0 $2 $3 $4 $5 $6 $7 $8 $9 X,Y pos of 4 corners*
0 Add a 4 corners polygon primitive as box body*
4,1,4,$2,$3,$4,$5,$6,$7,$8,$9,$2,$3,0*
0 Add four circle primitives for the rounded corners*
1,1,$1+$1,$2,$3*
1,1,$1+$1,$4,$5*
1,1,$1+$1,$6,$7*
1,1,$1+$1,$8,$9*
0 Add four rect primitives between the rounded corners*
20,1,$1+$1,$2,$3,$4,$5,0*
20,1,$1+$1,$4,$5,$6,$7,0*
20,1,$1+$1,$6,$7,$8,$9,0*
20,1,$1+$1,$8,$9,$2,$3,0*%
%AMFreePoly0*
4,1,22,0.550000,-0.750000,0.000000,-0.750000,0.000000,-0.745033,-0.079941,-0.743568,-0.215256,-0.701293,-0.333266,-0.622738,-0.424486,-0.514219,-0.481581,-0.384460,-0.499164,-0.250000,-0.500000,-0.250000,-0.500000,0.250000,-0.499164,0.250000,-0.499963,0.256109,-0.478152,0.396186,-0.417904,0.524511,-0.324060,0.630769,-0.204165,0.706417,-0.067858,0.745374,0.000000,0.744959,0.000000,0.750000,
0.550000,0.750000,0.550000,-0.750000,0.550000,-0.750000,$1*%
%AMFreePoly1*
4,1,20,0.000000,0.744959,0.073905,0.744508,0.209726,0.703889,0.328688,0.626782,0.421226,0.519385,0.479903,0.390333,0.500000,0.250000,0.500000,-0.250000,0.499851,-0.262216,0.476331,-0.402017,0.414519,-0.529596,0.319384,-0.634700,0.198574,-0.708877,0.061801,-0.746166,0.000000,-0.745033,0.000000,-0.750000,-0.550000,-0.750000,-0.550000,0.750000,0.000000,0.750000,0.000000,0.744959,
0.000000,0.744959,$1*%
G04 Aperture macros list end*
%TA.AperFunction,SMDPad,CuDef*%
%ADD10RoundRect,0.250000X-0.475000X0.250000X-0.475000X-0.250000X0.475000X-0.250000X0.475000X0.250000X0*%
%TD*%
%TA.AperFunction,SMDPad,CuDef*%
%ADD11R,1.500000X2.000000*%
%TD*%
%TA.AperFunction,SMDPad,CuDef*%
%ADD12R,3.800000X2.000000*%
%TD*%
%TA.AperFunction,SMDPad,CuDef*%
%ADD13RoundRect,0.160000X0.160000X-0.197500X0.160000X0.197500X-0.160000X0.197500X-0.160000X-0.197500X0*%
%TD*%
%TA.AperFunction,SMDPad,CuDef*%
%ADD14RoundRect,0.250000X0.250000X0.475000X-0.250000X0.475000X-0.250000X-0.475000X0.250000X-0.475000X0*%
%TD*%
%TA.AperFunction,SMDPad,CuDef*%
%ADD15R,1.000000X1.500000*%
%TD*%
%TA.AperFunction,SMDPad,CuDef*%
%ADD16RoundRect,0.250000X-0.250000X-0.475000X0.250000X-0.475000X0.250000X0.475000X-0.250000X0.475000X0*%
%TD*%
%TA.AperFunction,SMDPad,CuDef*%
%ADD17RoundRect,0.250000X0.475000X-0.250000X0.475000X0.250000X-0.475000X0.250000X-0.475000X-0.250000X0*%
%TD*%
%TA.AperFunction,ComponentPad*%
%ADD18C,1.875000*%
%TD*%
%TA.AperFunction,SMDPad,CuDef*%
%ADD19RoundRect,0.160000X-0.197500X-0.160000X0.197500X-0.160000X0.197500X0.160000X-0.197500X0.160000X0*%
%TD*%
%TA.AperFunction,ComponentPad*%
%ADD20R,2.200000X2.200000*%
%TD*%
%TA.AperFunction,ComponentPad*%
%ADD21C,2.200000*%
%TD*%
%TA.AperFunction,ComponentPad*%
%ADD22R,1.700000X1.700000*%
%TD*%
%TA.AperFunction,ComponentPad*%
%ADD23O,1.700000X1.700000*%
%TD*%
%TA.AperFunction,SMDPad,CuDef*%
%ADD24RoundRect,0.150000X-0.150000X0.825000X-0.150000X-0.825000X0.150000X-0.825000X0.150000X0.825000X0*%
%TD*%
%TA.AperFunction,SMDPad,CuDef*%
%ADD25R,1.000000X0.900000*%
%TD*%
%TA.AperFunction,ComponentPad*%
%ADD26C,2.500000*%
%TD*%
%TA.AperFunction,SMDPad,CuDef*%
%ADD27FreePoly0,0.000000*%
%TD*%
%TA.AperFunction,SMDPad,CuDef*%
%ADD28FreePoly1,0.000000*%
%TD*%
%TA.AperFunction,SMDPad,CuDef*%
%ADD29RoundRect,0.150000X0.150000X-0.825000X0.150000X0.825000X-0.150000X0.825000X-0.150000X-0.825000X0*%
%TD*%
%TA.AperFunction,ViaPad*%
%ADD30C,0.800000*%
%TD*%
%TA.AperFunction,Conductor*%
%ADD31C,0.250000*%
%TD*%
%TA.AperFunction,Conductor*%
%ADD32C,1.500000*%
%TD*%
G04 APERTURE END LIST*
D10*
%TO.P,C2,1*%
%TO.N,KNX_3V3*%
X116940000Y-102360000D03*
%TO.P,C2,2*%
%TO.N,KNX_GND*%
X116940000Y-104260000D03*
%TD*%
D11*
%TO.P,U2,1,VI*%
%TO.N,NEO_VCC_IN*%
X130034000Y-122700000D03*
%TO.P,U2,2,GND*%
%TO.N,NEO_GND*%
X132334000Y-122700000D03*
D12*
X132334000Y-116400000D03*
D11*
%TO.P,U2,3,VO*%
%TO.N,VCC_OUT*%
X134634000Y-122700000D03*
%TD*%
D10*
%TO.P,C1,1*%
%TO.N,S_3V3*%
X121760000Y-102380000D03*
%TO.P,C1,2*%
%TO.N,NEO_GND*%
X121760000Y-104280000D03*
%TD*%
D13*
%TO.P,R4,1*%
%TO.N,NEO_DATA1_OUT*%
X126492000Y-117183500D03*
%TO.P,R4,2*%
%TO.N,D5_SCL*%
X126492000Y-115988500D03*
%TD*%
%TO.P,R3,1*%
%TO.N,NEO_DATA0_OUT*%
X125100000Y-117183500D03*
%TO.P,R3,2*%
%TO.N,D4_SDA*%
X125100000Y-115988500D03*
%TD*%
D14*
%TO.P,C4,1*%
%TO.N,VCC_OUT*%
X134920000Y-113860000D03*
%TO.P,C4,2*%
%TO.N,NEO_GND*%
X133020000Y-113860000D03*
%TD*%
D15*
%TO.P,JP4,1,A*%
%TO.N,KNX_SAVE*%
X133500000Y-104810000D03*
%TO.P,JP4,2,B*%
%TO.N,D10*%
X134800000Y-104810000D03*
%TD*%
D16*
%TO.P,C3,1*%
%TO.N,NEO_VCC_IN*%
X129590000Y-113860000D03*
%TO.P,C3,2*%
%TO.N,NEO_GND*%
X131490000Y-113860000D03*
%TD*%
D17*
%TO.P,C6,1*%
%TO.N,NEO_GND*%
X124160000Y-104280000D03*
%TO.P,C6,2*%
%TO.N,S_3V3*%
X124160000Y-102380000D03*
%TD*%
D18*
%TO.P,H2,1,1*%
%TO.N,KNX+*%
X120250000Y-124150000D03*
%TD*%
D17*
%TO.P,C7,1*%
%TO.N,D0*%
X130370000Y-110410000D03*
%TO.P,C7,2*%
%TO.N,NEO_GND*%
X130370000Y-108510000D03*
%TD*%
D19*
%TO.P,R1,1*%
%TO.N,KNX_TX*%
X116852500Y-116540000D03*
%TO.P,R1,2*%
%TO.N,D7_RX*%
X118047500Y-116540000D03*
%TD*%
D20*
%TO.P,J4,1,Pin_1*%
%TO.N,NEO_GND*%
X127165000Y-127580000D03*
D21*
%TO.P,J4,2,Pin_2*%
%TO.N,NEO_DATA0_OUT*%
X129705000Y-127580000D03*
%TO.P,J4,3,Pin_3*%
%TO.N,NEO_DATA1_OUT*%
X132245000Y-127580000D03*
%TO.P,J4,4,Pin_4*%
%TO.N,NEO_VCC_IN*%
X134785000Y-127580000D03*
%TD*%
D20*
%TO.P,J3,1,Pin_1*%
%TO.N,NEO_GND*%
X134270000Y-97740000D03*
D21*
%TO.P,J3,2,Pin_2*%
%TO.N,S_3V3*%
X131730000Y-97740000D03*
%TO.P,J3,3,Pin_3*%
%TO.N,KNX_5V*%
X129190000Y-97740000D03*
%TO.P,J3,4,Pin_4*%
%TO.N,D1*%
X126650000Y-97740000D03*
%TO.P,J3,5,Pin_5*%
%TO.N,D2*%
X124110000Y-97740000D03*
%TO.P,J3,6,Pin_6*%
%TO.N,D3*%
X121570000Y-97740000D03*
%TO.P,J3,7,Pin_7*%
%TO.N,D8*%
X119030000Y-97740000D03*
%TO.P,J3,8,Pin_8*%
%TO.N,D9*%
X116490000Y-97740000D03*
%TO.P,J3,9,Pin_9*%
%TO.N,D10*%
X113950000Y-97740000D03*
%TD*%
D19*
%TO.P,R2,1*%
%TO.N,KNX_RX*%
X119272500Y-116540000D03*
%TO.P,R2,2*%
%TO.N,D6_TX*%
X120467500Y-116540000D03*
%TD*%
D22*
%TO.P,GN1,1,KNX+*%
%TO.N,KNX+*%
X113140000Y-117780000D03*
D23*
%TO.P,GN1,2,GND*%
%TO.N,KNX_GND*%
X113140000Y-115240000D03*
%TO.P,GN1,3,SAVE*%
%TO.N,KNX_SAVE*%
X113140000Y-112700000D03*
%TO.P,GN1,4,Rx*%
%TO.N,KNX_RX*%
X113140000Y-110160000D03*
%TO.P,GN1,5,Tx*%
%TO.N,KNX_TX*%
X113140000Y-107620000D03*
%TO.P,GN1,6,3V3*%
%TO.N,KNX_3V3*%
X113140000Y-105080000D03*
%TO.P,GN1,7,Vcc2*%
%TO.N,KNX_5V*%
X113140000Y-102540000D03*
%TD*%
D24*
%TO.P,U3,1,VDD1*%
%TO.N,KNX_3V3*%
X120565000Y-114110000D03*
%TO.P,U3,2,VOA*%
%TO.N,KNX_RX*%
X119295000Y-114110000D03*
%TO.P,U3,3,VIB*%
%TO.N,KNX_TX*%
X118025000Y-114110000D03*
%TO.P,U3,4,GND1*%
%TO.N,KNX_GND*%
X116755000Y-114110000D03*
%TO.P,U3,5,GND2*%
%TO.N,NEO_GND*%
X116755000Y-119060000D03*
%TO.P,U3,6,VOB*%
%TO.N,D7_RX*%
X118025000Y-119060000D03*
%TO.P,U3,7,VIA*%
%TO.N,D6_TX*%
X119295000Y-119060000D03*
%TO.P,U3,8,VDD2*%
%TO.N,S_3V3*%
X120565000Y-119060000D03*
%TD*%
D10*
%TO.P,C5,1*%
%TO.N,S_3V3*%
X119280000Y-102360000D03*
%TO.P,C5,2*%
%TO.N,NEO_GND*%
X119280000Y-104260000D03*
%TD*%
D25*
%TO.P,SW1,1,1*%
%TO.N,NEO_GND*%
X133810000Y-107410000D03*
X135410000Y-107410000D03*
%TO.P,SW1,2,2*%
%TO.N,D0*%
X135410000Y-111510000D03*
X133810000Y-111510000D03*
%TD*%
D26*
%TO.P,J2,1,Pin_1*%
%TO.N,KNX+*%
X120250000Y-127050000D03*
%TO.P,J2,2,Pin_2*%
%TO.N,KNX_GND*%
X114500000Y-127050000D03*
%TD*%
D18*
%TO.P,H1,1,1*%
%TO.N,KNX_GND*%
X114500000Y-124150000D03*
%TD*%
D15*
%TO.P,JP6,1,A*%
%TO.N,5V-MCU*%
X133500000Y-102250000D03*
%TO.P,JP6,2,B*%
%TO.N,KNX_5V*%
X134800000Y-102250000D03*
%TD*%
D27*
%TO.P,JP5,1,A*%
%TO.N,S_3V3*%
X128830000Y-102250000D03*
D15*
%TO.P,JP5,2,C*%
%TO.N,VCC_OUT*%
X130130000Y-102250000D03*
D28*
%TO.P,JP5,3,B*%
%TO.N,5V-MCU*%
X131430000Y-102250000D03*
%TD*%
D26*
%TO.P,J1,1,Pin_1*%
%TO.N,KNX+*%
X120230000Y-124130000D03*
%TO.P,J1,2,Pin_2*%
%TO.N,KNX_GND*%
X114480000Y-124130000D03*
%TD*%
D29*
%TO.P,U4,1,VDD1*%
%TO.N,S_3V3*%
X123825000Y-119061000D03*
%TO.P,U4,2,VOA*%
%TO.N,NEO_DATA0_OUT*%
X125095000Y-119061000D03*
%TO.P,U4,3,VIB*%
%TO.N,NEO_DATA1_OUT*%
X126365000Y-119061000D03*
%TO.P,U4,4,GND1*%
%TO.N,NEO_GND*%
X127635000Y-119061000D03*
%TO.P,U4,5,GND2*%
X127635000Y-114111000D03*
%TO.P,U4,6,VOB*%
%TO.N,D5_SCL*%
X126365000Y-114111000D03*
%TO.P,U4,7,VIA*%
%TO.N,D4_SDA*%
X125095000Y-114111000D03*
%TO.P,U4,8,VDD2*%
%TO.N,S_3V3*%
X123825000Y-114111000D03*
%TD*%
D30*
%TO.N,KNX_3V3*%
X120200000Y-108350000D03*
%TO.N,KNX_RX*%
X119470000Y-111230000D03*
%TO.N,KNX_TX*%
X118030000Y-109140000D03*
%TO.N,D0*%
X130951319Y-111215588D03*
%TO.N,D10*%
X130035600Y-106186500D03*
%TO.N,D3*%
X123730000Y-111270000D03*
%TO.N,D2*%
X126973000Y-110613600D03*
%TO.N,D1*%
X127764600Y-111287000D03*
%TO.N,KNX_GND*%
X115420000Y-113180000D03*
%TO.N,D4_SDA*%
X125095000Y-112528500D03*
%TO.N,D5_SCL*%
X124968000Y-111506000D03*
%TO.N,D6_TX*%
X121970000Y-114030000D03*
%TO.N,D7_RX*%
X119200000Y-105394600D03*
%TO.N,KNX_SAVE*%
X128778000Y-108089600D03*
%TO.N,5V-MCU*%
X131500000Y-104177000D03*
%TO.N,VCC_OUT*%
X135490000Y-119860000D03*
X130200000Y-104178900D03*
%TO.N,S_3V3*%
X125730000Y-103886000D03*
X128802000Y-103862000D03*
%TO.N,NEO_GND*%
X128970000Y-109450000D03*
X121740000Y-111670000D03*
%TD*%
D31*
%TO.N,KNX_3V3*%
X120565000Y-108715000D02*
X120200000Y-108350000D01*
X115840000Y-102360000D02*
X115200000Y-103000000D01*
X116940000Y-102360000D02*
X115840000Y-102360000D01*
X115200000Y-104150000D02*
X114270000Y-105080000D01*
X120565000Y-114110000D02*
X120565000Y-108715000D01*
X114270000Y-105080000D02*
X113140000Y-105080000D01*
X115200000Y-103000000D02*
X115200000Y-104150000D01*
%TO.N,KNX_RX*%
X119295000Y-114110000D02*
X119295000Y-111405000D01*
X119295000Y-111405000D02*
X119470000Y-111230000D01*
X119295000Y-114110000D02*
X119295000Y-116492500D01*
%TO.N,KNX_TX*%
X116852500Y-116292855D02*
X118025000Y-115120355D01*
X118025000Y-109145000D02*
X118030000Y-109140000D01*
X118025000Y-114110000D02*
X118025000Y-109145000D01*
X118025000Y-115120355D02*
X118025000Y-114110000D01*
X116852500Y-116530000D02*
X116852500Y-116292855D01*
%TO.N,D0*%
X133810000Y-111510000D02*
X135410000Y-111510000D01*
X130370000Y-110634269D02*
X130951319Y-111215588D01*
X131245731Y-111510000D02*
X130951319Y-111215588D01*
X133810000Y-111510000D02*
X131245731Y-111510000D01*
%TO.N,D10*%
X134380000Y-106200000D02*
X130049100Y-106200000D01*
X130049100Y-106200000D02*
X130035600Y-106186500D01*
X134800000Y-104810000D02*
X134800000Y-105780000D01*
X134800000Y-105780000D02*
X134380000Y-106200000D01*
%TO.N,D3*%
X121570000Y-100020000D02*
X121570000Y-97740000D01*
X126100000Y-100570000D02*
X122120000Y-100570000D01*
X123730000Y-106530000D02*
X124390000Y-105870000D01*
X125940000Y-105870000D02*
X126680000Y-105130000D01*
X126680000Y-101150000D02*
X126100000Y-100570000D01*
X123730000Y-111270000D02*
X123730000Y-106530000D01*
X126680000Y-105130000D02*
X126680000Y-101150000D01*
X124390000Y-105870000D02*
X125940000Y-105870000D01*
X122120000Y-100570000D02*
X121570000Y-100020000D01*
%TO.N,D2*%
X124610000Y-99780000D02*
X124110000Y-99280000D01*
X127314600Y-100150000D02*
X126944600Y-99780000D01*
X126944600Y-99780000D02*
X124610000Y-99780000D01*
X124110000Y-99280000D02*
X124110000Y-97740000D01*
X127314600Y-110272000D02*
X127314600Y-100150000D01*
X126973000Y-110613600D02*
X127314600Y-110272000D01*
%TO.N,D1*%
X127764600Y-111287000D02*
X127764600Y-99963604D01*
X127764600Y-99963604D02*
X126650000Y-98849004D01*
X126650000Y-98849004D02*
X126650000Y-97740000D01*
%TO.N,KNX_GND*%
X115420000Y-113180000D02*
X115420000Y-113850000D01*
X115420000Y-113180000D02*
X115420000Y-105780000D01*
X115680000Y-114110000D02*
X116755000Y-114110000D01*
X115420000Y-113850000D02*
X115680000Y-114110000D01*
D32*
X114500000Y-127050000D02*
X114500000Y-124150000D01*
D31*
X115420000Y-105780000D02*
X116940000Y-104260000D01*
%TO.N,D4_SDA*%
X125100000Y-116178500D02*
X125100000Y-114116000D01*
X125095000Y-114111000D02*
X125095000Y-112528500D01*
%TO.N,D5_SCL*%
X126492000Y-115988500D02*
X126492000Y-114238000D01*
X126365000Y-111887000D02*
X125984000Y-111506000D01*
X125984000Y-111506000D02*
X124968000Y-111506000D01*
X126365000Y-114111000D02*
X126365000Y-111887000D01*
%TO.N,D6_TX*%
X119295000Y-117848604D02*
X119960104Y-117183500D01*
X120537500Y-117124500D02*
X120596500Y-117183500D01*
X121970000Y-116853500D02*
X121970000Y-114030000D01*
X121640000Y-117183500D02*
X121970000Y-116853500D01*
X119960104Y-117183500D02*
X120596500Y-117183500D01*
X120537500Y-116540000D02*
X120537500Y-117124500D01*
X120596500Y-117183500D02*
X121640000Y-117183500D01*
X119295000Y-119060000D02*
X119295000Y-117848604D01*
%TO.N,D7_RX*%
X118040000Y-115830000D02*
X118040000Y-116522500D01*
X118650000Y-110500000D02*
X118650000Y-115220000D01*
X118650000Y-115220000D02*
X118040000Y-115830000D01*
X119200000Y-109950000D02*
X118650000Y-110500000D01*
X119200000Y-105394600D02*
X119200000Y-109950000D01*
X118025000Y-119060000D02*
X118025000Y-116552500D01*
%TO.N,KNX_SAVE*%
X129730000Y-104990000D02*
X133320000Y-104990000D01*
X128778000Y-108089600D02*
X128778000Y-105942000D01*
X128778000Y-105942000D02*
X129730000Y-104990000D01*
X133320000Y-104990000D02*
X133500000Y-104810000D01*
%TO.N,KNX_5V*%
X129190000Y-99060000D02*
X129190000Y-97740000D01*
X129780000Y-99650000D02*
X129190000Y-99060000D01*
X133540000Y-99650000D02*
X129780000Y-99650000D01*
X127760600Y-96310600D02*
X129190000Y-97740000D01*
X134800000Y-102250000D02*
X134800000Y-100910000D01*
X112487000Y-101887000D02*
X112487000Y-97171800D01*
X113348200Y-96310600D02*
X127760600Y-96310600D01*
X113140000Y-102540000D02*
X112487000Y-101887000D01*
X112487000Y-97171800D02*
X113348200Y-96310600D01*
X134800000Y-100910000D02*
X133540000Y-99650000D01*
%TO.N,KNX+*%
X113140000Y-120360000D02*
X113140000Y-117780000D01*
X120230000Y-121840000D02*
X119380000Y-120990000D01*
X120230000Y-124130000D02*
X120230000Y-121840000D01*
D32*
X120250000Y-127050000D02*
X120250000Y-124150000D01*
D31*
X113770000Y-120990000D02*
X113140000Y-120360000D01*
X119380000Y-120990000D02*
X113770000Y-120990000D01*
%TO.N,NEO_VCC_IN*%
X130034000Y-121374700D02*
X130034000Y-122700000D01*
X130034000Y-124154000D02*
X130540000Y-124660000D01*
X129590000Y-113860000D02*
X129590000Y-120930700D01*
X130540000Y-124660000D02*
X134290000Y-124660000D01*
X134290000Y-124660000D02*
X134785000Y-125155000D01*
X130034000Y-122700000D02*
X130034000Y-124154000D01*
X134785000Y-125155000D02*
X134785000Y-127580000D01*
X129590000Y-120930700D02*
X130034000Y-121374700D01*
%TO.N,NEO_DATA1_OUT*%
X126365000Y-123725000D02*
X126365000Y-119061000D01*
X126492000Y-117183500D02*
X126492000Y-118934000D01*
X132250000Y-127575000D02*
X132250000Y-125870000D01*
X128760000Y-124370000D02*
X127010000Y-124370000D01*
X129740000Y-125350000D02*
X128760000Y-124370000D01*
X131730000Y-125350000D02*
X129740000Y-125350000D01*
X132250000Y-125870000D02*
X131730000Y-125350000D01*
X127010000Y-124370000D02*
X126365000Y-123725000D01*
%TO.N,NEO_DATA0_OUT*%
X128800000Y-125350000D02*
X125980000Y-125350000D01*
X129705000Y-126255000D02*
X128800000Y-125350000D01*
X129705000Y-127580000D02*
X129705000Y-126255000D01*
X125100000Y-116993500D02*
X125100000Y-119056000D01*
X125980000Y-125350000D02*
X125095000Y-124465000D01*
X125095000Y-124465000D02*
X125095000Y-119061000D01*
%TO.N,5V-MCU*%
X133500000Y-102250000D02*
X131430000Y-102250000D01*
X131500000Y-102320000D02*
X131430000Y-102250000D01*
X131500000Y-104177000D02*
X131500000Y-102320000D01*
%TO.N,VCC_OUT*%
X135490000Y-119860000D02*
X134634000Y-120716000D01*
X134634000Y-120716000D02*
X134634000Y-122700000D01*
X135490000Y-119860000D02*
X135490000Y-114430000D01*
X135490000Y-114430000D02*
X134920000Y-113860000D01*
X130200000Y-102320000D02*
X130130000Y-102250000D01*
X130200000Y-104178900D02*
X130200000Y-102320000D01*
%TO.N,S_3V3*%
X123825000Y-119061000D02*
X123825000Y-114111000D01*
X124800000Y-102380000D02*
X124160000Y-102380000D01*
X125730000Y-103310000D02*
X125730000Y-103886000D01*
X128802000Y-103862000D02*
X128802000Y-102278000D01*
X121760000Y-102380000D02*
X124160000Y-102380000D01*
X123825000Y-113115000D02*
X122660000Y-111950000D01*
X125730000Y-103310000D02*
X124800000Y-102380000D01*
X125450000Y-105390000D02*
X125730000Y-105110000D01*
X120565000Y-119060000D02*
X123824000Y-119060000D01*
X125730000Y-105110000D02*
X125730000Y-103886000D01*
X128802000Y-102278000D02*
X128830000Y-102250000D01*
X123825000Y-114111000D02*
X123825000Y-113115000D01*
X122660000Y-106000000D02*
X123270000Y-105390000D01*
X122660000Y-111950000D02*
X122660000Y-106000000D01*
X123270000Y-105390000D02*
X125450000Y-105390000D01*
X119280000Y-102360000D02*
X121740000Y-102360000D01*
%TO.N,NEO_GND*%
X121740000Y-111670000D02*
X121740000Y-104300000D01*
X127165000Y-127580000D02*
X124970000Y-127580000D01*
X134250000Y-99200000D02*
X134250000Y-97760000D01*
X128970000Y-111470000D02*
X128970000Y-109450000D01*
X124970000Y-127580000D02*
X124450000Y-127060000D01*
X122306500Y-117633500D02*
X122700000Y-117240000D01*
X119280000Y-104260000D02*
X121740000Y-104260000D01*
X135990000Y-106890000D02*
X135990000Y-100940000D01*
X127635000Y-119061000D02*
X127635000Y-114111000D01*
X124110000Y-120380000D02*
X120261000Y-120380000D01*
X119930000Y-120077600D02*
X119930000Y-117850000D01*
X120146500Y-117633500D02*
X122306500Y-117633500D01*
X135990000Y-100940000D02*
X134250000Y-99200000D01*
X119930000Y-120077600D02*
X119639700Y-120367900D01*
X135410000Y-107410000D02*
X133810000Y-107410000D01*
X121760000Y-104280000D02*
X124160000Y-104280000D01*
X130670000Y-107410000D02*
X130370000Y-107710000D01*
X119639700Y-120367900D02*
X117639600Y-120367900D01*
X128970000Y-108990000D02*
X129450000Y-108510000D01*
X124460000Y-124875000D02*
X124460000Y-120730000D01*
X116755000Y-120215000D02*
X116910000Y-120370000D01*
X133810000Y-107410000D02*
X130670000Y-107410000D01*
X131490000Y-113860000D02*
X131490000Y-112840000D01*
X119930000Y-117850000D02*
X120146500Y-117633500D01*
X130370000Y-107710000D02*
X130370000Y-108510000D01*
X122700000Y-113330000D02*
X121740000Y-112370000D01*
X124450000Y-124885000D02*
X124460000Y-124875000D01*
X127635000Y-112805000D02*
X128360000Y-112080000D01*
X120246700Y-120394300D02*
X119930000Y-120077600D01*
X122700000Y-117240000D02*
X122700000Y-113330000D01*
X131490000Y-113860000D02*
X132255000Y-113860000D01*
X128360000Y-112080000D02*
X128970000Y-111470000D01*
X135470000Y-107410000D02*
X135990000Y-106890000D01*
X129450000Y-108510000D02*
X130370000Y-108510000D01*
X117637500Y-120370000D02*
X117639600Y-120367900D01*
X116910000Y-120370000D02*
X117637500Y-120370000D01*
X127635000Y-114111000D02*
X127635000Y-112805000D01*
X128970000Y-109450000D02*
X128970000Y-108990000D01*
X132255000Y-113860000D02*
X133020000Y-113860000D01*
X134250000Y-97760000D02*
X134270000Y-97740000D01*
X132255000Y-113860000D02*
X132255000Y-116400000D01*
X116755000Y-119060000D02*
X116755000Y-120215000D01*
X135410000Y-107410000D02*
X135470000Y-107410000D01*
X131490000Y-112840000D02*
X130730000Y-112080000D01*
X132334000Y-116439500D02*
X132334000Y-122700000D01*
X124450000Y-127060000D02*
X124450000Y-124885000D01*
X121740000Y-112370000D02*
X121740000Y-111670000D01*
X130730000Y-112080000D02*
X128360000Y-112080000D01*
X120261000Y-120380000D02*
X120246700Y-120394300D01*
X124460000Y-120730000D02*
X124110000Y-120380000D01*
%TD*%
%TA.AperFunction,Conductor*%
%TO.N,VCC_OUT*%
G36*
X130234648Y-103647862D02*
G01*
X130585648Y-103998862D01*
X130600000Y-104033510D01*
X130600000Y-104324290D01*
X130585648Y-104358938D01*
X130380038Y-104564548D01*
X130345390Y-104578900D01*
X130054610Y-104578900D01*
X130019962Y-104564548D01*
X129814352Y-104358938D01*
X129800000Y-104324290D01*
X129800000Y-104033510D01*
X129814352Y-103998862D01*
X130165352Y-103647862D01*
X130200000Y-103633510D01*
X130234648Y-103647862D01*
G37*
%TD.AperFunction*%
%TD*%
%TA.AperFunction,Conductor*%
%TO.N,5V-MCU*%
G36*
X131534648Y-103645962D02*
G01*
X131885648Y-103996962D01*
X131900000Y-104031610D01*
X131900000Y-104322390D01*
X131885648Y-104357038D01*
X131680038Y-104562648D01*
X131645390Y-104577000D01*
X131354610Y-104577000D01*
X131319962Y-104562648D01*
X131114352Y-104357038D01*
X131100000Y-104322390D01*
X131100000Y-104031610D01*
X131114352Y-103996962D01*
X131465352Y-103645962D01*
X131500000Y-103631610D01*
X131534648Y-103645962D01*
G37*
%TD.AperFunction*%
%TD*%
%TA.AperFunction,Conductor*%
%TO.N,D7_RX*%
G36*
X119380038Y-105008952D02*
G01*
X119585648Y-105214562D01*
X119600000Y-105249210D01*
X119600000Y-105539990D01*
X119585648Y-105574638D01*
X119234648Y-105925638D01*
X119200000Y-105939990D01*
X119165352Y-105925638D01*
X118814352Y-105574638D01*
X118800000Y-105539990D01*
X118800000Y-105249210D01*
X118814352Y-105214562D01*
X119019962Y-105008952D01*
X119054610Y-104994600D01*
X119345390Y-104994600D01*
X119380038Y-105008952D01*
G37*
%TD.AperFunction*%
%TD*%
%TA.AperFunction,Conductor*%
%TO.N,D2*%
G36*
X127358648Y-110227952D02*
G01*
X127373000Y-110262600D01*
X127373000Y-110758990D01*
X127358648Y-110793638D01*
X127153038Y-110999248D01*
X127118390Y-111013600D01*
X126827610Y-111013600D01*
X126792962Y-110999248D01*
X126587352Y-110793638D01*
X126573000Y-110758990D01*
X126573000Y-110468210D01*
X126587352Y-110433562D01*
X126792962Y-110227952D01*
X126827610Y-110213600D01*
X127324000Y-110213600D01*
X127358648Y-110227952D01*
G37*
%TD.AperFunction*%
%TD*%
%TA.AperFunction,Conductor*%
%TO.N,KNX_TX*%
G36*
X118210038Y-108754352D02*
G01*
X118415648Y-108959962D01*
X118430000Y-108994610D01*
X118430000Y-109285390D01*
X118415648Y-109320038D01*
X118064648Y-109671038D01*
X118030000Y-109685390D01*
X117995352Y-109671038D01*
X117644352Y-109320038D01*
X117630000Y-109285390D01*
X117630000Y-108994610D01*
X117644352Y-108959962D01*
X117849962Y-108754352D01*
X117884610Y-108740000D01*
X118175390Y-108740000D01*
X118210038Y-108754352D01*
G37*
%TD.AperFunction*%
%TD*%
%TA.AperFunction,Conductor*%
%TO.N,D3*%
G36*
X123764648Y-110738962D02*
G01*
X124115648Y-111089962D01*
X124130000Y-111124610D01*
X124130000Y-111415390D01*
X124115648Y-111450038D01*
X123910038Y-111655648D01*
X123875390Y-111670000D01*
X123584610Y-111670000D01*
X123549962Y-111655648D01*
X123344352Y-111450038D01*
X123330000Y-111415390D01*
X123330000Y-111124610D01*
X123344352Y-111089962D01*
X123695352Y-110738962D01*
X123730000Y-110724610D01*
X123764648Y-110738962D01*
G37*
%TD.AperFunction*%
%TD*%
%TA.AperFunction,Conductor*%
%TO.N,NEO_GND*%
G36*
X129004648Y-108918962D02*
G01*
X129355648Y-109269962D01*
X129370000Y-109304610D01*
X129370000Y-109595390D01*
X129355648Y-109630038D01*
X129004648Y-109981038D01*
X128970000Y-109995390D01*
X128935352Y-109981038D01*
X128584352Y-109630038D01*
X128570000Y-109595390D01*
X128570000Y-109304610D01*
X128584352Y-109269962D01*
X128935352Y-108918962D01*
X128970000Y-108904610D01*
X129004648Y-108918962D01*
G37*
%TD.AperFunction*%
%TD*%
%TA.AperFunction,Conductor*%
%TO.N,D1*%
G36*
X127799248Y-110755962D02*
G01*
X128150248Y-111106962D01*
X128164600Y-111141610D01*
X128164600Y-111432390D01*
X128150248Y-111467038D01*
X127944638Y-111672648D01*
X127909990Y-111687000D01*
X127619210Y-111687000D01*
X127584562Y-111672648D01*
X127378952Y-111467038D01*
X127364600Y-111432390D01*
X127364600Y-111141610D01*
X127378952Y-111106962D01*
X127729952Y-110755962D01*
X127764600Y-110741610D01*
X127799248Y-110755962D01*
G37*
%TD.AperFunction*%
%TD*%
%TA.AperFunction,Conductor*%
%TO.N,VCC_OUT*%
G36*
X135524648Y-119328962D02*
G01*
X135875648Y-119679962D01*
X135890000Y-119714610D01*
X135890000Y-120005390D01*
X135875648Y-120040038D01*
X135670038Y-120245648D01*
X135635390Y-120260000D01*
X135139000Y-120260000D01*
X135104352Y-120245648D01*
X135090000Y-120211000D01*
X135090000Y-119714610D01*
X135104352Y-119679962D01*
X135455352Y-119328962D01*
X135490000Y-119314610D01*
X135524648Y-119328962D01*
G37*
%TD.AperFunction*%
%TD*%
%TA.AperFunction,Conductor*%
%TO.N,KNX_GND*%
G36*
X115454648Y-112648962D02*
G01*
X115805648Y-112999962D01*
X115820000Y-113034610D01*
X115820000Y-113325390D01*
X115805648Y-113360038D01*
X115454648Y-113711038D01*
X115420000Y-113725390D01*
X115385352Y-113711038D01*
X115034352Y-113360038D01*
X115020000Y-113325390D01*
X115020000Y-113034610D01*
X115034352Y-112999962D01*
X115385352Y-112648962D01*
X115420000Y-112634610D01*
X115454648Y-112648962D01*
G37*
%TD.AperFunction*%
%TD*%
%TA.AperFunction,Conductor*%
%TO.N,D4_SDA*%
G36*
X125275038Y-112142852D02*
G01*
X125480648Y-112348462D01*
X125495000Y-112383110D01*
X125495000Y-112673890D01*
X125480648Y-112708538D01*
X125129648Y-113059538D01*
X125095000Y-113073890D01*
X125060352Y-113059538D01*
X124709352Y-112708538D01*
X124695000Y-112673890D01*
X124695000Y-112383110D01*
X124709352Y-112348462D01*
X124914962Y-112142852D01*
X124949610Y-112128500D01*
X125240390Y-112128500D01*
X125275038Y-112142852D01*
G37*
%TD.AperFunction*%
%TD*%
%TA.AperFunction,Conductor*%
%TO.N,5V-MCU*%
G36*
X131534648Y-103645962D02*
G01*
X131885648Y-103996962D01*
X131900000Y-104031610D01*
X131900000Y-104322390D01*
X131885648Y-104357038D01*
X131680038Y-104562648D01*
X131645390Y-104577000D01*
X131354610Y-104577000D01*
X131319962Y-104562648D01*
X131114352Y-104357038D01*
X131100000Y-104322390D01*
X131100000Y-104031610D01*
X131114352Y-103996962D01*
X131465352Y-103645962D01*
X131500000Y-103631610D01*
X131534648Y-103645962D01*
G37*
%TD.AperFunction*%
%TD*%
%TA.AperFunction,Conductor*%
%TO.N,D2*%
G36*
X127358648Y-110227952D02*
G01*
X127373000Y-110262600D01*
X127373000Y-110758990D01*
X127358648Y-110793638D01*
X127153038Y-110999248D01*
X127118390Y-111013600D01*
X126827610Y-111013600D01*
X126792962Y-110999248D01*
X126587352Y-110793638D01*
X126573000Y-110758990D01*
X126573000Y-110468210D01*
X126587352Y-110433562D01*
X126792962Y-110227952D01*
X126827610Y-110213600D01*
X127324000Y-110213600D01*
X127358648Y-110227952D01*
G37*
%TD.AperFunction*%
%TD*%
%TA.AperFunction,Conductor*%
%TO.N,D4_SDA*%
G36*
X125275038Y-112142852D02*
G01*
X125480648Y-112348462D01*
X125495000Y-112383110D01*
X125495000Y-112673890D01*
X125480648Y-112708538D01*
X125129648Y-113059538D01*
X125095000Y-113073890D01*
X125060352Y-113059538D01*
X124709352Y-112708538D01*
X124695000Y-112673890D01*
X124695000Y-112383110D01*
X124709352Y-112348462D01*
X124914962Y-112142852D01*
X124949610Y-112128500D01*
X125240390Y-112128500D01*
X125275038Y-112142852D01*
G37*
%TD.AperFunction*%
%TD*%
%TA.AperFunction,Conductor*%
%TO.N,D7_RX*%
G36*
X119380038Y-105008952D02*
G01*
X119585648Y-105214562D01*
X119600000Y-105249210D01*
X119600000Y-105539990D01*
X119585648Y-105574638D01*
X119234648Y-105925638D01*
X119200000Y-105939990D01*
X119165352Y-105925638D01*
X118814352Y-105574638D01*
X118800000Y-105539990D01*
X118800000Y-105249210D01*
X118814352Y-105214562D01*
X119019962Y-105008952D01*
X119054610Y-104994600D01*
X119345390Y-104994600D01*
X119380038Y-105008952D01*
G37*
%TD.AperFunction*%
%TD*%
%TA.AperFunction,Conductor*%
%TO.N,KNX_3V3*%
G36*
X120380038Y-107964352D02*
G01*
X120585648Y-108169962D01*
X120600000Y-108204610D01*
X120600000Y-108701000D01*
X120585648Y-108735648D01*
X120551000Y-108750000D01*
X120054610Y-108750000D01*
X120019962Y-108735648D01*
X119814352Y-108530038D01*
X119800000Y-108495390D01*
X119800000Y-108204610D01*
X119814352Y-108169962D01*
X120019962Y-107964352D01*
X120054610Y-107950000D01*
X120345390Y-107950000D01*
X120380038Y-107964352D01*
G37*
%TD.AperFunction*%
%TD*%
%TA.AperFunction,Conductor*%
%TO.N,KNX_GND*%
G36*
X115454648Y-112648962D02*
G01*
X115805648Y-112999962D01*
X115820000Y-113034610D01*
X115820000Y-113325390D01*
X115805648Y-113360038D01*
X115454648Y-113711038D01*
X115420000Y-113725390D01*
X115385352Y-113711038D01*
X115034352Y-113360038D01*
X115020000Y-113325390D01*
X115020000Y-113034610D01*
X115034352Y-112999962D01*
X115385352Y-112648962D01*
X115420000Y-112634610D01*
X115454648Y-112648962D01*
G37*
%TD.AperFunction*%
%TD*%
%TA.AperFunction,Conductor*%
%TO.N,KNX_SAVE*%
G36*
X128812648Y-107558562D02*
G01*
X129163648Y-107909562D01*
X129178000Y-107944210D01*
X129178000Y-108234990D01*
X129163648Y-108269638D01*
X128958038Y-108475248D01*
X128923390Y-108489600D01*
X128632610Y-108489600D01*
X128597962Y-108475248D01*
X128392352Y-108269638D01*
X128378000Y-108234990D01*
X128378000Y-107944210D01*
X128392352Y-107909562D01*
X128743352Y-107558562D01*
X128778000Y-107544210D01*
X128812648Y-107558562D01*
G37*
%TD.AperFunction*%
%TD*%
%TA.AperFunction,Conductor*%
%TO.N,VCC_OUT*%
G36*
X135524648Y-119328962D02*
G01*
X135875648Y-119679962D01*
X135890000Y-119714610D01*
X135890000Y-120005390D01*
X135875648Y-120040038D01*
X135670038Y-120245648D01*
X135635390Y-120260000D01*
X135139000Y-120260000D01*
X135104352Y-120245648D01*
X135090000Y-120211000D01*
X135090000Y-119714610D01*
X135104352Y-119679962D01*
X135455352Y-119328962D01*
X135490000Y-119314610D01*
X135524648Y-119328962D01*
G37*
%TD.AperFunction*%
%TD*%
%TA.AperFunction,Conductor*%
%TO.N,NEO_GND*%
G36*
X121774648Y-111138962D02*
G01*
X122125648Y-111489962D01*
X122140000Y-111524610D01*
X122140000Y-111815390D01*
X122125648Y-111850038D01*
X121774648Y-112201038D01*
X121740000Y-112215390D01*
X121705352Y-112201038D01*
X121354352Y-111850038D01*
X121340000Y-111815390D01*
X121340000Y-111524610D01*
X121354352Y-111489962D01*
X121705352Y-111138962D01*
X121740000Y-111124610D01*
X121774648Y-111138962D01*
G37*
%TD.AperFunction*%
%TD*%
%TA.AperFunction,Conductor*%
%TO.N,KNX_RX*%
G36*
X119650038Y-110844352D02*
G01*
X119855648Y-111049962D01*
X119870000Y-111084610D01*
X119870000Y-111375390D01*
X119855648Y-111410038D01*
X119650038Y-111615648D01*
X119615390Y-111630000D01*
X119324610Y-111630000D01*
X119289962Y-111615648D01*
X119084352Y-111410038D01*
X119070000Y-111375390D01*
X119070000Y-111084610D01*
X119084352Y-111049962D01*
X119289962Y-110844352D01*
X119324610Y-110830000D01*
X119615390Y-110830000D01*
X119650038Y-110844352D01*
G37*
%TD.AperFunction*%
%TD*%
%TA.AperFunction,Conductor*%
%TO.N,D3*%
G36*
X123764648Y-110738962D02*
G01*
X124115648Y-111089962D01*
X124130000Y-111124610D01*
X124130000Y-111415390D01*
X124115648Y-111450038D01*
X123910038Y-111655648D01*
X123875390Y-111670000D01*
X123584610Y-111670000D01*
X123549962Y-111655648D01*
X123344352Y-111450038D01*
X123330000Y-111415390D01*
X123330000Y-111124610D01*
X123344352Y-111089962D01*
X123695352Y-110738962D01*
X123730000Y-110724610D01*
X123764648Y-110738962D01*
G37*
%TD.AperFunction*%
%TD*%
%TA.AperFunction,Conductor*%
%TO.N,D6_TX*%
G36*
X122150038Y-113644352D02*
G01*
X122355648Y-113849962D01*
X122370000Y-113884610D01*
X122370000Y-114175390D01*
X122355648Y-114210038D01*
X122004648Y-114561038D01*
X121970000Y-114575390D01*
X121935352Y-114561038D01*
X121584352Y-114210038D01*
X121570000Y-114175390D01*
X121570000Y-113884610D01*
X121584352Y-113849962D01*
X121789962Y-113644352D01*
X121824610Y-113630000D01*
X122115390Y-113630000D01*
X122150038Y-113644352D01*
G37*
%TD.AperFunction*%
%TD*%
%TA.AperFunction,Conductor*%
%TO.N,S_3V3*%
G36*
X125764648Y-103354962D02*
G01*
X126115648Y-103705962D01*
X126130000Y-103740610D01*
X126130000Y-104031390D01*
X126115648Y-104066038D01*
X125764648Y-104417038D01*
X125730000Y-104431390D01*
X125695352Y-104417038D01*
X125344352Y-104066038D01*
X125330000Y-104031390D01*
X125330000Y-103740610D01*
X125344352Y-103705962D01*
X125695352Y-103354962D01*
X125730000Y-103340610D01*
X125764648Y-103354962D01*
G37*
%TD.AperFunction*%
%TD*%
%TA.AperFunction,Conductor*%
%TO.N,S_3V3*%
G36*
X128836648Y-103330962D02*
G01*
X129187648Y-103681962D01*
X129202000Y-103716610D01*
X129202000Y-104007390D01*
X129187648Y-104042038D01*
X128982038Y-104247648D01*
X128947390Y-104262000D01*
X128656610Y-104262000D01*
X128621962Y-104247648D01*
X128416352Y-104042038D01*
X128402000Y-104007390D01*
X128402000Y-103716610D01*
X128416352Y-103681962D01*
X128767352Y-103330962D01*
X128802000Y-103316610D01*
X128836648Y-103330962D01*
G37*
%TD.AperFunction*%
%TD*%
%TA.AperFunction,Conductor*%
%TO.N,D5_SCL*%
G36*
X125148038Y-111120352D02*
G01*
X125499038Y-111471352D01*
X125513390Y-111506000D01*
X125499038Y-111540648D01*
X125148038Y-111891648D01*
X125113390Y-111906000D01*
X124822610Y-111906000D01*
X124787962Y-111891648D01*
X124582352Y-111686038D01*
X124568000Y-111651390D01*
X124568000Y-111360610D01*
X124582352Y-111325962D01*
X124787962Y-111120352D01*
X124822610Y-111106000D01*
X125113390Y-111106000D01*
X125148038Y-111120352D01*
G37*
%TD.AperFunction*%
%TD*%
%TA.AperFunction,Conductor*%
%TO.N,S_3V3*%
G36*
X128836648Y-103330962D02*
G01*
X129187648Y-103681962D01*
X129202000Y-103716610D01*
X129202000Y-104007390D01*
X129187648Y-104042038D01*
X128982038Y-104247648D01*
X128947390Y-104262000D01*
X128656610Y-104262000D01*
X128621962Y-104247648D01*
X128416352Y-104042038D01*
X128402000Y-104007390D01*
X128402000Y-103716610D01*
X128416352Y-103681962D01*
X128767352Y-103330962D01*
X128802000Y-103316610D01*
X128836648Y-103330962D01*
G37*
%TD.AperFunction*%
%TD*%
%TA.AperFunction,Conductor*%
%TO.N,NEO_GND*%
G36*
X121774648Y-111138962D02*
G01*
X122125648Y-111489962D01*
X122140000Y-111524610D01*
X122140000Y-111815390D01*
X122125648Y-111850038D01*
X121774648Y-112201038D01*
X121740000Y-112215390D01*
X121705352Y-112201038D01*
X121354352Y-111850038D01*
X121340000Y-111815390D01*
X121340000Y-111524610D01*
X121354352Y-111489962D01*
X121705352Y-111138962D01*
X121740000Y-111124610D01*
X121774648Y-111138962D01*
G37*
%TD.AperFunction*%
%TD*%
%TA.AperFunction,Conductor*%
%TO.N,KNX_TX*%
G36*
X118210038Y-108754352D02*
G01*
X118415648Y-108959962D01*
X118430000Y-108994610D01*
X118430000Y-109285390D01*
X118415648Y-109320038D01*
X118064648Y-109671038D01*
X118030000Y-109685390D01*
X117995352Y-109671038D01*
X117644352Y-109320038D01*
X117630000Y-109285390D01*
X117630000Y-108994610D01*
X117644352Y-108959962D01*
X117849962Y-108754352D01*
X117884610Y-108740000D01*
X118175390Y-108740000D01*
X118210038Y-108754352D01*
G37*
%TD.AperFunction*%
%TD*%
%TA.AperFunction,Conductor*%
%TO.N,KNX_SAVE*%
G36*
X128812648Y-107558562D02*
G01*
X129163648Y-107909562D01*
X129178000Y-107944210D01*
X129178000Y-108234990D01*
X129163648Y-108269638D01*
X128958038Y-108475248D01*
X128923390Y-108489600D01*
X128632610Y-108489600D01*
X128597962Y-108475248D01*
X128392352Y-108269638D01*
X128378000Y-108234990D01*
X128378000Y-107944210D01*
X128392352Y-107909562D01*
X128743352Y-107558562D01*
X128778000Y-107544210D01*
X128812648Y-107558562D01*
G37*
%TD.AperFunction*%
%TD*%
%TA.AperFunction,Conductor*%
%TO.N,D0*%
G36*
X131131357Y-110829940D02*
G01*
X131336967Y-111035550D01*
X131351319Y-111070198D01*
X131351319Y-111566588D01*
X131336967Y-111601236D01*
X131302319Y-111615588D01*
X130805929Y-111615588D01*
X130771281Y-111601236D01*
X130565671Y-111395626D01*
X130551319Y-111360978D01*
X130551319Y-110864588D01*
X130565671Y-110829940D01*
X130600319Y-110815588D01*
X131096709Y-110815588D01*
X131131357Y-110829940D01*
G37*
%TD.AperFunction*%
%TD*%
%TA.AperFunction,Conductor*%
%TO.N,D10*%
G36*
X130215638Y-105800852D02*
G01*
X130566638Y-106151852D01*
X130580990Y-106186500D01*
X130566638Y-106221148D01*
X130215638Y-106572148D01*
X130180990Y-106586500D01*
X129890210Y-106586500D01*
X129855562Y-106572148D01*
X129649952Y-106366538D01*
X129635600Y-106331890D01*
X129635600Y-106041110D01*
X129649952Y-106006462D01*
X129855562Y-105800852D01*
X129890210Y-105786500D01*
X130180990Y-105786500D01*
X130215638Y-105800852D01*
G37*
%TD.AperFunction*%
%TD*%
%TA.AperFunction,Conductor*%
%TO.N,S_3V3*%
G36*
X125764648Y-103354962D02*
G01*
X126115648Y-103705962D01*
X126130000Y-103740610D01*
X126130000Y-104031390D01*
X126115648Y-104066038D01*
X125764648Y-104417038D01*
X125730000Y-104431390D01*
X125695352Y-104417038D01*
X125344352Y-104066038D01*
X125330000Y-104031390D01*
X125330000Y-103740610D01*
X125344352Y-103705962D01*
X125695352Y-103354962D01*
X125730000Y-103340610D01*
X125764648Y-103354962D01*
G37*
%TD.AperFunction*%
%TD*%
%TA.AperFunction,Conductor*%
%TO.N,NEO_GND*%
G36*
X129004648Y-108918962D02*
G01*
X129355648Y-109269962D01*
X129370000Y-109304610D01*
X129370000Y-109595390D01*
X129355648Y-109630038D01*
X129004648Y-109981038D01*
X128970000Y-109995390D01*
X128935352Y-109981038D01*
X128584352Y-109630038D01*
X128570000Y-109595390D01*
X128570000Y-109304610D01*
X128584352Y-109269962D01*
X128935352Y-108918962D01*
X128970000Y-108904610D01*
X129004648Y-108918962D01*
G37*
%TD.AperFunction*%
%TD*%
%TA.AperFunction,Conductor*%
%TO.N,D5_SCL*%
G36*
X125148038Y-111120352D02*
G01*
X125499038Y-111471352D01*
X125513390Y-111506000D01*
X125499038Y-111540648D01*
X125148038Y-111891648D01*
X125113390Y-111906000D01*
X124822610Y-111906000D01*
X124787962Y-111891648D01*
X124582352Y-111686038D01*
X124568000Y-111651390D01*
X124568000Y-111360610D01*
X124582352Y-111325962D01*
X124787962Y-111120352D01*
X124822610Y-111106000D01*
X125113390Y-111106000D01*
X125148038Y-111120352D01*
G37*
%TD.AperFunction*%
%TD*%
%TA.AperFunction,Conductor*%
%TO.N,D10*%
G36*
X130215638Y-105800852D02*
G01*
X130566638Y-106151852D01*
X130580990Y-106186500D01*
X130566638Y-106221148D01*
X130215638Y-106572148D01*
X130180990Y-106586500D01*
X129890210Y-106586500D01*
X129855562Y-106572148D01*
X129649952Y-106366538D01*
X129635600Y-106331890D01*
X129635600Y-106041110D01*
X129649952Y-106006462D01*
X129855562Y-105800852D01*
X129890210Y-105786500D01*
X130180990Y-105786500D01*
X130215638Y-105800852D01*
G37*
%TD.AperFunction*%
%TD*%
%TA.AperFunction,Conductor*%
%TO.N,D1*%
G36*
X127799248Y-110755962D02*
G01*
X128150248Y-111106962D01*
X128164600Y-111141610D01*
X128164600Y-111432390D01*
X128150248Y-111467038D01*
X127944638Y-111672648D01*
X127909990Y-111687000D01*
X127619210Y-111687000D01*
X127584562Y-111672648D01*
X127378952Y-111467038D01*
X127364600Y-111432390D01*
X127364600Y-111141610D01*
X127378952Y-111106962D01*
X127729952Y-110755962D01*
X127764600Y-110741610D01*
X127799248Y-110755962D01*
G37*
%TD.AperFunction*%
%TD*%
%TA.AperFunction,Conductor*%
%TO.N,KNX_RX*%
G36*
X119650038Y-110844352D02*
G01*
X119855648Y-111049962D01*
X119870000Y-111084610D01*
X119870000Y-111375390D01*
X119855648Y-111410038D01*
X119650038Y-111615648D01*
X119615390Y-111630000D01*
X119324610Y-111630000D01*
X119289962Y-111615648D01*
X119084352Y-111410038D01*
X119070000Y-111375390D01*
X119070000Y-111084610D01*
X119084352Y-111049962D01*
X119289962Y-110844352D01*
X119324610Y-110830000D01*
X119615390Y-110830000D01*
X119650038Y-110844352D01*
G37*
%TD.AperFunction*%
%TD*%
%TA.AperFunction,Conductor*%
%TO.N,KNX_3V3*%
G36*
X120380038Y-107964352D02*
G01*
X120585648Y-108169962D01*
X120600000Y-108204610D01*
X120600000Y-108701000D01*
X120585648Y-108735648D01*
X120551000Y-108750000D01*
X120054610Y-108750000D01*
X120019962Y-108735648D01*
X119814352Y-108530038D01*
X119800000Y-108495390D01*
X119800000Y-108204610D01*
X119814352Y-108169962D01*
X120019962Y-107964352D01*
X120054610Y-107950000D01*
X120345390Y-107950000D01*
X120380038Y-107964352D01*
G37*
%TD.AperFunction*%
%TD*%
%TA.AperFunction,Conductor*%
%TO.N,D6_TX*%
G36*
X122150038Y-113644352D02*
G01*
X122355648Y-113849962D01*
X122370000Y-113884610D01*
X122370000Y-114175390D01*
X122355648Y-114210038D01*
X122004648Y-114561038D01*
X121970000Y-114575390D01*
X121935352Y-114561038D01*
X121584352Y-114210038D01*
X121570000Y-114175390D01*
X121570000Y-113884610D01*
X121584352Y-113849962D01*
X121789962Y-113644352D01*
X121824610Y-113630000D01*
X122115390Y-113630000D01*
X122150038Y-113644352D01*
G37*
%TD.AperFunction*%
%TD*%
%TA.AperFunction,Conductor*%
%TO.N,VCC_OUT*%
G36*
X130234648Y-103647862D02*
G01*
X130585648Y-103998862D01*
X130600000Y-104033510D01*
X130600000Y-104324290D01*
X130585648Y-104358938D01*
X130380038Y-104564548D01*
X130345390Y-104578900D01*
X130054610Y-104578900D01*
X130019962Y-104564548D01*
X129814352Y-104358938D01*
X129800000Y-104324290D01*
X129800000Y-104033510D01*
X129814352Y-103998862D01*
X130165352Y-103647862D01*
X130200000Y-103633510D01*
X130234648Y-103647862D01*
G37*
%TD.AperFunction*%
%TD*%
%TA.AperFunction,Conductor*%
%TO.N,D0*%
G36*
X131131357Y-110829940D02*
G01*
X131336967Y-111035550D01*
X131351319Y-111070198D01*
X131351319Y-111566588D01*
X131336967Y-111601236D01*
X131302319Y-111615588D01*
X130805929Y-111615588D01*
X130771281Y-111601236D01*
X130565671Y-111395626D01*
X130551319Y-111360978D01*
X130551319Y-110864588D01*
X130565671Y-110829940D01*
X130600319Y-110815588D01*
X131096709Y-110815588D01*
X131131357Y-110829940D01*
G37*
%TD.AperFunction*%
%TD*%
M02*
