M48
; DRILL file {KiCad (7.0.0-0)} date Thursday, 23 February 2023 at 11:22:35
; FORMAT={-:-/ absolute / inch / decimal}
; #@! TF.CreationDate,2023-02-23T11:22:35+01:00
; #@! TF.GenerationSoftware,Kicad,Pcbnew,(7.0.0-0)
; #@! TF.FileFunction,Plated,1,4,PTH
FMAT,2
INCH
; #@! TA.AperFunction,Plated,PTH,ViaDrill
T1C0.0157
; #@! TA.AperFunction,Plated,PTH,ComponentDrill
T2C0.0197
; #@! TA.AperFunction,Plated,PTH,ComponentDrill
T3C0.0394
; #@! TA.AperFunction,Plated,PTH,ComponentDrill
T4C0.0433
; #@! TA.AperFunction,Plated,PTH,ComponentDrill
T5C0.0472
; #@! TA.AperFunction,Plated,PTH,ComponentDrill
T6C0.0492
%
G90
G05
T1
X4.5118Y-4.2884
X4.5216Y-4.1841
X4.5399Y-4.3878
X4.5835Y-4.1276
X4.588Y-4.553
X4.6589Y-4.4902
X4.6609Y-4.1644
X4.6814Y-4.551
X4.7178Y-4.171
X4.757Y-4.3216
X4.757Y-4.3671
X4.7596Y-4.5344
X4.9337Y-4.1308
X4.9451Y-4.5295
X4.9508Y-4.72
X4.9911Y-4.4882
X4.9982Y-4.3216
X5.0451Y-4.5529
X5.0551Y-4.0728
X5.0591Y-4.8307
X5.0775Y-4.122
X5.1004Y-4.4315
X5.1006Y-4.7265
X5.1319Y-3.7868
X5.1594Y-4.7268
X5.1722Y-4.7844
X5.1736Y-4.4949
X5.1736Y-4.5461
X5.2229Y-4.098
X5.2469Y-4.7268
X5.2687Y-4.4949
X5.302Y-4.8803
X5.3089Y-3.9484
X5.3199Y-4.5
X5.3287Y-4.7106
X5.3327Y-4.5476
T2
X5.1043Y-4.8209
X5.1437Y-4.8209
X5.1831Y-4.8209
X5.2224Y-4.8209
X5.2618Y-4.8209
T3
X4.4543Y-4.037
X4.4543Y-4.137
X4.4543Y-4.237
X4.4543Y-4.337
X4.4543Y-4.437
X4.4543Y-4.537
X4.4543Y-4.637
T4
X4.4862Y-3.848
X4.5071Y-4.887
X4.5079Y-5.002
X4.5862Y-3.848
X4.6862Y-3.848
X4.7335Y-4.887
X4.7343Y-5.002
X4.7862Y-3.848
X4.8862Y-3.848
X4.9862Y-3.848
X5.0065Y-5.0228
X5.0862Y-3.848
X5.1065Y-5.0228
X5.1862Y-3.848
X5.2065Y-5.0228
X5.2862Y-3.848
X5.3065Y-5.0228
T5
X5.1908Y-4.2527
X5.1908Y-4.3527
X5.2908Y-4.2527
X5.2908Y-4.3527
T6
X4.5079Y-4.8878
X4.7343Y-4.8878
T0
M30
