%TF.GenerationSoftware,KiCad,Pcbnew,(7.0.0-0)*%
%TF.CreationDate,2023-02-22T23:04:00+01:00*%
%TF.ProjectId,KNeoPiX_v1.3,4b4e656f-5069-4585-9f76-312e332e6b69,rev?*%
%TF.SameCoordinates,Original*%
%TF.FileFunction,Legend,Top*%
%TF.FilePolarity,Positive*%
%FSLAX46Y46*%
G04 Gerber Fmt 4.6, Leading zero omitted, Abs format (unit mm)*
G04 Created by KiCad (PCBNEW (7.0.0-0)) date 2023-02-22 23:04:00*
%MOMM*%
%LPD*%
G01*
G04 APERTURE LIST*
G04 Aperture macros list*
%AMRoundRect*
0 Rectangle with rounded corners*
0 $1 Rounding radius*
0 $2 $3 $4 $5 $6 $7 $8 $9 X,Y pos of 4 corners*
0 Add a 4 corners polygon primitive as box body*
4,1,4,$2,$3,$4,$5,$6,$7,$8,$9,$2,$3,0*
0 Add four circle primitives for the rounded corners*
1,1,$1+$1,$2,$3*
1,1,$1+$1,$4,$5*
1,1,$1+$1,$6,$7*
1,1,$1+$1,$8,$9*
0 Add four rect primitives between the rounded corners*
20,1,$1+$1,$2,$3,$4,$5,0*
20,1,$1+$1,$4,$5,$6,$7,0*
20,1,$1+$1,$6,$7,$8,$9,0*
20,1,$1+$1,$8,$9,$2,$3,0*%
%AMFreePoly0*
4,1,19,0.550000,-0.750000,0.000000,-0.750000,0.000000,-0.744911,-0.071157,-0.744911,-0.207708,-0.704816,-0.327430,-0.627875,-0.420627,-0.520320,-0.479746,-0.390866,-0.500000,-0.250000,-0.500000,0.250000,-0.479746,0.390866,-0.420627,0.520320,-0.327430,0.627875,-0.207708,0.704816,-0.071157,0.744911,0.000000,0.744911,0.000000,0.750000,0.550000,0.750000,0.550000,-0.750000,0.550000,-0.750000,
$1*%
%AMFreePoly1*
4,1,19,0.000000,0.744911,0.071157,0.744911,0.207708,0.704816,0.327430,0.627875,0.420627,0.520320,0.479746,0.390866,0.500000,0.250000,0.500000,-0.250000,0.479746,-0.390866,0.420627,-0.520320,0.327430,-0.627875,0.207708,-0.704816,0.071157,-0.744911,0.000000,-0.744911,0.000000,-0.750000,-0.550000,-0.750000,-0.550000,0.750000,0.000000,0.750000,0.000000,0.744911,0.000000,0.744911,
$1*%
G04 Aperture macros list end*
%ADD10C,0.150000*%
%ADD11C,0.100000*%
%ADD12C,0.125000*%
%ADD13C,0.062500*%
%ADD14C,0.187500*%
%ADD15C,0.250000*%
%ADD16C,0.120000*%
%ADD17C,0.050000*%
%ADD18RoundRect,0.250000X-0.475000X0.250000X-0.475000X-0.250000X0.475000X-0.250000X0.475000X0.250000X0*%
%ADD19RoundRect,0.150000X-0.150000X-0.625000X0.150000X-0.625000X0.150000X0.625000X-0.150000X0.625000X0*%
%ADD20RoundRect,0.250000X-0.350000X-0.650000X0.350000X-0.650000X0.350000X0.650000X-0.350000X0.650000X0*%
%ADD21R,1.500000X2.000000*%
%ADD22R,3.800000X2.000000*%
%ADD23RoundRect,0.160000X-0.160000X0.197500X-0.160000X-0.197500X0.160000X-0.197500X0.160000X0.197500X0*%
%ADD24R,1.000000X1.500000*%
%ADD25RoundRect,0.160000X0.160000X-0.197500X0.160000X0.197500X-0.160000X0.197500X-0.160000X-0.197500X0*%
%ADD26RoundRect,0.250000X0.475000X-0.250000X0.475000X0.250000X-0.475000X0.250000X-0.475000X-0.250000X0*%
%ADD27C,1.875000*%
%ADD28R,0.850000X0.850000*%
%ADD29O,0.850000X0.850000*%
%ADD30R,2.200000X2.200000*%
%ADD31C,2.200000*%
%ADD32R,1.700000X1.700000*%
%ADD33O,1.700000X1.700000*%
%ADD34RoundRect,0.150000X0.150000X-0.825000X0.150000X0.825000X-0.150000X0.825000X-0.150000X-0.825000X0*%
%ADD35R,1.000000X0.900000*%
%ADD36C,2.500000*%
%ADD37FreePoly0,270.000000*%
%ADD38R,1.500000X1.000000*%
%ADD39FreePoly1,270.000000*%
G04 APERTURE END LIST*
D10*
X127218966Y-122420000D02*
G75*
G03*
X127218966Y-122420000I-691466J0D01*
G01*
X126543966Y-122145000D02*
G75*
G03*
X126543966Y-122145000I-691466J0D01*
G01*
X126902500Y-122620000D02*
G75*
G03*
X126902500Y-122620000I-25000J0D01*
G01*
D11*
X124847500Y-120730000D02*
X127512500Y-120730000D01*
X127512500Y-120730000D02*
X127512500Y-123505000D01*
X127512500Y-123505000D02*
X124847500Y-123505000D01*
X124847500Y-123505000D02*
X124847500Y-120730000D01*
D10*
X125477500Y-122195000D02*
G75*
G03*
X125477500Y-122195000I-25000J0D01*
G01*
X126577500Y-121345000D02*
G75*
G03*
X126577500Y-121345000I-25000J0D01*
G01*
X127093966Y-121720000D02*
G75*
G03*
X127093966Y-121720000I-691466J0D01*
G01*
D12*
%TO.C,C2*%
X124186666Y-103229821D02*
X124162857Y-103253630D01*
X124162857Y-103253630D02*
X124091428Y-103277440D01*
X124091428Y-103277440D02*
X124043809Y-103277440D01*
X124043809Y-103277440D02*
X123972381Y-103253630D01*
X123972381Y-103253630D02*
X123924762Y-103206011D01*
X123924762Y-103206011D02*
X123900952Y-103158392D01*
X123900952Y-103158392D02*
X123877143Y-103063154D01*
X123877143Y-103063154D02*
X123877143Y-102991726D01*
X123877143Y-102991726D02*
X123900952Y-102896488D01*
X123900952Y-102896488D02*
X123924762Y-102848869D01*
X123924762Y-102848869D02*
X123972381Y-102801250D01*
X123972381Y-102801250D02*
X124043809Y-102777440D01*
X124043809Y-102777440D02*
X124091428Y-102777440D01*
X124091428Y-102777440D02*
X124162857Y-102801250D01*
X124162857Y-102801250D02*
X124186666Y-102825059D01*
X124377143Y-102825059D02*
X124400952Y-102801250D01*
X124400952Y-102801250D02*
X124448571Y-102777440D01*
X124448571Y-102777440D02*
X124567619Y-102777440D01*
X124567619Y-102777440D02*
X124615238Y-102801250D01*
X124615238Y-102801250D02*
X124639047Y-102825059D01*
X124639047Y-102825059D02*
X124662857Y-102872678D01*
X124662857Y-102872678D02*
X124662857Y-102920297D01*
X124662857Y-102920297D02*
X124639047Y-102991726D01*
X124639047Y-102991726D02*
X124353333Y-103277440D01*
X124353333Y-103277440D02*
X124662857Y-103277440D01*
%TO.C,J5*%
X129358333Y-120983690D02*
X129358333Y-121340833D01*
X129358333Y-121340833D02*
X129334524Y-121412261D01*
X129334524Y-121412261D02*
X129286905Y-121459880D01*
X129286905Y-121459880D02*
X129215476Y-121483690D01*
X129215476Y-121483690D02*
X129167857Y-121483690D01*
X129834523Y-120983690D02*
X129596428Y-120983690D01*
X129596428Y-120983690D02*
X129572619Y-121221785D01*
X129572619Y-121221785D02*
X129596428Y-121197976D01*
X129596428Y-121197976D02*
X129644047Y-121174166D01*
X129644047Y-121174166D02*
X129763095Y-121174166D01*
X129763095Y-121174166D02*
X129810714Y-121197976D01*
X129810714Y-121197976D02*
X129834523Y-121221785D01*
X129834523Y-121221785D02*
X129858333Y-121269404D01*
X129858333Y-121269404D02*
X129858333Y-121388452D01*
X129858333Y-121388452D02*
X129834523Y-121436071D01*
X129834523Y-121436071D02*
X129810714Y-121459880D01*
X129810714Y-121459880D02*
X129763095Y-121483690D01*
X129763095Y-121483690D02*
X129644047Y-121483690D01*
X129644047Y-121483690D02*
X129596428Y-121459880D01*
X129596428Y-121459880D02*
X129572619Y-121436071D01*
%TO.C,U2*%
X124069047Y-114008690D02*
X124069047Y-114413452D01*
X124069047Y-114413452D02*
X124092857Y-114461071D01*
X124092857Y-114461071D02*
X124116666Y-114484880D01*
X124116666Y-114484880D02*
X124164285Y-114508690D01*
X124164285Y-114508690D02*
X124259523Y-114508690D01*
X124259523Y-114508690D02*
X124307142Y-114484880D01*
X124307142Y-114484880D02*
X124330952Y-114461071D01*
X124330952Y-114461071D02*
X124354761Y-114413452D01*
X124354761Y-114413452D02*
X124354761Y-114008690D01*
X124569048Y-114056309D02*
X124592857Y-114032500D01*
X124592857Y-114032500D02*
X124640476Y-114008690D01*
X124640476Y-114008690D02*
X124759524Y-114008690D01*
X124759524Y-114008690D02*
X124807143Y-114032500D01*
X124807143Y-114032500D02*
X124830952Y-114056309D01*
X124830952Y-114056309D02*
X124854762Y-114103928D01*
X124854762Y-114103928D02*
X124854762Y-114151547D01*
X124854762Y-114151547D02*
X124830952Y-114222976D01*
X124830952Y-114222976D02*
X124545238Y-114508690D01*
X124545238Y-114508690D02*
X124854762Y-114508690D01*
X121907143Y-113408690D02*
X121669048Y-113408690D01*
X121669048Y-113408690D02*
X121669048Y-112908690D01*
X122073810Y-113408690D02*
X122073810Y-112908690D01*
X122073810Y-112908690D02*
X122240477Y-113265833D01*
X122240477Y-113265833D02*
X122407143Y-112908690D01*
X122407143Y-112908690D02*
X122407143Y-113408690D01*
X122621430Y-112956309D02*
X122645239Y-112932500D01*
X122645239Y-112932500D02*
X122692858Y-112908690D01*
X122692858Y-112908690D02*
X122811906Y-112908690D01*
X122811906Y-112908690D02*
X122859525Y-112932500D01*
X122859525Y-112932500D02*
X122883334Y-112956309D01*
X122883334Y-112956309D02*
X122907144Y-113003928D01*
X122907144Y-113003928D02*
X122907144Y-113051547D01*
X122907144Y-113051547D02*
X122883334Y-113122976D01*
X122883334Y-113122976D02*
X122597620Y-113408690D01*
X122597620Y-113408690D02*
X122907144Y-113408690D01*
X123145239Y-113408690D02*
X123240477Y-113408690D01*
X123240477Y-113408690D02*
X123288096Y-113384880D01*
X123288096Y-113384880D02*
X123311905Y-113361071D01*
X123311905Y-113361071D02*
X123359524Y-113289642D01*
X123359524Y-113289642D02*
X123383334Y-113194404D01*
X123383334Y-113194404D02*
X123383334Y-113003928D01*
X123383334Y-113003928D02*
X123359524Y-112956309D01*
X123359524Y-112956309D02*
X123335715Y-112932500D01*
X123335715Y-112932500D02*
X123288096Y-112908690D01*
X123288096Y-112908690D02*
X123192858Y-112908690D01*
X123192858Y-112908690D02*
X123145239Y-112932500D01*
X123145239Y-112932500D02*
X123121429Y-112956309D01*
X123121429Y-112956309D02*
X123097620Y-113003928D01*
X123097620Y-113003928D02*
X123097620Y-113122976D01*
X123097620Y-113122976D02*
X123121429Y-113170595D01*
X123121429Y-113170595D02*
X123145239Y-113194404D01*
X123145239Y-113194404D02*
X123192858Y-113218214D01*
X123192858Y-113218214D02*
X123288096Y-113218214D01*
X123288096Y-113218214D02*
X123335715Y-113194404D01*
X123335715Y-113194404D02*
X123359524Y-113170595D01*
X123359524Y-113170595D02*
X123383334Y-113122976D01*
X123550000Y-112908690D02*
X123859524Y-112908690D01*
X123859524Y-112908690D02*
X123692857Y-113099166D01*
X123692857Y-113099166D02*
X123764286Y-113099166D01*
X123764286Y-113099166D02*
X123811905Y-113122976D01*
X123811905Y-113122976D02*
X123835714Y-113146785D01*
X123835714Y-113146785D02*
X123859524Y-113194404D01*
X123859524Y-113194404D02*
X123859524Y-113313452D01*
X123859524Y-113313452D02*
X123835714Y-113361071D01*
X123835714Y-113361071D02*
X123811905Y-113384880D01*
X123811905Y-113384880D02*
X123764286Y-113408690D01*
X123764286Y-113408690D02*
X123621429Y-113408690D01*
X123621429Y-113408690D02*
X123573810Y-113384880D01*
X123573810Y-113384880D02*
X123550000Y-113361071D01*
X124026190Y-112908690D02*
X124359523Y-112908690D01*
X124359523Y-112908690D02*
X124145238Y-113408690D01*
X124549999Y-113408690D02*
X124549999Y-112908690D01*
X124788094Y-113408690D02*
X124788094Y-112908690D01*
X124788094Y-112908690D02*
X124954761Y-113265833D01*
X124954761Y-113265833D02*
X125121427Y-112908690D01*
X125121427Y-112908690D02*
X125121427Y-113408690D01*
X125359523Y-113408690D02*
X125359523Y-112908690D01*
X125359523Y-112908690D02*
X125549999Y-112908690D01*
X125549999Y-112908690D02*
X125597618Y-112932500D01*
X125597618Y-112932500D02*
X125621428Y-112956309D01*
X125621428Y-112956309D02*
X125645237Y-113003928D01*
X125645237Y-113003928D02*
X125645237Y-113075357D01*
X125645237Y-113075357D02*
X125621428Y-113122976D01*
X125621428Y-113122976D02*
X125597618Y-113146785D01*
X125597618Y-113146785D02*
X125549999Y-113170595D01*
X125549999Y-113170595D02*
X125359523Y-113170595D01*
X125859523Y-113218214D02*
X126240476Y-113218214D01*
X126716666Y-112908690D02*
X126478571Y-112908690D01*
X126478571Y-112908690D02*
X126454762Y-113146785D01*
X126454762Y-113146785D02*
X126478571Y-113122976D01*
X126478571Y-113122976D02*
X126526190Y-113099166D01*
X126526190Y-113099166D02*
X126645238Y-113099166D01*
X126645238Y-113099166D02*
X126692857Y-113122976D01*
X126692857Y-113122976D02*
X126716666Y-113146785D01*
X126716666Y-113146785D02*
X126740476Y-113194404D01*
X126740476Y-113194404D02*
X126740476Y-113313452D01*
X126740476Y-113313452D02*
X126716666Y-113361071D01*
X126716666Y-113361071D02*
X126692857Y-113384880D01*
X126692857Y-113384880D02*
X126645238Y-113408690D01*
X126645238Y-113408690D02*
X126526190Y-113408690D01*
X126526190Y-113408690D02*
X126478571Y-113384880D01*
X126478571Y-113384880D02*
X126454762Y-113361071D01*
X126954761Y-113361071D02*
X126978571Y-113384880D01*
X126978571Y-113384880D02*
X126954761Y-113408690D01*
X126954761Y-113408690D02*
X126930952Y-113384880D01*
X126930952Y-113384880D02*
X126954761Y-113361071D01*
X126954761Y-113361071D02*
X126954761Y-113408690D01*
X127288094Y-112908690D02*
X127335713Y-112908690D01*
X127335713Y-112908690D02*
X127383332Y-112932500D01*
X127383332Y-112932500D02*
X127407142Y-112956309D01*
X127407142Y-112956309D02*
X127430951Y-113003928D01*
X127430951Y-113003928D02*
X127454761Y-113099166D01*
X127454761Y-113099166D02*
X127454761Y-113218214D01*
X127454761Y-113218214D02*
X127430951Y-113313452D01*
X127430951Y-113313452D02*
X127407142Y-113361071D01*
X127407142Y-113361071D02*
X127383332Y-113384880D01*
X127383332Y-113384880D02*
X127335713Y-113408690D01*
X127335713Y-113408690D02*
X127288094Y-113408690D01*
X127288094Y-113408690D02*
X127240475Y-113384880D01*
X127240475Y-113384880D02*
X127216666Y-113361071D01*
X127216666Y-113361071D02*
X127192856Y-113313452D01*
X127192856Y-113313452D02*
X127169047Y-113218214D01*
X127169047Y-113218214D02*
X127169047Y-113099166D01*
X127169047Y-113099166D02*
X127192856Y-113003928D01*
X127192856Y-113003928D02*
X127216666Y-112956309D01*
X127216666Y-112956309D02*
X127240475Y-112932500D01*
X127240475Y-112932500D02*
X127288094Y-112908690D01*
X121898143Y-112558690D02*
X121660048Y-112558690D01*
X121660048Y-112558690D02*
X121660048Y-112058690D01*
X122064810Y-112558690D02*
X122064810Y-112058690D01*
X122064810Y-112058690D02*
X122231477Y-112415833D01*
X122231477Y-112415833D02*
X122398143Y-112058690D01*
X122398143Y-112058690D02*
X122398143Y-112558690D01*
X122612430Y-112106309D02*
X122636239Y-112082500D01*
X122636239Y-112082500D02*
X122683858Y-112058690D01*
X122683858Y-112058690D02*
X122802906Y-112058690D01*
X122802906Y-112058690D02*
X122850525Y-112082500D01*
X122850525Y-112082500D02*
X122874334Y-112106309D01*
X122874334Y-112106309D02*
X122898144Y-112153928D01*
X122898144Y-112153928D02*
X122898144Y-112201547D01*
X122898144Y-112201547D02*
X122874334Y-112272976D01*
X122874334Y-112272976D02*
X122588620Y-112558690D01*
X122588620Y-112558690D02*
X122898144Y-112558690D01*
X123136239Y-112558690D02*
X123231477Y-112558690D01*
X123231477Y-112558690D02*
X123279096Y-112534880D01*
X123279096Y-112534880D02*
X123302905Y-112511071D01*
X123302905Y-112511071D02*
X123350524Y-112439642D01*
X123350524Y-112439642D02*
X123374334Y-112344404D01*
X123374334Y-112344404D02*
X123374334Y-112153928D01*
X123374334Y-112153928D02*
X123350524Y-112106309D01*
X123350524Y-112106309D02*
X123326715Y-112082500D01*
X123326715Y-112082500D02*
X123279096Y-112058690D01*
X123279096Y-112058690D02*
X123183858Y-112058690D01*
X123183858Y-112058690D02*
X123136239Y-112082500D01*
X123136239Y-112082500D02*
X123112429Y-112106309D01*
X123112429Y-112106309D02*
X123088620Y-112153928D01*
X123088620Y-112153928D02*
X123088620Y-112272976D01*
X123088620Y-112272976D02*
X123112429Y-112320595D01*
X123112429Y-112320595D02*
X123136239Y-112344404D01*
X123136239Y-112344404D02*
X123183858Y-112368214D01*
X123183858Y-112368214D02*
X123279096Y-112368214D01*
X123279096Y-112368214D02*
X123326715Y-112344404D01*
X123326715Y-112344404D02*
X123350524Y-112320595D01*
X123350524Y-112320595D02*
X123374334Y-112272976D01*
X123541000Y-112058690D02*
X123850524Y-112058690D01*
X123850524Y-112058690D02*
X123683857Y-112249166D01*
X123683857Y-112249166D02*
X123755286Y-112249166D01*
X123755286Y-112249166D02*
X123802905Y-112272976D01*
X123802905Y-112272976D02*
X123826714Y-112296785D01*
X123826714Y-112296785D02*
X123850524Y-112344404D01*
X123850524Y-112344404D02*
X123850524Y-112463452D01*
X123850524Y-112463452D02*
X123826714Y-112511071D01*
X123826714Y-112511071D02*
X123802905Y-112534880D01*
X123802905Y-112534880D02*
X123755286Y-112558690D01*
X123755286Y-112558690D02*
X123612429Y-112558690D01*
X123612429Y-112558690D02*
X123564810Y-112534880D01*
X123564810Y-112534880D02*
X123541000Y-112511071D01*
X124017190Y-112058690D02*
X124350523Y-112058690D01*
X124350523Y-112058690D02*
X124136238Y-112558690D01*
X124540999Y-112558690D02*
X124540999Y-112058690D01*
X124779094Y-112558690D02*
X124779094Y-112058690D01*
X124779094Y-112058690D02*
X124945761Y-112415833D01*
X124945761Y-112415833D02*
X125112427Y-112058690D01*
X125112427Y-112058690D02*
X125112427Y-112558690D01*
X125350523Y-112558690D02*
X125350523Y-112058690D01*
X125350523Y-112058690D02*
X125540999Y-112058690D01*
X125540999Y-112058690D02*
X125588618Y-112082500D01*
X125588618Y-112082500D02*
X125612428Y-112106309D01*
X125612428Y-112106309D02*
X125636237Y-112153928D01*
X125636237Y-112153928D02*
X125636237Y-112225357D01*
X125636237Y-112225357D02*
X125612428Y-112272976D01*
X125612428Y-112272976D02*
X125588618Y-112296785D01*
X125588618Y-112296785D02*
X125540999Y-112320595D01*
X125540999Y-112320595D02*
X125350523Y-112320595D01*
X125850523Y-112368214D02*
X126231476Y-112368214D01*
X126421952Y-112058690D02*
X126731476Y-112058690D01*
X126731476Y-112058690D02*
X126564809Y-112249166D01*
X126564809Y-112249166D02*
X126636238Y-112249166D01*
X126636238Y-112249166D02*
X126683857Y-112272976D01*
X126683857Y-112272976D02*
X126707666Y-112296785D01*
X126707666Y-112296785D02*
X126731476Y-112344404D01*
X126731476Y-112344404D02*
X126731476Y-112463452D01*
X126731476Y-112463452D02*
X126707666Y-112511071D01*
X126707666Y-112511071D02*
X126683857Y-112534880D01*
X126683857Y-112534880D02*
X126636238Y-112558690D01*
X126636238Y-112558690D02*
X126493381Y-112558690D01*
X126493381Y-112558690D02*
X126445762Y-112534880D01*
X126445762Y-112534880D02*
X126421952Y-112511071D01*
X126945761Y-112511071D02*
X126969571Y-112534880D01*
X126969571Y-112534880D02*
X126945761Y-112558690D01*
X126945761Y-112558690D02*
X126921952Y-112534880D01*
X126921952Y-112534880D02*
X126945761Y-112511071D01*
X126945761Y-112511071D02*
X126945761Y-112558690D01*
X127136237Y-112058690D02*
X127445761Y-112058690D01*
X127445761Y-112058690D02*
X127279094Y-112249166D01*
X127279094Y-112249166D02*
X127350523Y-112249166D01*
X127350523Y-112249166D02*
X127398142Y-112272976D01*
X127398142Y-112272976D02*
X127421951Y-112296785D01*
X127421951Y-112296785D02*
X127445761Y-112344404D01*
X127445761Y-112344404D02*
X127445761Y-112463452D01*
X127445761Y-112463452D02*
X127421951Y-112511071D01*
X127421951Y-112511071D02*
X127398142Y-112534880D01*
X127398142Y-112534880D02*
X127350523Y-112558690D01*
X127350523Y-112558690D02*
X127207666Y-112558690D01*
X127207666Y-112558690D02*
X127160047Y-112534880D01*
X127160047Y-112534880D02*
X127136237Y-112511071D01*
%TO.C,C1*%
X121531666Y-103229821D02*
X121507857Y-103253630D01*
X121507857Y-103253630D02*
X121436428Y-103277440D01*
X121436428Y-103277440D02*
X121388809Y-103277440D01*
X121388809Y-103277440D02*
X121317381Y-103253630D01*
X121317381Y-103253630D02*
X121269762Y-103206011D01*
X121269762Y-103206011D02*
X121245952Y-103158392D01*
X121245952Y-103158392D02*
X121222143Y-103063154D01*
X121222143Y-103063154D02*
X121222143Y-102991726D01*
X121222143Y-102991726D02*
X121245952Y-102896488D01*
X121245952Y-102896488D02*
X121269762Y-102848869D01*
X121269762Y-102848869D02*
X121317381Y-102801250D01*
X121317381Y-102801250D02*
X121388809Y-102777440D01*
X121388809Y-102777440D02*
X121436428Y-102777440D01*
X121436428Y-102777440D02*
X121507857Y-102801250D01*
X121507857Y-102801250D02*
X121531666Y-102825059D01*
X122007857Y-103277440D02*
X121722143Y-103277440D01*
X121865000Y-103277440D02*
X121865000Y-102777440D01*
X121865000Y-102777440D02*
X121817381Y-102848869D01*
X121817381Y-102848869D02*
X121769762Y-102896488D01*
X121769762Y-102896488D02*
X121722143Y-102920297D01*
D13*
%TO.C,R4*%
X117191845Y-110001666D02*
X117072797Y-110084999D01*
X117191845Y-110144523D02*
X116941845Y-110144523D01*
X116941845Y-110144523D02*
X116941845Y-110049285D01*
X116941845Y-110049285D02*
X116953750Y-110025475D01*
X116953750Y-110025475D02*
X116965654Y-110013570D01*
X116965654Y-110013570D02*
X116989464Y-110001666D01*
X116989464Y-110001666D02*
X117025178Y-110001666D01*
X117025178Y-110001666D02*
X117048988Y-110013570D01*
X117048988Y-110013570D02*
X117060892Y-110025475D01*
X117060892Y-110025475D02*
X117072797Y-110049285D01*
X117072797Y-110049285D02*
X117072797Y-110144523D01*
X117025178Y-109787380D02*
X117191845Y-109787380D01*
X116929940Y-109846904D02*
X117108511Y-109906427D01*
X117108511Y-109906427D02*
X117108511Y-109751666D01*
D12*
%TO.C,JP3*%
X132083690Y-119191666D02*
X132440833Y-119191666D01*
X132440833Y-119191666D02*
X132512261Y-119215475D01*
X132512261Y-119215475D02*
X132559880Y-119263094D01*
X132559880Y-119263094D02*
X132583690Y-119334523D01*
X132583690Y-119334523D02*
X132583690Y-119382142D01*
X132583690Y-118953571D02*
X132083690Y-118953571D01*
X132083690Y-118953571D02*
X132083690Y-118763095D01*
X132083690Y-118763095D02*
X132107500Y-118715476D01*
X132107500Y-118715476D02*
X132131309Y-118691666D01*
X132131309Y-118691666D02*
X132178928Y-118667857D01*
X132178928Y-118667857D02*
X132250357Y-118667857D01*
X132250357Y-118667857D02*
X132297976Y-118691666D01*
X132297976Y-118691666D02*
X132321785Y-118715476D01*
X132321785Y-118715476D02*
X132345595Y-118763095D01*
X132345595Y-118763095D02*
X132345595Y-118953571D01*
X132083690Y-118501190D02*
X132083690Y-118191666D01*
X132083690Y-118191666D02*
X132274166Y-118358333D01*
X132274166Y-118358333D02*
X132274166Y-118286904D01*
X132274166Y-118286904D02*
X132297976Y-118239285D01*
X132297976Y-118239285D02*
X132321785Y-118215476D01*
X132321785Y-118215476D02*
X132369404Y-118191666D01*
X132369404Y-118191666D02*
X132488452Y-118191666D01*
X132488452Y-118191666D02*
X132536071Y-118215476D01*
X132536071Y-118215476D02*
X132559880Y-118239285D01*
X132559880Y-118239285D02*
X132583690Y-118286904D01*
X132583690Y-118286904D02*
X132583690Y-118429761D01*
X132583690Y-118429761D02*
X132559880Y-118477380D01*
X132559880Y-118477380D02*
X132536071Y-118501190D01*
D13*
%TO.C,R3*%
X115891845Y-109991666D02*
X115772797Y-110074999D01*
X115891845Y-110134523D02*
X115641845Y-110134523D01*
X115641845Y-110134523D02*
X115641845Y-110039285D01*
X115641845Y-110039285D02*
X115653750Y-110015475D01*
X115653750Y-110015475D02*
X115665654Y-110003570D01*
X115665654Y-110003570D02*
X115689464Y-109991666D01*
X115689464Y-109991666D02*
X115725178Y-109991666D01*
X115725178Y-109991666D02*
X115748988Y-110003570D01*
X115748988Y-110003570D02*
X115760892Y-110015475D01*
X115760892Y-110015475D02*
X115772797Y-110039285D01*
X115772797Y-110039285D02*
X115772797Y-110134523D01*
X115641845Y-109908332D02*
X115641845Y-109753570D01*
X115641845Y-109753570D02*
X115737083Y-109836904D01*
X115737083Y-109836904D02*
X115737083Y-109801189D01*
X115737083Y-109801189D02*
X115748988Y-109777380D01*
X115748988Y-109777380D02*
X115760892Y-109765475D01*
X115760892Y-109765475D02*
X115784702Y-109753570D01*
X115784702Y-109753570D02*
X115844226Y-109753570D01*
X115844226Y-109753570D02*
X115868035Y-109765475D01*
X115868035Y-109765475D02*
X115879940Y-109777380D01*
X115879940Y-109777380D02*
X115891845Y-109801189D01*
X115891845Y-109801189D02*
X115891845Y-109872618D01*
X115891845Y-109872618D02*
X115879940Y-109896427D01*
X115879940Y-109896427D02*
X115868035Y-109908332D01*
D12*
%TO.C,C4*%
X121566666Y-106886071D02*
X121542857Y-106909880D01*
X121542857Y-106909880D02*
X121471428Y-106933690D01*
X121471428Y-106933690D02*
X121423809Y-106933690D01*
X121423809Y-106933690D02*
X121352381Y-106909880D01*
X121352381Y-106909880D02*
X121304762Y-106862261D01*
X121304762Y-106862261D02*
X121280952Y-106814642D01*
X121280952Y-106814642D02*
X121257143Y-106719404D01*
X121257143Y-106719404D02*
X121257143Y-106647976D01*
X121257143Y-106647976D02*
X121280952Y-106552738D01*
X121280952Y-106552738D02*
X121304762Y-106505119D01*
X121304762Y-106505119D02*
X121352381Y-106457500D01*
X121352381Y-106457500D02*
X121423809Y-106433690D01*
X121423809Y-106433690D02*
X121471428Y-106433690D01*
X121471428Y-106433690D02*
X121542857Y-106457500D01*
X121542857Y-106457500D02*
X121566666Y-106481309D01*
X121995238Y-106600357D02*
X121995238Y-106933690D01*
X121876190Y-106409880D02*
X121757143Y-106767023D01*
X121757143Y-106767023D02*
X122066666Y-106767023D01*
%TO.C,JP4*%
X132458690Y-103066666D02*
X132815833Y-103066666D01*
X132815833Y-103066666D02*
X132887261Y-103090475D01*
X132887261Y-103090475D02*
X132934880Y-103138094D01*
X132934880Y-103138094D02*
X132958690Y-103209523D01*
X132958690Y-103209523D02*
X132958690Y-103257142D01*
X132958690Y-102828571D02*
X132458690Y-102828571D01*
X132458690Y-102828571D02*
X132458690Y-102638095D01*
X132458690Y-102638095D02*
X132482500Y-102590476D01*
X132482500Y-102590476D02*
X132506309Y-102566666D01*
X132506309Y-102566666D02*
X132553928Y-102542857D01*
X132553928Y-102542857D02*
X132625357Y-102542857D01*
X132625357Y-102542857D02*
X132672976Y-102566666D01*
X132672976Y-102566666D02*
X132696785Y-102590476D01*
X132696785Y-102590476D02*
X132720595Y-102638095D01*
X132720595Y-102638095D02*
X132720595Y-102828571D01*
X132625357Y-102114285D02*
X132958690Y-102114285D01*
X132434880Y-102233333D02*
X132792023Y-102352380D01*
X132792023Y-102352380D02*
X132792023Y-102042857D01*
%TO.C,C3*%
X126976666Y-103261071D02*
X126952857Y-103284880D01*
X126952857Y-103284880D02*
X126881428Y-103308690D01*
X126881428Y-103308690D02*
X126833809Y-103308690D01*
X126833809Y-103308690D02*
X126762381Y-103284880D01*
X126762381Y-103284880D02*
X126714762Y-103237261D01*
X126714762Y-103237261D02*
X126690952Y-103189642D01*
X126690952Y-103189642D02*
X126667143Y-103094404D01*
X126667143Y-103094404D02*
X126667143Y-103022976D01*
X126667143Y-103022976D02*
X126690952Y-102927738D01*
X126690952Y-102927738D02*
X126714762Y-102880119D01*
X126714762Y-102880119D02*
X126762381Y-102832500D01*
X126762381Y-102832500D02*
X126833809Y-102808690D01*
X126833809Y-102808690D02*
X126881428Y-102808690D01*
X126881428Y-102808690D02*
X126952857Y-102832500D01*
X126952857Y-102832500D02*
X126976666Y-102856309D01*
X127143333Y-102808690D02*
X127452857Y-102808690D01*
X127452857Y-102808690D02*
X127286190Y-102999166D01*
X127286190Y-102999166D02*
X127357619Y-102999166D01*
X127357619Y-102999166D02*
X127405238Y-103022976D01*
X127405238Y-103022976D02*
X127429047Y-103046785D01*
X127429047Y-103046785D02*
X127452857Y-103094404D01*
X127452857Y-103094404D02*
X127452857Y-103213452D01*
X127452857Y-103213452D02*
X127429047Y-103261071D01*
X127429047Y-103261071D02*
X127405238Y-103284880D01*
X127405238Y-103284880D02*
X127357619Y-103308690D01*
X127357619Y-103308690D02*
X127214762Y-103308690D01*
X127214762Y-103308690D02*
X127167143Y-103284880D01*
X127167143Y-103284880D02*
X127143333Y-103261071D01*
%TO.C,C6*%
X126991666Y-106911071D02*
X126967857Y-106934880D01*
X126967857Y-106934880D02*
X126896428Y-106958690D01*
X126896428Y-106958690D02*
X126848809Y-106958690D01*
X126848809Y-106958690D02*
X126777381Y-106934880D01*
X126777381Y-106934880D02*
X126729762Y-106887261D01*
X126729762Y-106887261D02*
X126705952Y-106839642D01*
X126705952Y-106839642D02*
X126682143Y-106744404D01*
X126682143Y-106744404D02*
X126682143Y-106672976D01*
X126682143Y-106672976D02*
X126705952Y-106577738D01*
X126705952Y-106577738D02*
X126729762Y-106530119D01*
X126729762Y-106530119D02*
X126777381Y-106482500D01*
X126777381Y-106482500D02*
X126848809Y-106458690D01*
X126848809Y-106458690D02*
X126896428Y-106458690D01*
X126896428Y-106458690D02*
X126967857Y-106482500D01*
X126967857Y-106482500D02*
X126991666Y-106506309D01*
X127420238Y-106458690D02*
X127325000Y-106458690D01*
X127325000Y-106458690D02*
X127277381Y-106482500D01*
X127277381Y-106482500D02*
X127253571Y-106506309D01*
X127253571Y-106506309D02*
X127205952Y-106577738D01*
X127205952Y-106577738D02*
X127182143Y-106672976D01*
X127182143Y-106672976D02*
X127182143Y-106863452D01*
X127182143Y-106863452D02*
X127205952Y-106911071D01*
X127205952Y-106911071D02*
X127229762Y-106934880D01*
X127229762Y-106934880D02*
X127277381Y-106958690D01*
X127277381Y-106958690D02*
X127372619Y-106958690D01*
X127372619Y-106958690D02*
X127420238Y-106934880D01*
X127420238Y-106934880D02*
X127444047Y-106911071D01*
X127444047Y-106911071D02*
X127467857Y-106863452D01*
X127467857Y-106863452D02*
X127467857Y-106744404D01*
X127467857Y-106744404D02*
X127444047Y-106696785D01*
X127444047Y-106696785D02*
X127420238Y-106672976D01*
X127420238Y-106672976D02*
X127372619Y-106649166D01*
X127372619Y-106649166D02*
X127277381Y-106649166D01*
X127277381Y-106649166D02*
X127229762Y-106672976D01*
X127229762Y-106672976D02*
X127205952Y-106696785D01*
X127205952Y-106696785D02*
X127182143Y-106744404D01*
%TO.C,C7*%
X130091666Y-114836071D02*
X130067857Y-114859880D01*
X130067857Y-114859880D02*
X129996428Y-114883690D01*
X129996428Y-114883690D02*
X129948809Y-114883690D01*
X129948809Y-114883690D02*
X129877381Y-114859880D01*
X129877381Y-114859880D02*
X129829762Y-114812261D01*
X129829762Y-114812261D02*
X129805952Y-114764642D01*
X129805952Y-114764642D02*
X129782143Y-114669404D01*
X129782143Y-114669404D02*
X129782143Y-114597976D01*
X129782143Y-114597976D02*
X129805952Y-114502738D01*
X129805952Y-114502738D02*
X129829762Y-114455119D01*
X129829762Y-114455119D02*
X129877381Y-114407500D01*
X129877381Y-114407500D02*
X129948809Y-114383690D01*
X129948809Y-114383690D02*
X129996428Y-114383690D01*
X129996428Y-114383690D02*
X130067857Y-114407500D01*
X130067857Y-114407500D02*
X130091666Y-114431309D01*
X130258333Y-114383690D02*
X130591666Y-114383690D01*
X130591666Y-114383690D02*
X130377381Y-114883690D01*
D13*
%TO.C,R1*%
X118666845Y-109991666D02*
X118547797Y-110074999D01*
X118666845Y-110134523D02*
X118416845Y-110134523D01*
X118416845Y-110134523D02*
X118416845Y-110039285D01*
X118416845Y-110039285D02*
X118428750Y-110015475D01*
X118428750Y-110015475D02*
X118440654Y-110003570D01*
X118440654Y-110003570D02*
X118464464Y-109991666D01*
X118464464Y-109991666D02*
X118500178Y-109991666D01*
X118500178Y-109991666D02*
X118523988Y-110003570D01*
X118523988Y-110003570D02*
X118535892Y-110015475D01*
X118535892Y-110015475D02*
X118547797Y-110039285D01*
X118547797Y-110039285D02*
X118547797Y-110134523D01*
X118666845Y-109753570D02*
X118666845Y-109896427D01*
X118666845Y-109824999D02*
X118416845Y-109824999D01*
X118416845Y-109824999D02*
X118452559Y-109848808D01*
X118452559Y-109848808D02*
X118476369Y-109872618D01*
X118476369Y-109872618D02*
X118488273Y-109896427D01*
D12*
%TO.C,J4*%
X130823333Y-129058690D02*
X130823333Y-129415833D01*
X130823333Y-129415833D02*
X130799524Y-129487261D01*
X130799524Y-129487261D02*
X130751905Y-129534880D01*
X130751905Y-129534880D02*
X130680476Y-129558690D01*
X130680476Y-129558690D02*
X130632857Y-129558690D01*
X131275714Y-129225357D02*
X131275714Y-129558690D01*
X131156666Y-129034880D02*
X131037619Y-129392023D01*
X131037619Y-129392023D02*
X131347142Y-129392023D01*
X133978572Y-125633690D02*
X134145238Y-126133690D01*
X134145238Y-126133690D02*
X134311905Y-125633690D01*
X134478571Y-125871785D02*
X134645238Y-125871785D01*
X134716666Y-126133690D02*
X134478571Y-126133690D01*
X134478571Y-126133690D02*
X134478571Y-125633690D01*
X134478571Y-125633690D02*
X134716666Y-125633690D01*
X134883333Y-125633690D02*
X135216666Y-126133690D01*
X135216666Y-125633690D02*
X134883333Y-126133690D01*
X135335714Y-125633690D02*
X135621428Y-125633690D01*
X135478571Y-126133690D02*
X135478571Y-125633690D01*
X129355952Y-126133690D02*
X129355952Y-125633690D01*
X129355952Y-125633690D02*
X129475000Y-125633690D01*
X129475000Y-125633690D02*
X129546428Y-125657500D01*
X129546428Y-125657500D02*
X129594047Y-125705119D01*
X129594047Y-125705119D02*
X129617857Y-125752738D01*
X129617857Y-125752738D02*
X129641666Y-125847976D01*
X129641666Y-125847976D02*
X129641666Y-125919404D01*
X129641666Y-125919404D02*
X129617857Y-126014642D01*
X129617857Y-126014642D02*
X129594047Y-126062261D01*
X129594047Y-126062261D02*
X129546428Y-126109880D01*
X129546428Y-126109880D02*
X129475000Y-126133690D01*
X129475000Y-126133690D02*
X129355952Y-126133690D01*
X130070238Y-125800357D02*
X130070238Y-126133690D01*
X129951190Y-125609880D02*
X129832143Y-125967023D01*
X129832143Y-125967023D02*
X130141666Y-125967023D01*
X131855952Y-126133690D02*
X131855952Y-125633690D01*
X131855952Y-125633690D02*
X131975000Y-125633690D01*
X131975000Y-125633690D02*
X132046428Y-125657500D01*
X132046428Y-125657500D02*
X132094047Y-125705119D01*
X132094047Y-125705119D02*
X132117857Y-125752738D01*
X132117857Y-125752738D02*
X132141666Y-125847976D01*
X132141666Y-125847976D02*
X132141666Y-125919404D01*
X132141666Y-125919404D02*
X132117857Y-126014642D01*
X132117857Y-126014642D02*
X132094047Y-126062261D01*
X132094047Y-126062261D02*
X132046428Y-126109880D01*
X132046428Y-126109880D02*
X131975000Y-126133690D01*
X131975000Y-126133690D02*
X131855952Y-126133690D01*
X132594047Y-125633690D02*
X132355952Y-125633690D01*
X132355952Y-125633690D02*
X132332143Y-125871785D01*
X132332143Y-125871785D02*
X132355952Y-125847976D01*
X132355952Y-125847976D02*
X132403571Y-125824166D01*
X132403571Y-125824166D02*
X132522619Y-125824166D01*
X132522619Y-125824166D02*
X132570238Y-125847976D01*
X132570238Y-125847976D02*
X132594047Y-125871785D01*
X132594047Y-125871785D02*
X132617857Y-125919404D01*
X132617857Y-125919404D02*
X132617857Y-126038452D01*
X132617857Y-126038452D02*
X132594047Y-126086071D01*
X132594047Y-126086071D02*
X132570238Y-126109880D01*
X132570238Y-126109880D02*
X132522619Y-126133690D01*
X132522619Y-126133690D02*
X132403571Y-126133690D01*
X132403571Y-126133690D02*
X132355952Y-126109880D01*
X132355952Y-126109880D02*
X132332143Y-126086071D01*
X126784047Y-125657500D02*
X126736428Y-125633690D01*
X126736428Y-125633690D02*
X126664999Y-125633690D01*
X126664999Y-125633690D02*
X126593571Y-125657500D01*
X126593571Y-125657500D02*
X126545952Y-125705119D01*
X126545952Y-125705119D02*
X126522142Y-125752738D01*
X126522142Y-125752738D02*
X126498333Y-125847976D01*
X126498333Y-125847976D02*
X126498333Y-125919404D01*
X126498333Y-125919404D02*
X126522142Y-126014642D01*
X126522142Y-126014642D02*
X126545952Y-126062261D01*
X126545952Y-126062261D02*
X126593571Y-126109880D01*
X126593571Y-126109880D02*
X126664999Y-126133690D01*
X126664999Y-126133690D02*
X126712618Y-126133690D01*
X126712618Y-126133690D02*
X126784047Y-126109880D01*
X126784047Y-126109880D02*
X126807856Y-126086071D01*
X126807856Y-126086071D02*
X126807856Y-125919404D01*
X126807856Y-125919404D02*
X126712618Y-125919404D01*
X127022142Y-126133690D02*
X127022142Y-125633690D01*
X127022142Y-125633690D02*
X127307856Y-126133690D01*
X127307856Y-126133690D02*
X127307856Y-125633690D01*
X127545952Y-126133690D02*
X127545952Y-125633690D01*
X127545952Y-125633690D02*
X127665000Y-125633690D01*
X127665000Y-125633690D02*
X127736428Y-125657500D01*
X127736428Y-125657500D02*
X127784047Y-125705119D01*
X127784047Y-125705119D02*
X127807857Y-125752738D01*
X127807857Y-125752738D02*
X127831666Y-125847976D01*
X127831666Y-125847976D02*
X127831666Y-125919404D01*
X127831666Y-125919404D02*
X127807857Y-126014642D01*
X127807857Y-126014642D02*
X127784047Y-126062261D01*
X127784047Y-126062261D02*
X127736428Y-126109880D01*
X127736428Y-126109880D02*
X127665000Y-126133690D01*
X127665000Y-126133690D02*
X127545952Y-126133690D01*
%TO.C,J3*%
X123908333Y-95687690D02*
X123908333Y-96044833D01*
X123908333Y-96044833D02*
X123884524Y-96116261D01*
X123884524Y-96116261D02*
X123836905Y-96163880D01*
X123836905Y-96163880D02*
X123765476Y-96187690D01*
X123765476Y-96187690D02*
X123717857Y-96187690D01*
X124098809Y-95687690D02*
X124408333Y-95687690D01*
X124408333Y-95687690D02*
X124241666Y-95878166D01*
X124241666Y-95878166D02*
X124313095Y-95878166D01*
X124313095Y-95878166D02*
X124360714Y-95901976D01*
X124360714Y-95901976D02*
X124384523Y-95925785D01*
X124384523Y-95925785D02*
X124408333Y-95973404D01*
X124408333Y-95973404D02*
X124408333Y-96092452D01*
X124408333Y-96092452D02*
X124384523Y-96140071D01*
X124384523Y-96140071D02*
X124360714Y-96163880D01*
X124360714Y-96163880D02*
X124313095Y-96187690D01*
X124313095Y-96187690D02*
X124170238Y-96187690D01*
X124170238Y-96187690D02*
X124122619Y-96163880D01*
X124122619Y-96163880D02*
X124098809Y-96140071D01*
X121230952Y-99537690D02*
X121230952Y-99037690D01*
X121230952Y-99037690D02*
X121350000Y-99037690D01*
X121350000Y-99037690D02*
X121421428Y-99061500D01*
X121421428Y-99061500D02*
X121469047Y-99109119D01*
X121469047Y-99109119D02*
X121492857Y-99156738D01*
X121492857Y-99156738D02*
X121516666Y-99251976D01*
X121516666Y-99251976D02*
X121516666Y-99323404D01*
X121516666Y-99323404D02*
X121492857Y-99418642D01*
X121492857Y-99418642D02*
X121469047Y-99466261D01*
X121469047Y-99466261D02*
X121421428Y-99513880D01*
X121421428Y-99513880D02*
X121350000Y-99537690D01*
X121350000Y-99537690D02*
X121230952Y-99537690D01*
X121683333Y-99037690D02*
X121992857Y-99037690D01*
X121992857Y-99037690D02*
X121826190Y-99228166D01*
X121826190Y-99228166D02*
X121897619Y-99228166D01*
X121897619Y-99228166D02*
X121945238Y-99251976D01*
X121945238Y-99251976D02*
X121969047Y-99275785D01*
X121969047Y-99275785D02*
X121992857Y-99323404D01*
X121992857Y-99323404D02*
X121992857Y-99442452D01*
X121992857Y-99442452D02*
X121969047Y-99490071D01*
X121969047Y-99490071D02*
X121945238Y-99513880D01*
X121945238Y-99513880D02*
X121897619Y-99537690D01*
X121897619Y-99537690D02*
X121754762Y-99537690D01*
X121754762Y-99537690D02*
X121707143Y-99513880D01*
X121707143Y-99513880D02*
X121683333Y-99490071D01*
X133919047Y-99061500D02*
X133871428Y-99037690D01*
X133871428Y-99037690D02*
X133799999Y-99037690D01*
X133799999Y-99037690D02*
X133728571Y-99061500D01*
X133728571Y-99061500D02*
X133680952Y-99109119D01*
X133680952Y-99109119D02*
X133657142Y-99156738D01*
X133657142Y-99156738D02*
X133633333Y-99251976D01*
X133633333Y-99251976D02*
X133633333Y-99323404D01*
X133633333Y-99323404D02*
X133657142Y-99418642D01*
X133657142Y-99418642D02*
X133680952Y-99466261D01*
X133680952Y-99466261D02*
X133728571Y-99513880D01*
X133728571Y-99513880D02*
X133799999Y-99537690D01*
X133799999Y-99537690D02*
X133847618Y-99537690D01*
X133847618Y-99537690D02*
X133919047Y-99513880D01*
X133919047Y-99513880D02*
X133942856Y-99490071D01*
X133942856Y-99490071D02*
X133942856Y-99323404D01*
X133942856Y-99323404D02*
X133847618Y-99323404D01*
X134157142Y-99537690D02*
X134157142Y-99037690D01*
X134157142Y-99037690D02*
X134442856Y-99537690D01*
X134442856Y-99537690D02*
X134442856Y-99037690D01*
X134680952Y-99537690D02*
X134680952Y-99037690D01*
X134680952Y-99037690D02*
X134800000Y-99037690D01*
X134800000Y-99037690D02*
X134871428Y-99061500D01*
X134871428Y-99061500D02*
X134919047Y-99109119D01*
X134919047Y-99109119D02*
X134942857Y-99156738D01*
X134942857Y-99156738D02*
X134966666Y-99251976D01*
X134966666Y-99251976D02*
X134966666Y-99323404D01*
X134966666Y-99323404D02*
X134942857Y-99418642D01*
X134942857Y-99418642D02*
X134919047Y-99466261D01*
X134919047Y-99466261D02*
X134871428Y-99513880D01*
X134871428Y-99513880D02*
X134800000Y-99537690D01*
X134800000Y-99537690D02*
X134680952Y-99537690D01*
X131130953Y-99037690D02*
X131440477Y-99037690D01*
X131440477Y-99037690D02*
X131273810Y-99228166D01*
X131273810Y-99228166D02*
X131345239Y-99228166D01*
X131345239Y-99228166D02*
X131392858Y-99251976D01*
X131392858Y-99251976D02*
X131416667Y-99275785D01*
X131416667Y-99275785D02*
X131440477Y-99323404D01*
X131440477Y-99323404D02*
X131440477Y-99442452D01*
X131440477Y-99442452D02*
X131416667Y-99490071D01*
X131416667Y-99490071D02*
X131392858Y-99513880D01*
X131392858Y-99513880D02*
X131345239Y-99537690D01*
X131345239Y-99537690D02*
X131202382Y-99537690D01*
X131202382Y-99537690D02*
X131154763Y-99513880D01*
X131154763Y-99513880D02*
X131130953Y-99490071D01*
X131583334Y-99037690D02*
X131750000Y-99537690D01*
X131750000Y-99537690D02*
X131916667Y-99037690D01*
X132035714Y-99037690D02*
X132345238Y-99037690D01*
X132345238Y-99037690D02*
X132178571Y-99228166D01*
X132178571Y-99228166D02*
X132250000Y-99228166D01*
X132250000Y-99228166D02*
X132297619Y-99251976D01*
X132297619Y-99251976D02*
X132321428Y-99275785D01*
X132321428Y-99275785D02*
X132345238Y-99323404D01*
X132345238Y-99323404D02*
X132345238Y-99442452D01*
X132345238Y-99442452D02*
X132321428Y-99490071D01*
X132321428Y-99490071D02*
X132297619Y-99513880D01*
X132297619Y-99513880D02*
X132250000Y-99537690D01*
X132250000Y-99537690D02*
X132107143Y-99537690D01*
X132107143Y-99537690D02*
X132059524Y-99513880D01*
X132059524Y-99513880D02*
X132035714Y-99490071D01*
X123755952Y-99512690D02*
X123755952Y-99012690D01*
X123755952Y-99012690D02*
X123875000Y-99012690D01*
X123875000Y-99012690D02*
X123946428Y-99036500D01*
X123946428Y-99036500D02*
X123994047Y-99084119D01*
X123994047Y-99084119D02*
X124017857Y-99131738D01*
X124017857Y-99131738D02*
X124041666Y-99226976D01*
X124041666Y-99226976D02*
X124041666Y-99298404D01*
X124041666Y-99298404D02*
X124017857Y-99393642D01*
X124017857Y-99393642D02*
X123994047Y-99441261D01*
X123994047Y-99441261D02*
X123946428Y-99488880D01*
X123946428Y-99488880D02*
X123875000Y-99512690D01*
X123875000Y-99512690D02*
X123755952Y-99512690D01*
X124232143Y-99060309D02*
X124255952Y-99036500D01*
X124255952Y-99036500D02*
X124303571Y-99012690D01*
X124303571Y-99012690D02*
X124422619Y-99012690D01*
X124422619Y-99012690D02*
X124470238Y-99036500D01*
X124470238Y-99036500D02*
X124494047Y-99060309D01*
X124494047Y-99060309D02*
X124517857Y-99107928D01*
X124517857Y-99107928D02*
X124517857Y-99155547D01*
X124517857Y-99155547D02*
X124494047Y-99226976D01*
X124494047Y-99226976D02*
X124208333Y-99512690D01*
X124208333Y-99512690D02*
X124517857Y-99512690D01*
X129079762Y-99037690D02*
X128841667Y-99037690D01*
X128841667Y-99037690D02*
X128817858Y-99275785D01*
X128817858Y-99275785D02*
X128841667Y-99251976D01*
X128841667Y-99251976D02*
X128889286Y-99228166D01*
X128889286Y-99228166D02*
X129008334Y-99228166D01*
X129008334Y-99228166D02*
X129055953Y-99251976D01*
X129055953Y-99251976D02*
X129079762Y-99275785D01*
X129079762Y-99275785D02*
X129103572Y-99323404D01*
X129103572Y-99323404D02*
X129103572Y-99442452D01*
X129103572Y-99442452D02*
X129079762Y-99490071D01*
X129079762Y-99490071D02*
X129055953Y-99513880D01*
X129055953Y-99513880D02*
X129008334Y-99537690D01*
X129008334Y-99537690D02*
X128889286Y-99537690D01*
X128889286Y-99537690D02*
X128841667Y-99513880D01*
X128841667Y-99513880D02*
X128817858Y-99490071D01*
X129246429Y-99037690D02*
X129413095Y-99537690D01*
X129413095Y-99537690D02*
X129579762Y-99037690D01*
X126300952Y-99537690D02*
X126300952Y-99037690D01*
X126300952Y-99037690D02*
X126420000Y-99037690D01*
X126420000Y-99037690D02*
X126491428Y-99061500D01*
X126491428Y-99061500D02*
X126539047Y-99109119D01*
X126539047Y-99109119D02*
X126562857Y-99156738D01*
X126562857Y-99156738D02*
X126586666Y-99251976D01*
X126586666Y-99251976D02*
X126586666Y-99323404D01*
X126586666Y-99323404D02*
X126562857Y-99418642D01*
X126562857Y-99418642D02*
X126539047Y-99466261D01*
X126539047Y-99466261D02*
X126491428Y-99513880D01*
X126491428Y-99513880D02*
X126420000Y-99537690D01*
X126420000Y-99537690D02*
X126300952Y-99537690D01*
X127062857Y-99537690D02*
X126777143Y-99537690D01*
X126920000Y-99537690D02*
X126920000Y-99037690D01*
X126920000Y-99037690D02*
X126872381Y-99109119D01*
X126872381Y-99109119D02*
X126824762Y-99156738D01*
X126824762Y-99156738D02*
X126777143Y-99180547D01*
X113352857Y-99537690D02*
X113352857Y-99037690D01*
X113352857Y-99037690D02*
X113471905Y-99037690D01*
X113471905Y-99037690D02*
X113543333Y-99061500D01*
X113543333Y-99061500D02*
X113590952Y-99109119D01*
X113590952Y-99109119D02*
X113614762Y-99156738D01*
X113614762Y-99156738D02*
X113638571Y-99251976D01*
X113638571Y-99251976D02*
X113638571Y-99323404D01*
X113638571Y-99323404D02*
X113614762Y-99418642D01*
X113614762Y-99418642D02*
X113590952Y-99466261D01*
X113590952Y-99466261D02*
X113543333Y-99513880D01*
X113543333Y-99513880D02*
X113471905Y-99537690D01*
X113471905Y-99537690D02*
X113352857Y-99537690D01*
X114114762Y-99537690D02*
X113829048Y-99537690D01*
X113971905Y-99537690D02*
X113971905Y-99037690D01*
X113971905Y-99037690D02*
X113924286Y-99109119D01*
X113924286Y-99109119D02*
X113876667Y-99156738D01*
X113876667Y-99156738D02*
X113829048Y-99180547D01*
X114424285Y-99037690D02*
X114471904Y-99037690D01*
X114471904Y-99037690D02*
X114519523Y-99061500D01*
X114519523Y-99061500D02*
X114543333Y-99085309D01*
X114543333Y-99085309D02*
X114567142Y-99132928D01*
X114567142Y-99132928D02*
X114590952Y-99228166D01*
X114590952Y-99228166D02*
X114590952Y-99347214D01*
X114590952Y-99347214D02*
X114567142Y-99442452D01*
X114567142Y-99442452D02*
X114543333Y-99490071D01*
X114543333Y-99490071D02*
X114519523Y-99513880D01*
X114519523Y-99513880D02*
X114471904Y-99537690D01*
X114471904Y-99537690D02*
X114424285Y-99537690D01*
X114424285Y-99537690D02*
X114376666Y-99513880D01*
X114376666Y-99513880D02*
X114352857Y-99490071D01*
X114352857Y-99490071D02*
X114329047Y-99442452D01*
X114329047Y-99442452D02*
X114305238Y-99347214D01*
X114305238Y-99347214D02*
X114305238Y-99228166D01*
X114305238Y-99228166D02*
X114329047Y-99132928D01*
X114329047Y-99132928D02*
X114352857Y-99085309D01*
X114352857Y-99085309D02*
X114376666Y-99061500D01*
X114376666Y-99061500D02*
X114424285Y-99037690D01*
X118690952Y-99537690D02*
X118690952Y-99037690D01*
X118690952Y-99037690D02*
X118810000Y-99037690D01*
X118810000Y-99037690D02*
X118881428Y-99061500D01*
X118881428Y-99061500D02*
X118929047Y-99109119D01*
X118929047Y-99109119D02*
X118952857Y-99156738D01*
X118952857Y-99156738D02*
X118976666Y-99251976D01*
X118976666Y-99251976D02*
X118976666Y-99323404D01*
X118976666Y-99323404D02*
X118952857Y-99418642D01*
X118952857Y-99418642D02*
X118929047Y-99466261D01*
X118929047Y-99466261D02*
X118881428Y-99513880D01*
X118881428Y-99513880D02*
X118810000Y-99537690D01*
X118810000Y-99537690D02*
X118690952Y-99537690D01*
X119262381Y-99251976D02*
X119214762Y-99228166D01*
X119214762Y-99228166D02*
X119190952Y-99204357D01*
X119190952Y-99204357D02*
X119167143Y-99156738D01*
X119167143Y-99156738D02*
X119167143Y-99132928D01*
X119167143Y-99132928D02*
X119190952Y-99085309D01*
X119190952Y-99085309D02*
X119214762Y-99061500D01*
X119214762Y-99061500D02*
X119262381Y-99037690D01*
X119262381Y-99037690D02*
X119357619Y-99037690D01*
X119357619Y-99037690D02*
X119405238Y-99061500D01*
X119405238Y-99061500D02*
X119429047Y-99085309D01*
X119429047Y-99085309D02*
X119452857Y-99132928D01*
X119452857Y-99132928D02*
X119452857Y-99156738D01*
X119452857Y-99156738D02*
X119429047Y-99204357D01*
X119429047Y-99204357D02*
X119405238Y-99228166D01*
X119405238Y-99228166D02*
X119357619Y-99251976D01*
X119357619Y-99251976D02*
X119262381Y-99251976D01*
X119262381Y-99251976D02*
X119214762Y-99275785D01*
X119214762Y-99275785D02*
X119190952Y-99299595D01*
X119190952Y-99299595D02*
X119167143Y-99347214D01*
X119167143Y-99347214D02*
X119167143Y-99442452D01*
X119167143Y-99442452D02*
X119190952Y-99490071D01*
X119190952Y-99490071D02*
X119214762Y-99513880D01*
X119214762Y-99513880D02*
X119262381Y-99537690D01*
X119262381Y-99537690D02*
X119357619Y-99537690D01*
X119357619Y-99537690D02*
X119405238Y-99513880D01*
X119405238Y-99513880D02*
X119429047Y-99490071D01*
X119429047Y-99490071D02*
X119452857Y-99442452D01*
X119452857Y-99442452D02*
X119452857Y-99347214D01*
X119452857Y-99347214D02*
X119429047Y-99299595D01*
X119429047Y-99299595D02*
X119405238Y-99275785D01*
X119405238Y-99275785D02*
X119357619Y-99251976D01*
X116110952Y-99567690D02*
X116110952Y-99067690D01*
X116110952Y-99067690D02*
X116230000Y-99067690D01*
X116230000Y-99067690D02*
X116301428Y-99091500D01*
X116301428Y-99091500D02*
X116349047Y-99139119D01*
X116349047Y-99139119D02*
X116372857Y-99186738D01*
X116372857Y-99186738D02*
X116396666Y-99281976D01*
X116396666Y-99281976D02*
X116396666Y-99353404D01*
X116396666Y-99353404D02*
X116372857Y-99448642D01*
X116372857Y-99448642D02*
X116349047Y-99496261D01*
X116349047Y-99496261D02*
X116301428Y-99543880D01*
X116301428Y-99543880D02*
X116230000Y-99567690D01*
X116230000Y-99567690D02*
X116110952Y-99567690D01*
X116634762Y-99567690D02*
X116730000Y-99567690D01*
X116730000Y-99567690D02*
X116777619Y-99543880D01*
X116777619Y-99543880D02*
X116801428Y-99520071D01*
X116801428Y-99520071D02*
X116849047Y-99448642D01*
X116849047Y-99448642D02*
X116872857Y-99353404D01*
X116872857Y-99353404D02*
X116872857Y-99162928D01*
X116872857Y-99162928D02*
X116849047Y-99115309D01*
X116849047Y-99115309D02*
X116825238Y-99091500D01*
X116825238Y-99091500D02*
X116777619Y-99067690D01*
X116777619Y-99067690D02*
X116682381Y-99067690D01*
X116682381Y-99067690D02*
X116634762Y-99091500D01*
X116634762Y-99091500D02*
X116610952Y-99115309D01*
X116610952Y-99115309D02*
X116587143Y-99162928D01*
X116587143Y-99162928D02*
X116587143Y-99281976D01*
X116587143Y-99281976D02*
X116610952Y-99329595D01*
X116610952Y-99329595D02*
X116634762Y-99353404D01*
X116634762Y-99353404D02*
X116682381Y-99377214D01*
X116682381Y-99377214D02*
X116777619Y-99377214D01*
X116777619Y-99377214D02*
X116825238Y-99353404D01*
X116825238Y-99353404D02*
X116849047Y-99329595D01*
X116849047Y-99329595D02*
X116872857Y-99281976D01*
D13*
%TO.C,R2*%
X120016845Y-109995166D02*
X119897797Y-110078499D01*
X120016845Y-110138023D02*
X119766845Y-110138023D01*
X119766845Y-110138023D02*
X119766845Y-110042785D01*
X119766845Y-110042785D02*
X119778750Y-110018975D01*
X119778750Y-110018975D02*
X119790654Y-110007070D01*
X119790654Y-110007070D02*
X119814464Y-109995166D01*
X119814464Y-109995166D02*
X119850178Y-109995166D01*
X119850178Y-109995166D02*
X119873988Y-110007070D01*
X119873988Y-110007070D02*
X119885892Y-110018975D01*
X119885892Y-110018975D02*
X119897797Y-110042785D01*
X119897797Y-110042785D02*
X119897797Y-110138023D01*
X119790654Y-109899927D02*
X119778750Y-109888023D01*
X119778750Y-109888023D02*
X119766845Y-109864213D01*
X119766845Y-109864213D02*
X119766845Y-109804689D01*
X119766845Y-109804689D02*
X119778750Y-109780880D01*
X119778750Y-109780880D02*
X119790654Y-109768975D01*
X119790654Y-109768975D02*
X119814464Y-109757070D01*
X119814464Y-109757070D02*
X119838273Y-109757070D01*
X119838273Y-109757070D02*
X119873988Y-109768975D01*
X119873988Y-109768975D02*
X120016845Y-109911832D01*
X120016845Y-109911832D02*
X120016845Y-109757070D01*
D12*
%TO.C,GN1*%
X114183690Y-105699046D02*
X114183690Y-105389522D01*
X114183690Y-105389522D02*
X114374166Y-105556189D01*
X114374166Y-105556189D02*
X114374166Y-105484760D01*
X114374166Y-105484760D02*
X114397976Y-105437141D01*
X114397976Y-105437141D02*
X114421785Y-105413332D01*
X114421785Y-105413332D02*
X114469404Y-105389522D01*
X114469404Y-105389522D02*
X114588452Y-105389522D01*
X114588452Y-105389522D02*
X114636071Y-105413332D01*
X114636071Y-105413332D02*
X114659880Y-105437141D01*
X114659880Y-105437141D02*
X114683690Y-105484760D01*
X114683690Y-105484760D02*
X114683690Y-105627617D01*
X114683690Y-105627617D02*
X114659880Y-105675236D01*
X114659880Y-105675236D02*
X114636071Y-105699046D01*
X114183690Y-105246665D02*
X114683690Y-105079999D01*
X114683690Y-105079999D02*
X114183690Y-104913332D01*
X114183690Y-104794285D02*
X114183690Y-104484761D01*
X114183690Y-104484761D02*
X114374166Y-104651428D01*
X114374166Y-104651428D02*
X114374166Y-104579999D01*
X114374166Y-104579999D02*
X114397976Y-104532380D01*
X114397976Y-104532380D02*
X114421785Y-104508571D01*
X114421785Y-104508571D02*
X114469404Y-104484761D01*
X114469404Y-104484761D02*
X114588452Y-104484761D01*
X114588452Y-104484761D02*
X114636071Y-104508571D01*
X114636071Y-104508571D02*
X114659880Y-104532380D01*
X114659880Y-104532380D02*
X114683690Y-104579999D01*
X114683690Y-104579999D02*
X114683690Y-104722856D01*
X114683690Y-104722856D02*
X114659880Y-104770475D01*
X114659880Y-104770475D02*
X114636071Y-104794285D01*
X114659880Y-113497617D02*
X114683690Y-113426189D01*
X114683690Y-113426189D02*
X114683690Y-113307141D01*
X114683690Y-113307141D02*
X114659880Y-113259522D01*
X114659880Y-113259522D02*
X114636071Y-113235713D01*
X114636071Y-113235713D02*
X114588452Y-113211903D01*
X114588452Y-113211903D02*
X114540833Y-113211903D01*
X114540833Y-113211903D02*
X114493214Y-113235713D01*
X114493214Y-113235713D02*
X114469404Y-113259522D01*
X114469404Y-113259522D02*
X114445595Y-113307141D01*
X114445595Y-113307141D02*
X114421785Y-113402379D01*
X114421785Y-113402379D02*
X114397976Y-113449998D01*
X114397976Y-113449998D02*
X114374166Y-113473808D01*
X114374166Y-113473808D02*
X114326547Y-113497617D01*
X114326547Y-113497617D02*
X114278928Y-113497617D01*
X114278928Y-113497617D02*
X114231309Y-113473808D01*
X114231309Y-113473808D02*
X114207500Y-113449998D01*
X114207500Y-113449998D02*
X114183690Y-113402379D01*
X114183690Y-113402379D02*
X114183690Y-113283332D01*
X114183690Y-113283332D02*
X114207500Y-113211903D01*
X114540833Y-113021427D02*
X114540833Y-112783332D01*
X114683690Y-113069046D02*
X114183690Y-112902380D01*
X114183690Y-112902380D02*
X114683690Y-112735713D01*
X114183690Y-112640475D02*
X114683690Y-112473809D01*
X114683690Y-112473809D02*
X114183690Y-112307142D01*
X114421785Y-112140476D02*
X114421785Y-111973809D01*
X114683690Y-111902381D02*
X114683690Y-112140476D01*
X114683690Y-112140476D02*
X114183690Y-112140476D01*
X114183690Y-112140476D02*
X114183690Y-111902381D01*
X114683690Y-110243333D02*
X114445595Y-110409999D01*
X114683690Y-110529047D02*
X114183690Y-110529047D01*
X114183690Y-110529047D02*
X114183690Y-110338571D01*
X114183690Y-110338571D02*
X114207500Y-110290952D01*
X114207500Y-110290952D02*
X114231309Y-110267142D01*
X114231309Y-110267142D02*
X114278928Y-110243333D01*
X114278928Y-110243333D02*
X114350357Y-110243333D01*
X114350357Y-110243333D02*
X114397976Y-110267142D01*
X114397976Y-110267142D02*
X114421785Y-110290952D01*
X114421785Y-110290952D02*
X114445595Y-110338571D01*
X114445595Y-110338571D02*
X114445595Y-110529047D01*
X114183690Y-110076666D02*
X114683690Y-109743333D01*
X114183690Y-109743333D02*
X114683690Y-110076666D01*
X114183690Y-108000951D02*
X114183690Y-107715237D01*
X114683690Y-107858094D02*
X114183690Y-107858094D01*
X114183690Y-107596190D02*
X114683690Y-107262857D01*
X114183690Y-107262857D02*
X114683690Y-107596190D01*
X114183690Y-102635237D02*
X114183690Y-102873332D01*
X114183690Y-102873332D02*
X114421785Y-102897141D01*
X114421785Y-102897141D02*
X114397976Y-102873332D01*
X114397976Y-102873332D02*
X114374166Y-102825713D01*
X114374166Y-102825713D02*
X114374166Y-102706665D01*
X114374166Y-102706665D02*
X114397976Y-102659046D01*
X114397976Y-102659046D02*
X114421785Y-102635237D01*
X114421785Y-102635237D02*
X114469404Y-102611427D01*
X114469404Y-102611427D02*
X114588452Y-102611427D01*
X114588452Y-102611427D02*
X114636071Y-102635237D01*
X114636071Y-102635237D02*
X114659880Y-102659046D01*
X114659880Y-102659046D02*
X114683690Y-102706665D01*
X114683690Y-102706665D02*
X114683690Y-102825713D01*
X114683690Y-102825713D02*
X114659880Y-102873332D01*
X114659880Y-102873332D02*
X114636071Y-102897141D01*
X114183690Y-102468570D02*
X114683690Y-102301904D01*
X114683690Y-102301904D02*
X114183690Y-102135237D01*
X114683690Y-118410952D02*
X114183690Y-118410952D01*
X114683690Y-118125238D02*
X114397976Y-118339523D01*
X114183690Y-118125238D02*
X114469404Y-118410952D01*
X114683690Y-117910952D02*
X114183690Y-117910952D01*
X114183690Y-117910952D02*
X114683690Y-117625238D01*
X114683690Y-117625238D02*
X114183690Y-117625238D01*
X114183690Y-117434761D02*
X114683690Y-117101428D01*
X114183690Y-117101428D02*
X114683690Y-117434761D01*
X114207500Y-115660952D02*
X114183690Y-115708571D01*
X114183690Y-115708571D02*
X114183690Y-115780000D01*
X114183690Y-115780000D02*
X114207500Y-115851428D01*
X114207500Y-115851428D02*
X114255119Y-115899047D01*
X114255119Y-115899047D02*
X114302738Y-115922857D01*
X114302738Y-115922857D02*
X114397976Y-115946666D01*
X114397976Y-115946666D02*
X114469404Y-115946666D01*
X114469404Y-115946666D02*
X114564642Y-115922857D01*
X114564642Y-115922857D02*
X114612261Y-115899047D01*
X114612261Y-115899047D02*
X114659880Y-115851428D01*
X114659880Y-115851428D02*
X114683690Y-115780000D01*
X114683690Y-115780000D02*
X114683690Y-115732381D01*
X114683690Y-115732381D02*
X114659880Y-115660952D01*
X114659880Y-115660952D02*
X114636071Y-115637143D01*
X114636071Y-115637143D02*
X114469404Y-115637143D01*
X114469404Y-115637143D02*
X114469404Y-115732381D01*
X114683690Y-115422857D02*
X114183690Y-115422857D01*
X114183690Y-115422857D02*
X114683690Y-115137143D01*
X114683690Y-115137143D02*
X114183690Y-115137143D01*
X114683690Y-114899047D02*
X114183690Y-114899047D01*
X114183690Y-114899047D02*
X114183690Y-114779999D01*
X114183690Y-114779999D02*
X114207500Y-114708571D01*
X114207500Y-114708571D02*
X114255119Y-114660952D01*
X114255119Y-114660952D02*
X114302738Y-114637142D01*
X114302738Y-114637142D02*
X114397976Y-114613333D01*
X114397976Y-114613333D02*
X114469404Y-114613333D01*
X114469404Y-114613333D02*
X114564642Y-114637142D01*
X114564642Y-114637142D02*
X114612261Y-114660952D01*
X114612261Y-114660952D02*
X114659880Y-114708571D01*
X114659880Y-114708571D02*
X114683690Y-114779999D01*
X114683690Y-114779999D02*
X114683690Y-114899047D01*
%TO.C,JP1*%
X124163690Y-119166666D02*
X124520833Y-119166666D01*
X124520833Y-119166666D02*
X124592261Y-119190475D01*
X124592261Y-119190475D02*
X124639880Y-119238094D01*
X124639880Y-119238094D02*
X124663690Y-119309523D01*
X124663690Y-119309523D02*
X124663690Y-119357142D01*
X124663690Y-118928571D02*
X124163690Y-118928571D01*
X124163690Y-118928571D02*
X124163690Y-118738095D01*
X124163690Y-118738095D02*
X124187500Y-118690476D01*
X124187500Y-118690476D02*
X124211309Y-118666666D01*
X124211309Y-118666666D02*
X124258928Y-118642857D01*
X124258928Y-118642857D02*
X124330357Y-118642857D01*
X124330357Y-118642857D02*
X124377976Y-118666666D01*
X124377976Y-118666666D02*
X124401785Y-118690476D01*
X124401785Y-118690476D02*
X124425595Y-118738095D01*
X124425595Y-118738095D02*
X124425595Y-118928571D01*
X124663690Y-118166666D02*
X124663690Y-118452380D01*
X124663690Y-118309523D02*
X124163690Y-118309523D01*
X124163690Y-118309523D02*
X124235119Y-118357142D01*
X124235119Y-118357142D02*
X124282738Y-118404761D01*
X124282738Y-118404761D02*
X124306547Y-118452380D01*
%TO.C,U3*%
X115329047Y-104783690D02*
X115329047Y-105188452D01*
X115329047Y-105188452D02*
X115352857Y-105236071D01*
X115352857Y-105236071D02*
X115376666Y-105259880D01*
X115376666Y-105259880D02*
X115424285Y-105283690D01*
X115424285Y-105283690D02*
X115519523Y-105283690D01*
X115519523Y-105283690D02*
X115567142Y-105259880D01*
X115567142Y-105259880D02*
X115590952Y-105236071D01*
X115590952Y-105236071D02*
X115614761Y-105188452D01*
X115614761Y-105188452D02*
X115614761Y-104783690D01*
X115805238Y-104783690D02*
X116114762Y-104783690D01*
X116114762Y-104783690D02*
X115948095Y-104974166D01*
X115948095Y-104974166D02*
X116019524Y-104974166D01*
X116019524Y-104974166D02*
X116067143Y-104997976D01*
X116067143Y-104997976D02*
X116090952Y-105021785D01*
X116090952Y-105021785D02*
X116114762Y-105069404D01*
X116114762Y-105069404D02*
X116114762Y-105188452D01*
X116114762Y-105188452D02*
X116090952Y-105236071D01*
X116090952Y-105236071D02*
X116067143Y-105259880D01*
X116067143Y-105259880D02*
X116019524Y-105283690D01*
X116019524Y-105283690D02*
X115876667Y-105283690D01*
X115876667Y-105283690D02*
X115829048Y-105259880D01*
X115829048Y-105259880D02*
X115805238Y-105236071D01*
X115367382Y-104399833D02*
X115605477Y-104399833D01*
X115319763Y-104542690D02*
X115486429Y-104042690D01*
X115486429Y-104042690D02*
X115653096Y-104542690D01*
X115819762Y-104542690D02*
X115819762Y-104042690D01*
X115819762Y-104042690D02*
X115938810Y-104042690D01*
X115938810Y-104042690D02*
X116010238Y-104066500D01*
X116010238Y-104066500D02*
X116057857Y-104114119D01*
X116057857Y-104114119D02*
X116081667Y-104161738D01*
X116081667Y-104161738D02*
X116105476Y-104256976D01*
X116105476Y-104256976D02*
X116105476Y-104328404D01*
X116105476Y-104328404D02*
X116081667Y-104423642D01*
X116081667Y-104423642D02*
X116057857Y-104471261D01*
X116057857Y-104471261D02*
X116010238Y-104518880D01*
X116010238Y-104518880D02*
X115938810Y-104542690D01*
X115938810Y-104542690D02*
X115819762Y-104542690D01*
X116534048Y-104209357D02*
X116534048Y-104542690D01*
X116319762Y-104209357D02*
X116319762Y-104471261D01*
X116319762Y-104471261D02*
X116343572Y-104518880D01*
X116343572Y-104518880D02*
X116391191Y-104542690D01*
X116391191Y-104542690D02*
X116462619Y-104542690D01*
X116462619Y-104542690D02*
X116510238Y-104518880D01*
X116510238Y-104518880D02*
X116534048Y-104495071D01*
X116772143Y-104542690D02*
X116772143Y-104042690D01*
X116772143Y-104042690D02*
X116938810Y-104399833D01*
X116938810Y-104399833D02*
X117105476Y-104042690D01*
X117105476Y-104042690D02*
X117105476Y-104542690D01*
X117605477Y-104542690D02*
X117319763Y-104542690D01*
X117462620Y-104542690D02*
X117462620Y-104042690D01*
X117462620Y-104042690D02*
X117415001Y-104114119D01*
X117415001Y-104114119D02*
X117367382Y-104161738D01*
X117367382Y-104161738D02*
X117319763Y-104185547D01*
X117795953Y-104090309D02*
X117819762Y-104066500D01*
X117819762Y-104066500D02*
X117867381Y-104042690D01*
X117867381Y-104042690D02*
X117986429Y-104042690D01*
X117986429Y-104042690D02*
X118034048Y-104066500D01*
X118034048Y-104066500D02*
X118057857Y-104090309D01*
X118057857Y-104090309D02*
X118081667Y-104137928D01*
X118081667Y-104137928D02*
X118081667Y-104185547D01*
X118081667Y-104185547D02*
X118057857Y-104256976D01*
X118057857Y-104256976D02*
X117772143Y-104542690D01*
X117772143Y-104542690D02*
X118081667Y-104542690D01*
X118391190Y-104042690D02*
X118438809Y-104042690D01*
X118438809Y-104042690D02*
X118486428Y-104066500D01*
X118486428Y-104066500D02*
X118510238Y-104090309D01*
X118510238Y-104090309D02*
X118534047Y-104137928D01*
X118534047Y-104137928D02*
X118557857Y-104233166D01*
X118557857Y-104233166D02*
X118557857Y-104352214D01*
X118557857Y-104352214D02*
X118534047Y-104447452D01*
X118534047Y-104447452D02*
X118510238Y-104495071D01*
X118510238Y-104495071D02*
X118486428Y-104518880D01*
X118486428Y-104518880D02*
X118438809Y-104542690D01*
X118438809Y-104542690D02*
X118391190Y-104542690D01*
X118391190Y-104542690D02*
X118343571Y-104518880D01*
X118343571Y-104518880D02*
X118319762Y-104495071D01*
X118319762Y-104495071D02*
X118295952Y-104447452D01*
X118295952Y-104447452D02*
X118272143Y-104352214D01*
X118272143Y-104352214D02*
X118272143Y-104233166D01*
X118272143Y-104233166D02*
X118295952Y-104137928D01*
X118295952Y-104137928D02*
X118319762Y-104090309D01*
X118319762Y-104090309D02*
X118343571Y-104066500D01*
X118343571Y-104066500D02*
X118391190Y-104042690D01*
X119034047Y-104542690D02*
X118748333Y-104542690D01*
X118891190Y-104542690D02*
X118891190Y-104042690D01*
X118891190Y-104042690D02*
X118843571Y-104114119D01*
X118843571Y-104114119D02*
X118795952Y-104161738D01*
X118795952Y-104161738D02*
X118748333Y-104185547D01*
X119224523Y-104399833D02*
X119462618Y-104399833D01*
X119176904Y-104542690D02*
X119343570Y-104042690D01*
X119343570Y-104042690D02*
X119510237Y-104542690D01*
X119962617Y-104542690D02*
X119795951Y-104304595D01*
X119676903Y-104542690D02*
X119676903Y-104042690D01*
X119676903Y-104042690D02*
X119867379Y-104042690D01*
X119867379Y-104042690D02*
X119914998Y-104066500D01*
X119914998Y-104066500D02*
X119938808Y-104090309D01*
X119938808Y-104090309D02*
X119962617Y-104137928D01*
X119962617Y-104137928D02*
X119962617Y-104209357D01*
X119962617Y-104209357D02*
X119938808Y-104256976D01*
X119938808Y-104256976D02*
X119914998Y-104280785D01*
X119914998Y-104280785D02*
X119867379Y-104304595D01*
X119867379Y-104304595D02*
X119676903Y-104304595D01*
%TO.C,JP2*%
X128163690Y-119216666D02*
X128520833Y-119216666D01*
X128520833Y-119216666D02*
X128592261Y-119240475D01*
X128592261Y-119240475D02*
X128639880Y-119288094D01*
X128639880Y-119288094D02*
X128663690Y-119359523D01*
X128663690Y-119359523D02*
X128663690Y-119407142D01*
X128663690Y-118978571D02*
X128163690Y-118978571D01*
X128163690Y-118978571D02*
X128163690Y-118788095D01*
X128163690Y-118788095D02*
X128187500Y-118740476D01*
X128187500Y-118740476D02*
X128211309Y-118716666D01*
X128211309Y-118716666D02*
X128258928Y-118692857D01*
X128258928Y-118692857D02*
X128330357Y-118692857D01*
X128330357Y-118692857D02*
X128377976Y-118716666D01*
X128377976Y-118716666D02*
X128401785Y-118740476D01*
X128401785Y-118740476D02*
X128425595Y-118788095D01*
X128425595Y-118788095D02*
X128425595Y-118978571D01*
X128211309Y-118502380D02*
X128187500Y-118478571D01*
X128187500Y-118478571D02*
X128163690Y-118430952D01*
X128163690Y-118430952D02*
X128163690Y-118311904D01*
X128163690Y-118311904D02*
X128187500Y-118264285D01*
X128187500Y-118264285D02*
X128211309Y-118240476D01*
X128211309Y-118240476D02*
X128258928Y-118216666D01*
X128258928Y-118216666D02*
X128306547Y-118216666D01*
X128306547Y-118216666D02*
X128377976Y-118240476D01*
X128377976Y-118240476D02*
X128663690Y-118526190D01*
X128663690Y-118526190D02*
X128663690Y-118216666D01*
%TO.C,C5*%
X124211666Y-106911071D02*
X124187857Y-106934880D01*
X124187857Y-106934880D02*
X124116428Y-106958690D01*
X124116428Y-106958690D02*
X124068809Y-106958690D01*
X124068809Y-106958690D02*
X123997381Y-106934880D01*
X123997381Y-106934880D02*
X123949762Y-106887261D01*
X123949762Y-106887261D02*
X123925952Y-106839642D01*
X123925952Y-106839642D02*
X123902143Y-106744404D01*
X123902143Y-106744404D02*
X123902143Y-106672976D01*
X123902143Y-106672976D02*
X123925952Y-106577738D01*
X123925952Y-106577738D02*
X123949762Y-106530119D01*
X123949762Y-106530119D02*
X123997381Y-106482500D01*
X123997381Y-106482500D02*
X124068809Y-106458690D01*
X124068809Y-106458690D02*
X124116428Y-106458690D01*
X124116428Y-106458690D02*
X124187857Y-106482500D01*
X124187857Y-106482500D02*
X124211666Y-106506309D01*
X124664047Y-106458690D02*
X124425952Y-106458690D01*
X124425952Y-106458690D02*
X124402143Y-106696785D01*
X124402143Y-106696785D02*
X124425952Y-106672976D01*
X124425952Y-106672976D02*
X124473571Y-106649166D01*
X124473571Y-106649166D02*
X124592619Y-106649166D01*
X124592619Y-106649166D02*
X124640238Y-106672976D01*
X124640238Y-106672976D02*
X124664047Y-106696785D01*
X124664047Y-106696785D02*
X124687857Y-106744404D01*
X124687857Y-106744404D02*
X124687857Y-106863452D01*
X124687857Y-106863452D02*
X124664047Y-106911071D01*
X124664047Y-106911071D02*
X124640238Y-106934880D01*
X124640238Y-106934880D02*
X124592619Y-106958690D01*
X124592619Y-106958690D02*
X124473571Y-106958690D01*
X124473571Y-106958690D02*
X124425952Y-106934880D01*
X124425952Y-106934880D02*
X124402143Y-106911071D01*
D14*
%TO.C,SW1*%
X132455535Y-117110713D02*
X131705535Y-117110713D01*
X131705535Y-117110713D02*
X131705535Y-116824999D01*
X131705535Y-116824999D02*
X131741250Y-116753570D01*
X131741250Y-116753570D02*
X131776964Y-116717856D01*
X131776964Y-116717856D02*
X131848392Y-116682142D01*
X131848392Y-116682142D02*
X131955535Y-116682142D01*
X131955535Y-116682142D02*
X132026964Y-116717856D01*
X132026964Y-116717856D02*
X132062678Y-116753570D01*
X132062678Y-116753570D02*
X132098392Y-116824999D01*
X132098392Y-116824999D02*
X132098392Y-117110713D01*
X132455535Y-116360713D02*
X131955535Y-116360713D01*
X132098392Y-116360713D02*
X132026964Y-116324999D01*
X132026964Y-116324999D02*
X131991250Y-116289285D01*
X131991250Y-116289285D02*
X131955535Y-116217856D01*
X131955535Y-116217856D02*
X131955535Y-116146427D01*
X132455535Y-115789284D02*
X132419821Y-115860713D01*
X132419821Y-115860713D02*
X132384107Y-115896427D01*
X132384107Y-115896427D02*
X132312678Y-115932141D01*
X132312678Y-115932141D02*
X132098392Y-115932141D01*
X132098392Y-115932141D02*
X132026964Y-115896427D01*
X132026964Y-115896427D02*
X131991250Y-115860713D01*
X131991250Y-115860713D02*
X131955535Y-115789284D01*
X131955535Y-115789284D02*
X131955535Y-115682141D01*
X131955535Y-115682141D02*
X131991250Y-115610713D01*
X131991250Y-115610713D02*
X132026964Y-115574999D01*
X132026964Y-115574999D02*
X132098392Y-115539284D01*
X132098392Y-115539284D02*
X132312678Y-115539284D01*
X132312678Y-115539284D02*
X132384107Y-115574999D01*
X132384107Y-115574999D02*
X132419821Y-115610713D01*
X132419821Y-115610713D02*
X132455535Y-115682141D01*
X132455535Y-115682141D02*
X132455535Y-115789284D01*
X131955535Y-114896428D02*
X132562678Y-114896428D01*
X132562678Y-114896428D02*
X132634107Y-114932142D01*
X132634107Y-114932142D02*
X132669821Y-114967856D01*
X132669821Y-114967856D02*
X132705535Y-115039285D01*
X132705535Y-115039285D02*
X132705535Y-115146428D01*
X132705535Y-115146428D02*
X132669821Y-115217856D01*
X132419821Y-114896428D02*
X132455535Y-114967856D01*
X132455535Y-114967856D02*
X132455535Y-115110713D01*
X132455535Y-115110713D02*
X132419821Y-115182142D01*
X132419821Y-115182142D02*
X132384107Y-115217856D01*
X132384107Y-115217856D02*
X132312678Y-115253570D01*
X132312678Y-115253570D02*
X132098392Y-115253570D01*
X132098392Y-115253570D02*
X132026964Y-115217856D01*
X132026964Y-115217856D02*
X131991250Y-115182142D01*
X131991250Y-115182142D02*
X131955535Y-115110713D01*
X131955535Y-115110713D02*
X131955535Y-114967856D01*
X131955535Y-114967856D02*
X131991250Y-114896428D01*
X132062678Y-113839285D02*
X132098392Y-113732142D01*
X132098392Y-113732142D02*
X132134107Y-113696428D01*
X132134107Y-113696428D02*
X132205535Y-113660714D01*
X132205535Y-113660714D02*
X132312678Y-113660714D01*
X132312678Y-113660714D02*
X132384107Y-113696428D01*
X132384107Y-113696428D02*
X132419821Y-113732142D01*
X132419821Y-113732142D02*
X132455535Y-113803571D01*
X132455535Y-113803571D02*
X132455535Y-114089285D01*
X132455535Y-114089285D02*
X131705535Y-114089285D01*
X131705535Y-114089285D02*
X131705535Y-113839285D01*
X131705535Y-113839285D02*
X131741250Y-113767857D01*
X131741250Y-113767857D02*
X131776964Y-113732142D01*
X131776964Y-113732142D02*
X131848392Y-113696428D01*
X131848392Y-113696428D02*
X131919821Y-113696428D01*
X131919821Y-113696428D02*
X131991250Y-113732142D01*
X131991250Y-113732142D02*
X132026964Y-113767857D01*
X132026964Y-113767857D02*
X132062678Y-113839285D01*
X132062678Y-113839285D02*
X132062678Y-114089285D01*
X131705535Y-113446428D02*
X131705535Y-113017857D01*
X132455535Y-113232142D02*
X131705535Y-113232142D01*
X132455535Y-112767856D02*
X131705535Y-112767856D01*
X131705535Y-112767856D02*
X132455535Y-112339285D01*
X132455535Y-112339285D02*
X131705535Y-112339285D01*
D12*
%TO.C,JP6*%
X132428690Y-105566666D02*
X132785833Y-105566666D01*
X132785833Y-105566666D02*
X132857261Y-105590475D01*
X132857261Y-105590475D02*
X132904880Y-105638094D01*
X132904880Y-105638094D02*
X132928690Y-105709523D01*
X132928690Y-105709523D02*
X132928690Y-105757142D01*
X132928690Y-105328571D02*
X132428690Y-105328571D01*
X132428690Y-105328571D02*
X132428690Y-105138095D01*
X132428690Y-105138095D02*
X132452500Y-105090476D01*
X132452500Y-105090476D02*
X132476309Y-105066666D01*
X132476309Y-105066666D02*
X132523928Y-105042857D01*
X132523928Y-105042857D02*
X132595357Y-105042857D01*
X132595357Y-105042857D02*
X132642976Y-105066666D01*
X132642976Y-105066666D02*
X132666785Y-105090476D01*
X132666785Y-105090476D02*
X132690595Y-105138095D01*
X132690595Y-105138095D02*
X132690595Y-105328571D01*
X132428690Y-104614285D02*
X132428690Y-104709523D01*
X132428690Y-104709523D02*
X132452500Y-104757142D01*
X132452500Y-104757142D02*
X132476309Y-104780952D01*
X132476309Y-104780952D02*
X132547738Y-104828571D01*
X132547738Y-104828571D02*
X132642976Y-104852380D01*
X132642976Y-104852380D02*
X132833452Y-104852380D01*
X132833452Y-104852380D02*
X132881071Y-104828571D01*
X132881071Y-104828571D02*
X132904880Y-104804761D01*
X132904880Y-104804761D02*
X132928690Y-104757142D01*
X132928690Y-104757142D02*
X132928690Y-104661904D01*
X132928690Y-104661904D02*
X132904880Y-104614285D01*
X132904880Y-104614285D02*
X132881071Y-104590476D01*
X132881071Y-104590476D02*
X132833452Y-104566666D01*
X132833452Y-104566666D02*
X132714404Y-104566666D01*
X132714404Y-104566666D02*
X132666785Y-104590476D01*
X132666785Y-104590476D02*
X132642976Y-104614285D01*
X132642976Y-104614285D02*
X132619166Y-104661904D01*
X132619166Y-104661904D02*
X132619166Y-104757142D01*
X132619166Y-104757142D02*
X132642976Y-104804761D01*
X132642976Y-104804761D02*
X132666785Y-104828571D01*
X132666785Y-104828571D02*
X132714404Y-104852380D01*
%TO.C,JP5*%
X129258690Y-105336666D02*
X129615833Y-105336666D01*
X129615833Y-105336666D02*
X129687261Y-105360475D01*
X129687261Y-105360475D02*
X129734880Y-105408094D01*
X129734880Y-105408094D02*
X129758690Y-105479523D01*
X129758690Y-105479523D02*
X129758690Y-105527142D01*
X129758690Y-105098571D02*
X129258690Y-105098571D01*
X129258690Y-105098571D02*
X129258690Y-104908095D01*
X129258690Y-104908095D02*
X129282500Y-104860476D01*
X129282500Y-104860476D02*
X129306309Y-104836666D01*
X129306309Y-104836666D02*
X129353928Y-104812857D01*
X129353928Y-104812857D02*
X129425357Y-104812857D01*
X129425357Y-104812857D02*
X129472976Y-104836666D01*
X129472976Y-104836666D02*
X129496785Y-104860476D01*
X129496785Y-104860476D02*
X129520595Y-104908095D01*
X129520595Y-104908095D02*
X129520595Y-105098571D01*
X129258690Y-104360476D02*
X129258690Y-104598571D01*
X129258690Y-104598571D02*
X129496785Y-104622380D01*
X129496785Y-104622380D02*
X129472976Y-104598571D01*
X129472976Y-104598571D02*
X129449166Y-104550952D01*
X129449166Y-104550952D02*
X129449166Y-104431904D01*
X129449166Y-104431904D02*
X129472976Y-104384285D01*
X129472976Y-104384285D02*
X129496785Y-104360476D01*
X129496785Y-104360476D02*
X129544404Y-104336666D01*
X129544404Y-104336666D02*
X129663452Y-104336666D01*
X129663452Y-104336666D02*
X129711071Y-104360476D01*
X129711071Y-104360476D02*
X129734880Y-104384285D01*
X129734880Y-104384285D02*
X129758690Y-104431904D01*
X129758690Y-104431904D02*
X129758690Y-104550952D01*
X129758690Y-104550952D02*
X129734880Y-104598571D01*
X129734880Y-104598571D02*
X129711071Y-104622380D01*
D15*
%TO.C,J1*%
X113369048Y-122247380D02*
X113369048Y-121247380D01*
X113940476Y-122247380D02*
X113511905Y-121675952D01*
X113940476Y-121247380D02*
X113369048Y-121818809D01*
X114369048Y-122247380D02*
X114369048Y-121247380D01*
X114369048Y-121247380D02*
X114940476Y-122247380D01*
X114940476Y-122247380D02*
X114940476Y-121247380D01*
X115321429Y-121247380D02*
X115988095Y-122247380D01*
X115988095Y-121247380D02*
X115321429Y-122247380D01*
X116369048Y-121866428D02*
X117130953Y-121866428D01*
X119169048Y-122217380D02*
X119169048Y-121217380D01*
X119740476Y-122217380D02*
X119311905Y-121645952D01*
X119740476Y-121217380D02*
X119169048Y-121788809D01*
X120169048Y-122217380D02*
X120169048Y-121217380D01*
X120169048Y-121217380D02*
X120740476Y-122217380D01*
X120740476Y-122217380D02*
X120740476Y-121217380D01*
X121121429Y-121217380D02*
X121788095Y-122217380D01*
X121788095Y-121217380D02*
X121121429Y-122217380D01*
X122169048Y-121836428D02*
X122930953Y-121836428D01*
X122550000Y-122217380D02*
X122550000Y-121455476D01*
D12*
%TO.C,U4*%
X115469047Y-115295690D02*
X115469047Y-115700452D01*
X115469047Y-115700452D02*
X115492857Y-115748071D01*
X115492857Y-115748071D02*
X115516666Y-115771880D01*
X115516666Y-115771880D02*
X115564285Y-115795690D01*
X115564285Y-115795690D02*
X115659523Y-115795690D01*
X115659523Y-115795690D02*
X115707142Y-115771880D01*
X115707142Y-115771880D02*
X115730952Y-115748071D01*
X115730952Y-115748071D02*
X115754761Y-115700452D01*
X115754761Y-115700452D02*
X115754761Y-115295690D01*
X116207143Y-115462357D02*
X116207143Y-115795690D01*
X116088095Y-115271880D02*
X115969048Y-115629023D01*
X115969048Y-115629023D02*
X116278571Y-115629023D01*
X115521049Y-114770833D02*
X115759144Y-114770833D01*
X115473430Y-114913690D02*
X115640096Y-114413690D01*
X115640096Y-114413690D02*
X115806763Y-114913690D01*
X115973429Y-114913690D02*
X115973429Y-114413690D01*
X115973429Y-114413690D02*
X116092477Y-114413690D01*
X116092477Y-114413690D02*
X116163905Y-114437500D01*
X116163905Y-114437500D02*
X116211524Y-114485119D01*
X116211524Y-114485119D02*
X116235334Y-114532738D01*
X116235334Y-114532738D02*
X116259143Y-114627976D01*
X116259143Y-114627976D02*
X116259143Y-114699404D01*
X116259143Y-114699404D02*
X116235334Y-114794642D01*
X116235334Y-114794642D02*
X116211524Y-114842261D01*
X116211524Y-114842261D02*
X116163905Y-114889880D01*
X116163905Y-114889880D02*
X116092477Y-114913690D01*
X116092477Y-114913690D02*
X115973429Y-114913690D01*
X116687715Y-114580357D02*
X116687715Y-114913690D01*
X116473429Y-114580357D02*
X116473429Y-114842261D01*
X116473429Y-114842261D02*
X116497239Y-114889880D01*
X116497239Y-114889880D02*
X116544858Y-114913690D01*
X116544858Y-114913690D02*
X116616286Y-114913690D01*
X116616286Y-114913690D02*
X116663905Y-114889880D01*
X116663905Y-114889880D02*
X116687715Y-114866071D01*
X116925810Y-114913690D02*
X116925810Y-114580357D01*
X116925810Y-114627976D02*
X116949620Y-114604166D01*
X116949620Y-114604166D02*
X116997239Y-114580357D01*
X116997239Y-114580357D02*
X117068667Y-114580357D01*
X117068667Y-114580357D02*
X117116286Y-114604166D01*
X117116286Y-114604166D02*
X117140096Y-114651785D01*
X117140096Y-114651785D02*
X117140096Y-114913690D01*
X117140096Y-114651785D02*
X117163905Y-114604166D01*
X117163905Y-114604166D02*
X117211524Y-114580357D01*
X117211524Y-114580357D02*
X117282953Y-114580357D01*
X117282953Y-114580357D02*
X117330572Y-114604166D01*
X117330572Y-114604166D02*
X117354382Y-114651785D01*
X117354382Y-114651785D02*
X117354382Y-114913690D01*
X117854382Y-114913690D02*
X117568668Y-114913690D01*
X117711525Y-114913690D02*
X117711525Y-114413690D01*
X117711525Y-114413690D02*
X117663906Y-114485119D01*
X117663906Y-114485119D02*
X117616287Y-114532738D01*
X117616287Y-114532738D02*
X117568668Y-114556547D01*
X118044858Y-114461309D02*
X118068667Y-114437500D01*
X118068667Y-114437500D02*
X118116286Y-114413690D01*
X118116286Y-114413690D02*
X118235334Y-114413690D01*
X118235334Y-114413690D02*
X118282953Y-114437500D01*
X118282953Y-114437500D02*
X118306762Y-114461309D01*
X118306762Y-114461309D02*
X118330572Y-114508928D01*
X118330572Y-114508928D02*
X118330572Y-114556547D01*
X118330572Y-114556547D02*
X118306762Y-114627976D01*
X118306762Y-114627976D02*
X118021048Y-114913690D01*
X118021048Y-114913690D02*
X118330572Y-114913690D01*
X118782952Y-114413690D02*
X118544857Y-114413690D01*
X118544857Y-114413690D02*
X118521048Y-114651785D01*
X118521048Y-114651785D02*
X118544857Y-114627976D01*
X118544857Y-114627976D02*
X118592476Y-114604166D01*
X118592476Y-114604166D02*
X118711524Y-114604166D01*
X118711524Y-114604166D02*
X118759143Y-114627976D01*
X118759143Y-114627976D02*
X118782952Y-114651785D01*
X118782952Y-114651785D02*
X118806762Y-114699404D01*
X118806762Y-114699404D02*
X118806762Y-114818452D01*
X118806762Y-114818452D02*
X118782952Y-114866071D01*
X118782952Y-114866071D02*
X118759143Y-114889880D01*
X118759143Y-114889880D02*
X118711524Y-114913690D01*
X118711524Y-114913690D02*
X118592476Y-114913690D01*
X118592476Y-114913690D02*
X118544857Y-114889880D01*
X118544857Y-114889880D02*
X118521048Y-114866071D01*
X119116285Y-114413690D02*
X119163904Y-114413690D01*
X119163904Y-114413690D02*
X119211523Y-114437500D01*
X119211523Y-114437500D02*
X119235333Y-114461309D01*
X119235333Y-114461309D02*
X119259142Y-114508928D01*
X119259142Y-114508928D02*
X119282952Y-114604166D01*
X119282952Y-114604166D02*
X119282952Y-114723214D01*
X119282952Y-114723214D02*
X119259142Y-114818452D01*
X119259142Y-114818452D02*
X119235333Y-114866071D01*
X119235333Y-114866071D02*
X119211523Y-114889880D01*
X119211523Y-114889880D02*
X119163904Y-114913690D01*
X119163904Y-114913690D02*
X119116285Y-114913690D01*
X119116285Y-114913690D02*
X119068666Y-114889880D01*
X119068666Y-114889880D02*
X119044857Y-114866071D01*
X119044857Y-114866071D02*
X119021047Y-114818452D01*
X119021047Y-114818452D02*
X118997238Y-114723214D01*
X118997238Y-114723214D02*
X118997238Y-114604166D01*
X118997238Y-114604166D02*
X119021047Y-114508928D01*
X119021047Y-114508928D02*
X119044857Y-114461309D01*
X119044857Y-114461309D02*
X119068666Y-114437500D01*
X119068666Y-114437500D02*
X119116285Y-114413690D01*
%TO.C,U1*%
X130232500Y-108440476D02*
X130208690Y-108488095D01*
X130208690Y-108488095D02*
X130208690Y-108559524D01*
X130208690Y-108559524D02*
X130232500Y-108630952D01*
X130232500Y-108630952D02*
X130280119Y-108678571D01*
X130280119Y-108678571D02*
X130327738Y-108702381D01*
X130327738Y-108702381D02*
X130422976Y-108726190D01*
X130422976Y-108726190D02*
X130494404Y-108726190D01*
X130494404Y-108726190D02*
X130589642Y-108702381D01*
X130589642Y-108702381D02*
X130637261Y-108678571D01*
X130637261Y-108678571D02*
X130684880Y-108630952D01*
X130684880Y-108630952D02*
X130708690Y-108559524D01*
X130708690Y-108559524D02*
X130708690Y-108511905D01*
X130708690Y-108511905D02*
X130684880Y-108440476D01*
X130684880Y-108440476D02*
X130661071Y-108416667D01*
X130661071Y-108416667D02*
X130494404Y-108416667D01*
X130494404Y-108416667D02*
X130494404Y-108511905D01*
X130708690Y-108202381D02*
X130208690Y-108202381D01*
X130208690Y-108202381D02*
X130708690Y-107916667D01*
X130708690Y-107916667D02*
X130208690Y-107916667D01*
X130708690Y-107678571D02*
X130208690Y-107678571D01*
X130208690Y-107678571D02*
X130208690Y-107559523D01*
X130208690Y-107559523D02*
X130232500Y-107488095D01*
X130232500Y-107488095D02*
X130280119Y-107440476D01*
X130280119Y-107440476D02*
X130327738Y-107416666D01*
X130327738Y-107416666D02*
X130422976Y-107392857D01*
X130422976Y-107392857D02*
X130494404Y-107392857D01*
X130494404Y-107392857D02*
X130589642Y-107416666D01*
X130589642Y-107416666D02*
X130637261Y-107440476D01*
X130637261Y-107440476D02*
X130684880Y-107488095D01*
X130684880Y-107488095D02*
X130708690Y-107559523D01*
X130708690Y-107559523D02*
X130708690Y-107678571D01*
X130708690Y-111253571D02*
X130470595Y-111420237D01*
X130708690Y-111539285D02*
X130208690Y-111539285D01*
X130208690Y-111539285D02*
X130208690Y-111348809D01*
X130208690Y-111348809D02*
X130232500Y-111301190D01*
X130232500Y-111301190D02*
X130256309Y-111277380D01*
X130256309Y-111277380D02*
X130303928Y-111253571D01*
X130303928Y-111253571D02*
X130375357Y-111253571D01*
X130375357Y-111253571D02*
X130422976Y-111277380D01*
X130422976Y-111277380D02*
X130446785Y-111301190D01*
X130446785Y-111301190D02*
X130470595Y-111348809D01*
X130470595Y-111348809D02*
X130470595Y-111539285D01*
X130446785Y-111039285D02*
X130446785Y-110872618D01*
X130708690Y-110801190D02*
X130708690Y-111039285D01*
X130708690Y-111039285D02*
X130208690Y-111039285D01*
X130208690Y-111039285D02*
X130208690Y-110801190D01*
X130684880Y-110610713D02*
X130708690Y-110539285D01*
X130708690Y-110539285D02*
X130708690Y-110420237D01*
X130708690Y-110420237D02*
X130684880Y-110372618D01*
X130684880Y-110372618D02*
X130661071Y-110348809D01*
X130661071Y-110348809D02*
X130613452Y-110324999D01*
X130613452Y-110324999D02*
X130565833Y-110324999D01*
X130565833Y-110324999D02*
X130518214Y-110348809D01*
X130518214Y-110348809D02*
X130494404Y-110372618D01*
X130494404Y-110372618D02*
X130470595Y-110420237D01*
X130470595Y-110420237D02*
X130446785Y-110515475D01*
X130446785Y-110515475D02*
X130422976Y-110563094D01*
X130422976Y-110563094D02*
X130399166Y-110586904D01*
X130399166Y-110586904D02*
X130351547Y-110610713D01*
X130351547Y-110610713D02*
X130303928Y-110610713D01*
X130303928Y-110610713D02*
X130256309Y-110586904D01*
X130256309Y-110586904D02*
X130232500Y-110563094D01*
X130232500Y-110563094D02*
X130208690Y-110515475D01*
X130208690Y-110515475D02*
X130208690Y-110396428D01*
X130208690Y-110396428D02*
X130232500Y-110324999D01*
X130446785Y-110110714D02*
X130446785Y-109944047D01*
X130708690Y-109872619D02*
X130708690Y-110110714D01*
X130708690Y-110110714D02*
X130208690Y-110110714D01*
X130208690Y-110110714D02*
X130208690Y-109872619D01*
X130208690Y-109729761D02*
X130208690Y-109444047D01*
X130708690Y-109586904D02*
X130208690Y-109586904D01*
X135959880Y-111634523D02*
X135983690Y-111563095D01*
X135983690Y-111563095D02*
X135983690Y-111444047D01*
X135983690Y-111444047D02*
X135959880Y-111396428D01*
X135959880Y-111396428D02*
X135936071Y-111372619D01*
X135936071Y-111372619D02*
X135888452Y-111348809D01*
X135888452Y-111348809D02*
X135840833Y-111348809D01*
X135840833Y-111348809D02*
X135793214Y-111372619D01*
X135793214Y-111372619D02*
X135769404Y-111396428D01*
X135769404Y-111396428D02*
X135745595Y-111444047D01*
X135745595Y-111444047D02*
X135721785Y-111539285D01*
X135721785Y-111539285D02*
X135697976Y-111586904D01*
X135697976Y-111586904D02*
X135674166Y-111610714D01*
X135674166Y-111610714D02*
X135626547Y-111634523D01*
X135626547Y-111634523D02*
X135578928Y-111634523D01*
X135578928Y-111634523D02*
X135531309Y-111610714D01*
X135531309Y-111610714D02*
X135507500Y-111586904D01*
X135507500Y-111586904D02*
X135483690Y-111539285D01*
X135483690Y-111539285D02*
X135483690Y-111420238D01*
X135483690Y-111420238D02*
X135507500Y-111348809D01*
X135483690Y-111182143D02*
X135983690Y-111063095D01*
X135983690Y-111063095D02*
X135626547Y-110967857D01*
X135626547Y-110967857D02*
X135983690Y-110872619D01*
X135983690Y-110872619D02*
X135483690Y-110753572D01*
X135983690Y-110563095D02*
X135483690Y-110563095D01*
X135483690Y-110563095D02*
X135483690Y-110444047D01*
X135483690Y-110444047D02*
X135507500Y-110372619D01*
X135507500Y-110372619D02*
X135555119Y-110325000D01*
X135555119Y-110325000D02*
X135602738Y-110301190D01*
X135602738Y-110301190D02*
X135697976Y-110277381D01*
X135697976Y-110277381D02*
X135769404Y-110277381D01*
X135769404Y-110277381D02*
X135864642Y-110301190D01*
X135864642Y-110301190D02*
X135912261Y-110325000D01*
X135912261Y-110325000D02*
X135959880Y-110372619D01*
X135959880Y-110372619D02*
X135983690Y-110444047D01*
X135983690Y-110444047D02*
X135983690Y-110563095D01*
X135983690Y-110063095D02*
X135483690Y-110063095D01*
X135483690Y-109729762D02*
X135483690Y-109634524D01*
X135483690Y-109634524D02*
X135507500Y-109586905D01*
X135507500Y-109586905D02*
X135555119Y-109539286D01*
X135555119Y-109539286D02*
X135650357Y-109515476D01*
X135650357Y-109515476D02*
X135817023Y-109515476D01*
X135817023Y-109515476D02*
X135912261Y-109539286D01*
X135912261Y-109539286D02*
X135959880Y-109586905D01*
X135959880Y-109586905D02*
X135983690Y-109634524D01*
X135983690Y-109634524D02*
X135983690Y-109729762D01*
X135983690Y-109729762D02*
X135959880Y-109777381D01*
X135959880Y-109777381D02*
X135912261Y-109825000D01*
X135912261Y-109825000D02*
X135817023Y-109848809D01*
X135817023Y-109848809D02*
X135650357Y-109848809D01*
X135650357Y-109848809D02*
X135555119Y-109825000D01*
X135555119Y-109825000D02*
X135507500Y-109777381D01*
X135507500Y-109777381D02*
X135483690Y-109729762D01*
X135959880Y-109130951D02*
X135983690Y-109059523D01*
X135983690Y-109059523D02*
X135983690Y-108940475D01*
X135983690Y-108940475D02*
X135959880Y-108892856D01*
X135959880Y-108892856D02*
X135936071Y-108869047D01*
X135936071Y-108869047D02*
X135888452Y-108845237D01*
X135888452Y-108845237D02*
X135840833Y-108845237D01*
X135840833Y-108845237D02*
X135793214Y-108869047D01*
X135793214Y-108869047D02*
X135769404Y-108892856D01*
X135769404Y-108892856D02*
X135745595Y-108940475D01*
X135745595Y-108940475D02*
X135721785Y-109035713D01*
X135721785Y-109035713D02*
X135697976Y-109083332D01*
X135697976Y-109083332D02*
X135674166Y-109107142D01*
X135674166Y-109107142D02*
X135626547Y-109130951D01*
X135626547Y-109130951D02*
X135578928Y-109130951D01*
X135578928Y-109130951D02*
X135531309Y-109107142D01*
X135531309Y-109107142D02*
X135507500Y-109083332D01*
X135507500Y-109083332D02*
X135483690Y-109035713D01*
X135483690Y-109035713D02*
X135483690Y-108916666D01*
X135483690Y-108916666D02*
X135507500Y-108845237D01*
X135483690Y-108678571D02*
X135983690Y-108559523D01*
X135983690Y-108559523D02*
X135626547Y-108464285D01*
X135626547Y-108464285D02*
X135983690Y-108369047D01*
X135983690Y-108369047D02*
X135483690Y-108250000D01*
X135936071Y-107773809D02*
X135959880Y-107797618D01*
X135959880Y-107797618D02*
X135983690Y-107869047D01*
X135983690Y-107869047D02*
X135983690Y-107916666D01*
X135983690Y-107916666D02*
X135959880Y-107988094D01*
X135959880Y-107988094D02*
X135912261Y-108035713D01*
X135912261Y-108035713D02*
X135864642Y-108059523D01*
X135864642Y-108059523D02*
X135769404Y-108083332D01*
X135769404Y-108083332D02*
X135697976Y-108083332D01*
X135697976Y-108083332D02*
X135602738Y-108059523D01*
X135602738Y-108059523D02*
X135555119Y-108035713D01*
X135555119Y-108035713D02*
X135507500Y-107988094D01*
X135507500Y-107988094D02*
X135483690Y-107916666D01*
X135483690Y-107916666D02*
X135483690Y-107869047D01*
X135483690Y-107869047D02*
X135507500Y-107797618D01*
X135507500Y-107797618D02*
X135531309Y-107773809D01*
X135983690Y-107321428D02*
X135983690Y-107559523D01*
X135983690Y-107559523D02*
X135483690Y-107559523D01*
X135983690Y-107154761D02*
X135483690Y-107154761D01*
X135983690Y-106869047D02*
X135697976Y-107083332D01*
X135483690Y-106869047D02*
X135769404Y-107154761D01*
D16*
%TO.C,C2*%
X125005000Y-102788748D02*
X125005000Y-103311252D01*
X123535000Y-102788748D02*
X123535000Y-103311252D01*
%TO.C,J5*%
X128015000Y-122310000D02*
X128015000Y-123460000D01*
X128015000Y-123460000D02*
X129065000Y-123460000D01*
X129065000Y-123460000D02*
X129065000Y-124450000D01*
X129185000Y-120340000D02*
X134065000Y-120340000D01*
X135235000Y-122310000D02*
X135235000Y-123460000D01*
X135235000Y-123460000D02*
X134185000Y-123460000D01*
%TO.C,U2*%
X121040000Y-117475000D02*
X121040000Y-111465000D01*
X127860000Y-115225000D02*
X127860000Y-111465000D01*
X121040000Y-111465000D02*
X122300000Y-111465000D01*
X127860000Y-111465000D02*
X126600000Y-111465000D01*
%TO.C,C1*%
X122360000Y-102788748D02*
X122360000Y-103311252D01*
X120890000Y-102788748D02*
X120890000Y-103311252D01*
%TO.C,R4*%
X117460000Y-109792379D02*
X117460000Y-110127621D01*
X116700000Y-109792379D02*
X116700000Y-110127621D01*
%TO.C,JP3*%
X132920000Y-117775000D02*
X135720000Y-117775000D01*
X132920000Y-119775000D02*
X132920000Y-117775000D01*
X135720000Y-117775000D02*
X135720000Y-119775000D01*
X135720000Y-119775000D02*
X132920000Y-119775000D01*
%TO.C,R3*%
X115380000Y-110117621D02*
X115380000Y-109782379D01*
X116140000Y-110117621D02*
X116140000Y-109782379D01*
%TO.C,C4*%
X120915000Y-107011252D02*
X120915000Y-106488748D01*
X122385000Y-107011252D02*
X122385000Y-106488748D01*
%TO.C,JP4*%
X133225000Y-101650000D02*
X136025000Y-101650000D01*
X133225000Y-103650000D02*
X133225000Y-101650000D01*
X136025000Y-101650000D02*
X136025000Y-103650000D01*
X136025000Y-103650000D02*
X133225000Y-103650000D01*
%TO.C,C3*%
X127785000Y-102788748D02*
X127785000Y-103311252D01*
X126315000Y-102788748D02*
X126315000Y-103311252D01*
%TO.C,C6*%
X127810000Y-106513748D02*
X127810000Y-107036252D01*
X126340000Y-106513748D02*
X126340000Y-107036252D01*
D11*
%TO.C,H2*%
X120250000Y-123050000D02*
X120250000Y-123050000D01*
X120250000Y-125250000D02*
X120250000Y-125250000D01*
X120250000Y-125250000D02*
G75*
G03*
X120250000Y-123050000I0J1100000D01*
G01*
X120250000Y-123050000D02*
G75*
G03*
X120250000Y-125250000I0J-1100000D01*
G01*
D16*
%TO.C,C7*%
X129440000Y-114886252D02*
X129440000Y-114363748D01*
X130910000Y-114886252D02*
X130910000Y-114363748D01*
%TO.C,J6*%
X128965000Y-123145000D02*
X128965000Y-122450000D01*
X129650000Y-123145000D02*
X128965000Y-123145000D01*
X130335000Y-123145000D02*
X134210000Y-123145000D01*
X130335000Y-123145000D02*
X130335000Y-123058276D01*
X134210000Y-123145000D02*
X134210000Y-122844493D01*
X134210000Y-122055507D02*
X134210000Y-121755000D01*
X130335000Y-121841724D02*
X130335000Y-121755000D01*
X130335000Y-121755000D02*
X134210000Y-121755000D01*
%TO.C,R1*%
X118920000Y-109782379D02*
X118920000Y-110117621D01*
X118160000Y-109782379D02*
X118160000Y-110117621D01*
%TO.C,J4*%
X125365000Y-130240000D02*
X125365000Y-130980000D01*
X125365000Y-130980000D02*
X125865000Y-130980000D01*
X125605000Y-124420000D02*
X125605000Y-130740000D01*
X125605000Y-124420000D02*
X136345000Y-124420000D01*
X125605000Y-124880000D02*
X136345000Y-124880000D01*
X125605000Y-130180000D02*
X136345000Y-130180000D01*
X125605000Y-130740000D02*
X136345000Y-130740000D01*
X136345000Y-124420000D02*
X136345000Y-130740000D01*
%TO.C,J3*%
X136070000Y-95080000D02*
X136070000Y-94340000D01*
X136070000Y-94340000D02*
X135570000Y-94340000D01*
X135830000Y-100900000D02*
X135830000Y-94580000D01*
X135830000Y-100900000D02*
X112389000Y-100900000D01*
X135830000Y-100440000D02*
X112389000Y-100440000D01*
X135830000Y-95140000D02*
X112389000Y-95140000D01*
X135830000Y-94580000D02*
X112389000Y-94580000D01*
X112389000Y-100900000D02*
X112389000Y-94580000D01*
%TO.C,R2*%
X119510000Y-110120121D02*
X119510000Y-109784879D01*
X120270000Y-110120121D02*
X120270000Y-109784879D01*
D17*
%TO.C,GN1*%
X114940000Y-119580000D02*
X114940000Y-100730000D01*
D16*
X111870000Y-119780000D02*
X111870000Y-100000000D01*
%TO.C,JP1*%
X125000000Y-117775000D02*
X127800000Y-117775000D01*
X125000000Y-119775000D02*
X125000000Y-117775000D01*
X127800000Y-117775000D02*
X127800000Y-119775000D01*
X127800000Y-119775000D02*
X125000000Y-119775000D01*
%TO.C,U3*%
X115140000Y-105080000D02*
X115140000Y-108530000D01*
X115140000Y-105080000D02*
X115140000Y-103130000D01*
X120260000Y-105080000D02*
X120260000Y-107030000D01*
X120260000Y-105080000D02*
X120260000Y-103130000D01*
%TO.C,JP2*%
X129000000Y-117775000D02*
X131800000Y-117775000D01*
X129000000Y-119775000D02*
X129000000Y-117775000D01*
X131800000Y-117775000D02*
X131800000Y-119775000D01*
X131800000Y-119775000D02*
X129000000Y-119775000D01*
%TO.C,C5*%
X123550000Y-107036252D02*
X123550000Y-106513748D01*
X125020000Y-107036252D02*
X125020000Y-106513748D01*
%TO.C,SW1*%
X134560000Y-112525000D02*
X134660000Y-112525000D01*
X133060000Y-112525000D02*
X133060000Y-116925000D01*
X136160000Y-116925000D02*
X136160000Y-112525000D01*
X134560000Y-116925000D02*
X134660000Y-116925000D01*
D11*
%TO.C,H1*%
X114500000Y-123050000D02*
X114500000Y-123050000D01*
X114500000Y-125250000D02*
X114500000Y-125250000D01*
X114500000Y-125250000D02*
G75*
G03*
X114500000Y-123050000I0J1100000D01*
G01*
X114500000Y-123050000D02*
G75*
G03*
X114500000Y-125250000I0J-1100000D01*
G01*
D16*
%TO.C,JP6*%
X133225000Y-104150000D02*
X136025000Y-104150000D01*
X133225000Y-106150000D02*
X133225000Y-104150000D01*
X136025000Y-104150000D02*
X136025000Y-106150000D01*
X136025000Y-106150000D02*
X133225000Y-106150000D01*
%TO.C,JP5*%
X130825000Y-101650000D02*
X131425000Y-101650000D01*
X129625000Y-102200000D02*
X129625000Y-102800000D01*
X132125000Y-102300000D02*
X132125000Y-105100000D01*
X129925000Y-102500000D02*
X129625000Y-102200000D01*
X129925000Y-102500000D02*
X129625000Y-102800000D01*
X130125000Y-105100000D02*
X130125000Y-102300000D01*
X131425000Y-105750000D02*
X130825000Y-105750000D01*
X132125000Y-102350000D02*
G75*
G03*
X131425000Y-101650000I-699999J1D01*
G01*
X130825000Y-101650000D02*
G75*
G03*
X130125000Y-102350000I-1J-699999D01*
G01*
X131425000Y-105750000D02*
G75*
G03*
X132125000Y-105050000I0J700000D01*
G01*
X130125000Y-105050000D02*
G75*
G03*
X130825000Y-105750000I700000J0D01*
G01*
%TO.C,J1*%
X111930000Y-130730000D02*
X123430000Y-130730000D01*
X111930000Y-124955000D02*
X111930000Y-130730000D01*
X111930000Y-124955000D02*
X112930000Y-125555000D01*
X117680000Y-124955000D02*
X117680000Y-130730000D01*
X117680000Y-124955000D02*
X118680000Y-125555000D01*
X123430000Y-124955000D02*
X123430000Y-130730000D01*
X123430000Y-124955000D02*
X124430000Y-125555000D01*
X117680000Y-122505000D02*
X118680000Y-121905000D01*
X117680000Y-122505000D02*
X117680000Y-120730000D01*
X123430000Y-122505000D02*
X124430000Y-121905000D01*
X123430000Y-122505000D02*
X123430000Y-120730000D01*
X112930000Y-121905000D02*
X112930000Y-125555000D01*
X112930000Y-121905000D02*
X111930000Y-122505000D01*
X118680000Y-121905000D02*
X118680000Y-125555000D01*
X124430000Y-121905000D02*
X124430000Y-125555000D01*
X111930000Y-120730000D02*
X111930000Y-122505000D01*
X111930000Y-120730000D02*
X123430000Y-120730000D01*
%TO.C,U4*%
X115140000Y-114850000D02*
X115140000Y-118300000D01*
X115140000Y-114850000D02*
X115140000Y-112900000D01*
X120260000Y-114850000D02*
X120260000Y-116800000D01*
X120260000Y-114850000D02*
X120260000Y-112900000D01*
%TD*%
%LPC*%
D18*
%TO.C,C2*%
X124270000Y-102100000D03*
X124270000Y-104000000D03*
%TD*%
D19*
%TO.C,J5*%
X129625000Y-123675000D03*
X130625000Y-123675000D03*
X131625000Y-123675000D03*
X132625000Y-123675000D03*
X133625000Y-123675000D03*
D20*
X128325000Y-121150000D03*
X134925000Y-121150000D03*
%TD*%
D21*
%TO.C,U2*%
X122149999Y-116524999D03*
X124449999Y-116524999D03*
D22*
X124449999Y-110224999D03*
D21*
X126749999Y-116524999D03*
%TD*%
D18*
%TO.C,C1*%
X121625000Y-102100000D03*
X121625000Y-104000000D03*
%TD*%
D23*
%TO.C,R4*%
X117080000Y-109362500D03*
X117080000Y-110557500D03*
%TD*%
D24*
%TO.C,JP3*%
X133669999Y-118774999D03*
X134969999Y-118774999D03*
%TD*%
D25*
%TO.C,R3*%
X115760000Y-110547500D03*
X115760000Y-109352500D03*
%TD*%
D26*
%TO.C,C4*%
X121650000Y-107700000D03*
X121650000Y-105800000D03*
%TD*%
D24*
%TO.C,JP4*%
X133974999Y-102649999D03*
X135274999Y-102649999D03*
%TD*%
D18*
%TO.C,C3*%
X127050000Y-102100000D03*
X127050000Y-104000000D03*
%TD*%
%TO.C,C6*%
X127075000Y-105825000D03*
X127075000Y-107725000D03*
%TD*%
D27*
%TO.C,H2*%
X120250000Y-124150000D03*
%TD*%
D26*
%TO.C,C7*%
X130175000Y-115575000D03*
X130175000Y-113675000D03*
%TD*%
D28*
%TO.C,J6*%
X129649999Y-122449999D03*
D29*
X130649999Y-122449999D03*
X131649999Y-122449999D03*
X132649999Y-122449999D03*
X133649999Y-122449999D03*
%TD*%
D23*
%TO.C,R1*%
X118540000Y-109352500D03*
X118540000Y-110547500D03*
%TD*%
D30*
%TO.C,J4*%
X127164999Y-127579999D03*
D31*
X129705000Y-127580000D03*
X132245000Y-127580000D03*
X134785000Y-127580000D03*
%TD*%
D30*
%TO.C,J3*%
X134269999Y-97739999D03*
D31*
X131730000Y-97740000D03*
X129190000Y-97740000D03*
X126650000Y-97740000D03*
X124110000Y-97740000D03*
X121570000Y-97740000D03*
X119030000Y-97740000D03*
X116490000Y-97740000D03*
X113950000Y-97740000D03*
%TD*%
D25*
%TO.C,R2*%
X119890000Y-110550000D03*
X119890000Y-109355000D03*
%TD*%
D32*
%TO.C,GN1*%
X113139999Y-117779999D03*
D33*
X113139999Y-115239999D03*
X113139999Y-112699999D03*
X113139999Y-110159999D03*
X113139999Y-107619999D03*
X113139999Y-105079999D03*
X113139999Y-102539999D03*
%TD*%
D24*
%TO.C,JP1*%
X125749999Y-118774999D03*
X127049999Y-118774999D03*
%TD*%
D34*
%TO.C,U3*%
X115795000Y-107555000D03*
X117065000Y-107555000D03*
X118335000Y-107555000D03*
X119605000Y-107555000D03*
X119605000Y-102605000D03*
X118335000Y-102605000D03*
X117065000Y-102605000D03*
X115795000Y-102605000D03*
%TD*%
D24*
%TO.C,JP2*%
X129749999Y-118774999D03*
X131049999Y-118774999D03*
%TD*%
D26*
%TO.C,C5*%
X124285000Y-107725000D03*
X124285000Y-105825000D03*
%TD*%
D35*
%TO.C,SW1*%
X135409999Y-112674999D03*
X133809999Y-112674999D03*
X135409999Y-116774999D03*
X133809999Y-116774999D03*
%TD*%
D36*
%TO.C,J2*%
X120250000Y-127050000D03*
X114500000Y-127050000D03*
%TD*%
D27*
%TO.C,H1*%
X114500000Y-124150000D03*
%TD*%
D24*
%TO.C,JP6*%
X133974999Y-105149999D03*
X135274999Y-105149999D03*
%TD*%
D37*
%TO.C,JP5*%
X131125000Y-102400000D03*
D38*
X131124999Y-103699999D03*
D39*
X131125000Y-105000000D03*
%TD*%
D36*
%TO.C,J1*%
X120230000Y-124130000D03*
X114480000Y-124130000D03*
%TD*%
D34*
%TO.C,U4*%
X115795000Y-117325000D03*
X117065000Y-117325000D03*
X118335000Y-117325000D03*
X119605000Y-117325000D03*
X119605000Y-112375000D03*
X118335000Y-112375000D03*
X117065000Y-112375000D03*
X115795000Y-112375000D03*
%TD*%
D32*
%TO.C,U1*%
X134386653Y-110557913D03*
X134386653Y-108017913D03*
X131846653Y-110557913D03*
X131846653Y-108017913D03*
%TD*%
M02*
