%TF.GenerationSoftware,KiCad,Pcbnew,(7.0.0-0)*%
%TF.CreationDate,2023-02-23T11:22:35+01:00*%
%TF.ProjectId,KNeoPiX_v1.3,4b4e656f-5069-4585-9f76-312e332e6b69,rev?*%
%TF.SameCoordinates,Original*%
%TF.FileFunction,Copper,L3,Inr*%
%TF.FilePolarity,Positive*%
%FSLAX46Y46*%
G04 Gerber Fmt 4.6, Leading zero omitted, Abs format (unit mm)*
G04 Created by KiCad (PCBNEW (7.0.0-0)) date 2023-02-23 11:22:35*
%MOMM*%
%LPD*%
G01*
G04 APERTURE LIST*
%TA.AperFunction,ComponentPad*%
%ADD10C,1.875000*%
%TD*%
%TA.AperFunction,ComponentPad*%
%ADD11R,0.850000X0.850000*%
%TD*%
%TA.AperFunction,ComponentPad*%
%ADD12O,0.850000X0.850000*%
%TD*%
%TA.AperFunction,ComponentPad*%
%ADD13R,2.200000X2.200000*%
%TD*%
%TA.AperFunction,ComponentPad*%
%ADD14C,2.200000*%
%TD*%
%TA.AperFunction,ComponentPad*%
%ADD15O,1.700000X1.700000*%
%TD*%
%TA.AperFunction,ComponentPad*%
%ADD16R,1.700000X1.700000*%
%TD*%
%TA.AperFunction,ComponentPad*%
%ADD17C,2.500000*%
%TD*%
%TA.AperFunction,ViaPad*%
%ADD18C,0.800000*%
%TD*%
%TA.AperFunction,Conductor*%
%ADD19C,0.250000*%
%TD*%
%TA.AperFunction,Conductor*%
%ADD20C,0.500000*%
%TD*%
G04 APERTURE END LIST*
D10*
%TO.N,KNX+*%
%TO.C,H2*%
X120250000Y-124150000D03*
%TD*%
D11*
%TO.N,EXT_GND*%
%TO.C,J6*%
X129649999Y-122449999D03*
D12*
%TO.N,S_3V3*%
X130649999Y-122449999D03*
%TO.N,SWCLK*%
X131649999Y-122449999D03*
%TO.N,SWDIO*%
X132649999Y-122449999D03*
%TO.N,RESET*%
X133649999Y-122449999D03*
%TD*%
D13*
%TO.N,EXT_GND*%
%TO.C,J4*%
X127164999Y-127579999D03*
D14*
%TO.N,NEO_DATA0_OUT*%
X129705000Y-127580000D03*
%TO.N,NEO_DATA1_OUT*%
X132245000Y-127580000D03*
%TO.N,EXT_VCC_IN*%
X134785000Y-127580000D03*
%TD*%
D13*
%TO.N,EXT_GND*%
%TO.C,J3*%
X134269999Y-97739999D03*
D14*
%TO.N,S_3V3*%
X131730000Y-97740000D03*
%TO.N,KNX_5V*%
X129190000Y-97740000D03*
%TO.N,D1*%
X126650000Y-97740000D03*
%TO.N,D2*%
X124110000Y-97740000D03*
%TO.N,D3*%
X121570000Y-97740000D03*
%TO.N,D8*%
X119030000Y-97740000D03*
%TO.N,D9*%
X116490000Y-97740000D03*
%TO.N,D10*%
X113950000Y-97740000D03*
%TD*%
D15*
%TO.N,KNX+*%
%TO.C,GN1*%
X113139999Y-117779999D03*
D16*
%TO.N,KNX_GND*%
X113139999Y-115239999D03*
D15*
%TO.N,KNX_SAVE*%
X113139999Y-112699999D03*
%TO.N,KNX_RX*%
X113139999Y-110159999D03*
%TO.N,KNX_TX*%
X113139999Y-107619999D03*
%TO.N,KNX_3V3*%
X113139999Y-105079999D03*
%TO.N,KNX_5V*%
X113139999Y-102539999D03*
%TD*%
D17*
%TO.N,KNX+*%
%TO.C,J2*%
X120250000Y-127050000D03*
%TO.N,KNX_GND*%
X114500000Y-127050000D03*
%TD*%
D10*
%TO.N,KNX_GND*%
%TO.C,H1*%
X114500000Y-124150000D03*
%TD*%
D17*
%TO.N,KNX+*%
%TO.C,J1*%
X120230000Y-124130000D03*
%TO.N,KNX_GND*%
X114480000Y-124130000D03*
%TD*%
D16*
%TO.N,SWDIO*%
%TO.C,U1*%
X134386653Y-110557913D03*
%TO.N,SWCLK*%
X134386653Y-108017913D03*
%TO.N,RESET*%
X131846653Y-110557913D03*
%TO.N,EXT_GND*%
X131846653Y-108017913D03*
%TD*%
D18*
%TO.N,KNX_3V3*%
X131050000Y-120060000D03*
X116534900Y-115646000D03*
%TO.N,KNX_RX*%
X114849799Y-106275201D03*
X120827800Y-110924400D03*
%TO.N,KNX_TX*%
X118387400Y-105776300D03*
%TO.N,D0*%
X131410400Y-115470000D03*
X135450000Y-115510000D03*
%TO.N,D10*%
X130350000Y-96184100D03*
%TO.N,D3*%
X125605900Y-115048500D03*
%TO.N,D2*%
X128145900Y-115642800D03*
%TO.N,D1*%
X129550400Y-112560500D03*
%TO.N,KNX_GND*%
X119832900Y-105944400D03*
X120892700Y-115173600D03*
X125315700Y-104922900D03*
%TO.N,D4_SDA*%
X114600000Y-108925000D03*
X118908200Y-115594200D03*
%TO.N,D5_SCL*%
X118335000Y-114050500D03*
%TO.N,D6_TX*%
X120827800Y-109767400D03*
%TO.N,D7_RX*%
X116421600Y-104841500D03*
%TO.N,KNX_SAVE*%
X134845500Y-100289000D03*
%TO.N,EXT_GND*%
X134670000Y-123960000D03*
X128500000Y-122699500D03*
X125750000Y-119887416D03*
X131410400Y-114170000D03*
X133825000Y-114170500D03*
X126954900Y-109769200D03*
%TO.N,5V-MCU*%
X132661051Y-104088949D03*
%TO.N,EXT_VCC_OUT*%
X135349500Y-119650500D03*
X126775000Y-114000000D03*
%TO.N,S_3V3*%
X128968600Y-104697800D03*
X115314652Y-111448859D03*
X129556392Y-120053608D03*
%TO.N,EXT_VCC_IN*%
X133270000Y-120060000D03*
X128400000Y-103450000D03*
%TO.N,SWCLK*%
X135125000Y-114300000D03*
%TO.N,SWDIO*%
X131375000Y-121525000D03*
%TD*%
D19*
%TO.N,KNX_3V3*%
X115250000Y-105080000D02*
X116534900Y-106364900D01*
X116534900Y-106364900D02*
X116534900Y-115646000D01*
X113140000Y-105080000D02*
X115250000Y-105080000D01*
%TO.N,KNX_RX*%
X115110000Y-110540000D02*
X113520000Y-110540000D01*
X115840000Y-107265402D02*
X115840000Y-109810000D01*
X114849799Y-106275201D02*
X115840000Y-107265402D01*
X115840000Y-109810000D02*
X115110000Y-110540000D01*
%TO.N,D3*%
X121570000Y-111012600D02*
X125605900Y-115048500D01*
X121570000Y-97740000D02*
X121570000Y-111012600D01*
%TO.N,D2*%
X124110000Y-97740000D02*
X124110000Y-109610000D01*
X128145900Y-113645900D02*
X128145900Y-115642800D01*
X124110000Y-109610000D02*
X128145900Y-113645900D01*
%TO.N,D1*%
X129693700Y-112417200D02*
X129693700Y-100783700D01*
X129693700Y-100783700D02*
X126650000Y-97740000D01*
X129550400Y-112560500D02*
X129693700Y-112417200D01*
D20*
%TO.N,KNX_GND*%
X120920000Y-116360000D02*
X120230000Y-117050000D01*
D19*
X119832900Y-114113800D02*
X120892700Y-115173600D01*
D20*
X120920000Y-115200900D02*
X120920000Y-116360000D01*
X117000000Y-117975000D02*
X117000000Y-121650000D01*
D19*
X120920000Y-115200900D02*
X120892700Y-115173600D01*
D20*
X117000000Y-121650000D02*
X114500000Y-124150000D01*
X120230000Y-117050000D02*
X117925000Y-117050000D01*
D19*
X119832900Y-105944400D02*
X119832900Y-114113800D01*
D20*
X117925000Y-117050000D02*
X117000000Y-117975000D01*
X114500000Y-127050000D02*
X114500000Y-124150000D01*
X114265000Y-115240000D02*
X113140000Y-115240000D01*
X117000000Y-117975000D02*
X114265000Y-115240000D01*
%TO.N,KNX+*%
X120250000Y-127050000D02*
X120250000Y-124150000D01*
D19*
%TO.N,EXT_GND*%
X133825000Y-114170500D02*
X133825000Y-115700000D01*
X134625000Y-116500000D02*
X134625000Y-123915000D01*
X125750000Y-120550000D02*
X125750000Y-119887416D01*
X134625000Y-123915000D02*
X134670000Y-123960000D01*
X133825000Y-114170500D02*
X133824500Y-114170000D01*
X133825000Y-115700000D02*
X134625000Y-116500000D01*
X127899500Y-122699500D02*
X125750000Y-120550000D01*
X128500000Y-122699500D02*
X127899500Y-122699500D01*
X133824500Y-114170000D02*
X131410400Y-114170000D01*
%TO.N,S_3V3*%
X130350000Y-99120000D02*
X131730000Y-97740000D01*
X130350000Y-119260000D02*
X130350000Y-99120000D01*
X129556392Y-120053608D02*
X130350000Y-119260000D01*
%TO.N,EXT_VCC_IN*%
X128464500Y-125314500D02*
X123925000Y-120775000D01*
X129150000Y-115664005D02*
X129150000Y-113564600D01*
X129150000Y-113564600D02*
X128243500Y-112658100D01*
X123925000Y-118600000D02*
X126157200Y-116367800D01*
X128243500Y-103606500D02*
X128400000Y-103450000D01*
X132519500Y-125314500D02*
X128464500Y-125314500D01*
X128243500Y-112658100D02*
X128243500Y-103606500D01*
X128446205Y-116367800D02*
X129150000Y-115664005D01*
X126157200Y-116367800D02*
X128446205Y-116367800D01*
X123925000Y-120775000D02*
X123925000Y-118600000D01*
X134785000Y-127580000D02*
X132519500Y-125314500D01*
%TD*%
M02*
