%TF.GenerationSoftware,KiCad,Pcbnew,(7.0.0-0)*%
%TF.CreationDate,2023-02-25T15:33:57+01:00*%
%TF.ProjectId,KNeoPiX_v1.3,4b4e656f-5069-4585-9f76-312e332e6b69,1.3*%
%TF.SameCoordinates,Original*%
%TF.FileFunction,Copper,L2,Inr*%
%TF.FilePolarity,Positive*%
%FSLAX46Y46*%
G04 Gerber Fmt 4.6, Leading zero omitted, Abs format (unit mm)*
G04 Created by KiCad (PCBNEW (7.0.0-0)) date 2023-02-25 15:33:57*
%MOMM*%
%LPD*%
G01*
G04 APERTURE LIST*
G04 Aperture macros list*
%AMRoundRect*
0 Rectangle with rounded corners*
0 $1 Rounding radius*
0 $2 $3 $4 $5 $6 $7 $8 $9 X,Y pos of 4 corners*
0 Add a 4 corners polygon primitive as box body*
4,1,4,$2,$3,$4,$5,$6,$7,$8,$9,$2,$3,0*
0 Add four circle primitives for the rounded corners*
1,1,$1+$1,$2,$3*
1,1,$1+$1,$4,$5*
1,1,$1+$1,$6,$7*
1,1,$1+$1,$8,$9*
0 Add four rect primitives between the rounded corners*
20,1,$1+$1,$2,$3,$4,$5,0*
20,1,$1+$1,$4,$5,$6,$7,0*
20,1,$1+$1,$6,$7,$8,$9,0*
20,1,$1+$1,$8,$9,$2,$3,0*%
G04 Aperture macros list end*
%TA.AperFunction,ComponentPad*%
%ADD10RoundRect,0.270000X-0.830000X0.630000X-0.830000X-0.630000X0.830000X-0.630000X0.830000X0.630000X0*%
%TD*%
%TA.AperFunction,ComponentPad*%
%ADD11C,1.875000*%
%TD*%
%TA.AperFunction,ComponentPad*%
%ADD12R,0.850000X0.850000*%
%TD*%
%TA.AperFunction,ComponentPad*%
%ADD13O,0.850000X0.850000*%
%TD*%
%TA.AperFunction,ComponentPad*%
%ADD14R,2.200000X2.200000*%
%TD*%
%TA.AperFunction,ComponentPad*%
%ADD15C,2.200000*%
%TD*%
%TA.AperFunction,ComponentPad*%
%ADD16O,1.700000X1.700000*%
%TD*%
%TA.AperFunction,ComponentPad*%
%ADD17R,1.700000X1.700000*%
%TD*%
%TA.AperFunction,ComponentPad*%
%ADD18C,2.500000*%
%TD*%
%TA.AperFunction,ViaPad*%
%ADD19C,0.800000*%
%TD*%
%TA.AperFunction,Conductor*%
%ADD20C,0.250000*%
%TD*%
%TA.AperFunction,Conductor*%
%ADD21C,0.500000*%
%TD*%
G04 APERTURE END LIST*
D10*
%TO.N,EXT_GND*%
%TO.C,U1*%
X131956746Y-108017914D03*
%TO.N,RESET*%
X131931700Y-110557914D03*
%TO.N,SWDIO*%
X134471700Y-110557914D03*
%TO.N,SWCLK*%
X134471700Y-108017914D03*
%TD*%
D11*
%TO.N,KNX+*%
%TO.C,H2*%
X120250000Y-124150000D03*
%TD*%
D12*
%TO.N,EXT_GND*%
%TO.C,J6*%
X129649999Y-122449999D03*
D13*
%TO.N,S_3V3*%
X130649999Y-122449999D03*
%TO.N,SWCLK*%
X131649999Y-122449999D03*
%TO.N,SWDIO*%
X132649999Y-122449999D03*
%TO.N,RESET*%
X133649999Y-122449999D03*
%TD*%
D14*
%TO.N,EXT_GND*%
%TO.C,J4*%
X127164999Y-127579999D03*
D15*
%TO.N,NEO_DATA0_OUT*%
X129705000Y-127580000D03*
%TO.N,NEO_DATA1_OUT*%
X132245000Y-127580000D03*
%TO.N,EXT_VCC_IN*%
X134785000Y-127580000D03*
%TD*%
D14*
%TO.N,EXT_GND*%
%TO.C,J3*%
X134269999Y-97739999D03*
D15*
%TO.N,S_3V3*%
X131730000Y-97740000D03*
%TO.N,KNX_5V*%
X129190000Y-97740000D03*
%TO.N,D1*%
X126650000Y-97740000D03*
%TO.N,D2*%
X124110000Y-97740000D03*
%TO.N,D3*%
X121570000Y-97740000D03*
%TO.N,D8*%
X119030000Y-97740000D03*
%TO.N,D9*%
X116490000Y-97740000D03*
%TO.N,D10*%
X113950000Y-97740000D03*
%TD*%
D16*
%TO.N,KNX+*%
%TO.C,GN1*%
X113139999Y-117779999D03*
D17*
%TO.N,KNX_GND*%
X113139999Y-115239999D03*
D16*
%TO.N,KNX_SAVE*%
X113139999Y-112699999D03*
%TO.N,KNX_RX*%
X113139999Y-110159999D03*
%TO.N,KNX_TX*%
X113139999Y-107619999D03*
%TO.N,KNX_3V3*%
X113139999Y-105079999D03*
%TO.N,KNX_5V*%
X113139999Y-102539999D03*
%TD*%
D18*
%TO.N,KNX+*%
%TO.C,J2*%
X120250000Y-127050000D03*
%TO.N,KNX_GND*%
X114500000Y-127050000D03*
%TD*%
D11*
%TO.N,KNX_GND*%
%TO.C,H1*%
X114500000Y-124150000D03*
%TD*%
D18*
%TO.N,KNX+*%
%TO.C,J1*%
X120230000Y-124130000D03*
%TO.N,KNX_GND*%
X114480000Y-124130000D03*
%TD*%
D19*
%TO.N,KNX_3V3*%
X131050000Y-120060000D03*
X116534900Y-115646000D03*
%TO.N,KNX_RX*%
X114849799Y-106275201D03*
X120827800Y-110924400D03*
%TO.N,KNX_TX*%
X118387400Y-105776300D03*
%TO.N,D0*%
X131410400Y-115470000D03*
X135450000Y-115510000D03*
%TO.N,D10*%
X130350000Y-96184100D03*
%TO.N,D3*%
X125605900Y-115048500D03*
%TO.N,D2*%
X128145900Y-115642800D03*
%TO.N,D1*%
X129550400Y-112560500D03*
%TO.N,KNX_GND*%
X119832900Y-105944400D03*
X120892700Y-115173600D03*
X125315700Y-104922900D03*
%TO.N,D4_SDA*%
X114600000Y-108925000D03*
X118908200Y-115594200D03*
%TO.N,D5_SCL*%
X118335000Y-114050500D03*
%TO.N,D6_TX*%
X120827800Y-109767400D03*
%TO.N,D7_RX*%
X116421600Y-104841500D03*
%TO.N,KNX_SAVE*%
X134845500Y-100289000D03*
%TO.N,EXT_GND*%
X134670000Y-123960000D03*
X128500000Y-122699500D03*
X125750000Y-119887416D03*
X131410400Y-114170000D03*
X133825000Y-114170500D03*
X126954900Y-109769200D03*
%TO.N,5V-MCU*%
X132661051Y-104088949D03*
%TO.N,EXT_VCC_OUT*%
X135349500Y-119650500D03*
X126775000Y-114000000D03*
%TO.N,S_3V3*%
X128968600Y-104697800D03*
X115314652Y-111448859D03*
X129556392Y-120053608D03*
%TO.N,EXT_VCC_IN*%
X133270000Y-120060000D03*
X128400000Y-103450000D03*
%TO.N,SWCLK*%
X135125000Y-114300000D03*
%TO.N,SWDIO*%
X131375000Y-121525000D03*
%TD*%
D20*
%TO.N,EXT_GND*%
X129360000Y-107220000D02*
X126954900Y-109625100D01*
X126954900Y-109625100D02*
X126954900Y-109769200D01*
X131158832Y-107220000D02*
X129360000Y-107220000D01*
X131956746Y-108017914D02*
X131158832Y-107220000D01*
%TO.N,SWCLK*%
X134471700Y-108017914D02*
X135896700Y-109442914D01*
X135896700Y-113528300D02*
X135125000Y-114300000D01*
X135896700Y-109442914D02*
X135896700Y-113528300D01*
%TO.N,KNX_3V3*%
X129642100Y-121467900D02*
X122317900Y-121467900D01*
X131050000Y-120060000D02*
X129642100Y-121467900D01*
X122317900Y-121467900D02*
X116534900Y-115684900D01*
X116534900Y-115684900D02*
X116534900Y-115646000D01*
%TO.N,KNX_TX*%
X116543700Y-107620000D02*
X118387400Y-105776300D01*
X113140000Y-107620000D02*
X116543700Y-107620000D01*
%TO.N,D10*%
X130350000Y-96184100D02*
X115505900Y-96184100D01*
X115505900Y-96184100D02*
X113950000Y-97740000D01*
%TO.N,KNX_GND*%
X124294200Y-105944400D02*
X125315700Y-104922900D01*
X119832900Y-105944400D02*
X124294200Y-105944400D01*
%TO.N,KNX_SAVE*%
X134845500Y-100289000D02*
X122434500Y-112700000D01*
X122434500Y-112700000D02*
X113140000Y-112700000D01*
%TO.N,KNX_5V*%
X113140000Y-102540000D02*
X124390000Y-102540000D01*
X124390000Y-102540000D02*
X129190000Y-97740000D01*
D21*
%TO.N,KNX+*%
X113140000Y-117780000D02*
X114755000Y-117780000D01*
X114755000Y-117780000D02*
X120230000Y-123255000D01*
D20*
%TO.N,EXT_GND*%
X134315000Y-123960000D02*
X132522000Y-125753000D01*
X126954900Y-109769200D02*
X126954900Y-109585100D01*
X134670000Y-123960000D02*
X134315000Y-123960000D01*
X131410400Y-114170000D02*
X129045000Y-114170000D01*
X126954900Y-112079900D02*
X126954900Y-109769200D01*
X129045000Y-114170000D02*
X126954900Y-112079900D01*
X128500000Y-122699500D02*
X128500000Y-125261000D01*
X132522000Y-125753000D02*
X128992000Y-125753000D01*
X128500000Y-125261000D02*
X128992000Y-125753000D01*
X128992000Y-125753000D02*
X127165000Y-127580000D01*
%TO.N,EXT_VCC_OUT*%
X128300000Y-118750000D02*
X126775000Y-117225000D01*
X126775000Y-117225000D02*
X126775000Y-114000000D01*
X134374000Y-118675000D02*
X130975000Y-118675000D01*
X135349500Y-119650500D02*
X134374000Y-118675000D01*
X130900000Y-118750000D02*
X128300000Y-118750000D01*
X130975000Y-118675000D02*
X130900000Y-118750000D01*
%TO.N,S_3V3*%
X127160000Y-105440000D02*
X128226400Y-105440000D01*
X131730000Y-97740000D02*
X131730000Y-101936400D01*
X120500000Y-107890000D02*
X124710000Y-107890000D01*
X115314652Y-111448859D02*
X116941141Y-111448859D01*
X128226400Y-105440000D02*
X128968600Y-104697800D01*
X116941141Y-111448859D02*
X120500000Y-107890000D01*
X131730000Y-101936400D02*
X128968600Y-104697800D01*
X124710000Y-107890000D02*
X127160000Y-105440000D01*
%TO.N,EXT_VCC_IN*%
X133950000Y-120060000D02*
X133270000Y-120060000D01*
X135550000Y-121660000D02*
X135550000Y-126815000D01*
X133950000Y-120060000D02*
X135550000Y-121660000D01*
X135550000Y-126815000D02*
X134785000Y-127580000D01*
%TD*%
M02*
