%TF.GenerationSoftware,KiCad,Pcbnew,(7.0.0-0)*%
%TF.CreationDate,2023-02-22T23:04:00+01:00*%
%TF.ProjectId,KNeoPiX_v1.3,4b4e656f-5069-4585-9f76-312e332e6b69,rev?*%
%TF.SameCoordinates,Original*%
%TF.FileFunction,Soldermask,Bot*%
%TF.FilePolarity,Negative*%
%FSLAX46Y46*%
G04 Gerber Fmt 4.6, Leading zero omitted, Abs format (unit mm)*
G04 Created by KiCad (PCBNEW (7.0.0-0)) date 2023-02-22 23:04:01*
%MOMM*%
%LPD*%
G01*
G04 APERTURE LIST*
%ADD10C,1.875000*%
%ADD11R,0.850000X0.850000*%
%ADD12O,0.850000X0.850000*%
%ADD13R,2.200000X2.200000*%
%ADD14C,2.200000*%
%ADD15R,1.700000X1.700000*%
%ADD16O,1.700000X1.700000*%
%ADD17C,2.500000*%
%ADD18R,2.000000X3.000000*%
%ADD19R,3.500000X8.500000*%
%ADD20R,2.500000X1.800000*%
G04 APERTURE END LIST*
D10*
%TO.C,H2*%
X120250000Y-124150000D03*
%TD*%
D11*
%TO.C,J6*%
X129649999Y-122449999D03*
D12*
X130649999Y-122449999D03*
X131649999Y-122449999D03*
X132649999Y-122449999D03*
X133649999Y-122449999D03*
%TD*%
D13*
%TO.C,J4*%
X127164999Y-127579999D03*
D14*
X129705000Y-127580000D03*
X132245000Y-127580000D03*
X134785000Y-127580000D03*
%TD*%
D13*
%TO.C,J3*%
X134269999Y-97739999D03*
D14*
X131730000Y-97740000D03*
X129190000Y-97740000D03*
X126650000Y-97740000D03*
X124110000Y-97740000D03*
X121570000Y-97740000D03*
X119030000Y-97740000D03*
X116490000Y-97740000D03*
X113950000Y-97740000D03*
%TD*%
D15*
%TO.C,GN1*%
X113139999Y-117779999D03*
D16*
X113139999Y-115239999D03*
X113139999Y-112699999D03*
X113139999Y-110159999D03*
X113139999Y-107619999D03*
X113139999Y-105079999D03*
X113139999Y-102539999D03*
%TD*%
D17*
%TO.C,J2*%
X120250000Y-127050000D03*
X114500000Y-127050000D03*
%TD*%
D10*
%TO.C,H1*%
X114500000Y-124150000D03*
%TD*%
D17*
%TO.C,J1*%
X120230000Y-124130000D03*
X114480000Y-124130000D03*
%TD*%
D18*
%TO.C,U1*%
X133225913Y-117787913D03*
X130685913Y-117787913D03*
X128145913Y-117787913D03*
X125605913Y-117787913D03*
X123065913Y-117787913D03*
X120525913Y-117787913D03*
X117985913Y-117787913D03*
X117985913Y-100787913D03*
X120525913Y-100787913D03*
X123065913Y-100787913D03*
X125605913Y-100787913D03*
X128145913Y-100787913D03*
X130685913Y-100787913D03*
X133225913Y-100787913D03*
D15*
X134386653Y-110557913D03*
X134386653Y-108017913D03*
X131846653Y-110557913D03*
X131846653Y-108017913D03*
%TD*%
D19*
%TO.C,REF42*%
X123719999Y-125029999D03*
%TD*%
D20*
%TO.C,D3*%
X119399999Y-121559999D03*
X115399999Y-121559999D03*
%TD*%
M02*
