%TF.GenerationSoftware,KiCad,Pcbnew,(7.0.0-0)*%
%TF.CreationDate,2023-02-19T00:57:30+01:00*%
%TF.ProjectId,KNeoPiX_v1.3,4b4e656f-5069-4585-9f76-312e332e6b69,rev?*%
%TF.SameCoordinates,Original*%
%TF.FileFunction,Copper,L4,Bot*%
%TF.FilePolarity,Positive*%
%FSLAX46Y46*%
G04 Gerber Fmt 4.6, Leading zero omitted, Abs format (unit mm)*
G04 Created by KiCad (PCBNEW (7.0.0-0)) date 2023-02-19 00:57:30*
%MOMM*%
%LPD*%
G01*
G04 APERTURE LIST*
%TA.AperFunction,NonConductor*%
%ADD10C,0.100000*%
%TD*%
%TA.AperFunction,NonConductor*%
%ADD11C,0.150000*%
%TD*%
%ADD12C,0.187500*%
%TA.AperFunction,NonConductor*%
%ADD13C,0.187500*%
%TD*%
%ADD14C,0.125000*%
%TA.AperFunction,NonConductor*%
%ADD15C,0.125000*%
%TD*%
%TA.AperFunction,ComponentPad*%
%ADD16C,1.875000*%
%TD*%
%TA.AperFunction,ComponentPad*%
%ADD17R,0.850000X0.850000*%
%TD*%
%TA.AperFunction,ComponentPad*%
%ADD18O,0.850000X0.850000*%
%TD*%
%TA.AperFunction,ComponentPad*%
%ADD19R,2.200000X2.200000*%
%TD*%
%TA.AperFunction,ComponentPad*%
%ADD20C,2.200000*%
%TD*%
%TA.AperFunction,ComponentPad*%
%ADD21R,1.700000X1.700000*%
%TD*%
%TA.AperFunction,ComponentPad*%
%ADD22O,1.700000X1.700000*%
%TD*%
%TA.AperFunction,ComponentPad*%
%ADD23C,2.500000*%
%TD*%
%TA.AperFunction,SMDPad,CuDef*%
%ADD24R,2.000000X3.000000*%
%TD*%
%TA.AperFunction,SMDPad,CuDef*%
%ADD25R,2.500000X1.800000*%
%TD*%
%TA.AperFunction,ViaPad*%
%ADD26C,0.800000*%
%TD*%
%TA.AperFunction,Conductor*%
%ADD27C,0.250000*%
%TD*%
%TA.AperFunction,Conductor*%
%ADD28C,0.500000*%
%TD*%
G04 APERTURE END LIST*
D10*
X122065000Y-120488535D02*
X125420000Y-120488535D01*
X125420000Y-120488535D02*
X125420000Y-128873535D01*
X125420000Y-128873535D02*
X122065000Y-128873535D01*
X122065000Y-128873535D02*
X122065000Y-120488535D01*
D11*
X123420000Y-121515000D02*
G75*
G03*
X123420000Y-121515000I-25000J0D01*
G01*
D10*
X122435000Y-120900000D02*
X125100000Y-120900000D01*
X125100000Y-120900000D02*
X125100000Y-123675000D01*
X125100000Y-123675000D02*
X122435000Y-123675000D01*
X122435000Y-123675000D02*
X122435000Y-120900000D01*
D11*
X123095000Y-122790000D02*
G75*
G03*
X123095000Y-122790000I-25000J0D01*
G01*
X124111466Y-122590000D02*
G75*
G03*
X124111466Y-122590000I-691466J0D01*
G01*
X124236466Y-121890000D02*
G75*
G03*
X124236466Y-121890000I-691466J0D01*
G01*
X124786466Y-122315000D02*
G75*
G03*
X124786466Y-122315000I-691466J0D01*
G01*
X124520000Y-122365000D02*
G75*
G03*
X124520000Y-122365000I-25000J0D01*
G01*
D12*
D13*
X124415929Y-128519248D02*
X125165929Y-128519248D01*
X124415929Y-128090677D02*
X124844500Y-128412105D01*
X125165929Y-128090677D02*
X124737357Y-128519248D01*
X124415929Y-127769248D02*
X125165929Y-127769248D01*
X125165929Y-127769248D02*
X124415929Y-127340677D01*
X124415929Y-127340677D02*
X125165929Y-127340677D01*
X124451643Y-126697820D02*
X124415929Y-126769248D01*
X124415929Y-126769248D02*
X124415929Y-126912106D01*
X124415929Y-126912106D02*
X124451643Y-126983534D01*
X124451643Y-126983534D02*
X124523072Y-127019248D01*
X124523072Y-127019248D02*
X124808786Y-127019248D01*
X124808786Y-127019248D02*
X124880215Y-126983534D01*
X124880215Y-126983534D02*
X124915929Y-126912106D01*
X124915929Y-126912106D02*
X124915929Y-126769248D01*
X124915929Y-126769248D02*
X124880215Y-126697820D01*
X124880215Y-126697820D02*
X124808786Y-126662106D01*
X124808786Y-126662106D02*
X124737357Y-126662106D01*
X124737357Y-126662106D02*
X124665929Y-127019248D01*
X124415929Y-126233534D02*
X124451643Y-126304963D01*
X124451643Y-126304963D02*
X124487357Y-126340677D01*
X124487357Y-126340677D02*
X124558786Y-126376391D01*
X124558786Y-126376391D02*
X124773072Y-126376391D01*
X124773072Y-126376391D02*
X124844500Y-126340677D01*
X124844500Y-126340677D02*
X124880215Y-126304963D01*
X124880215Y-126304963D02*
X124915929Y-126233534D01*
X124915929Y-126233534D02*
X124915929Y-126126391D01*
X124915929Y-126126391D02*
X124880215Y-126054963D01*
X124880215Y-126054963D02*
X124844500Y-126019249D01*
X124844500Y-126019249D02*
X124773072Y-125983534D01*
X124773072Y-125983534D02*
X124558786Y-125983534D01*
X124558786Y-125983534D02*
X124487357Y-126019249D01*
X124487357Y-126019249D02*
X124451643Y-126054963D01*
X124451643Y-126054963D02*
X124415929Y-126126391D01*
X124415929Y-126126391D02*
X124415929Y-126233534D01*
X124415929Y-125662106D02*
X125165929Y-125662106D01*
X125165929Y-125662106D02*
X125165929Y-125376392D01*
X125165929Y-125376392D02*
X125130215Y-125304963D01*
X125130215Y-125304963D02*
X125094500Y-125269249D01*
X125094500Y-125269249D02*
X125023072Y-125233535D01*
X125023072Y-125233535D02*
X124915929Y-125233535D01*
X124915929Y-125233535D02*
X124844500Y-125269249D01*
X124844500Y-125269249D02*
X124808786Y-125304963D01*
X124808786Y-125304963D02*
X124773072Y-125376392D01*
X124773072Y-125376392D02*
X124773072Y-125662106D01*
X124415929Y-124912106D02*
X124915929Y-124912106D01*
X125165929Y-124912106D02*
X125130215Y-124947820D01*
X125130215Y-124947820D02*
X125094500Y-124912106D01*
X125094500Y-124912106D02*
X125130215Y-124876392D01*
X125130215Y-124876392D02*
X125165929Y-124912106D01*
X125165929Y-124912106D02*
X125094500Y-124912106D01*
X125165929Y-124626392D02*
X124415929Y-124126392D01*
X125165929Y-124126392D02*
X124415929Y-124626392D01*
D14*
D15*
X123792261Y-126225676D02*
X123816071Y-126273295D01*
X123816071Y-126273295D02*
X123816071Y-126368533D01*
X123816071Y-126368533D02*
X123792261Y-126416152D01*
X123792261Y-126416152D02*
X123744642Y-126463771D01*
X123744642Y-126463771D02*
X123697023Y-126487581D01*
X123697023Y-126487581D02*
X123601785Y-126487581D01*
X123601785Y-126487581D02*
X123554166Y-126463771D01*
X123554166Y-126463771D02*
X123506547Y-126416152D01*
X123506547Y-126416152D02*
X123482738Y-126368533D01*
X123482738Y-126368533D02*
X123482738Y-126273295D01*
X123482738Y-126273295D02*
X123506547Y-126225676D01*
X123982738Y-126320914D02*
X123958928Y-126439962D01*
X123958928Y-126439962D02*
X123887500Y-126559009D01*
X123887500Y-126559009D02*
X123768452Y-126630438D01*
X123768452Y-126630438D02*
X123649404Y-126654247D01*
X123649404Y-126654247D02*
X123530357Y-126630438D01*
X123530357Y-126630438D02*
X123411309Y-126559009D01*
X123411309Y-126559009D02*
X123339880Y-126439962D01*
X123339880Y-126439962D02*
X123316071Y-126320914D01*
X123316071Y-126320914D02*
X123339880Y-126201866D01*
X123339880Y-126201866D02*
X123411309Y-126082819D01*
X123411309Y-126082819D02*
X123530357Y-126011390D01*
X123530357Y-126011390D02*
X123649404Y-125987581D01*
X123649404Y-125987581D02*
X123768452Y-126011390D01*
X123768452Y-126011390D02*
X123887500Y-126082819D01*
X123887500Y-126082819D02*
X123958928Y-126201866D01*
X123958928Y-126201866D02*
X123982738Y-126320914D01*
X123863690Y-125797104D02*
X123887500Y-125773295D01*
X123887500Y-125773295D02*
X123911309Y-125725676D01*
X123911309Y-125725676D02*
X123911309Y-125606628D01*
X123911309Y-125606628D02*
X123887500Y-125559009D01*
X123887500Y-125559009D02*
X123863690Y-125535200D01*
X123863690Y-125535200D02*
X123816071Y-125511390D01*
X123816071Y-125511390D02*
X123768452Y-125511390D01*
X123768452Y-125511390D02*
X123697023Y-125535200D01*
X123697023Y-125535200D02*
X123411309Y-125820914D01*
X123411309Y-125820914D02*
X123411309Y-125511390D01*
X123911309Y-125201867D02*
X123911309Y-125154248D01*
X123911309Y-125154248D02*
X123887500Y-125106629D01*
X123887500Y-125106629D02*
X123863690Y-125082819D01*
X123863690Y-125082819D02*
X123816071Y-125059010D01*
X123816071Y-125059010D02*
X123720833Y-125035200D01*
X123720833Y-125035200D02*
X123601785Y-125035200D01*
X123601785Y-125035200D02*
X123506547Y-125059010D01*
X123506547Y-125059010D02*
X123458928Y-125082819D01*
X123458928Y-125082819D02*
X123435119Y-125106629D01*
X123435119Y-125106629D02*
X123411309Y-125154248D01*
X123411309Y-125154248D02*
X123411309Y-125201867D01*
X123411309Y-125201867D02*
X123435119Y-125249486D01*
X123435119Y-125249486D02*
X123458928Y-125273295D01*
X123458928Y-125273295D02*
X123506547Y-125297105D01*
X123506547Y-125297105D02*
X123601785Y-125320914D01*
X123601785Y-125320914D02*
X123720833Y-125320914D01*
X123720833Y-125320914D02*
X123816071Y-125297105D01*
X123816071Y-125297105D02*
X123863690Y-125273295D01*
X123863690Y-125273295D02*
X123887500Y-125249486D01*
X123887500Y-125249486D02*
X123911309Y-125201867D01*
X123863690Y-124844724D02*
X123887500Y-124820915D01*
X123887500Y-124820915D02*
X123911309Y-124773296D01*
X123911309Y-124773296D02*
X123911309Y-124654248D01*
X123911309Y-124654248D02*
X123887500Y-124606629D01*
X123887500Y-124606629D02*
X123863690Y-124582820D01*
X123863690Y-124582820D02*
X123816071Y-124559010D01*
X123816071Y-124559010D02*
X123768452Y-124559010D01*
X123768452Y-124559010D02*
X123697023Y-124582820D01*
X123697023Y-124582820D02*
X123411309Y-124868534D01*
X123411309Y-124868534D02*
X123411309Y-124559010D01*
X123911309Y-124392344D02*
X123911309Y-124082820D01*
X123911309Y-124082820D02*
X123720833Y-124249487D01*
X123720833Y-124249487D02*
X123720833Y-124178058D01*
X123720833Y-124178058D02*
X123697023Y-124130439D01*
X123697023Y-124130439D02*
X123673214Y-124106630D01*
X123673214Y-124106630D02*
X123625595Y-124082820D01*
X123625595Y-124082820D02*
X123506547Y-124082820D01*
X123506547Y-124082820D02*
X123458928Y-124106630D01*
X123458928Y-124106630D02*
X123435119Y-124130439D01*
X123435119Y-124130439D02*
X123411309Y-124178058D01*
X123411309Y-124178058D02*
X123411309Y-124320915D01*
X123411309Y-124320915D02*
X123435119Y-124368534D01*
X123435119Y-124368534D02*
X123458928Y-124392344D01*
D14*
D15*
X122713214Y-128360916D02*
X122713214Y-128194249D01*
X122451309Y-128122821D02*
X122451309Y-128360916D01*
X122451309Y-128360916D02*
X122951309Y-128360916D01*
X122951309Y-128360916D02*
X122951309Y-128122821D01*
X122451309Y-127908535D02*
X122784642Y-127908535D01*
X122689404Y-127908535D02*
X122737023Y-127884725D01*
X122737023Y-127884725D02*
X122760833Y-127860916D01*
X122760833Y-127860916D02*
X122784642Y-127813297D01*
X122784642Y-127813297D02*
X122784642Y-127765678D01*
X122451309Y-127599011D02*
X122951309Y-127599011D01*
X122641785Y-127551392D02*
X122451309Y-127408535D01*
X122784642Y-127408535D02*
X122594166Y-127599011D01*
X122451309Y-126979963D02*
X122713214Y-126979963D01*
X122713214Y-126979963D02*
X122760833Y-127003773D01*
X122760833Y-127003773D02*
X122784642Y-127051392D01*
X122784642Y-127051392D02*
X122784642Y-127146630D01*
X122784642Y-127146630D02*
X122760833Y-127194249D01*
X122475119Y-126979963D02*
X122451309Y-127027582D01*
X122451309Y-127027582D02*
X122451309Y-127146630D01*
X122451309Y-127146630D02*
X122475119Y-127194249D01*
X122475119Y-127194249D02*
X122522738Y-127218058D01*
X122522738Y-127218058D02*
X122570357Y-127218058D01*
X122570357Y-127218058D02*
X122617976Y-127194249D01*
X122617976Y-127194249D02*
X122641785Y-127146630D01*
X122641785Y-127146630D02*
X122641785Y-127027582D01*
X122641785Y-127027582D02*
X122665595Y-126979963D01*
X122784642Y-126741868D02*
X122451309Y-126741868D01*
X122737023Y-126741868D02*
X122760833Y-126718058D01*
X122760833Y-126718058D02*
X122784642Y-126670439D01*
X122784642Y-126670439D02*
X122784642Y-126599011D01*
X122784642Y-126599011D02*
X122760833Y-126551392D01*
X122760833Y-126551392D02*
X122713214Y-126527582D01*
X122713214Y-126527582D02*
X122451309Y-126527582D01*
X122498928Y-125703773D02*
X122475119Y-125727582D01*
X122475119Y-125727582D02*
X122451309Y-125799011D01*
X122451309Y-125799011D02*
X122451309Y-125846630D01*
X122451309Y-125846630D02*
X122475119Y-125918058D01*
X122475119Y-125918058D02*
X122522738Y-125965677D01*
X122522738Y-125965677D02*
X122570357Y-125989487D01*
X122570357Y-125989487D02*
X122665595Y-126013296D01*
X122665595Y-126013296D02*
X122737023Y-126013296D01*
X122737023Y-126013296D02*
X122832261Y-125989487D01*
X122832261Y-125989487D02*
X122879880Y-125965677D01*
X122879880Y-125965677D02*
X122927500Y-125918058D01*
X122927500Y-125918058D02*
X122951309Y-125846630D01*
X122951309Y-125846630D02*
X122951309Y-125799011D01*
X122951309Y-125799011D02*
X122927500Y-125727582D01*
X122927500Y-125727582D02*
X122903690Y-125703773D01*
X122427500Y-125822820D02*
X122403690Y-125775201D01*
X122403690Y-125775201D02*
X122356071Y-125751392D01*
X122356071Y-125751392D02*
X122308452Y-125775201D01*
X122308452Y-125775201D02*
X122284642Y-125822820D01*
X122284642Y-125822820D02*
X122284642Y-125894249D01*
X122451309Y-125418058D02*
X122475119Y-125465677D01*
X122475119Y-125465677D02*
X122498928Y-125489487D01*
X122498928Y-125489487D02*
X122546547Y-125513296D01*
X122546547Y-125513296D02*
X122689404Y-125513296D01*
X122689404Y-125513296D02*
X122737023Y-125489487D01*
X122737023Y-125489487D02*
X122760833Y-125465677D01*
X122760833Y-125465677D02*
X122784642Y-125418058D01*
X122784642Y-125418058D02*
X122784642Y-125346630D01*
X122784642Y-125346630D02*
X122760833Y-125299011D01*
X122760833Y-125299011D02*
X122737023Y-125275201D01*
X122737023Y-125275201D02*
X122689404Y-125251392D01*
X122689404Y-125251392D02*
X122546547Y-125251392D01*
X122546547Y-125251392D02*
X122498928Y-125275201D01*
X122498928Y-125275201D02*
X122475119Y-125299011D01*
X122475119Y-125299011D02*
X122451309Y-125346630D01*
X122451309Y-125346630D02*
X122451309Y-125418058D01*
X122451309Y-124965677D02*
X122475119Y-125013296D01*
X122475119Y-125013296D02*
X122522738Y-125037106D01*
X122522738Y-125037106D02*
X122951309Y-125037106D01*
X122451309Y-124560915D02*
X122713214Y-124560915D01*
X122713214Y-124560915D02*
X122760833Y-124584725D01*
X122760833Y-124584725D02*
X122784642Y-124632344D01*
X122784642Y-124632344D02*
X122784642Y-124727582D01*
X122784642Y-124727582D02*
X122760833Y-124775201D01*
X122475119Y-124560915D02*
X122451309Y-124608534D01*
X122451309Y-124608534D02*
X122451309Y-124727582D01*
X122451309Y-124727582D02*
X122475119Y-124775201D01*
X122475119Y-124775201D02*
X122522738Y-124799010D01*
X122522738Y-124799010D02*
X122570357Y-124799010D01*
X122570357Y-124799010D02*
X122617976Y-124775201D01*
X122617976Y-124775201D02*
X122641785Y-124727582D01*
X122641785Y-124727582D02*
X122641785Y-124608534D01*
X122641785Y-124608534D02*
X122665595Y-124560915D01*
X122451309Y-124322820D02*
X122951309Y-124322820D01*
X122641785Y-124275201D02*
X122451309Y-124132344D01*
X122784642Y-124132344D02*
X122594166Y-124322820D01*
D14*
D15*
X123867774Y-128490438D02*
X123367774Y-128323772D01*
X123367774Y-128323772D02*
X123867774Y-128157105D01*
X123367774Y-127728534D02*
X123367774Y-128014248D01*
X123367774Y-127871391D02*
X123867774Y-127871391D01*
X123867774Y-127871391D02*
X123796345Y-127919010D01*
X123796345Y-127919010D02*
X123748726Y-127966629D01*
X123748726Y-127966629D02*
X123724917Y-128014248D01*
X123415393Y-127514249D02*
X123391584Y-127490439D01*
X123391584Y-127490439D02*
X123367774Y-127514249D01*
X123367774Y-127514249D02*
X123391584Y-127538058D01*
X123391584Y-127538058D02*
X123415393Y-127514249D01*
X123415393Y-127514249D02*
X123367774Y-127514249D01*
X123867774Y-127323773D02*
X123867774Y-127014249D01*
X123867774Y-127014249D02*
X123677298Y-127180916D01*
X123677298Y-127180916D02*
X123677298Y-127109487D01*
X123677298Y-127109487D02*
X123653488Y-127061868D01*
X123653488Y-127061868D02*
X123629679Y-127038059D01*
X123629679Y-127038059D02*
X123582060Y-127014249D01*
X123582060Y-127014249D02*
X123463012Y-127014249D01*
X123463012Y-127014249D02*
X123415393Y-127038059D01*
X123415393Y-127038059D02*
X123391584Y-127061868D01*
X123391584Y-127061868D02*
X123367774Y-127109487D01*
X123367774Y-127109487D02*
X123367774Y-127252344D01*
X123367774Y-127252344D02*
X123391584Y-127299963D01*
X123391584Y-127299963D02*
X123415393Y-127323773D01*
D16*
%TO.P,H2,1,1*%
%TO.N,KNX+*%
X120250000Y-124150000D03*
%TD*%
D17*
%TO.P,J6,1,Pin_1*%
%TO.N,EXT_GND*%
X129649999Y-122449999D03*
D18*
%TO.P,J6,2,Pin_2*%
%TO.N,S_3V3*%
X130649999Y-122449999D03*
%TO.P,J6,3,Pin_3*%
%TO.N,SWCLK*%
X131649999Y-122449999D03*
%TO.P,J6,4,Pin_4*%
%TO.N,SWDIO*%
X132649999Y-122449999D03*
%TO.P,J6,5,Pin_5*%
%TO.N,RESET*%
X133649999Y-122449999D03*
%TD*%
D19*
%TO.P,J4,1,Pin_1*%
%TO.N,EXT_GND*%
X127164999Y-127579999D03*
D20*
%TO.P,J4,2,Pin_2*%
%TO.N,NEO_DATA0_OUT*%
X129705000Y-127580000D03*
%TO.P,J4,3,Pin_3*%
%TO.N,NEO_DATA1_OUT*%
X132245000Y-127580000D03*
%TO.P,J4,4,Pin_4*%
%TO.N,EXT_VCC_IN*%
X134785000Y-127580000D03*
%TD*%
D19*
%TO.P,J3,1,Pin_1*%
%TO.N,EXT_GND*%
X134269999Y-97739999D03*
D20*
%TO.P,J3,2,Pin_2*%
%TO.N,S_3V3*%
X131730000Y-97740000D03*
%TO.P,J3,3,Pin_3*%
%TO.N,KNX_5V*%
X129190000Y-97740000D03*
%TO.P,J3,4,Pin_4*%
%TO.N,D1*%
X126650000Y-97740000D03*
%TO.P,J3,5,Pin_5*%
%TO.N,D2*%
X124110000Y-97740000D03*
%TO.P,J3,6,Pin_6*%
%TO.N,D3*%
X121570000Y-97740000D03*
%TO.P,J3,7,Pin_7*%
%TO.N,D8*%
X119030000Y-97740000D03*
%TO.P,J3,8,Pin_8*%
%TO.N,D9*%
X116490000Y-97740000D03*
%TO.P,J3,9,Pin_9*%
%TO.N,D10*%
X113950000Y-97740000D03*
%TD*%
D21*
%TO.P,GN1,1,KNX+*%
%TO.N,KNX+*%
X113139999Y-117779999D03*
D22*
%TO.P,GN1,2,GND*%
%TO.N,KNX_GND*%
X113139999Y-115239999D03*
%TO.P,GN1,3,SAVE*%
%TO.N,KNX_SAVE*%
X113139999Y-112699999D03*
%TO.P,GN1,4,Rx*%
%TO.N,KNX_RX*%
X113139999Y-110159999D03*
%TO.P,GN1,5,Tx*%
%TO.N,KNX_TX*%
X113139999Y-107619999D03*
%TO.P,GN1,6,3V3*%
%TO.N,KNX_3V3*%
X113139999Y-105079999D03*
%TO.P,GN1,7,Vcc2*%
%TO.N,KNX_5V*%
X113139999Y-102539999D03*
%TD*%
D23*
%TO.P,J2,1,Pin_1*%
%TO.N,KNX+*%
X120250000Y-127050000D03*
%TO.P,J2,2,Pin_2*%
%TO.N,KNX_GND*%
X114500000Y-127050000D03*
%TD*%
D16*
%TO.P,H1,1,1*%
%TO.N,KNX_GND*%
X114500000Y-124150000D03*
%TD*%
D23*
%TO.P,J1,1,Pin_1*%
%TO.N,KNX+*%
X120230000Y-124130000D03*
%TO.P,J1,2,Pin_2*%
%TO.N,KNX_GND*%
X114480000Y-124130000D03*
%TD*%
D24*
%TO.P,U1,1,PA02_A0_D0*%
%TO.N,D0*%
X133225913Y-117787913D03*
%TO.P,U1,2,PA4_A1_D1*%
%TO.N,D1*%
X130685913Y-117787913D03*
%TO.P,U1,3,PA10_A2_D2*%
%TO.N,D2*%
X128145913Y-117787913D03*
%TO.P,U1,4,PA11_A3_D3*%
%TO.N,D3*%
X125605913Y-117787913D03*
%TO.P,U1,5,PA8_A4_D4_SDA*%
%TO.N,D4_SDA*%
X123065913Y-117787913D03*
%TO.P,U1,6,PA9_A5_D5_SCL*%
%TO.N,D5_SCL*%
X120525913Y-117787913D03*
%TO.P,U1,7,PB08_A6_D6_TX*%
%TO.N,D6_TX*%
X117985913Y-117787913D03*
%TO.P,U1,8,PB09_A7_D7_RX*%
%TO.N,D7_RX*%
X117985913Y-100787913D03*
%TO.P,U1,9,PA7_A8_D8_SCK*%
%TO.N,D8*%
X120525913Y-100787913D03*
%TO.P,U1,10,PA5_A9_D9_MISO*%
%TO.N,D9*%
X123065913Y-100787913D03*
%TO.P,U1,11,PA6_A10_D10_MOSI*%
%TO.N,D10*%
X125605913Y-100787913D03*
%TO.P,U1,12,3V3*%
%TO.N,S_3V3*%
X128145913Y-100787913D03*
%TO.P,U1,13,GND*%
%TO.N,EXT_GND*%
X130685913Y-100787913D03*
%TO.P,U1,14,5V*%
%TO.N,5V-MCU*%
X133225913Y-100787913D03*
D21*
%TO.P,U1,17,PA31_SWDIO*%
%TO.N,SWDIO*%
X134386653Y-110557913D03*
%TO.P,U1,18,PA30_SWCLK*%
%TO.N,SWCLK*%
X134386653Y-108017913D03*
%TO.P,U1,19,RESET*%
%TO.N,RESET*%
X131846653Y-110557913D03*
%TO.P,U1,20,GND*%
%TO.N,EXT_GND*%
X131846653Y-108017913D03*
%TD*%
D25*
%TO.P,D3,A,A*%
%TO.N,KNX+*%
X119399999Y-121559999D03*
%TO.P,D3,C,C*%
%TO.N,KNX_GND*%
X115399999Y-121559999D03*
%TD*%
D26*
%TO.N,KNX_3V3*%
X131050000Y-120060000D03*
X116534900Y-115646000D03*
%TO.N,KNX_RX*%
X114849799Y-106275201D03*
X120827800Y-110924400D03*
%TO.N,KNX_TX*%
X118387400Y-105776300D03*
%TO.N,D0*%
X131410400Y-115470000D03*
X135450000Y-115510000D03*
%TO.N,D10*%
X130350000Y-96184100D03*
%TO.N,D3*%
X125605900Y-115048500D03*
%TO.N,D2*%
X128145900Y-115642800D03*
%TO.N,D1*%
X129550400Y-112560500D03*
%TO.N,KNX_GND*%
X119832900Y-105944400D03*
X120892700Y-115173600D03*
X125315700Y-104922900D03*
%TO.N,D4_SDA*%
X114600000Y-108925000D03*
X118908200Y-115594200D03*
%TO.N,D5_SCL*%
X118335000Y-114050500D03*
%TO.N,D6_TX*%
X120827800Y-109767400D03*
%TO.N,D7_RX*%
X116421600Y-104841500D03*
%TO.N,KNX_SAVE*%
X134845500Y-100289000D03*
%TO.N,EXT_GND*%
X134670000Y-123960000D03*
X128500000Y-122699500D03*
X125750000Y-119887416D03*
X131410400Y-114170000D03*
X134670000Y-114170000D03*
X126954900Y-109769200D03*
%TO.N,5V-MCU*%
X132661051Y-104088949D03*
%TO.N,EXT_VCC_OUT*%
X135986420Y-118750000D03*
X126775000Y-114000000D03*
%TO.N,S_3V3*%
X128968600Y-104697800D03*
X115314652Y-111448859D03*
X129556392Y-120053608D03*
%TO.N,EXT_VCC_IN*%
X133270000Y-120060000D03*
X128400000Y-103450000D03*
%TO.N,SWDIO*%
X131375000Y-121525000D03*
%TD*%
D27*
%TO.N,KNX_RX*%
X120827800Y-110924400D02*
X120063400Y-110160000D01*
X120063400Y-110160000D02*
X113140000Y-110160000D01*
%TO.N,D0*%
X133225914Y-115510000D02*
X131450400Y-115510000D01*
X133225914Y-115510000D02*
X135450000Y-115510000D01*
X133225914Y-117787914D02*
X133225914Y-115510000D01*
X131450400Y-115510000D02*
X131410400Y-115470000D01*
%TO.N,D10*%
X124400000Y-107240000D02*
X126040700Y-105599300D01*
X117148200Y-107240000D02*
X124400000Y-107240000D01*
X114861400Y-104953200D02*
X117148200Y-107240000D01*
X113950000Y-97740000D02*
X114861400Y-98651400D01*
X114861400Y-98651400D02*
X114861400Y-104953200D01*
X126040700Y-105599300D02*
X126040700Y-101222700D01*
%TO.N,D9*%
X123065900Y-105704100D02*
X121980000Y-106790000D01*
X115649000Y-98581000D02*
X116490000Y-97740000D01*
X123065900Y-100787900D02*
X123065900Y-105704100D01*
X117334800Y-106790000D02*
X115649000Y-105104200D01*
X121980000Y-106790000D02*
X117334800Y-106790000D01*
X115649000Y-105104200D02*
X115649000Y-98581000D01*
%TO.N,D8*%
X120525914Y-99235914D02*
X119030000Y-97740000D01*
X120525914Y-100787914D02*
X120525914Y-99235914D01*
%TO.N,D3*%
X125605900Y-117787900D02*
X125605900Y-115048500D01*
%TO.N,D2*%
X128145900Y-117787900D02*
X128145900Y-115642800D01*
%TO.N,D1*%
X130685900Y-117787900D02*
X130685900Y-113696000D01*
X130685900Y-113696000D02*
X129550400Y-112560500D01*
D28*
%TO.N,KNX_GND*%
X115400000Y-122785100D02*
X114480000Y-123705100D01*
X115400000Y-121560000D02*
X115400000Y-122785100D01*
D27*
%TO.N,D4_SDA*%
X114703700Y-109028700D02*
X121164800Y-109028700D01*
X118832400Y-115594200D02*
X117600600Y-114362400D01*
X121164800Y-109028700D02*
X122470000Y-110333900D01*
X122540400Y-113290400D02*
X123065900Y-113815900D01*
X122470000Y-110333900D02*
X122470000Y-113290400D01*
X120393500Y-113290400D02*
X122540400Y-113290400D01*
X114600000Y-108925000D02*
X114703700Y-109028700D01*
X117600600Y-114362400D02*
X117600600Y-113750700D01*
X118060900Y-113290400D02*
X120393500Y-113290400D01*
X123065900Y-113815900D02*
X123065900Y-117787900D01*
X122470000Y-113290400D02*
X120393500Y-113290400D01*
X118908200Y-115594200D02*
X118832400Y-115594200D01*
X117600600Y-113750700D02*
X118060900Y-113290400D01*
%TO.N,D5_SCL*%
X120525900Y-115962800D02*
X118613600Y-114050500D01*
X120525900Y-117787900D02*
X120525900Y-115962800D01*
X118613600Y-114050500D02*
X118335000Y-114050500D01*
%TO.N,D6_TX*%
X117150500Y-115127400D02*
X117985900Y-115962800D01*
X117700000Y-112300000D02*
X117150500Y-112849500D01*
X120942400Y-109767400D02*
X121625000Y-110450000D01*
X121625000Y-110450000D02*
X121625000Y-111500000D01*
X120825000Y-112300000D02*
X117700000Y-112300000D01*
X117150500Y-112849500D02*
X117150500Y-115127400D01*
X121625000Y-111500000D02*
X120825000Y-112300000D01*
X120827800Y-109767400D02*
X120942400Y-109767400D01*
X117985900Y-115962800D02*
X117985900Y-117787900D01*
%TO.N,D7_RX*%
X117985900Y-103277200D02*
X116421600Y-104841500D01*
X117985900Y-100787900D02*
X117985900Y-103277200D01*
D28*
%TO.N,KNX+*%
X119400000Y-121560000D02*
X119400000Y-122785100D01*
X119400000Y-122785100D02*
X120230000Y-123615100D01*
D27*
%TO.N,EXT_GND*%
X130840000Y-100942000D02*
X130840000Y-105877700D01*
X135630000Y-99100000D02*
X135630000Y-103039505D01*
X130840000Y-105877700D02*
X130843200Y-105880900D01*
X134270000Y-97740000D02*
X135630000Y-99100000D01*
X135630000Y-103039505D02*
X132788605Y-105880900D01*
X132788605Y-105880900D02*
X130843200Y-105880900D01*
X130843200Y-105880900D02*
X126954900Y-109769200D01*
%TO.N,5V-MCU*%
X133225900Y-103524100D02*
X133225900Y-100787900D01*
X132661051Y-104088949D02*
X133225900Y-103524100D01*
%TO.N,S_3V3*%
X128968600Y-104697800D02*
X128302500Y-104697800D01*
X127675000Y-104070300D02*
X127675000Y-101258828D01*
X128302500Y-104697800D02*
X127675000Y-104070300D01*
%TO.N,SWDIO*%
X131375000Y-121525000D02*
X132005000Y-121525000D01*
X132005000Y-121525000D02*
X132650000Y-122170000D01*
%TD*%
M02*
