%TF.GenerationSoftware,KiCad,Pcbnew,(7.0.0-0)*%
%TF.CreationDate,2023-03-02T20:45:30+01:00*%
%TF.ProjectId,OpenKNXiaO-Mini,4f70656e-4b4e-4586-9961-4f2d4d696e69,1.3*%
%TF.SameCoordinates,Original*%
%TF.FileFunction,Copper,L2,Bot*%
%TF.FilePolarity,Positive*%
%FSLAX46Y46*%
G04 Gerber Fmt 4.6, Leading zero omitted, Abs format (unit mm)*
G04 Created by KiCad (PCBNEW (7.0.0-0)) date 2023-03-02 20:45:30*
%MOMM*%
%LPD*%
G01*
G04 APERTURE LIST*
G04 Aperture macros list*
%AMRoundRect*
0 Rectangle with rounded corners*
0 $1 Rounding radius*
0 $2 $3 $4 $5 $6 $7 $8 $9 X,Y pos of 4 corners*
0 Add a 4 corners polygon primitive as box body*
4,1,4,$2,$3,$4,$5,$6,$7,$8,$9,$2,$3,0*
0 Add four circle primitives for the rounded corners*
1,1,$1+$1,$2,$3*
1,1,$1+$1,$4,$5*
1,1,$1+$1,$6,$7*
1,1,$1+$1,$8,$9*
0 Add four rect primitives between the rounded corners*
20,1,$1+$1,$2,$3,$4,$5,0*
20,1,$1+$1,$4,$5,$6,$7,0*
20,1,$1+$1,$6,$7,$8,$9,0*
20,1,$1+$1,$8,$9,$2,$3,0*%
G04 Aperture macros list end*
%TA.AperFunction,ComponentPad*%
%ADD10R,1.000000X1.000000*%
%TD*%
%TA.AperFunction,ComponentPad*%
%ADD11O,1.000000X1.000000*%
%TD*%
%TA.AperFunction,ComponentPad*%
%ADD12O,1.700000X1.700000*%
%TD*%
%TA.AperFunction,ComponentPad*%
%ADD13R,1.700000X1.700000*%
%TD*%
%TA.AperFunction,SMDPad,CuDef*%
%ADD14O,3.000000X2.000000*%
%TD*%
%TA.AperFunction,ComponentPad*%
%ADD15RoundRect,0.270000X-0.630000X-0.830000X0.630000X-0.830000X0.630000X0.830000X-0.630000X0.830000X0*%
%TD*%
%TA.AperFunction,SMDPad,CuDef*%
%ADD16R,1.000000X0.900000*%
%TD*%
%TA.AperFunction,ViaPad*%
%ADD17C,0.800000*%
%TD*%
%TA.AperFunction,Conductor*%
%ADD18C,0.250000*%
%TD*%
G04 APERTURE END LIST*
D10*
%TO.P,J6,1,Pin_1*%
%TO.N,KNX_GND*%
X113139999Y-125349999D03*
D11*
%TO.P,J6,2,Pin_2*%
%TO.N,S_3V3*%
X113139999Y-124079999D03*
%TO.P,J6,3,Pin_3*%
%TO.N,SWCLK*%
X113139999Y-122809999D03*
%TO.P,J6,4,Pin_4*%
%TO.N,SWDIO*%
X113139999Y-121539999D03*
%TO.P,J6,5,Pin_5*%
%TO.N,RESET*%
X113139999Y-120269999D03*
%TD*%
D12*
%TO.P,GN1,1,KNX+*%
%TO.N,KNX+*%
X113139999Y-117309999D03*
D13*
%TO.P,GN1,2,GND*%
%TO.N,KNX_GND*%
X113139999Y-114769999D03*
D12*
%TO.P,GN1,3,SAVE*%
%TO.N,KNX_SAVE*%
X113139999Y-112229999D03*
%TO.P,GN1,4,Rx*%
%TO.N,KNX_RX*%
X113139999Y-109689999D03*
%TO.P,GN1,5,Tx*%
%TO.N,KNX_TX*%
X113139999Y-107149999D03*
%TO.P,GN1,6,3V3*%
%TO.N,unconnected-(GN1-3V3-Pad6)*%
X113139999Y-104609999D03*
%TO.P,GN1,7,Vcc2*%
%TO.N,KNX_5V*%
X113139999Y-102069999D03*
%TD*%
D14*
%TO.P,U1,1,PA02_A0_D0*%
%TO.N,D0*%
X133110013Y-102635785D03*
%TO.P,U1,2,PA4_A1_D1*%
%TO.N,D1*%
X133110013Y-105175785D03*
%TO.P,U1,3,PA10_A2_D2*%
%TO.N,D2*%
X133110013Y-107715785D03*
%TO.P,U1,4,PA11_A3_D3*%
%TO.N,D3*%
X133110013Y-110255785D03*
%TO.P,U1,5,PA8_A4_D4_SDA*%
%TO.N,D4_SDA*%
X133110013Y-112795785D03*
%TO.P,U1,6,PA9_A5_D5_SCL*%
%TO.N,D5_SCL*%
X133110013Y-115335785D03*
%TO.P,U1,7,PB08_A6_D6_TX*%
%TO.N,KNX_RX*%
X133110013Y-117875785D03*
%TO.P,U1,8,PB09_A7_D7_RX*%
%TO.N,KNX_TX*%
X116110013Y-117875785D03*
%TO.P,U1,9,PA7_A8_D8_SCK*%
%TO.N,D8*%
X116110013Y-115335785D03*
%TO.P,U1,10,PA5_A9_D9_MISO*%
%TO.N,D9*%
X116110013Y-112795785D03*
%TO.P,U1,11,PA6_A10_D10_MOSI*%
%TO.N,D10*%
X116110013Y-110255785D03*
%TO.P,U1,12,3V3*%
%TO.N,S_3V3*%
X116110013Y-107715785D03*
%TO.P,U1,13,GND*%
%TO.N,KNX_GND*%
X116110013Y-105175785D03*
%TO.P,U1,14,5V*%
%TO.N,KNX_5V*%
X116110013Y-102635785D03*
D15*
%TO.P,U1,17,PA31_SWDIO*%
%TO.N,SWDIO*%
X125880014Y-101390000D03*
%TO.P,U1,18,PA30_SWCLK*%
%TO.N,SWCLK*%
X123340014Y-101390000D03*
%TO.P,U1,19,RESET*%
%TO.N,RESET*%
X125880014Y-103930000D03*
%TO.P,U1,20,GND*%
%TO.N,KNX_GND*%
X123340014Y-103904954D03*
%TD*%
D16*
%TO.P,SW1,1,1*%
%TO.N,KNX_GND*%
X130699999Y-125629999D03*
X132299999Y-125629999D03*
%TO.P,SW1,2,2*%
%TO.N,D0*%
X130699999Y-121529999D03*
X132299999Y-121529999D03*
%TD*%
D17*
%TO.N,RESET*%
X125759800Y-112502200D03*
%TO.N,SWDIO*%
X125856200Y-113834000D03*
%TO.N,SWCLK*%
X123586800Y-114605700D03*
X128983000Y-118840800D03*
%TO.N,S_3V3*%
X125135100Y-110404100D03*
%TO.N,KNX_5V*%
X123647100Y-105930600D03*
%TO.N,D5_SCL*%
X131005500Y-115335800D03*
%TO.N,D4_SDA*%
X131308800Y-113762500D03*
%TO.N,KNX_GND*%
X130185000Y-124428300D03*
%TO.N,D1*%
X128916700Y-109627300D03*
%TO.N,D2*%
X131438700Y-108930900D03*
%TO.N,D3*%
X128937800Y-108607000D03*
%TO.N,D8*%
X124597000Y-108386500D03*
%TO.N,D9*%
X124535100Y-107386300D03*
%TO.N,D10*%
X119045400Y-108007200D03*
%TO.N,D0*%
X127872500Y-106803600D03*
%TO.N,KNX_TX*%
X119262200Y-113115500D03*
%TO.N,KNX_RX*%
X122769300Y-115866700D03*
%TD*%
D18*
%TO.N,RESET*%
X113140000Y-120270000D02*
X113965100Y-120270000D01*
X125880000Y-112382000D02*
X125880000Y-103930000D01*
X125759800Y-112502200D02*
X125880000Y-112382000D01*
X116854300Y-120270000D02*
X113965100Y-120270000D01*
X119821100Y-117303200D02*
X116854300Y-120270000D01*
X119821100Y-116516200D02*
X119821100Y-117303200D01*
X123835100Y-112502200D02*
X119821100Y-116516200D01*
X125759800Y-112502200D02*
X123835100Y-112502200D01*
%TO.N,SWDIO*%
X113140000Y-121540000D02*
X113965100Y-121540000D01*
X127147300Y-112542900D02*
X125856200Y-113834000D01*
X127147300Y-102657300D02*
X127147300Y-112542900D01*
X125880000Y-101390000D02*
X127147300Y-102657300D01*
X114784900Y-120720200D02*
X113965100Y-121540000D01*
X117061000Y-120720200D02*
X114784900Y-120720200D01*
X120271200Y-117510000D02*
X117061000Y-120720200D01*
X120271200Y-116702700D02*
X120271200Y-117510000D01*
X123139900Y-113834000D02*
X120271200Y-116702700D01*
X125856200Y-113834000D02*
X123139900Y-113834000D01*
%TO.N,SWCLK*%
X123005000Y-114605700D02*
X123586800Y-114605700D01*
X120946400Y-116664300D02*
X123005000Y-114605700D01*
X120946400Y-117471500D02*
X120946400Y-116664300D01*
X117247500Y-121170400D02*
X120946400Y-117471500D01*
X116074100Y-121170400D02*
X117247500Y-121170400D01*
X114434500Y-122810000D02*
X116074100Y-121170400D01*
X113140000Y-122810000D02*
X114434500Y-122810000D01*
X124747900Y-114605700D02*
X128983000Y-118840800D01*
X123586800Y-114605700D02*
X124747900Y-114605700D01*
%TO.N,S_3V3*%
X116110000Y-107715800D02*
X117935100Y-107715800D01*
X125355900Y-110183300D02*
X125135100Y-110404100D01*
X125355900Y-107178200D02*
X125355900Y-110183300D01*
X124838800Y-106661100D02*
X125355900Y-107178200D01*
X118989800Y-106661100D02*
X124838800Y-106661100D01*
X117935100Y-107715800D02*
X118989800Y-106661100D01*
X112312400Y-123252400D02*
X113140000Y-124080000D01*
X112312400Y-119927600D02*
X112312400Y-123252400D01*
X113016800Y-119223200D02*
X112312400Y-119927600D01*
X117264400Y-119223200D02*
X113016800Y-119223200D01*
X119099100Y-117388500D02*
X117264400Y-119223200D01*
X119099100Y-116440100D02*
X119099100Y-117388500D01*
X125135100Y-110404100D02*
X119099100Y-116440100D01*
%TO.N,KNX_5V*%
X113140000Y-102070000D02*
X114315100Y-102070000D01*
X114880900Y-102635800D02*
X114315100Y-102070000D01*
X116110000Y-102635800D02*
X114880900Y-102635800D01*
X116110000Y-102635800D02*
X117935100Y-102635800D01*
X124566200Y-105011500D02*
X123647100Y-105930600D01*
X124566200Y-100254300D02*
X124566200Y-105011500D01*
X124256200Y-99944300D02*
X124566200Y-100254300D01*
X120626600Y-99944300D02*
X124256200Y-99944300D01*
X117935100Y-102635800D02*
X120626600Y-99944300D01*
%TO.N,D5_SCL*%
X133110000Y-115335800D02*
X131284900Y-115335800D01*
X131284900Y-115335800D02*
X131005500Y-115335800D01*
%TO.N,D4_SDA*%
X133110000Y-112795800D02*
X131284900Y-112795800D01*
X131284900Y-113738600D02*
X131308800Y-113762500D01*
X131284900Y-112795800D02*
X131284900Y-113738600D01*
%TO.N,KNX_GND*%
X119205900Y-103905000D02*
X117935100Y-105175800D01*
X123340000Y-103905000D02*
X119205900Y-103905000D01*
X116110000Y-105175800D02*
X117935100Y-105175800D01*
X130700000Y-125630000D02*
X132300000Y-125630000D01*
X130611600Y-124854900D02*
X130185000Y-124428300D01*
X130700000Y-124854900D02*
X130611600Y-124854900D01*
X130700000Y-125630000D02*
X130700000Y-124854900D01*
%TO.N,D1*%
X128196100Y-108906700D02*
X128916700Y-109627300D01*
X128196100Y-108264600D02*
X128196100Y-108906700D01*
X131284900Y-105175800D02*
X128196100Y-108264600D01*
X133110000Y-105175800D02*
X131284900Y-105175800D01*
%TO.N,D2*%
X131284900Y-108777100D02*
X131438700Y-108930900D01*
X131284900Y-107715800D02*
X131284900Y-108777100D01*
X133110000Y-107715800D02*
X131284900Y-107715800D01*
%TO.N,D3*%
X130586600Y-110255800D02*
X128937800Y-108607000D01*
X133110000Y-110255800D02*
X130586600Y-110255800D01*
%TO.N,D8*%
X122955600Y-108386500D02*
X124597000Y-108386500D01*
X118458700Y-112883400D02*
X122955600Y-108386500D01*
X118458700Y-112987100D02*
X118458700Y-112883400D01*
X116110000Y-115335800D02*
X118458700Y-112987100D01*
%TO.N,D9*%
X116110000Y-112795800D02*
X117935100Y-112795800D01*
X123260500Y-107386300D02*
X124535100Y-107386300D01*
X117935100Y-112711700D02*
X123260500Y-107386300D01*
X117935100Y-112795800D02*
X117935100Y-112711700D01*
%TO.N,D10*%
X116110000Y-110255800D02*
X117935100Y-110255800D01*
X117935100Y-109117500D02*
X119045400Y-108007200D01*
X117935100Y-110255800D02*
X117935100Y-109117500D01*
%TO.N,D0*%
X133110000Y-102635800D02*
X131284900Y-102635800D01*
X130700000Y-121530000D02*
X130700000Y-120754900D01*
X127872500Y-106048200D02*
X131284900Y-102635800D01*
X127872500Y-106803600D02*
X127872500Y-106048200D01*
X132300000Y-121530000D02*
X130700000Y-121530000D01*
X127729400Y-106946700D02*
X127872500Y-106803600D01*
X127729400Y-113134900D02*
X127729400Y-106946700D01*
X130700000Y-116105500D02*
X127729400Y-113134900D01*
X130700000Y-120754900D02*
X130700000Y-116105500D01*
%TO.N,KNX_TX*%
X117935100Y-114442600D02*
X119262200Y-113115500D01*
X117935100Y-117875800D02*
X117935100Y-114442600D01*
X116110000Y-117875800D02*
X117935100Y-117875800D01*
%TO.N,KNX_RX*%
X123618100Y-115866700D02*
X122769300Y-115866700D01*
X130056600Y-122305200D02*
X123618100Y-115866700D01*
X133023600Y-122305200D02*
X130056600Y-122305200D01*
X133125200Y-122203600D02*
X133023600Y-122305200D01*
X133125200Y-117891000D02*
X133125200Y-122203600D01*
X133110000Y-117875800D02*
X133125200Y-117891000D01*
%TD*%
M02*
