M48
; DRILL file {KiCad (7.0.0-0)} date Thursday, 02 March 2023 at 20:45:30
; FORMAT={-:-/ absolute / inch / decimal}
; #@! TF.CreationDate,2023-03-02T20:45:30+01:00
; #@! TF.GenerationSoftware,Kicad,Pcbnew,(7.0.0-0)
; #@! TF.FileFunction,Plated,1,2,PTH
FMAT,2
INCH
; #@! TA.AperFunction,Plated,PTH,ViaDrill
T1C0.0157
; #@! TA.AperFunction,Plated,PTH,ComponentDrill
T2C0.0256
; #@! TA.AperFunction,Plated,PTH,ComponentDrill
T3C0.0394
; #@! TA.AperFunction,Plated,PTH,ComponentDrill
T4C0.0630
%
G90
G05
T1
X4.6868Y-4.2523
X4.6954Y-4.4534
X4.8334Y-4.5617
X4.8656Y-4.512
X4.868Y-4.1705
X4.903Y-4.2278
X4.9054Y-4.2672
X4.9266Y-4.3466
X4.9512Y-4.4292
X4.955Y-4.4817
X5.0344Y-4.2049
X5.0755Y-4.316
X5.0763Y-4.2759
X5.0781Y-4.6788
X5.1254Y-4.8988
X5.1577Y-4.5408
X5.1696Y-4.4788
X5.1748Y-4.2886
T2
X4.4543Y-4.735
X4.4543Y-4.785
X4.4543Y-4.835
X4.4543Y-4.885
X4.4543Y-4.935
T3
X4.4543Y-4.0185
X4.4543Y-4.1185
X4.4543Y-4.2185
X4.4543Y-4.3185
X4.4543Y-4.4185
X4.4543Y-4.5185
X4.4543Y-4.6185
T4
G00X4.8559Y-3.9839
M15
G01X4.8559Y-3.9996
M16
G05
G00X4.8559Y-4.0829
M15
G01X4.8559Y-4.0986
M16
G05
G00X4.9559Y-3.9839
M15
G01X4.9559Y-3.9996
M16
G05
G00X4.9559Y-4.0839
M15
G01X4.9559Y-4.0996
M16
G05
T0
M30
