%TF.GenerationSoftware,KiCad,Pcbnew,(7.0.0-0)*%
%TF.CreationDate,2023-03-02T20:45:30+01:00*%
%TF.ProjectId,OpenKNXiaO-Mini,4f70656e-4b4e-4586-9961-4f2d4d696e69,1.3*%
%TF.SameCoordinates,Original*%
%TF.FileFunction,Soldermask,Top*%
%TF.FilePolarity,Negative*%
%FSLAX46Y46*%
G04 Gerber Fmt 4.6, Leading zero omitted, Abs format (unit mm)*
G04 Created by KiCad (PCBNEW (7.0.0-0)) date 2023-03-02 20:45:30*
%MOMM*%
%LPD*%
G01*
G04 APERTURE LIST*
G04 Aperture macros list*
%AMRoundRect*
0 Rectangle with rounded corners*
0 $1 Rounding radius*
0 $2 $3 $4 $5 $6 $7 $8 $9 X,Y pos of 4 corners*
0 Add a 4 corners polygon primitive as box body*
4,1,4,$2,$3,$4,$5,$6,$7,$8,$9,$2,$3,0*
0 Add four circle primitives for the rounded corners*
1,1,$1+$1,$2,$3*
1,1,$1+$1,$4,$5*
1,1,$1+$1,$6,$7*
1,1,$1+$1,$8,$9*
0 Add four rect primitives between the rounded corners*
20,1,$1+$1,$2,$3,$4,$5,0*
20,1,$1+$1,$4,$5,$6,$7,0*
20,1,$1+$1,$6,$7,$8,$9,0*
20,1,$1+$1,$8,$9,$2,$3,0*%
G04 Aperture macros list end*
%ADD10RoundRect,0.150000X0.475000X-0.150000X0.475000X0.150000X-0.475000X0.150000X-0.475000X-0.150000X0*%
%ADD11RoundRect,0.225000X0.625000X-0.225000X0.625000X0.225000X-0.625000X0.225000X-0.625000X-0.225000X0*%
%ADD12R,1.500000X1.000000*%
%ADD13R,2.000000X3.500000*%
%ADD14RoundRect,0.250000X-0.475000X0.250000X-0.475000X-0.250000X0.475000X-0.250000X0.475000X0.250000X0*%
%ADD15R,1.000000X1.000000*%
%ADD16O,1.000000X1.000000*%
%ADD17O,1.700000X1.700000*%
%ADD18R,1.700000X1.700000*%
%ADD19RoundRect,0.270000X-0.630000X-0.830000X0.630000X-0.830000X0.630000X0.830000X-0.630000X0.830000X0*%
G04 APERTURE END LIST*
D10*
%TO.C,J5*%
X130185000Y-121340000D03*
X130185000Y-120340000D03*
X130185000Y-119340000D03*
X130185000Y-118340000D03*
X130185000Y-117340000D03*
D11*
X133310000Y-122790000D03*
X133310000Y-115890000D03*
%TD*%
D10*
%TO.C,J7*%
X130185000Y-112525000D03*
X130185000Y-111525000D03*
X130185000Y-110525000D03*
X130185000Y-109525000D03*
X130185000Y-108525000D03*
X130185000Y-107525000D03*
X130185000Y-106525000D03*
X130185000Y-105525000D03*
X130185000Y-104525000D03*
X130185000Y-103525000D03*
X130185000Y-102525000D03*
X130185000Y-101525000D03*
D11*
X133310000Y-113975000D03*
X133310000Y-100075000D03*
%TD*%
D12*
%TO.C,JP4*%
X116349999Y-112869999D03*
X116349999Y-111569999D03*
%TD*%
D13*
%TO.C,J1*%
X120734999Y-118981199D03*
X126474999Y-118963699D03*
%TD*%
D14*
%TO.C,C7*%
X126860000Y-107720000D03*
X126860000Y-109620000D03*
%TD*%
D15*
%TO.C,J6*%
X113139999Y-125349999D03*
D16*
X113139999Y-124079999D03*
X113139999Y-122809999D03*
X113139999Y-121539999D03*
X113139999Y-120269999D03*
%TD*%
D17*
%TO.C,GN1*%
X113139999Y-117309999D03*
D18*
X113139999Y-114769999D03*
D17*
X113139999Y-112229999D03*
X113139999Y-109689999D03*
X113139999Y-107149999D03*
X113139999Y-104609999D03*
X113139999Y-102069999D03*
%TD*%
D19*
%TO.C,U1*%
X125880014Y-101390000D03*
X123340014Y-101390000D03*
X125880014Y-103930000D03*
X123340014Y-103904954D03*
%TD*%
M02*
