%TF.GenerationSoftware,KiCad,Pcbnew,(7.0.0-0)*%
%TF.CreationDate,2023-03-02T20:45:30+01:00*%
%TF.ProjectId,OpenKNXiaO-Mini,4f70656e-4b4e-4586-9961-4f2d4d696e69,1.3*%
%TF.SameCoordinates,Original*%
%TF.FileFunction,Legend,Bot*%
%TF.FilePolarity,Positive*%
%FSLAX46Y46*%
G04 Gerber Fmt 4.6, Leading zero omitted, Abs format (unit mm)*
G04 Created by KiCad (PCBNEW (7.0.0-0)) date 2023-03-02 20:45:30*
%MOMM*%
%LPD*%
G01*
G04 APERTURE LIST*
G04 Aperture macros list*
%AMRoundRect*
0 Rectangle with rounded corners*
0 $1 Rounding radius*
0 $2 $3 $4 $5 $6 $7 $8 $9 X,Y pos of 4 corners*
0 Add a 4 corners polygon primitive as box body*
4,1,4,$2,$3,$4,$5,$6,$7,$8,$9,$2,$3,0*
0 Add four circle primitives for the rounded corners*
1,1,$1+$1,$2,$3*
1,1,$1+$1,$4,$5*
1,1,$1+$1,$6,$7*
1,1,$1+$1,$8,$9*
0 Add four rect primitives between the rounded corners*
20,1,$1+$1,$2,$3,$4,$5,0*
20,1,$1+$1,$4,$5,$6,$7,0*
20,1,$1+$1,$6,$7,$8,$9,0*
20,1,$1+$1,$8,$9,$2,$3,0*%
G04 Aperture macros list end*
%ADD10C,0.150000*%
%ADD11C,0.125000*%
%ADD12C,0.187500*%
%ADD13C,0.100000*%
%ADD14C,0.120000*%
%ADD15C,0.127000*%
%ADD16C,0.254000*%
%ADD17C,0.025400*%
%ADD18C,0.010000*%
%ADD19R,1.000000X1.000000*%
%ADD20O,1.000000X1.000000*%
%ADD21O,1.700000X1.700000*%
%ADD22R,1.700000X1.700000*%
%ADD23O,3.000000X2.000000*%
%ADD24RoundRect,0.270000X-0.630000X-0.830000X0.630000X-0.830000X0.630000X0.830000X-0.630000X0.830000X0*%
%ADD25R,1.000000X0.900000*%
G04 APERTURE END LIST*
D10*
X125179722Y-115726189D02*
X124572579Y-115726189D01*
X124572579Y-115726189D02*
X124451150Y-115766666D01*
X124451150Y-115766666D02*
X124370198Y-115847618D01*
X124370198Y-115847618D02*
X124329722Y-115969047D01*
X124329722Y-115969047D02*
X124329722Y-116049999D01*
X124329722Y-114916666D02*
X124329722Y-115321428D01*
X124329722Y-115321428D02*
X125179722Y-115321428D01*
X124410674Y-114147618D02*
X124370198Y-114188094D01*
X124370198Y-114188094D02*
X124329722Y-114309523D01*
X124329722Y-114309523D02*
X124329722Y-114390475D01*
X124329722Y-114390475D02*
X124370198Y-114511904D01*
X124370198Y-114511904D02*
X124451150Y-114592856D01*
X124451150Y-114592856D02*
X124532103Y-114633333D01*
X124532103Y-114633333D02*
X124694007Y-114673809D01*
X124694007Y-114673809D02*
X124815436Y-114673809D01*
X124815436Y-114673809D02*
X124977341Y-114633333D01*
X124977341Y-114633333D02*
X125058293Y-114592856D01*
X125058293Y-114592856D02*
X125139246Y-114511904D01*
X125139246Y-114511904D02*
X125179722Y-114390475D01*
X125179722Y-114390475D02*
X125179722Y-114309523D01*
X125179722Y-114309523D02*
X125139246Y-114188094D01*
X125139246Y-114188094D02*
X125098769Y-114147618D01*
X125179722Y-113540475D02*
X124572579Y-113540475D01*
X124572579Y-113540475D02*
X124451150Y-113580952D01*
X124451150Y-113580952D02*
X124370198Y-113661904D01*
X124370198Y-113661904D02*
X124329722Y-113783333D01*
X124329722Y-113783333D02*
X124329722Y-113864285D01*
X124329722Y-112730952D02*
X124329722Y-113135714D01*
X124329722Y-113135714D02*
X125179722Y-113135714D01*
X124410674Y-111961904D02*
X124370198Y-112002380D01*
X124370198Y-112002380D02*
X124329722Y-112123809D01*
X124329722Y-112123809D02*
X124329722Y-112204761D01*
X124329722Y-112204761D02*
X124370198Y-112326190D01*
X124370198Y-112326190D02*
X124451150Y-112407142D01*
X124451150Y-112407142D02*
X124532103Y-112447619D01*
X124532103Y-112447619D02*
X124694007Y-112488095D01*
X124694007Y-112488095D02*
X124815436Y-112488095D01*
X124815436Y-112488095D02*
X124977341Y-112447619D01*
X124977341Y-112447619D02*
X125058293Y-112407142D01*
X125058293Y-112407142D02*
X125139246Y-112326190D01*
X125139246Y-112326190D02*
X125179722Y-112204761D01*
X125179722Y-112204761D02*
X125179722Y-112123809D01*
X125179722Y-112123809D02*
X125139246Y-112002380D01*
X125139246Y-112002380D02*
X125098769Y-111961904D01*
X125179722Y-111354761D02*
X124572579Y-111354761D01*
X124572579Y-111354761D02*
X124451150Y-111395238D01*
X124451150Y-111395238D02*
X124370198Y-111476190D01*
X124370198Y-111476190D02*
X124329722Y-111597619D01*
X124329722Y-111597619D02*
X124329722Y-111678571D01*
X124329722Y-110545238D02*
X124329722Y-110950000D01*
X124329722Y-110950000D02*
X125179722Y-110950000D01*
X124410674Y-109776190D02*
X124370198Y-109816666D01*
X124370198Y-109816666D02*
X124329722Y-109938095D01*
X124329722Y-109938095D02*
X124329722Y-110019047D01*
X124329722Y-110019047D02*
X124370198Y-110140476D01*
X124370198Y-110140476D02*
X124451150Y-110221428D01*
X124451150Y-110221428D02*
X124532103Y-110261905D01*
X124532103Y-110261905D02*
X124694007Y-110302381D01*
X124694007Y-110302381D02*
X124815436Y-110302381D01*
X124815436Y-110302381D02*
X124977341Y-110261905D01*
X124977341Y-110261905D02*
X125058293Y-110221428D01*
X125058293Y-110221428D02*
X125139246Y-110140476D01*
X125139246Y-110140476D02*
X125179722Y-110019047D01*
X125179722Y-110019047D02*
X125179722Y-109938095D01*
X125179722Y-109938095D02*
X125139246Y-109816666D01*
X125139246Y-109816666D02*
X125098769Y-109776190D01*
X125179722Y-109169047D02*
X124572579Y-109169047D01*
X124572579Y-109169047D02*
X124451150Y-109209524D01*
X124451150Y-109209524D02*
X124370198Y-109290476D01*
X124370198Y-109290476D02*
X124329722Y-109411905D01*
X124329722Y-109411905D02*
X124329722Y-109492857D01*
X124329722Y-108359524D02*
X124329722Y-108764286D01*
X124329722Y-108764286D02*
X125179722Y-108764286D01*
X124410674Y-107590476D02*
X124370198Y-107630952D01*
X124370198Y-107630952D02*
X124329722Y-107752381D01*
X124329722Y-107752381D02*
X124329722Y-107833333D01*
X124329722Y-107833333D02*
X124370198Y-107954762D01*
X124370198Y-107954762D02*
X124451150Y-108035714D01*
X124451150Y-108035714D02*
X124532103Y-108076191D01*
X124532103Y-108076191D02*
X124694007Y-108116667D01*
X124694007Y-108116667D02*
X124815436Y-108116667D01*
X124815436Y-108116667D02*
X124977341Y-108076191D01*
X124977341Y-108076191D02*
X125058293Y-108035714D01*
X125058293Y-108035714D02*
X125139246Y-107954762D01*
X125139246Y-107954762D02*
X125179722Y-107833333D01*
X125179722Y-107833333D02*
X125179722Y-107752381D01*
X125179722Y-107752381D02*
X125139246Y-107630952D01*
X125139246Y-107630952D02*
X125098769Y-107590476D01*
X122726225Y-115519285D02*
X121876225Y-114952618D01*
X122726225Y-114952618D02*
X121876225Y-115519285D01*
X121876225Y-114628809D02*
X122726225Y-114628809D01*
X122119082Y-114264523D02*
X122119082Y-113859761D01*
X121876225Y-114345475D02*
X122726225Y-114062142D01*
X122726225Y-114062142D02*
X121876225Y-113778808D01*
X122726225Y-113333571D02*
X122726225Y-113171666D01*
X122726225Y-113171666D02*
X122685749Y-113090714D01*
X122685749Y-113090714D02*
X122604796Y-113009761D01*
X122604796Y-113009761D02*
X122442891Y-112969285D01*
X122442891Y-112969285D02*
X122159558Y-112969285D01*
X122159558Y-112969285D02*
X121997653Y-113009761D01*
X121997653Y-113009761D02*
X121916701Y-113090714D01*
X121916701Y-113090714D02*
X121876225Y-113171666D01*
X121876225Y-113171666D02*
X121876225Y-113333571D01*
X121876225Y-113333571D02*
X121916701Y-113414523D01*
X121916701Y-113414523D02*
X121997653Y-113495476D01*
X121997653Y-113495476D02*
X122159558Y-113535952D01*
X122159558Y-113535952D02*
X122442891Y-113535952D01*
X122442891Y-113535952D02*
X122604796Y-113495476D01*
X122604796Y-113495476D02*
X122685749Y-113414523D01*
X122685749Y-113414523D02*
X122726225Y-113333571D01*
X121876225Y-111609285D02*
X122280987Y-111892619D01*
X121876225Y-112095000D02*
X122726225Y-112095000D01*
X122726225Y-112095000D02*
X122726225Y-111771190D01*
X122726225Y-111771190D02*
X122685749Y-111690238D01*
X122685749Y-111690238D02*
X122645272Y-111649761D01*
X122645272Y-111649761D02*
X122564320Y-111609285D01*
X122564320Y-111609285D02*
X122442891Y-111609285D01*
X122442891Y-111609285D02*
X122361939Y-111649761D01*
X122361939Y-111649761D02*
X122321463Y-111690238D01*
X122321463Y-111690238D02*
X122280987Y-111771190D01*
X122280987Y-111771190D02*
X122280987Y-112095000D01*
X121876225Y-111245000D02*
X122726225Y-111245000D01*
X122726225Y-111245000D02*
X122726225Y-110921190D01*
X122726225Y-110921190D02*
X122685749Y-110840238D01*
X122685749Y-110840238D02*
X122645272Y-110799761D01*
X122645272Y-110799761D02*
X122564320Y-110759285D01*
X122564320Y-110759285D02*
X122442891Y-110759285D01*
X122442891Y-110759285D02*
X122361939Y-110799761D01*
X122361939Y-110799761D02*
X122321463Y-110840238D01*
X122321463Y-110840238D02*
X122280987Y-110921190D01*
X122280987Y-110921190D02*
X122280987Y-111245000D01*
X122645272Y-110435476D02*
X122685749Y-110395000D01*
X122685749Y-110395000D02*
X122726225Y-110314047D01*
X122726225Y-110314047D02*
X122726225Y-110111666D01*
X122726225Y-110111666D02*
X122685749Y-110030714D01*
X122685749Y-110030714D02*
X122645272Y-109990238D01*
X122645272Y-109990238D02*
X122564320Y-109949761D01*
X122564320Y-109949761D02*
X122483368Y-109949761D01*
X122483368Y-109949761D02*
X122361939Y-109990238D01*
X122361939Y-109990238D02*
X121876225Y-110475952D01*
X121876225Y-110475952D02*
X121876225Y-109949761D01*
X122726225Y-109423571D02*
X122726225Y-109342618D01*
X122726225Y-109342618D02*
X122685749Y-109261666D01*
X122685749Y-109261666D02*
X122645272Y-109221190D01*
X122645272Y-109221190D02*
X122564320Y-109180714D01*
X122564320Y-109180714D02*
X122402415Y-109140237D01*
X122402415Y-109140237D02*
X122200034Y-109140237D01*
X122200034Y-109140237D02*
X122038129Y-109180714D01*
X122038129Y-109180714D02*
X121957177Y-109221190D01*
X121957177Y-109221190D02*
X121916701Y-109261666D01*
X121916701Y-109261666D02*
X121876225Y-109342618D01*
X121876225Y-109342618D02*
X121876225Y-109423571D01*
X121876225Y-109423571D02*
X121916701Y-109504523D01*
X121916701Y-109504523D02*
X121957177Y-109544999D01*
X121957177Y-109544999D02*
X122038129Y-109585476D01*
X122038129Y-109585476D02*
X122200034Y-109625952D01*
X122200034Y-109625952D02*
X122402415Y-109625952D01*
X122402415Y-109625952D02*
X122564320Y-109585476D01*
X122564320Y-109585476D02*
X122645272Y-109544999D01*
X122645272Y-109544999D02*
X122685749Y-109504523D01*
X122685749Y-109504523D02*
X122726225Y-109423571D01*
X122442891Y-108411666D02*
X121876225Y-108411666D01*
X122766701Y-108614047D02*
X122159558Y-108816428D01*
X122159558Y-108816428D02*
X122159558Y-108290237D01*
X122726225Y-107804523D02*
X122726225Y-107723570D01*
X122726225Y-107723570D02*
X122685749Y-107642618D01*
X122685749Y-107642618D02*
X122645272Y-107602142D01*
X122645272Y-107602142D02*
X122564320Y-107561666D01*
X122564320Y-107561666D02*
X122402415Y-107521189D01*
X122402415Y-107521189D02*
X122200034Y-107521189D01*
X122200034Y-107521189D02*
X122038129Y-107561666D01*
X122038129Y-107561666D02*
X121957177Y-107602142D01*
X121957177Y-107602142D02*
X121916701Y-107642618D01*
X121916701Y-107642618D02*
X121876225Y-107723570D01*
X121876225Y-107723570D02*
X121876225Y-107804523D01*
X121876225Y-107804523D02*
X121916701Y-107885475D01*
X121916701Y-107885475D02*
X121957177Y-107925951D01*
X121957177Y-107925951D02*
X122038129Y-107966428D01*
X122038129Y-107966428D02*
X122200034Y-108006904D01*
X122200034Y-108006904D02*
X122402415Y-108006904D01*
X122402415Y-108006904D02*
X122564320Y-107966428D01*
X122564320Y-107966428D02*
X122645272Y-107925951D01*
X122645272Y-107925951D02*
X122685749Y-107885475D01*
X122685749Y-107885475D02*
X122726225Y-107804523D01*
X121349225Y-115539523D02*
X120499225Y-114972856D01*
X121349225Y-114972856D02*
X120499225Y-115539523D01*
X120499225Y-114649047D02*
X121349225Y-114649047D01*
X120742082Y-114284761D02*
X120742082Y-113879999D01*
X120499225Y-114365713D02*
X121349225Y-114082380D01*
X121349225Y-114082380D02*
X120499225Y-113799046D01*
X121349225Y-113353809D02*
X121349225Y-113191904D01*
X121349225Y-113191904D02*
X121308749Y-113110952D01*
X121308749Y-113110952D02*
X121227796Y-113029999D01*
X121227796Y-113029999D02*
X121065891Y-112989523D01*
X121065891Y-112989523D02*
X120782558Y-112989523D01*
X120782558Y-112989523D02*
X120620653Y-113029999D01*
X120620653Y-113029999D02*
X120539701Y-113110952D01*
X120539701Y-113110952D02*
X120499225Y-113191904D01*
X120499225Y-113191904D02*
X120499225Y-113353809D01*
X120499225Y-113353809D02*
X120539701Y-113434761D01*
X120539701Y-113434761D02*
X120620653Y-113515714D01*
X120620653Y-113515714D02*
X120782558Y-113556190D01*
X120782558Y-113556190D02*
X121065891Y-113556190D01*
X121065891Y-113556190D02*
X121227796Y-113515714D01*
X121227796Y-113515714D02*
X121308749Y-113434761D01*
X121308749Y-113434761D02*
X121349225Y-113353809D01*
X120539701Y-112155714D02*
X120499225Y-112034285D01*
X120499225Y-112034285D02*
X120499225Y-111831904D01*
X120499225Y-111831904D02*
X120539701Y-111750952D01*
X120539701Y-111750952D02*
X120580177Y-111710476D01*
X120580177Y-111710476D02*
X120661129Y-111669999D01*
X120661129Y-111669999D02*
X120742082Y-111669999D01*
X120742082Y-111669999D02*
X120823034Y-111710476D01*
X120823034Y-111710476D02*
X120863510Y-111750952D01*
X120863510Y-111750952D02*
X120903987Y-111831904D01*
X120903987Y-111831904D02*
X120944463Y-111993809D01*
X120944463Y-111993809D02*
X120984939Y-112074761D01*
X120984939Y-112074761D02*
X121025415Y-112115238D01*
X121025415Y-112115238D02*
X121106368Y-112155714D01*
X121106368Y-112155714D02*
X121187320Y-112155714D01*
X121187320Y-112155714D02*
X121268272Y-112115238D01*
X121268272Y-112115238D02*
X121308749Y-112074761D01*
X121308749Y-112074761D02*
X121349225Y-111993809D01*
X121349225Y-111993809D02*
X121349225Y-111791428D01*
X121349225Y-111791428D02*
X121308749Y-111669999D01*
X120742082Y-111346190D02*
X120742082Y-110941428D01*
X120499225Y-111427142D02*
X121349225Y-111143809D01*
X121349225Y-111143809D02*
X120499225Y-110860475D01*
X120499225Y-110577143D02*
X121349225Y-110577143D01*
X121349225Y-110577143D02*
X120742082Y-110293809D01*
X120742082Y-110293809D02*
X121349225Y-110010476D01*
X121349225Y-110010476D02*
X120499225Y-110010476D01*
X120499225Y-109605714D02*
X121349225Y-109605714D01*
X121349225Y-109605714D02*
X121349225Y-109403333D01*
X121349225Y-109403333D02*
X121308749Y-109281904D01*
X121308749Y-109281904D02*
X121227796Y-109200952D01*
X121227796Y-109200952D02*
X121146844Y-109160475D01*
X121146844Y-109160475D02*
X120984939Y-109119999D01*
X120984939Y-109119999D02*
X120863510Y-109119999D01*
X120863510Y-109119999D02*
X120701606Y-109160475D01*
X120701606Y-109160475D02*
X120620653Y-109200952D01*
X120620653Y-109200952D02*
X120539701Y-109281904D01*
X120539701Y-109281904D02*
X120499225Y-109403333D01*
X120499225Y-109403333D02*
X120499225Y-109605714D01*
X121268272Y-108796190D02*
X121308749Y-108755714D01*
X121308749Y-108755714D02*
X121349225Y-108674761D01*
X121349225Y-108674761D02*
X121349225Y-108472380D01*
X121349225Y-108472380D02*
X121308749Y-108391428D01*
X121308749Y-108391428D02*
X121268272Y-108350952D01*
X121268272Y-108350952D02*
X121187320Y-108310475D01*
X121187320Y-108310475D02*
X121106368Y-108310475D01*
X121106368Y-108310475D02*
X120984939Y-108350952D01*
X120984939Y-108350952D02*
X120499225Y-108836666D01*
X120499225Y-108836666D02*
X120499225Y-108310475D01*
X120499225Y-107500951D02*
X120499225Y-107986666D01*
X120499225Y-107743809D02*
X121349225Y-107743809D01*
X121349225Y-107743809D02*
X121227796Y-107824761D01*
X121227796Y-107824761D02*
X121146844Y-107905713D01*
X121146844Y-107905713D02*
X121106368Y-107986666D01*
D11*
%TO.C,J6*%
X114152856Y-120088309D02*
X113986190Y-120326404D01*
X113867142Y-120088309D02*
X113867142Y-120588309D01*
X113867142Y-120588309D02*
X114057618Y-120588309D01*
X114057618Y-120588309D02*
X114105237Y-120564500D01*
X114105237Y-120564500D02*
X114129047Y-120540690D01*
X114129047Y-120540690D02*
X114152856Y-120493071D01*
X114152856Y-120493071D02*
X114152856Y-120421642D01*
X114152856Y-120421642D02*
X114129047Y-120374023D01*
X114129047Y-120374023D02*
X114105237Y-120350214D01*
X114105237Y-120350214D02*
X114057618Y-120326404D01*
X114057618Y-120326404D02*
X113867142Y-120326404D01*
X114343333Y-120112119D02*
X114414761Y-120088309D01*
X114414761Y-120088309D02*
X114533809Y-120088309D01*
X114533809Y-120088309D02*
X114581428Y-120112119D01*
X114581428Y-120112119D02*
X114605237Y-120135928D01*
X114605237Y-120135928D02*
X114629047Y-120183547D01*
X114629047Y-120183547D02*
X114629047Y-120231166D01*
X114629047Y-120231166D02*
X114605237Y-120278785D01*
X114605237Y-120278785D02*
X114581428Y-120302595D01*
X114581428Y-120302595D02*
X114533809Y-120326404D01*
X114533809Y-120326404D02*
X114438571Y-120350214D01*
X114438571Y-120350214D02*
X114390952Y-120374023D01*
X114390952Y-120374023D02*
X114367142Y-120397833D01*
X114367142Y-120397833D02*
X114343333Y-120445452D01*
X114343333Y-120445452D02*
X114343333Y-120493071D01*
X114343333Y-120493071D02*
X114367142Y-120540690D01*
X114367142Y-120540690D02*
X114390952Y-120564500D01*
X114390952Y-120564500D02*
X114438571Y-120588309D01*
X114438571Y-120588309D02*
X114557618Y-120588309D01*
X114557618Y-120588309D02*
X114629047Y-120564500D01*
X114771904Y-120588309D02*
X115057618Y-120588309D01*
X114914761Y-120088309D02*
X114914761Y-120588309D01*
X114129047Y-125634500D02*
X114081428Y-125658309D01*
X114081428Y-125658309D02*
X114009999Y-125658309D01*
X114009999Y-125658309D02*
X113938571Y-125634500D01*
X113938571Y-125634500D02*
X113890952Y-125586880D01*
X113890952Y-125586880D02*
X113867142Y-125539261D01*
X113867142Y-125539261D02*
X113843333Y-125444023D01*
X113843333Y-125444023D02*
X113843333Y-125372595D01*
X113843333Y-125372595D02*
X113867142Y-125277357D01*
X113867142Y-125277357D02*
X113890952Y-125229738D01*
X113890952Y-125229738D02*
X113938571Y-125182119D01*
X113938571Y-125182119D02*
X114009999Y-125158309D01*
X114009999Y-125158309D02*
X114057618Y-125158309D01*
X114057618Y-125158309D02*
X114129047Y-125182119D01*
X114129047Y-125182119D02*
X114152856Y-125205928D01*
X114152856Y-125205928D02*
X114152856Y-125372595D01*
X114152856Y-125372595D02*
X114057618Y-125372595D01*
X114367142Y-125158309D02*
X114367142Y-125658309D01*
X114367142Y-125658309D02*
X114652856Y-125158309D01*
X114652856Y-125158309D02*
X114652856Y-125658309D01*
X114890952Y-125158309D02*
X114890952Y-125658309D01*
X114890952Y-125658309D02*
X115010000Y-125658309D01*
X115010000Y-125658309D02*
X115081428Y-125634500D01*
X115081428Y-125634500D02*
X115129047Y-125586880D01*
X115129047Y-125586880D02*
X115152857Y-125539261D01*
X115152857Y-125539261D02*
X115176666Y-125444023D01*
X115176666Y-125444023D02*
X115176666Y-125372595D01*
X115176666Y-125372595D02*
X115152857Y-125277357D01*
X115152857Y-125277357D02*
X115129047Y-125229738D01*
X115129047Y-125229738D02*
X115081428Y-125182119D01*
X115081428Y-125182119D02*
X115010000Y-125158309D01*
X115010000Y-125158309D02*
X114890952Y-125158309D01*
X113819523Y-124398309D02*
X114129047Y-124398309D01*
X114129047Y-124398309D02*
X113962380Y-124207833D01*
X113962380Y-124207833D02*
X114033809Y-124207833D01*
X114033809Y-124207833D02*
X114081428Y-124184023D01*
X114081428Y-124184023D02*
X114105237Y-124160214D01*
X114105237Y-124160214D02*
X114129047Y-124112595D01*
X114129047Y-124112595D02*
X114129047Y-123993547D01*
X114129047Y-123993547D02*
X114105237Y-123945928D01*
X114105237Y-123945928D02*
X114081428Y-123922119D01*
X114081428Y-123922119D02*
X114033809Y-123898309D01*
X114033809Y-123898309D02*
X113890952Y-123898309D01*
X113890952Y-123898309D02*
X113843333Y-123922119D01*
X113843333Y-123922119D02*
X113819523Y-123945928D01*
X114271904Y-124398309D02*
X114438570Y-123898309D01*
X114438570Y-123898309D02*
X114605237Y-124398309D01*
X114724284Y-124398309D02*
X115033808Y-124398309D01*
X115033808Y-124398309D02*
X114867141Y-124207833D01*
X114867141Y-124207833D02*
X114938570Y-124207833D01*
X114938570Y-124207833D02*
X114986189Y-124184023D01*
X114986189Y-124184023D02*
X115009998Y-124160214D01*
X115009998Y-124160214D02*
X115033808Y-124112595D01*
X115033808Y-124112595D02*
X115033808Y-123993547D01*
X115033808Y-123993547D02*
X115009998Y-123945928D01*
X115009998Y-123945928D02*
X114986189Y-123922119D01*
X114986189Y-123922119D02*
X114938570Y-123898309D01*
X114938570Y-123898309D02*
X114795713Y-123898309D01*
X114795713Y-123898309D02*
X114748094Y-123922119D01*
X114748094Y-123922119D02*
X114724284Y-123945928D01*
X114152856Y-122675928D02*
X114129047Y-122652119D01*
X114129047Y-122652119D02*
X114057618Y-122628309D01*
X114057618Y-122628309D02*
X114009999Y-122628309D01*
X114009999Y-122628309D02*
X113938571Y-122652119D01*
X113938571Y-122652119D02*
X113890952Y-122699738D01*
X113890952Y-122699738D02*
X113867142Y-122747357D01*
X113867142Y-122747357D02*
X113843333Y-122842595D01*
X113843333Y-122842595D02*
X113843333Y-122914023D01*
X113843333Y-122914023D02*
X113867142Y-123009261D01*
X113867142Y-123009261D02*
X113890952Y-123056880D01*
X113890952Y-123056880D02*
X113938571Y-123104500D01*
X113938571Y-123104500D02*
X114009999Y-123128309D01*
X114009999Y-123128309D02*
X114057618Y-123128309D01*
X114057618Y-123128309D02*
X114129047Y-123104500D01*
X114129047Y-123104500D02*
X114152856Y-123080690D01*
X114605237Y-122628309D02*
X114367142Y-122628309D01*
X114367142Y-122628309D02*
X114367142Y-123128309D01*
X114771904Y-122628309D02*
X114771904Y-123128309D01*
X115057618Y-122628309D02*
X114843333Y-122914023D01*
X115057618Y-123128309D02*
X114771904Y-122842595D01*
X113867142Y-121348309D02*
X113867142Y-121848309D01*
X113867142Y-121848309D02*
X113986190Y-121848309D01*
X113986190Y-121848309D02*
X114057618Y-121824500D01*
X114057618Y-121824500D02*
X114105237Y-121776880D01*
X114105237Y-121776880D02*
X114129047Y-121729261D01*
X114129047Y-121729261D02*
X114152856Y-121634023D01*
X114152856Y-121634023D02*
X114152856Y-121562595D01*
X114152856Y-121562595D02*
X114129047Y-121467357D01*
X114129047Y-121467357D02*
X114105237Y-121419738D01*
X114105237Y-121419738D02*
X114057618Y-121372119D01*
X114057618Y-121372119D02*
X113986190Y-121348309D01*
X113986190Y-121348309D02*
X113867142Y-121348309D01*
X114367142Y-121348309D02*
X114367142Y-121848309D01*
X114700475Y-121848309D02*
X114795713Y-121848309D01*
X114795713Y-121848309D02*
X114843332Y-121824500D01*
X114843332Y-121824500D02*
X114890951Y-121776880D01*
X114890951Y-121776880D02*
X114914761Y-121681642D01*
X114914761Y-121681642D02*
X114914761Y-121514976D01*
X114914761Y-121514976D02*
X114890951Y-121419738D01*
X114890951Y-121419738D02*
X114843332Y-121372119D01*
X114843332Y-121372119D02*
X114795713Y-121348309D01*
X114795713Y-121348309D02*
X114700475Y-121348309D01*
X114700475Y-121348309D02*
X114652856Y-121372119D01*
X114652856Y-121372119D02*
X114605237Y-121419738D01*
X114605237Y-121419738D02*
X114581428Y-121514976D01*
X114581428Y-121514976D02*
X114581428Y-121681642D01*
X114581428Y-121681642D02*
X114605237Y-121776880D01*
X114605237Y-121776880D02*
X114652856Y-121824500D01*
X114652856Y-121824500D02*
X114700475Y-121848309D01*
%TO.C,GN1*%
X114070119Y-113032617D02*
X114046309Y-112961189D01*
X114046309Y-112961189D02*
X114046309Y-112842141D01*
X114046309Y-112842141D02*
X114070119Y-112794522D01*
X114070119Y-112794522D02*
X114093928Y-112770713D01*
X114093928Y-112770713D02*
X114141547Y-112746903D01*
X114141547Y-112746903D02*
X114189166Y-112746903D01*
X114189166Y-112746903D02*
X114236785Y-112770713D01*
X114236785Y-112770713D02*
X114260595Y-112794522D01*
X114260595Y-112794522D02*
X114284404Y-112842141D01*
X114284404Y-112842141D02*
X114308214Y-112937379D01*
X114308214Y-112937379D02*
X114332023Y-112984998D01*
X114332023Y-112984998D02*
X114355833Y-113008808D01*
X114355833Y-113008808D02*
X114403452Y-113032617D01*
X114403452Y-113032617D02*
X114451071Y-113032617D01*
X114451071Y-113032617D02*
X114498690Y-113008808D01*
X114498690Y-113008808D02*
X114522500Y-112984998D01*
X114522500Y-112984998D02*
X114546309Y-112937379D01*
X114546309Y-112937379D02*
X114546309Y-112818332D01*
X114546309Y-112818332D02*
X114522500Y-112746903D01*
X114189166Y-112556427D02*
X114189166Y-112318332D01*
X114046309Y-112604046D02*
X114546309Y-112437380D01*
X114546309Y-112437380D02*
X114046309Y-112270713D01*
X114546309Y-112175475D02*
X114046309Y-112008809D01*
X114046309Y-112008809D02*
X114546309Y-111842142D01*
X114308214Y-111675476D02*
X114308214Y-111508809D01*
X114046309Y-111437381D02*
X114046309Y-111675476D01*
X114046309Y-111675476D02*
X114546309Y-111675476D01*
X114546309Y-111675476D02*
X114546309Y-111437381D01*
X114046309Y-118250476D02*
X114546309Y-118250476D01*
X114046309Y-117964762D02*
X114332023Y-118179047D01*
X114546309Y-117964762D02*
X114260595Y-118250476D01*
X114046309Y-117750476D02*
X114546309Y-117750476D01*
X114546309Y-117750476D02*
X114046309Y-117464762D01*
X114046309Y-117464762D02*
X114546309Y-117464762D01*
X114546309Y-117274285D02*
X114046309Y-116940952D01*
X114546309Y-116940952D02*
X114046309Y-117274285D01*
X114236785Y-116750476D02*
X114236785Y-116369524D01*
X114046309Y-116560000D02*
X114427261Y-116560000D01*
X114546309Y-105279046D02*
X114546309Y-104969522D01*
X114546309Y-104969522D02*
X114355833Y-105136189D01*
X114355833Y-105136189D02*
X114355833Y-105064760D01*
X114355833Y-105064760D02*
X114332023Y-105017141D01*
X114332023Y-105017141D02*
X114308214Y-104993332D01*
X114308214Y-104993332D02*
X114260595Y-104969522D01*
X114260595Y-104969522D02*
X114141547Y-104969522D01*
X114141547Y-104969522D02*
X114093928Y-104993332D01*
X114093928Y-104993332D02*
X114070119Y-105017141D01*
X114070119Y-105017141D02*
X114046309Y-105064760D01*
X114046309Y-105064760D02*
X114046309Y-105207617D01*
X114046309Y-105207617D02*
X114070119Y-105255236D01*
X114070119Y-105255236D02*
X114093928Y-105279046D01*
X114546309Y-104826665D02*
X114046309Y-104659999D01*
X114046309Y-104659999D02*
X114546309Y-104493332D01*
X114546309Y-104374285D02*
X114546309Y-104064761D01*
X114546309Y-104064761D02*
X114355833Y-104231428D01*
X114355833Y-104231428D02*
X114355833Y-104159999D01*
X114355833Y-104159999D02*
X114332023Y-104112380D01*
X114332023Y-104112380D02*
X114308214Y-104088571D01*
X114308214Y-104088571D02*
X114260595Y-104064761D01*
X114260595Y-104064761D02*
X114141547Y-104064761D01*
X114141547Y-104064761D02*
X114093928Y-104088571D01*
X114093928Y-104088571D02*
X114070119Y-104112380D01*
X114070119Y-104112380D02*
X114046309Y-104159999D01*
X114046309Y-104159999D02*
X114046309Y-104302856D01*
X114046309Y-104302856D02*
X114070119Y-104350475D01*
X114070119Y-104350475D02*
X114093928Y-104374285D01*
X114046309Y-115725476D02*
X114546309Y-115725476D01*
X114046309Y-115439762D02*
X114332023Y-115654047D01*
X114546309Y-115439762D02*
X114260595Y-115725476D01*
X114046309Y-115225476D02*
X114546309Y-115225476D01*
X114546309Y-115225476D02*
X114046309Y-114939762D01*
X114046309Y-114939762D02*
X114546309Y-114939762D01*
X114546309Y-114749285D02*
X114046309Y-114415952D01*
X114546309Y-114415952D02*
X114046309Y-114749285D01*
X114236785Y-114225476D02*
X114236785Y-113844524D01*
X114546309Y-107540951D02*
X114546309Y-107255237D01*
X114046309Y-107398094D02*
X114546309Y-107398094D01*
X114546309Y-107136190D02*
X114046309Y-106802857D01*
X114546309Y-106802857D02*
X114046309Y-107136190D01*
X114546309Y-102155237D02*
X114546309Y-102393332D01*
X114546309Y-102393332D02*
X114308214Y-102417141D01*
X114308214Y-102417141D02*
X114332023Y-102393332D01*
X114332023Y-102393332D02*
X114355833Y-102345713D01*
X114355833Y-102345713D02*
X114355833Y-102226665D01*
X114355833Y-102226665D02*
X114332023Y-102179046D01*
X114332023Y-102179046D02*
X114308214Y-102155237D01*
X114308214Y-102155237D02*
X114260595Y-102131427D01*
X114260595Y-102131427D02*
X114141547Y-102131427D01*
X114141547Y-102131427D02*
X114093928Y-102155237D01*
X114093928Y-102155237D02*
X114070119Y-102179046D01*
X114070119Y-102179046D02*
X114046309Y-102226665D01*
X114046309Y-102226665D02*
X114046309Y-102345713D01*
X114046309Y-102345713D02*
X114070119Y-102393332D01*
X114070119Y-102393332D02*
X114093928Y-102417141D01*
X114546309Y-101988570D02*
X114046309Y-101821904D01*
X114046309Y-101821904D02*
X114546309Y-101655237D01*
X114046309Y-109793333D02*
X114284404Y-109959999D01*
X114046309Y-110079047D02*
X114546309Y-110079047D01*
X114546309Y-110079047D02*
X114546309Y-109888571D01*
X114546309Y-109888571D02*
X114522500Y-109840952D01*
X114522500Y-109840952D02*
X114498690Y-109817142D01*
X114498690Y-109817142D02*
X114451071Y-109793333D01*
X114451071Y-109793333D02*
X114379642Y-109793333D01*
X114379642Y-109793333D02*
X114332023Y-109817142D01*
X114332023Y-109817142D02*
X114308214Y-109840952D01*
X114308214Y-109840952D02*
X114284404Y-109888571D01*
X114284404Y-109888571D02*
X114284404Y-110079047D01*
X114546309Y-109626666D02*
X114046309Y-109293333D01*
X114546309Y-109293333D02*
X114046309Y-109626666D01*
D12*
%TO.C,U1*%
X131367635Y-104602214D02*
X130617635Y-104602214D01*
X130617635Y-104602214D02*
X130617635Y-104780785D01*
X130617635Y-104780785D02*
X130653350Y-104887928D01*
X130653350Y-104887928D02*
X130724778Y-104959357D01*
X130724778Y-104959357D02*
X130796207Y-104995071D01*
X130796207Y-104995071D02*
X130939064Y-105030785D01*
X130939064Y-105030785D02*
X131046207Y-105030785D01*
X131046207Y-105030785D02*
X131189064Y-104995071D01*
X131189064Y-104995071D02*
X131260492Y-104959357D01*
X131260492Y-104959357D02*
X131331921Y-104887928D01*
X131331921Y-104887928D02*
X131367635Y-104780785D01*
X131367635Y-104780785D02*
X131367635Y-104602214D01*
X131367635Y-105745071D02*
X131367635Y-105316500D01*
X131367635Y-105530785D02*
X130617635Y-105530785D01*
X130617635Y-105530785D02*
X130724778Y-105459357D01*
X130724778Y-105459357D02*
X130796207Y-105387928D01*
X130796207Y-105387928D02*
X130831921Y-105316500D01*
X118707635Y-117207214D02*
X117957635Y-117207214D01*
X117957635Y-117207214D02*
X117957635Y-117385785D01*
X117957635Y-117385785D02*
X117993350Y-117492928D01*
X117993350Y-117492928D02*
X118064778Y-117564357D01*
X118064778Y-117564357D02*
X118136207Y-117600071D01*
X118136207Y-117600071D02*
X118279064Y-117635785D01*
X118279064Y-117635785D02*
X118386207Y-117635785D01*
X118386207Y-117635785D02*
X118529064Y-117600071D01*
X118529064Y-117600071D02*
X118600492Y-117564357D01*
X118600492Y-117564357D02*
X118671921Y-117492928D01*
X118671921Y-117492928D02*
X118707635Y-117385785D01*
X118707635Y-117385785D02*
X118707635Y-117207214D01*
X117957635Y-117885785D02*
X117957635Y-118385785D01*
X117957635Y-118385785D02*
X118707635Y-118064357D01*
X131257635Y-112166214D02*
X130507635Y-112166214D01*
X130507635Y-112166214D02*
X130507635Y-112344785D01*
X130507635Y-112344785D02*
X130543350Y-112451928D01*
X130543350Y-112451928D02*
X130614778Y-112523357D01*
X130614778Y-112523357D02*
X130686207Y-112559071D01*
X130686207Y-112559071D02*
X130829064Y-112594785D01*
X130829064Y-112594785D02*
X130936207Y-112594785D01*
X130936207Y-112594785D02*
X131079064Y-112559071D01*
X131079064Y-112559071D02*
X131150492Y-112523357D01*
X131150492Y-112523357D02*
X131221921Y-112451928D01*
X131221921Y-112451928D02*
X131257635Y-112344785D01*
X131257635Y-112344785D02*
X131257635Y-112166214D01*
X130757635Y-113237643D02*
X131257635Y-113237643D01*
X130471921Y-113059071D02*
X131007635Y-112880500D01*
X131007635Y-112880500D02*
X131007635Y-113344785D01*
X131317635Y-107102214D02*
X130567635Y-107102214D01*
X130567635Y-107102214D02*
X130567635Y-107280785D01*
X130567635Y-107280785D02*
X130603350Y-107387928D01*
X130603350Y-107387928D02*
X130674778Y-107459357D01*
X130674778Y-107459357D02*
X130746207Y-107495071D01*
X130746207Y-107495071D02*
X130889064Y-107530785D01*
X130889064Y-107530785D02*
X130996207Y-107530785D01*
X130996207Y-107530785D02*
X131139064Y-107495071D01*
X131139064Y-107495071D02*
X131210492Y-107459357D01*
X131210492Y-107459357D02*
X131281921Y-107387928D01*
X131281921Y-107387928D02*
X131317635Y-107280785D01*
X131317635Y-107280785D02*
X131317635Y-107102214D01*
X130639064Y-107816500D02*
X130603350Y-107852214D01*
X130603350Y-107852214D02*
X130567635Y-107923643D01*
X130567635Y-107923643D02*
X130567635Y-108102214D01*
X130567635Y-108102214D02*
X130603350Y-108173643D01*
X130603350Y-108173643D02*
X130639064Y-108209357D01*
X130639064Y-108209357D02*
X130710492Y-108245071D01*
X130710492Y-108245071D02*
X130781921Y-108245071D01*
X130781921Y-108245071D02*
X130889064Y-108209357D01*
X130889064Y-108209357D02*
X131317635Y-107780785D01*
X131317635Y-107780785D02*
X131317635Y-108245071D01*
X117937635Y-106672214D02*
X117937635Y-107136500D01*
X117937635Y-107136500D02*
X118223350Y-106886500D01*
X118223350Y-106886500D02*
X118223350Y-106993643D01*
X118223350Y-106993643D02*
X118259064Y-107065072D01*
X118259064Y-107065072D02*
X118294778Y-107100786D01*
X118294778Y-107100786D02*
X118366207Y-107136500D01*
X118366207Y-107136500D02*
X118544778Y-107136500D01*
X118544778Y-107136500D02*
X118616207Y-107100786D01*
X118616207Y-107100786D02*
X118651921Y-107065072D01*
X118651921Y-107065072D02*
X118687635Y-106993643D01*
X118687635Y-106993643D02*
X118687635Y-106779357D01*
X118687635Y-106779357D02*
X118651921Y-106707929D01*
X118651921Y-106707929D02*
X118616207Y-106672214D01*
X117937635Y-107350786D02*
X118687635Y-107600786D01*
X118687635Y-107600786D02*
X117937635Y-107850786D01*
X117937635Y-108029357D02*
X117937635Y-108493643D01*
X117937635Y-108493643D02*
X118223350Y-108243643D01*
X118223350Y-108243643D02*
X118223350Y-108350786D01*
X118223350Y-108350786D02*
X118259064Y-108422215D01*
X118259064Y-108422215D02*
X118294778Y-108457929D01*
X118294778Y-108457929D02*
X118366207Y-108493643D01*
X118366207Y-108493643D02*
X118544778Y-108493643D01*
X118544778Y-108493643D02*
X118616207Y-108457929D01*
X118616207Y-108457929D02*
X118651921Y-108422215D01*
X118651921Y-108422215D02*
X118687635Y-108350786D01*
X118687635Y-108350786D02*
X118687635Y-108136500D01*
X118687635Y-108136500D02*
X118651921Y-108065072D01*
X118651921Y-108065072D02*
X118616207Y-108029357D01*
X131257635Y-109626214D02*
X130507635Y-109626214D01*
X130507635Y-109626214D02*
X130507635Y-109804785D01*
X130507635Y-109804785D02*
X130543350Y-109911928D01*
X130543350Y-109911928D02*
X130614778Y-109983357D01*
X130614778Y-109983357D02*
X130686207Y-110019071D01*
X130686207Y-110019071D02*
X130829064Y-110054785D01*
X130829064Y-110054785D02*
X130936207Y-110054785D01*
X130936207Y-110054785D02*
X131079064Y-110019071D01*
X131079064Y-110019071D02*
X131150492Y-109983357D01*
X131150492Y-109983357D02*
X131221921Y-109911928D01*
X131221921Y-109911928D02*
X131257635Y-109804785D01*
X131257635Y-109804785D02*
X131257635Y-109626214D01*
X130507635Y-110304785D02*
X130507635Y-110769071D01*
X130507635Y-110769071D02*
X130793350Y-110519071D01*
X130793350Y-110519071D02*
X130793350Y-110626214D01*
X130793350Y-110626214D02*
X130829064Y-110697643D01*
X130829064Y-110697643D02*
X130864778Y-110733357D01*
X130864778Y-110733357D02*
X130936207Y-110769071D01*
X130936207Y-110769071D02*
X131114778Y-110769071D01*
X131114778Y-110769071D02*
X131186207Y-110733357D01*
X131186207Y-110733357D02*
X131221921Y-110697643D01*
X131221921Y-110697643D02*
X131257635Y-110626214D01*
X131257635Y-110626214D02*
X131257635Y-110411928D01*
X131257635Y-110411928D02*
X131221921Y-110340500D01*
X131221921Y-110340500D02*
X131186207Y-110304785D01*
X117973350Y-104499357D02*
X117937635Y-104427929D01*
X117937635Y-104427929D02*
X117937635Y-104320786D01*
X117937635Y-104320786D02*
X117973350Y-104213643D01*
X117973350Y-104213643D02*
X118044778Y-104142214D01*
X118044778Y-104142214D02*
X118116207Y-104106500D01*
X118116207Y-104106500D02*
X118259064Y-104070786D01*
X118259064Y-104070786D02*
X118366207Y-104070786D01*
X118366207Y-104070786D02*
X118509064Y-104106500D01*
X118509064Y-104106500D02*
X118580492Y-104142214D01*
X118580492Y-104142214D02*
X118651921Y-104213643D01*
X118651921Y-104213643D02*
X118687635Y-104320786D01*
X118687635Y-104320786D02*
X118687635Y-104392214D01*
X118687635Y-104392214D02*
X118651921Y-104499357D01*
X118651921Y-104499357D02*
X118616207Y-104535071D01*
X118616207Y-104535071D02*
X118366207Y-104535071D01*
X118366207Y-104535071D02*
X118366207Y-104392214D01*
X118687635Y-104856500D02*
X117937635Y-104856500D01*
X117937635Y-104856500D02*
X118687635Y-105285071D01*
X118687635Y-105285071D02*
X117937635Y-105285071D01*
X118687635Y-105642214D02*
X117937635Y-105642214D01*
X117937635Y-105642214D02*
X117937635Y-105820785D01*
X117937635Y-105820785D02*
X117973350Y-105927928D01*
X117973350Y-105927928D02*
X118044778Y-105999357D01*
X118044778Y-105999357D02*
X118116207Y-106035071D01*
X118116207Y-106035071D02*
X118259064Y-106070785D01*
X118259064Y-106070785D02*
X118366207Y-106070785D01*
X118366207Y-106070785D02*
X118509064Y-106035071D01*
X118509064Y-106035071D02*
X118580492Y-105999357D01*
X118580492Y-105999357D02*
X118651921Y-105927928D01*
X118651921Y-105927928D02*
X118687635Y-105820785D01*
X118687635Y-105820785D02*
X118687635Y-105642214D01*
X131260935Y-117282214D02*
X130510935Y-117282214D01*
X130510935Y-117282214D02*
X130510935Y-117460785D01*
X130510935Y-117460785D02*
X130546650Y-117567928D01*
X130546650Y-117567928D02*
X130618078Y-117639357D01*
X130618078Y-117639357D02*
X130689507Y-117675071D01*
X130689507Y-117675071D02*
X130832364Y-117710785D01*
X130832364Y-117710785D02*
X130939507Y-117710785D01*
X130939507Y-117710785D02*
X131082364Y-117675071D01*
X131082364Y-117675071D02*
X131153792Y-117639357D01*
X131153792Y-117639357D02*
X131225221Y-117567928D01*
X131225221Y-117567928D02*
X131260935Y-117460785D01*
X131260935Y-117460785D02*
X131260935Y-117282214D01*
X130510935Y-118353643D02*
X130510935Y-118210785D01*
X130510935Y-118210785D02*
X130546650Y-118139357D01*
X130546650Y-118139357D02*
X130582364Y-118103643D01*
X130582364Y-118103643D02*
X130689507Y-118032214D01*
X130689507Y-118032214D02*
X130832364Y-117996500D01*
X130832364Y-117996500D02*
X131118078Y-117996500D01*
X131118078Y-117996500D02*
X131189507Y-118032214D01*
X131189507Y-118032214D02*
X131225221Y-118067928D01*
X131225221Y-118067928D02*
X131260935Y-118139357D01*
X131260935Y-118139357D02*
X131260935Y-118282214D01*
X131260935Y-118282214D02*
X131225221Y-118353643D01*
X131225221Y-118353643D02*
X131189507Y-118389357D01*
X131189507Y-118389357D02*
X131118078Y-118425071D01*
X131118078Y-118425071D02*
X130939507Y-118425071D01*
X130939507Y-118425071D02*
X130868078Y-118389357D01*
X130868078Y-118389357D02*
X130832364Y-118353643D01*
X130832364Y-118353643D02*
X130796650Y-118282214D01*
X130796650Y-118282214D02*
X130796650Y-118139357D01*
X130796650Y-118139357D02*
X130832364Y-118067928D01*
X130832364Y-118067928D02*
X130868078Y-118032214D01*
X130868078Y-118032214D02*
X130939507Y-117996500D01*
X131387635Y-102052214D02*
X130637635Y-102052214D01*
X130637635Y-102052214D02*
X130637635Y-102230785D01*
X130637635Y-102230785D02*
X130673350Y-102337928D01*
X130673350Y-102337928D02*
X130744778Y-102409357D01*
X130744778Y-102409357D02*
X130816207Y-102445071D01*
X130816207Y-102445071D02*
X130959064Y-102480785D01*
X130959064Y-102480785D02*
X131066207Y-102480785D01*
X131066207Y-102480785D02*
X131209064Y-102445071D01*
X131209064Y-102445071D02*
X131280492Y-102409357D01*
X131280492Y-102409357D02*
X131351921Y-102337928D01*
X131351921Y-102337928D02*
X131387635Y-102230785D01*
X131387635Y-102230785D02*
X131387635Y-102052214D01*
X130637635Y-102945071D02*
X130637635Y-103016500D01*
X130637635Y-103016500D02*
X130673350Y-103087928D01*
X130673350Y-103087928D02*
X130709064Y-103123643D01*
X130709064Y-103123643D02*
X130780492Y-103159357D01*
X130780492Y-103159357D02*
X130923350Y-103195071D01*
X130923350Y-103195071D02*
X131101921Y-103195071D01*
X131101921Y-103195071D02*
X131244778Y-103159357D01*
X131244778Y-103159357D02*
X131316207Y-103123643D01*
X131316207Y-103123643D02*
X131351921Y-103087928D01*
X131351921Y-103087928D02*
X131387635Y-103016500D01*
X131387635Y-103016500D02*
X131387635Y-102945071D01*
X131387635Y-102945071D02*
X131351921Y-102873643D01*
X131351921Y-102873643D02*
X131316207Y-102837928D01*
X131316207Y-102837928D02*
X131244778Y-102802214D01*
X131244778Y-102802214D02*
X131101921Y-102766500D01*
X131101921Y-102766500D02*
X130923350Y-102766500D01*
X130923350Y-102766500D02*
X130780492Y-102802214D01*
X130780492Y-102802214D02*
X130709064Y-102837928D01*
X130709064Y-102837928D02*
X130673350Y-102873643D01*
X130673350Y-102873643D02*
X130637635Y-102945071D01*
X118737635Y-112157214D02*
X117987635Y-112157214D01*
X117987635Y-112157214D02*
X117987635Y-112335785D01*
X117987635Y-112335785D02*
X118023350Y-112442928D01*
X118023350Y-112442928D02*
X118094778Y-112514357D01*
X118094778Y-112514357D02*
X118166207Y-112550071D01*
X118166207Y-112550071D02*
X118309064Y-112585785D01*
X118309064Y-112585785D02*
X118416207Y-112585785D01*
X118416207Y-112585785D02*
X118559064Y-112550071D01*
X118559064Y-112550071D02*
X118630492Y-112514357D01*
X118630492Y-112514357D02*
X118701921Y-112442928D01*
X118701921Y-112442928D02*
X118737635Y-112335785D01*
X118737635Y-112335785D02*
X118737635Y-112157214D01*
X118737635Y-112942928D02*
X118737635Y-113085785D01*
X118737635Y-113085785D02*
X118701921Y-113157214D01*
X118701921Y-113157214D02*
X118666207Y-113192928D01*
X118666207Y-113192928D02*
X118559064Y-113264357D01*
X118559064Y-113264357D02*
X118416207Y-113300071D01*
X118416207Y-113300071D02*
X118130492Y-113300071D01*
X118130492Y-113300071D02*
X118059064Y-113264357D01*
X118059064Y-113264357D02*
X118023350Y-113228643D01*
X118023350Y-113228643D02*
X117987635Y-113157214D01*
X117987635Y-113157214D02*
X117987635Y-113014357D01*
X117987635Y-113014357D02*
X118023350Y-112942928D01*
X118023350Y-112942928D02*
X118059064Y-112907214D01*
X118059064Y-112907214D02*
X118130492Y-112871500D01*
X118130492Y-112871500D02*
X118309064Y-112871500D01*
X118309064Y-112871500D02*
X118380492Y-112907214D01*
X118380492Y-112907214D02*
X118416207Y-112942928D01*
X118416207Y-112942928D02*
X118451921Y-113014357D01*
X118451921Y-113014357D02*
X118451921Y-113157214D01*
X118451921Y-113157214D02*
X118416207Y-113228643D01*
X118416207Y-113228643D02*
X118380492Y-113264357D01*
X118380492Y-113264357D02*
X118309064Y-113300071D01*
X118697635Y-109240071D02*
X117947635Y-109240071D01*
X117947635Y-109240071D02*
X117947635Y-109418642D01*
X117947635Y-109418642D02*
X117983350Y-109525785D01*
X117983350Y-109525785D02*
X118054778Y-109597214D01*
X118054778Y-109597214D02*
X118126207Y-109632928D01*
X118126207Y-109632928D02*
X118269064Y-109668642D01*
X118269064Y-109668642D02*
X118376207Y-109668642D01*
X118376207Y-109668642D02*
X118519064Y-109632928D01*
X118519064Y-109632928D02*
X118590492Y-109597214D01*
X118590492Y-109597214D02*
X118661921Y-109525785D01*
X118661921Y-109525785D02*
X118697635Y-109418642D01*
X118697635Y-109418642D02*
X118697635Y-109240071D01*
X118697635Y-110382928D02*
X118697635Y-109954357D01*
X118697635Y-110168642D02*
X117947635Y-110168642D01*
X117947635Y-110168642D02*
X118054778Y-110097214D01*
X118054778Y-110097214D02*
X118126207Y-110025785D01*
X118126207Y-110025785D02*
X118161921Y-109954357D01*
X117947635Y-110847214D02*
X117947635Y-110918643D01*
X117947635Y-110918643D02*
X117983350Y-110990071D01*
X117983350Y-110990071D02*
X118019064Y-111025786D01*
X118019064Y-111025786D02*
X118090492Y-111061500D01*
X118090492Y-111061500D02*
X118233350Y-111097214D01*
X118233350Y-111097214D02*
X118411921Y-111097214D01*
X118411921Y-111097214D02*
X118554778Y-111061500D01*
X118554778Y-111061500D02*
X118626207Y-111025786D01*
X118626207Y-111025786D02*
X118661921Y-110990071D01*
X118661921Y-110990071D02*
X118697635Y-110918643D01*
X118697635Y-110918643D02*
X118697635Y-110847214D01*
X118697635Y-110847214D02*
X118661921Y-110775786D01*
X118661921Y-110775786D02*
X118626207Y-110740071D01*
X118626207Y-110740071D02*
X118554778Y-110704357D01*
X118554778Y-110704357D02*
X118411921Y-110668643D01*
X118411921Y-110668643D02*
X118233350Y-110668643D01*
X118233350Y-110668643D02*
X118090492Y-110704357D01*
X118090492Y-110704357D02*
X118019064Y-110740071D01*
X118019064Y-110740071D02*
X117983350Y-110775786D01*
X117983350Y-110775786D02*
X117947635Y-110847214D01*
X131257635Y-114706214D02*
X130507635Y-114706214D01*
X130507635Y-114706214D02*
X130507635Y-114884785D01*
X130507635Y-114884785D02*
X130543350Y-114991928D01*
X130543350Y-114991928D02*
X130614778Y-115063357D01*
X130614778Y-115063357D02*
X130686207Y-115099071D01*
X130686207Y-115099071D02*
X130829064Y-115134785D01*
X130829064Y-115134785D02*
X130936207Y-115134785D01*
X130936207Y-115134785D02*
X131079064Y-115099071D01*
X131079064Y-115099071D02*
X131150492Y-115063357D01*
X131150492Y-115063357D02*
X131221921Y-114991928D01*
X131221921Y-114991928D02*
X131257635Y-114884785D01*
X131257635Y-114884785D02*
X131257635Y-114706214D01*
X130507635Y-115813357D02*
X130507635Y-115456214D01*
X130507635Y-115456214D02*
X130864778Y-115420500D01*
X130864778Y-115420500D02*
X130829064Y-115456214D01*
X130829064Y-115456214D02*
X130793350Y-115527643D01*
X130793350Y-115527643D02*
X130793350Y-115706214D01*
X130793350Y-115706214D02*
X130829064Y-115777643D01*
X130829064Y-115777643D02*
X130864778Y-115813357D01*
X130864778Y-115813357D02*
X130936207Y-115849071D01*
X130936207Y-115849071D02*
X131114778Y-115849071D01*
X131114778Y-115849071D02*
X131186207Y-115813357D01*
X131186207Y-115813357D02*
X131221921Y-115777643D01*
X131221921Y-115777643D02*
X131257635Y-115706214D01*
X131257635Y-115706214D02*
X131257635Y-115527643D01*
X131257635Y-115527643D02*
X131221921Y-115456214D01*
X131221921Y-115456214D02*
X131186207Y-115420500D01*
X118737635Y-114687214D02*
X117987635Y-114687214D01*
X117987635Y-114687214D02*
X117987635Y-114865785D01*
X117987635Y-114865785D02*
X118023350Y-114972928D01*
X118023350Y-114972928D02*
X118094778Y-115044357D01*
X118094778Y-115044357D02*
X118166207Y-115080071D01*
X118166207Y-115080071D02*
X118309064Y-115115785D01*
X118309064Y-115115785D02*
X118416207Y-115115785D01*
X118416207Y-115115785D02*
X118559064Y-115080071D01*
X118559064Y-115080071D02*
X118630492Y-115044357D01*
X118630492Y-115044357D02*
X118701921Y-114972928D01*
X118701921Y-114972928D02*
X118737635Y-114865785D01*
X118737635Y-114865785D02*
X118737635Y-114687214D01*
X118309064Y-115544357D02*
X118273350Y-115472928D01*
X118273350Y-115472928D02*
X118237635Y-115437214D01*
X118237635Y-115437214D02*
X118166207Y-115401500D01*
X118166207Y-115401500D02*
X118130492Y-115401500D01*
X118130492Y-115401500D02*
X118059064Y-115437214D01*
X118059064Y-115437214D02*
X118023350Y-115472928D01*
X118023350Y-115472928D02*
X117987635Y-115544357D01*
X117987635Y-115544357D02*
X117987635Y-115687214D01*
X117987635Y-115687214D02*
X118023350Y-115758643D01*
X118023350Y-115758643D02*
X118059064Y-115794357D01*
X118059064Y-115794357D02*
X118130492Y-115830071D01*
X118130492Y-115830071D02*
X118166207Y-115830071D01*
X118166207Y-115830071D02*
X118237635Y-115794357D01*
X118237635Y-115794357D02*
X118273350Y-115758643D01*
X118273350Y-115758643D02*
X118309064Y-115687214D01*
X118309064Y-115687214D02*
X118309064Y-115544357D01*
X118309064Y-115544357D02*
X118344778Y-115472928D01*
X118344778Y-115472928D02*
X118380492Y-115437214D01*
X118380492Y-115437214D02*
X118451921Y-115401500D01*
X118451921Y-115401500D02*
X118594778Y-115401500D01*
X118594778Y-115401500D02*
X118666207Y-115437214D01*
X118666207Y-115437214D02*
X118701921Y-115472928D01*
X118701921Y-115472928D02*
X118737635Y-115544357D01*
X118737635Y-115544357D02*
X118737635Y-115687214D01*
X118737635Y-115687214D02*
X118701921Y-115758643D01*
X118701921Y-115758643D02*
X118666207Y-115794357D01*
X118666207Y-115794357D02*
X118594778Y-115830071D01*
X118594778Y-115830071D02*
X118451921Y-115830071D01*
X118451921Y-115830071D02*
X118380492Y-115794357D01*
X118380492Y-115794357D02*
X118344778Y-115758643D01*
X118344778Y-115758643D02*
X118309064Y-115687214D01*
X117947635Y-102357929D02*
X117947635Y-102000786D01*
X117947635Y-102000786D02*
X118304778Y-101965072D01*
X118304778Y-101965072D02*
X118269064Y-102000786D01*
X118269064Y-102000786D02*
X118233350Y-102072215D01*
X118233350Y-102072215D02*
X118233350Y-102250786D01*
X118233350Y-102250786D02*
X118269064Y-102322215D01*
X118269064Y-102322215D02*
X118304778Y-102357929D01*
X118304778Y-102357929D02*
X118376207Y-102393643D01*
X118376207Y-102393643D02*
X118554778Y-102393643D01*
X118554778Y-102393643D02*
X118626207Y-102357929D01*
X118626207Y-102357929D02*
X118661921Y-102322215D01*
X118661921Y-102322215D02*
X118697635Y-102250786D01*
X118697635Y-102250786D02*
X118697635Y-102072215D01*
X118697635Y-102072215D02*
X118661921Y-102000786D01*
X118661921Y-102000786D02*
X118626207Y-101965072D01*
X117947635Y-102607929D02*
X118697635Y-102857929D01*
X118697635Y-102857929D02*
X117947635Y-103107929D01*
%TO.C,SW1*%
X134125535Y-121194286D02*
X133375535Y-121194286D01*
X133375535Y-121194286D02*
X133375535Y-121480000D01*
X133375535Y-121480000D02*
X133411250Y-121551429D01*
X133411250Y-121551429D02*
X133446964Y-121587143D01*
X133446964Y-121587143D02*
X133518392Y-121622857D01*
X133518392Y-121622857D02*
X133625535Y-121622857D01*
X133625535Y-121622857D02*
X133696964Y-121587143D01*
X133696964Y-121587143D02*
X133732678Y-121551429D01*
X133732678Y-121551429D02*
X133768392Y-121480000D01*
X133768392Y-121480000D02*
X133768392Y-121194286D01*
X134125535Y-121944286D02*
X133625535Y-121944286D01*
X133768392Y-121944286D02*
X133696964Y-121980000D01*
X133696964Y-121980000D02*
X133661250Y-122015715D01*
X133661250Y-122015715D02*
X133625535Y-122087143D01*
X133625535Y-122087143D02*
X133625535Y-122158572D01*
X134125535Y-122515715D02*
X134089821Y-122444286D01*
X134089821Y-122444286D02*
X134054107Y-122408572D01*
X134054107Y-122408572D02*
X133982678Y-122372858D01*
X133982678Y-122372858D02*
X133768392Y-122372858D01*
X133768392Y-122372858D02*
X133696964Y-122408572D01*
X133696964Y-122408572D02*
X133661250Y-122444286D01*
X133661250Y-122444286D02*
X133625535Y-122515715D01*
X133625535Y-122515715D02*
X133625535Y-122622858D01*
X133625535Y-122622858D02*
X133661250Y-122694286D01*
X133661250Y-122694286D02*
X133696964Y-122730001D01*
X133696964Y-122730001D02*
X133768392Y-122765715D01*
X133768392Y-122765715D02*
X133982678Y-122765715D01*
X133982678Y-122765715D02*
X134054107Y-122730001D01*
X134054107Y-122730001D02*
X134089821Y-122694286D01*
X134089821Y-122694286D02*
X134125535Y-122622858D01*
X134125535Y-122622858D02*
X134125535Y-122515715D01*
X133625535Y-123408572D02*
X134232678Y-123408572D01*
X134232678Y-123408572D02*
X134304107Y-123372857D01*
X134304107Y-123372857D02*
X134339821Y-123337143D01*
X134339821Y-123337143D02*
X134375535Y-123265714D01*
X134375535Y-123265714D02*
X134375535Y-123158572D01*
X134375535Y-123158572D02*
X134339821Y-123087143D01*
X134089821Y-123408572D02*
X134125535Y-123337143D01*
X134125535Y-123337143D02*
X134125535Y-123194286D01*
X134125535Y-123194286D02*
X134089821Y-123122857D01*
X134089821Y-123122857D02*
X134054107Y-123087143D01*
X134054107Y-123087143D02*
X133982678Y-123051429D01*
X133982678Y-123051429D02*
X133768392Y-123051429D01*
X133768392Y-123051429D02*
X133696964Y-123087143D01*
X133696964Y-123087143D02*
X133661250Y-123122857D01*
X133661250Y-123122857D02*
X133625535Y-123194286D01*
X133625535Y-123194286D02*
X133625535Y-123337143D01*
X133625535Y-123337143D02*
X133661250Y-123408572D01*
X133732678Y-124465714D02*
X133768392Y-124572857D01*
X133768392Y-124572857D02*
X133804107Y-124608571D01*
X133804107Y-124608571D02*
X133875535Y-124644285D01*
X133875535Y-124644285D02*
X133982678Y-124644285D01*
X133982678Y-124644285D02*
X134054107Y-124608571D01*
X134054107Y-124608571D02*
X134089821Y-124572857D01*
X134089821Y-124572857D02*
X134125535Y-124501428D01*
X134125535Y-124501428D02*
X134125535Y-124215714D01*
X134125535Y-124215714D02*
X133375535Y-124215714D01*
X133375535Y-124215714D02*
X133375535Y-124465714D01*
X133375535Y-124465714D02*
X133411250Y-124537143D01*
X133411250Y-124537143D02*
X133446964Y-124572857D01*
X133446964Y-124572857D02*
X133518392Y-124608571D01*
X133518392Y-124608571D02*
X133589821Y-124608571D01*
X133589821Y-124608571D02*
X133661250Y-124572857D01*
X133661250Y-124572857D02*
X133696964Y-124537143D01*
X133696964Y-124537143D02*
X133732678Y-124465714D01*
X133732678Y-124465714D02*
X133732678Y-124215714D01*
X133375535Y-124858571D02*
X133375535Y-125287143D01*
X134125535Y-125072857D02*
X133375535Y-125072857D01*
X134125535Y-125537143D02*
X133375535Y-125537143D01*
X133375535Y-125537143D02*
X134125535Y-125965714D01*
X134125535Y-125965714D02*
X133375535Y-125965714D01*
D13*
%TO.C,J1*%
X116635000Y-132471200D02*
X123055000Y-132471200D01*
X123055000Y-132471200D02*
X123055000Y-121771200D01*
X123055000Y-121771200D02*
X116635000Y-121771200D01*
X116635000Y-121771200D02*
X116635000Y-132471200D01*
D14*
X123605000Y-132481200D02*
X129295000Y-132481200D01*
X129295000Y-132481200D02*
X129295000Y-121781200D01*
X129295000Y-121781200D02*
X123605000Y-121781200D01*
X123605000Y-121781200D02*
X123605000Y-132481200D01*
G36*
X123605000Y-132481200D02*
G01*
X129295000Y-132481200D01*
X129295000Y-121781200D01*
X123605000Y-121781200D01*
X123605000Y-132481200D01*
G37*
D15*
%TO.C,U1*%
X133510014Y-101755786D02*
X133510014Y-118755786D01*
X131510014Y-120755786D02*
X117710014Y-120755786D01*
X129110014Y-105685056D02*
X129110014Y-98331756D01*
X129110014Y-98331756D02*
X120110014Y-98331756D01*
X120110014Y-105685056D02*
X129110014Y-105685056D01*
X120110014Y-98331756D02*
X120110014Y-105685056D01*
X117710014Y-99756696D02*
X131510014Y-99756696D01*
X115710014Y-118755786D02*
X115710014Y-101755786D01*
D14*
X131510014Y-120755785D02*
G75*
G03*
X133510013Y-118755786I-44857J2044856D01*
G01*
X133510013Y-101755786D02*
G75*
G03*
X131510014Y-99755787I-2044613J-44614D01*
G01*
X115710014Y-118755786D02*
G75*
G03*
X117710014Y-120755786I1999986J-14D01*
G01*
X117710014Y-99755784D02*
G75*
G03*
X115710014Y-101755786I44636J-2044636D01*
G01*
D16*
X134137014Y-99935786D02*
G75*
G03*
X134137014Y-99935786I-127000J0D01*
G01*
D17*
X133494681Y-101645313D02*
X133497729Y-101694081D01*
X133490617Y-101596292D01*
X133494681Y-101645313D01*
X115767766Y-119166741D02*
X115757861Y-119118736D01*
X115748970Y-119070476D01*
X115741350Y-119021961D01*
X115734746Y-118973193D01*
X115729413Y-118924425D01*
X115725349Y-118875404D01*
X115722301Y-118826636D01*
X115720522Y-118777360D01*
X115767766Y-119166741D01*
%TO.C,REF2*%
G36*
X127400000Y-110545489D02*
G01*
X126813350Y-110549651D01*
X126226699Y-110553813D01*
X126813350Y-110910805D01*
X127400000Y-111267798D01*
X127400000Y-111641250D01*
X125606125Y-111641250D01*
X125606125Y-111260642D01*
X126183635Y-111256477D01*
X126761145Y-111252313D01*
X125614063Y-110552641D01*
X125609590Y-110366696D01*
X125605118Y-110180750D01*
X127400000Y-110180750D01*
X127400000Y-110545489D01*
G37*
D18*
X127400000Y-110545489D02*
X126813350Y-110549651D01*
X126226699Y-110553813D01*
X126813350Y-110910805D01*
X127400000Y-111267798D01*
X127400000Y-111641250D01*
X125606125Y-111641250D01*
X125606125Y-111260642D01*
X126183635Y-111256477D01*
X126761145Y-111252313D01*
X125614063Y-110552641D01*
X125609590Y-110366696D01*
X125605118Y-110180750D01*
X127400000Y-110180750D01*
X127400000Y-110545489D01*
G36*
X128809433Y-110641132D02*
G01*
X128906547Y-110641435D01*
X128978869Y-110642625D01*
X129031870Y-110645300D01*
X129071021Y-110650055D01*
X129101792Y-110657487D01*
X129129653Y-110668191D01*
X129160075Y-110682764D01*
X129187120Y-110697507D01*
X129262689Y-110758900D01*
X129311324Y-110837055D01*
X129333230Y-110932268D01*
X129334681Y-110960646D01*
X129329790Y-111018300D01*
X129311434Y-111078695D01*
X129276733Y-111153094D01*
X129277116Y-111159125D01*
X129295740Y-111165000D01*
X129304898Y-111166748D01*
X129317284Y-111185129D01*
X129320875Y-111228500D01*
X129320875Y-111292000D01*
X128479500Y-111292000D01*
X128479500Y-111165000D01*
X128757823Y-111165000D01*
X128847812Y-111164546D01*
X128943764Y-111162050D01*
X129016406Y-111156553D01*
X129070548Y-111147135D01*
X129110999Y-111132874D01*
X129142568Y-111112853D01*
X129170063Y-111086150D01*
X129179259Y-111073902D01*
X129199637Y-111019219D01*
X129203542Y-110953824D01*
X129191316Y-110890198D01*
X129163304Y-110840818D01*
X129148838Y-110826752D01*
X129118444Y-110805553D01*
X129079483Y-110790002D01*
X129027327Y-110779297D01*
X128957348Y-110772634D01*
X128864917Y-110769207D01*
X128745407Y-110768214D01*
X128479500Y-110768125D01*
X128479500Y-110641125D01*
X128778009Y-110641125D01*
X128809433Y-110641132D01*
G37*
X128809433Y-110641132D02*
X128906547Y-110641435D01*
X128978869Y-110642625D01*
X129031870Y-110645300D01*
X129071021Y-110650055D01*
X129101792Y-110657487D01*
X129129653Y-110668191D01*
X129160075Y-110682764D01*
X129187120Y-110697507D01*
X129262689Y-110758900D01*
X129311324Y-110837055D01*
X129333230Y-110932268D01*
X129334681Y-110960646D01*
X129329790Y-111018300D01*
X129311434Y-111078695D01*
X129276733Y-111153094D01*
X129277116Y-111159125D01*
X129295740Y-111165000D01*
X129304898Y-111166748D01*
X129317284Y-111185129D01*
X129320875Y-111228500D01*
X129320875Y-111292000D01*
X128479500Y-111292000D01*
X128479500Y-111165000D01*
X128757823Y-111165000D01*
X128847812Y-111164546D01*
X128943764Y-111162050D01*
X129016406Y-111156553D01*
X129070548Y-111147135D01*
X129110999Y-111132874D01*
X129142568Y-111112853D01*
X129170063Y-111086150D01*
X129179259Y-111073902D01*
X129199637Y-111019219D01*
X129203542Y-110953824D01*
X129191316Y-110890198D01*
X129163304Y-110840818D01*
X129148838Y-110826752D01*
X129118444Y-110805553D01*
X129079483Y-110790002D01*
X129027327Y-110779297D01*
X128957348Y-110772634D01*
X128864917Y-110769207D01*
X128745407Y-110768214D01*
X128479500Y-110768125D01*
X128479500Y-110641125D01*
X128778009Y-110641125D01*
X128809433Y-110641132D01*
G36*
X125613609Y-111784128D02*
G01*
X125628520Y-111792831D01*
X125666877Y-111817068D01*
X125725689Y-111854899D01*
X125801964Y-111904382D01*
X125892712Y-111963577D01*
X125994940Y-112030543D01*
X126105657Y-112103341D01*
X126106617Y-112103973D01*
X126217734Y-112176601D01*
X126320921Y-112242985D01*
X126413099Y-112301225D01*
X126491191Y-112349421D01*
X126552120Y-112385674D01*
X126592807Y-112408084D01*
X126610175Y-112414751D01*
X126614355Y-112412255D01*
X126640577Y-112393208D01*
X126687014Y-112357763D01*
X126750473Y-112308412D01*
X126827763Y-112247647D01*
X126915690Y-112177959D01*
X127011063Y-112101840D01*
X127392063Y-111796734D01*
X127396515Y-112007910D01*
X127396835Y-112024160D01*
X127397737Y-112102306D01*
X127397482Y-112168303D01*
X127396148Y-112215621D01*
X127393811Y-112237732D01*
X127383676Y-112248270D01*
X127351453Y-112276048D01*
X127300871Y-112317608D01*
X127235684Y-112370005D01*
X127159651Y-112430293D01*
X127076526Y-112495526D01*
X126990067Y-112562759D01*
X126904029Y-112629047D01*
X126822170Y-112691443D01*
X126748244Y-112747001D01*
X126686009Y-112792778D01*
X126599080Y-112855688D01*
X126999540Y-112859929D01*
X127400000Y-112864171D01*
X127400000Y-113228750D01*
X125606125Y-113228750D01*
X125606125Y-112863625D01*
X125864094Y-112862935D01*
X126122063Y-112862244D01*
X126224271Y-112769296D01*
X126326480Y-112676347D01*
X126136959Y-112554495D01*
X126056002Y-112502451D01*
X125957232Y-112438969D01*
X125859957Y-112376460D01*
X125776782Y-112323023D01*
X125606125Y-112213403D01*
X125606125Y-111998764D01*
X125606166Y-111976466D01*
X125606949Y-111900987D01*
X125608579Y-111839917D01*
X125610855Y-111799037D01*
X125613576Y-111784125D01*
X125613609Y-111784128D01*
G37*
X125613609Y-111784128D02*
X125628520Y-111792831D01*
X125666877Y-111817068D01*
X125725689Y-111854899D01*
X125801964Y-111904382D01*
X125892712Y-111963577D01*
X125994940Y-112030543D01*
X126105657Y-112103341D01*
X126106617Y-112103973D01*
X126217734Y-112176601D01*
X126320921Y-112242985D01*
X126413099Y-112301225D01*
X126491191Y-112349421D01*
X126552120Y-112385674D01*
X126592807Y-112408084D01*
X126610175Y-112414751D01*
X126614355Y-112412255D01*
X126640577Y-112393208D01*
X126687014Y-112357763D01*
X126750473Y-112308412D01*
X126827763Y-112247647D01*
X126915690Y-112177959D01*
X127011063Y-112101840D01*
X127392063Y-111796734D01*
X127396515Y-112007910D01*
X127396835Y-112024160D01*
X127397737Y-112102306D01*
X127397482Y-112168303D01*
X127396148Y-112215621D01*
X127393811Y-112237732D01*
X127383676Y-112248270D01*
X127351453Y-112276048D01*
X127300871Y-112317608D01*
X127235684Y-112370005D01*
X127159651Y-112430293D01*
X127076526Y-112495526D01*
X126990067Y-112562759D01*
X126904029Y-112629047D01*
X126822170Y-112691443D01*
X126748244Y-112747001D01*
X126686009Y-112792778D01*
X126599080Y-112855688D01*
X126999540Y-112859929D01*
X127400000Y-112864171D01*
X127400000Y-113228750D01*
X125606125Y-113228750D01*
X125606125Y-112863625D01*
X125864094Y-112862935D01*
X126122063Y-112862244D01*
X126224271Y-112769296D01*
X126326480Y-112676347D01*
X126136959Y-112554495D01*
X126056002Y-112502451D01*
X125957232Y-112438969D01*
X125859957Y-112376460D01*
X125776782Y-112323023D01*
X125606125Y-112213403D01*
X125606125Y-111998764D01*
X125606166Y-111976466D01*
X125606949Y-111900987D01*
X125608579Y-111839917D01*
X125610855Y-111799037D01*
X125613576Y-111784125D01*
X125613609Y-111784128D01*
G36*
X127971500Y-113482750D02*
G01*
X127971500Y-113355750D01*
X128273125Y-113355750D01*
X128279461Y-113355749D01*
X128372763Y-113355284D01*
X128453819Y-113354090D01*
X128517753Y-113352301D01*
X128559688Y-113350050D01*
X128574750Y-113347473D01*
X128573279Y-113342906D01*
X128559771Y-113317584D01*
X128536723Y-113280004D01*
X128499337Y-113208224D01*
X128470712Y-113101185D01*
X128470269Y-113059655D01*
X128593609Y-113059655D01*
X128606432Y-113121371D01*
X128609728Y-113131712D01*
X128653237Y-113217421D01*
X128716859Y-113284250D01*
X128795180Y-113328993D01*
X128882787Y-113348439D01*
X128974266Y-113339382D01*
X129036289Y-113316514D01*
X129112428Y-113264871D01*
X129166882Y-113197095D01*
X129198667Y-113118289D01*
X129206797Y-113033554D01*
X129190287Y-112947994D01*
X129148152Y-112866711D01*
X129079407Y-112794807D01*
X129027296Y-112762760D01*
X128945314Y-112739878D01*
X128859772Y-112741759D01*
X128776942Y-112766282D01*
X128703097Y-112811323D01*
X128644511Y-112874760D01*
X128607455Y-112954473D01*
X128596746Y-113000414D01*
X128593609Y-113059655D01*
X128470269Y-113059655D01*
X128469555Y-112992834D01*
X128494447Y-112888304D01*
X128543968Y-112792728D01*
X128616700Y-112711240D01*
X128711221Y-112648971D01*
X128733622Y-112639437D01*
X128815366Y-112618791D01*
X128907133Y-112611305D01*
X128996148Y-112617388D01*
X129069637Y-112637451D01*
X129100190Y-112652274D01*
X129194365Y-112718232D01*
X129266561Y-112802155D01*
X129314928Y-112899311D01*
X129337614Y-113004965D01*
X129332768Y-113114385D01*
X129298539Y-113222836D01*
X129281762Y-113256583D01*
X129259110Y-113295504D01*
X129243132Y-113315055D01*
X129242851Y-113315229D01*
X129225750Y-113334710D01*
X129237004Y-113349733D01*
X129273250Y-113355750D01*
X129283477Y-113355851D01*
X129308803Y-113360434D01*
X129318995Y-113378534D01*
X129320875Y-113419250D01*
X129320875Y-113482750D01*
X128882787Y-113482750D01*
X127971500Y-113482750D01*
G37*
X127971500Y-113482750D02*
X127971500Y-113355750D01*
X128273125Y-113355750D01*
X128279461Y-113355749D01*
X128372763Y-113355284D01*
X128453819Y-113354090D01*
X128517753Y-113352301D01*
X128559688Y-113350050D01*
X128574750Y-113347473D01*
X128573279Y-113342906D01*
X128559771Y-113317584D01*
X128536723Y-113280004D01*
X128499337Y-113208224D01*
X128470712Y-113101185D01*
X128470269Y-113059655D01*
X128593609Y-113059655D01*
X128606432Y-113121371D01*
X128609728Y-113131712D01*
X128653237Y-113217421D01*
X128716859Y-113284250D01*
X128795180Y-113328993D01*
X128882787Y-113348439D01*
X128974266Y-113339382D01*
X129036289Y-113316514D01*
X129112428Y-113264871D01*
X129166882Y-113197095D01*
X129198667Y-113118289D01*
X129206797Y-113033554D01*
X129190287Y-112947994D01*
X129148152Y-112866711D01*
X129079407Y-112794807D01*
X129027296Y-112762760D01*
X128945314Y-112739878D01*
X128859772Y-112741759D01*
X128776942Y-112766282D01*
X128703097Y-112811323D01*
X128644511Y-112874760D01*
X128607455Y-112954473D01*
X128596746Y-113000414D01*
X128593609Y-113059655D01*
X128470269Y-113059655D01*
X128469555Y-112992834D01*
X128494447Y-112888304D01*
X128543968Y-112792728D01*
X128616700Y-112711240D01*
X128711221Y-112648971D01*
X128733622Y-112639437D01*
X128815366Y-112618791D01*
X128907133Y-112611305D01*
X128996148Y-112617388D01*
X129069637Y-112637451D01*
X129100190Y-112652274D01*
X129194365Y-112718232D01*
X129266561Y-112802155D01*
X129314928Y-112899311D01*
X129337614Y-113004965D01*
X129332768Y-113114385D01*
X129298539Y-113222836D01*
X129281762Y-113256583D01*
X129259110Y-113295504D01*
X129243132Y-113315055D01*
X129242851Y-113315229D01*
X129225750Y-113334710D01*
X129237004Y-113349733D01*
X129273250Y-113355750D01*
X129283477Y-113355851D01*
X129308803Y-113360434D01*
X129318995Y-113378534D01*
X129320875Y-113419250D01*
X129320875Y-113482750D01*
X128882787Y-113482750D01*
X127971500Y-113482750D01*
G36*
X128903647Y-112402902D02*
G01*
X128811471Y-112395399D01*
X128703441Y-112361636D01*
X128612517Y-112301307D01*
X128539588Y-112215047D01*
X128485542Y-112103494D01*
X128468408Y-112028350D01*
X128467970Y-111925456D01*
X128490237Y-111822807D01*
X128512643Y-111775033D01*
X128558011Y-111709457D01*
X128614651Y-111646928D01*
X128674509Y-111596103D01*
X128729532Y-111565637D01*
X128781125Y-111547652D01*
X128781125Y-111616696D01*
X128781083Y-111625313D01*
X128776969Y-111667556D01*
X128760720Y-111694178D01*
X128724696Y-111719034D01*
X128715912Y-111724621D01*
X128663495Y-111776350D01*
X128622971Y-111846987D01*
X128599111Y-111925961D01*
X128596686Y-112002699D01*
X128599334Y-112018670D01*
X128614527Y-112075978D01*
X128634333Y-112122376D01*
X128653410Y-112150087D01*
X128705586Y-112203663D01*
X128766440Y-112246537D01*
X128824549Y-112269854D01*
X128875781Y-112280100D01*
X128879289Y-111975033D01*
X129003375Y-111975033D01*
X129003375Y-112261191D01*
X129047032Y-112238479D01*
X129061220Y-112230584D01*
X129131729Y-112171763D01*
X129180174Y-112095744D01*
X129204528Y-112009103D01*
X129202762Y-111918422D01*
X129172849Y-111830279D01*
X129167424Y-111820645D01*
X129133416Y-111774456D01*
X129091375Y-111732005D01*
X129049729Y-111700931D01*
X129016903Y-111688875D01*
X129012858Y-111702020D01*
X129009064Y-111742171D01*
X129006062Y-111804394D01*
X129004086Y-111883683D01*
X129003375Y-111975033D01*
X128879289Y-111975033D01*
X128880047Y-111909082D01*
X128884313Y-111538063D01*
X128951140Y-111541005D01*
X128957894Y-111541365D01*
X129058741Y-111562308D01*
X129148062Y-111608785D01*
X129223252Y-111676106D01*
X129281702Y-111759584D01*
X129320809Y-111854531D01*
X129337964Y-111956258D01*
X129330561Y-112060077D01*
X129295995Y-112161301D01*
X129284662Y-112182786D01*
X129215282Y-112277221D01*
X129127528Y-112346078D01*
X129023087Y-112388318D01*
X129003375Y-112390725D01*
X128903647Y-112402902D01*
G37*
X128903647Y-112402902D02*
X128811471Y-112395399D01*
X128703441Y-112361636D01*
X128612517Y-112301307D01*
X128539588Y-112215047D01*
X128485542Y-112103494D01*
X128468408Y-112028350D01*
X128467970Y-111925456D01*
X128490237Y-111822807D01*
X128512643Y-111775033D01*
X128558011Y-111709457D01*
X128614651Y-111646928D01*
X128674509Y-111596103D01*
X128729532Y-111565637D01*
X128781125Y-111547652D01*
X128781125Y-111616696D01*
X128781083Y-111625313D01*
X128776969Y-111667556D01*
X128760720Y-111694178D01*
X128724696Y-111719034D01*
X128715912Y-111724621D01*
X128663495Y-111776350D01*
X128622971Y-111846987D01*
X128599111Y-111925961D01*
X128596686Y-112002699D01*
X128599334Y-112018670D01*
X128614527Y-112075978D01*
X128634333Y-112122376D01*
X128653410Y-112150087D01*
X128705586Y-112203663D01*
X128766440Y-112246537D01*
X128824549Y-112269854D01*
X128875781Y-112280100D01*
X128879289Y-111975033D01*
X129003375Y-111975033D01*
X129003375Y-112261191D01*
X129047032Y-112238479D01*
X129061220Y-112230584D01*
X129131729Y-112171763D01*
X129180174Y-112095744D01*
X129204528Y-112009103D01*
X129202762Y-111918422D01*
X129172849Y-111830279D01*
X129167424Y-111820645D01*
X129133416Y-111774456D01*
X129091375Y-111732005D01*
X129049729Y-111700931D01*
X129016903Y-111688875D01*
X129012858Y-111702020D01*
X129009064Y-111742171D01*
X129006062Y-111804394D01*
X129004086Y-111883683D01*
X129003375Y-111975033D01*
X128879289Y-111975033D01*
X128880047Y-111909082D01*
X128884313Y-111538063D01*
X128951140Y-111541005D01*
X128957894Y-111541365D01*
X129058741Y-111562308D01*
X129148062Y-111608785D01*
X129223252Y-111676106D01*
X129281702Y-111759584D01*
X129320809Y-111854531D01*
X129337964Y-111956258D01*
X129330561Y-112060077D01*
X129295995Y-112161301D01*
X129284662Y-112182786D01*
X129215282Y-112277221D01*
X129127528Y-112346078D01*
X129023087Y-112388318D01*
X129003375Y-112390725D01*
X128903647Y-112402902D01*
G36*
X129040859Y-115043867D02*
G01*
X128913738Y-115013911D01*
X128794228Y-114959223D01*
X128686777Y-114882768D01*
X128595835Y-114787510D01*
X128525854Y-114676414D01*
X128481283Y-114552444D01*
X128472342Y-114507630D01*
X128465535Y-114388797D01*
X128604393Y-114388797D01*
X128607813Y-114475097D01*
X128622143Y-114542965D01*
X128668551Y-114650313D01*
X128739137Y-114745993D01*
X128829232Y-114824223D01*
X128934167Y-114879221D01*
X129035268Y-114906134D01*
X129152041Y-114911084D01*
X129262835Y-114889698D01*
X129364517Y-114844908D01*
X129453952Y-114779647D01*
X129528008Y-114696847D01*
X129583549Y-114599441D01*
X129617441Y-114490362D01*
X129626552Y-114372542D01*
X129607747Y-114248914D01*
X129589735Y-114197203D01*
X129533155Y-114100606D01*
X129453187Y-114015659D01*
X129355224Y-113947525D01*
X129244658Y-113901366D01*
X129134362Y-113883787D01*
X129018301Y-113893701D01*
X128906550Y-113930202D01*
X128804260Y-113990922D01*
X128716579Y-114073490D01*
X128648658Y-114175539D01*
X128632418Y-114215820D01*
X128613211Y-114297848D01*
X128604393Y-114388797D01*
X128465535Y-114388797D01*
X128464318Y-114367544D01*
X128485492Y-114232404D01*
X128534006Y-114106165D01*
X128608000Y-113992788D01*
X128705616Y-113896230D01*
X128824995Y-113820449D01*
X128848162Y-113809067D01*
X128898227Y-113786062D01*
X128939844Y-113771788D01*
X128983063Y-113764166D01*
X129037933Y-113761117D01*
X129114501Y-113760563D01*
X129146593Y-113760611D01*
X129213789Y-113761863D01*
X129263080Y-113766394D01*
X129304514Y-113776283D01*
X129348139Y-113793609D01*
X129404006Y-113820449D01*
X129516613Y-113889948D01*
X129611870Y-113979301D01*
X129683385Y-114081595D01*
X129731708Y-114193302D01*
X129757388Y-114310896D01*
X129760976Y-114430849D01*
X129743022Y-114549636D01*
X129704075Y-114663729D01*
X129644687Y-114769602D01*
X129565408Y-114863727D01*
X129466786Y-114942578D01*
X129349373Y-115002628D01*
X129213719Y-115040350D01*
X129171138Y-115046127D01*
X129152041Y-115045795D01*
X129040859Y-115043867D01*
G37*
X129040859Y-115043867D02*
X128913738Y-115013911D01*
X128794228Y-114959223D01*
X128686777Y-114882768D01*
X128595835Y-114787510D01*
X128525854Y-114676414D01*
X128481283Y-114552444D01*
X128472342Y-114507630D01*
X128465535Y-114388797D01*
X128604393Y-114388797D01*
X128607813Y-114475097D01*
X128622143Y-114542965D01*
X128668551Y-114650313D01*
X128739137Y-114745993D01*
X128829232Y-114824223D01*
X128934167Y-114879221D01*
X129035268Y-114906134D01*
X129152041Y-114911084D01*
X129262835Y-114889698D01*
X129364517Y-114844908D01*
X129453952Y-114779647D01*
X129528008Y-114696847D01*
X129583549Y-114599441D01*
X129617441Y-114490362D01*
X129626552Y-114372542D01*
X129607747Y-114248914D01*
X129589735Y-114197203D01*
X129533155Y-114100606D01*
X129453187Y-114015659D01*
X129355224Y-113947525D01*
X129244658Y-113901366D01*
X129134362Y-113883787D01*
X129018301Y-113893701D01*
X128906550Y-113930202D01*
X128804260Y-113990922D01*
X128716579Y-114073490D01*
X128648658Y-114175539D01*
X128632418Y-114215820D01*
X128613211Y-114297848D01*
X128604393Y-114388797D01*
X128465535Y-114388797D01*
X128464318Y-114367544D01*
X128485492Y-114232404D01*
X128534006Y-114106165D01*
X128608000Y-113992788D01*
X128705616Y-113896230D01*
X128824995Y-113820449D01*
X128848162Y-113809067D01*
X128898227Y-113786062D01*
X128939844Y-113771788D01*
X128983063Y-113764166D01*
X129037933Y-113761117D01*
X129114501Y-113760563D01*
X129146593Y-113760611D01*
X129213789Y-113761863D01*
X129263080Y-113766394D01*
X129304514Y-113776283D01*
X129348139Y-113793609D01*
X129404006Y-113820449D01*
X129516613Y-113889948D01*
X129611870Y-113979301D01*
X129683385Y-114081595D01*
X129731708Y-114193302D01*
X129757388Y-114310896D01*
X129760976Y-114430849D01*
X129743022Y-114549636D01*
X129704075Y-114663729D01*
X129644687Y-114769602D01*
X129565408Y-114863727D01*
X129466786Y-114942578D01*
X129349373Y-115002628D01*
X129213719Y-115040350D01*
X129171138Y-115046127D01*
X129152041Y-115045795D01*
X129040859Y-115043867D01*
G36*
X127888951Y-108437676D02*
G01*
X127892050Y-108443168D01*
X127897276Y-108468059D01*
X127901362Y-108513452D01*
X127904393Y-108581595D01*
X127906453Y-108674737D01*
X127907628Y-108795125D01*
X127908000Y-108945008D01*
X127908000Y-109433290D01*
X128031032Y-109437926D01*
X128054113Y-109438857D01*
X128107511Y-109442324D01*
X128137671Y-109448118D01*
X128151039Y-109458146D01*
X128154063Y-109474313D01*
X128153827Y-109480278D01*
X128148191Y-109494271D01*
X128130143Y-109502734D01*
X128093239Y-109507575D01*
X128031032Y-109510700D01*
X127908000Y-109515336D01*
X127908000Y-112226118D01*
X127907983Y-112448944D01*
X127907872Y-112791608D01*
X127907654Y-113104302D01*
X127907320Y-113388136D01*
X127906863Y-113644217D01*
X127906275Y-113873654D01*
X127905548Y-114077555D01*
X127904675Y-114257029D01*
X127903648Y-114413184D01*
X127902459Y-114547128D01*
X127901100Y-114659970D01*
X127899563Y-114752819D01*
X127897842Y-114826782D01*
X127895928Y-114882969D01*
X127893813Y-114922486D01*
X127891490Y-114946444D01*
X127888950Y-114955951D01*
X127857807Y-114971950D01*
X127816056Y-114972081D01*
X127783341Y-114954008D01*
X127781018Y-114949583D01*
X127774279Y-114915928D01*
X127768621Y-114854932D01*
X127764295Y-114769939D01*
X127761553Y-114664289D01*
X127757188Y-114395563D01*
X127617261Y-114390961D01*
X127554298Y-114388528D01*
X127511745Y-114384969D01*
X127489512Y-114378735D01*
X127481678Y-114368084D01*
X127482323Y-114351274D01*
X127485406Y-114337761D01*
X127495354Y-114325696D01*
X127517879Y-114318489D01*
X127559371Y-114314378D01*
X127626219Y-114311601D01*
X127765125Y-114307014D01*
X127765125Y-111381870D01*
X127765129Y-111277047D01*
X127765199Y-110909634D01*
X127765366Y-110572613D01*
X127765636Y-110264915D01*
X127766017Y-109985472D01*
X127766516Y-109733215D01*
X127767138Y-109507075D01*
X127767893Y-109305985D01*
X127768785Y-109128874D01*
X127769822Y-108974676D01*
X127771012Y-108842320D01*
X127772360Y-108730740D01*
X127773874Y-108638864D01*
X127775561Y-108565627D01*
X127777428Y-108509957D01*
X127779481Y-108470788D01*
X127781728Y-108447050D01*
X127784175Y-108437676D01*
X127809658Y-108423186D01*
X127852684Y-108420652D01*
X127888951Y-108437676D01*
G37*
X127888951Y-108437676D02*
X127892050Y-108443168D01*
X127897276Y-108468059D01*
X127901362Y-108513452D01*
X127904393Y-108581595D01*
X127906453Y-108674737D01*
X127907628Y-108795125D01*
X127908000Y-108945008D01*
X127908000Y-109433290D01*
X128031032Y-109437926D01*
X128054113Y-109438857D01*
X128107511Y-109442324D01*
X128137671Y-109448118D01*
X128151039Y-109458146D01*
X128154063Y-109474313D01*
X128153827Y-109480278D01*
X128148191Y-109494271D01*
X128130143Y-109502734D01*
X128093239Y-109507575D01*
X128031032Y-109510700D01*
X127908000Y-109515336D01*
X127908000Y-112226118D01*
X127907983Y-112448944D01*
X127907872Y-112791608D01*
X127907654Y-113104302D01*
X127907320Y-113388136D01*
X127906863Y-113644217D01*
X127906275Y-113873654D01*
X127905548Y-114077555D01*
X127904675Y-114257029D01*
X127903648Y-114413184D01*
X127902459Y-114547128D01*
X127901100Y-114659970D01*
X127899563Y-114752819D01*
X127897842Y-114826782D01*
X127895928Y-114882969D01*
X127893813Y-114922486D01*
X127891490Y-114946444D01*
X127888950Y-114955951D01*
X127857807Y-114971950D01*
X127816056Y-114972081D01*
X127783341Y-114954008D01*
X127781018Y-114949583D01*
X127774279Y-114915928D01*
X127768621Y-114854932D01*
X127764295Y-114769939D01*
X127761553Y-114664289D01*
X127757188Y-114395563D01*
X127617261Y-114390961D01*
X127554298Y-114388528D01*
X127511745Y-114384969D01*
X127489512Y-114378735D01*
X127481678Y-114368084D01*
X127482323Y-114351274D01*
X127485406Y-114337761D01*
X127495354Y-114325696D01*
X127517879Y-114318489D01*
X127559371Y-114314378D01*
X127626219Y-114311601D01*
X127765125Y-114307014D01*
X127765125Y-111381870D01*
X127765129Y-111277047D01*
X127765199Y-110909634D01*
X127765366Y-110572613D01*
X127765636Y-110264915D01*
X127766017Y-109985472D01*
X127766516Y-109733215D01*
X127767138Y-109507075D01*
X127767893Y-109305985D01*
X127768785Y-109128874D01*
X127769822Y-108974676D01*
X127771012Y-108842320D01*
X127772360Y-108730740D01*
X127773874Y-108638864D01*
X127775561Y-108565627D01*
X127777428Y-108509957D01*
X127779481Y-108470788D01*
X127781728Y-108447050D01*
X127784175Y-108437676D01*
X127809658Y-108423186D01*
X127852684Y-108420652D01*
X127888951Y-108437676D01*
G36*
X125615308Y-108451642D02*
G01*
X125639971Y-108465340D01*
X125687199Y-108492505D01*
X125753611Y-108531164D01*
X125835828Y-108579345D01*
X125930469Y-108635076D01*
X126034153Y-108696385D01*
X126071956Y-108718774D01*
X126174864Y-108779645D01*
X126268775Y-108835083D01*
X126350026Y-108882934D01*
X126414957Y-108921045D01*
X126459906Y-108947260D01*
X126481213Y-108959426D01*
X126482906Y-108960242D01*
X126496107Y-108962233D01*
X126516374Y-108958057D01*
X126546577Y-108946248D01*
X126589590Y-108925339D01*
X126648282Y-108893861D01*
X126725525Y-108850350D01*
X126824190Y-108793336D01*
X126947148Y-108721353D01*
X127004566Y-108687663D01*
X127106660Y-108628021D01*
X127198146Y-108574911D01*
X127275678Y-108530256D01*
X127335910Y-108495979D01*
X127375497Y-108474003D01*
X127391092Y-108466250D01*
X127391909Y-108467002D01*
X127394987Y-108488064D01*
X127396878Y-108533729D01*
X127397430Y-108598146D01*
X127396493Y-108675466D01*
X127392063Y-108884681D01*
X127085603Y-109050560D01*
X126779144Y-109216439D01*
X127089518Y-109385064D01*
X127399893Y-109553688D01*
X127399947Y-109765540D01*
X127400000Y-109977392D01*
X127324594Y-109933679D01*
X127298276Y-109918343D01*
X127245007Y-109887170D01*
X127172819Y-109844845D01*
X127086350Y-109794089D01*
X126990238Y-109737624D01*
X126889121Y-109678170D01*
X126798143Y-109625014D01*
X126708822Y-109573579D01*
X126631552Y-109529870D01*
X126570140Y-109496014D01*
X126528395Y-109474140D01*
X126510125Y-109466375D01*
X126506304Y-109467738D01*
X126479504Y-109481481D01*
X126431083Y-109508133D01*
X126365057Y-109545359D01*
X126285444Y-109590825D01*
X126196259Y-109642197D01*
X126101521Y-109697142D01*
X126005244Y-109753326D01*
X125911447Y-109808415D01*
X125824145Y-109860075D01*
X125747356Y-109905972D01*
X125685096Y-109943772D01*
X125641382Y-109971142D01*
X125605202Y-109994507D01*
X125609632Y-109776226D01*
X125614063Y-109557945D01*
X125919957Y-109389135D01*
X126007409Y-109340448D01*
X126090876Y-109292574D01*
X126150061Y-109256478D01*
X126187180Y-109230717D01*
X126204450Y-109213853D01*
X126204085Y-109204445D01*
X126201654Y-109202816D01*
X126175623Y-109187353D01*
X126127340Y-109159815D01*
X126061330Y-109122745D01*
X125982116Y-109078687D01*
X125894222Y-109030186D01*
X125606125Y-108871808D01*
X125606125Y-108661092D01*
X125606151Y-108642146D01*
X125606803Y-108566997D01*
X125608200Y-108506096D01*
X125610165Y-108465278D01*
X125612521Y-108450375D01*
X125615308Y-108451642D01*
G37*
X125615308Y-108451642D02*
X125639971Y-108465340D01*
X125687199Y-108492505D01*
X125753611Y-108531164D01*
X125835828Y-108579345D01*
X125930469Y-108635076D01*
X126034153Y-108696385D01*
X126071956Y-108718774D01*
X126174864Y-108779645D01*
X126268775Y-108835083D01*
X126350026Y-108882934D01*
X126414957Y-108921045D01*
X126459906Y-108947260D01*
X126481213Y-108959426D01*
X126482906Y-108960242D01*
X126496107Y-108962233D01*
X126516374Y-108958057D01*
X126546577Y-108946248D01*
X126589590Y-108925339D01*
X126648282Y-108893861D01*
X126725525Y-108850350D01*
X126824190Y-108793336D01*
X126947148Y-108721353D01*
X127004566Y-108687663D01*
X127106660Y-108628021D01*
X127198146Y-108574911D01*
X127275678Y-108530256D01*
X127335910Y-108495979D01*
X127375497Y-108474003D01*
X127391092Y-108466250D01*
X127391909Y-108467002D01*
X127394987Y-108488064D01*
X127396878Y-108533729D01*
X127397430Y-108598146D01*
X127396493Y-108675466D01*
X127392063Y-108884681D01*
X127085603Y-109050560D01*
X126779144Y-109216439D01*
X127089518Y-109385064D01*
X127399893Y-109553688D01*
X127399947Y-109765540D01*
X127400000Y-109977392D01*
X127324594Y-109933679D01*
X127298276Y-109918343D01*
X127245007Y-109887170D01*
X127172819Y-109844845D01*
X127086350Y-109794089D01*
X126990238Y-109737624D01*
X126889121Y-109678170D01*
X126798143Y-109625014D01*
X126708822Y-109573579D01*
X126631552Y-109529870D01*
X126570140Y-109496014D01*
X126528395Y-109474140D01*
X126510125Y-109466375D01*
X126506304Y-109467738D01*
X126479504Y-109481481D01*
X126431083Y-109508133D01*
X126365057Y-109545359D01*
X126285444Y-109590825D01*
X126196259Y-109642197D01*
X126101521Y-109697142D01*
X126005244Y-109753326D01*
X125911447Y-109808415D01*
X125824145Y-109860075D01*
X125747356Y-109905972D01*
X125685096Y-109943772D01*
X125641382Y-109971142D01*
X125605202Y-109994507D01*
X125609632Y-109776226D01*
X125614063Y-109557945D01*
X125919957Y-109389135D01*
X126007409Y-109340448D01*
X126090876Y-109292574D01*
X126150061Y-109256478D01*
X126187180Y-109230717D01*
X126204450Y-109213853D01*
X126204085Y-109204445D01*
X126201654Y-109202816D01*
X126175623Y-109187353D01*
X126127340Y-109159815D01*
X126061330Y-109122745D01*
X125982116Y-109078687D01*
X125894222Y-109030186D01*
X125606125Y-108871808D01*
X125606125Y-108661092D01*
X125606151Y-108642146D01*
X125606803Y-108566997D01*
X125608200Y-108506096D01*
X125610165Y-108465278D01*
X125612521Y-108450375D01*
X125615308Y-108451642D01*
G36*
X129360482Y-108673755D02*
G01*
X129392959Y-108689900D01*
X129410725Y-108728277D01*
X129416125Y-108792834D01*
X129416125Y-108874943D01*
X129476576Y-108884609D01*
X129536974Y-108906053D01*
X129588190Y-108952929D01*
X129616303Y-109018670D01*
X129617022Y-109022246D01*
X129624391Y-109049288D01*
X129638018Y-109063347D01*
X129666401Y-109068670D01*
X129718036Y-109069500D01*
X129771382Y-109071831D01*
X129807630Y-109082832D01*
X129824641Y-109107203D01*
X129828875Y-109149615D01*
X129828745Y-109153268D01*
X129811534Y-109185633D01*
X129766441Y-109205572D01*
X129694982Y-109212375D01*
X129674001Y-109212553D01*
X129639754Y-109216076D01*
X129625405Y-109227703D01*
X129622500Y-109252063D01*
X129623637Y-109270455D01*
X129632745Y-109284772D01*
X129657777Y-109290627D01*
X129706638Y-109291750D01*
X129736612Y-109292576D01*
X129790571Y-109302376D01*
X129819975Y-109325124D01*
X129828876Y-109363188D01*
X129827463Y-109380706D01*
X129810694Y-109412240D01*
X129771769Y-109429424D01*
X129706638Y-109434625D01*
X129667648Y-109435161D01*
X129637296Y-109439458D01*
X129624882Y-109451265D01*
X129622500Y-109474313D01*
X129622824Y-109485801D01*
X129629259Y-109504553D01*
X129650493Y-109512410D01*
X129694982Y-109514000D01*
X129712037Y-109514277D01*
X129777851Y-109523677D01*
X129816346Y-109546967D01*
X129828875Y-109584863D01*
X129828310Y-109596715D01*
X129811110Y-109639526D01*
X129769003Y-109664587D01*
X129700742Y-109672750D01*
X129684207Y-109672863D01*
X129644698Y-109675864D01*
X129626743Y-109685350D01*
X129622500Y-109704500D01*
X129622550Y-109707539D01*
X129628479Y-109725839D01*
X129649942Y-109734235D01*
X129694982Y-109736250D01*
X129712037Y-109736527D01*
X129777851Y-109745927D01*
X129816346Y-109769217D01*
X129828875Y-109807113D01*
X129828515Y-109816580D01*
X129812046Y-109860558D01*
X129770411Y-109886492D01*
X129702726Y-109895000D01*
X129672793Y-109895369D01*
X129640495Y-109899954D01*
X129625003Y-109914098D01*
X129616848Y-109943104D01*
X129611225Y-109963041D01*
X129577991Y-110016903D01*
X129527587Y-110055107D01*
X129469370Y-110069625D01*
X129416125Y-110069625D01*
X129416125Y-110165387D01*
X129415528Y-110206205D01*
X129411263Y-110243404D01*
X129400482Y-110263317D01*
X129380407Y-110274426D01*
X129379378Y-110274806D01*
X129331195Y-110283434D01*
X129298396Y-110267038D01*
X129279617Y-110224066D01*
X129273494Y-110152969D01*
X129272877Y-110115291D01*
X129268539Y-110084629D01*
X129256702Y-110072053D01*
X129233563Y-110069625D01*
X129213899Y-110071020D01*
X129200406Y-110080775D01*
X129194916Y-110106697D01*
X129193875Y-110156572D01*
X129193686Y-110177382D01*
X129189812Y-110222105D01*
X129178194Y-110249118D01*
X129155253Y-110268825D01*
X129153784Y-110269780D01*
X129117487Y-110285175D01*
X129084603Y-110276992D01*
X129082901Y-110276052D01*
X129063950Y-110257821D01*
X129053215Y-110224860D01*
X129047820Y-110168708D01*
X129045450Y-110132656D01*
X129039487Y-110096419D01*
X129027897Y-110079007D01*
X129007344Y-110072490D01*
X128990007Y-110071493D01*
X128977722Y-110079785D01*
X128972632Y-110105370D01*
X128971625Y-110155468D01*
X128971398Y-110178442D01*
X128967435Y-110222613D01*
X128955807Y-110249305D01*
X128933003Y-110268825D01*
X128931534Y-110269780D01*
X128895237Y-110285175D01*
X128862353Y-110276992D01*
X128860651Y-110276052D01*
X128841700Y-110257821D01*
X128830965Y-110224860D01*
X128825570Y-110168708D01*
X128823200Y-110132656D01*
X128817237Y-110096419D01*
X128805647Y-110079007D01*
X128785094Y-110072490D01*
X128770927Y-110071284D01*
X128756595Y-110077546D01*
X128750591Y-110100593D01*
X128749375Y-110147896D01*
X128747072Y-110181978D01*
X128731471Y-110238278D01*
X128704470Y-110277288D01*
X128670000Y-110291875D01*
X128651344Y-110287720D01*
X128620313Y-110259517D01*
X128598723Y-110210846D01*
X128590625Y-110149000D01*
X128588951Y-110105633D01*
X128581480Y-110077593D01*
X128566254Y-110069625D01*
X128559552Y-110069286D01*
X128513567Y-110051026D01*
X128472584Y-110010791D01*
X128445350Y-109956748D01*
X128437104Y-109930876D01*
X128423026Y-109906115D01*
X128398756Y-109896572D01*
X128353520Y-109895000D01*
X128335516Y-109894336D01*
X128282973Y-109885745D01*
X128244908Y-109870288D01*
X128219626Y-109845417D01*
X128212047Y-109807311D01*
X128235898Y-109765282D01*
X128248902Y-109754094D01*
X128286659Y-109740352D01*
X128347023Y-109736250D01*
X128386153Y-109735712D01*
X128416796Y-109731461D01*
X128429416Y-109719867D01*
X128431875Y-109697321D01*
X128431875Y-109696568D01*
X128429400Y-109675351D01*
X128417209Y-109663318D01*
X128387959Y-109657185D01*
X128334307Y-109653664D01*
X128330374Y-109653464D01*
X128262622Y-109644943D01*
X128223443Y-109626963D01*
X128210649Y-109597597D01*
X128222050Y-109554921D01*
X128232951Y-109535111D01*
X128250765Y-109521222D01*
X128282193Y-109515265D01*
X128336285Y-109514000D01*
X128340221Y-109513999D01*
X128391484Y-109513032D01*
X128418885Y-109508155D01*
X128429868Y-109496279D01*
X128431875Y-109474313D01*
X128430554Y-109454985D01*
X128420976Y-109441274D01*
X128395296Y-109435688D01*
X128345697Y-109434625D01*
X128333762Y-109434470D01*
X128264789Y-109424425D01*
X128223414Y-109398702D01*
X128209625Y-109357292D01*
X128211304Y-109340882D01*
X128229721Y-109312378D01*
X128271353Y-109296605D01*
X128339800Y-109291750D01*
X128390147Y-109290920D01*
X128418381Y-109286206D01*
X128429765Y-109274343D01*
X128431875Y-109252063D01*
X128430554Y-109232735D01*
X128420976Y-109219024D01*
X128395296Y-109213438D01*
X128345697Y-109212375D01*
X128333762Y-109212220D01*
X128264789Y-109202175D01*
X128223414Y-109176452D01*
X128209625Y-109135042D01*
X128211029Y-109119934D01*
X128228886Y-109090723D01*
X128270053Y-109074508D01*
X128338034Y-109069500D01*
X128344895Y-109069499D01*
X128393145Y-109068416D01*
X128419101Y-109062228D01*
X128431302Y-109046421D01*
X128438289Y-109016477D01*
X128453686Y-108973369D01*
X128496388Y-108920431D01*
X128554907Y-108887693D01*
X128555026Y-108887657D01*
X128577606Y-108875656D01*
X128588071Y-108851480D01*
X128590625Y-108805450D01*
X128590681Y-108797875D01*
X128599036Y-108728082D01*
X128621657Y-108686484D01*
X128658653Y-108672869D01*
X128686282Y-108675352D01*
X128717972Y-108691659D01*
X128736462Y-108728071D01*
X128745945Y-108790227D01*
X128749738Y-108829126D01*
X128756752Y-108861910D01*
X128769227Y-108875997D01*
X128791029Y-108879000D01*
X128807398Y-108877938D01*
X128821613Y-108868855D01*
X128827554Y-108843787D01*
X128828750Y-108794863D01*
X128829576Y-108764889D01*
X128839376Y-108710930D01*
X128862124Y-108681526D01*
X128900188Y-108672625D01*
X128917706Y-108674038D01*
X128949240Y-108690807D01*
X128966424Y-108729732D01*
X128971625Y-108794863D01*
X128972161Y-108833853D01*
X128976458Y-108864205D01*
X128988265Y-108876619D01*
X129011313Y-108879000D01*
X129029705Y-108877864D01*
X129044022Y-108868756D01*
X129049877Y-108843724D01*
X129051000Y-108794863D01*
X129052069Y-108760905D01*
X129062393Y-108708958D01*
X129085842Y-108680983D01*
X129125054Y-108672625D01*
X129130942Y-108672869D01*
X129166140Y-108689888D01*
X129187000Y-108734210D01*
X129193875Y-108806519D01*
X129194053Y-108827500D01*
X129197576Y-108861747D01*
X129209203Y-108876096D01*
X129233563Y-108879000D01*
X129251955Y-108877864D01*
X129266272Y-108868756D01*
X129272127Y-108843724D01*
X129273250Y-108794863D01*
X129274076Y-108764889D01*
X129283876Y-108710930D01*
X129306624Y-108681526D01*
X129344688Y-108672625D01*
X129360482Y-108673755D01*
G37*
X129360482Y-108673755D02*
X129392959Y-108689900D01*
X129410725Y-108728277D01*
X129416125Y-108792834D01*
X129416125Y-108874943D01*
X129476576Y-108884609D01*
X129536974Y-108906053D01*
X129588190Y-108952929D01*
X129616303Y-109018670D01*
X129617022Y-109022246D01*
X129624391Y-109049288D01*
X129638018Y-109063347D01*
X129666401Y-109068670D01*
X129718036Y-109069500D01*
X129771382Y-109071831D01*
X129807630Y-109082832D01*
X129824641Y-109107203D01*
X129828875Y-109149615D01*
X129828745Y-109153268D01*
X129811534Y-109185633D01*
X129766441Y-109205572D01*
X129694982Y-109212375D01*
X129674001Y-109212553D01*
X129639754Y-109216076D01*
X129625405Y-109227703D01*
X129622500Y-109252063D01*
X129623637Y-109270455D01*
X129632745Y-109284772D01*
X129657777Y-109290627D01*
X129706638Y-109291750D01*
X129736612Y-109292576D01*
X129790571Y-109302376D01*
X129819975Y-109325124D01*
X129828876Y-109363188D01*
X129827463Y-109380706D01*
X129810694Y-109412240D01*
X129771769Y-109429424D01*
X129706638Y-109434625D01*
X129667648Y-109435161D01*
X129637296Y-109439458D01*
X129624882Y-109451265D01*
X129622500Y-109474313D01*
X129622824Y-109485801D01*
X129629259Y-109504553D01*
X129650493Y-109512410D01*
X129694982Y-109514000D01*
X129712037Y-109514277D01*
X129777851Y-109523677D01*
X129816346Y-109546967D01*
X129828875Y-109584863D01*
X129828310Y-109596715D01*
X129811110Y-109639526D01*
X129769003Y-109664587D01*
X129700742Y-109672750D01*
X129684207Y-109672863D01*
X129644698Y-109675864D01*
X129626743Y-109685350D01*
X129622500Y-109704500D01*
X129622550Y-109707539D01*
X129628479Y-109725839D01*
X129649942Y-109734235D01*
X129694982Y-109736250D01*
X129712037Y-109736527D01*
X129777851Y-109745927D01*
X129816346Y-109769217D01*
X129828875Y-109807113D01*
X129828515Y-109816580D01*
X129812046Y-109860558D01*
X129770411Y-109886492D01*
X129702726Y-109895000D01*
X129672793Y-109895369D01*
X129640495Y-109899954D01*
X129625003Y-109914098D01*
X129616848Y-109943104D01*
X129611225Y-109963041D01*
X129577991Y-110016903D01*
X129527587Y-110055107D01*
X129469370Y-110069625D01*
X129416125Y-110069625D01*
X129416125Y-110165387D01*
X129415528Y-110206205D01*
X129411263Y-110243404D01*
X129400482Y-110263317D01*
X129380407Y-110274426D01*
X129379378Y-110274806D01*
X129331195Y-110283434D01*
X129298396Y-110267038D01*
X129279617Y-110224066D01*
X129273494Y-110152969D01*
X129272877Y-110115291D01*
X129268539Y-110084629D01*
X129256702Y-110072053D01*
X129233563Y-110069625D01*
X129213899Y-110071020D01*
X129200406Y-110080775D01*
X129194916Y-110106697D01*
X129193875Y-110156572D01*
X129193686Y-110177382D01*
X129189812Y-110222105D01*
X129178194Y-110249118D01*
X129155253Y-110268825D01*
X129153784Y-110269780D01*
X129117487Y-110285175D01*
X129084603Y-110276992D01*
X129082901Y-110276052D01*
X129063950Y-110257821D01*
X129053215Y-110224860D01*
X129047820Y-110168708D01*
X129045450Y-110132656D01*
X129039487Y-110096419D01*
X129027897Y-110079007D01*
X129007344Y-110072490D01*
X128990007Y-110071493D01*
X128977722Y-110079785D01*
X128972632Y-110105370D01*
X128971625Y-110155468D01*
X128971398Y-110178442D01*
X128967435Y-110222613D01*
X128955807Y-110249305D01*
X128933003Y-110268825D01*
X128931534Y-110269780D01*
X128895237Y-110285175D01*
X128862353Y-110276992D01*
X128860651Y-110276052D01*
X128841700Y-110257821D01*
X128830965Y-110224860D01*
X128825570Y-110168708D01*
X128823200Y-110132656D01*
X128817237Y-110096419D01*
X128805647Y-110079007D01*
X128785094Y-110072490D01*
X128770927Y-110071284D01*
X128756595Y-110077546D01*
X128750591Y-110100593D01*
X128749375Y-110147896D01*
X128747072Y-110181978D01*
X128731471Y-110238278D01*
X128704470Y-110277288D01*
X128670000Y-110291875D01*
X128651344Y-110287720D01*
X128620313Y-110259517D01*
X128598723Y-110210846D01*
X128590625Y-110149000D01*
X128588951Y-110105633D01*
X128581480Y-110077593D01*
X128566254Y-110069625D01*
X128559552Y-110069286D01*
X128513567Y-110051026D01*
X128472584Y-110010791D01*
X128445350Y-109956748D01*
X128437104Y-109930876D01*
X128423026Y-109906115D01*
X128398756Y-109896572D01*
X128353520Y-109895000D01*
X128335516Y-109894336D01*
X128282973Y-109885745D01*
X128244908Y-109870288D01*
X128219626Y-109845417D01*
X128212047Y-109807311D01*
X128235898Y-109765282D01*
X128248902Y-109754094D01*
X128286659Y-109740352D01*
X128347023Y-109736250D01*
X128386153Y-109735712D01*
X128416796Y-109731461D01*
X128429416Y-109719867D01*
X128431875Y-109697321D01*
X128431875Y-109696568D01*
X128429400Y-109675351D01*
X128417209Y-109663318D01*
X128387959Y-109657185D01*
X128334307Y-109653664D01*
X128330374Y-109653464D01*
X128262622Y-109644943D01*
X128223443Y-109626963D01*
X128210649Y-109597597D01*
X128222050Y-109554921D01*
X128232951Y-109535111D01*
X128250765Y-109521222D01*
X128282193Y-109515265D01*
X128336285Y-109514000D01*
X128340221Y-109513999D01*
X128391484Y-109513032D01*
X128418885Y-109508155D01*
X128429868Y-109496279D01*
X128431875Y-109474313D01*
X128430554Y-109454985D01*
X128420976Y-109441274D01*
X128395296Y-109435688D01*
X128345697Y-109434625D01*
X128333762Y-109434470D01*
X128264789Y-109424425D01*
X128223414Y-109398702D01*
X128209625Y-109357292D01*
X128211304Y-109340882D01*
X128229721Y-109312378D01*
X128271353Y-109296605D01*
X128339800Y-109291750D01*
X128390147Y-109290920D01*
X128418381Y-109286206D01*
X128429765Y-109274343D01*
X128431875Y-109252063D01*
X128430554Y-109232735D01*
X128420976Y-109219024D01*
X128395296Y-109213438D01*
X128345697Y-109212375D01*
X128333762Y-109212220D01*
X128264789Y-109202175D01*
X128223414Y-109176452D01*
X128209625Y-109135042D01*
X128211029Y-109119934D01*
X128228886Y-109090723D01*
X128270053Y-109074508D01*
X128338034Y-109069500D01*
X128344895Y-109069499D01*
X128393145Y-109068416D01*
X128419101Y-109062228D01*
X128431302Y-109046421D01*
X128438289Y-109016477D01*
X128453686Y-108973369D01*
X128496388Y-108920431D01*
X128554907Y-108887693D01*
X128555026Y-108887657D01*
X128577606Y-108875656D01*
X128588071Y-108851480D01*
X128590625Y-108805450D01*
X128590681Y-108797875D01*
X128599036Y-108728082D01*
X128621657Y-108686484D01*
X128658653Y-108672869D01*
X128686282Y-108675352D01*
X128717972Y-108691659D01*
X128736462Y-108728071D01*
X128745945Y-108790227D01*
X128749738Y-108829126D01*
X128756752Y-108861910D01*
X128769227Y-108875997D01*
X128791029Y-108879000D01*
X128807398Y-108877938D01*
X128821613Y-108868855D01*
X128827554Y-108843787D01*
X128828750Y-108794863D01*
X128829576Y-108764889D01*
X128839376Y-108710930D01*
X128862124Y-108681526D01*
X128900188Y-108672625D01*
X128917706Y-108674038D01*
X128949240Y-108690807D01*
X128966424Y-108729732D01*
X128971625Y-108794863D01*
X128972161Y-108833853D01*
X128976458Y-108864205D01*
X128988265Y-108876619D01*
X129011313Y-108879000D01*
X129029705Y-108877864D01*
X129044022Y-108868756D01*
X129049877Y-108843724D01*
X129051000Y-108794863D01*
X129052069Y-108760905D01*
X129062393Y-108708958D01*
X129085842Y-108680983D01*
X129125054Y-108672625D01*
X129130942Y-108672869D01*
X129166140Y-108689888D01*
X129187000Y-108734210D01*
X129193875Y-108806519D01*
X129194053Y-108827500D01*
X129197576Y-108861747D01*
X129209203Y-108876096D01*
X129233563Y-108879000D01*
X129251955Y-108877864D01*
X129266272Y-108868756D01*
X129272127Y-108843724D01*
X129273250Y-108794863D01*
X129274076Y-108764889D01*
X129283876Y-108710930D01*
X129306624Y-108681526D01*
X129344688Y-108672625D01*
X129360482Y-108673755D01*
G36*
X126894083Y-113531287D02*
G01*
X126937275Y-113550782D01*
X126962914Y-113596089D01*
X126971375Y-113667773D01*
X126972099Y-113714080D01*
X126977186Y-113740776D01*
X126990969Y-113750984D01*
X127017782Y-113752625D01*
X127056171Y-113760356D01*
X127106037Y-113789086D01*
X127145804Y-113830687D01*
X127164845Y-113876227D01*
X127168395Y-113895957D01*
X127179956Y-113912463D01*
X127206794Y-113921430D01*
X127257125Y-113927418D01*
X127267181Y-113928382D01*
X127327528Y-113936944D01*
X127363053Y-113950343D01*
X127379878Y-113972418D01*
X127384125Y-114007004D01*
X127381946Y-114028814D01*
X127362323Y-114061906D01*
X127319539Y-114080307D01*
X127250232Y-114086001D01*
X127229251Y-114086178D01*
X127195004Y-114089701D01*
X127180655Y-114101328D01*
X127177750Y-114125688D01*
X127178887Y-114144080D01*
X127187995Y-114158397D01*
X127213027Y-114164252D01*
X127261888Y-114165375D01*
X127305559Y-114167196D01*
X127352541Y-114178965D01*
X127377063Y-114204570D01*
X127384125Y-114247367D01*
X127382415Y-114265872D01*
X127363133Y-114299360D01*
X127320054Y-114318216D01*
X127250232Y-114324125D01*
X127229251Y-114324303D01*
X127195004Y-114327826D01*
X127180655Y-114339453D01*
X127177750Y-114363813D01*
X127178887Y-114382205D01*
X127187995Y-114396522D01*
X127213027Y-114402377D01*
X127261888Y-114403500D01*
X127290629Y-114404259D01*
X127345250Y-114413919D01*
X127375042Y-114436466D01*
X127383882Y-114474144D01*
X127381678Y-114498901D01*
X127365496Y-114530560D01*
X127328939Y-114549215D01*
X127266524Y-114558820D01*
X127246619Y-114560629D01*
X127203641Y-114567373D01*
X127183044Y-114578165D01*
X127177750Y-114595966D01*
X127177753Y-114596549D01*
X127183334Y-114614909D01*
X127204893Y-114623574D01*
X127250232Y-114625750D01*
X127282510Y-114626731D01*
X127340926Y-114637785D01*
X127373817Y-114662482D01*
X127384125Y-114702509D01*
X127381519Y-114731300D01*
X127364136Y-114763097D01*
X127326125Y-114779710D01*
X127262500Y-114784500D01*
X127178974Y-114784500D01*
X127161681Y-114848725D01*
X127155836Y-114866124D01*
X127119785Y-114921460D01*
X127067111Y-114960258D01*
X127007094Y-114974941D01*
X126999643Y-114975151D01*
X126981205Y-114981463D01*
X126973150Y-115002798D01*
X126971375Y-115047482D01*
X126970395Y-115079760D01*
X126959341Y-115138176D01*
X126934644Y-115171067D01*
X126894617Y-115181375D01*
X126865324Y-115178662D01*
X126833811Y-115161116D01*
X126817363Y-115122942D01*
X126812625Y-115059138D01*
X126812090Y-115020148D01*
X126807793Y-114989796D01*
X126795986Y-114977382D01*
X126772938Y-114975000D01*
X126754546Y-114976137D01*
X126740229Y-114985245D01*
X126734374Y-115010277D01*
X126733250Y-115059138D01*
X126731678Y-115099941D01*
X126720367Y-115148398D01*
X126695477Y-115173935D01*
X126653875Y-115181375D01*
X126627380Y-115178954D01*
X126595915Y-115161535D01*
X126579332Y-115123204D01*
X126574500Y-115059138D01*
X126574250Y-115033318D01*
X126570906Y-114995830D01*
X126561366Y-114978936D01*
X126542750Y-114975000D01*
X126524858Y-114978345D01*
X126513758Y-114996337D01*
X126511000Y-115037467D01*
X126508662Y-115088455D01*
X126495356Y-115142440D01*
X126468428Y-115172232D01*
X126425779Y-115181375D01*
X126416815Y-115181239D01*
X126383337Y-115175250D01*
X126363742Y-115155949D01*
X126354542Y-115117253D01*
X126352250Y-115053077D01*
X126351915Y-115023217D01*
X126347993Y-114990976D01*
X126336262Y-114977631D01*
X126312563Y-114975000D01*
X126301075Y-114975324D01*
X126282323Y-114981759D01*
X126274466Y-115002993D01*
X126272875Y-115047482D01*
X126271895Y-115079760D01*
X126260841Y-115138176D01*
X126236144Y-115171067D01*
X126196117Y-115181375D01*
X126169399Y-115179182D01*
X126136432Y-115162454D01*
X126119137Y-115125100D01*
X126114125Y-115062193D01*
X126113408Y-115022124D01*
X126107132Y-114990914D01*
X126089109Y-114971926D01*
X126053160Y-114954213D01*
X126012157Y-114929466D01*
X125970291Y-114878293D01*
X125955375Y-114815504D01*
X125954274Y-114804182D01*
X125944020Y-114791552D01*
X125916838Y-114785840D01*
X125865344Y-114784500D01*
X125850497Y-114784327D01*
X125785407Y-114776969D01*
X125746282Y-114758228D01*
X125745275Y-114757307D01*
X125720065Y-114719714D01*
X125723106Y-114684098D01*
X125751030Y-114654125D01*
X125800471Y-114633454D01*
X125868063Y-114625750D01*
X125911669Y-114625100D01*
X125941130Y-114620628D01*
X125953109Y-114608793D01*
X125955375Y-114586063D01*
X125955375Y-114585499D01*
X125953217Y-114563640D01*
X125941810Y-114551941D01*
X125913657Y-114547240D01*
X125861259Y-114546375D01*
X125802181Y-114541986D01*
X125748582Y-114525037D01*
X125720526Y-114497452D01*
X125720002Y-114461481D01*
X125749000Y-114419375D01*
X125768821Y-114404054D01*
X125807943Y-114391284D01*
X125868063Y-114387625D01*
X125911669Y-114386975D01*
X125941130Y-114382503D01*
X125953109Y-114370668D01*
X125955375Y-114347938D01*
X125955323Y-114341778D01*
X125952126Y-114322938D01*
X125938759Y-114312924D01*
X125908030Y-114308955D01*
X125852747Y-114308250D01*
X125810422Y-114307639D01*
X125769690Y-114303432D01*
X125746386Y-114293172D01*
X125732051Y-114274492D01*
X125722447Y-114246369D01*
X125731152Y-114203055D01*
X125742721Y-114183557D01*
X125761444Y-114171700D01*
X125795006Y-114166517D01*
X125851848Y-114165375D01*
X125869262Y-114165351D01*
X125917679Y-114164081D01*
X125943396Y-114158878D01*
X125953574Y-114146995D01*
X125955375Y-114125688D01*
X125955374Y-114124561D01*
X125953126Y-114103005D01*
X125941543Y-114091475D01*
X125913154Y-114086848D01*
X125860491Y-114086000D01*
X125822934Y-114085449D01*
X125782738Y-114080862D01*
X125758236Y-114068892D01*
X125739603Y-114046313D01*
X125725523Y-114022439D01*
X125722806Y-113998009D01*
X125739603Y-113966938D01*
X125751115Y-113951380D01*
X125772274Y-113935824D01*
X125805457Y-113928856D01*
X125860491Y-113927250D01*
X125865479Y-113927249D01*
X125916027Y-113926267D01*
X125942873Y-113921271D01*
X125953496Y-113909038D01*
X125955375Y-113886342D01*
X125955602Y-113881620D01*
X125970832Y-113840365D01*
X126003180Y-113798367D01*
X126043127Y-113765748D01*
X126081154Y-113752625D01*
X126093245Y-113751680D01*
X126106792Y-113742251D01*
X126112779Y-113716384D01*
X126114125Y-113666447D01*
X126114427Y-113649823D01*
X126125106Y-113583046D01*
X126151343Y-113543439D01*
X126193500Y-113530375D01*
X126203198Y-113530892D01*
X126242151Y-113549200D01*
X126265255Y-113594177D01*
X126272875Y-113666447D01*
X126273484Y-113708416D01*
X126277895Y-113738188D01*
X126289721Y-113750319D01*
X126312563Y-113752625D01*
X126334705Y-113750560D01*
X126346588Y-113739340D01*
X126351369Y-113711436D01*
X126352250Y-113659319D01*
X126354715Y-113607990D01*
X126367581Y-113559474D01*
X126393394Y-113535631D01*
X126434323Y-113533126D01*
X126444076Y-113535377D01*
X126479369Y-113562318D01*
X126502386Y-113613808D01*
X126510766Y-113685157D01*
X126513069Y-113727103D01*
X126522436Y-113747611D01*
X126542750Y-113752625D01*
X126553408Y-113751794D01*
X126566984Y-113742432D01*
X126573086Y-113716505D01*
X126574500Y-113666447D01*
X126574802Y-113649823D01*
X126585481Y-113583046D01*
X126611718Y-113543439D01*
X126653875Y-113530375D01*
X126663573Y-113530892D01*
X126702526Y-113549200D01*
X126725630Y-113594177D01*
X126733250Y-113666447D01*
X126733859Y-113708416D01*
X126738270Y-113738188D01*
X126750096Y-113750319D01*
X126772938Y-113752625D01*
X126789442Y-113751795D01*
X126804977Y-113743542D01*
X126811377Y-113719703D01*
X126812625Y-113672207D01*
X126813011Y-113650564D01*
X126822238Y-113583000D01*
X126844182Y-113543333D01*
X126879403Y-113530375D01*
X126894083Y-113531287D01*
G37*
X126894083Y-113531287D02*
X126937275Y-113550782D01*
X126962914Y-113596089D01*
X126971375Y-113667773D01*
X126972099Y-113714080D01*
X126977186Y-113740776D01*
X126990969Y-113750984D01*
X127017782Y-113752625D01*
X127056171Y-113760356D01*
X127106037Y-113789086D01*
X127145804Y-113830687D01*
X127164845Y-113876227D01*
X127168395Y-113895957D01*
X127179956Y-113912463D01*
X127206794Y-113921430D01*
X127257125Y-113927418D01*
X127267181Y-113928382D01*
X127327528Y-113936944D01*
X127363053Y-113950343D01*
X127379878Y-113972418D01*
X127384125Y-114007004D01*
X127381946Y-114028814D01*
X127362323Y-114061906D01*
X127319539Y-114080307D01*
X127250232Y-114086001D01*
X127229251Y-114086178D01*
X127195004Y-114089701D01*
X127180655Y-114101328D01*
X127177750Y-114125688D01*
X127178887Y-114144080D01*
X127187995Y-114158397D01*
X127213027Y-114164252D01*
X127261888Y-114165375D01*
X127305559Y-114167196D01*
X127352541Y-114178965D01*
X127377063Y-114204570D01*
X127384125Y-114247367D01*
X127382415Y-114265872D01*
X127363133Y-114299360D01*
X127320054Y-114318216D01*
X127250232Y-114324125D01*
X127229251Y-114324303D01*
X127195004Y-114327826D01*
X127180655Y-114339453D01*
X127177750Y-114363813D01*
X127178887Y-114382205D01*
X127187995Y-114396522D01*
X127213027Y-114402377D01*
X127261888Y-114403500D01*
X127290629Y-114404259D01*
X127345250Y-114413919D01*
X127375042Y-114436466D01*
X127383882Y-114474144D01*
X127381678Y-114498901D01*
X127365496Y-114530560D01*
X127328939Y-114549215D01*
X127266524Y-114558820D01*
X127246619Y-114560629D01*
X127203641Y-114567373D01*
X127183044Y-114578165D01*
X127177750Y-114595966D01*
X127177753Y-114596549D01*
X127183334Y-114614909D01*
X127204893Y-114623574D01*
X127250232Y-114625750D01*
X127282510Y-114626731D01*
X127340926Y-114637785D01*
X127373817Y-114662482D01*
X127384125Y-114702509D01*
X127381519Y-114731300D01*
X127364136Y-114763097D01*
X127326125Y-114779710D01*
X127262500Y-114784500D01*
X127178974Y-114784500D01*
X127161681Y-114848725D01*
X127155836Y-114866124D01*
X127119785Y-114921460D01*
X127067111Y-114960258D01*
X127007094Y-114974941D01*
X126999643Y-114975151D01*
X126981205Y-114981463D01*
X126973150Y-115002798D01*
X126971375Y-115047482D01*
X126970395Y-115079760D01*
X126959341Y-115138176D01*
X126934644Y-115171067D01*
X126894617Y-115181375D01*
X126865324Y-115178662D01*
X126833811Y-115161116D01*
X126817363Y-115122942D01*
X126812625Y-115059138D01*
X126812090Y-115020148D01*
X126807793Y-114989796D01*
X126795986Y-114977382D01*
X126772938Y-114975000D01*
X126754546Y-114976137D01*
X126740229Y-114985245D01*
X126734374Y-115010277D01*
X126733250Y-115059138D01*
X126731678Y-115099941D01*
X126720367Y-115148398D01*
X126695477Y-115173935D01*
X126653875Y-115181375D01*
X126627380Y-115178954D01*
X126595915Y-115161535D01*
X126579332Y-115123204D01*
X126574500Y-115059138D01*
X126574250Y-115033318D01*
X126570906Y-114995830D01*
X126561366Y-114978936D01*
X126542750Y-114975000D01*
X126524858Y-114978345D01*
X126513758Y-114996337D01*
X126511000Y-115037467D01*
X126508662Y-115088455D01*
X126495356Y-115142440D01*
X126468428Y-115172232D01*
X126425779Y-115181375D01*
X126416815Y-115181239D01*
X126383337Y-115175250D01*
X126363742Y-115155949D01*
X126354542Y-115117253D01*
X126352250Y-115053077D01*
X126351915Y-115023217D01*
X126347993Y-114990976D01*
X126336262Y-114977631D01*
X126312563Y-114975000D01*
X126301075Y-114975324D01*
X126282323Y-114981759D01*
X126274466Y-115002993D01*
X126272875Y-115047482D01*
X126271895Y-115079760D01*
X126260841Y-115138176D01*
X126236144Y-115171067D01*
X126196117Y-115181375D01*
X126169399Y-115179182D01*
X126136432Y-115162454D01*
X126119137Y-115125100D01*
X126114125Y-115062193D01*
X126113408Y-115022124D01*
X126107132Y-114990914D01*
X126089109Y-114971926D01*
X126053160Y-114954213D01*
X126012157Y-114929466D01*
X125970291Y-114878293D01*
X125955375Y-114815504D01*
X125954274Y-114804182D01*
X125944020Y-114791552D01*
X125916838Y-114785840D01*
X125865344Y-114784500D01*
X125850497Y-114784327D01*
X125785407Y-114776969D01*
X125746282Y-114758228D01*
X125745275Y-114757307D01*
X125720065Y-114719714D01*
X125723106Y-114684098D01*
X125751030Y-114654125D01*
X125800471Y-114633454D01*
X125868063Y-114625750D01*
X125911669Y-114625100D01*
X125941130Y-114620628D01*
X125953109Y-114608793D01*
X125955375Y-114586063D01*
X125955375Y-114585499D01*
X125953217Y-114563640D01*
X125941810Y-114551941D01*
X125913657Y-114547240D01*
X125861259Y-114546375D01*
X125802181Y-114541986D01*
X125748582Y-114525037D01*
X125720526Y-114497452D01*
X125720002Y-114461481D01*
X125749000Y-114419375D01*
X125768821Y-114404054D01*
X125807943Y-114391284D01*
X125868063Y-114387625D01*
X125911669Y-114386975D01*
X125941130Y-114382503D01*
X125953109Y-114370668D01*
X125955375Y-114347938D01*
X125955323Y-114341778D01*
X125952126Y-114322938D01*
X125938759Y-114312924D01*
X125908030Y-114308955D01*
X125852747Y-114308250D01*
X125810422Y-114307639D01*
X125769690Y-114303432D01*
X125746386Y-114293172D01*
X125732051Y-114274492D01*
X125722447Y-114246369D01*
X125731152Y-114203055D01*
X125742721Y-114183557D01*
X125761444Y-114171700D01*
X125795006Y-114166517D01*
X125851848Y-114165375D01*
X125869262Y-114165351D01*
X125917679Y-114164081D01*
X125943396Y-114158878D01*
X125953574Y-114146995D01*
X125955375Y-114125688D01*
X125955374Y-114124561D01*
X125953126Y-114103005D01*
X125941543Y-114091475D01*
X125913154Y-114086848D01*
X125860491Y-114086000D01*
X125822934Y-114085449D01*
X125782738Y-114080862D01*
X125758236Y-114068892D01*
X125739603Y-114046313D01*
X125725523Y-114022439D01*
X125722806Y-113998009D01*
X125739603Y-113966938D01*
X125751115Y-113951380D01*
X125772274Y-113935824D01*
X125805457Y-113928856D01*
X125860491Y-113927250D01*
X125865479Y-113927249D01*
X125916027Y-113926267D01*
X125942873Y-113921271D01*
X125953496Y-113909038D01*
X125955375Y-113886342D01*
X125955602Y-113881620D01*
X125970832Y-113840365D01*
X126003180Y-113798367D01*
X126043127Y-113765748D01*
X126081154Y-113752625D01*
X126093245Y-113751680D01*
X126106792Y-113742251D01*
X126112779Y-113716384D01*
X126114125Y-113666447D01*
X126114427Y-113649823D01*
X126125106Y-113583046D01*
X126151343Y-113543439D01*
X126193500Y-113530375D01*
X126203198Y-113530892D01*
X126242151Y-113549200D01*
X126265255Y-113594177D01*
X126272875Y-113666447D01*
X126273484Y-113708416D01*
X126277895Y-113738188D01*
X126289721Y-113750319D01*
X126312563Y-113752625D01*
X126334705Y-113750560D01*
X126346588Y-113739340D01*
X126351369Y-113711436D01*
X126352250Y-113659319D01*
X126354715Y-113607990D01*
X126367581Y-113559474D01*
X126393394Y-113535631D01*
X126434323Y-113533126D01*
X126444076Y-113535377D01*
X126479369Y-113562318D01*
X126502386Y-113613808D01*
X126510766Y-113685157D01*
X126513069Y-113727103D01*
X126522436Y-113747611D01*
X126542750Y-113752625D01*
X126553408Y-113751794D01*
X126566984Y-113742432D01*
X126573086Y-113716505D01*
X126574500Y-113666447D01*
X126574802Y-113649823D01*
X126585481Y-113583046D01*
X126611718Y-113543439D01*
X126653875Y-113530375D01*
X126663573Y-113530892D01*
X126702526Y-113549200D01*
X126725630Y-113594177D01*
X126733250Y-113666447D01*
X126733859Y-113708416D01*
X126738270Y-113738188D01*
X126750096Y-113750319D01*
X126772938Y-113752625D01*
X126789442Y-113751795D01*
X126804977Y-113743542D01*
X126811377Y-113719703D01*
X126812625Y-113672207D01*
X126813011Y-113650564D01*
X126822238Y-113583000D01*
X126844182Y-113543333D01*
X126879403Y-113530375D01*
X126894083Y-113531287D01*
D14*
%TO.C,SW1*%
X129950000Y-125780000D02*
X129950000Y-121380000D01*
X131450000Y-125780000D02*
X131550000Y-125780000D01*
X131450000Y-121380000D02*
X131550000Y-121380000D01*
X133050000Y-121380000D02*
X133050000Y-125780000D01*
%TD*%
%LPC*%
D19*
%TO.C,J6*%
X113139999Y-125349999D03*
D20*
X113139999Y-124079999D03*
X113139999Y-122809999D03*
X113139999Y-121539999D03*
X113139999Y-120269999D03*
%TD*%
D21*
%TO.C,GN1*%
X113139999Y-117309999D03*
D22*
X113139999Y-114769999D03*
D21*
X113139999Y-112229999D03*
X113139999Y-109689999D03*
X113139999Y-107149999D03*
X113139999Y-104609999D03*
X113139999Y-102069999D03*
%TD*%
D23*
%TO.C,U1*%
X133110013Y-102635785D03*
X133110013Y-105175785D03*
X133110013Y-107715785D03*
X133110013Y-110255785D03*
X133110013Y-112795785D03*
X133110013Y-115335785D03*
X133110013Y-117875785D03*
X116110013Y-117875785D03*
X116110013Y-115335785D03*
X116110013Y-112795785D03*
X116110013Y-110255785D03*
X116110013Y-107715785D03*
X116110013Y-105175785D03*
X116110013Y-102635785D03*
D24*
X125880014Y-101390000D03*
X123340014Y-101390000D03*
X125880014Y-103930000D03*
X123340014Y-103904954D03*
%TD*%
D25*
%TO.C,SW1*%
X130699999Y-125629999D03*
X132299999Y-125629999D03*
X130699999Y-121529999D03*
X132299999Y-121529999D03*
%TD*%
M02*
